G04 #@! TF.GenerationSoftware,KiCad,Pcbnew,6.0.11+dfsg-1*
G04 #@! TF.CreationDate,2024-05-04T00:33:58-04:00*
G04 #@! TF.ProjectId,frontpanel,66726f6e-7470-4616-9e65-6c2e6b696361,rev?*
G04 #@! TF.SameCoordinates,Original*
G04 #@! TF.FileFunction,Copper,L1,Top*
G04 #@! TF.FilePolarity,Positive*
%FSLAX46Y46*%
G04 Gerber Fmt 4.6, Leading zero omitted, Abs format (unit mm)*
G04 Created by KiCad (PCBNEW 6.0.11+dfsg-1) date 2024-05-04 00:33:58*
%MOMM*%
%LPD*%
G01*
G04 APERTURE LIST*
G04 APERTURE END LIST*
G04 #@! TA.AperFunction,NonConductor*
G36*
X177036128Y-81098521D02*
G01*
X177044173Y-81099037D01*
X177630861Y-81155633D01*
X177638867Y-81156666D01*
X178220714Y-81250734D01*
X178228626Y-81252275D01*
X178411552Y-81294027D01*
X178803251Y-81383430D01*
X178811064Y-81385479D01*
X179376093Y-81553177D01*
X179383758Y-81555722D01*
X179936882Y-81759276D01*
X179944369Y-81762307D01*
X180483313Y-82000882D01*
X180490587Y-82004385D01*
X180538510Y-82029386D01*
X181013154Y-82277007D01*
X181020192Y-82280971D01*
X181524201Y-82586505D01*
X181530970Y-82590911D01*
X182014376Y-82928113D01*
X182020849Y-82932944D01*
X182481658Y-83300427D01*
X182487808Y-83305663D01*
X182924118Y-83701909D01*
X182929920Y-83707528D01*
X183339950Y-84130917D01*
X183345374Y-84136890D01*
X183536410Y-84361291D01*
X183727441Y-84585687D01*
X183732477Y-84592002D01*
X184085001Y-85064352D01*
X184089617Y-85070969D01*
X184144634Y-85155490D01*
X184411154Y-85564936D01*
X184415341Y-85571843D01*
X184704565Y-86085390D01*
X184708301Y-86092549D01*
X184964039Y-86623595D01*
X184967287Y-86630932D01*
X185188482Y-87177287D01*
X185191267Y-87184857D01*
X185285645Y-87469107D01*
X185376991Y-87744228D01*
X185379289Y-87751971D01*
X185385845Y-87776971D01*
X185527765Y-88318170D01*
X185528793Y-88322092D01*
X185530588Y-88329959D01*
X185605744Y-88715867D01*
X185643253Y-88908470D01*
X185644543Y-88916444D01*
X185719915Y-89501018D01*
X185720690Y-89509057D01*
X185758452Y-90097229D01*
X185758711Y-90105302D01*
X185758711Y-90694698D01*
X185758452Y-90702771D01*
X185720690Y-91290943D01*
X185719915Y-91298982D01*
X185644543Y-91883556D01*
X185643253Y-91891530D01*
X185543579Y-92403339D01*
X185530590Y-92470033D01*
X185528795Y-92477901D01*
X185527296Y-92483616D01*
X185379289Y-93048029D01*
X185376991Y-93055772D01*
X185338123Y-93172838D01*
X185229354Y-93500434D01*
X185191271Y-93615133D01*
X185188485Y-93622704D01*
X184967287Y-94169068D01*
X184964039Y-94176405D01*
X184754140Y-94612264D01*
X184708301Y-94707450D01*
X184704565Y-94714610D01*
X184415341Y-95228157D01*
X184411155Y-95235063D01*
X184128361Y-95669510D01*
X184089622Y-95729023D01*
X184085001Y-95735648D01*
X183732477Y-96207998D01*
X183727441Y-96214313D01*
X183345380Y-96663104D01*
X183339956Y-96669076D01*
X183134935Y-96880777D01*
X182929920Y-97092472D01*
X182924118Y-97098091D01*
X182487808Y-97494337D01*
X182481658Y-97499573D01*
X182020849Y-97867056D01*
X182014376Y-97871887D01*
X181530970Y-98209089D01*
X181524201Y-98213495D01*
X181020192Y-98519029D01*
X181013154Y-98522993D01*
X180490590Y-98795614D01*
X180483316Y-98799117D01*
X180295141Y-98882416D01*
X179944369Y-99037693D01*
X179936882Y-99040724D01*
X179383758Y-99244278D01*
X179376093Y-99246823D01*
X178811064Y-99414521D01*
X178803251Y-99416570D01*
X178411552Y-99505973D01*
X178228626Y-99547725D01*
X178220714Y-99549266D01*
X177638869Y-99643334D01*
X177630861Y-99644367D01*
X177044173Y-99700963D01*
X177036128Y-99701479D01*
X176479032Y-99719345D01*
X176461916Y-99717935D01*
X176455170Y-99717935D01*
X176443000Y-99715514D01*
X176419504Y-99720188D01*
X176402030Y-99722408D01*
X176013297Y-99744345D01*
X175996374Y-99745300D01*
X175989275Y-99745500D01*
X123594476Y-99745500D01*
X123569897Y-99743079D01*
X123557000Y-99740514D01*
X123544830Y-99742935D01*
X123538084Y-99742935D01*
X123520968Y-99744345D01*
X122963872Y-99726479D01*
X122955827Y-99725963D01*
X122369139Y-99669367D01*
X122361131Y-99668334D01*
X121779286Y-99574266D01*
X121771374Y-99572725D01*
X121588448Y-99530973D01*
X121196749Y-99441570D01*
X121188936Y-99439521D01*
X120623907Y-99271823D01*
X120616242Y-99269278D01*
X120063118Y-99065724D01*
X120055631Y-99062693D01*
X119516687Y-98824118D01*
X119509410Y-98820614D01*
X119465067Y-98797480D01*
X118986846Y-98547993D01*
X118979808Y-98544029D01*
X118475799Y-98238495D01*
X118469030Y-98234089D01*
X117985624Y-97896887D01*
X117979151Y-97892056D01*
X117518342Y-97524573D01*
X117512192Y-97519337D01*
X117075882Y-97123091D01*
X117070080Y-97117472D01*
X116660050Y-96694083D01*
X116654620Y-96688104D01*
X116638428Y-96669083D01*
X116272559Y-96239313D01*
X116267523Y-96232998D01*
X115914999Y-95760648D01*
X115910378Y-95754023D01*
X115898418Y-95735648D01*
X115588845Y-95260063D01*
X115584659Y-95253157D01*
X115295435Y-94739610D01*
X115291699Y-94732450D01*
X115279660Y-94707450D01*
X115035961Y-94201405D01*
X115032713Y-94194068D01*
X114811515Y-93647704D01*
X114808729Y-93640133D01*
X114802946Y-93622713D01*
X114640966Y-93134856D01*
X114623009Y-93080772D01*
X114620711Y-93073029D01*
X114497415Y-92602850D01*
X114471205Y-92502901D01*
X114469410Y-92495033D01*
X114466950Y-92482398D01*
X114371562Y-91992603D01*
X114356747Y-91916530D01*
X114355457Y-91908556D01*
X114280085Y-91323982D01*
X114279310Y-91315943D01*
X114241548Y-90727771D01*
X114241289Y-90719698D01*
X114241289Y-90402911D01*
X115625698Y-90402911D01*
X115626972Y-90425000D01*
X115642215Y-90689380D01*
X115643040Y-90693587D01*
X115643041Y-90693592D01*
X115655540Y-90757299D01*
X115697459Y-90970958D01*
X115698846Y-90975009D01*
X115768276Y-91177797D01*
X115790405Y-91242432D01*
X115818847Y-91298982D01*
X115878635Y-91417857D01*
X115919335Y-91498781D01*
X115921761Y-91502310D01*
X115921764Y-91502316D01*
X115993206Y-91606264D01*
X116081863Y-91735260D01*
X116084744Y-91738426D01*
X116270356Y-91942411D01*
X116274981Y-91947494D01*
X116278269Y-91950243D01*
X116491823Y-92128803D01*
X116491828Y-92128807D01*
X116495115Y-92131555D01*
X116551650Y-92167019D01*
X116734553Y-92281754D01*
X116734557Y-92281756D01*
X116738193Y-92284037D01*
X116742103Y-92285802D01*
X116742104Y-92285803D01*
X116995804Y-92400353D01*
X116995808Y-92400355D01*
X116999716Y-92402119D01*
X117003835Y-92403339D01*
X117270732Y-92482398D01*
X117270737Y-92482399D01*
X117274845Y-92483616D01*
X117279082Y-92484264D01*
X117279085Y-92484265D01*
X117400917Y-92502908D01*
X117558488Y-92527020D01*
X117704583Y-92529315D01*
X117841107Y-92531460D01*
X117841113Y-92531460D01*
X117845398Y-92531527D01*
X118130266Y-92497054D01*
X118407819Y-92424240D01*
X118411779Y-92422600D01*
X118411784Y-92422598D01*
X118592482Y-92347750D01*
X118672921Y-92314431D01*
X118679512Y-92310580D01*
X118916971Y-92171820D01*
X118916972Y-92171820D01*
X118920669Y-92169659D01*
X119146476Y-91992603D01*
X119195116Y-91942411D01*
X119343182Y-91789618D01*
X119346165Y-91786540D01*
X119516041Y-91555283D01*
X119592608Y-91414263D01*
X119650909Y-91306886D01*
X119650910Y-91306884D01*
X119652959Y-91303110D01*
X119735306Y-91085186D01*
X147142073Y-91085186D01*
X147142168Y-91088815D01*
X147142168Y-91088817D01*
X147144425Y-91175000D01*
X147147780Y-91303110D01*
X147150690Y-91414263D01*
X147151200Y-91417848D01*
X147151201Y-91417857D01*
X147169855Y-91548927D01*
X147197073Y-91740169D01*
X147197992Y-91743672D01*
X147197993Y-91743677D01*
X147265616Y-92001440D01*
X147280608Y-92058584D01*
X147400187Y-92365287D01*
X147401884Y-92368492D01*
X147528535Y-92607695D01*
X147554224Y-92656214D01*
X147556274Y-92659197D01*
X147556276Y-92659200D01*
X147738623Y-92924516D01*
X147738629Y-92924523D01*
X147740680Y-92927508D01*
X147743068Y-92930245D01*
X147921561Y-93134856D01*
X147957081Y-93175574D01*
X148200560Y-93397123D01*
X148467890Y-93589219D01*
X148755527Y-93749316D01*
X149059659Y-93875291D01*
X149063153Y-93876286D01*
X149063155Y-93876287D01*
X149372754Y-93964479D01*
X149372759Y-93964480D01*
X149376255Y-93965476D01*
X149600472Y-94002193D01*
X149697538Y-94018088D01*
X149697542Y-94018088D01*
X149701118Y-94018674D01*
X149704744Y-94018845D01*
X150026315Y-94034010D01*
X150026316Y-94034010D01*
X150029942Y-94034181D01*
X150039262Y-94033546D01*
X150354739Y-94012039D01*
X150354747Y-94012038D01*
X150358370Y-94011791D01*
X150361946Y-94011128D01*
X150361948Y-94011128D01*
X150678483Y-93952462D01*
X150678487Y-93952461D01*
X150682048Y-93951801D01*
X150996685Y-93855006D01*
X151298112Y-93722689D01*
X151582333Y-93556603D01*
X151791926Y-93399237D01*
X151842675Y-93361134D01*
X151842679Y-93361131D01*
X151845582Y-93358951D01*
X152084368Y-93132352D01*
X152295527Y-92879808D01*
X152325933Y-92833519D01*
X152474272Y-92607695D01*
X152474277Y-92607686D01*
X152476259Y-92604669D01*
X152577518Y-92403339D01*
X152622544Y-92313816D01*
X152622547Y-92313808D01*
X152624171Y-92310580D01*
X152633238Y-92285803D01*
X152736052Y-92004851D01*
X152736053Y-92004847D01*
X152737300Y-92001440D01*
X152738145Y-91997918D01*
X152738148Y-91997910D01*
X152813301Y-91684874D01*
X152813302Y-91684870D01*
X152814148Y-91681345D01*
X152823992Y-91600000D01*
X152853360Y-91357318D01*
X152853361Y-91357311D01*
X152853696Y-91354539D01*
X152855194Y-91306886D01*
X152859250Y-91177797D01*
X152859338Y-91175000D01*
X152854159Y-91085186D01*
X152840597Y-90849976D01*
X152840596Y-90849971D01*
X152840388Y-90846356D01*
X152839765Y-90842786D01*
X152784415Y-90525641D01*
X152784413Y-90525634D01*
X152783791Y-90522068D01*
X152756965Y-90431503D01*
X152748495Y-90402911D01*
X180155698Y-90402911D01*
X180156972Y-90425000D01*
X180172215Y-90689380D01*
X180173040Y-90693587D01*
X180173041Y-90693592D01*
X180185540Y-90757299D01*
X180227459Y-90970958D01*
X180228846Y-90975009D01*
X180298276Y-91177797D01*
X180320405Y-91242432D01*
X180348847Y-91298982D01*
X180408635Y-91417857D01*
X180449335Y-91498781D01*
X180451765Y-91502316D01*
X180483799Y-91548927D01*
X180500000Y-91582998D01*
X180500000Y-91600000D01*
X180507158Y-91606263D01*
X180507158Y-91606264D01*
X180535511Y-91631073D01*
X180556377Y-91654529D01*
X180609433Y-91731725D01*
X180609436Y-91731729D01*
X180611863Y-91735260D01*
X180614744Y-91738426D01*
X180614746Y-91738428D01*
X180800356Y-91942411D01*
X180804981Y-91947494D01*
X180808269Y-91950243D01*
X181021823Y-92128803D01*
X181021828Y-92128807D01*
X181025115Y-92131555D01*
X181089303Y-92171820D01*
X181264554Y-92281754D01*
X181268193Y-92284037D01*
X181296218Y-92296691D01*
X181300000Y-92300000D01*
X181305939Y-92301080D01*
X181316949Y-92306051D01*
X181316950Y-92306052D01*
X181525804Y-92400353D01*
X181525808Y-92400355D01*
X181529716Y-92402119D01*
X181533835Y-92403339D01*
X181800732Y-92482398D01*
X181800737Y-92482399D01*
X181804845Y-92483616D01*
X181809082Y-92484264D01*
X181809085Y-92484265D01*
X181930917Y-92502908D01*
X182088488Y-92527020D01*
X182234583Y-92529315D01*
X182371107Y-92531460D01*
X182371113Y-92531460D01*
X182375398Y-92531527D01*
X182660266Y-92497054D01*
X182937819Y-92424240D01*
X182941779Y-92422600D01*
X182941784Y-92422598D01*
X183122482Y-92347750D01*
X183202921Y-92314431D01*
X183209512Y-92310580D01*
X183446971Y-92171820D01*
X183446972Y-92171820D01*
X183450669Y-92169659D01*
X183676476Y-91992603D01*
X183725116Y-91942411D01*
X183873182Y-91789618D01*
X183876165Y-91786540D01*
X184046041Y-91555283D01*
X184122608Y-91414263D01*
X184180909Y-91306886D01*
X184180910Y-91306884D01*
X184182959Y-91303110D01*
X184284387Y-91034689D01*
X184348448Y-90754986D01*
X184369235Y-90522068D01*
X184373735Y-90471644D01*
X184373735Y-90471638D01*
X184373955Y-90469176D01*
X184374418Y-90425000D01*
X184359755Y-90209920D01*
X184355193Y-90142996D01*
X184355192Y-90142990D01*
X184354901Y-90138719D01*
X184352322Y-90126263D01*
X184297583Y-89861942D01*
X184296712Y-89857736D01*
X184290674Y-89840683D01*
X184202359Y-89591290D01*
X184200928Y-89587249D01*
X184069321Y-89332265D01*
X183904326Y-89097500D01*
X183891675Y-89083886D01*
X183711917Y-88890443D01*
X183711914Y-88890440D01*
X183708996Y-88887300D01*
X183486946Y-88705555D01*
X183242285Y-88555626D01*
X183178493Y-88527623D01*
X182983472Y-88442015D01*
X182979540Y-88440289D01*
X182949680Y-88431783D01*
X182915929Y-88422169D01*
X182703573Y-88361678D01*
X182699331Y-88361074D01*
X182699325Y-88361073D01*
X182423741Y-88321852D01*
X182419490Y-88321247D01*
X182415201Y-88321225D01*
X182415194Y-88321224D01*
X182136835Y-88319766D01*
X182136828Y-88319766D01*
X182132549Y-88319744D01*
X182128305Y-88320303D01*
X182128301Y-88320303D01*
X182003095Y-88336787D01*
X181848058Y-88357198D01*
X181843918Y-88358331D01*
X181843916Y-88358331D01*
X181811526Y-88367192D01*
X181571283Y-88432915D01*
X181567335Y-88434599D01*
X181311296Y-88543809D01*
X181311292Y-88543811D01*
X181307344Y-88545495D01*
X181287743Y-88557226D01*
X181064809Y-88690649D01*
X181064805Y-88690652D01*
X181061127Y-88692853D01*
X181057784Y-88695531D01*
X181057780Y-88695534D01*
X180948468Y-88783110D01*
X180837186Y-88872264D01*
X180834242Y-88875366D01*
X180834238Y-88875370D01*
X180668426Y-89050098D01*
X180639665Y-89080406D01*
X180472221Y-89313430D01*
X180337951Y-89567022D01*
X180239339Y-89836491D01*
X180178211Y-90116850D01*
X180155698Y-90402911D01*
X152748495Y-90402911D01*
X152745374Y-90392374D01*
X152690296Y-90206434D01*
X152677063Y-90175409D01*
X152562567Y-89906976D01*
X152562565Y-89906973D01*
X152561143Y-89903638D01*
X152398043Y-89617693D01*
X152360822Y-89567022D01*
X152205301Y-89355306D01*
X152205299Y-89355303D01*
X152203158Y-89352389D01*
X152151512Y-89296811D01*
X151981543Y-89113904D01*
X151981542Y-89113903D01*
X151979071Y-89111244D01*
X151976317Y-89108892D01*
X151976313Y-89108888D01*
X151852801Y-89003399D01*
X151728753Y-88897452D01*
X151725750Y-88895434D01*
X151725742Y-88895428D01*
X151555959Y-88781339D01*
X151455521Y-88713848D01*
X151420039Y-88695534D01*
X151166218Y-88564527D01*
X151162998Y-88562865D01*
X151159617Y-88561587D01*
X151159607Y-88561583D01*
X150940669Y-88478853D01*
X150855059Y-88446504D01*
X150851538Y-88445620D01*
X150851533Y-88445618D01*
X150698637Y-88407214D01*
X150535787Y-88366309D01*
X150496016Y-88361073D01*
X150213017Y-88323815D01*
X150213009Y-88323814D01*
X150209413Y-88323341D01*
X150072174Y-88321185D01*
X149883905Y-88318227D01*
X149883901Y-88318227D01*
X149880263Y-88318170D01*
X149876649Y-88318531D01*
X149876643Y-88318531D01*
X149646019Y-88341551D01*
X149552701Y-88350865D01*
X149481869Y-88366309D01*
X149234611Y-88420220D01*
X149234606Y-88420221D01*
X149231067Y-88420993D01*
X148919625Y-88527623D01*
X148622503Y-88669343D01*
X148343639Y-88844274D01*
X148340805Y-88846544D01*
X148340800Y-88846548D01*
X148264609Y-88907589D01*
X148086729Y-89050098D01*
X147855179Y-89284086D01*
X147652057Y-89543137D01*
X147480056Y-89823818D01*
X147478529Y-89827108D01*
X147478524Y-89827117D01*
X147397230Y-90002250D01*
X147341455Y-90122407D01*
X147238092Y-90434949D01*
X147171336Y-90757299D01*
X147142073Y-91085186D01*
X119735306Y-91085186D01*
X119754387Y-91034689D01*
X119818448Y-90754986D01*
X119839235Y-90522068D01*
X119843735Y-90471644D01*
X119843735Y-90471638D01*
X119843955Y-90469176D01*
X119844418Y-90425000D01*
X119829755Y-90209920D01*
X119825193Y-90142996D01*
X119825192Y-90142990D01*
X119824901Y-90138719D01*
X119822322Y-90126263D01*
X119767583Y-89861942D01*
X119766712Y-89857736D01*
X119760674Y-89840683D01*
X119672359Y-89591290D01*
X119670928Y-89587249D01*
X119539321Y-89332265D01*
X119374326Y-89097500D01*
X119361675Y-89083886D01*
X119181917Y-88890443D01*
X119181914Y-88890440D01*
X119178996Y-88887300D01*
X118956946Y-88705555D01*
X118712285Y-88555626D01*
X118648493Y-88527623D01*
X118453472Y-88442015D01*
X118449540Y-88440289D01*
X118419680Y-88431783D01*
X118385929Y-88422169D01*
X118173573Y-88361678D01*
X118169331Y-88361074D01*
X118169325Y-88361073D01*
X117893741Y-88321852D01*
X117889490Y-88321247D01*
X117885201Y-88321225D01*
X117885194Y-88321224D01*
X117606835Y-88319766D01*
X117606828Y-88319766D01*
X117602549Y-88319744D01*
X117598305Y-88320303D01*
X117598301Y-88320303D01*
X117473095Y-88336787D01*
X117318058Y-88357198D01*
X117313918Y-88358331D01*
X117313916Y-88358331D01*
X117281526Y-88367192D01*
X117041283Y-88432915D01*
X117037335Y-88434599D01*
X116781296Y-88543809D01*
X116781292Y-88543811D01*
X116777344Y-88545495D01*
X116757743Y-88557226D01*
X116534809Y-88690649D01*
X116534805Y-88690652D01*
X116531127Y-88692853D01*
X116527784Y-88695531D01*
X116527780Y-88695534D01*
X116418468Y-88783110D01*
X116307186Y-88872264D01*
X116304242Y-88875366D01*
X116304238Y-88875370D01*
X116138426Y-89050098D01*
X116109665Y-89080406D01*
X115942221Y-89313430D01*
X115807951Y-89567022D01*
X115709339Y-89836491D01*
X115648211Y-90116850D01*
X115625698Y-90402911D01*
X114241289Y-90402911D01*
X114241289Y-90130302D01*
X114241548Y-90122229D01*
X114279310Y-89534057D01*
X114280085Y-89526018D01*
X114355457Y-88941444D01*
X114356747Y-88933470D01*
X114408490Y-88667780D01*
X114469412Y-88354959D01*
X114471207Y-88347092D01*
X114477985Y-88321247D01*
X114620711Y-87776971D01*
X114623009Y-87769228D01*
X114808729Y-87209867D01*
X114811518Y-87202287D01*
X114820126Y-87181025D01*
X115032713Y-86655932D01*
X115035961Y-86648595D01*
X115291699Y-86117549D01*
X115295435Y-86110390D01*
X115584659Y-85596843D01*
X115588846Y-85589936D01*
X115605119Y-85564936D01*
X115910383Y-85095969D01*
X115914999Y-85089352D01*
X116267523Y-84617002D01*
X116272559Y-84610687D01*
X116654620Y-84161896D01*
X116660050Y-84155917D01*
X116684262Y-84130917D01*
X117070080Y-83732528D01*
X117075882Y-83726909D01*
X117512192Y-83330663D01*
X117518342Y-83325427D01*
X117979151Y-82957944D01*
X117985624Y-82953113D01*
X118469030Y-82615911D01*
X118475799Y-82611505D01*
X118979808Y-82305971D01*
X118986846Y-82302007D01*
X119509410Y-82029386D01*
X119516687Y-82025882D01*
X119573163Y-82000882D01*
X119704859Y-81942584D01*
X120055631Y-81787307D01*
X120063118Y-81784276D01*
X120616242Y-81580722D01*
X120623907Y-81578177D01*
X121188936Y-81410479D01*
X121196749Y-81408430D01*
X121588448Y-81319027D01*
X121771374Y-81277275D01*
X121779286Y-81275734D01*
X122361133Y-81181666D01*
X122369139Y-81180633D01*
X122955827Y-81124037D01*
X122963872Y-81123521D01*
X123520968Y-81105655D01*
X123538084Y-81107065D01*
X123544830Y-81107065D01*
X123557000Y-81109486D01*
X123569897Y-81106921D01*
X123594476Y-81104500D01*
X175977089Y-81104500D01*
X175982353Y-81104610D01*
X175983186Y-81104645D01*
X175989312Y-81105508D01*
X176003630Y-81104700D01*
X176010729Y-81104500D01*
X176025067Y-81104500D01*
X176031137Y-81103292D01*
X176031953Y-81103212D01*
X176037206Y-81102805D01*
X176409076Y-81081819D01*
X176418418Y-81082474D01*
X176418418Y-81082065D01*
X176430829Y-81082065D01*
X176443000Y-81084486D01*
X176455170Y-81082065D01*
X176461916Y-81082065D01*
X176479032Y-81080655D01*
X177036128Y-81098521D01*
G37*
G04 #@! TD.AperFunction*
M02*
