G04 #@! TF.GenerationSoftware,KiCad,Pcbnew,7.0.11+1*
G04 #@! TF.CreationDate,2024-05-06T20:44:10-04:00*
G04 #@! TF.ProjectId,frontpanel,66726f6e-7470-4616-9e65-6c2e6b696361,rev?*
G04 #@! TF.SameCoordinates,Original*
G04 #@! TF.FileFunction,Legend,Top*
G04 #@! TF.FilePolarity,Positive*
%FSLAX46Y46*%
G04 Gerber Fmt 4.6, Leading zero omitted, Abs format (unit mm)*
G04 Created by KiCad (PCBNEW 7.0.11+1) date 2024-05-06 20:44:10*
%MOMM*%
%LPD*%
G01*
G04 APERTURE LIST*
%ADD10C,0.200000*%
G04 APERTURE END LIST*
D10*
X145142856Y-87164838D02*
X145142856Y-85164838D01*
X145142856Y-85164838D02*
X145809523Y-86593409D01*
X145809523Y-86593409D02*
X146476189Y-85164838D01*
X146476189Y-85164838D02*
X146476189Y-87164838D01*
X147809522Y-86212457D02*
X147809522Y-87164838D01*
X147142856Y-85164838D02*
X147809522Y-86212457D01*
X147809522Y-86212457D02*
X148476189Y-85164838D01*
X149047618Y-87069600D02*
X149333332Y-87164838D01*
X149333332Y-87164838D02*
X149809523Y-87164838D01*
X149809523Y-87164838D02*
X149999999Y-87069600D01*
X149999999Y-87069600D02*
X150095237Y-86974361D01*
X150095237Y-86974361D02*
X150190475Y-86783885D01*
X150190475Y-86783885D02*
X150190475Y-86593409D01*
X150190475Y-86593409D02*
X150095237Y-86402933D01*
X150095237Y-86402933D02*
X149999999Y-86307695D01*
X149999999Y-86307695D02*
X149809523Y-86212457D01*
X149809523Y-86212457D02*
X149428570Y-86117219D01*
X149428570Y-86117219D02*
X149238094Y-86021980D01*
X149238094Y-86021980D02*
X149142856Y-85926742D01*
X149142856Y-85926742D02*
X149047618Y-85736266D01*
X149047618Y-85736266D02*
X149047618Y-85545790D01*
X149047618Y-85545790D02*
X149142856Y-85355314D01*
X149142856Y-85355314D02*
X149238094Y-85260076D01*
X149238094Y-85260076D02*
X149428570Y-85164838D01*
X149428570Y-85164838D02*
X149904761Y-85164838D01*
X149904761Y-85164838D02*
X150190475Y-85260076D01*
X150761904Y-85164838D02*
X151904761Y-85164838D01*
X151333332Y-87164838D02*
X151333332Y-85164838D01*
X152476190Y-86593409D02*
X153428571Y-86593409D01*
X152285714Y-87164838D02*
X152952380Y-85164838D01*
X152952380Y-85164838D02*
X153619047Y-87164838D01*
X154000000Y-85164838D02*
X155142857Y-85164838D01*
X154571428Y-87164838D02*
X154571428Y-85164838D01*
X136214284Y-96183528D02*
X136214284Y-94683528D01*
X136214284Y-94683528D02*
X136785713Y-94683528D01*
X136785713Y-94683528D02*
X136928570Y-94754957D01*
X136928570Y-94754957D02*
X136999999Y-94826385D01*
X136999999Y-94826385D02*
X137071427Y-94969242D01*
X137071427Y-94969242D02*
X137071427Y-95183528D01*
X137071427Y-95183528D02*
X136999999Y-95326385D01*
X136999999Y-95326385D02*
X136928570Y-95397814D01*
X136928570Y-95397814D02*
X136785713Y-95469242D01*
X136785713Y-95469242D02*
X136214284Y-95469242D01*
X137928570Y-96183528D02*
X137785713Y-96112100D01*
X137785713Y-96112100D02*
X137714284Y-96040671D01*
X137714284Y-96040671D02*
X137642856Y-95897814D01*
X137642856Y-95897814D02*
X137642856Y-95469242D01*
X137642856Y-95469242D02*
X137714284Y-95326385D01*
X137714284Y-95326385D02*
X137785713Y-95254957D01*
X137785713Y-95254957D02*
X137928570Y-95183528D01*
X137928570Y-95183528D02*
X138142856Y-95183528D01*
X138142856Y-95183528D02*
X138285713Y-95254957D01*
X138285713Y-95254957D02*
X138357142Y-95326385D01*
X138357142Y-95326385D02*
X138428570Y-95469242D01*
X138428570Y-95469242D02*
X138428570Y-95897814D01*
X138428570Y-95897814D02*
X138357142Y-96040671D01*
X138357142Y-96040671D02*
X138285713Y-96112100D01*
X138285713Y-96112100D02*
X138142856Y-96183528D01*
X138142856Y-96183528D02*
X137928570Y-96183528D01*
X138857142Y-95183528D02*
X139428570Y-95183528D01*
X139071427Y-94683528D02*
X139071427Y-95969242D01*
X139071427Y-95969242D02*
X139142856Y-96112100D01*
X139142856Y-96112100D02*
X139285713Y-96183528D01*
X139285713Y-96183528D02*
X139428570Y-96183528D01*
X140499999Y-96112100D02*
X140357142Y-96183528D01*
X140357142Y-96183528D02*
X140071428Y-96183528D01*
X140071428Y-96183528D02*
X139928570Y-96112100D01*
X139928570Y-96112100D02*
X139857142Y-95969242D01*
X139857142Y-95969242D02*
X139857142Y-95397814D01*
X139857142Y-95397814D02*
X139928570Y-95254957D01*
X139928570Y-95254957D02*
X140071428Y-95183528D01*
X140071428Y-95183528D02*
X140357142Y-95183528D01*
X140357142Y-95183528D02*
X140499999Y-95254957D01*
X140499999Y-95254957D02*
X140571428Y-95397814D01*
X140571428Y-95397814D02*
X140571428Y-95540671D01*
X140571428Y-95540671D02*
X139857142Y-95683528D01*
X141214284Y-95183528D02*
X141214284Y-96183528D01*
X141214284Y-95326385D02*
X141285713Y-95254957D01*
X141285713Y-95254957D02*
X141428570Y-95183528D01*
X141428570Y-95183528D02*
X141642856Y-95183528D01*
X141642856Y-95183528D02*
X141785713Y-95254957D01*
X141785713Y-95254957D02*
X141857142Y-95397814D01*
X141857142Y-95397814D02*
X141857142Y-96183528D01*
X142357142Y-95183528D02*
X142928570Y-95183528D01*
X142571427Y-94683528D02*
X142571427Y-95969242D01*
X142571427Y-95969242D02*
X142642856Y-96112100D01*
X142642856Y-96112100D02*
X142785713Y-96183528D01*
X142785713Y-96183528D02*
X142928570Y-96183528D01*
X143428570Y-96183528D02*
X143428570Y-95183528D01*
X143428570Y-94683528D02*
X143357142Y-94754957D01*
X143357142Y-94754957D02*
X143428570Y-94826385D01*
X143428570Y-94826385D02*
X143499999Y-94754957D01*
X143499999Y-94754957D02*
X143428570Y-94683528D01*
X143428570Y-94683528D02*
X143428570Y-94826385D01*
X144357142Y-96183528D02*
X144214285Y-96112100D01*
X144214285Y-96112100D02*
X144142856Y-96040671D01*
X144142856Y-96040671D02*
X144071428Y-95897814D01*
X144071428Y-95897814D02*
X144071428Y-95469242D01*
X144071428Y-95469242D02*
X144142856Y-95326385D01*
X144142856Y-95326385D02*
X144214285Y-95254957D01*
X144214285Y-95254957D02*
X144357142Y-95183528D01*
X144357142Y-95183528D02*
X144571428Y-95183528D01*
X144571428Y-95183528D02*
X144714285Y-95254957D01*
X144714285Y-95254957D02*
X144785714Y-95326385D01*
X144785714Y-95326385D02*
X144857142Y-95469242D01*
X144857142Y-95469242D02*
X144857142Y-95897814D01*
X144857142Y-95897814D02*
X144785714Y-96040671D01*
X144785714Y-96040671D02*
X144714285Y-96112100D01*
X144714285Y-96112100D02*
X144571428Y-96183528D01*
X144571428Y-96183528D02*
X144357142Y-96183528D01*
X145428571Y-96112100D02*
X145571428Y-96183528D01*
X145571428Y-96183528D02*
X145857142Y-96183528D01*
X145857142Y-96183528D02*
X145999999Y-96112100D01*
X145999999Y-96112100D02*
X146071428Y-95969242D01*
X146071428Y-95969242D02*
X146071428Y-95897814D01*
X146071428Y-95897814D02*
X145999999Y-95754957D01*
X145999999Y-95754957D02*
X145857142Y-95683528D01*
X145857142Y-95683528D02*
X145642857Y-95683528D01*
X145642857Y-95683528D02*
X145499999Y-95612100D01*
X145499999Y-95612100D02*
X145428571Y-95469242D01*
X145428571Y-95469242D02*
X145428571Y-95397814D01*
X145428571Y-95397814D02*
X145499999Y-95254957D01*
X145499999Y-95254957D02*
X145642857Y-95183528D01*
X145642857Y-95183528D02*
X145857142Y-95183528D01*
X145857142Y-95183528D02*
X145999999Y-95254957D01*
X146500000Y-95183528D02*
X147071428Y-95183528D01*
X146714285Y-94683528D02*
X146714285Y-95969242D01*
X146714285Y-95969242D02*
X146785714Y-96112100D01*
X146785714Y-96112100D02*
X146928571Y-96183528D01*
X146928571Y-96183528D02*
X147071428Y-96183528D01*
X148214286Y-96183528D02*
X148214286Y-95397814D01*
X148214286Y-95397814D02*
X148142857Y-95254957D01*
X148142857Y-95254957D02*
X148000000Y-95183528D01*
X148000000Y-95183528D02*
X147714286Y-95183528D01*
X147714286Y-95183528D02*
X147571428Y-95254957D01*
X148214286Y-96112100D02*
X148071428Y-96183528D01*
X148071428Y-96183528D02*
X147714286Y-96183528D01*
X147714286Y-96183528D02*
X147571428Y-96112100D01*
X147571428Y-96112100D02*
X147500000Y-95969242D01*
X147500000Y-95969242D02*
X147500000Y-95826385D01*
X147500000Y-95826385D02*
X147571428Y-95683528D01*
X147571428Y-95683528D02*
X147714286Y-95612100D01*
X147714286Y-95612100D02*
X148071428Y-95612100D01*
X148071428Y-95612100D02*
X148214286Y-95540671D01*
X148714286Y-95183528D02*
X149285714Y-95183528D01*
X148928571Y-94683528D02*
X148928571Y-95969242D01*
X148928571Y-95969242D02*
X149000000Y-96112100D01*
X149000000Y-96112100D02*
X149142857Y-96183528D01*
X149142857Y-96183528D02*
X149285714Y-96183528D01*
X150857143Y-94612100D02*
X149571429Y-96540671D01*
X152142858Y-94754957D02*
X152000001Y-94683528D01*
X152000001Y-94683528D02*
X151785715Y-94683528D01*
X151785715Y-94683528D02*
X151571429Y-94754957D01*
X151571429Y-94754957D02*
X151428572Y-94897814D01*
X151428572Y-94897814D02*
X151357143Y-95040671D01*
X151357143Y-95040671D02*
X151285715Y-95326385D01*
X151285715Y-95326385D02*
X151285715Y-95540671D01*
X151285715Y-95540671D02*
X151357143Y-95826385D01*
X151357143Y-95826385D02*
X151428572Y-95969242D01*
X151428572Y-95969242D02*
X151571429Y-96112100D01*
X151571429Y-96112100D02*
X151785715Y-96183528D01*
X151785715Y-96183528D02*
X151928572Y-96183528D01*
X151928572Y-96183528D02*
X152142858Y-96112100D01*
X152142858Y-96112100D02*
X152214286Y-96040671D01*
X152214286Y-96040671D02*
X152214286Y-95540671D01*
X152214286Y-95540671D02*
X151928572Y-95540671D01*
X153500001Y-96183528D02*
X153500001Y-95397814D01*
X153500001Y-95397814D02*
X153428572Y-95254957D01*
X153428572Y-95254957D02*
X153285715Y-95183528D01*
X153285715Y-95183528D02*
X153000001Y-95183528D01*
X153000001Y-95183528D02*
X152857143Y-95254957D01*
X153500001Y-96112100D02*
X153357143Y-96183528D01*
X153357143Y-96183528D02*
X153000001Y-96183528D01*
X153000001Y-96183528D02*
X152857143Y-96112100D01*
X152857143Y-96112100D02*
X152785715Y-95969242D01*
X152785715Y-95969242D02*
X152785715Y-95826385D01*
X152785715Y-95826385D02*
X152857143Y-95683528D01*
X152857143Y-95683528D02*
X153000001Y-95612100D01*
X153000001Y-95612100D02*
X153357143Y-95612100D01*
X153357143Y-95612100D02*
X153500001Y-95540671D01*
X154428572Y-96183528D02*
X154285715Y-96112100D01*
X154285715Y-96112100D02*
X154214286Y-95969242D01*
X154214286Y-95969242D02*
X154214286Y-94683528D01*
X154857143Y-95183528D02*
X155214286Y-96183528D01*
X155214286Y-96183528D02*
X155571429Y-95183528D01*
X156785715Y-96183528D02*
X156785715Y-95397814D01*
X156785715Y-95397814D02*
X156714286Y-95254957D01*
X156714286Y-95254957D02*
X156571429Y-95183528D01*
X156571429Y-95183528D02*
X156285715Y-95183528D01*
X156285715Y-95183528D02*
X156142857Y-95254957D01*
X156785715Y-96112100D02*
X156642857Y-96183528D01*
X156642857Y-96183528D02*
X156285715Y-96183528D01*
X156285715Y-96183528D02*
X156142857Y-96112100D01*
X156142857Y-96112100D02*
X156071429Y-95969242D01*
X156071429Y-95969242D02*
X156071429Y-95826385D01*
X156071429Y-95826385D02*
X156142857Y-95683528D01*
X156142857Y-95683528D02*
X156285715Y-95612100D01*
X156285715Y-95612100D02*
X156642857Y-95612100D01*
X156642857Y-95612100D02*
X156785715Y-95540671D01*
X157500000Y-95183528D02*
X157500000Y-96183528D01*
X157500000Y-95326385D02*
X157571429Y-95254957D01*
X157571429Y-95254957D02*
X157714286Y-95183528D01*
X157714286Y-95183528D02*
X157928572Y-95183528D01*
X157928572Y-95183528D02*
X158071429Y-95254957D01*
X158071429Y-95254957D02*
X158142858Y-95397814D01*
X158142858Y-95397814D02*
X158142858Y-96183528D01*
X159071429Y-96183528D02*
X158928572Y-96112100D01*
X158928572Y-96112100D02*
X158857143Y-96040671D01*
X158857143Y-96040671D02*
X158785715Y-95897814D01*
X158785715Y-95897814D02*
X158785715Y-95469242D01*
X158785715Y-95469242D02*
X158857143Y-95326385D01*
X158857143Y-95326385D02*
X158928572Y-95254957D01*
X158928572Y-95254957D02*
X159071429Y-95183528D01*
X159071429Y-95183528D02*
X159285715Y-95183528D01*
X159285715Y-95183528D02*
X159428572Y-95254957D01*
X159428572Y-95254957D02*
X159500001Y-95326385D01*
X159500001Y-95326385D02*
X159571429Y-95469242D01*
X159571429Y-95469242D02*
X159571429Y-95897814D01*
X159571429Y-95897814D02*
X159500001Y-96040671D01*
X159500001Y-96040671D02*
X159428572Y-96112100D01*
X159428572Y-96112100D02*
X159285715Y-96183528D01*
X159285715Y-96183528D02*
X159071429Y-96183528D01*
X160142858Y-96112100D02*
X160285715Y-96183528D01*
X160285715Y-96183528D02*
X160571429Y-96183528D01*
X160571429Y-96183528D02*
X160714286Y-96112100D01*
X160714286Y-96112100D02*
X160785715Y-95969242D01*
X160785715Y-95969242D02*
X160785715Y-95897814D01*
X160785715Y-95897814D02*
X160714286Y-95754957D01*
X160714286Y-95754957D02*
X160571429Y-95683528D01*
X160571429Y-95683528D02*
X160357144Y-95683528D01*
X160357144Y-95683528D02*
X160214286Y-95612100D01*
X160214286Y-95612100D02*
X160142858Y-95469242D01*
X160142858Y-95469242D02*
X160142858Y-95397814D01*
X160142858Y-95397814D02*
X160214286Y-95254957D01*
X160214286Y-95254957D02*
X160357144Y-95183528D01*
X160357144Y-95183528D02*
X160571429Y-95183528D01*
X160571429Y-95183528D02*
X160714286Y-95254957D01*
X161214287Y-95183528D02*
X161785715Y-95183528D01*
X161428572Y-94683528D02*
X161428572Y-95969242D01*
X161428572Y-95969242D02*
X161500001Y-96112100D01*
X161500001Y-96112100D02*
X161642858Y-96183528D01*
X161642858Y-96183528D02*
X161785715Y-96183528D01*
X162928573Y-96183528D02*
X162928573Y-95397814D01*
X162928573Y-95397814D02*
X162857144Y-95254957D01*
X162857144Y-95254957D02*
X162714287Y-95183528D01*
X162714287Y-95183528D02*
X162428573Y-95183528D01*
X162428573Y-95183528D02*
X162285715Y-95254957D01*
X162928573Y-96112100D02*
X162785715Y-96183528D01*
X162785715Y-96183528D02*
X162428573Y-96183528D01*
X162428573Y-96183528D02*
X162285715Y-96112100D01*
X162285715Y-96112100D02*
X162214287Y-95969242D01*
X162214287Y-95969242D02*
X162214287Y-95826385D01*
X162214287Y-95826385D02*
X162285715Y-95683528D01*
X162285715Y-95683528D02*
X162428573Y-95612100D01*
X162428573Y-95612100D02*
X162785715Y-95612100D01*
X162785715Y-95612100D02*
X162928573Y-95540671D01*
X163428573Y-95183528D02*
X164000001Y-95183528D01*
X163642858Y-94683528D02*
X163642858Y-95969242D01*
X163642858Y-95969242D02*
X163714287Y-96112100D01*
X163714287Y-96112100D02*
X163857144Y-96183528D01*
X163857144Y-96183528D02*
X164000001Y-96183528D01*
M02*
