G04 #@! TF.GenerationSoftware,KiCad,Pcbnew,5.0.2+dfsg1-1*
G04 #@! TF.CreationDate,2019-07-02T12:35:50-04:00*
G04 #@! TF.ProjectId,frontpanel,66726f6e-7470-4616-9e65-6c2e6b696361,rev?*
G04 #@! TF.SameCoordinates,Original*
G04 #@! TF.FileFunction,Other,Fab,Top*
%FSLAX46Y46*%
G04 Gerber Fmt 4.6, Leading zero omitted, Abs format (unit mm)*
G04 Created by KiCad (PCBNEW 5.0.2+dfsg1-1) date Tue 02 Jul 2019 12:35:50 PM EDT*
%MOMM*%
%LPD*%
G01*
G04 APERTURE LIST*
%ADD10C,0.150000*%
G04 APERTURE END LIST*
D10*
X181783333Y-90050000D02*
X181750000Y-90083333D01*
X181650000Y-90116666D01*
X181583333Y-90116666D01*
X181483333Y-90083333D01*
X181416666Y-90016666D01*
X181383333Y-89950000D01*
X181350000Y-89816666D01*
X181350000Y-89716666D01*
X181383333Y-89583333D01*
X181416666Y-89516666D01*
X181483333Y-89450000D01*
X181583333Y-89416666D01*
X181650000Y-89416666D01*
X181750000Y-89450000D01*
X181783333Y-89483333D01*
X182083333Y-89416666D02*
X182083333Y-89983333D01*
X182116666Y-90050000D01*
X182150000Y-90083333D01*
X182216666Y-90116666D01*
X182350000Y-90116666D01*
X182416666Y-90083333D01*
X182450000Y-90050000D01*
X182483333Y-89983333D01*
X182483333Y-89416666D01*
X182716666Y-89416666D02*
X183116666Y-89416666D01*
X182916666Y-90116666D02*
X182916666Y-89416666D01*
X181500000Y-90616666D02*
X181633333Y-90616666D01*
X181700000Y-90650000D01*
X181766666Y-90716666D01*
X181800000Y-90850000D01*
X181800000Y-91083333D01*
X181766666Y-91216666D01*
X181700000Y-91283333D01*
X181633333Y-91316666D01*
X181500000Y-91316666D01*
X181433333Y-91283333D01*
X181366666Y-91216666D01*
X181333333Y-91083333D01*
X181333333Y-90850000D01*
X181366666Y-90716666D01*
X181433333Y-90650000D01*
X181500000Y-90616666D01*
X182100000Y-90616666D02*
X182100000Y-91183333D01*
X182133333Y-91250000D01*
X182166666Y-91283333D01*
X182233333Y-91316666D01*
X182366666Y-91316666D01*
X182433333Y-91283333D01*
X182466666Y-91250000D01*
X182500000Y-91183333D01*
X182500000Y-90616666D01*
X182733333Y-90616666D02*
X183133333Y-90616666D01*
X182933333Y-91316666D02*
X182933333Y-90616666D01*
X117283333Y-90150000D02*
X117250000Y-90183333D01*
X117150000Y-90216666D01*
X117083333Y-90216666D01*
X116983333Y-90183333D01*
X116916666Y-90116666D01*
X116883333Y-90050000D01*
X116850000Y-89916666D01*
X116850000Y-89816666D01*
X116883333Y-89683333D01*
X116916666Y-89616666D01*
X116983333Y-89550000D01*
X117083333Y-89516666D01*
X117150000Y-89516666D01*
X117250000Y-89550000D01*
X117283333Y-89583333D01*
X117583333Y-89516666D02*
X117583333Y-90083333D01*
X117616666Y-90150000D01*
X117650000Y-90183333D01*
X117716666Y-90216666D01*
X117850000Y-90216666D01*
X117916666Y-90183333D01*
X117950000Y-90150000D01*
X117983333Y-90083333D01*
X117983333Y-89516666D01*
X118216666Y-89516666D02*
X118616666Y-89516666D01*
X118416666Y-90216666D02*
X118416666Y-89516666D01*
X117000000Y-90716666D02*
X117133333Y-90716666D01*
X117200000Y-90750000D01*
X117266666Y-90816666D01*
X117300000Y-90950000D01*
X117300000Y-91183333D01*
X117266666Y-91316666D01*
X117200000Y-91383333D01*
X117133333Y-91416666D01*
X117000000Y-91416666D01*
X116933333Y-91383333D01*
X116866666Y-91316666D01*
X116833333Y-91183333D01*
X116833333Y-90950000D01*
X116866666Y-90816666D01*
X116933333Y-90750000D01*
X117000000Y-90716666D01*
X117600000Y-90716666D02*
X117600000Y-91283333D01*
X117633333Y-91350000D01*
X117666666Y-91383333D01*
X117733333Y-91416666D01*
X117866666Y-91416666D01*
X117933333Y-91383333D01*
X117966666Y-91350000D01*
X118000000Y-91283333D01*
X118000000Y-90716666D01*
X118233333Y-90716666D02*
X118633333Y-90716666D01*
X118433333Y-91416666D02*
X118433333Y-90716666D01*
X149404761Y-90707142D02*
X149357142Y-90754761D01*
X149214285Y-90802380D01*
X149119047Y-90802380D01*
X148976190Y-90754761D01*
X148880952Y-90659523D01*
X148833333Y-90564285D01*
X148785714Y-90373809D01*
X148785714Y-90230952D01*
X148833333Y-90040476D01*
X148880952Y-89945238D01*
X148976190Y-89850000D01*
X149119047Y-89802380D01*
X149214285Y-89802380D01*
X149357142Y-89850000D01*
X149404761Y-89897619D01*
X149833333Y-89802380D02*
X149833333Y-90611904D01*
X149880952Y-90707142D01*
X149928571Y-90754761D01*
X150023809Y-90802380D01*
X150214285Y-90802380D01*
X150309523Y-90754761D01*
X150357142Y-90707142D01*
X150404761Y-90611904D01*
X150404761Y-89802380D01*
X150738095Y-89802380D02*
X151309523Y-89802380D01*
X151023809Y-90802380D02*
X151023809Y-89802380D01*
X149000000Y-91452380D02*
X149190476Y-91452380D01*
X149285714Y-91500000D01*
X149380952Y-91595238D01*
X149428571Y-91785714D01*
X149428571Y-92119047D01*
X149380952Y-92309523D01*
X149285714Y-92404761D01*
X149190476Y-92452380D01*
X149000000Y-92452380D01*
X148904761Y-92404761D01*
X148809523Y-92309523D01*
X148761904Y-92119047D01*
X148761904Y-91785714D01*
X148809523Y-91595238D01*
X148904761Y-91500000D01*
X149000000Y-91452380D01*
X149857142Y-91452380D02*
X149857142Y-92261904D01*
X149904761Y-92357142D01*
X149952380Y-92404761D01*
X150047619Y-92452380D01*
X150238095Y-92452380D01*
X150333333Y-92404761D01*
X150380952Y-92357142D01*
X150428571Y-92261904D01*
X150428571Y-91452380D01*
X150761904Y-91452380D02*
X151333333Y-91452380D01*
X151047619Y-92452380D02*
X151047619Y-91452380D01*
M02*
