G04 #@! TF.GenerationSoftware,KiCad,Pcbnew,7.0.11+1*
G04 #@! TF.CreationDate,2024-05-06T20:44:10-04:00*
G04 #@! TF.ProjectId,frontpanel,66726f6e-7470-4616-9e65-6c2e6b696361,rev?*
G04 #@! TF.SameCoordinates,Original*
G04 #@! TF.FileFunction,AssemblyDrawing,Top*
%FSLAX46Y46*%
G04 Gerber Fmt 4.6, Leading zero omitted, Abs format (unit mm)*
G04 Created by KiCad (PCBNEW 7.0.11+1) date 2024-05-06 20:44:10*
%MOMM*%
%LPD*%
G01*
G04 APERTURE LIST*
%ADD10C,0.150000*%
G04 APERTURE END LIST*
D10*
X181783333Y-90085866D02*
X181750000Y-90119200D01*
X181750000Y-90119200D02*
X181650000Y-90152533D01*
X181650000Y-90152533D02*
X181583333Y-90152533D01*
X181583333Y-90152533D02*
X181483333Y-90119200D01*
X181483333Y-90119200D02*
X181416667Y-90052533D01*
X181416667Y-90052533D02*
X181383333Y-89985866D01*
X181383333Y-89985866D02*
X181350000Y-89852533D01*
X181350000Y-89852533D02*
X181350000Y-89752533D01*
X181350000Y-89752533D02*
X181383333Y-89619200D01*
X181383333Y-89619200D02*
X181416667Y-89552533D01*
X181416667Y-89552533D02*
X181483333Y-89485866D01*
X181483333Y-89485866D02*
X181583333Y-89452533D01*
X181583333Y-89452533D02*
X181650000Y-89452533D01*
X181650000Y-89452533D02*
X181750000Y-89485866D01*
X181750000Y-89485866D02*
X181783333Y-89519200D01*
X182083333Y-89452533D02*
X182083333Y-90019200D01*
X182083333Y-90019200D02*
X182116667Y-90085866D01*
X182116667Y-90085866D02*
X182150000Y-90119200D01*
X182150000Y-90119200D02*
X182216667Y-90152533D01*
X182216667Y-90152533D02*
X182350000Y-90152533D01*
X182350000Y-90152533D02*
X182416667Y-90119200D01*
X182416667Y-90119200D02*
X182450000Y-90085866D01*
X182450000Y-90085866D02*
X182483333Y-90019200D01*
X182483333Y-90019200D02*
X182483333Y-89452533D01*
X182716666Y-89452533D02*
X183116666Y-89452533D01*
X182916666Y-90152533D02*
X182916666Y-89452533D01*
X181500001Y-90579533D02*
X181633334Y-90579533D01*
X181633334Y-90579533D02*
X181700001Y-90612866D01*
X181700001Y-90612866D02*
X181766667Y-90679533D01*
X181766667Y-90679533D02*
X181800001Y-90812866D01*
X181800001Y-90812866D02*
X181800001Y-91046200D01*
X181800001Y-91046200D02*
X181766667Y-91179533D01*
X181766667Y-91179533D02*
X181700001Y-91246200D01*
X181700001Y-91246200D02*
X181633334Y-91279533D01*
X181633334Y-91279533D02*
X181500001Y-91279533D01*
X181500001Y-91279533D02*
X181433334Y-91246200D01*
X181433334Y-91246200D02*
X181366667Y-91179533D01*
X181366667Y-91179533D02*
X181333334Y-91046200D01*
X181333334Y-91046200D02*
X181333334Y-90812866D01*
X181333334Y-90812866D02*
X181366667Y-90679533D01*
X181366667Y-90679533D02*
X181433334Y-90612866D01*
X181433334Y-90612866D02*
X181500001Y-90579533D01*
X182100000Y-90579533D02*
X182100000Y-91146200D01*
X182100000Y-91146200D02*
X182133334Y-91212866D01*
X182133334Y-91212866D02*
X182166667Y-91246200D01*
X182166667Y-91246200D02*
X182233334Y-91279533D01*
X182233334Y-91279533D02*
X182366667Y-91279533D01*
X182366667Y-91279533D02*
X182433334Y-91246200D01*
X182433334Y-91246200D02*
X182466667Y-91212866D01*
X182466667Y-91212866D02*
X182500000Y-91146200D01*
X182500000Y-91146200D02*
X182500000Y-90579533D01*
X182733333Y-90579533D02*
X183133333Y-90579533D01*
X182933333Y-91279533D02*
X182933333Y-90579533D01*
X149404761Y-90729580D02*
X149357142Y-90777200D01*
X149357142Y-90777200D02*
X149214285Y-90824819D01*
X149214285Y-90824819D02*
X149119047Y-90824819D01*
X149119047Y-90824819D02*
X148976190Y-90777200D01*
X148976190Y-90777200D02*
X148880952Y-90681961D01*
X148880952Y-90681961D02*
X148833333Y-90586723D01*
X148833333Y-90586723D02*
X148785714Y-90396247D01*
X148785714Y-90396247D02*
X148785714Y-90253390D01*
X148785714Y-90253390D02*
X148833333Y-90062914D01*
X148833333Y-90062914D02*
X148880952Y-89967676D01*
X148880952Y-89967676D02*
X148976190Y-89872438D01*
X148976190Y-89872438D02*
X149119047Y-89824819D01*
X149119047Y-89824819D02*
X149214285Y-89824819D01*
X149214285Y-89824819D02*
X149357142Y-89872438D01*
X149357142Y-89872438D02*
X149404761Y-89920057D01*
X149833333Y-89824819D02*
X149833333Y-90634342D01*
X149833333Y-90634342D02*
X149880952Y-90729580D01*
X149880952Y-90729580D02*
X149928571Y-90777200D01*
X149928571Y-90777200D02*
X150023809Y-90824819D01*
X150023809Y-90824819D02*
X150214285Y-90824819D01*
X150214285Y-90824819D02*
X150309523Y-90777200D01*
X150309523Y-90777200D02*
X150357142Y-90729580D01*
X150357142Y-90729580D02*
X150404761Y-90634342D01*
X150404761Y-90634342D02*
X150404761Y-89824819D01*
X150738095Y-89824819D02*
X151309523Y-89824819D01*
X151023809Y-90824819D02*
X151023809Y-89824819D01*
X149000000Y-91434819D02*
X149190476Y-91434819D01*
X149190476Y-91434819D02*
X149285714Y-91482438D01*
X149285714Y-91482438D02*
X149380952Y-91577676D01*
X149380952Y-91577676D02*
X149428571Y-91768152D01*
X149428571Y-91768152D02*
X149428571Y-92101485D01*
X149428571Y-92101485D02*
X149380952Y-92291961D01*
X149380952Y-92291961D02*
X149285714Y-92387200D01*
X149285714Y-92387200D02*
X149190476Y-92434819D01*
X149190476Y-92434819D02*
X149000000Y-92434819D01*
X149000000Y-92434819D02*
X148904762Y-92387200D01*
X148904762Y-92387200D02*
X148809524Y-92291961D01*
X148809524Y-92291961D02*
X148761905Y-92101485D01*
X148761905Y-92101485D02*
X148761905Y-91768152D01*
X148761905Y-91768152D02*
X148809524Y-91577676D01*
X148809524Y-91577676D02*
X148904762Y-91482438D01*
X148904762Y-91482438D02*
X149000000Y-91434819D01*
X149857143Y-91434819D02*
X149857143Y-92244342D01*
X149857143Y-92244342D02*
X149904762Y-92339580D01*
X149904762Y-92339580D02*
X149952381Y-92387200D01*
X149952381Y-92387200D02*
X150047619Y-92434819D01*
X150047619Y-92434819D02*
X150238095Y-92434819D01*
X150238095Y-92434819D02*
X150333333Y-92387200D01*
X150333333Y-92387200D02*
X150380952Y-92339580D01*
X150380952Y-92339580D02*
X150428571Y-92244342D01*
X150428571Y-92244342D02*
X150428571Y-91434819D01*
X150761905Y-91434819D02*
X151333333Y-91434819D01*
X151047619Y-92434819D02*
X151047619Y-91434819D01*
X117283333Y-90185866D02*
X117250000Y-90219200D01*
X117250000Y-90219200D02*
X117150000Y-90252533D01*
X117150000Y-90252533D02*
X117083333Y-90252533D01*
X117083333Y-90252533D02*
X116983333Y-90219200D01*
X116983333Y-90219200D02*
X116916667Y-90152533D01*
X116916667Y-90152533D02*
X116883333Y-90085866D01*
X116883333Y-90085866D02*
X116850000Y-89952533D01*
X116850000Y-89952533D02*
X116850000Y-89852533D01*
X116850000Y-89852533D02*
X116883333Y-89719200D01*
X116883333Y-89719200D02*
X116916667Y-89652533D01*
X116916667Y-89652533D02*
X116983333Y-89585866D01*
X116983333Y-89585866D02*
X117083333Y-89552533D01*
X117083333Y-89552533D02*
X117150000Y-89552533D01*
X117150000Y-89552533D02*
X117250000Y-89585866D01*
X117250000Y-89585866D02*
X117283333Y-89619200D01*
X117583333Y-89552533D02*
X117583333Y-90119200D01*
X117583333Y-90119200D02*
X117616667Y-90185866D01*
X117616667Y-90185866D02*
X117650000Y-90219200D01*
X117650000Y-90219200D02*
X117716667Y-90252533D01*
X117716667Y-90252533D02*
X117850000Y-90252533D01*
X117850000Y-90252533D02*
X117916667Y-90219200D01*
X117916667Y-90219200D02*
X117950000Y-90185866D01*
X117950000Y-90185866D02*
X117983333Y-90119200D01*
X117983333Y-90119200D02*
X117983333Y-89552533D01*
X118216666Y-89552533D02*
X118616666Y-89552533D01*
X118416666Y-90252533D02*
X118416666Y-89552533D01*
X117000001Y-90679533D02*
X117133334Y-90679533D01*
X117133334Y-90679533D02*
X117200001Y-90712866D01*
X117200001Y-90712866D02*
X117266667Y-90779533D01*
X117266667Y-90779533D02*
X117300001Y-90912866D01*
X117300001Y-90912866D02*
X117300001Y-91146200D01*
X117300001Y-91146200D02*
X117266667Y-91279533D01*
X117266667Y-91279533D02*
X117200001Y-91346200D01*
X117200001Y-91346200D02*
X117133334Y-91379533D01*
X117133334Y-91379533D02*
X117000001Y-91379533D01*
X117000001Y-91379533D02*
X116933334Y-91346200D01*
X116933334Y-91346200D02*
X116866667Y-91279533D01*
X116866667Y-91279533D02*
X116833334Y-91146200D01*
X116833334Y-91146200D02*
X116833334Y-90912866D01*
X116833334Y-90912866D02*
X116866667Y-90779533D01*
X116866667Y-90779533D02*
X116933334Y-90712866D01*
X116933334Y-90712866D02*
X117000001Y-90679533D01*
X117600000Y-90679533D02*
X117600000Y-91246200D01*
X117600000Y-91246200D02*
X117633334Y-91312866D01*
X117633334Y-91312866D02*
X117666667Y-91346200D01*
X117666667Y-91346200D02*
X117733334Y-91379533D01*
X117733334Y-91379533D02*
X117866667Y-91379533D01*
X117866667Y-91379533D02*
X117933334Y-91346200D01*
X117933334Y-91346200D02*
X117966667Y-91312866D01*
X117966667Y-91312866D02*
X118000000Y-91246200D01*
X118000000Y-91246200D02*
X118000000Y-90679533D01*
X118233333Y-90679533D02*
X118633333Y-90679533D01*
X118433333Y-91379533D02*
X118433333Y-90679533D01*
M02*
