G04 #@! TF.GenerationSoftware,KiCad,Pcbnew,7.0.11+1*
G04 #@! TF.CreationDate,2024-05-06T20:39:40-04:00*
G04 #@! TF.ProjectId,backpanel,6261636b-7061-46e6-956c-2e6b69636164,rev?*
G04 #@! TF.SameCoordinates,Original*
G04 #@! TF.FileFunction,Copper,L2,Bot*
G04 #@! TF.FilePolarity,Positive*
%FSLAX46Y46*%
G04 Gerber Fmt 4.6, Leading zero omitted, Abs format (unit mm)*
G04 Created by KiCad (PCBNEW 7.0.11+1) date 2024-05-06 20:39:40*
%MOMM*%
%LPD*%
G01*
G04 APERTURE LIST*
G04 APERTURE END LIST*
G04 #@! TA.AperFunction,NonConductor*
G36*
X176445026Y-80925564D02*
G01*
X177045990Y-80944836D01*
X177054041Y-80945352D01*
X177650561Y-81002899D01*
X177658555Y-81003930D01*
X178163716Y-81085600D01*
X178171310Y-81087069D01*
X178900084Y-81251631D01*
X178908172Y-81253743D01*
X179424615Y-81407020D01*
X179432280Y-81409564D01*
X179994682Y-81616534D01*
X180002150Y-81619557D01*
X180550154Y-81862142D01*
X180557410Y-81865637D01*
X180857083Y-82021977D01*
X181088718Y-82142821D01*
X181095755Y-82146784D01*
X181317168Y-82281005D01*
X181608216Y-82457440D01*
X181614965Y-82461833D01*
X182106484Y-82804695D01*
X182112957Y-82809526D01*
X182581484Y-83183163D01*
X182587634Y-83188399D01*
X183031253Y-83591283D01*
X183037055Y-83596902D01*
X183453952Y-84027382D01*
X183459382Y-84033361D01*
X183847843Y-84489669D01*
X183852879Y-84495984D01*
X184211307Y-84976245D01*
X184215928Y-84982870D01*
X184542846Y-85485104D01*
X184547033Y-85492011D01*
X184841101Y-86014159D01*
X184844837Y-86021320D01*
X185104849Y-86561241D01*
X185108118Y-86568626D01*
X185333000Y-87124087D01*
X185335790Y-87131667D01*
X185524627Y-87700413D01*
X185526925Y-87708157D01*
X185678930Y-88287819D01*
X185680727Y-88295693D01*
X185795279Y-88883892D01*
X185796569Y-88891866D01*
X185873203Y-89486230D01*
X185873978Y-89494269D01*
X185912373Y-90092292D01*
X185912632Y-90100365D01*
X185912632Y-90473425D01*
X185911609Y-90489448D01*
X185627829Y-92702928D01*
X185624731Y-92718865D01*
X185526925Y-93091842D01*
X185524627Y-93099586D01*
X185335790Y-93668332D01*
X185333000Y-93675912D01*
X185108118Y-94231373D01*
X185104849Y-94238758D01*
X184844837Y-94778679D01*
X184841101Y-94785840D01*
X184547033Y-95307988D01*
X184542846Y-95314895D01*
X184215928Y-95817129D01*
X184211307Y-95823754D01*
X183852879Y-96304015D01*
X183847843Y-96310330D01*
X183459382Y-96766638D01*
X183453952Y-96772617D01*
X183037055Y-97203097D01*
X183031253Y-97208716D01*
X182587634Y-97611600D01*
X182581484Y-97616836D01*
X182112957Y-97990473D01*
X182106484Y-97995304D01*
X181614975Y-98338160D01*
X181608205Y-98342566D01*
X181095755Y-98653215D01*
X181088718Y-98657178D01*
X180557420Y-98934357D01*
X180550143Y-98937862D01*
X180002159Y-99180438D01*
X179994672Y-99183469D01*
X179432281Y-99390434D01*
X179424615Y-99392979D01*
X178850129Y-99563483D01*
X178842317Y-99565532D01*
X178258071Y-99698882D01*
X178250143Y-99700426D01*
X177658562Y-99796068D01*
X177650551Y-99797101D01*
X177054046Y-99854646D01*
X177045986Y-99855163D01*
X176469361Y-99873654D01*
X176445025Y-99874435D01*
X176440989Y-99874500D01*
X123559011Y-99874500D01*
X123554974Y-99874435D01*
X123529635Y-99873622D01*
X122954013Y-99855163D01*
X122945953Y-99854646D01*
X122349448Y-99797101D01*
X122341437Y-99796068D01*
X121749856Y-99700426D01*
X121741928Y-99698882D01*
X121157682Y-99565532D01*
X121149870Y-99563483D01*
X120575384Y-99392979D01*
X120567718Y-99390434D01*
X120005327Y-99183469D01*
X119997840Y-99180438D01*
X119449856Y-98937862D01*
X119442579Y-98934357D01*
X118911281Y-98657178D01*
X118904244Y-98653215D01*
X118391794Y-98342566D01*
X118385024Y-98338160D01*
X117893515Y-97995304D01*
X117887042Y-97990473D01*
X117418515Y-97616836D01*
X117412365Y-97611600D01*
X116968746Y-97208716D01*
X116962944Y-97203097D01*
X116546047Y-96772617D01*
X116540617Y-96766638D01*
X116171549Y-96333110D01*
X116152146Y-96310318D01*
X116147130Y-96304028D01*
X115788687Y-95823746D01*
X115784071Y-95817129D01*
X115457147Y-95314886D01*
X115452966Y-95307988D01*
X115158898Y-94785840D01*
X115155162Y-94778679D01*
X114895150Y-94238758D01*
X114891881Y-94231373D01*
X114747976Y-93875926D01*
X114666992Y-93675895D01*
X114664215Y-93668350D01*
X114551098Y-93327661D01*
X151799500Y-93327661D01*
X151829611Y-93459587D01*
X151829611Y-93459588D01*
X151888325Y-93581508D01*
X151972694Y-93687305D01*
X152078491Y-93771674D01*
X152078492Y-93771674D01*
X152078493Y-93771675D01*
X152200412Y-93830389D01*
X152302228Y-93853627D01*
X152332339Y-93860500D01*
X152332340Y-93860500D01*
X152391522Y-93860500D01*
X152400944Y-93860853D01*
X152417665Y-93862107D01*
X152567991Y-93873380D01*
X152578281Y-93874580D01*
X152584081Y-93875499D01*
X152584083Y-93875500D01*
X152591518Y-93875500D01*
X152600941Y-93875852D01*
X152608356Y-93876409D01*
X152608356Y-93876408D01*
X152608357Y-93876409D01*
X152614220Y-93875926D01*
X152624570Y-93875500D01*
X159667661Y-93875500D01*
X159688334Y-93870781D01*
X159799588Y-93845389D01*
X159921507Y-93786675D01*
X160027305Y-93702305D01*
X160111675Y-93596507D01*
X160170389Y-93474588D01*
X160200500Y-93342660D01*
X160200500Y-93275000D01*
X160200500Y-93248071D01*
X160200500Y-92984083D01*
X160200500Y-90773935D01*
X160201144Y-90762615D01*
X160200619Y-90750542D01*
X160200500Y-90745068D01*
X160200500Y-90733002D01*
X160199366Y-90721741D01*
X160190619Y-90520546D01*
X160190500Y-90515074D01*
X160190500Y-90452338D01*
X160181062Y-90410990D01*
X160160389Y-90320412D01*
X160101675Y-90198493D01*
X160101674Y-90198492D01*
X160101674Y-90198491D01*
X160017305Y-90092694D01*
X159911508Y-90008325D01*
X159789588Y-89949611D01*
X159657661Y-89919500D01*
X159657660Y-89919500D01*
X159614436Y-89919500D01*
X159607051Y-89919016D01*
X159591392Y-89919428D01*
X159590347Y-89919456D01*
X159587034Y-89919500D01*
X159553238Y-89919500D01*
X159545383Y-89920639D01*
X159400367Y-89924456D01*
X159397052Y-89924500D01*
X152602850Y-89924500D01*
X152599701Y-89924461D01*
X152444556Y-89920582D01*
X152437061Y-89919500D01*
X152426929Y-89919500D01*
X152402830Y-89919500D01*
X152399681Y-89919461D01*
X152397201Y-89919399D01*
X152382565Y-89919033D01*
X152375507Y-89919500D01*
X152332339Y-89919500D01*
X152200412Y-89949611D01*
X152200411Y-89949611D01*
X152078491Y-90008325D01*
X151972694Y-90092694D01*
X151888325Y-90198491D01*
X151829611Y-90320411D01*
X151829611Y-90320412D01*
X151799500Y-90452338D01*
X151799500Y-93327661D01*
X114551098Y-93327661D01*
X114475369Y-93099576D01*
X114473074Y-93091842D01*
X114444816Y-92984083D01*
X114321068Y-92512179D01*
X114319272Y-92504306D01*
X114204716Y-91916085D01*
X114203433Y-91908156D01*
X114126794Y-91313750D01*
X114126022Y-91305749D01*
X114087627Y-90707707D01*
X114087368Y-90699634D01*
X114087368Y-90425000D01*
X115779518Y-90425000D01*
X115799421Y-90703290D01*
X115858728Y-90975921D01*
X115956231Y-91237336D01*
X115956232Y-91237340D01*
X116089942Y-91482210D01*
X116089944Y-91482213D01*
X116189318Y-91614962D01*
X116257146Y-91705569D01*
X116257154Y-91705578D01*
X116454421Y-91902845D01*
X116454426Y-91902849D01*
X116454432Y-91902855D01*
X116677787Y-92070056D01*
X116677789Y-92070057D01*
X116915760Y-92200000D01*
X116922663Y-92203769D01*
X117184077Y-92301271D01*
X117456706Y-92360578D01*
X117735000Y-92380482D01*
X118013294Y-92360578D01*
X118285923Y-92301271D01*
X118547337Y-92203769D01*
X118656357Y-92144239D01*
X118682110Y-92133682D01*
X118800000Y-92100000D01*
X119100000Y-91900000D01*
X119201609Y-91722183D01*
X119210792Y-91709649D01*
X119210156Y-91709173D01*
X119212855Y-91705568D01*
X119380056Y-91482213D01*
X119513769Y-91237337D01*
X119611271Y-90975923D01*
X119670578Y-90703294D01*
X119690482Y-90425000D01*
X119670578Y-90146706D01*
X119611271Y-89874077D01*
X119513769Y-89612663D01*
X119450238Y-89496316D01*
X119380057Y-89367789D01*
X119380056Y-89367787D01*
X119212855Y-89144432D01*
X119212853Y-89144430D01*
X119212845Y-89144421D01*
X119015578Y-88947154D01*
X119015569Y-88947146D01*
X118965799Y-88909889D01*
X118792213Y-88779944D01*
X118792211Y-88779943D01*
X118792210Y-88779942D01*
X118783163Y-88775002D01*
X166644579Y-88775002D01*
X166664249Y-89137785D01*
X166723025Y-89496311D01*
X166820225Y-89846393D01*
X166820227Y-89846399D01*
X166954697Y-90183893D01*
X166954702Y-90183905D01*
X167026988Y-90320250D01*
X167124449Y-90504083D01*
X167124883Y-90504900D01*
X167298887Y-90761536D01*
X167328774Y-90805615D01*
X167563979Y-91082521D01*
X167827731Y-91332362D01*
X167827746Y-91332375D01*
X168116981Y-91552245D01*
X168428292Y-91739555D01*
X168486883Y-91766662D01*
X168520865Y-91782384D01*
X168537850Y-91791900D01*
X168700000Y-91900000D01*
X168892531Y-91938506D01*
X168908035Y-91942650D01*
X169102330Y-92008116D01*
X169457153Y-92086218D01*
X169818341Y-92125500D01*
X169818349Y-92125500D01*
X170181651Y-92125500D01*
X170181659Y-92125500D01*
X170542847Y-92086218D01*
X170897670Y-92008116D01*
X171241969Y-91892108D01*
X171571708Y-91739555D01*
X171883019Y-91552245D01*
X172172254Y-91332375D01*
X172250580Y-91258179D01*
X172256541Y-91252881D01*
X172800000Y-90800000D01*
X172891432Y-90479985D01*
X172901255Y-90455597D01*
X172917477Y-90425000D01*
X180309518Y-90425000D01*
X180329421Y-90703290D01*
X180388728Y-90975921D01*
X180486231Y-91237336D01*
X180486232Y-91237340D01*
X180619942Y-91482210D01*
X180619944Y-91482213D01*
X180719318Y-91614962D01*
X180787146Y-91705569D01*
X180787154Y-91705578D01*
X180984425Y-91902849D01*
X180984434Y-91902857D01*
X181108925Y-91996049D01*
X181130212Y-92016254D01*
X181188511Y-92086214D01*
X181200000Y-92100000D01*
X181800000Y-92400000D01*
X182699998Y-92400000D01*
X182700000Y-92400000D01*
X183200000Y-92200000D01*
X183254698Y-92121859D01*
X183297531Y-92083533D01*
X183322213Y-92070056D01*
X183545568Y-91902855D01*
X183742855Y-91705568D01*
X183910056Y-91482213D01*
X184043769Y-91237337D01*
X184141271Y-90975923D01*
X184200578Y-90703294D01*
X184220482Y-90425000D01*
X184200578Y-90146706D01*
X184141271Y-89874077D01*
X184043769Y-89612663D01*
X183980238Y-89496316D01*
X183910057Y-89367789D01*
X183910056Y-89367787D01*
X183742855Y-89144432D01*
X183742853Y-89144430D01*
X183742845Y-89144421D01*
X183545578Y-88947154D01*
X183545569Y-88947146D01*
X183495799Y-88909889D01*
X183322213Y-88779944D01*
X183322211Y-88779943D01*
X183322210Y-88779942D01*
X183077340Y-88646232D01*
X183077337Y-88646231D01*
X182921834Y-88588231D01*
X182815921Y-88548728D01*
X182543290Y-88489421D01*
X182265000Y-88469518D01*
X181986709Y-88489421D01*
X181714078Y-88548728D01*
X181452663Y-88646231D01*
X181452659Y-88646232D01*
X181207789Y-88779942D01*
X180984430Y-88947146D01*
X180984421Y-88947154D01*
X180787154Y-89144421D01*
X180787146Y-89144430D01*
X180619942Y-89367789D01*
X180486232Y-89612659D01*
X180486231Y-89612663D01*
X180388728Y-89874078D01*
X180329421Y-90146709D01*
X180309518Y-90425000D01*
X172917477Y-90425000D01*
X173045298Y-90183905D01*
X173179775Y-89846391D01*
X173276973Y-89496316D01*
X173280332Y-89475830D01*
X173319807Y-89235038D01*
X173335751Y-89137785D01*
X173355421Y-88775000D01*
X173335751Y-88412215D01*
X173294116Y-88158252D01*
X173276974Y-88053688D01*
X173179774Y-87703606D01*
X173179772Y-87703600D01*
X173045302Y-87366106D01*
X173045298Y-87366095D01*
X172875117Y-87045100D01*
X172671227Y-86744386D01*
X172436021Y-86467479D01*
X172380202Y-86414604D01*
X172362017Y-86393026D01*
X172300000Y-86300000D01*
X172299999Y-86299999D01*
X172271247Y-86291784D01*
X172219215Y-86262109D01*
X172172254Y-86217625D01*
X171883019Y-85997755D01*
X171571708Y-85810445D01*
X171241969Y-85657892D01*
X170897670Y-85541884D01*
X170897665Y-85541882D01*
X170897662Y-85541882D01*
X170542864Y-85463785D01*
X170542835Y-85463780D01*
X170181666Y-85424500D01*
X170181659Y-85424500D01*
X169818341Y-85424500D01*
X169818333Y-85424500D01*
X169457164Y-85463780D01*
X169457135Y-85463785D01*
X169102337Y-85541882D01*
X169102320Y-85541887D01*
X168758033Y-85657891D01*
X168428286Y-85810448D01*
X168116982Y-85997754D01*
X168116976Y-85997758D01*
X167827746Y-86217624D01*
X167827731Y-86217637D01*
X167563979Y-86467478D01*
X167328774Y-86744384D01*
X167124881Y-87045102D01*
X166954701Y-87366097D01*
X166954697Y-87366106D01*
X166820227Y-87703600D01*
X166820225Y-87703606D01*
X166723025Y-88053688D01*
X166664249Y-88412214D01*
X166644579Y-88774997D01*
X166644579Y-88775002D01*
X118783163Y-88775002D01*
X118547340Y-88646232D01*
X118547337Y-88646231D01*
X118391834Y-88588231D01*
X118285921Y-88548728D01*
X118013290Y-88489421D01*
X117735000Y-88469518D01*
X117456709Y-88489421D01*
X117184078Y-88548728D01*
X116922663Y-88646231D01*
X116922659Y-88646232D01*
X116677789Y-88779942D01*
X116454430Y-88947146D01*
X116454421Y-88947154D01*
X116257154Y-89144421D01*
X116257146Y-89144430D01*
X116089942Y-89367789D01*
X115956232Y-89612659D01*
X115956231Y-89612663D01*
X115858728Y-89874078D01*
X115799421Y-90146709D01*
X115779518Y-90425000D01*
X114087368Y-90425000D01*
X114087368Y-90100365D01*
X114087627Y-90092292D01*
X114093018Y-90008325D01*
X114126023Y-89494247D01*
X114126793Y-89486252D01*
X114203434Y-88891838D01*
X114204715Y-88883919D01*
X114319273Y-88295685D01*
X114321069Y-88287819D01*
X114473079Y-87708138D01*
X114475366Y-87700431D01*
X114664214Y-87131654D01*
X114666988Y-87124116D01*
X114711816Y-87013389D01*
X114717965Y-87000396D01*
X115696351Y-85206689D01*
X115704423Y-85193806D01*
X116492159Y-84090976D01*
X116498685Y-84082616D01*
X116540636Y-84033338D01*
X116546024Y-84027405D01*
X116906987Y-83654682D01*
X116924239Y-83639829D01*
X118097098Y-82802072D01*
X118102996Y-82798107D01*
X119893706Y-81667132D01*
X119909957Y-81658464D01*
X119997861Y-81619552D01*
X120005294Y-81616542D01*
X120531484Y-81422899D01*
X120535022Y-81421659D01*
X120605951Y-81398016D01*
X120609716Y-81396830D01*
X121149886Y-81236511D01*
X121157665Y-81234471D01*
X121741936Y-81101115D01*
X121749848Y-81099574D01*
X122341444Y-81003930D01*
X122349442Y-81002898D01*
X122821369Y-80957371D01*
X122843098Y-80957161D01*
X123400000Y-81000000D01*
X123400000Y-80999998D01*
X123440389Y-80962598D01*
X123442533Y-80964913D01*
X123473658Y-80937944D01*
X123521961Y-80926623D01*
X123551356Y-80925680D01*
X123554975Y-80925565D01*
X123559011Y-80925500D01*
X123583929Y-80925500D01*
X123984083Y-80925500D01*
X175984083Y-80925500D01*
X176416071Y-80925500D01*
X176440989Y-80925500D01*
X176445026Y-80925564D01*
G37*
G04 #@! TD.AperFunction*
M02*
