G04 #@! TF.GenerationSoftware,KiCad,Pcbnew,6.0.11+dfsg-1*
G04 #@! TF.CreationDate,2024-05-04T00:11:26-04:00*
G04 #@! TF.ProjectId,backpanel,6261636b-7061-46e6-956c-2e6b69636164,rev?*
G04 #@! TF.SameCoordinates,Original*
G04 #@! TF.FileFunction,Profile,NP*
%FSLAX46Y46*%
G04 Gerber Fmt 4.6, Leading zero omitted, Abs format (unit mm)*
G04 Created by KiCad (PCBNEW 6.0.11+dfsg-1) date 2024-05-04 00:11:26*
%MOMM*%
%LPD*%
G01*
G04 APERTURE LIST*
G04 #@! TA.AperFunction,Profile*
%ADD10C,0.200000*%
G04 #@! TD*
G04 #@! TA.AperFunction,Profile*
%ADD11C,0.150000*%
G04 #@! TD*
G04 APERTURE END LIST*
D10*
X123557000Y-80825000D02*
G75*
G03*
X123557000Y-99975000I0J-9575000D01*
G01*
D11*
X160100000Y-90750000D02*
X160100000Y-93000000D01*
X152600000Y-93775000D02*
X159600000Y-93775000D01*
X152400000Y-90020000D02*
G75*
G03*
X151900000Y-90520000I0J-500000D01*
G01*
X151900000Y-93260000D02*
G75*
G03*
X152400000Y-93760000I500000J0D01*
G01*
X159600000Y-93775000D02*
G75*
G03*
X160100000Y-93275000I0J500000D01*
G01*
X151900000Y-93000000D02*
X151900000Y-93260000D01*
X151900000Y-90750000D02*
X151900000Y-90520000D01*
X160090000Y-90520000D02*
G75*
G03*
X159590000Y-90020000I-500000J0D01*
G01*
X152400000Y-90020000D02*
X152600000Y-90025000D01*
X160090000Y-90520000D02*
X160100000Y-90750000D01*
D10*
X176000000Y-99975000D02*
X176443000Y-99975000D01*
D11*
X173250000Y-88775000D02*
G75*
G03*
X173250000Y-88775000I-3250000J0D01*
G01*
D10*
X176000000Y-80825000D02*
X124000000Y-80825000D01*
X124000000Y-99975000D02*
X176000000Y-99975000D01*
D11*
X152400000Y-93760000D02*
X152600000Y-93775000D01*
X159400000Y-90025000D02*
X159590000Y-90020000D01*
D10*
X176000000Y-80825000D02*
X176443000Y-80825000D01*
X123557000Y-99975000D02*
X124000000Y-99975000D01*
D11*
X184115000Y-90425000D02*
G75*
G03*
X184115000Y-90425000I-1850000J0D01*
G01*
X160100000Y-93275000D02*
X160100000Y-93000000D01*
D10*
X176443000Y-99975000D02*
G75*
G03*
X176443000Y-80825000I0J9575000D01*
G01*
D11*
X152600000Y-90025000D02*
X159400000Y-90025000D01*
X151900000Y-90750000D02*
X151900000Y-93000000D01*
X119585000Y-90425000D02*
G75*
G03*
X119585000Y-90425000I-1850000J0D01*
G01*
D10*
X123557000Y-80825000D02*
X124000000Y-80825000D01*
M02*
