G04 #@! TF.GenerationSoftware,KiCad,Pcbnew,6.0.11+dfsg-1*
G04 #@! TF.CreationDate,2024-05-04T00:11:26-04:00*
G04 #@! TF.ProjectId,backpanel,6261636b-7061-46e6-956c-2e6b69636164,rev?*
G04 #@! TF.SameCoordinates,Original*
G04 #@! TF.FileFunction,Legend,Top*
G04 #@! TF.FilePolarity,Positive*
%FSLAX46Y46*%
G04 Gerber Fmt 4.6, Leading zero omitted, Abs format (unit mm)*
G04 Created by KiCad (PCBNEW 6.0.11+dfsg-1) date 2024-05-04 00:11:26*
%MOMM*%
%LPD*%
G01*
G04 APERTURE LIST*
%ADD10C,0.200000*%
G04 APERTURE END LIST*
D10*
X166428571Y-94778571D02*
X165571428Y-94778571D01*
X166000000Y-94778571D02*
X166000000Y-93278571D01*
X165857142Y-93492857D01*
X165714285Y-93635714D01*
X165571428Y-93707142D01*
X167785714Y-93278571D02*
X167071428Y-93278571D01*
X167000000Y-93992857D01*
X167071428Y-93921428D01*
X167214285Y-93850000D01*
X167571428Y-93850000D01*
X167714285Y-93921428D01*
X167785714Y-93992857D01*
X167857142Y-94135714D01*
X167857142Y-94492857D01*
X167785714Y-94635714D01*
X167714285Y-94707142D01*
X167571428Y-94778571D01*
X167214285Y-94778571D01*
X167071428Y-94707142D01*
X167000000Y-94635714D01*
X169428571Y-93278571D02*
X169928571Y-94778571D01*
X170428571Y-93278571D01*
X172071428Y-94778571D02*
X172071428Y-93278571D01*
X172428571Y-93278571D01*
X172642857Y-93350000D01*
X172785714Y-93492857D01*
X172857142Y-93635714D01*
X172928571Y-93921428D01*
X172928571Y-94135714D01*
X172857142Y-94421428D01*
X172785714Y-94564285D01*
X172642857Y-94707142D01*
X172428571Y-94778571D01*
X172071428Y-94778571D01*
X174428571Y-94635714D02*
X174357142Y-94707142D01*
X174142857Y-94778571D01*
X174000000Y-94778571D01*
X173785714Y-94707142D01*
X173642857Y-94564285D01*
X173571428Y-94421428D01*
X173500000Y-94135714D01*
X173500000Y-93921428D01*
X173571428Y-93635714D01*
X173642857Y-93492857D01*
X173785714Y-93350000D01*
X174000000Y-93278571D01*
X174142857Y-93278571D01*
X174357142Y-93350000D01*
X174428571Y-93421428D01*
X154107142Y-86728571D02*
X154107142Y-87942857D01*
X154178571Y-88085714D01*
X154250000Y-88157142D01*
X154392857Y-88228571D01*
X154678571Y-88228571D01*
X154821428Y-88157142D01*
X154892857Y-88085714D01*
X154964285Y-87942857D01*
X154964285Y-86728571D01*
X155607142Y-88157142D02*
X155821428Y-88228571D01*
X156178571Y-88228571D01*
X156321428Y-88157142D01*
X156392857Y-88085714D01*
X156464285Y-87942857D01*
X156464285Y-87800000D01*
X156392857Y-87657142D01*
X156321428Y-87585714D01*
X156178571Y-87514285D01*
X155892857Y-87442857D01*
X155750000Y-87371428D01*
X155678571Y-87300000D01*
X155607142Y-87157142D01*
X155607142Y-87014285D01*
X155678571Y-86871428D01*
X155750000Y-86800000D01*
X155892857Y-86728571D01*
X156250000Y-86728571D01*
X156464285Y-86800000D01*
X157607142Y-87442857D02*
X157821428Y-87514285D01*
X157892857Y-87585714D01*
X157964285Y-87728571D01*
X157964285Y-87942857D01*
X157892857Y-88085714D01*
X157821428Y-88157142D01*
X157678571Y-88228571D01*
X157107142Y-88228571D01*
X157107142Y-86728571D01*
X157607142Y-86728571D01*
X157750000Y-86800000D01*
X157821428Y-86871428D01*
X157892857Y-87014285D01*
X157892857Y-87157142D01*
X157821428Y-87300000D01*
X157750000Y-87371428D01*
X157607142Y-87442857D01*
X157107142Y-87442857D01*
M02*
