G04 #@! TF.GenerationSoftware,KiCad,Pcbnew,7.0.11+1*
G04 #@! TF.CreationDate,2024-05-06T20:39:40-04:00*
G04 #@! TF.ProjectId,backpanel,6261636b-7061-46e6-956c-2e6b69636164,rev?*
G04 #@! TF.SameCoordinates,Original*
G04 #@! TF.FileFunction,Legend,Top*
G04 #@! TF.FilePolarity,Positive*
%FSLAX46Y46*%
G04 Gerber Fmt 4.6, Leading zero omitted, Abs format (unit mm)*
G04 Created by KiCad (PCBNEW 7.0.11+1) date 2024-05-06 20:39:40*
%MOMM*%
%LPD*%
G01*
G04 APERTURE LIST*
%ADD10C,0.200000*%
G04 APERTURE END LIST*
D10*
X166428572Y-94783528D02*
X165571429Y-94783528D01*
X166000000Y-94783528D02*
X166000000Y-93283528D01*
X166000000Y-93283528D02*
X165857143Y-93497814D01*
X165857143Y-93497814D02*
X165714286Y-93640671D01*
X165714286Y-93640671D02*
X165571429Y-93712100D01*
X167785714Y-93283528D02*
X167071428Y-93283528D01*
X167071428Y-93283528D02*
X167000000Y-93997814D01*
X167000000Y-93997814D02*
X167071428Y-93926385D01*
X167071428Y-93926385D02*
X167214286Y-93854957D01*
X167214286Y-93854957D02*
X167571428Y-93854957D01*
X167571428Y-93854957D02*
X167714286Y-93926385D01*
X167714286Y-93926385D02*
X167785714Y-93997814D01*
X167785714Y-93997814D02*
X167857143Y-94140671D01*
X167857143Y-94140671D02*
X167857143Y-94497814D01*
X167857143Y-94497814D02*
X167785714Y-94640671D01*
X167785714Y-94640671D02*
X167714286Y-94712100D01*
X167714286Y-94712100D02*
X167571428Y-94783528D01*
X167571428Y-94783528D02*
X167214286Y-94783528D01*
X167214286Y-94783528D02*
X167071428Y-94712100D01*
X167071428Y-94712100D02*
X167000000Y-94640671D01*
X169428571Y-93283528D02*
X169928571Y-94783528D01*
X169928571Y-94783528D02*
X170428571Y-93283528D01*
X172071427Y-94783528D02*
X172071427Y-93283528D01*
X172071427Y-93283528D02*
X172428570Y-93283528D01*
X172428570Y-93283528D02*
X172642856Y-93354957D01*
X172642856Y-93354957D02*
X172785713Y-93497814D01*
X172785713Y-93497814D02*
X172857142Y-93640671D01*
X172857142Y-93640671D02*
X172928570Y-93926385D01*
X172928570Y-93926385D02*
X172928570Y-94140671D01*
X172928570Y-94140671D02*
X172857142Y-94426385D01*
X172857142Y-94426385D02*
X172785713Y-94569242D01*
X172785713Y-94569242D02*
X172642856Y-94712100D01*
X172642856Y-94712100D02*
X172428570Y-94783528D01*
X172428570Y-94783528D02*
X172071427Y-94783528D01*
X174428570Y-94640671D02*
X174357142Y-94712100D01*
X174357142Y-94712100D02*
X174142856Y-94783528D01*
X174142856Y-94783528D02*
X173999999Y-94783528D01*
X173999999Y-94783528D02*
X173785713Y-94712100D01*
X173785713Y-94712100D02*
X173642856Y-94569242D01*
X173642856Y-94569242D02*
X173571427Y-94426385D01*
X173571427Y-94426385D02*
X173499999Y-94140671D01*
X173499999Y-94140671D02*
X173499999Y-93926385D01*
X173499999Y-93926385D02*
X173571427Y-93640671D01*
X173571427Y-93640671D02*
X173642856Y-93497814D01*
X173642856Y-93497814D02*
X173785713Y-93354957D01*
X173785713Y-93354957D02*
X173999999Y-93283528D01*
X173999999Y-93283528D02*
X174142856Y-93283528D01*
X174142856Y-93283528D02*
X174357142Y-93354957D01*
X174357142Y-93354957D02*
X174428570Y-93426385D01*
X154107142Y-86733528D02*
X154107142Y-87947814D01*
X154107142Y-87947814D02*
X154178571Y-88090671D01*
X154178571Y-88090671D02*
X154250000Y-88162100D01*
X154250000Y-88162100D02*
X154392857Y-88233528D01*
X154392857Y-88233528D02*
X154678571Y-88233528D01*
X154678571Y-88233528D02*
X154821428Y-88162100D01*
X154821428Y-88162100D02*
X154892857Y-88090671D01*
X154892857Y-88090671D02*
X154964285Y-87947814D01*
X154964285Y-87947814D02*
X154964285Y-86733528D01*
X155607143Y-88162100D02*
X155821429Y-88233528D01*
X155821429Y-88233528D02*
X156178571Y-88233528D01*
X156178571Y-88233528D02*
X156321429Y-88162100D01*
X156321429Y-88162100D02*
X156392857Y-88090671D01*
X156392857Y-88090671D02*
X156464286Y-87947814D01*
X156464286Y-87947814D02*
X156464286Y-87804957D01*
X156464286Y-87804957D02*
X156392857Y-87662100D01*
X156392857Y-87662100D02*
X156321429Y-87590671D01*
X156321429Y-87590671D02*
X156178571Y-87519242D01*
X156178571Y-87519242D02*
X155892857Y-87447814D01*
X155892857Y-87447814D02*
X155750000Y-87376385D01*
X155750000Y-87376385D02*
X155678571Y-87304957D01*
X155678571Y-87304957D02*
X155607143Y-87162100D01*
X155607143Y-87162100D02*
X155607143Y-87019242D01*
X155607143Y-87019242D02*
X155678571Y-86876385D01*
X155678571Y-86876385D02*
X155750000Y-86804957D01*
X155750000Y-86804957D02*
X155892857Y-86733528D01*
X155892857Y-86733528D02*
X156250000Y-86733528D01*
X156250000Y-86733528D02*
X156464286Y-86804957D01*
X157607142Y-87447814D02*
X157821428Y-87519242D01*
X157821428Y-87519242D02*
X157892857Y-87590671D01*
X157892857Y-87590671D02*
X157964285Y-87733528D01*
X157964285Y-87733528D02*
X157964285Y-87947814D01*
X157964285Y-87947814D02*
X157892857Y-88090671D01*
X157892857Y-88090671D02*
X157821428Y-88162100D01*
X157821428Y-88162100D02*
X157678571Y-88233528D01*
X157678571Y-88233528D02*
X157107142Y-88233528D01*
X157107142Y-88233528D02*
X157107142Y-86733528D01*
X157107142Y-86733528D02*
X157607142Y-86733528D01*
X157607142Y-86733528D02*
X157750000Y-86804957D01*
X157750000Y-86804957D02*
X157821428Y-86876385D01*
X157821428Y-86876385D02*
X157892857Y-87019242D01*
X157892857Y-87019242D02*
X157892857Y-87162100D01*
X157892857Y-87162100D02*
X157821428Y-87304957D01*
X157821428Y-87304957D02*
X157750000Y-87376385D01*
X157750000Y-87376385D02*
X157607142Y-87447814D01*
X157607142Y-87447814D02*
X157107142Y-87447814D01*
M02*
