G04 #@! TF.GenerationSoftware,KiCad,Pcbnew,6.0.11+dfsg-1*
G04 #@! TF.CreationDate,2024-05-03T23:23:15-04:00*
G04 #@! TF.ProjectId,backpanel,6261636b-7061-46e6-956c-2e6b69636164,rev?*
G04 #@! TF.SameCoordinates,Original*
G04 #@! TF.FileFunction,AssemblyDrawing,Top*
%FSLAX46Y46*%
G04 Gerber Fmt 4.6, Leading zero omitted, Abs format (unit mm)*
G04 Created by KiCad (PCBNEW 6.0.11+dfsg-1) date 2024-05-03 23:23:15*
%MOMM*%
%LPD*%
G01*
G04 APERTURE LIST*
%ADD10C,0.150000*%
%ADD11C,0.200000*%
G04 APERTURE END LIST*
D10*
X181783333Y-90086500D02*
X181750000Y-90119833D01*
X181650000Y-90153166D01*
X181583333Y-90153166D01*
X181483333Y-90119833D01*
X181416666Y-90053166D01*
X181383333Y-89986500D01*
X181350000Y-89853166D01*
X181350000Y-89753166D01*
X181383333Y-89619833D01*
X181416666Y-89553166D01*
X181483333Y-89486500D01*
X181583333Y-89453166D01*
X181650000Y-89453166D01*
X181750000Y-89486500D01*
X181783333Y-89519833D01*
X182083333Y-89453166D02*
X182083333Y-90019833D01*
X182116666Y-90086500D01*
X182150000Y-90119833D01*
X182216666Y-90153166D01*
X182350000Y-90153166D01*
X182416666Y-90119833D01*
X182450000Y-90086500D01*
X182483333Y-90019833D01*
X182483333Y-89453166D01*
X182716666Y-89453166D02*
X183116666Y-89453166D01*
X182916666Y-90153166D02*
X182916666Y-89453166D01*
X181500000Y-90580166D02*
X181633333Y-90580166D01*
X181700000Y-90613500D01*
X181766666Y-90680166D01*
X181800000Y-90813500D01*
X181800000Y-91046833D01*
X181766666Y-91180166D01*
X181700000Y-91246833D01*
X181633333Y-91280166D01*
X181500000Y-91280166D01*
X181433333Y-91246833D01*
X181366666Y-91180166D01*
X181333333Y-91046833D01*
X181333333Y-90813500D01*
X181366666Y-90680166D01*
X181433333Y-90613500D01*
X181500000Y-90580166D01*
X182100000Y-90580166D02*
X182100000Y-91146833D01*
X182133333Y-91213500D01*
X182166666Y-91246833D01*
X182233333Y-91280166D01*
X182366666Y-91280166D01*
X182433333Y-91246833D01*
X182466666Y-91213500D01*
X182500000Y-91146833D01*
X182500000Y-90580166D01*
X182733333Y-90580166D02*
X183133333Y-90580166D01*
X182933333Y-91280166D02*
X182933333Y-90580166D01*
X117283333Y-90186500D02*
X117250000Y-90219833D01*
X117150000Y-90253166D01*
X117083333Y-90253166D01*
X116983333Y-90219833D01*
X116916666Y-90153166D01*
X116883333Y-90086500D01*
X116850000Y-89953166D01*
X116850000Y-89853166D01*
X116883333Y-89719833D01*
X116916666Y-89653166D01*
X116983333Y-89586500D01*
X117083333Y-89553166D01*
X117150000Y-89553166D01*
X117250000Y-89586500D01*
X117283333Y-89619833D01*
X117583333Y-89553166D02*
X117583333Y-90119833D01*
X117616666Y-90186500D01*
X117650000Y-90219833D01*
X117716666Y-90253166D01*
X117850000Y-90253166D01*
X117916666Y-90219833D01*
X117950000Y-90186500D01*
X117983333Y-90119833D01*
X117983333Y-89553166D01*
X118216666Y-89553166D02*
X118616666Y-89553166D01*
X118416666Y-90253166D02*
X118416666Y-89553166D01*
X117000000Y-90680166D02*
X117133333Y-90680166D01*
X117200000Y-90713500D01*
X117266666Y-90780166D01*
X117300000Y-90913500D01*
X117300000Y-91146833D01*
X117266666Y-91280166D01*
X117200000Y-91346833D01*
X117133333Y-91380166D01*
X117000000Y-91380166D01*
X116933333Y-91346833D01*
X116866666Y-91280166D01*
X116833333Y-91146833D01*
X116833333Y-90913500D01*
X116866666Y-90780166D01*
X116933333Y-90713500D01*
X117000000Y-90680166D01*
X117600000Y-90680166D02*
X117600000Y-91246833D01*
X117633333Y-91313500D01*
X117666666Y-91346833D01*
X117733333Y-91380166D01*
X117866666Y-91380166D01*
X117933333Y-91346833D01*
X117966666Y-91313500D01*
X118000000Y-91246833D01*
X118000000Y-90680166D01*
X118233333Y-90680166D02*
X118633333Y-90680166D01*
X118433333Y-91380166D02*
X118433333Y-90680166D01*
D11*
X169107142Y-88103214D02*
X169035714Y-88174642D01*
X168821428Y-88246071D01*
X168678571Y-88246071D01*
X168464285Y-88174642D01*
X168321428Y-88031785D01*
X168250000Y-87888928D01*
X168178571Y-87603214D01*
X168178571Y-87388928D01*
X168250000Y-87103214D01*
X168321428Y-86960357D01*
X168464285Y-86817500D01*
X168678571Y-86746071D01*
X168821428Y-86746071D01*
X169035714Y-86817500D01*
X169107142Y-86888928D01*
X169750000Y-86746071D02*
X169750000Y-87960357D01*
X169821428Y-88103214D01*
X169892857Y-88174642D01*
X170035714Y-88246071D01*
X170321428Y-88246071D01*
X170464285Y-88174642D01*
X170535714Y-88103214D01*
X170607142Y-87960357D01*
X170607142Y-86746071D01*
X171107142Y-86746071D02*
X171964285Y-86746071D01*
X171535714Y-88246071D02*
X171535714Y-86746071D01*
X168500000Y-89161071D02*
X168785714Y-89161071D01*
X168928571Y-89232500D01*
X169071428Y-89375357D01*
X169142857Y-89661071D01*
X169142857Y-90161071D01*
X169071428Y-90446785D01*
X168928571Y-90589642D01*
X168785714Y-90661071D01*
X168500000Y-90661071D01*
X168357142Y-90589642D01*
X168214285Y-90446785D01*
X168142857Y-90161071D01*
X168142857Y-89661071D01*
X168214285Y-89375357D01*
X168357142Y-89232500D01*
X168500000Y-89161071D01*
X169785714Y-89161071D02*
X169785714Y-90375357D01*
X169857142Y-90518214D01*
X169928571Y-90589642D01*
X170071428Y-90661071D01*
X170357142Y-90661071D01*
X170500000Y-90589642D01*
X170571428Y-90518214D01*
X170642857Y-90375357D01*
X170642857Y-89161071D01*
X171142857Y-89161071D02*
X172000000Y-89161071D01*
X171571428Y-90661071D02*
X171571428Y-89161071D01*
D10*
X153595238Y-92257142D02*
X153547619Y-92304761D01*
X153404761Y-92352380D01*
X153309523Y-92352380D01*
X153166666Y-92304761D01*
X153071428Y-92209523D01*
X153023809Y-92114285D01*
X152976190Y-91923809D01*
X152976190Y-91780952D01*
X153023809Y-91590476D01*
X153071428Y-91495238D01*
X153166666Y-91400000D01*
X153309523Y-91352380D01*
X153404761Y-91352380D01*
X153547619Y-91400000D01*
X153595238Y-91447619D01*
X154023809Y-91352380D02*
X154023809Y-92161904D01*
X154071428Y-92257142D01*
X154119047Y-92304761D01*
X154214285Y-92352380D01*
X154404761Y-92352380D01*
X154500000Y-92304761D01*
X154547619Y-92257142D01*
X154595238Y-92161904D01*
X154595238Y-91352380D01*
X154928571Y-91352380D02*
X155500000Y-91352380D01*
X155214285Y-92352380D02*
X155214285Y-91352380D01*
X156785714Y-91352380D02*
X156976190Y-91352380D01*
X157071428Y-91400000D01*
X157166666Y-91495238D01*
X157214285Y-91685714D01*
X157214285Y-92019047D01*
X157166666Y-92209523D01*
X157071428Y-92304761D01*
X156976190Y-92352380D01*
X156785714Y-92352380D01*
X156690476Y-92304761D01*
X156595238Y-92209523D01*
X156547619Y-92019047D01*
X156547619Y-91685714D01*
X156595238Y-91495238D01*
X156690476Y-91400000D01*
X156785714Y-91352380D01*
X157642857Y-91352380D02*
X157642857Y-92161904D01*
X157690476Y-92257142D01*
X157738095Y-92304761D01*
X157833333Y-92352380D01*
X158023809Y-92352380D01*
X158119047Y-92304761D01*
X158166666Y-92257142D01*
X158214285Y-92161904D01*
X158214285Y-91352380D01*
X158547619Y-91352380D02*
X159119047Y-91352380D01*
X158833333Y-92352380D02*
X158833333Y-91352380D01*
M02*
