G04 #@! TF.GenerationSoftware,KiCad,Pcbnew,7.0.11+1*
G04 #@! TF.CreationDate,2024-05-07T09:39:49-04:00*
G04 #@! TF.ProjectId,mystat,6d797374-6174-42e6-9b69-6361645f7063,rev?*
G04 #@! TF.SameCoordinates,Original*
G04 #@! TF.FileFunction,Legend,Top*
G04 #@! TF.FilePolarity,Positive*
%FSLAX46Y46*%
G04 Gerber Fmt 4.6, Leading zero omitted, Abs format (unit mm)*
G04 Created by KiCad (PCBNEW 7.0.11+1) date 2024-05-07 09:39:49*
%MOMM*%
%LPD*%
G01*
G04 APERTURE LIST*
%ADD10C,0.200000*%
%ADD11C,0.300000*%
%ADD12C,0.150000*%
%ADD13C,0.120000*%
%ADD14C,0.127000*%
%ADD15C,0.152400*%
G04 APERTURE END LIST*
D10*
X59456600Y-111734600D02*
G75*
G03*
X58856600Y-111734600I-300000J0D01*
G01*
X58856600Y-111734600D02*
G75*
G03*
X59456600Y-111734600I300000J0D01*
G01*
X80900000Y-96700000D02*
G75*
G03*
X80300000Y-96700000I-300000J0D01*
G01*
X80300000Y-96700000D02*
G75*
G03*
X80900000Y-96700000I300000J0D01*
G01*
X65300000Y-97200000D02*
G75*
G03*
X64700000Y-97200000I-300000J0D01*
G01*
X64700000Y-97200000D02*
G75*
G03*
X65300000Y-97200000I300000J0D01*
G01*
X66600000Y-74900000D02*
G75*
G03*
X66000000Y-74900000I-300000J0D01*
G01*
X66000000Y-74900000D02*
G75*
G03*
X66600000Y-74900000I300000J0D01*
G01*
X84300000Y-105500000D02*
G75*
G03*
X83700000Y-105500000I-300000J0D01*
G01*
X83700000Y-105500000D02*
G75*
G03*
X84300000Y-105500000I300000J0D01*
G01*
X100500000Y-91700000D02*
G75*
G03*
X99900000Y-91700000I-300000J0D01*
G01*
X99900000Y-91700000D02*
G75*
G03*
X100500000Y-91700000I300000J0D01*
G01*
X58700000Y-74900000D02*
G75*
G03*
X58100000Y-74900000I-300000J0D01*
G01*
X58100000Y-74900000D02*
G75*
G03*
X58700000Y-74900000I300000J0D01*
G01*
D11*
X52378328Y-106357143D02*
X50878328Y-106357143D01*
X50878328Y-106357143D02*
X51949757Y-105857143D01*
X51949757Y-105857143D02*
X50878328Y-105357143D01*
X50878328Y-105357143D02*
X52378328Y-105357143D01*
X51664042Y-104357142D02*
X52378328Y-104357142D01*
X50878328Y-104857142D02*
X51664042Y-104357142D01*
X51664042Y-104357142D02*
X50878328Y-103857142D01*
X52306900Y-103428571D02*
X52378328Y-103214286D01*
X52378328Y-103214286D02*
X52378328Y-102857143D01*
X52378328Y-102857143D02*
X52306900Y-102714286D01*
X52306900Y-102714286D02*
X52235471Y-102642857D01*
X52235471Y-102642857D02*
X52092614Y-102571428D01*
X52092614Y-102571428D02*
X51949757Y-102571428D01*
X51949757Y-102571428D02*
X51806900Y-102642857D01*
X51806900Y-102642857D02*
X51735471Y-102714286D01*
X51735471Y-102714286D02*
X51664042Y-102857143D01*
X51664042Y-102857143D02*
X51592614Y-103142857D01*
X51592614Y-103142857D02*
X51521185Y-103285714D01*
X51521185Y-103285714D02*
X51449757Y-103357143D01*
X51449757Y-103357143D02*
X51306900Y-103428571D01*
X51306900Y-103428571D02*
X51164042Y-103428571D01*
X51164042Y-103428571D02*
X51021185Y-103357143D01*
X51021185Y-103357143D02*
X50949757Y-103285714D01*
X50949757Y-103285714D02*
X50878328Y-103142857D01*
X50878328Y-103142857D02*
X50878328Y-102785714D01*
X50878328Y-102785714D02*
X50949757Y-102571428D01*
X50878328Y-102142857D02*
X50878328Y-101285715D01*
X52378328Y-101714286D02*
X50878328Y-101714286D01*
X51949757Y-100857143D02*
X51949757Y-100142858D01*
X52378328Y-101000000D02*
X50878328Y-100500000D01*
X50878328Y-100500000D02*
X52378328Y-100000000D01*
X50878328Y-99714286D02*
X50878328Y-98857144D01*
X52378328Y-99285715D02*
X50878328Y-99285715D01*
X52378328Y-97214287D02*
X50878328Y-97214287D01*
X50878328Y-97214287D02*
X50878328Y-96642858D01*
X50878328Y-96642858D02*
X50949757Y-96500001D01*
X50949757Y-96500001D02*
X51021185Y-96428572D01*
X51021185Y-96428572D02*
X51164042Y-96357144D01*
X51164042Y-96357144D02*
X51378328Y-96357144D01*
X51378328Y-96357144D02*
X51521185Y-96428572D01*
X51521185Y-96428572D02*
X51592614Y-96500001D01*
X51592614Y-96500001D02*
X51664042Y-96642858D01*
X51664042Y-96642858D02*
X51664042Y-97214287D01*
X52378328Y-95500001D02*
X52306900Y-95642858D01*
X52306900Y-95642858D02*
X52235471Y-95714287D01*
X52235471Y-95714287D02*
X52092614Y-95785715D01*
X52092614Y-95785715D02*
X51664042Y-95785715D01*
X51664042Y-95785715D02*
X51521185Y-95714287D01*
X51521185Y-95714287D02*
X51449757Y-95642858D01*
X51449757Y-95642858D02*
X51378328Y-95500001D01*
X51378328Y-95500001D02*
X51378328Y-95285715D01*
X51378328Y-95285715D02*
X51449757Y-95142858D01*
X51449757Y-95142858D02*
X51521185Y-95071430D01*
X51521185Y-95071430D02*
X51664042Y-95000001D01*
X51664042Y-95000001D02*
X52092614Y-95000001D01*
X52092614Y-95000001D02*
X52235471Y-95071430D01*
X52235471Y-95071430D02*
X52306900Y-95142858D01*
X52306900Y-95142858D02*
X52378328Y-95285715D01*
X52378328Y-95285715D02*
X52378328Y-95500001D01*
X51378328Y-94571429D02*
X51378328Y-94000001D01*
X50878328Y-94357144D02*
X52164042Y-94357144D01*
X52164042Y-94357144D02*
X52306900Y-94285715D01*
X52306900Y-94285715D02*
X52378328Y-94142858D01*
X52378328Y-94142858D02*
X52378328Y-94000001D01*
X52306900Y-92928572D02*
X52378328Y-93071429D01*
X52378328Y-93071429D02*
X52378328Y-93357144D01*
X52378328Y-93357144D02*
X52306900Y-93500001D01*
X52306900Y-93500001D02*
X52164042Y-93571429D01*
X52164042Y-93571429D02*
X51592614Y-93571429D01*
X51592614Y-93571429D02*
X51449757Y-93500001D01*
X51449757Y-93500001D02*
X51378328Y-93357144D01*
X51378328Y-93357144D02*
X51378328Y-93071429D01*
X51378328Y-93071429D02*
X51449757Y-92928572D01*
X51449757Y-92928572D02*
X51592614Y-92857144D01*
X51592614Y-92857144D02*
X51735471Y-92857144D01*
X51735471Y-92857144D02*
X51878328Y-93571429D01*
X51378328Y-92214287D02*
X52378328Y-92214287D01*
X51521185Y-92214287D02*
X51449757Y-92142858D01*
X51449757Y-92142858D02*
X51378328Y-92000001D01*
X51378328Y-92000001D02*
X51378328Y-91785715D01*
X51378328Y-91785715D02*
X51449757Y-91642858D01*
X51449757Y-91642858D02*
X51592614Y-91571430D01*
X51592614Y-91571430D02*
X52378328Y-91571430D01*
X51378328Y-91071429D02*
X51378328Y-90500001D01*
X50878328Y-90857144D02*
X52164042Y-90857144D01*
X52164042Y-90857144D02*
X52306900Y-90785715D01*
X52306900Y-90785715D02*
X52378328Y-90642858D01*
X52378328Y-90642858D02*
X52378328Y-90500001D01*
X52378328Y-90000001D02*
X51378328Y-90000001D01*
X50878328Y-90000001D02*
X50949757Y-90071429D01*
X50949757Y-90071429D02*
X51021185Y-90000001D01*
X51021185Y-90000001D02*
X50949757Y-89928572D01*
X50949757Y-89928572D02*
X50878328Y-90000001D01*
X50878328Y-90000001D02*
X51021185Y-90000001D01*
X52378328Y-89071429D02*
X52306900Y-89214286D01*
X52306900Y-89214286D02*
X52235471Y-89285715D01*
X52235471Y-89285715D02*
X52092614Y-89357143D01*
X52092614Y-89357143D02*
X51664042Y-89357143D01*
X51664042Y-89357143D02*
X51521185Y-89285715D01*
X51521185Y-89285715D02*
X51449757Y-89214286D01*
X51449757Y-89214286D02*
X51378328Y-89071429D01*
X51378328Y-89071429D02*
X51378328Y-88857143D01*
X51378328Y-88857143D02*
X51449757Y-88714286D01*
X51449757Y-88714286D02*
X51521185Y-88642858D01*
X51521185Y-88642858D02*
X51664042Y-88571429D01*
X51664042Y-88571429D02*
X52092614Y-88571429D01*
X52092614Y-88571429D02*
X52235471Y-88642858D01*
X52235471Y-88642858D02*
X52306900Y-88714286D01*
X52306900Y-88714286D02*
X52378328Y-88857143D01*
X52378328Y-88857143D02*
X52378328Y-89071429D01*
X52306900Y-88000000D02*
X52378328Y-87857143D01*
X52378328Y-87857143D02*
X52378328Y-87571429D01*
X52378328Y-87571429D02*
X52306900Y-87428572D01*
X52306900Y-87428572D02*
X52164042Y-87357143D01*
X52164042Y-87357143D02*
X52092614Y-87357143D01*
X52092614Y-87357143D02*
X51949757Y-87428572D01*
X51949757Y-87428572D02*
X51878328Y-87571429D01*
X51878328Y-87571429D02*
X51878328Y-87785715D01*
X51878328Y-87785715D02*
X51806900Y-87928572D01*
X51806900Y-87928572D02*
X51664042Y-88000000D01*
X51664042Y-88000000D02*
X51592614Y-88000000D01*
X51592614Y-88000000D02*
X51449757Y-87928572D01*
X51449757Y-87928572D02*
X51378328Y-87785715D01*
X51378328Y-87785715D02*
X51378328Y-87571429D01*
X51378328Y-87571429D02*
X51449757Y-87428572D01*
X51378328Y-86928571D02*
X51378328Y-86357143D01*
X50878328Y-86714286D02*
X52164042Y-86714286D01*
X52164042Y-86714286D02*
X52306900Y-86642857D01*
X52306900Y-86642857D02*
X52378328Y-86500000D01*
X52378328Y-86500000D02*
X52378328Y-86357143D01*
X52378328Y-85214286D02*
X51592614Y-85214286D01*
X51592614Y-85214286D02*
X51449757Y-85285714D01*
X51449757Y-85285714D02*
X51378328Y-85428571D01*
X51378328Y-85428571D02*
X51378328Y-85714286D01*
X51378328Y-85714286D02*
X51449757Y-85857143D01*
X52306900Y-85214286D02*
X52378328Y-85357143D01*
X52378328Y-85357143D02*
X52378328Y-85714286D01*
X52378328Y-85714286D02*
X52306900Y-85857143D01*
X52306900Y-85857143D02*
X52164042Y-85928571D01*
X52164042Y-85928571D02*
X52021185Y-85928571D01*
X52021185Y-85928571D02*
X51878328Y-85857143D01*
X51878328Y-85857143D02*
X51806900Y-85714286D01*
X51806900Y-85714286D02*
X51806900Y-85357143D01*
X51806900Y-85357143D02*
X51735471Y-85214286D01*
X51378328Y-84714285D02*
X51378328Y-84142857D01*
X50878328Y-84500000D02*
X52164042Y-84500000D01*
X52164042Y-84500000D02*
X52306900Y-84428571D01*
X52306900Y-84428571D02*
X52378328Y-84285714D01*
X52378328Y-84285714D02*
X52378328Y-84142857D01*
X50806900Y-82571428D02*
X52735471Y-83857142D01*
X50949757Y-81285713D02*
X50878328Y-81428571D01*
X50878328Y-81428571D02*
X50878328Y-81642856D01*
X50878328Y-81642856D02*
X50949757Y-81857142D01*
X50949757Y-81857142D02*
X51092614Y-81999999D01*
X51092614Y-81999999D02*
X51235471Y-82071428D01*
X51235471Y-82071428D02*
X51521185Y-82142856D01*
X51521185Y-82142856D02*
X51735471Y-82142856D01*
X51735471Y-82142856D02*
X52021185Y-82071428D01*
X52021185Y-82071428D02*
X52164042Y-81999999D01*
X52164042Y-81999999D02*
X52306900Y-81857142D01*
X52306900Y-81857142D02*
X52378328Y-81642856D01*
X52378328Y-81642856D02*
X52378328Y-81499999D01*
X52378328Y-81499999D02*
X52306900Y-81285713D01*
X52306900Y-81285713D02*
X52235471Y-81214285D01*
X52235471Y-81214285D02*
X51735471Y-81214285D01*
X51735471Y-81214285D02*
X51735471Y-81499999D01*
X52378328Y-79928571D02*
X51592614Y-79928571D01*
X51592614Y-79928571D02*
X51449757Y-79999999D01*
X51449757Y-79999999D02*
X51378328Y-80142856D01*
X51378328Y-80142856D02*
X51378328Y-80428571D01*
X51378328Y-80428571D02*
X51449757Y-80571428D01*
X52306900Y-79928571D02*
X52378328Y-80071428D01*
X52378328Y-80071428D02*
X52378328Y-80428571D01*
X52378328Y-80428571D02*
X52306900Y-80571428D01*
X52306900Y-80571428D02*
X52164042Y-80642856D01*
X52164042Y-80642856D02*
X52021185Y-80642856D01*
X52021185Y-80642856D02*
X51878328Y-80571428D01*
X51878328Y-80571428D02*
X51806900Y-80428571D01*
X51806900Y-80428571D02*
X51806900Y-80071428D01*
X51806900Y-80071428D02*
X51735471Y-79928571D01*
X52378328Y-78999999D02*
X52306900Y-79142856D01*
X52306900Y-79142856D02*
X52164042Y-79214285D01*
X52164042Y-79214285D02*
X50878328Y-79214285D01*
X51378328Y-78571428D02*
X52378328Y-78214285D01*
X52378328Y-78214285D02*
X51378328Y-77857142D01*
X52378328Y-76642857D02*
X51592614Y-76642857D01*
X51592614Y-76642857D02*
X51449757Y-76714285D01*
X51449757Y-76714285D02*
X51378328Y-76857142D01*
X51378328Y-76857142D02*
X51378328Y-77142857D01*
X51378328Y-77142857D02*
X51449757Y-77285714D01*
X52306900Y-76642857D02*
X52378328Y-76785714D01*
X52378328Y-76785714D02*
X52378328Y-77142857D01*
X52378328Y-77142857D02*
X52306900Y-77285714D01*
X52306900Y-77285714D02*
X52164042Y-77357142D01*
X52164042Y-77357142D02*
X52021185Y-77357142D01*
X52021185Y-77357142D02*
X51878328Y-77285714D01*
X51878328Y-77285714D02*
X51806900Y-77142857D01*
X51806900Y-77142857D02*
X51806900Y-76785714D01*
X51806900Y-76785714D02*
X51735471Y-76642857D01*
X51378328Y-75928571D02*
X52378328Y-75928571D01*
X51521185Y-75928571D02*
X51449757Y-75857142D01*
X51449757Y-75857142D02*
X51378328Y-75714285D01*
X51378328Y-75714285D02*
X51378328Y-75499999D01*
X51378328Y-75499999D02*
X51449757Y-75357142D01*
X51449757Y-75357142D02*
X51592614Y-75285714D01*
X51592614Y-75285714D02*
X52378328Y-75285714D01*
X52378328Y-74357142D02*
X52306900Y-74499999D01*
X52306900Y-74499999D02*
X52235471Y-74571428D01*
X52235471Y-74571428D02*
X52092614Y-74642856D01*
X52092614Y-74642856D02*
X51664042Y-74642856D01*
X51664042Y-74642856D02*
X51521185Y-74571428D01*
X51521185Y-74571428D02*
X51449757Y-74499999D01*
X51449757Y-74499999D02*
X51378328Y-74357142D01*
X51378328Y-74357142D02*
X51378328Y-74142856D01*
X51378328Y-74142856D02*
X51449757Y-73999999D01*
X51449757Y-73999999D02*
X51521185Y-73928571D01*
X51521185Y-73928571D02*
X51664042Y-73857142D01*
X51664042Y-73857142D02*
X52092614Y-73857142D01*
X52092614Y-73857142D02*
X52235471Y-73928571D01*
X52235471Y-73928571D02*
X52306900Y-73999999D01*
X52306900Y-73999999D02*
X52378328Y-74142856D01*
X52378328Y-74142856D02*
X52378328Y-74357142D01*
X52306900Y-73285713D02*
X52378328Y-73142856D01*
X52378328Y-73142856D02*
X52378328Y-72857142D01*
X52378328Y-72857142D02*
X52306900Y-72714285D01*
X52306900Y-72714285D02*
X52164042Y-72642856D01*
X52164042Y-72642856D02*
X52092614Y-72642856D01*
X52092614Y-72642856D02*
X51949757Y-72714285D01*
X51949757Y-72714285D02*
X51878328Y-72857142D01*
X51878328Y-72857142D02*
X51878328Y-73071428D01*
X51878328Y-73071428D02*
X51806900Y-73214285D01*
X51806900Y-73214285D02*
X51664042Y-73285713D01*
X51664042Y-73285713D02*
X51592614Y-73285713D01*
X51592614Y-73285713D02*
X51449757Y-73214285D01*
X51449757Y-73214285D02*
X51378328Y-73071428D01*
X51378328Y-73071428D02*
X51378328Y-72857142D01*
X51378328Y-72857142D02*
X51449757Y-72714285D01*
X51378328Y-72214284D02*
X51378328Y-71642856D01*
X50878328Y-71999999D02*
X52164042Y-71999999D01*
X52164042Y-71999999D02*
X52306900Y-71928570D01*
X52306900Y-71928570D02*
X52378328Y-71785713D01*
X52378328Y-71785713D02*
X52378328Y-71642856D01*
X52378328Y-70499999D02*
X51592614Y-70499999D01*
X51592614Y-70499999D02*
X51449757Y-70571427D01*
X51449757Y-70571427D02*
X51378328Y-70714284D01*
X51378328Y-70714284D02*
X51378328Y-70999999D01*
X51378328Y-70999999D02*
X51449757Y-71142856D01*
X52306900Y-70499999D02*
X52378328Y-70642856D01*
X52378328Y-70642856D02*
X52378328Y-70999999D01*
X52378328Y-70999999D02*
X52306900Y-71142856D01*
X52306900Y-71142856D02*
X52164042Y-71214284D01*
X52164042Y-71214284D02*
X52021185Y-71214284D01*
X52021185Y-71214284D02*
X51878328Y-71142856D01*
X51878328Y-71142856D02*
X51806900Y-70999999D01*
X51806900Y-70999999D02*
X51806900Y-70642856D01*
X51806900Y-70642856D02*
X51735471Y-70499999D01*
X51378328Y-69999998D02*
X51378328Y-69428570D01*
X50878328Y-69785713D02*
X52164042Y-69785713D01*
X52164042Y-69785713D02*
X52306900Y-69714284D01*
X52306900Y-69714284D02*
X52378328Y-69571427D01*
X52378328Y-69571427D02*
X52378328Y-69428570D01*
D12*
X96433333Y-103759580D02*
X96385714Y-103807200D01*
X96385714Y-103807200D02*
X96242857Y-103854819D01*
X96242857Y-103854819D02*
X96147619Y-103854819D01*
X96147619Y-103854819D02*
X96004762Y-103807200D01*
X96004762Y-103807200D02*
X95909524Y-103711961D01*
X95909524Y-103711961D02*
X95861905Y-103616723D01*
X95861905Y-103616723D02*
X95814286Y-103426247D01*
X95814286Y-103426247D02*
X95814286Y-103283390D01*
X95814286Y-103283390D02*
X95861905Y-103092914D01*
X95861905Y-103092914D02*
X95909524Y-102997676D01*
X95909524Y-102997676D02*
X96004762Y-102902438D01*
X96004762Y-102902438D02*
X96147619Y-102854819D01*
X96147619Y-102854819D02*
X96242857Y-102854819D01*
X96242857Y-102854819D02*
X96385714Y-102902438D01*
X96385714Y-102902438D02*
X96433333Y-102950057D01*
X97004762Y-103283390D02*
X96909524Y-103235771D01*
X96909524Y-103235771D02*
X96861905Y-103188152D01*
X96861905Y-103188152D02*
X96814286Y-103092914D01*
X96814286Y-103092914D02*
X96814286Y-103045295D01*
X96814286Y-103045295D02*
X96861905Y-102950057D01*
X96861905Y-102950057D02*
X96909524Y-102902438D01*
X96909524Y-102902438D02*
X97004762Y-102854819D01*
X97004762Y-102854819D02*
X97195238Y-102854819D01*
X97195238Y-102854819D02*
X97290476Y-102902438D01*
X97290476Y-102902438D02*
X97338095Y-102950057D01*
X97338095Y-102950057D02*
X97385714Y-103045295D01*
X97385714Y-103045295D02*
X97385714Y-103092914D01*
X97385714Y-103092914D02*
X97338095Y-103188152D01*
X97338095Y-103188152D02*
X97290476Y-103235771D01*
X97290476Y-103235771D02*
X97195238Y-103283390D01*
X97195238Y-103283390D02*
X97004762Y-103283390D01*
X97004762Y-103283390D02*
X96909524Y-103331009D01*
X96909524Y-103331009D02*
X96861905Y-103378628D01*
X96861905Y-103378628D02*
X96814286Y-103473866D01*
X96814286Y-103473866D02*
X96814286Y-103664342D01*
X96814286Y-103664342D02*
X96861905Y-103759580D01*
X96861905Y-103759580D02*
X96909524Y-103807200D01*
X96909524Y-103807200D02*
X97004762Y-103854819D01*
X97004762Y-103854819D02*
X97195238Y-103854819D01*
X97195238Y-103854819D02*
X97290476Y-103807200D01*
X97290476Y-103807200D02*
X97338095Y-103759580D01*
X97338095Y-103759580D02*
X97385714Y-103664342D01*
X97385714Y-103664342D02*
X97385714Y-103473866D01*
X97385714Y-103473866D02*
X97338095Y-103378628D01*
X97338095Y-103378628D02*
X97290476Y-103331009D01*
X97290476Y-103331009D02*
X97195238Y-103283390D01*
X105933333Y-103859580D02*
X105885714Y-103907200D01*
X105885714Y-103907200D02*
X105742857Y-103954819D01*
X105742857Y-103954819D02*
X105647619Y-103954819D01*
X105647619Y-103954819D02*
X105504762Y-103907200D01*
X105504762Y-103907200D02*
X105409524Y-103811961D01*
X105409524Y-103811961D02*
X105361905Y-103716723D01*
X105361905Y-103716723D02*
X105314286Y-103526247D01*
X105314286Y-103526247D02*
X105314286Y-103383390D01*
X105314286Y-103383390D02*
X105361905Y-103192914D01*
X105361905Y-103192914D02*
X105409524Y-103097676D01*
X105409524Y-103097676D02*
X105504762Y-103002438D01*
X105504762Y-103002438D02*
X105647619Y-102954819D01*
X105647619Y-102954819D02*
X105742857Y-102954819D01*
X105742857Y-102954819D02*
X105885714Y-103002438D01*
X105885714Y-103002438D02*
X105933333Y-103050057D01*
X106409524Y-103954819D02*
X106600000Y-103954819D01*
X106600000Y-103954819D02*
X106695238Y-103907200D01*
X106695238Y-103907200D02*
X106742857Y-103859580D01*
X106742857Y-103859580D02*
X106838095Y-103716723D01*
X106838095Y-103716723D02*
X106885714Y-103526247D01*
X106885714Y-103526247D02*
X106885714Y-103145295D01*
X106885714Y-103145295D02*
X106838095Y-103050057D01*
X106838095Y-103050057D02*
X106790476Y-103002438D01*
X106790476Y-103002438D02*
X106695238Y-102954819D01*
X106695238Y-102954819D02*
X106504762Y-102954819D01*
X106504762Y-102954819D02*
X106409524Y-103002438D01*
X106409524Y-103002438D02*
X106361905Y-103050057D01*
X106361905Y-103050057D02*
X106314286Y-103145295D01*
X106314286Y-103145295D02*
X106314286Y-103383390D01*
X106314286Y-103383390D02*
X106361905Y-103478628D01*
X106361905Y-103478628D02*
X106409524Y-103526247D01*
X106409524Y-103526247D02*
X106504762Y-103573866D01*
X106504762Y-103573866D02*
X106695238Y-103573866D01*
X106695238Y-103573866D02*
X106790476Y-103526247D01*
X106790476Y-103526247D02*
X106838095Y-103478628D01*
X106838095Y-103478628D02*
X106885714Y-103383390D01*
X54017942Y-92955580D02*
X53970323Y-93003200D01*
X53970323Y-93003200D02*
X53827466Y-93050819D01*
X53827466Y-93050819D02*
X53732228Y-93050819D01*
X53732228Y-93050819D02*
X53589371Y-93003200D01*
X53589371Y-93003200D02*
X53494133Y-92907961D01*
X53494133Y-92907961D02*
X53446514Y-92812723D01*
X53446514Y-92812723D02*
X53398895Y-92622247D01*
X53398895Y-92622247D02*
X53398895Y-92479390D01*
X53398895Y-92479390D02*
X53446514Y-92288914D01*
X53446514Y-92288914D02*
X53494133Y-92193676D01*
X53494133Y-92193676D02*
X53589371Y-92098438D01*
X53589371Y-92098438D02*
X53732228Y-92050819D01*
X53732228Y-92050819D02*
X53827466Y-92050819D01*
X53827466Y-92050819D02*
X53970323Y-92098438D01*
X53970323Y-92098438D02*
X54017942Y-92146057D01*
X54970323Y-93050819D02*
X54398895Y-93050819D01*
X54684609Y-93050819D02*
X54684609Y-92050819D01*
X54684609Y-92050819D02*
X54589371Y-92193676D01*
X54589371Y-92193676D02*
X54494133Y-92288914D01*
X54494133Y-92288914D02*
X54398895Y-92336533D01*
X55922704Y-93050819D02*
X55351276Y-93050819D01*
X55636990Y-93050819D02*
X55636990Y-92050819D01*
X55636990Y-92050819D02*
X55541752Y-92193676D01*
X55541752Y-92193676D02*
X55446514Y-92288914D01*
X55446514Y-92288914D02*
X55351276Y-92336533D01*
X54557142Y-66559580D02*
X54509523Y-66607200D01*
X54509523Y-66607200D02*
X54366666Y-66654819D01*
X54366666Y-66654819D02*
X54271428Y-66654819D01*
X54271428Y-66654819D02*
X54128571Y-66607200D01*
X54128571Y-66607200D02*
X54033333Y-66511961D01*
X54033333Y-66511961D02*
X53985714Y-66416723D01*
X53985714Y-66416723D02*
X53938095Y-66226247D01*
X53938095Y-66226247D02*
X53938095Y-66083390D01*
X53938095Y-66083390D02*
X53985714Y-65892914D01*
X53985714Y-65892914D02*
X54033333Y-65797676D01*
X54033333Y-65797676D02*
X54128571Y-65702438D01*
X54128571Y-65702438D02*
X54271428Y-65654819D01*
X54271428Y-65654819D02*
X54366666Y-65654819D01*
X54366666Y-65654819D02*
X54509523Y-65702438D01*
X54509523Y-65702438D02*
X54557142Y-65750057D01*
X55509523Y-66654819D02*
X54938095Y-66654819D01*
X55223809Y-66654819D02*
X55223809Y-65654819D01*
X55223809Y-65654819D02*
X55128571Y-65797676D01*
X55128571Y-65797676D02*
X55033333Y-65892914D01*
X55033333Y-65892914D02*
X54938095Y-65940533D01*
X55890476Y-65750057D02*
X55938095Y-65702438D01*
X55938095Y-65702438D02*
X56033333Y-65654819D01*
X56033333Y-65654819D02*
X56271428Y-65654819D01*
X56271428Y-65654819D02*
X56366666Y-65702438D01*
X56366666Y-65702438D02*
X56414285Y-65750057D01*
X56414285Y-65750057D02*
X56461904Y-65845295D01*
X56461904Y-65845295D02*
X56461904Y-65940533D01*
X56461904Y-65940533D02*
X56414285Y-66083390D01*
X56414285Y-66083390D02*
X55842857Y-66654819D01*
X55842857Y-66654819D02*
X56461904Y-66654819D01*
X59157142Y-80859580D02*
X59109523Y-80907200D01*
X59109523Y-80907200D02*
X58966666Y-80954819D01*
X58966666Y-80954819D02*
X58871428Y-80954819D01*
X58871428Y-80954819D02*
X58728571Y-80907200D01*
X58728571Y-80907200D02*
X58633333Y-80811961D01*
X58633333Y-80811961D02*
X58585714Y-80716723D01*
X58585714Y-80716723D02*
X58538095Y-80526247D01*
X58538095Y-80526247D02*
X58538095Y-80383390D01*
X58538095Y-80383390D02*
X58585714Y-80192914D01*
X58585714Y-80192914D02*
X58633333Y-80097676D01*
X58633333Y-80097676D02*
X58728571Y-80002438D01*
X58728571Y-80002438D02*
X58871428Y-79954819D01*
X58871428Y-79954819D02*
X58966666Y-79954819D01*
X58966666Y-79954819D02*
X59109523Y-80002438D01*
X59109523Y-80002438D02*
X59157142Y-80050057D01*
X60109523Y-80954819D02*
X59538095Y-80954819D01*
X59823809Y-80954819D02*
X59823809Y-79954819D01*
X59823809Y-79954819D02*
X59728571Y-80097676D01*
X59728571Y-80097676D02*
X59633333Y-80192914D01*
X59633333Y-80192914D02*
X59538095Y-80240533D01*
X60442857Y-79954819D02*
X61061904Y-79954819D01*
X61061904Y-79954819D02*
X60728571Y-80335771D01*
X60728571Y-80335771D02*
X60871428Y-80335771D01*
X60871428Y-80335771D02*
X60966666Y-80383390D01*
X60966666Y-80383390D02*
X61014285Y-80431009D01*
X61014285Y-80431009D02*
X61061904Y-80526247D01*
X61061904Y-80526247D02*
X61061904Y-80764342D01*
X61061904Y-80764342D02*
X61014285Y-80859580D01*
X61014285Y-80859580D02*
X60966666Y-80907200D01*
X60966666Y-80907200D02*
X60871428Y-80954819D01*
X60871428Y-80954819D02*
X60585714Y-80954819D01*
X60585714Y-80954819D02*
X60490476Y-80907200D01*
X60490476Y-80907200D02*
X60442857Y-80859580D01*
X89079170Y-101148389D02*
X89031551Y-101196009D01*
X89031551Y-101196009D02*
X88888694Y-101243628D01*
X88888694Y-101243628D02*
X88793456Y-101243628D01*
X88793456Y-101243628D02*
X88650599Y-101196009D01*
X88650599Y-101196009D02*
X88555361Y-101100770D01*
X88555361Y-101100770D02*
X88507742Y-101005532D01*
X88507742Y-101005532D02*
X88460123Y-100815056D01*
X88460123Y-100815056D02*
X88460123Y-100672199D01*
X88460123Y-100672199D02*
X88507742Y-100481723D01*
X88507742Y-100481723D02*
X88555361Y-100386485D01*
X88555361Y-100386485D02*
X88650599Y-100291247D01*
X88650599Y-100291247D02*
X88793456Y-100243628D01*
X88793456Y-100243628D02*
X88888694Y-100243628D01*
X88888694Y-100243628D02*
X89031551Y-100291247D01*
X89031551Y-100291247D02*
X89079170Y-100338866D01*
X90031551Y-101243628D02*
X89460123Y-101243628D01*
X89745837Y-101243628D02*
X89745837Y-100243628D01*
X89745837Y-100243628D02*
X89650599Y-100386485D01*
X89650599Y-100386485D02*
X89555361Y-100481723D01*
X89555361Y-100481723D02*
X89460123Y-100529342D01*
X90888694Y-100576961D02*
X90888694Y-101243628D01*
X90650599Y-100196009D02*
X90412504Y-100910294D01*
X90412504Y-100910294D02*
X91031551Y-100910294D01*
X76243086Y-101978389D02*
X76195467Y-102026009D01*
X76195467Y-102026009D02*
X76052610Y-102073628D01*
X76052610Y-102073628D02*
X75957372Y-102073628D01*
X75957372Y-102073628D02*
X75814515Y-102026009D01*
X75814515Y-102026009D02*
X75719277Y-101930770D01*
X75719277Y-101930770D02*
X75671658Y-101835532D01*
X75671658Y-101835532D02*
X75624039Y-101645056D01*
X75624039Y-101645056D02*
X75624039Y-101502199D01*
X75624039Y-101502199D02*
X75671658Y-101311723D01*
X75671658Y-101311723D02*
X75719277Y-101216485D01*
X75719277Y-101216485D02*
X75814515Y-101121247D01*
X75814515Y-101121247D02*
X75957372Y-101073628D01*
X75957372Y-101073628D02*
X76052610Y-101073628D01*
X76052610Y-101073628D02*
X76195467Y-101121247D01*
X76195467Y-101121247D02*
X76243086Y-101168866D01*
X77195467Y-102073628D02*
X76624039Y-102073628D01*
X76909753Y-102073628D02*
X76909753Y-101073628D01*
X76909753Y-101073628D02*
X76814515Y-101216485D01*
X76814515Y-101216485D02*
X76719277Y-101311723D01*
X76719277Y-101311723D02*
X76624039Y-101359342D01*
X78100229Y-101073628D02*
X77624039Y-101073628D01*
X77624039Y-101073628D02*
X77576420Y-101549818D01*
X77576420Y-101549818D02*
X77624039Y-101502199D01*
X77624039Y-101502199D02*
X77719277Y-101454580D01*
X77719277Y-101454580D02*
X77957372Y-101454580D01*
X77957372Y-101454580D02*
X78052610Y-101502199D01*
X78052610Y-101502199D02*
X78100229Y-101549818D01*
X78100229Y-101549818D02*
X78147848Y-101645056D01*
X78147848Y-101645056D02*
X78147848Y-101883151D01*
X78147848Y-101883151D02*
X78100229Y-101978389D01*
X78100229Y-101978389D02*
X78052610Y-102026009D01*
X78052610Y-102026009D02*
X77957372Y-102073628D01*
X77957372Y-102073628D02*
X77719277Y-102073628D01*
X77719277Y-102073628D02*
X77624039Y-102026009D01*
X77624039Y-102026009D02*
X77576420Y-101978389D01*
X54557142Y-109059580D02*
X54509523Y-109107200D01*
X54509523Y-109107200D02*
X54366666Y-109154819D01*
X54366666Y-109154819D02*
X54271428Y-109154819D01*
X54271428Y-109154819D02*
X54128571Y-109107200D01*
X54128571Y-109107200D02*
X54033333Y-109011961D01*
X54033333Y-109011961D02*
X53985714Y-108916723D01*
X53985714Y-108916723D02*
X53938095Y-108726247D01*
X53938095Y-108726247D02*
X53938095Y-108583390D01*
X53938095Y-108583390D02*
X53985714Y-108392914D01*
X53985714Y-108392914D02*
X54033333Y-108297676D01*
X54033333Y-108297676D02*
X54128571Y-108202438D01*
X54128571Y-108202438D02*
X54271428Y-108154819D01*
X54271428Y-108154819D02*
X54366666Y-108154819D01*
X54366666Y-108154819D02*
X54509523Y-108202438D01*
X54509523Y-108202438D02*
X54557142Y-108250057D01*
X55509523Y-109154819D02*
X54938095Y-109154819D01*
X55223809Y-109154819D02*
X55223809Y-108154819D01*
X55223809Y-108154819D02*
X55128571Y-108297676D01*
X55128571Y-108297676D02*
X55033333Y-108392914D01*
X55033333Y-108392914D02*
X54938095Y-108440533D01*
X56366666Y-108154819D02*
X56176190Y-108154819D01*
X56176190Y-108154819D02*
X56080952Y-108202438D01*
X56080952Y-108202438D02*
X56033333Y-108250057D01*
X56033333Y-108250057D02*
X55938095Y-108392914D01*
X55938095Y-108392914D02*
X55890476Y-108583390D01*
X55890476Y-108583390D02*
X55890476Y-108964342D01*
X55890476Y-108964342D02*
X55938095Y-109059580D01*
X55938095Y-109059580D02*
X55985714Y-109107200D01*
X55985714Y-109107200D02*
X56080952Y-109154819D01*
X56080952Y-109154819D02*
X56271428Y-109154819D01*
X56271428Y-109154819D02*
X56366666Y-109107200D01*
X56366666Y-109107200D02*
X56414285Y-109059580D01*
X56414285Y-109059580D02*
X56461904Y-108964342D01*
X56461904Y-108964342D02*
X56461904Y-108726247D01*
X56461904Y-108726247D02*
X56414285Y-108631009D01*
X56414285Y-108631009D02*
X56366666Y-108583390D01*
X56366666Y-108583390D02*
X56271428Y-108535771D01*
X56271428Y-108535771D02*
X56080952Y-108535771D01*
X56080952Y-108535771D02*
X55985714Y-108583390D01*
X55985714Y-108583390D02*
X55938095Y-108631009D01*
X55938095Y-108631009D02*
X55890476Y-108726247D01*
X65407142Y-80859580D02*
X65359523Y-80907200D01*
X65359523Y-80907200D02*
X65216666Y-80954819D01*
X65216666Y-80954819D02*
X65121428Y-80954819D01*
X65121428Y-80954819D02*
X64978571Y-80907200D01*
X64978571Y-80907200D02*
X64883333Y-80811961D01*
X64883333Y-80811961D02*
X64835714Y-80716723D01*
X64835714Y-80716723D02*
X64788095Y-80526247D01*
X64788095Y-80526247D02*
X64788095Y-80383390D01*
X64788095Y-80383390D02*
X64835714Y-80192914D01*
X64835714Y-80192914D02*
X64883333Y-80097676D01*
X64883333Y-80097676D02*
X64978571Y-80002438D01*
X64978571Y-80002438D02*
X65121428Y-79954819D01*
X65121428Y-79954819D02*
X65216666Y-79954819D01*
X65216666Y-79954819D02*
X65359523Y-80002438D01*
X65359523Y-80002438D02*
X65407142Y-80050057D01*
X66359523Y-80954819D02*
X65788095Y-80954819D01*
X66073809Y-80954819D02*
X66073809Y-79954819D01*
X66073809Y-79954819D02*
X65978571Y-80097676D01*
X65978571Y-80097676D02*
X65883333Y-80192914D01*
X65883333Y-80192914D02*
X65788095Y-80240533D01*
X66692857Y-79954819D02*
X67359523Y-79954819D01*
X67359523Y-79954819D02*
X66930952Y-80954819D01*
X62357142Y-66659580D02*
X62309523Y-66707200D01*
X62309523Y-66707200D02*
X62166666Y-66754819D01*
X62166666Y-66754819D02*
X62071428Y-66754819D01*
X62071428Y-66754819D02*
X61928571Y-66707200D01*
X61928571Y-66707200D02*
X61833333Y-66611961D01*
X61833333Y-66611961D02*
X61785714Y-66516723D01*
X61785714Y-66516723D02*
X61738095Y-66326247D01*
X61738095Y-66326247D02*
X61738095Y-66183390D01*
X61738095Y-66183390D02*
X61785714Y-65992914D01*
X61785714Y-65992914D02*
X61833333Y-65897676D01*
X61833333Y-65897676D02*
X61928571Y-65802438D01*
X61928571Y-65802438D02*
X62071428Y-65754819D01*
X62071428Y-65754819D02*
X62166666Y-65754819D01*
X62166666Y-65754819D02*
X62309523Y-65802438D01*
X62309523Y-65802438D02*
X62357142Y-65850057D01*
X63309523Y-66754819D02*
X62738095Y-66754819D01*
X63023809Y-66754819D02*
X63023809Y-65754819D01*
X63023809Y-65754819D02*
X62928571Y-65897676D01*
X62928571Y-65897676D02*
X62833333Y-65992914D01*
X62833333Y-65992914D02*
X62738095Y-66040533D01*
X63880952Y-66183390D02*
X63785714Y-66135771D01*
X63785714Y-66135771D02*
X63738095Y-66088152D01*
X63738095Y-66088152D02*
X63690476Y-65992914D01*
X63690476Y-65992914D02*
X63690476Y-65945295D01*
X63690476Y-65945295D02*
X63738095Y-65850057D01*
X63738095Y-65850057D02*
X63785714Y-65802438D01*
X63785714Y-65802438D02*
X63880952Y-65754819D01*
X63880952Y-65754819D02*
X64071428Y-65754819D01*
X64071428Y-65754819D02*
X64166666Y-65802438D01*
X64166666Y-65802438D02*
X64214285Y-65850057D01*
X64214285Y-65850057D02*
X64261904Y-65945295D01*
X64261904Y-65945295D02*
X64261904Y-65992914D01*
X64261904Y-65992914D02*
X64214285Y-66088152D01*
X64214285Y-66088152D02*
X64166666Y-66135771D01*
X64166666Y-66135771D02*
X64071428Y-66183390D01*
X64071428Y-66183390D02*
X63880952Y-66183390D01*
X63880952Y-66183390D02*
X63785714Y-66231009D01*
X63785714Y-66231009D02*
X63738095Y-66278628D01*
X63738095Y-66278628D02*
X63690476Y-66373866D01*
X63690476Y-66373866D02*
X63690476Y-66564342D01*
X63690476Y-66564342D02*
X63738095Y-66659580D01*
X63738095Y-66659580D02*
X63785714Y-66707200D01*
X63785714Y-66707200D02*
X63880952Y-66754819D01*
X63880952Y-66754819D02*
X64071428Y-66754819D01*
X64071428Y-66754819D02*
X64166666Y-66707200D01*
X64166666Y-66707200D02*
X64214285Y-66659580D01*
X64214285Y-66659580D02*
X64261904Y-66564342D01*
X64261904Y-66564342D02*
X64261904Y-66373866D01*
X64261904Y-66373866D02*
X64214285Y-66278628D01*
X64214285Y-66278628D02*
X64166666Y-66231009D01*
X64166666Y-66231009D02*
X64071428Y-66183390D01*
X63557142Y-103559580D02*
X63509523Y-103607200D01*
X63509523Y-103607200D02*
X63366666Y-103654819D01*
X63366666Y-103654819D02*
X63271428Y-103654819D01*
X63271428Y-103654819D02*
X63128571Y-103607200D01*
X63128571Y-103607200D02*
X63033333Y-103511961D01*
X63033333Y-103511961D02*
X62985714Y-103416723D01*
X62985714Y-103416723D02*
X62938095Y-103226247D01*
X62938095Y-103226247D02*
X62938095Y-103083390D01*
X62938095Y-103083390D02*
X62985714Y-102892914D01*
X62985714Y-102892914D02*
X63033333Y-102797676D01*
X63033333Y-102797676D02*
X63128571Y-102702438D01*
X63128571Y-102702438D02*
X63271428Y-102654819D01*
X63271428Y-102654819D02*
X63366666Y-102654819D01*
X63366666Y-102654819D02*
X63509523Y-102702438D01*
X63509523Y-102702438D02*
X63557142Y-102750057D01*
X63938095Y-102750057D02*
X63985714Y-102702438D01*
X63985714Y-102702438D02*
X64080952Y-102654819D01*
X64080952Y-102654819D02*
X64319047Y-102654819D01*
X64319047Y-102654819D02*
X64414285Y-102702438D01*
X64414285Y-102702438D02*
X64461904Y-102750057D01*
X64461904Y-102750057D02*
X64509523Y-102845295D01*
X64509523Y-102845295D02*
X64509523Y-102940533D01*
X64509523Y-102940533D02*
X64461904Y-103083390D01*
X64461904Y-103083390D02*
X63890476Y-103654819D01*
X63890476Y-103654819D02*
X64509523Y-103654819D01*
X65461904Y-103654819D02*
X64890476Y-103654819D01*
X65176190Y-103654819D02*
X65176190Y-102654819D01*
X65176190Y-102654819D02*
X65080952Y-102797676D01*
X65080952Y-102797676D02*
X64985714Y-102892914D01*
X64985714Y-102892914D02*
X64890476Y-102940533D01*
X66157142Y-106959580D02*
X66109523Y-107007200D01*
X66109523Y-107007200D02*
X65966666Y-107054819D01*
X65966666Y-107054819D02*
X65871428Y-107054819D01*
X65871428Y-107054819D02*
X65728571Y-107007200D01*
X65728571Y-107007200D02*
X65633333Y-106911961D01*
X65633333Y-106911961D02*
X65585714Y-106816723D01*
X65585714Y-106816723D02*
X65538095Y-106626247D01*
X65538095Y-106626247D02*
X65538095Y-106483390D01*
X65538095Y-106483390D02*
X65585714Y-106292914D01*
X65585714Y-106292914D02*
X65633333Y-106197676D01*
X65633333Y-106197676D02*
X65728571Y-106102438D01*
X65728571Y-106102438D02*
X65871428Y-106054819D01*
X65871428Y-106054819D02*
X65966666Y-106054819D01*
X65966666Y-106054819D02*
X66109523Y-106102438D01*
X66109523Y-106102438D02*
X66157142Y-106150057D01*
X66538095Y-106150057D02*
X66585714Y-106102438D01*
X66585714Y-106102438D02*
X66680952Y-106054819D01*
X66680952Y-106054819D02*
X66919047Y-106054819D01*
X66919047Y-106054819D02*
X67014285Y-106102438D01*
X67014285Y-106102438D02*
X67061904Y-106150057D01*
X67061904Y-106150057D02*
X67109523Y-106245295D01*
X67109523Y-106245295D02*
X67109523Y-106340533D01*
X67109523Y-106340533D02*
X67061904Y-106483390D01*
X67061904Y-106483390D02*
X66490476Y-107054819D01*
X66490476Y-107054819D02*
X67109523Y-107054819D01*
X67490476Y-106150057D02*
X67538095Y-106102438D01*
X67538095Y-106102438D02*
X67633333Y-106054819D01*
X67633333Y-106054819D02*
X67871428Y-106054819D01*
X67871428Y-106054819D02*
X67966666Y-106102438D01*
X67966666Y-106102438D02*
X68014285Y-106150057D01*
X68014285Y-106150057D02*
X68061904Y-106245295D01*
X68061904Y-106245295D02*
X68061904Y-106340533D01*
X68061904Y-106340533D02*
X68014285Y-106483390D01*
X68014285Y-106483390D02*
X67442857Y-107054819D01*
X67442857Y-107054819D02*
X68061904Y-107054819D01*
X92457142Y-88459580D02*
X92409523Y-88507200D01*
X92409523Y-88507200D02*
X92266666Y-88554819D01*
X92266666Y-88554819D02*
X92171428Y-88554819D01*
X92171428Y-88554819D02*
X92028571Y-88507200D01*
X92028571Y-88507200D02*
X91933333Y-88411961D01*
X91933333Y-88411961D02*
X91885714Y-88316723D01*
X91885714Y-88316723D02*
X91838095Y-88126247D01*
X91838095Y-88126247D02*
X91838095Y-87983390D01*
X91838095Y-87983390D02*
X91885714Y-87792914D01*
X91885714Y-87792914D02*
X91933333Y-87697676D01*
X91933333Y-87697676D02*
X92028571Y-87602438D01*
X92028571Y-87602438D02*
X92171428Y-87554819D01*
X92171428Y-87554819D02*
X92266666Y-87554819D01*
X92266666Y-87554819D02*
X92409523Y-87602438D01*
X92409523Y-87602438D02*
X92457142Y-87650057D01*
X92838095Y-87650057D02*
X92885714Y-87602438D01*
X92885714Y-87602438D02*
X92980952Y-87554819D01*
X92980952Y-87554819D02*
X93219047Y-87554819D01*
X93219047Y-87554819D02*
X93314285Y-87602438D01*
X93314285Y-87602438D02*
X93361904Y-87650057D01*
X93361904Y-87650057D02*
X93409523Y-87745295D01*
X93409523Y-87745295D02*
X93409523Y-87840533D01*
X93409523Y-87840533D02*
X93361904Y-87983390D01*
X93361904Y-87983390D02*
X92790476Y-88554819D01*
X92790476Y-88554819D02*
X93409523Y-88554819D01*
X94266666Y-87888152D02*
X94266666Y-88554819D01*
X94028571Y-87507200D02*
X93790476Y-88221485D01*
X93790476Y-88221485D02*
X94409523Y-88221485D01*
X98257142Y-82659580D02*
X98209523Y-82707200D01*
X98209523Y-82707200D02*
X98066666Y-82754819D01*
X98066666Y-82754819D02*
X97971428Y-82754819D01*
X97971428Y-82754819D02*
X97828571Y-82707200D01*
X97828571Y-82707200D02*
X97733333Y-82611961D01*
X97733333Y-82611961D02*
X97685714Y-82516723D01*
X97685714Y-82516723D02*
X97638095Y-82326247D01*
X97638095Y-82326247D02*
X97638095Y-82183390D01*
X97638095Y-82183390D02*
X97685714Y-81992914D01*
X97685714Y-81992914D02*
X97733333Y-81897676D01*
X97733333Y-81897676D02*
X97828571Y-81802438D01*
X97828571Y-81802438D02*
X97971428Y-81754819D01*
X97971428Y-81754819D02*
X98066666Y-81754819D01*
X98066666Y-81754819D02*
X98209523Y-81802438D01*
X98209523Y-81802438D02*
X98257142Y-81850057D01*
X98638095Y-81850057D02*
X98685714Y-81802438D01*
X98685714Y-81802438D02*
X98780952Y-81754819D01*
X98780952Y-81754819D02*
X99019047Y-81754819D01*
X99019047Y-81754819D02*
X99114285Y-81802438D01*
X99114285Y-81802438D02*
X99161904Y-81850057D01*
X99161904Y-81850057D02*
X99209523Y-81945295D01*
X99209523Y-81945295D02*
X99209523Y-82040533D01*
X99209523Y-82040533D02*
X99161904Y-82183390D01*
X99161904Y-82183390D02*
X98590476Y-82754819D01*
X98590476Y-82754819D02*
X99209523Y-82754819D01*
X100066666Y-81754819D02*
X99876190Y-81754819D01*
X99876190Y-81754819D02*
X99780952Y-81802438D01*
X99780952Y-81802438D02*
X99733333Y-81850057D01*
X99733333Y-81850057D02*
X99638095Y-81992914D01*
X99638095Y-81992914D02*
X99590476Y-82183390D01*
X99590476Y-82183390D02*
X99590476Y-82564342D01*
X99590476Y-82564342D02*
X99638095Y-82659580D01*
X99638095Y-82659580D02*
X99685714Y-82707200D01*
X99685714Y-82707200D02*
X99780952Y-82754819D01*
X99780952Y-82754819D02*
X99971428Y-82754819D01*
X99971428Y-82754819D02*
X100066666Y-82707200D01*
X100066666Y-82707200D02*
X100114285Y-82659580D01*
X100114285Y-82659580D02*
X100161904Y-82564342D01*
X100161904Y-82564342D02*
X100161904Y-82326247D01*
X100161904Y-82326247D02*
X100114285Y-82231009D01*
X100114285Y-82231009D02*
X100066666Y-82183390D01*
X100066666Y-82183390D02*
X99971428Y-82135771D01*
X99971428Y-82135771D02*
X99780952Y-82135771D01*
X99780952Y-82135771D02*
X99685714Y-82183390D01*
X99685714Y-82183390D02*
X99638095Y-82231009D01*
X99638095Y-82231009D02*
X99590476Y-82326247D01*
X87857142Y-66959580D02*
X87809523Y-67007200D01*
X87809523Y-67007200D02*
X87666666Y-67054819D01*
X87666666Y-67054819D02*
X87571428Y-67054819D01*
X87571428Y-67054819D02*
X87428571Y-67007200D01*
X87428571Y-67007200D02*
X87333333Y-66911961D01*
X87333333Y-66911961D02*
X87285714Y-66816723D01*
X87285714Y-66816723D02*
X87238095Y-66626247D01*
X87238095Y-66626247D02*
X87238095Y-66483390D01*
X87238095Y-66483390D02*
X87285714Y-66292914D01*
X87285714Y-66292914D02*
X87333333Y-66197676D01*
X87333333Y-66197676D02*
X87428571Y-66102438D01*
X87428571Y-66102438D02*
X87571428Y-66054819D01*
X87571428Y-66054819D02*
X87666666Y-66054819D01*
X87666666Y-66054819D02*
X87809523Y-66102438D01*
X87809523Y-66102438D02*
X87857142Y-66150057D01*
X88238095Y-66150057D02*
X88285714Y-66102438D01*
X88285714Y-66102438D02*
X88380952Y-66054819D01*
X88380952Y-66054819D02*
X88619047Y-66054819D01*
X88619047Y-66054819D02*
X88714285Y-66102438D01*
X88714285Y-66102438D02*
X88761904Y-66150057D01*
X88761904Y-66150057D02*
X88809523Y-66245295D01*
X88809523Y-66245295D02*
X88809523Y-66340533D01*
X88809523Y-66340533D02*
X88761904Y-66483390D01*
X88761904Y-66483390D02*
X88190476Y-67054819D01*
X88190476Y-67054819D02*
X88809523Y-67054819D01*
X89142857Y-66054819D02*
X89809523Y-66054819D01*
X89809523Y-66054819D02*
X89380952Y-67054819D01*
X87757142Y-72059580D02*
X87709523Y-72107200D01*
X87709523Y-72107200D02*
X87566666Y-72154819D01*
X87566666Y-72154819D02*
X87471428Y-72154819D01*
X87471428Y-72154819D02*
X87328571Y-72107200D01*
X87328571Y-72107200D02*
X87233333Y-72011961D01*
X87233333Y-72011961D02*
X87185714Y-71916723D01*
X87185714Y-71916723D02*
X87138095Y-71726247D01*
X87138095Y-71726247D02*
X87138095Y-71583390D01*
X87138095Y-71583390D02*
X87185714Y-71392914D01*
X87185714Y-71392914D02*
X87233333Y-71297676D01*
X87233333Y-71297676D02*
X87328571Y-71202438D01*
X87328571Y-71202438D02*
X87471428Y-71154819D01*
X87471428Y-71154819D02*
X87566666Y-71154819D01*
X87566666Y-71154819D02*
X87709523Y-71202438D01*
X87709523Y-71202438D02*
X87757142Y-71250057D01*
X88138095Y-71250057D02*
X88185714Y-71202438D01*
X88185714Y-71202438D02*
X88280952Y-71154819D01*
X88280952Y-71154819D02*
X88519047Y-71154819D01*
X88519047Y-71154819D02*
X88614285Y-71202438D01*
X88614285Y-71202438D02*
X88661904Y-71250057D01*
X88661904Y-71250057D02*
X88709523Y-71345295D01*
X88709523Y-71345295D02*
X88709523Y-71440533D01*
X88709523Y-71440533D02*
X88661904Y-71583390D01*
X88661904Y-71583390D02*
X88090476Y-72154819D01*
X88090476Y-72154819D02*
X88709523Y-72154819D01*
X89280952Y-71583390D02*
X89185714Y-71535771D01*
X89185714Y-71535771D02*
X89138095Y-71488152D01*
X89138095Y-71488152D02*
X89090476Y-71392914D01*
X89090476Y-71392914D02*
X89090476Y-71345295D01*
X89090476Y-71345295D02*
X89138095Y-71250057D01*
X89138095Y-71250057D02*
X89185714Y-71202438D01*
X89185714Y-71202438D02*
X89280952Y-71154819D01*
X89280952Y-71154819D02*
X89471428Y-71154819D01*
X89471428Y-71154819D02*
X89566666Y-71202438D01*
X89566666Y-71202438D02*
X89614285Y-71250057D01*
X89614285Y-71250057D02*
X89661904Y-71345295D01*
X89661904Y-71345295D02*
X89661904Y-71392914D01*
X89661904Y-71392914D02*
X89614285Y-71488152D01*
X89614285Y-71488152D02*
X89566666Y-71535771D01*
X89566666Y-71535771D02*
X89471428Y-71583390D01*
X89471428Y-71583390D02*
X89280952Y-71583390D01*
X89280952Y-71583390D02*
X89185714Y-71631009D01*
X89185714Y-71631009D02*
X89138095Y-71678628D01*
X89138095Y-71678628D02*
X89090476Y-71773866D01*
X89090476Y-71773866D02*
X89090476Y-71964342D01*
X89090476Y-71964342D02*
X89138095Y-72059580D01*
X89138095Y-72059580D02*
X89185714Y-72107200D01*
X89185714Y-72107200D02*
X89280952Y-72154819D01*
X89280952Y-72154819D02*
X89471428Y-72154819D01*
X89471428Y-72154819D02*
X89566666Y-72107200D01*
X89566666Y-72107200D02*
X89614285Y-72059580D01*
X89614285Y-72059580D02*
X89661904Y-71964342D01*
X89661904Y-71964342D02*
X89661904Y-71773866D01*
X89661904Y-71773866D02*
X89614285Y-71678628D01*
X89614285Y-71678628D02*
X89566666Y-71631009D01*
X89566666Y-71631009D02*
X89471428Y-71583390D01*
X83657142Y-62659580D02*
X83609523Y-62707200D01*
X83609523Y-62707200D02*
X83466666Y-62754819D01*
X83466666Y-62754819D02*
X83371428Y-62754819D01*
X83371428Y-62754819D02*
X83228571Y-62707200D01*
X83228571Y-62707200D02*
X83133333Y-62611961D01*
X83133333Y-62611961D02*
X83085714Y-62516723D01*
X83085714Y-62516723D02*
X83038095Y-62326247D01*
X83038095Y-62326247D02*
X83038095Y-62183390D01*
X83038095Y-62183390D02*
X83085714Y-61992914D01*
X83085714Y-61992914D02*
X83133333Y-61897676D01*
X83133333Y-61897676D02*
X83228571Y-61802438D01*
X83228571Y-61802438D02*
X83371428Y-61754819D01*
X83371428Y-61754819D02*
X83466666Y-61754819D01*
X83466666Y-61754819D02*
X83609523Y-61802438D01*
X83609523Y-61802438D02*
X83657142Y-61850057D01*
X84038095Y-61850057D02*
X84085714Y-61802438D01*
X84085714Y-61802438D02*
X84180952Y-61754819D01*
X84180952Y-61754819D02*
X84419047Y-61754819D01*
X84419047Y-61754819D02*
X84514285Y-61802438D01*
X84514285Y-61802438D02*
X84561904Y-61850057D01*
X84561904Y-61850057D02*
X84609523Y-61945295D01*
X84609523Y-61945295D02*
X84609523Y-62040533D01*
X84609523Y-62040533D02*
X84561904Y-62183390D01*
X84561904Y-62183390D02*
X83990476Y-62754819D01*
X83990476Y-62754819D02*
X84609523Y-62754819D01*
X85085714Y-62754819D02*
X85276190Y-62754819D01*
X85276190Y-62754819D02*
X85371428Y-62707200D01*
X85371428Y-62707200D02*
X85419047Y-62659580D01*
X85419047Y-62659580D02*
X85514285Y-62516723D01*
X85514285Y-62516723D02*
X85561904Y-62326247D01*
X85561904Y-62326247D02*
X85561904Y-61945295D01*
X85561904Y-61945295D02*
X85514285Y-61850057D01*
X85514285Y-61850057D02*
X85466666Y-61802438D01*
X85466666Y-61802438D02*
X85371428Y-61754819D01*
X85371428Y-61754819D02*
X85180952Y-61754819D01*
X85180952Y-61754819D02*
X85085714Y-61802438D01*
X85085714Y-61802438D02*
X85038095Y-61850057D01*
X85038095Y-61850057D02*
X84990476Y-61945295D01*
X84990476Y-61945295D02*
X84990476Y-62183390D01*
X84990476Y-62183390D02*
X85038095Y-62278628D01*
X85038095Y-62278628D02*
X85085714Y-62326247D01*
X85085714Y-62326247D02*
X85180952Y-62373866D01*
X85180952Y-62373866D02*
X85371428Y-62373866D01*
X85371428Y-62373866D02*
X85466666Y-62326247D01*
X85466666Y-62326247D02*
X85514285Y-62278628D01*
X85514285Y-62278628D02*
X85561904Y-62183390D01*
X96257142Y-66909580D02*
X96209523Y-66957200D01*
X96209523Y-66957200D02*
X96066666Y-67004819D01*
X96066666Y-67004819D02*
X95971428Y-67004819D01*
X95971428Y-67004819D02*
X95828571Y-66957200D01*
X95828571Y-66957200D02*
X95733333Y-66861961D01*
X95733333Y-66861961D02*
X95685714Y-66766723D01*
X95685714Y-66766723D02*
X95638095Y-66576247D01*
X95638095Y-66576247D02*
X95638095Y-66433390D01*
X95638095Y-66433390D02*
X95685714Y-66242914D01*
X95685714Y-66242914D02*
X95733333Y-66147676D01*
X95733333Y-66147676D02*
X95828571Y-66052438D01*
X95828571Y-66052438D02*
X95971428Y-66004819D01*
X95971428Y-66004819D02*
X96066666Y-66004819D01*
X96066666Y-66004819D02*
X96209523Y-66052438D01*
X96209523Y-66052438D02*
X96257142Y-66100057D01*
X96590476Y-66004819D02*
X97209523Y-66004819D01*
X97209523Y-66004819D02*
X96876190Y-66385771D01*
X96876190Y-66385771D02*
X97019047Y-66385771D01*
X97019047Y-66385771D02*
X97114285Y-66433390D01*
X97114285Y-66433390D02*
X97161904Y-66481009D01*
X97161904Y-66481009D02*
X97209523Y-66576247D01*
X97209523Y-66576247D02*
X97209523Y-66814342D01*
X97209523Y-66814342D02*
X97161904Y-66909580D01*
X97161904Y-66909580D02*
X97114285Y-66957200D01*
X97114285Y-66957200D02*
X97019047Y-67004819D01*
X97019047Y-67004819D02*
X96733333Y-67004819D01*
X96733333Y-67004819D02*
X96638095Y-66957200D01*
X96638095Y-66957200D02*
X96590476Y-66909580D01*
X97828571Y-66004819D02*
X97923809Y-66004819D01*
X97923809Y-66004819D02*
X98019047Y-66052438D01*
X98019047Y-66052438D02*
X98066666Y-66100057D01*
X98066666Y-66100057D02*
X98114285Y-66195295D01*
X98114285Y-66195295D02*
X98161904Y-66385771D01*
X98161904Y-66385771D02*
X98161904Y-66623866D01*
X98161904Y-66623866D02*
X98114285Y-66814342D01*
X98114285Y-66814342D02*
X98066666Y-66909580D01*
X98066666Y-66909580D02*
X98019047Y-66957200D01*
X98019047Y-66957200D02*
X97923809Y-67004819D01*
X97923809Y-67004819D02*
X97828571Y-67004819D01*
X97828571Y-67004819D02*
X97733333Y-66957200D01*
X97733333Y-66957200D02*
X97685714Y-66909580D01*
X97685714Y-66909580D02*
X97638095Y-66814342D01*
X97638095Y-66814342D02*
X97590476Y-66623866D01*
X97590476Y-66623866D02*
X97590476Y-66385771D01*
X97590476Y-66385771D02*
X97638095Y-66195295D01*
X97638095Y-66195295D02*
X97685714Y-66100057D01*
X97685714Y-66100057D02*
X97733333Y-66052438D01*
X97733333Y-66052438D02*
X97828571Y-66004819D01*
X88757142Y-81109580D02*
X88709523Y-81157200D01*
X88709523Y-81157200D02*
X88566666Y-81204819D01*
X88566666Y-81204819D02*
X88471428Y-81204819D01*
X88471428Y-81204819D02*
X88328571Y-81157200D01*
X88328571Y-81157200D02*
X88233333Y-81061961D01*
X88233333Y-81061961D02*
X88185714Y-80966723D01*
X88185714Y-80966723D02*
X88138095Y-80776247D01*
X88138095Y-80776247D02*
X88138095Y-80633390D01*
X88138095Y-80633390D02*
X88185714Y-80442914D01*
X88185714Y-80442914D02*
X88233333Y-80347676D01*
X88233333Y-80347676D02*
X88328571Y-80252438D01*
X88328571Y-80252438D02*
X88471428Y-80204819D01*
X88471428Y-80204819D02*
X88566666Y-80204819D01*
X88566666Y-80204819D02*
X88709523Y-80252438D01*
X88709523Y-80252438D02*
X88757142Y-80300057D01*
X89090476Y-80204819D02*
X89709523Y-80204819D01*
X89709523Y-80204819D02*
X89376190Y-80585771D01*
X89376190Y-80585771D02*
X89519047Y-80585771D01*
X89519047Y-80585771D02*
X89614285Y-80633390D01*
X89614285Y-80633390D02*
X89661904Y-80681009D01*
X89661904Y-80681009D02*
X89709523Y-80776247D01*
X89709523Y-80776247D02*
X89709523Y-81014342D01*
X89709523Y-81014342D02*
X89661904Y-81109580D01*
X89661904Y-81109580D02*
X89614285Y-81157200D01*
X89614285Y-81157200D02*
X89519047Y-81204819D01*
X89519047Y-81204819D02*
X89233333Y-81204819D01*
X89233333Y-81204819D02*
X89138095Y-81157200D01*
X89138095Y-81157200D02*
X89090476Y-81109580D01*
X90661904Y-81204819D02*
X90090476Y-81204819D01*
X90376190Y-81204819D02*
X90376190Y-80204819D01*
X90376190Y-80204819D02*
X90280952Y-80347676D01*
X90280952Y-80347676D02*
X90185714Y-80442914D01*
X90185714Y-80442914D02*
X90090476Y-80490533D01*
X92357142Y-62659580D02*
X92309523Y-62707200D01*
X92309523Y-62707200D02*
X92166666Y-62754819D01*
X92166666Y-62754819D02*
X92071428Y-62754819D01*
X92071428Y-62754819D02*
X91928571Y-62707200D01*
X91928571Y-62707200D02*
X91833333Y-62611961D01*
X91833333Y-62611961D02*
X91785714Y-62516723D01*
X91785714Y-62516723D02*
X91738095Y-62326247D01*
X91738095Y-62326247D02*
X91738095Y-62183390D01*
X91738095Y-62183390D02*
X91785714Y-61992914D01*
X91785714Y-61992914D02*
X91833333Y-61897676D01*
X91833333Y-61897676D02*
X91928571Y-61802438D01*
X91928571Y-61802438D02*
X92071428Y-61754819D01*
X92071428Y-61754819D02*
X92166666Y-61754819D01*
X92166666Y-61754819D02*
X92309523Y-61802438D01*
X92309523Y-61802438D02*
X92357142Y-61850057D01*
X92690476Y-61754819D02*
X93309523Y-61754819D01*
X93309523Y-61754819D02*
X92976190Y-62135771D01*
X92976190Y-62135771D02*
X93119047Y-62135771D01*
X93119047Y-62135771D02*
X93214285Y-62183390D01*
X93214285Y-62183390D02*
X93261904Y-62231009D01*
X93261904Y-62231009D02*
X93309523Y-62326247D01*
X93309523Y-62326247D02*
X93309523Y-62564342D01*
X93309523Y-62564342D02*
X93261904Y-62659580D01*
X93261904Y-62659580D02*
X93214285Y-62707200D01*
X93214285Y-62707200D02*
X93119047Y-62754819D01*
X93119047Y-62754819D02*
X92833333Y-62754819D01*
X92833333Y-62754819D02*
X92738095Y-62707200D01*
X92738095Y-62707200D02*
X92690476Y-62659580D01*
X93690476Y-61850057D02*
X93738095Y-61802438D01*
X93738095Y-61802438D02*
X93833333Y-61754819D01*
X93833333Y-61754819D02*
X94071428Y-61754819D01*
X94071428Y-61754819D02*
X94166666Y-61802438D01*
X94166666Y-61802438D02*
X94214285Y-61850057D01*
X94214285Y-61850057D02*
X94261904Y-61945295D01*
X94261904Y-61945295D02*
X94261904Y-62040533D01*
X94261904Y-62040533D02*
X94214285Y-62183390D01*
X94214285Y-62183390D02*
X93642857Y-62754819D01*
X93642857Y-62754819D02*
X94261904Y-62754819D01*
X88757142Y-85459580D02*
X88709523Y-85507200D01*
X88709523Y-85507200D02*
X88566666Y-85554819D01*
X88566666Y-85554819D02*
X88471428Y-85554819D01*
X88471428Y-85554819D02*
X88328571Y-85507200D01*
X88328571Y-85507200D02*
X88233333Y-85411961D01*
X88233333Y-85411961D02*
X88185714Y-85316723D01*
X88185714Y-85316723D02*
X88138095Y-85126247D01*
X88138095Y-85126247D02*
X88138095Y-84983390D01*
X88138095Y-84983390D02*
X88185714Y-84792914D01*
X88185714Y-84792914D02*
X88233333Y-84697676D01*
X88233333Y-84697676D02*
X88328571Y-84602438D01*
X88328571Y-84602438D02*
X88471428Y-84554819D01*
X88471428Y-84554819D02*
X88566666Y-84554819D01*
X88566666Y-84554819D02*
X88709523Y-84602438D01*
X88709523Y-84602438D02*
X88757142Y-84650057D01*
X89090476Y-84554819D02*
X89709523Y-84554819D01*
X89709523Y-84554819D02*
X89376190Y-84935771D01*
X89376190Y-84935771D02*
X89519047Y-84935771D01*
X89519047Y-84935771D02*
X89614285Y-84983390D01*
X89614285Y-84983390D02*
X89661904Y-85031009D01*
X89661904Y-85031009D02*
X89709523Y-85126247D01*
X89709523Y-85126247D02*
X89709523Y-85364342D01*
X89709523Y-85364342D02*
X89661904Y-85459580D01*
X89661904Y-85459580D02*
X89614285Y-85507200D01*
X89614285Y-85507200D02*
X89519047Y-85554819D01*
X89519047Y-85554819D02*
X89233333Y-85554819D01*
X89233333Y-85554819D02*
X89138095Y-85507200D01*
X89138095Y-85507200D02*
X89090476Y-85459580D01*
X90042857Y-84554819D02*
X90661904Y-84554819D01*
X90661904Y-84554819D02*
X90328571Y-84935771D01*
X90328571Y-84935771D02*
X90471428Y-84935771D01*
X90471428Y-84935771D02*
X90566666Y-84983390D01*
X90566666Y-84983390D02*
X90614285Y-85031009D01*
X90614285Y-85031009D02*
X90661904Y-85126247D01*
X90661904Y-85126247D02*
X90661904Y-85364342D01*
X90661904Y-85364342D02*
X90614285Y-85459580D01*
X90614285Y-85459580D02*
X90566666Y-85507200D01*
X90566666Y-85507200D02*
X90471428Y-85554819D01*
X90471428Y-85554819D02*
X90185714Y-85554819D01*
X90185714Y-85554819D02*
X90090476Y-85507200D01*
X90090476Y-85507200D02*
X90042857Y-85459580D01*
X83557142Y-81459580D02*
X83509523Y-81507200D01*
X83509523Y-81507200D02*
X83366666Y-81554819D01*
X83366666Y-81554819D02*
X83271428Y-81554819D01*
X83271428Y-81554819D02*
X83128571Y-81507200D01*
X83128571Y-81507200D02*
X83033333Y-81411961D01*
X83033333Y-81411961D02*
X82985714Y-81316723D01*
X82985714Y-81316723D02*
X82938095Y-81126247D01*
X82938095Y-81126247D02*
X82938095Y-80983390D01*
X82938095Y-80983390D02*
X82985714Y-80792914D01*
X82985714Y-80792914D02*
X83033333Y-80697676D01*
X83033333Y-80697676D02*
X83128571Y-80602438D01*
X83128571Y-80602438D02*
X83271428Y-80554819D01*
X83271428Y-80554819D02*
X83366666Y-80554819D01*
X83366666Y-80554819D02*
X83509523Y-80602438D01*
X83509523Y-80602438D02*
X83557142Y-80650057D01*
X83890476Y-80554819D02*
X84509523Y-80554819D01*
X84509523Y-80554819D02*
X84176190Y-80935771D01*
X84176190Y-80935771D02*
X84319047Y-80935771D01*
X84319047Y-80935771D02*
X84414285Y-80983390D01*
X84414285Y-80983390D02*
X84461904Y-81031009D01*
X84461904Y-81031009D02*
X84509523Y-81126247D01*
X84509523Y-81126247D02*
X84509523Y-81364342D01*
X84509523Y-81364342D02*
X84461904Y-81459580D01*
X84461904Y-81459580D02*
X84414285Y-81507200D01*
X84414285Y-81507200D02*
X84319047Y-81554819D01*
X84319047Y-81554819D02*
X84033333Y-81554819D01*
X84033333Y-81554819D02*
X83938095Y-81507200D01*
X83938095Y-81507200D02*
X83890476Y-81459580D01*
X85366666Y-80888152D02*
X85366666Y-81554819D01*
X85128571Y-80507200D02*
X84890476Y-81221485D01*
X84890476Y-81221485D02*
X85509523Y-81221485D01*
X80457142Y-68559580D02*
X80409523Y-68607200D01*
X80409523Y-68607200D02*
X80266666Y-68654819D01*
X80266666Y-68654819D02*
X80171428Y-68654819D01*
X80171428Y-68654819D02*
X80028571Y-68607200D01*
X80028571Y-68607200D02*
X79933333Y-68511961D01*
X79933333Y-68511961D02*
X79885714Y-68416723D01*
X79885714Y-68416723D02*
X79838095Y-68226247D01*
X79838095Y-68226247D02*
X79838095Y-68083390D01*
X79838095Y-68083390D02*
X79885714Y-67892914D01*
X79885714Y-67892914D02*
X79933333Y-67797676D01*
X79933333Y-67797676D02*
X80028571Y-67702438D01*
X80028571Y-67702438D02*
X80171428Y-67654819D01*
X80171428Y-67654819D02*
X80266666Y-67654819D01*
X80266666Y-67654819D02*
X80409523Y-67702438D01*
X80409523Y-67702438D02*
X80457142Y-67750057D01*
X80790476Y-67654819D02*
X81409523Y-67654819D01*
X81409523Y-67654819D02*
X81076190Y-68035771D01*
X81076190Y-68035771D02*
X81219047Y-68035771D01*
X81219047Y-68035771D02*
X81314285Y-68083390D01*
X81314285Y-68083390D02*
X81361904Y-68131009D01*
X81361904Y-68131009D02*
X81409523Y-68226247D01*
X81409523Y-68226247D02*
X81409523Y-68464342D01*
X81409523Y-68464342D02*
X81361904Y-68559580D01*
X81361904Y-68559580D02*
X81314285Y-68607200D01*
X81314285Y-68607200D02*
X81219047Y-68654819D01*
X81219047Y-68654819D02*
X80933333Y-68654819D01*
X80933333Y-68654819D02*
X80838095Y-68607200D01*
X80838095Y-68607200D02*
X80790476Y-68559580D01*
X82314285Y-67654819D02*
X81838095Y-67654819D01*
X81838095Y-67654819D02*
X81790476Y-68131009D01*
X81790476Y-68131009D02*
X81838095Y-68083390D01*
X81838095Y-68083390D02*
X81933333Y-68035771D01*
X81933333Y-68035771D02*
X82171428Y-68035771D01*
X82171428Y-68035771D02*
X82266666Y-68083390D01*
X82266666Y-68083390D02*
X82314285Y-68131009D01*
X82314285Y-68131009D02*
X82361904Y-68226247D01*
X82361904Y-68226247D02*
X82361904Y-68464342D01*
X82361904Y-68464342D02*
X82314285Y-68559580D01*
X82314285Y-68559580D02*
X82266666Y-68607200D01*
X82266666Y-68607200D02*
X82171428Y-68654819D01*
X82171428Y-68654819D02*
X81933333Y-68654819D01*
X81933333Y-68654819D02*
X81838095Y-68607200D01*
X81838095Y-68607200D02*
X81790476Y-68559580D01*
X75857142Y-63259580D02*
X75809523Y-63307200D01*
X75809523Y-63307200D02*
X75666666Y-63354819D01*
X75666666Y-63354819D02*
X75571428Y-63354819D01*
X75571428Y-63354819D02*
X75428571Y-63307200D01*
X75428571Y-63307200D02*
X75333333Y-63211961D01*
X75333333Y-63211961D02*
X75285714Y-63116723D01*
X75285714Y-63116723D02*
X75238095Y-62926247D01*
X75238095Y-62926247D02*
X75238095Y-62783390D01*
X75238095Y-62783390D02*
X75285714Y-62592914D01*
X75285714Y-62592914D02*
X75333333Y-62497676D01*
X75333333Y-62497676D02*
X75428571Y-62402438D01*
X75428571Y-62402438D02*
X75571428Y-62354819D01*
X75571428Y-62354819D02*
X75666666Y-62354819D01*
X75666666Y-62354819D02*
X75809523Y-62402438D01*
X75809523Y-62402438D02*
X75857142Y-62450057D01*
X76190476Y-62354819D02*
X76809523Y-62354819D01*
X76809523Y-62354819D02*
X76476190Y-62735771D01*
X76476190Y-62735771D02*
X76619047Y-62735771D01*
X76619047Y-62735771D02*
X76714285Y-62783390D01*
X76714285Y-62783390D02*
X76761904Y-62831009D01*
X76761904Y-62831009D02*
X76809523Y-62926247D01*
X76809523Y-62926247D02*
X76809523Y-63164342D01*
X76809523Y-63164342D02*
X76761904Y-63259580D01*
X76761904Y-63259580D02*
X76714285Y-63307200D01*
X76714285Y-63307200D02*
X76619047Y-63354819D01*
X76619047Y-63354819D02*
X76333333Y-63354819D01*
X76333333Y-63354819D02*
X76238095Y-63307200D01*
X76238095Y-63307200D02*
X76190476Y-63259580D01*
X77142857Y-62354819D02*
X77809523Y-62354819D01*
X77809523Y-62354819D02*
X77380952Y-63354819D01*
X79357142Y-89659580D02*
X79309523Y-89707200D01*
X79309523Y-89707200D02*
X79166666Y-89754819D01*
X79166666Y-89754819D02*
X79071428Y-89754819D01*
X79071428Y-89754819D02*
X78928571Y-89707200D01*
X78928571Y-89707200D02*
X78833333Y-89611961D01*
X78833333Y-89611961D02*
X78785714Y-89516723D01*
X78785714Y-89516723D02*
X78738095Y-89326247D01*
X78738095Y-89326247D02*
X78738095Y-89183390D01*
X78738095Y-89183390D02*
X78785714Y-88992914D01*
X78785714Y-88992914D02*
X78833333Y-88897676D01*
X78833333Y-88897676D02*
X78928571Y-88802438D01*
X78928571Y-88802438D02*
X79071428Y-88754819D01*
X79071428Y-88754819D02*
X79166666Y-88754819D01*
X79166666Y-88754819D02*
X79309523Y-88802438D01*
X79309523Y-88802438D02*
X79357142Y-88850057D01*
X79690476Y-88754819D02*
X80309523Y-88754819D01*
X80309523Y-88754819D02*
X79976190Y-89135771D01*
X79976190Y-89135771D02*
X80119047Y-89135771D01*
X80119047Y-89135771D02*
X80214285Y-89183390D01*
X80214285Y-89183390D02*
X80261904Y-89231009D01*
X80261904Y-89231009D02*
X80309523Y-89326247D01*
X80309523Y-89326247D02*
X80309523Y-89564342D01*
X80309523Y-89564342D02*
X80261904Y-89659580D01*
X80261904Y-89659580D02*
X80214285Y-89707200D01*
X80214285Y-89707200D02*
X80119047Y-89754819D01*
X80119047Y-89754819D02*
X79833333Y-89754819D01*
X79833333Y-89754819D02*
X79738095Y-89707200D01*
X79738095Y-89707200D02*
X79690476Y-89659580D01*
X80880952Y-89183390D02*
X80785714Y-89135771D01*
X80785714Y-89135771D02*
X80738095Y-89088152D01*
X80738095Y-89088152D02*
X80690476Y-88992914D01*
X80690476Y-88992914D02*
X80690476Y-88945295D01*
X80690476Y-88945295D02*
X80738095Y-88850057D01*
X80738095Y-88850057D02*
X80785714Y-88802438D01*
X80785714Y-88802438D02*
X80880952Y-88754819D01*
X80880952Y-88754819D02*
X81071428Y-88754819D01*
X81071428Y-88754819D02*
X81166666Y-88802438D01*
X81166666Y-88802438D02*
X81214285Y-88850057D01*
X81214285Y-88850057D02*
X81261904Y-88945295D01*
X81261904Y-88945295D02*
X81261904Y-88992914D01*
X81261904Y-88992914D02*
X81214285Y-89088152D01*
X81214285Y-89088152D02*
X81166666Y-89135771D01*
X81166666Y-89135771D02*
X81071428Y-89183390D01*
X81071428Y-89183390D02*
X80880952Y-89183390D01*
X80880952Y-89183390D02*
X80785714Y-89231009D01*
X80785714Y-89231009D02*
X80738095Y-89278628D01*
X80738095Y-89278628D02*
X80690476Y-89373866D01*
X80690476Y-89373866D02*
X80690476Y-89564342D01*
X80690476Y-89564342D02*
X80738095Y-89659580D01*
X80738095Y-89659580D02*
X80785714Y-89707200D01*
X80785714Y-89707200D02*
X80880952Y-89754819D01*
X80880952Y-89754819D02*
X81071428Y-89754819D01*
X81071428Y-89754819D02*
X81166666Y-89707200D01*
X81166666Y-89707200D02*
X81214285Y-89659580D01*
X81214285Y-89659580D02*
X81261904Y-89564342D01*
X81261904Y-89564342D02*
X81261904Y-89373866D01*
X81261904Y-89373866D02*
X81214285Y-89278628D01*
X81214285Y-89278628D02*
X81166666Y-89231009D01*
X81166666Y-89231009D02*
X81071428Y-89183390D01*
X100333333Y-112654819D02*
X100000000Y-112178628D01*
X99761905Y-112654819D02*
X99761905Y-111654819D01*
X99761905Y-111654819D02*
X100142857Y-111654819D01*
X100142857Y-111654819D02*
X100238095Y-111702438D01*
X100238095Y-111702438D02*
X100285714Y-111750057D01*
X100285714Y-111750057D02*
X100333333Y-111845295D01*
X100333333Y-111845295D02*
X100333333Y-111988152D01*
X100333333Y-111988152D02*
X100285714Y-112083390D01*
X100285714Y-112083390D02*
X100238095Y-112131009D01*
X100238095Y-112131009D02*
X100142857Y-112178628D01*
X100142857Y-112178628D02*
X99761905Y-112178628D01*
X101238095Y-111654819D02*
X100761905Y-111654819D01*
X100761905Y-111654819D02*
X100714286Y-112131009D01*
X100714286Y-112131009D02*
X100761905Y-112083390D01*
X100761905Y-112083390D02*
X100857143Y-112035771D01*
X100857143Y-112035771D02*
X101095238Y-112035771D01*
X101095238Y-112035771D02*
X101190476Y-112083390D01*
X101190476Y-112083390D02*
X101238095Y-112131009D01*
X101238095Y-112131009D02*
X101285714Y-112226247D01*
X101285714Y-112226247D02*
X101285714Y-112464342D01*
X101285714Y-112464342D02*
X101238095Y-112559580D01*
X101238095Y-112559580D02*
X101190476Y-112607200D01*
X101190476Y-112607200D02*
X101095238Y-112654819D01*
X101095238Y-112654819D02*
X100857143Y-112654819D01*
X100857143Y-112654819D02*
X100761905Y-112607200D01*
X100761905Y-112607200D02*
X100714286Y-112559580D01*
X100333333Y-109254819D02*
X100000000Y-108778628D01*
X99761905Y-109254819D02*
X99761905Y-108254819D01*
X99761905Y-108254819D02*
X100142857Y-108254819D01*
X100142857Y-108254819D02*
X100238095Y-108302438D01*
X100238095Y-108302438D02*
X100285714Y-108350057D01*
X100285714Y-108350057D02*
X100333333Y-108445295D01*
X100333333Y-108445295D02*
X100333333Y-108588152D01*
X100333333Y-108588152D02*
X100285714Y-108683390D01*
X100285714Y-108683390D02*
X100238095Y-108731009D01*
X100238095Y-108731009D02*
X100142857Y-108778628D01*
X100142857Y-108778628D02*
X99761905Y-108778628D01*
X101190476Y-108254819D02*
X101000000Y-108254819D01*
X101000000Y-108254819D02*
X100904762Y-108302438D01*
X100904762Y-108302438D02*
X100857143Y-108350057D01*
X100857143Y-108350057D02*
X100761905Y-108492914D01*
X100761905Y-108492914D02*
X100714286Y-108683390D01*
X100714286Y-108683390D02*
X100714286Y-109064342D01*
X100714286Y-109064342D02*
X100761905Y-109159580D01*
X100761905Y-109159580D02*
X100809524Y-109207200D01*
X100809524Y-109207200D02*
X100904762Y-109254819D01*
X100904762Y-109254819D02*
X101095238Y-109254819D01*
X101095238Y-109254819D02*
X101190476Y-109207200D01*
X101190476Y-109207200D02*
X101238095Y-109159580D01*
X101238095Y-109159580D02*
X101285714Y-109064342D01*
X101285714Y-109064342D02*
X101285714Y-108826247D01*
X101285714Y-108826247D02*
X101238095Y-108731009D01*
X101238095Y-108731009D02*
X101190476Y-108683390D01*
X101190476Y-108683390D02*
X101095238Y-108635771D01*
X101095238Y-108635771D02*
X100904762Y-108635771D01*
X100904762Y-108635771D02*
X100809524Y-108683390D01*
X100809524Y-108683390D02*
X100761905Y-108731009D01*
X100761905Y-108731009D02*
X100714286Y-108826247D01*
X58333333Y-66754819D02*
X58000000Y-66278628D01*
X57761905Y-66754819D02*
X57761905Y-65754819D01*
X57761905Y-65754819D02*
X58142857Y-65754819D01*
X58142857Y-65754819D02*
X58238095Y-65802438D01*
X58238095Y-65802438D02*
X58285714Y-65850057D01*
X58285714Y-65850057D02*
X58333333Y-65945295D01*
X58333333Y-65945295D02*
X58333333Y-66088152D01*
X58333333Y-66088152D02*
X58285714Y-66183390D01*
X58285714Y-66183390D02*
X58238095Y-66231009D01*
X58238095Y-66231009D02*
X58142857Y-66278628D01*
X58142857Y-66278628D02*
X57761905Y-66278628D01*
X58666667Y-65754819D02*
X59333333Y-65754819D01*
X59333333Y-65754819D02*
X58904762Y-66754819D01*
X71733333Y-102054819D02*
X71400000Y-101578628D01*
X71161905Y-102054819D02*
X71161905Y-101054819D01*
X71161905Y-101054819D02*
X71542857Y-101054819D01*
X71542857Y-101054819D02*
X71638095Y-101102438D01*
X71638095Y-101102438D02*
X71685714Y-101150057D01*
X71685714Y-101150057D02*
X71733333Y-101245295D01*
X71733333Y-101245295D02*
X71733333Y-101388152D01*
X71733333Y-101388152D02*
X71685714Y-101483390D01*
X71685714Y-101483390D02*
X71638095Y-101531009D01*
X71638095Y-101531009D02*
X71542857Y-101578628D01*
X71542857Y-101578628D02*
X71161905Y-101578628D01*
X72304762Y-101483390D02*
X72209524Y-101435771D01*
X72209524Y-101435771D02*
X72161905Y-101388152D01*
X72161905Y-101388152D02*
X72114286Y-101292914D01*
X72114286Y-101292914D02*
X72114286Y-101245295D01*
X72114286Y-101245295D02*
X72161905Y-101150057D01*
X72161905Y-101150057D02*
X72209524Y-101102438D01*
X72209524Y-101102438D02*
X72304762Y-101054819D01*
X72304762Y-101054819D02*
X72495238Y-101054819D01*
X72495238Y-101054819D02*
X72590476Y-101102438D01*
X72590476Y-101102438D02*
X72638095Y-101150057D01*
X72638095Y-101150057D02*
X72685714Y-101245295D01*
X72685714Y-101245295D02*
X72685714Y-101292914D01*
X72685714Y-101292914D02*
X72638095Y-101388152D01*
X72638095Y-101388152D02*
X72590476Y-101435771D01*
X72590476Y-101435771D02*
X72495238Y-101483390D01*
X72495238Y-101483390D02*
X72304762Y-101483390D01*
X72304762Y-101483390D02*
X72209524Y-101531009D01*
X72209524Y-101531009D02*
X72161905Y-101578628D01*
X72161905Y-101578628D02*
X72114286Y-101673866D01*
X72114286Y-101673866D02*
X72114286Y-101864342D01*
X72114286Y-101864342D02*
X72161905Y-101959580D01*
X72161905Y-101959580D02*
X72209524Y-102007200D01*
X72209524Y-102007200D02*
X72304762Y-102054819D01*
X72304762Y-102054819D02*
X72495238Y-102054819D01*
X72495238Y-102054819D02*
X72590476Y-102007200D01*
X72590476Y-102007200D02*
X72638095Y-101959580D01*
X72638095Y-101959580D02*
X72685714Y-101864342D01*
X72685714Y-101864342D02*
X72685714Y-101673866D01*
X72685714Y-101673866D02*
X72638095Y-101578628D01*
X72638095Y-101578628D02*
X72590476Y-101531009D01*
X72590476Y-101531009D02*
X72495238Y-101483390D01*
X66233333Y-66754819D02*
X65900000Y-66278628D01*
X65661905Y-66754819D02*
X65661905Y-65754819D01*
X65661905Y-65754819D02*
X66042857Y-65754819D01*
X66042857Y-65754819D02*
X66138095Y-65802438D01*
X66138095Y-65802438D02*
X66185714Y-65850057D01*
X66185714Y-65850057D02*
X66233333Y-65945295D01*
X66233333Y-65945295D02*
X66233333Y-66088152D01*
X66233333Y-66088152D02*
X66185714Y-66183390D01*
X66185714Y-66183390D02*
X66138095Y-66231009D01*
X66138095Y-66231009D02*
X66042857Y-66278628D01*
X66042857Y-66278628D02*
X65661905Y-66278628D01*
X66709524Y-66754819D02*
X66900000Y-66754819D01*
X66900000Y-66754819D02*
X66995238Y-66707200D01*
X66995238Y-66707200D02*
X67042857Y-66659580D01*
X67042857Y-66659580D02*
X67138095Y-66516723D01*
X67138095Y-66516723D02*
X67185714Y-66326247D01*
X67185714Y-66326247D02*
X67185714Y-65945295D01*
X67185714Y-65945295D02*
X67138095Y-65850057D01*
X67138095Y-65850057D02*
X67090476Y-65802438D01*
X67090476Y-65802438D02*
X66995238Y-65754819D01*
X66995238Y-65754819D02*
X66804762Y-65754819D01*
X66804762Y-65754819D02*
X66709524Y-65802438D01*
X66709524Y-65802438D02*
X66661905Y-65850057D01*
X66661905Y-65850057D02*
X66614286Y-65945295D01*
X66614286Y-65945295D02*
X66614286Y-66183390D01*
X66614286Y-66183390D02*
X66661905Y-66278628D01*
X66661905Y-66278628D02*
X66709524Y-66326247D01*
X66709524Y-66326247D02*
X66804762Y-66373866D01*
X66804762Y-66373866D02*
X66995238Y-66373866D01*
X66995238Y-66373866D02*
X67090476Y-66326247D01*
X67090476Y-66326247D02*
X67138095Y-66278628D01*
X67138095Y-66278628D02*
X67185714Y-66183390D01*
X101057142Y-52254819D02*
X100723809Y-51778628D01*
X100485714Y-52254819D02*
X100485714Y-51254819D01*
X100485714Y-51254819D02*
X100866666Y-51254819D01*
X100866666Y-51254819D02*
X100961904Y-51302438D01*
X100961904Y-51302438D02*
X101009523Y-51350057D01*
X101009523Y-51350057D02*
X101057142Y-51445295D01*
X101057142Y-51445295D02*
X101057142Y-51588152D01*
X101057142Y-51588152D02*
X101009523Y-51683390D01*
X101009523Y-51683390D02*
X100961904Y-51731009D01*
X100961904Y-51731009D02*
X100866666Y-51778628D01*
X100866666Y-51778628D02*
X100485714Y-51778628D01*
X102009523Y-52254819D02*
X101438095Y-52254819D01*
X101723809Y-52254819D02*
X101723809Y-51254819D01*
X101723809Y-51254819D02*
X101628571Y-51397676D01*
X101628571Y-51397676D02*
X101533333Y-51492914D01*
X101533333Y-51492914D02*
X101438095Y-51540533D01*
X102628571Y-51254819D02*
X102723809Y-51254819D01*
X102723809Y-51254819D02*
X102819047Y-51302438D01*
X102819047Y-51302438D02*
X102866666Y-51350057D01*
X102866666Y-51350057D02*
X102914285Y-51445295D01*
X102914285Y-51445295D02*
X102961904Y-51635771D01*
X102961904Y-51635771D02*
X102961904Y-51873866D01*
X102961904Y-51873866D02*
X102914285Y-52064342D01*
X102914285Y-52064342D02*
X102866666Y-52159580D01*
X102866666Y-52159580D02*
X102819047Y-52207200D01*
X102819047Y-52207200D02*
X102723809Y-52254819D01*
X102723809Y-52254819D02*
X102628571Y-52254819D01*
X102628571Y-52254819D02*
X102533333Y-52207200D01*
X102533333Y-52207200D02*
X102485714Y-52159580D01*
X102485714Y-52159580D02*
X102438095Y-52064342D01*
X102438095Y-52064342D02*
X102390476Y-51873866D01*
X102390476Y-51873866D02*
X102390476Y-51635771D01*
X102390476Y-51635771D02*
X102438095Y-51445295D01*
X102438095Y-51445295D02*
X102485714Y-51350057D01*
X102485714Y-51350057D02*
X102533333Y-51302438D01*
X102533333Y-51302438D02*
X102628571Y-51254819D01*
X88657142Y-94154819D02*
X88323809Y-93678628D01*
X88085714Y-94154819D02*
X88085714Y-93154819D01*
X88085714Y-93154819D02*
X88466666Y-93154819D01*
X88466666Y-93154819D02*
X88561904Y-93202438D01*
X88561904Y-93202438D02*
X88609523Y-93250057D01*
X88609523Y-93250057D02*
X88657142Y-93345295D01*
X88657142Y-93345295D02*
X88657142Y-93488152D01*
X88657142Y-93488152D02*
X88609523Y-93583390D01*
X88609523Y-93583390D02*
X88561904Y-93631009D01*
X88561904Y-93631009D02*
X88466666Y-93678628D01*
X88466666Y-93678628D02*
X88085714Y-93678628D01*
X89609523Y-94154819D02*
X89038095Y-94154819D01*
X89323809Y-94154819D02*
X89323809Y-93154819D01*
X89323809Y-93154819D02*
X89228571Y-93297676D01*
X89228571Y-93297676D02*
X89133333Y-93392914D01*
X89133333Y-93392914D02*
X89038095Y-93440533D01*
X90561904Y-94154819D02*
X89990476Y-94154819D01*
X90276190Y-94154819D02*
X90276190Y-93154819D01*
X90276190Y-93154819D02*
X90180952Y-93297676D01*
X90180952Y-93297676D02*
X90085714Y-93392914D01*
X90085714Y-93392914D02*
X89990476Y-93440533D01*
X83657142Y-68654819D02*
X83323809Y-68178628D01*
X83085714Y-68654819D02*
X83085714Y-67654819D01*
X83085714Y-67654819D02*
X83466666Y-67654819D01*
X83466666Y-67654819D02*
X83561904Y-67702438D01*
X83561904Y-67702438D02*
X83609523Y-67750057D01*
X83609523Y-67750057D02*
X83657142Y-67845295D01*
X83657142Y-67845295D02*
X83657142Y-67988152D01*
X83657142Y-67988152D02*
X83609523Y-68083390D01*
X83609523Y-68083390D02*
X83561904Y-68131009D01*
X83561904Y-68131009D02*
X83466666Y-68178628D01*
X83466666Y-68178628D02*
X83085714Y-68178628D01*
X84609523Y-68654819D02*
X84038095Y-68654819D01*
X84323809Y-68654819D02*
X84323809Y-67654819D01*
X84323809Y-67654819D02*
X84228571Y-67797676D01*
X84228571Y-67797676D02*
X84133333Y-67892914D01*
X84133333Y-67892914D02*
X84038095Y-67940533D01*
X84990476Y-67750057D02*
X85038095Y-67702438D01*
X85038095Y-67702438D02*
X85133333Y-67654819D01*
X85133333Y-67654819D02*
X85371428Y-67654819D01*
X85371428Y-67654819D02*
X85466666Y-67702438D01*
X85466666Y-67702438D02*
X85514285Y-67750057D01*
X85514285Y-67750057D02*
X85561904Y-67845295D01*
X85561904Y-67845295D02*
X85561904Y-67940533D01*
X85561904Y-67940533D02*
X85514285Y-68083390D01*
X85514285Y-68083390D02*
X84942857Y-68654819D01*
X84942857Y-68654819D02*
X85561904Y-68654819D01*
X83557142Y-74154819D02*
X83223809Y-73678628D01*
X82985714Y-74154819D02*
X82985714Y-73154819D01*
X82985714Y-73154819D02*
X83366666Y-73154819D01*
X83366666Y-73154819D02*
X83461904Y-73202438D01*
X83461904Y-73202438D02*
X83509523Y-73250057D01*
X83509523Y-73250057D02*
X83557142Y-73345295D01*
X83557142Y-73345295D02*
X83557142Y-73488152D01*
X83557142Y-73488152D02*
X83509523Y-73583390D01*
X83509523Y-73583390D02*
X83461904Y-73631009D01*
X83461904Y-73631009D02*
X83366666Y-73678628D01*
X83366666Y-73678628D02*
X82985714Y-73678628D01*
X84509523Y-74154819D02*
X83938095Y-74154819D01*
X84223809Y-74154819D02*
X84223809Y-73154819D01*
X84223809Y-73154819D02*
X84128571Y-73297676D01*
X84128571Y-73297676D02*
X84033333Y-73392914D01*
X84033333Y-73392914D02*
X83938095Y-73440533D01*
X84842857Y-73154819D02*
X85461904Y-73154819D01*
X85461904Y-73154819D02*
X85128571Y-73535771D01*
X85128571Y-73535771D02*
X85271428Y-73535771D01*
X85271428Y-73535771D02*
X85366666Y-73583390D01*
X85366666Y-73583390D02*
X85414285Y-73631009D01*
X85414285Y-73631009D02*
X85461904Y-73726247D01*
X85461904Y-73726247D02*
X85461904Y-73964342D01*
X85461904Y-73964342D02*
X85414285Y-74059580D01*
X85414285Y-74059580D02*
X85366666Y-74107200D01*
X85366666Y-74107200D02*
X85271428Y-74154819D01*
X85271428Y-74154819D02*
X84985714Y-74154819D01*
X84985714Y-74154819D02*
X84890476Y-74107200D01*
X84890476Y-74107200D02*
X84842857Y-74059580D01*
X92157142Y-68754819D02*
X91823809Y-68278628D01*
X91585714Y-68754819D02*
X91585714Y-67754819D01*
X91585714Y-67754819D02*
X91966666Y-67754819D01*
X91966666Y-67754819D02*
X92061904Y-67802438D01*
X92061904Y-67802438D02*
X92109523Y-67850057D01*
X92109523Y-67850057D02*
X92157142Y-67945295D01*
X92157142Y-67945295D02*
X92157142Y-68088152D01*
X92157142Y-68088152D02*
X92109523Y-68183390D01*
X92109523Y-68183390D02*
X92061904Y-68231009D01*
X92061904Y-68231009D02*
X91966666Y-68278628D01*
X91966666Y-68278628D02*
X91585714Y-68278628D01*
X93109523Y-68754819D02*
X92538095Y-68754819D01*
X92823809Y-68754819D02*
X92823809Y-67754819D01*
X92823809Y-67754819D02*
X92728571Y-67897676D01*
X92728571Y-67897676D02*
X92633333Y-67992914D01*
X92633333Y-67992914D02*
X92538095Y-68040533D01*
X93966666Y-68088152D02*
X93966666Y-68754819D01*
X93728571Y-67707200D02*
X93490476Y-68421485D01*
X93490476Y-68421485D02*
X94109523Y-68421485D01*
X88757142Y-89054819D02*
X88423809Y-88578628D01*
X88185714Y-89054819D02*
X88185714Y-88054819D01*
X88185714Y-88054819D02*
X88566666Y-88054819D01*
X88566666Y-88054819D02*
X88661904Y-88102438D01*
X88661904Y-88102438D02*
X88709523Y-88150057D01*
X88709523Y-88150057D02*
X88757142Y-88245295D01*
X88757142Y-88245295D02*
X88757142Y-88388152D01*
X88757142Y-88388152D02*
X88709523Y-88483390D01*
X88709523Y-88483390D02*
X88661904Y-88531009D01*
X88661904Y-88531009D02*
X88566666Y-88578628D01*
X88566666Y-88578628D02*
X88185714Y-88578628D01*
X89709523Y-89054819D02*
X89138095Y-89054819D01*
X89423809Y-89054819D02*
X89423809Y-88054819D01*
X89423809Y-88054819D02*
X89328571Y-88197676D01*
X89328571Y-88197676D02*
X89233333Y-88292914D01*
X89233333Y-88292914D02*
X89138095Y-88340533D01*
X90614285Y-88054819D02*
X90138095Y-88054819D01*
X90138095Y-88054819D02*
X90090476Y-88531009D01*
X90090476Y-88531009D02*
X90138095Y-88483390D01*
X90138095Y-88483390D02*
X90233333Y-88435771D01*
X90233333Y-88435771D02*
X90471428Y-88435771D01*
X90471428Y-88435771D02*
X90566666Y-88483390D01*
X90566666Y-88483390D02*
X90614285Y-88531009D01*
X90614285Y-88531009D02*
X90661904Y-88626247D01*
X90661904Y-88626247D02*
X90661904Y-88864342D01*
X90661904Y-88864342D02*
X90614285Y-88959580D01*
X90614285Y-88959580D02*
X90566666Y-89007200D01*
X90566666Y-89007200D02*
X90471428Y-89054819D01*
X90471428Y-89054819D02*
X90233333Y-89054819D01*
X90233333Y-89054819D02*
X90138095Y-89007200D01*
X90138095Y-89007200D02*
X90090476Y-88959580D01*
X54457142Y-51654819D02*
X54123809Y-51178628D01*
X53885714Y-51654819D02*
X53885714Y-50654819D01*
X53885714Y-50654819D02*
X54266666Y-50654819D01*
X54266666Y-50654819D02*
X54361904Y-50702438D01*
X54361904Y-50702438D02*
X54409523Y-50750057D01*
X54409523Y-50750057D02*
X54457142Y-50845295D01*
X54457142Y-50845295D02*
X54457142Y-50988152D01*
X54457142Y-50988152D02*
X54409523Y-51083390D01*
X54409523Y-51083390D02*
X54361904Y-51131009D01*
X54361904Y-51131009D02*
X54266666Y-51178628D01*
X54266666Y-51178628D02*
X53885714Y-51178628D01*
X55409523Y-51654819D02*
X54838095Y-51654819D01*
X55123809Y-51654819D02*
X55123809Y-50654819D01*
X55123809Y-50654819D02*
X55028571Y-50797676D01*
X55028571Y-50797676D02*
X54933333Y-50892914D01*
X54933333Y-50892914D02*
X54838095Y-50940533D01*
X56266666Y-50654819D02*
X56076190Y-50654819D01*
X56076190Y-50654819D02*
X55980952Y-50702438D01*
X55980952Y-50702438D02*
X55933333Y-50750057D01*
X55933333Y-50750057D02*
X55838095Y-50892914D01*
X55838095Y-50892914D02*
X55790476Y-51083390D01*
X55790476Y-51083390D02*
X55790476Y-51464342D01*
X55790476Y-51464342D02*
X55838095Y-51559580D01*
X55838095Y-51559580D02*
X55885714Y-51607200D01*
X55885714Y-51607200D02*
X55980952Y-51654819D01*
X55980952Y-51654819D02*
X56171428Y-51654819D01*
X56171428Y-51654819D02*
X56266666Y-51607200D01*
X56266666Y-51607200D02*
X56314285Y-51559580D01*
X56314285Y-51559580D02*
X56361904Y-51464342D01*
X56361904Y-51464342D02*
X56361904Y-51226247D01*
X56361904Y-51226247D02*
X56314285Y-51131009D01*
X56314285Y-51131009D02*
X56266666Y-51083390D01*
X56266666Y-51083390D02*
X56171428Y-51035771D01*
X56171428Y-51035771D02*
X55980952Y-51035771D01*
X55980952Y-51035771D02*
X55885714Y-51083390D01*
X55885714Y-51083390D02*
X55838095Y-51131009D01*
X55838095Y-51131009D02*
X55790476Y-51226247D01*
X75049142Y-75791219D02*
X74715809Y-75315028D01*
X74477714Y-75791219D02*
X74477714Y-74791219D01*
X74477714Y-74791219D02*
X74858666Y-74791219D01*
X74858666Y-74791219D02*
X74953904Y-74838838D01*
X74953904Y-74838838D02*
X75001523Y-74886457D01*
X75001523Y-74886457D02*
X75049142Y-74981695D01*
X75049142Y-74981695D02*
X75049142Y-75124552D01*
X75049142Y-75124552D02*
X75001523Y-75219790D01*
X75001523Y-75219790D02*
X74953904Y-75267409D01*
X74953904Y-75267409D02*
X74858666Y-75315028D01*
X74858666Y-75315028D02*
X74477714Y-75315028D01*
X76001523Y-75791219D02*
X75430095Y-75791219D01*
X75715809Y-75791219D02*
X75715809Y-74791219D01*
X75715809Y-74791219D02*
X75620571Y-74934076D01*
X75620571Y-74934076D02*
X75525333Y-75029314D01*
X75525333Y-75029314D02*
X75430095Y-75076933D01*
X76334857Y-74791219D02*
X77001523Y-74791219D01*
X77001523Y-74791219D02*
X76572952Y-75791219D01*
X79257142Y-77204819D02*
X78923809Y-76728628D01*
X78685714Y-77204819D02*
X78685714Y-76204819D01*
X78685714Y-76204819D02*
X79066666Y-76204819D01*
X79066666Y-76204819D02*
X79161904Y-76252438D01*
X79161904Y-76252438D02*
X79209523Y-76300057D01*
X79209523Y-76300057D02*
X79257142Y-76395295D01*
X79257142Y-76395295D02*
X79257142Y-76538152D01*
X79257142Y-76538152D02*
X79209523Y-76633390D01*
X79209523Y-76633390D02*
X79161904Y-76681009D01*
X79161904Y-76681009D02*
X79066666Y-76728628D01*
X79066666Y-76728628D02*
X78685714Y-76728628D01*
X80209523Y-77204819D02*
X79638095Y-77204819D01*
X79923809Y-77204819D02*
X79923809Y-76204819D01*
X79923809Y-76204819D02*
X79828571Y-76347676D01*
X79828571Y-76347676D02*
X79733333Y-76442914D01*
X79733333Y-76442914D02*
X79638095Y-76490533D01*
X80780952Y-76633390D02*
X80685714Y-76585771D01*
X80685714Y-76585771D02*
X80638095Y-76538152D01*
X80638095Y-76538152D02*
X80590476Y-76442914D01*
X80590476Y-76442914D02*
X80590476Y-76395295D01*
X80590476Y-76395295D02*
X80638095Y-76300057D01*
X80638095Y-76300057D02*
X80685714Y-76252438D01*
X80685714Y-76252438D02*
X80780952Y-76204819D01*
X80780952Y-76204819D02*
X80971428Y-76204819D01*
X80971428Y-76204819D02*
X81066666Y-76252438D01*
X81066666Y-76252438D02*
X81114285Y-76300057D01*
X81114285Y-76300057D02*
X81161904Y-76395295D01*
X81161904Y-76395295D02*
X81161904Y-76442914D01*
X81161904Y-76442914D02*
X81114285Y-76538152D01*
X81114285Y-76538152D02*
X81066666Y-76585771D01*
X81066666Y-76585771D02*
X80971428Y-76633390D01*
X80971428Y-76633390D02*
X80780952Y-76633390D01*
X80780952Y-76633390D02*
X80685714Y-76681009D01*
X80685714Y-76681009D02*
X80638095Y-76728628D01*
X80638095Y-76728628D02*
X80590476Y-76823866D01*
X80590476Y-76823866D02*
X80590476Y-77014342D01*
X80590476Y-77014342D02*
X80638095Y-77109580D01*
X80638095Y-77109580D02*
X80685714Y-77157200D01*
X80685714Y-77157200D02*
X80780952Y-77204819D01*
X80780952Y-77204819D02*
X80971428Y-77204819D01*
X80971428Y-77204819D02*
X81066666Y-77157200D01*
X81066666Y-77157200D02*
X81114285Y-77109580D01*
X81114285Y-77109580D02*
X81161904Y-77014342D01*
X81161904Y-77014342D02*
X81161904Y-76823866D01*
X81161904Y-76823866D02*
X81114285Y-76728628D01*
X81114285Y-76728628D02*
X81066666Y-76681009D01*
X81066666Y-76681009D02*
X80971428Y-76633390D01*
X69957142Y-51454819D02*
X69623809Y-50978628D01*
X69385714Y-51454819D02*
X69385714Y-50454819D01*
X69385714Y-50454819D02*
X69766666Y-50454819D01*
X69766666Y-50454819D02*
X69861904Y-50502438D01*
X69861904Y-50502438D02*
X69909523Y-50550057D01*
X69909523Y-50550057D02*
X69957142Y-50645295D01*
X69957142Y-50645295D02*
X69957142Y-50788152D01*
X69957142Y-50788152D02*
X69909523Y-50883390D01*
X69909523Y-50883390D02*
X69861904Y-50931009D01*
X69861904Y-50931009D02*
X69766666Y-50978628D01*
X69766666Y-50978628D02*
X69385714Y-50978628D01*
X70909523Y-51454819D02*
X70338095Y-51454819D01*
X70623809Y-51454819D02*
X70623809Y-50454819D01*
X70623809Y-50454819D02*
X70528571Y-50597676D01*
X70528571Y-50597676D02*
X70433333Y-50692914D01*
X70433333Y-50692914D02*
X70338095Y-50740533D01*
X71385714Y-51454819D02*
X71576190Y-51454819D01*
X71576190Y-51454819D02*
X71671428Y-51407200D01*
X71671428Y-51407200D02*
X71719047Y-51359580D01*
X71719047Y-51359580D02*
X71814285Y-51216723D01*
X71814285Y-51216723D02*
X71861904Y-51026247D01*
X71861904Y-51026247D02*
X71861904Y-50645295D01*
X71861904Y-50645295D02*
X71814285Y-50550057D01*
X71814285Y-50550057D02*
X71766666Y-50502438D01*
X71766666Y-50502438D02*
X71671428Y-50454819D01*
X71671428Y-50454819D02*
X71480952Y-50454819D01*
X71480952Y-50454819D02*
X71385714Y-50502438D01*
X71385714Y-50502438D02*
X71338095Y-50550057D01*
X71338095Y-50550057D02*
X71290476Y-50645295D01*
X71290476Y-50645295D02*
X71290476Y-50883390D01*
X71290476Y-50883390D02*
X71338095Y-50978628D01*
X71338095Y-50978628D02*
X71385714Y-51026247D01*
X71385714Y-51026247D02*
X71480952Y-51073866D01*
X71480952Y-51073866D02*
X71671428Y-51073866D01*
X71671428Y-51073866D02*
X71766666Y-51026247D01*
X71766666Y-51026247D02*
X71814285Y-50978628D01*
X71814285Y-50978628D02*
X71861904Y-50883390D01*
X79394642Y-86354819D02*
X79061309Y-85878628D01*
X78823214Y-86354819D02*
X78823214Y-85354819D01*
X78823214Y-85354819D02*
X79204166Y-85354819D01*
X79204166Y-85354819D02*
X79299404Y-85402438D01*
X79299404Y-85402438D02*
X79347023Y-85450057D01*
X79347023Y-85450057D02*
X79394642Y-85545295D01*
X79394642Y-85545295D02*
X79394642Y-85688152D01*
X79394642Y-85688152D02*
X79347023Y-85783390D01*
X79347023Y-85783390D02*
X79299404Y-85831009D01*
X79299404Y-85831009D02*
X79204166Y-85878628D01*
X79204166Y-85878628D02*
X78823214Y-85878628D01*
X79775595Y-85450057D02*
X79823214Y-85402438D01*
X79823214Y-85402438D02*
X79918452Y-85354819D01*
X79918452Y-85354819D02*
X80156547Y-85354819D01*
X80156547Y-85354819D02*
X80251785Y-85402438D01*
X80251785Y-85402438D02*
X80299404Y-85450057D01*
X80299404Y-85450057D02*
X80347023Y-85545295D01*
X80347023Y-85545295D02*
X80347023Y-85640533D01*
X80347023Y-85640533D02*
X80299404Y-85783390D01*
X80299404Y-85783390D02*
X79727976Y-86354819D01*
X79727976Y-86354819D02*
X80347023Y-86354819D01*
X80966071Y-85354819D02*
X81061309Y-85354819D01*
X81061309Y-85354819D02*
X81156547Y-85402438D01*
X81156547Y-85402438D02*
X81204166Y-85450057D01*
X81204166Y-85450057D02*
X81251785Y-85545295D01*
X81251785Y-85545295D02*
X81299404Y-85735771D01*
X81299404Y-85735771D02*
X81299404Y-85973866D01*
X81299404Y-85973866D02*
X81251785Y-86164342D01*
X81251785Y-86164342D02*
X81204166Y-86259580D01*
X81204166Y-86259580D02*
X81156547Y-86307200D01*
X81156547Y-86307200D02*
X81061309Y-86354819D01*
X81061309Y-86354819D02*
X80966071Y-86354819D01*
X80966071Y-86354819D02*
X80870833Y-86307200D01*
X80870833Y-86307200D02*
X80823214Y-86259580D01*
X80823214Y-86259580D02*
X80775595Y-86164342D01*
X80775595Y-86164342D02*
X80727976Y-85973866D01*
X80727976Y-85973866D02*
X80727976Y-85735771D01*
X80727976Y-85735771D02*
X80775595Y-85545295D01*
X80775595Y-85545295D02*
X80823214Y-85450057D01*
X80823214Y-85450057D02*
X80870833Y-85402438D01*
X80870833Y-85402438D02*
X80966071Y-85354819D01*
X75049142Y-86205219D02*
X74715809Y-85729028D01*
X74477714Y-86205219D02*
X74477714Y-85205219D01*
X74477714Y-85205219D02*
X74858666Y-85205219D01*
X74858666Y-85205219D02*
X74953904Y-85252838D01*
X74953904Y-85252838D02*
X75001523Y-85300457D01*
X75001523Y-85300457D02*
X75049142Y-85395695D01*
X75049142Y-85395695D02*
X75049142Y-85538552D01*
X75049142Y-85538552D02*
X75001523Y-85633790D01*
X75001523Y-85633790D02*
X74953904Y-85681409D01*
X74953904Y-85681409D02*
X74858666Y-85729028D01*
X74858666Y-85729028D02*
X74477714Y-85729028D01*
X75430095Y-85300457D02*
X75477714Y-85252838D01*
X75477714Y-85252838D02*
X75572952Y-85205219D01*
X75572952Y-85205219D02*
X75811047Y-85205219D01*
X75811047Y-85205219D02*
X75906285Y-85252838D01*
X75906285Y-85252838D02*
X75953904Y-85300457D01*
X75953904Y-85300457D02*
X76001523Y-85395695D01*
X76001523Y-85395695D02*
X76001523Y-85490933D01*
X76001523Y-85490933D02*
X75953904Y-85633790D01*
X75953904Y-85633790D02*
X75382476Y-86205219D01*
X75382476Y-86205219D02*
X76001523Y-86205219D01*
X76382476Y-85300457D02*
X76430095Y-85252838D01*
X76430095Y-85252838D02*
X76525333Y-85205219D01*
X76525333Y-85205219D02*
X76763428Y-85205219D01*
X76763428Y-85205219D02*
X76858666Y-85252838D01*
X76858666Y-85252838D02*
X76906285Y-85300457D01*
X76906285Y-85300457D02*
X76953904Y-85395695D01*
X76953904Y-85395695D02*
X76953904Y-85490933D01*
X76953904Y-85490933D02*
X76906285Y-85633790D01*
X76906285Y-85633790D02*
X76334857Y-86205219D01*
X76334857Y-86205219D02*
X76953904Y-86205219D01*
X75057142Y-69054819D02*
X74723809Y-68578628D01*
X74485714Y-69054819D02*
X74485714Y-68054819D01*
X74485714Y-68054819D02*
X74866666Y-68054819D01*
X74866666Y-68054819D02*
X74961904Y-68102438D01*
X74961904Y-68102438D02*
X75009523Y-68150057D01*
X75009523Y-68150057D02*
X75057142Y-68245295D01*
X75057142Y-68245295D02*
X75057142Y-68388152D01*
X75057142Y-68388152D02*
X75009523Y-68483390D01*
X75009523Y-68483390D02*
X74961904Y-68531009D01*
X74961904Y-68531009D02*
X74866666Y-68578628D01*
X74866666Y-68578628D02*
X74485714Y-68578628D01*
X75438095Y-68150057D02*
X75485714Y-68102438D01*
X75485714Y-68102438D02*
X75580952Y-68054819D01*
X75580952Y-68054819D02*
X75819047Y-68054819D01*
X75819047Y-68054819D02*
X75914285Y-68102438D01*
X75914285Y-68102438D02*
X75961904Y-68150057D01*
X75961904Y-68150057D02*
X76009523Y-68245295D01*
X76009523Y-68245295D02*
X76009523Y-68340533D01*
X76009523Y-68340533D02*
X75961904Y-68483390D01*
X75961904Y-68483390D02*
X75390476Y-69054819D01*
X75390476Y-69054819D02*
X76009523Y-69054819D01*
X76342857Y-68054819D02*
X76961904Y-68054819D01*
X76961904Y-68054819D02*
X76628571Y-68435771D01*
X76628571Y-68435771D02*
X76771428Y-68435771D01*
X76771428Y-68435771D02*
X76866666Y-68483390D01*
X76866666Y-68483390D02*
X76914285Y-68531009D01*
X76914285Y-68531009D02*
X76961904Y-68626247D01*
X76961904Y-68626247D02*
X76961904Y-68864342D01*
X76961904Y-68864342D02*
X76914285Y-68959580D01*
X76914285Y-68959580D02*
X76866666Y-69007200D01*
X76866666Y-69007200D02*
X76771428Y-69054819D01*
X76771428Y-69054819D02*
X76485714Y-69054819D01*
X76485714Y-69054819D02*
X76390476Y-69007200D01*
X76390476Y-69007200D02*
X76342857Y-68959580D01*
X64757142Y-51454819D02*
X64423809Y-50978628D01*
X64185714Y-51454819D02*
X64185714Y-50454819D01*
X64185714Y-50454819D02*
X64566666Y-50454819D01*
X64566666Y-50454819D02*
X64661904Y-50502438D01*
X64661904Y-50502438D02*
X64709523Y-50550057D01*
X64709523Y-50550057D02*
X64757142Y-50645295D01*
X64757142Y-50645295D02*
X64757142Y-50788152D01*
X64757142Y-50788152D02*
X64709523Y-50883390D01*
X64709523Y-50883390D02*
X64661904Y-50931009D01*
X64661904Y-50931009D02*
X64566666Y-50978628D01*
X64566666Y-50978628D02*
X64185714Y-50978628D01*
X65138095Y-50550057D02*
X65185714Y-50502438D01*
X65185714Y-50502438D02*
X65280952Y-50454819D01*
X65280952Y-50454819D02*
X65519047Y-50454819D01*
X65519047Y-50454819D02*
X65614285Y-50502438D01*
X65614285Y-50502438D02*
X65661904Y-50550057D01*
X65661904Y-50550057D02*
X65709523Y-50645295D01*
X65709523Y-50645295D02*
X65709523Y-50740533D01*
X65709523Y-50740533D02*
X65661904Y-50883390D01*
X65661904Y-50883390D02*
X65090476Y-51454819D01*
X65090476Y-51454819D02*
X65709523Y-51454819D01*
X66566666Y-50788152D02*
X66566666Y-51454819D01*
X66328571Y-50407200D02*
X66090476Y-51121485D01*
X66090476Y-51121485D02*
X66709523Y-51121485D01*
X59657142Y-51554819D02*
X59323809Y-51078628D01*
X59085714Y-51554819D02*
X59085714Y-50554819D01*
X59085714Y-50554819D02*
X59466666Y-50554819D01*
X59466666Y-50554819D02*
X59561904Y-50602438D01*
X59561904Y-50602438D02*
X59609523Y-50650057D01*
X59609523Y-50650057D02*
X59657142Y-50745295D01*
X59657142Y-50745295D02*
X59657142Y-50888152D01*
X59657142Y-50888152D02*
X59609523Y-50983390D01*
X59609523Y-50983390D02*
X59561904Y-51031009D01*
X59561904Y-51031009D02*
X59466666Y-51078628D01*
X59466666Y-51078628D02*
X59085714Y-51078628D01*
X60038095Y-50650057D02*
X60085714Y-50602438D01*
X60085714Y-50602438D02*
X60180952Y-50554819D01*
X60180952Y-50554819D02*
X60419047Y-50554819D01*
X60419047Y-50554819D02*
X60514285Y-50602438D01*
X60514285Y-50602438D02*
X60561904Y-50650057D01*
X60561904Y-50650057D02*
X60609523Y-50745295D01*
X60609523Y-50745295D02*
X60609523Y-50840533D01*
X60609523Y-50840533D02*
X60561904Y-50983390D01*
X60561904Y-50983390D02*
X59990476Y-51554819D01*
X59990476Y-51554819D02*
X60609523Y-51554819D01*
X61514285Y-50554819D02*
X61038095Y-50554819D01*
X61038095Y-50554819D02*
X60990476Y-51031009D01*
X60990476Y-51031009D02*
X61038095Y-50983390D01*
X61038095Y-50983390D02*
X61133333Y-50935771D01*
X61133333Y-50935771D02*
X61371428Y-50935771D01*
X61371428Y-50935771D02*
X61466666Y-50983390D01*
X61466666Y-50983390D02*
X61514285Y-51031009D01*
X61514285Y-51031009D02*
X61561904Y-51126247D01*
X61561904Y-51126247D02*
X61561904Y-51364342D01*
X61561904Y-51364342D02*
X61514285Y-51459580D01*
X61514285Y-51459580D02*
X61466666Y-51507200D01*
X61466666Y-51507200D02*
X61371428Y-51554819D01*
X61371428Y-51554819D02*
X61133333Y-51554819D01*
X61133333Y-51554819D02*
X61038095Y-51507200D01*
X61038095Y-51507200D02*
X60990476Y-51459580D01*
X56690476Y-114354819D02*
X57357142Y-115354819D01*
X57357142Y-114354819D02*
X56690476Y-115354819D01*
X58261904Y-115354819D02*
X57690476Y-115354819D01*
X57976190Y-115354819D02*
X57976190Y-114354819D01*
X57976190Y-114354819D02*
X57880952Y-114497676D01*
X57880952Y-114497676D02*
X57785714Y-114592914D01*
X57785714Y-114592914D02*
X57690476Y-114640533D01*
X65017142Y-121499580D02*
X64969523Y-121547200D01*
X64969523Y-121547200D02*
X64826666Y-121594819D01*
X64826666Y-121594819D02*
X64731428Y-121594819D01*
X64731428Y-121594819D02*
X64588571Y-121547200D01*
X64588571Y-121547200D02*
X64493333Y-121451961D01*
X64493333Y-121451961D02*
X64445714Y-121356723D01*
X64445714Y-121356723D02*
X64398095Y-121166247D01*
X64398095Y-121166247D02*
X64398095Y-121023390D01*
X64398095Y-121023390D02*
X64445714Y-120832914D01*
X64445714Y-120832914D02*
X64493333Y-120737676D01*
X64493333Y-120737676D02*
X64588571Y-120642438D01*
X64588571Y-120642438D02*
X64731428Y-120594819D01*
X64731428Y-120594819D02*
X64826666Y-120594819D01*
X64826666Y-120594819D02*
X64969523Y-120642438D01*
X64969523Y-120642438D02*
X65017142Y-120690057D01*
X65398095Y-120690057D02*
X65445714Y-120642438D01*
X65445714Y-120642438D02*
X65540952Y-120594819D01*
X65540952Y-120594819D02*
X65779047Y-120594819D01*
X65779047Y-120594819D02*
X65874285Y-120642438D01*
X65874285Y-120642438D02*
X65921904Y-120690057D01*
X65921904Y-120690057D02*
X65969523Y-120785295D01*
X65969523Y-120785295D02*
X65969523Y-120880533D01*
X65969523Y-120880533D02*
X65921904Y-121023390D01*
X65921904Y-121023390D02*
X65350476Y-121594819D01*
X65350476Y-121594819D02*
X65969523Y-121594819D01*
X66588571Y-120594819D02*
X66683809Y-120594819D01*
X66683809Y-120594819D02*
X66779047Y-120642438D01*
X66779047Y-120642438D02*
X66826666Y-120690057D01*
X66826666Y-120690057D02*
X66874285Y-120785295D01*
X66874285Y-120785295D02*
X66921904Y-120975771D01*
X66921904Y-120975771D02*
X66921904Y-121213866D01*
X66921904Y-121213866D02*
X66874285Y-121404342D01*
X66874285Y-121404342D02*
X66826666Y-121499580D01*
X66826666Y-121499580D02*
X66779047Y-121547200D01*
X66779047Y-121547200D02*
X66683809Y-121594819D01*
X66683809Y-121594819D02*
X66588571Y-121594819D01*
X66588571Y-121594819D02*
X66493333Y-121547200D01*
X66493333Y-121547200D02*
X66445714Y-121499580D01*
X66445714Y-121499580D02*
X66398095Y-121404342D01*
X66398095Y-121404342D02*
X66350476Y-121213866D01*
X66350476Y-121213866D02*
X66350476Y-120975771D01*
X66350476Y-120975771D02*
X66398095Y-120785295D01*
X66398095Y-120785295D02*
X66445714Y-120690057D01*
X66445714Y-120690057D02*
X66493333Y-120642438D01*
X66493333Y-120642438D02*
X66588571Y-120594819D01*
X101057142Y-55759580D02*
X101009523Y-55807200D01*
X101009523Y-55807200D02*
X100866666Y-55854819D01*
X100866666Y-55854819D02*
X100771428Y-55854819D01*
X100771428Y-55854819D02*
X100628571Y-55807200D01*
X100628571Y-55807200D02*
X100533333Y-55711961D01*
X100533333Y-55711961D02*
X100485714Y-55616723D01*
X100485714Y-55616723D02*
X100438095Y-55426247D01*
X100438095Y-55426247D02*
X100438095Y-55283390D01*
X100438095Y-55283390D02*
X100485714Y-55092914D01*
X100485714Y-55092914D02*
X100533333Y-54997676D01*
X100533333Y-54997676D02*
X100628571Y-54902438D01*
X100628571Y-54902438D02*
X100771428Y-54854819D01*
X100771428Y-54854819D02*
X100866666Y-54854819D01*
X100866666Y-54854819D02*
X101009523Y-54902438D01*
X101009523Y-54902438D02*
X101057142Y-54950057D01*
X101438095Y-54950057D02*
X101485714Y-54902438D01*
X101485714Y-54902438D02*
X101580952Y-54854819D01*
X101580952Y-54854819D02*
X101819047Y-54854819D01*
X101819047Y-54854819D02*
X101914285Y-54902438D01*
X101914285Y-54902438D02*
X101961904Y-54950057D01*
X101961904Y-54950057D02*
X102009523Y-55045295D01*
X102009523Y-55045295D02*
X102009523Y-55140533D01*
X102009523Y-55140533D02*
X101961904Y-55283390D01*
X101961904Y-55283390D02*
X101390476Y-55854819D01*
X101390476Y-55854819D02*
X102009523Y-55854819D01*
X102914285Y-54854819D02*
X102438095Y-54854819D01*
X102438095Y-54854819D02*
X102390476Y-55331009D01*
X102390476Y-55331009D02*
X102438095Y-55283390D01*
X102438095Y-55283390D02*
X102533333Y-55235771D01*
X102533333Y-55235771D02*
X102771428Y-55235771D01*
X102771428Y-55235771D02*
X102866666Y-55283390D01*
X102866666Y-55283390D02*
X102914285Y-55331009D01*
X102914285Y-55331009D02*
X102961904Y-55426247D01*
X102961904Y-55426247D02*
X102961904Y-55664342D01*
X102961904Y-55664342D02*
X102914285Y-55759580D01*
X102914285Y-55759580D02*
X102866666Y-55807200D01*
X102866666Y-55807200D02*
X102771428Y-55854819D01*
X102771428Y-55854819D02*
X102533333Y-55854819D01*
X102533333Y-55854819D02*
X102438095Y-55807200D01*
X102438095Y-55807200D02*
X102390476Y-55759580D01*
X98257142Y-73659580D02*
X98209523Y-73707200D01*
X98209523Y-73707200D02*
X98066666Y-73754819D01*
X98066666Y-73754819D02*
X97971428Y-73754819D01*
X97971428Y-73754819D02*
X97828571Y-73707200D01*
X97828571Y-73707200D02*
X97733333Y-73611961D01*
X97733333Y-73611961D02*
X97685714Y-73516723D01*
X97685714Y-73516723D02*
X97638095Y-73326247D01*
X97638095Y-73326247D02*
X97638095Y-73183390D01*
X97638095Y-73183390D02*
X97685714Y-72992914D01*
X97685714Y-72992914D02*
X97733333Y-72897676D01*
X97733333Y-72897676D02*
X97828571Y-72802438D01*
X97828571Y-72802438D02*
X97971428Y-72754819D01*
X97971428Y-72754819D02*
X98066666Y-72754819D01*
X98066666Y-72754819D02*
X98209523Y-72802438D01*
X98209523Y-72802438D02*
X98257142Y-72850057D01*
X98638095Y-72850057D02*
X98685714Y-72802438D01*
X98685714Y-72802438D02*
X98780952Y-72754819D01*
X98780952Y-72754819D02*
X99019047Y-72754819D01*
X99019047Y-72754819D02*
X99114285Y-72802438D01*
X99114285Y-72802438D02*
X99161904Y-72850057D01*
X99161904Y-72850057D02*
X99209523Y-72945295D01*
X99209523Y-72945295D02*
X99209523Y-73040533D01*
X99209523Y-73040533D02*
X99161904Y-73183390D01*
X99161904Y-73183390D02*
X98590476Y-73754819D01*
X98590476Y-73754819D02*
X99209523Y-73754819D01*
X99542857Y-72754819D02*
X100161904Y-72754819D01*
X100161904Y-72754819D02*
X99828571Y-73135771D01*
X99828571Y-73135771D02*
X99971428Y-73135771D01*
X99971428Y-73135771D02*
X100066666Y-73183390D01*
X100066666Y-73183390D02*
X100114285Y-73231009D01*
X100114285Y-73231009D02*
X100161904Y-73326247D01*
X100161904Y-73326247D02*
X100161904Y-73564342D01*
X100161904Y-73564342D02*
X100114285Y-73659580D01*
X100114285Y-73659580D02*
X100066666Y-73707200D01*
X100066666Y-73707200D02*
X99971428Y-73754819D01*
X99971428Y-73754819D02*
X99685714Y-73754819D01*
X99685714Y-73754819D02*
X99590476Y-73707200D01*
X99590476Y-73707200D02*
X99542857Y-73659580D01*
X51661905Y-54754819D02*
X51661905Y-53754819D01*
X52233333Y-54754819D02*
X51804762Y-54183390D01*
X52233333Y-53754819D02*
X51661905Y-54326247D01*
X52614286Y-53850057D02*
X52661905Y-53802438D01*
X52661905Y-53802438D02*
X52757143Y-53754819D01*
X52757143Y-53754819D02*
X52995238Y-53754819D01*
X52995238Y-53754819D02*
X53090476Y-53802438D01*
X53090476Y-53802438D02*
X53138095Y-53850057D01*
X53138095Y-53850057D02*
X53185714Y-53945295D01*
X53185714Y-53945295D02*
X53185714Y-54040533D01*
X53185714Y-54040533D02*
X53138095Y-54183390D01*
X53138095Y-54183390D02*
X52566667Y-54754819D01*
X52566667Y-54754819D02*
X53185714Y-54754819D01*
X91461905Y-57154819D02*
X91461905Y-56154819D01*
X92033333Y-57154819D02*
X91604762Y-56583390D01*
X92033333Y-56154819D02*
X91461905Y-56726247D01*
X92985714Y-57154819D02*
X92414286Y-57154819D01*
X92700000Y-57154819D02*
X92700000Y-56154819D01*
X92700000Y-56154819D02*
X92604762Y-56297676D01*
X92604762Y-56297676D02*
X92509524Y-56392914D01*
X92509524Y-56392914D02*
X92414286Y-56440533D01*
X57061905Y-54754819D02*
X57061905Y-53754819D01*
X57633333Y-54754819D02*
X57204762Y-54183390D01*
X57633333Y-53754819D02*
X57061905Y-54326247D01*
X58538095Y-53754819D02*
X58061905Y-53754819D01*
X58061905Y-53754819D02*
X58014286Y-54231009D01*
X58014286Y-54231009D02*
X58061905Y-54183390D01*
X58061905Y-54183390D02*
X58157143Y-54135771D01*
X58157143Y-54135771D02*
X58395238Y-54135771D01*
X58395238Y-54135771D02*
X58490476Y-54183390D01*
X58490476Y-54183390D02*
X58538095Y-54231009D01*
X58538095Y-54231009D02*
X58585714Y-54326247D01*
X58585714Y-54326247D02*
X58585714Y-54564342D01*
X58585714Y-54564342D02*
X58538095Y-54659580D01*
X58538095Y-54659580D02*
X58490476Y-54707200D01*
X58490476Y-54707200D02*
X58395238Y-54754819D01*
X58395238Y-54754819D02*
X58157143Y-54754819D01*
X58157143Y-54754819D02*
X58061905Y-54707200D01*
X58061905Y-54707200D02*
X58014286Y-54659580D01*
X67361905Y-54754819D02*
X67361905Y-53754819D01*
X67933333Y-54754819D02*
X67504762Y-54183390D01*
X67933333Y-53754819D02*
X67361905Y-54326247D01*
X68266667Y-53754819D02*
X68885714Y-53754819D01*
X68885714Y-53754819D02*
X68552381Y-54135771D01*
X68552381Y-54135771D02*
X68695238Y-54135771D01*
X68695238Y-54135771D02*
X68790476Y-54183390D01*
X68790476Y-54183390D02*
X68838095Y-54231009D01*
X68838095Y-54231009D02*
X68885714Y-54326247D01*
X68885714Y-54326247D02*
X68885714Y-54564342D01*
X68885714Y-54564342D02*
X68838095Y-54659580D01*
X68838095Y-54659580D02*
X68790476Y-54707200D01*
X68790476Y-54707200D02*
X68695238Y-54754819D01*
X68695238Y-54754819D02*
X68409524Y-54754819D01*
X68409524Y-54754819D02*
X68314286Y-54707200D01*
X68314286Y-54707200D02*
X68266667Y-54659580D01*
X62261905Y-54754819D02*
X62261905Y-53754819D01*
X62833333Y-54754819D02*
X62404762Y-54183390D01*
X62833333Y-53754819D02*
X62261905Y-54326247D01*
X63690476Y-54088152D02*
X63690476Y-54754819D01*
X63452381Y-53707200D02*
X63214286Y-54421485D01*
X63214286Y-54421485D02*
X63833333Y-54421485D01*
X79357142Y-73604819D02*
X79023809Y-73128628D01*
X78785714Y-73604819D02*
X78785714Y-72604819D01*
X78785714Y-72604819D02*
X79166666Y-72604819D01*
X79166666Y-72604819D02*
X79261904Y-72652438D01*
X79261904Y-72652438D02*
X79309523Y-72700057D01*
X79309523Y-72700057D02*
X79357142Y-72795295D01*
X79357142Y-72795295D02*
X79357142Y-72938152D01*
X79357142Y-72938152D02*
X79309523Y-73033390D01*
X79309523Y-73033390D02*
X79261904Y-73081009D01*
X79261904Y-73081009D02*
X79166666Y-73128628D01*
X79166666Y-73128628D02*
X78785714Y-73128628D01*
X79738095Y-72700057D02*
X79785714Y-72652438D01*
X79785714Y-72652438D02*
X79880952Y-72604819D01*
X79880952Y-72604819D02*
X80119047Y-72604819D01*
X80119047Y-72604819D02*
X80214285Y-72652438D01*
X80214285Y-72652438D02*
X80261904Y-72700057D01*
X80261904Y-72700057D02*
X80309523Y-72795295D01*
X80309523Y-72795295D02*
X80309523Y-72890533D01*
X80309523Y-72890533D02*
X80261904Y-73033390D01*
X80261904Y-73033390D02*
X79690476Y-73604819D01*
X79690476Y-73604819D02*
X80309523Y-73604819D01*
X81261904Y-73604819D02*
X80690476Y-73604819D01*
X80976190Y-73604819D02*
X80976190Y-72604819D01*
X80976190Y-72604819D02*
X80880952Y-72747676D01*
X80880952Y-72747676D02*
X80785714Y-72842914D01*
X80785714Y-72842914D02*
X80690476Y-72890533D01*
X79666666Y-53954819D02*
X79666666Y-54669104D01*
X79666666Y-54669104D02*
X79619047Y-54811961D01*
X79619047Y-54811961D02*
X79523809Y-54907200D01*
X79523809Y-54907200D02*
X79380952Y-54954819D01*
X79380952Y-54954819D02*
X79285714Y-54954819D01*
X80047619Y-53954819D02*
X80666666Y-53954819D01*
X80666666Y-53954819D02*
X80333333Y-54335771D01*
X80333333Y-54335771D02*
X80476190Y-54335771D01*
X80476190Y-54335771D02*
X80571428Y-54383390D01*
X80571428Y-54383390D02*
X80619047Y-54431009D01*
X80619047Y-54431009D02*
X80666666Y-54526247D01*
X80666666Y-54526247D02*
X80666666Y-54764342D01*
X80666666Y-54764342D02*
X80619047Y-54859580D01*
X80619047Y-54859580D02*
X80571428Y-54907200D01*
X80571428Y-54907200D02*
X80476190Y-54954819D01*
X80476190Y-54954819D02*
X80190476Y-54954819D01*
X80190476Y-54954819D02*
X80095238Y-54907200D01*
X80095238Y-54907200D02*
X80047619Y-54859580D01*
X103066666Y-119054819D02*
X103066666Y-119769104D01*
X103066666Y-119769104D02*
X103019047Y-119911961D01*
X103019047Y-119911961D02*
X102923809Y-120007200D01*
X102923809Y-120007200D02*
X102780952Y-120054819D01*
X102780952Y-120054819D02*
X102685714Y-120054819D01*
X104066666Y-120054819D02*
X103495238Y-120054819D01*
X103780952Y-120054819D02*
X103780952Y-119054819D01*
X103780952Y-119054819D02*
X103685714Y-119197676D01*
X103685714Y-119197676D02*
X103590476Y-119292914D01*
X103590476Y-119292914D02*
X103495238Y-119340533D01*
X88959580Y-112166666D02*
X89007200Y-112214285D01*
X89007200Y-112214285D02*
X89054819Y-112357142D01*
X89054819Y-112357142D02*
X89054819Y-112452380D01*
X89054819Y-112452380D02*
X89007200Y-112595237D01*
X89007200Y-112595237D02*
X88911961Y-112690475D01*
X88911961Y-112690475D02*
X88816723Y-112738094D01*
X88816723Y-112738094D02*
X88626247Y-112785713D01*
X88626247Y-112785713D02*
X88483390Y-112785713D01*
X88483390Y-112785713D02*
X88292914Y-112738094D01*
X88292914Y-112738094D02*
X88197676Y-112690475D01*
X88197676Y-112690475D02*
X88102438Y-112595237D01*
X88102438Y-112595237D02*
X88054819Y-112452380D01*
X88054819Y-112452380D02*
X88054819Y-112357142D01*
X88054819Y-112357142D02*
X88102438Y-112214285D01*
X88102438Y-112214285D02*
X88150057Y-112166666D01*
X88054819Y-111833332D02*
X88054819Y-111214285D01*
X88054819Y-111214285D02*
X88435771Y-111547618D01*
X88435771Y-111547618D02*
X88435771Y-111404761D01*
X88435771Y-111404761D02*
X88483390Y-111309523D01*
X88483390Y-111309523D02*
X88531009Y-111261904D01*
X88531009Y-111261904D02*
X88626247Y-111214285D01*
X88626247Y-111214285D02*
X88864342Y-111214285D01*
X88864342Y-111214285D02*
X88959580Y-111261904D01*
X88959580Y-111261904D02*
X89007200Y-111309523D01*
X89007200Y-111309523D02*
X89054819Y-111404761D01*
X89054819Y-111404761D02*
X89054819Y-111690475D01*
X89054819Y-111690475D02*
X89007200Y-111785713D01*
X89007200Y-111785713D02*
X88959580Y-111833332D01*
X94213152Y-113219047D02*
X94879819Y-113219047D01*
X93832200Y-113457142D02*
X94546485Y-113695237D01*
X94546485Y-113695237D02*
X94546485Y-113076190D01*
X93879819Y-112790475D02*
X93879819Y-112123809D01*
X93879819Y-112123809D02*
X94879819Y-112552380D01*
X94213152Y-110980951D02*
X95213152Y-110980951D01*
X94736961Y-110504761D02*
X94832200Y-110457142D01*
X94832200Y-110457142D02*
X94879819Y-110361904D01*
X94736961Y-110980951D02*
X94832200Y-110933332D01*
X94832200Y-110933332D02*
X94879819Y-110838094D01*
X94879819Y-110838094D02*
X94879819Y-110647618D01*
X94879819Y-110647618D02*
X94832200Y-110552380D01*
X94832200Y-110552380D02*
X94736961Y-110504761D01*
X94736961Y-110504761D02*
X94213152Y-110504761D01*
X94356009Y-109599999D02*
X94356009Y-109933332D01*
X94879819Y-109933332D02*
X93879819Y-109933332D01*
X93879819Y-109933332D02*
X93879819Y-109457142D01*
X59071905Y-125904819D02*
X59071905Y-124904819D01*
X59071905Y-124904819D02*
X59452857Y-124904819D01*
X59452857Y-124904819D02*
X59548095Y-124952438D01*
X59548095Y-124952438D02*
X59595714Y-125000057D01*
X59595714Y-125000057D02*
X59643333Y-125095295D01*
X59643333Y-125095295D02*
X59643333Y-125238152D01*
X59643333Y-125238152D02*
X59595714Y-125333390D01*
X59595714Y-125333390D02*
X59548095Y-125381009D01*
X59548095Y-125381009D02*
X59452857Y-125428628D01*
X59452857Y-125428628D02*
X59071905Y-125428628D01*
X60595714Y-125904819D02*
X60024286Y-125904819D01*
X60310000Y-125904819D02*
X60310000Y-124904819D01*
X60310000Y-124904819D02*
X60214762Y-125047676D01*
X60214762Y-125047676D02*
X60119524Y-125142914D01*
X60119524Y-125142914D02*
X60024286Y-125190533D01*
X73383333Y-116854819D02*
X73050000Y-116378628D01*
X72811905Y-116854819D02*
X72811905Y-115854819D01*
X72811905Y-115854819D02*
X73192857Y-115854819D01*
X73192857Y-115854819D02*
X73288095Y-115902438D01*
X73288095Y-115902438D02*
X73335714Y-115950057D01*
X73335714Y-115950057D02*
X73383333Y-116045295D01*
X73383333Y-116045295D02*
X73383333Y-116188152D01*
X73383333Y-116188152D02*
X73335714Y-116283390D01*
X73335714Y-116283390D02*
X73288095Y-116331009D01*
X73288095Y-116331009D02*
X73192857Y-116378628D01*
X73192857Y-116378628D02*
X72811905Y-116378628D01*
X74335714Y-116854819D02*
X73764286Y-116854819D01*
X74050000Y-116854819D02*
X74050000Y-115854819D01*
X74050000Y-115854819D02*
X73954762Y-115997676D01*
X73954762Y-115997676D02*
X73859524Y-116092914D01*
X73859524Y-116092914D02*
X73764286Y-116140533D01*
X79330886Y-108484921D02*
X79330886Y-109294444D01*
X79330886Y-109294444D02*
X79378505Y-109389682D01*
X79378505Y-109389682D02*
X79426124Y-109437302D01*
X79426124Y-109437302D02*
X79521362Y-109484921D01*
X79521362Y-109484921D02*
X79711838Y-109484921D01*
X79711838Y-109484921D02*
X79807076Y-109437302D01*
X79807076Y-109437302D02*
X79854695Y-109389682D01*
X79854695Y-109389682D02*
X79902314Y-109294444D01*
X79902314Y-109294444D02*
X79902314Y-108484921D01*
X80330886Y-108580159D02*
X80378505Y-108532540D01*
X80378505Y-108532540D02*
X80473743Y-108484921D01*
X80473743Y-108484921D02*
X80711838Y-108484921D01*
X80711838Y-108484921D02*
X80807076Y-108532540D01*
X80807076Y-108532540D02*
X80854695Y-108580159D01*
X80854695Y-108580159D02*
X80902314Y-108675397D01*
X80902314Y-108675397D02*
X80902314Y-108770635D01*
X80902314Y-108770635D02*
X80854695Y-108913492D01*
X80854695Y-108913492D02*
X80283267Y-109484921D01*
X80283267Y-109484921D02*
X80902314Y-109484921D01*
X86033333Y-117309580D02*
X85985714Y-117357200D01*
X85985714Y-117357200D02*
X85842857Y-117404819D01*
X85842857Y-117404819D02*
X85747619Y-117404819D01*
X85747619Y-117404819D02*
X85604762Y-117357200D01*
X85604762Y-117357200D02*
X85509524Y-117261961D01*
X85509524Y-117261961D02*
X85461905Y-117166723D01*
X85461905Y-117166723D02*
X85414286Y-116976247D01*
X85414286Y-116976247D02*
X85414286Y-116833390D01*
X85414286Y-116833390D02*
X85461905Y-116642914D01*
X85461905Y-116642914D02*
X85509524Y-116547676D01*
X85509524Y-116547676D02*
X85604762Y-116452438D01*
X85604762Y-116452438D02*
X85747619Y-116404819D01*
X85747619Y-116404819D02*
X85842857Y-116404819D01*
X85842857Y-116404819D02*
X85985714Y-116452438D01*
X85985714Y-116452438D02*
X86033333Y-116500057D01*
X86890476Y-116738152D02*
X86890476Y-117404819D01*
X86652381Y-116357200D02*
X86414286Y-117071485D01*
X86414286Y-117071485D02*
X87033333Y-117071485D01*
X86083333Y-111109580D02*
X86035714Y-111157200D01*
X86035714Y-111157200D02*
X85892857Y-111204819D01*
X85892857Y-111204819D02*
X85797619Y-111204819D01*
X85797619Y-111204819D02*
X85654762Y-111157200D01*
X85654762Y-111157200D02*
X85559524Y-111061961D01*
X85559524Y-111061961D02*
X85511905Y-110966723D01*
X85511905Y-110966723D02*
X85464286Y-110776247D01*
X85464286Y-110776247D02*
X85464286Y-110633390D01*
X85464286Y-110633390D02*
X85511905Y-110442914D01*
X85511905Y-110442914D02*
X85559524Y-110347676D01*
X85559524Y-110347676D02*
X85654762Y-110252438D01*
X85654762Y-110252438D02*
X85797619Y-110204819D01*
X85797619Y-110204819D02*
X85892857Y-110204819D01*
X85892857Y-110204819D02*
X86035714Y-110252438D01*
X86035714Y-110252438D02*
X86083333Y-110300057D01*
X86416667Y-110204819D02*
X87083333Y-110204819D01*
X87083333Y-110204819D02*
X86654762Y-111204819D01*
X102833333Y-98059580D02*
X102785714Y-98107200D01*
X102785714Y-98107200D02*
X102642857Y-98154819D01*
X102642857Y-98154819D02*
X102547619Y-98154819D01*
X102547619Y-98154819D02*
X102404762Y-98107200D01*
X102404762Y-98107200D02*
X102309524Y-98011961D01*
X102309524Y-98011961D02*
X102261905Y-97916723D01*
X102261905Y-97916723D02*
X102214286Y-97726247D01*
X102214286Y-97726247D02*
X102214286Y-97583390D01*
X102214286Y-97583390D02*
X102261905Y-97392914D01*
X102261905Y-97392914D02*
X102309524Y-97297676D01*
X102309524Y-97297676D02*
X102404762Y-97202438D01*
X102404762Y-97202438D02*
X102547619Y-97154819D01*
X102547619Y-97154819D02*
X102642857Y-97154819D01*
X102642857Y-97154819D02*
X102785714Y-97202438D01*
X102785714Y-97202438D02*
X102833333Y-97250057D01*
X103690476Y-97154819D02*
X103500000Y-97154819D01*
X103500000Y-97154819D02*
X103404762Y-97202438D01*
X103404762Y-97202438D02*
X103357143Y-97250057D01*
X103357143Y-97250057D02*
X103261905Y-97392914D01*
X103261905Y-97392914D02*
X103214286Y-97583390D01*
X103214286Y-97583390D02*
X103214286Y-97964342D01*
X103214286Y-97964342D02*
X103261905Y-98059580D01*
X103261905Y-98059580D02*
X103309524Y-98107200D01*
X103309524Y-98107200D02*
X103404762Y-98154819D01*
X103404762Y-98154819D02*
X103595238Y-98154819D01*
X103595238Y-98154819D02*
X103690476Y-98107200D01*
X103690476Y-98107200D02*
X103738095Y-98059580D01*
X103738095Y-98059580D02*
X103785714Y-97964342D01*
X103785714Y-97964342D02*
X103785714Y-97726247D01*
X103785714Y-97726247D02*
X103738095Y-97631009D01*
X103738095Y-97631009D02*
X103690476Y-97583390D01*
X103690476Y-97583390D02*
X103595238Y-97535771D01*
X103595238Y-97535771D02*
X103404762Y-97535771D01*
X103404762Y-97535771D02*
X103309524Y-97583390D01*
X103309524Y-97583390D02*
X103261905Y-97631009D01*
X103261905Y-97631009D02*
X103214286Y-97726247D01*
X93433333Y-98059580D02*
X93385714Y-98107200D01*
X93385714Y-98107200D02*
X93242857Y-98154819D01*
X93242857Y-98154819D02*
X93147619Y-98154819D01*
X93147619Y-98154819D02*
X93004762Y-98107200D01*
X93004762Y-98107200D02*
X92909524Y-98011961D01*
X92909524Y-98011961D02*
X92861905Y-97916723D01*
X92861905Y-97916723D02*
X92814286Y-97726247D01*
X92814286Y-97726247D02*
X92814286Y-97583390D01*
X92814286Y-97583390D02*
X92861905Y-97392914D01*
X92861905Y-97392914D02*
X92909524Y-97297676D01*
X92909524Y-97297676D02*
X93004762Y-97202438D01*
X93004762Y-97202438D02*
X93147619Y-97154819D01*
X93147619Y-97154819D02*
X93242857Y-97154819D01*
X93242857Y-97154819D02*
X93385714Y-97202438D01*
X93385714Y-97202438D02*
X93433333Y-97250057D01*
X94338095Y-97154819D02*
X93861905Y-97154819D01*
X93861905Y-97154819D02*
X93814286Y-97631009D01*
X93814286Y-97631009D02*
X93861905Y-97583390D01*
X93861905Y-97583390D02*
X93957143Y-97535771D01*
X93957143Y-97535771D02*
X94195238Y-97535771D01*
X94195238Y-97535771D02*
X94290476Y-97583390D01*
X94290476Y-97583390D02*
X94338095Y-97631009D01*
X94338095Y-97631009D02*
X94385714Y-97726247D01*
X94385714Y-97726247D02*
X94385714Y-97964342D01*
X94385714Y-97964342D02*
X94338095Y-98059580D01*
X94338095Y-98059580D02*
X94290476Y-98107200D01*
X94290476Y-98107200D02*
X94195238Y-98154819D01*
X94195238Y-98154819D02*
X93957143Y-98154819D01*
X93957143Y-98154819D02*
X93861905Y-98107200D01*
X93861905Y-98107200D02*
X93814286Y-98059580D01*
X102033333Y-94454819D02*
X101700000Y-93978628D01*
X101461905Y-94454819D02*
X101461905Y-93454819D01*
X101461905Y-93454819D02*
X101842857Y-93454819D01*
X101842857Y-93454819D02*
X101938095Y-93502438D01*
X101938095Y-93502438D02*
X101985714Y-93550057D01*
X101985714Y-93550057D02*
X102033333Y-93645295D01*
X102033333Y-93645295D02*
X102033333Y-93788152D01*
X102033333Y-93788152D02*
X101985714Y-93883390D01*
X101985714Y-93883390D02*
X101938095Y-93931009D01*
X101938095Y-93931009D02*
X101842857Y-93978628D01*
X101842857Y-93978628D02*
X101461905Y-93978628D01*
X102366667Y-93454819D02*
X102985714Y-93454819D01*
X102985714Y-93454819D02*
X102652381Y-93835771D01*
X102652381Y-93835771D02*
X102795238Y-93835771D01*
X102795238Y-93835771D02*
X102890476Y-93883390D01*
X102890476Y-93883390D02*
X102938095Y-93931009D01*
X102938095Y-93931009D02*
X102985714Y-94026247D01*
X102985714Y-94026247D02*
X102985714Y-94264342D01*
X102985714Y-94264342D02*
X102938095Y-94359580D01*
X102938095Y-94359580D02*
X102890476Y-94407200D01*
X102890476Y-94407200D02*
X102795238Y-94454819D01*
X102795238Y-94454819D02*
X102509524Y-94454819D01*
X102509524Y-94454819D02*
X102414286Y-94407200D01*
X102414286Y-94407200D02*
X102366667Y-94359580D01*
X97233333Y-94454819D02*
X96900000Y-93978628D01*
X96661905Y-94454819D02*
X96661905Y-93454819D01*
X96661905Y-93454819D02*
X97042857Y-93454819D01*
X97042857Y-93454819D02*
X97138095Y-93502438D01*
X97138095Y-93502438D02*
X97185714Y-93550057D01*
X97185714Y-93550057D02*
X97233333Y-93645295D01*
X97233333Y-93645295D02*
X97233333Y-93788152D01*
X97233333Y-93788152D02*
X97185714Y-93883390D01*
X97185714Y-93883390D02*
X97138095Y-93931009D01*
X97138095Y-93931009D02*
X97042857Y-93978628D01*
X97042857Y-93978628D02*
X96661905Y-93978628D01*
X97614286Y-93550057D02*
X97661905Y-93502438D01*
X97661905Y-93502438D02*
X97757143Y-93454819D01*
X97757143Y-93454819D02*
X97995238Y-93454819D01*
X97995238Y-93454819D02*
X98090476Y-93502438D01*
X98090476Y-93502438D02*
X98138095Y-93550057D01*
X98138095Y-93550057D02*
X98185714Y-93645295D01*
X98185714Y-93645295D02*
X98185714Y-93740533D01*
X98185714Y-93740533D02*
X98138095Y-93883390D01*
X98138095Y-93883390D02*
X97566667Y-94454819D01*
X97566667Y-94454819D02*
X98185714Y-94454819D01*
X76466666Y-127031009D02*
X76133333Y-127031009D01*
X76133333Y-127554819D02*
X76133333Y-126554819D01*
X76133333Y-126554819D02*
X76609523Y-126554819D01*
X77323809Y-127031009D02*
X77466666Y-127078628D01*
X77466666Y-127078628D02*
X77514285Y-127126247D01*
X77514285Y-127126247D02*
X77561904Y-127221485D01*
X77561904Y-127221485D02*
X77561904Y-127364342D01*
X77561904Y-127364342D02*
X77514285Y-127459580D01*
X77514285Y-127459580D02*
X77466666Y-127507200D01*
X77466666Y-127507200D02*
X77371428Y-127554819D01*
X77371428Y-127554819D02*
X76990476Y-127554819D01*
X76990476Y-127554819D02*
X76990476Y-126554819D01*
X76990476Y-126554819D02*
X77323809Y-126554819D01*
X77323809Y-126554819D02*
X77419047Y-126602438D01*
X77419047Y-126602438D02*
X77466666Y-126650057D01*
X77466666Y-126650057D02*
X77514285Y-126745295D01*
X77514285Y-126745295D02*
X77514285Y-126840533D01*
X77514285Y-126840533D02*
X77466666Y-126935771D01*
X77466666Y-126935771D02*
X77419047Y-126983390D01*
X77419047Y-126983390D02*
X77323809Y-127031009D01*
X77323809Y-127031009D02*
X76990476Y-127031009D01*
X78514285Y-127554819D02*
X77942857Y-127554819D01*
X78228571Y-127554819D02*
X78228571Y-126554819D01*
X78228571Y-126554819D02*
X78133333Y-126697676D01*
X78133333Y-126697676D02*
X78038095Y-126792914D01*
X78038095Y-126792914D02*
X77942857Y-126840533D01*
X71957142Y-124009580D02*
X71909523Y-124057200D01*
X71909523Y-124057200D02*
X71766666Y-124104819D01*
X71766666Y-124104819D02*
X71671428Y-124104819D01*
X71671428Y-124104819D02*
X71528571Y-124057200D01*
X71528571Y-124057200D02*
X71433333Y-123961961D01*
X71433333Y-123961961D02*
X71385714Y-123866723D01*
X71385714Y-123866723D02*
X71338095Y-123676247D01*
X71338095Y-123676247D02*
X71338095Y-123533390D01*
X71338095Y-123533390D02*
X71385714Y-123342914D01*
X71385714Y-123342914D02*
X71433333Y-123247676D01*
X71433333Y-123247676D02*
X71528571Y-123152438D01*
X71528571Y-123152438D02*
X71671428Y-123104819D01*
X71671428Y-123104819D02*
X71766666Y-123104819D01*
X71766666Y-123104819D02*
X71909523Y-123152438D01*
X71909523Y-123152438D02*
X71957142Y-123200057D01*
X72290476Y-123104819D02*
X72909523Y-123104819D01*
X72909523Y-123104819D02*
X72576190Y-123485771D01*
X72576190Y-123485771D02*
X72719047Y-123485771D01*
X72719047Y-123485771D02*
X72814285Y-123533390D01*
X72814285Y-123533390D02*
X72861904Y-123581009D01*
X72861904Y-123581009D02*
X72909523Y-123676247D01*
X72909523Y-123676247D02*
X72909523Y-123914342D01*
X72909523Y-123914342D02*
X72861904Y-124009580D01*
X72861904Y-124009580D02*
X72814285Y-124057200D01*
X72814285Y-124057200D02*
X72719047Y-124104819D01*
X72719047Y-124104819D02*
X72433333Y-124104819D01*
X72433333Y-124104819D02*
X72338095Y-124057200D01*
X72338095Y-124057200D02*
X72290476Y-124009580D01*
X73385714Y-124104819D02*
X73576190Y-124104819D01*
X73576190Y-124104819D02*
X73671428Y-124057200D01*
X73671428Y-124057200D02*
X73719047Y-124009580D01*
X73719047Y-124009580D02*
X73814285Y-123866723D01*
X73814285Y-123866723D02*
X73861904Y-123676247D01*
X73861904Y-123676247D02*
X73861904Y-123295295D01*
X73861904Y-123295295D02*
X73814285Y-123200057D01*
X73814285Y-123200057D02*
X73766666Y-123152438D01*
X73766666Y-123152438D02*
X73671428Y-123104819D01*
X73671428Y-123104819D02*
X73480952Y-123104819D01*
X73480952Y-123104819D02*
X73385714Y-123152438D01*
X73385714Y-123152438D02*
X73338095Y-123200057D01*
X73338095Y-123200057D02*
X73290476Y-123295295D01*
X73290476Y-123295295D02*
X73290476Y-123533390D01*
X73290476Y-123533390D02*
X73338095Y-123628628D01*
X73338095Y-123628628D02*
X73385714Y-123676247D01*
X73385714Y-123676247D02*
X73480952Y-123723866D01*
X73480952Y-123723866D02*
X73671428Y-123723866D01*
X73671428Y-123723866D02*
X73766666Y-123676247D01*
X73766666Y-123676247D02*
X73814285Y-123628628D01*
X73814285Y-123628628D02*
X73861904Y-123533390D01*
X72933333Y-127369580D02*
X72885714Y-127417200D01*
X72885714Y-127417200D02*
X72742857Y-127464819D01*
X72742857Y-127464819D02*
X72647619Y-127464819D01*
X72647619Y-127464819D02*
X72504762Y-127417200D01*
X72504762Y-127417200D02*
X72409524Y-127321961D01*
X72409524Y-127321961D02*
X72361905Y-127226723D01*
X72361905Y-127226723D02*
X72314286Y-127036247D01*
X72314286Y-127036247D02*
X72314286Y-126893390D01*
X72314286Y-126893390D02*
X72361905Y-126702914D01*
X72361905Y-126702914D02*
X72409524Y-126607676D01*
X72409524Y-126607676D02*
X72504762Y-126512438D01*
X72504762Y-126512438D02*
X72647619Y-126464819D01*
X72647619Y-126464819D02*
X72742857Y-126464819D01*
X72742857Y-126464819D02*
X72885714Y-126512438D01*
X72885714Y-126512438D02*
X72933333Y-126560057D01*
X73314286Y-126560057D02*
X73361905Y-126512438D01*
X73361905Y-126512438D02*
X73457143Y-126464819D01*
X73457143Y-126464819D02*
X73695238Y-126464819D01*
X73695238Y-126464819D02*
X73790476Y-126512438D01*
X73790476Y-126512438D02*
X73838095Y-126560057D01*
X73838095Y-126560057D02*
X73885714Y-126655295D01*
X73885714Y-126655295D02*
X73885714Y-126750533D01*
X73885714Y-126750533D02*
X73838095Y-126893390D01*
X73838095Y-126893390D02*
X73266667Y-127464819D01*
X73266667Y-127464819D02*
X73885714Y-127464819D01*
X77133333Y-124009580D02*
X77085714Y-124057200D01*
X77085714Y-124057200D02*
X76942857Y-124104819D01*
X76942857Y-124104819D02*
X76847619Y-124104819D01*
X76847619Y-124104819D02*
X76704762Y-124057200D01*
X76704762Y-124057200D02*
X76609524Y-123961961D01*
X76609524Y-123961961D02*
X76561905Y-123866723D01*
X76561905Y-123866723D02*
X76514286Y-123676247D01*
X76514286Y-123676247D02*
X76514286Y-123533390D01*
X76514286Y-123533390D02*
X76561905Y-123342914D01*
X76561905Y-123342914D02*
X76609524Y-123247676D01*
X76609524Y-123247676D02*
X76704762Y-123152438D01*
X76704762Y-123152438D02*
X76847619Y-123104819D01*
X76847619Y-123104819D02*
X76942857Y-123104819D01*
X76942857Y-123104819D02*
X77085714Y-123152438D01*
X77085714Y-123152438D02*
X77133333Y-123200057D01*
X78085714Y-124104819D02*
X77514286Y-124104819D01*
X77800000Y-124104819D02*
X77800000Y-123104819D01*
X77800000Y-123104819D02*
X77704762Y-123247676D01*
X77704762Y-123247676D02*
X77609524Y-123342914D01*
X77609524Y-123342914D02*
X77514286Y-123390533D01*
X64058895Y-70828819D02*
X64058895Y-71638342D01*
X64058895Y-71638342D02*
X64106514Y-71733580D01*
X64106514Y-71733580D02*
X64154133Y-71781200D01*
X64154133Y-71781200D02*
X64249371Y-71828819D01*
X64249371Y-71828819D02*
X64439847Y-71828819D01*
X64439847Y-71828819D02*
X64535085Y-71781200D01*
X64535085Y-71781200D02*
X64582704Y-71733580D01*
X64582704Y-71733580D02*
X64630323Y-71638342D01*
X64630323Y-71638342D02*
X64630323Y-70828819D01*
X65249371Y-71257390D02*
X65154133Y-71209771D01*
X65154133Y-71209771D02*
X65106514Y-71162152D01*
X65106514Y-71162152D02*
X65058895Y-71066914D01*
X65058895Y-71066914D02*
X65058895Y-71019295D01*
X65058895Y-71019295D02*
X65106514Y-70924057D01*
X65106514Y-70924057D02*
X65154133Y-70876438D01*
X65154133Y-70876438D02*
X65249371Y-70828819D01*
X65249371Y-70828819D02*
X65439847Y-70828819D01*
X65439847Y-70828819D02*
X65535085Y-70876438D01*
X65535085Y-70876438D02*
X65582704Y-70924057D01*
X65582704Y-70924057D02*
X65630323Y-71019295D01*
X65630323Y-71019295D02*
X65630323Y-71066914D01*
X65630323Y-71066914D02*
X65582704Y-71162152D01*
X65582704Y-71162152D02*
X65535085Y-71209771D01*
X65535085Y-71209771D02*
X65439847Y-71257390D01*
X65439847Y-71257390D02*
X65249371Y-71257390D01*
X65249371Y-71257390D02*
X65154133Y-71305009D01*
X65154133Y-71305009D02*
X65106514Y-71352628D01*
X65106514Y-71352628D02*
X65058895Y-71447866D01*
X65058895Y-71447866D02*
X65058895Y-71638342D01*
X65058895Y-71638342D02*
X65106514Y-71733580D01*
X65106514Y-71733580D02*
X65154133Y-71781200D01*
X65154133Y-71781200D02*
X65249371Y-71828819D01*
X65249371Y-71828819D02*
X65439847Y-71828819D01*
X65439847Y-71828819D02*
X65535085Y-71781200D01*
X65535085Y-71781200D02*
X65582704Y-71733580D01*
X65582704Y-71733580D02*
X65630323Y-71638342D01*
X65630323Y-71638342D02*
X65630323Y-71447866D01*
X65630323Y-71447866D02*
X65582704Y-71352628D01*
X65582704Y-71352628D02*
X65535085Y-71305009D01*
X65535085Y-71305009D02*
X65439847Y-71257390D01*
X56134095Y-70778019D02*
X56134095Y-71587542D01*
X56134095Y-71587542D02*
X56181714Y-71682780D01*
X56181714Y-71682780D02*
X56229333Y-71730400D01*
X56229333Y-71730400D02*
X56324571Y-71778019D01*
X56324571Y-71778019D02*
X56515047Y-71778019D01*
X56515047Y-71778019D02*
X56610285Y-71730400D01*
X56610285Y-71730400D02*
X56657904Y-71682780D01*
X56657904Y-71682780D02*
X56705523Y-71587542D01*
X56705523Y-71587542D02*
X56705523Y-70778019D01*
X57086476Y-70778019D02*
X57753142Y-70778019D01*
X57753142Y-70778019D02*
X57324571Y-71778019D01*
X82344023Y-99675128D02*
X82344023Y-100484651D01*
X82344023Y-100484651D02*
X82391642Y-100579889D01*
X82391642Y-100579889D02*
X82439261Y-100627509D01*
X82439261Y-100627509D02*
X82534499Y-100675128D01*
X82534499Y-100675128D02*
X82724975Y-100675128D01*
X82724975Y-100675128D02*
X82820213Y-100627509D01*
X82820213Y-100627509D02*
X82867832Y-100579889D01*
X82867832Y-100579889D02*
X82915451Y-100484651D01*
X82915451Y-100484651D02*
X82915451Y-99675128D01*
X83820213Y-99675128D02*
X83629737Y-99675128D01*
X83629737Y-99675128D02*
X83534499Y-99722747D01*
X83534499Y-99722747D02*
X83486880Y-99770366D01*
X83486880Y-99770366D02*
X83391642Y-99913223D01*
X83391642Y-99913223D02*
X83344023Y-100103699D01*
X83344023Y-100103699D02*
X83344023Y-100484651D01*
X83344023Y-100484651D02*
X83391642Y-100579889D01*
X83391642Y-100579889D02*
X83439261Y-100627509D01*
X83439261Y-100627509D02*
X83534499Y-100675128D01*
X83534499Y-100675128D02*
X83724975Y-100675128D01*
X83724975Y-100675128D02*
X83820213Y-100627509D01*
X83820213Y-100627509D02*
X83867832Y-100579889D01*
X83867832Y-100579889D02*
X83915451Y-100484651D01*
X83915451Y-100484651D02*
X83915451Y-100246556D01*
X83915451Y-100246556D02*
X83867832Y-100151318D01*
X83867832Y-100151318D02*
X83820213Y-100103699D01*
X83820213Y-100103699D02*
X83724975Y-100056080D01*
X83724975Y-100056080D02*
X83534499Y-100056080D01*
X83534499Y-100056080D02*
X83439261Y-100103699D01*
X83439261Y-100103699D02*
X83391642Y-100151318D01*
X83391642Y-100151318D02*
X83344023Y-100246556D01*
X78797305Y-92711119D02*
X78797305Y-93520642D01*
X78797305Y-93520642D02*
X78844924Y-93615880D01*
X78844924Y-93615880D02*
X78892543Y-93663500D01*
X78892543Y-93663500D02*
X78987781Y-93711119D01*
X78987781Y-93711119D02*
X79178257Y-93711119D01*
X79178257Y-93711119D02*
X79273495Y-93663500D01*
X79273495Y-93663500D02*
X79321114Y-93615880D01*
X79321114Y-93615880D02*
X79368733Y-93520642D01*
X79368733Y-93520642D02*
X79368733Y-92711119D01*
X80368733Y-93711119D02*
X79797305Y-93711119D01*
X80083019Y-93711119D02*
X80083019Y-92711119D01*
X80083019Y-92711119D02*
X79987781Y-92853976D01*
X79987781Y-92853976D02*
X79892543Y-92949214D01*
X79892543Y-92949214D02*
X79797305Y-92996833D01*
X80749686Y-92806357D02*
X80797305Y-92758738D01*
X80797305Y-92758738D02*
X80892543Y-92711119D01*
X80892543Y-92711119D02*
X81130638Y-92711119D01*
X81130638Y-92711119D02*
X81225876Y-92758738D01*
X81225876Y-92758738D02*
X81273495Y-92806357D01*
X81273495Y-92806357D02*
X81321114Y-92901595D01*
X81321114Y-92901595D02*
X81321114Y-92996833D01*
X81321114Y-92996833D02*
X81273495Y-93139690D01*
X81273495Y-93139690D02*
X80702067Y-93711119D01*
X80702067Y-93711119D02*
X81321114Y-93711119D01*
X60477495Y-105842719D02*
X60477495Y-106652242D01*
X60477495Y-106652242D02*
X60525114Y-106747480D01*
X60525114Y-106747480D02*
X60572733Y-106795100D01*
X60572733Y-106795100D02*
X60667971Y-106842719D01*
X60667971Y-106842719D02*
X60858447Y-106842719D01*
X60858447Y-106842719D02*
X60953685Y-106795100D01*
X60953685Y-106795100D02*
X61001304Y-106747480D01*
X61001304Y-106747480D02*
X61048923Y-106652242D01*
X61048923Y-106652242D02*
X61048923Y-105842719D01*
X61572733Y-106842719D02*
X61763209Y-106842719D01*
X61763209Y-106842719D02*
X61858447Y-106795100D01*
X61858447Y-106795100D02*
X61906066Y-106747480D01*
X61906066Y-106747480D02*
X62001304Y-106604623D01*
X62001304Y-106604623D02*
X62048923Y-106414147D01*
X62048923Y-106414147D02*
X62048923Y-106033195D01*
X62048923Y-106033195D02*
X62001304Y-105937957D01*
X62001304Y-105937957D02*
X61953685Y-105890338D01*
X61953685Y-105890338D02*
X61858447Y-105842719D01*
X61858447Y-105842719D02*
X61667971Y-105842719D01*
X61667971Y-105842719D02*
X61572733Y-105890338D01*
X61572733Y-105890338D02*
X61525114Y-105937957D01*
X61525114Y-105937957D02*
X61477495Y-106033195D01*
X61477495Y-106033195D02*
X61477495Y-106271290D01*
X61477495Y-106271290D02*
X61525114Y-106366528D01*
X61525114Y-106366528D02*
X61572733Y-106414147D01*
X61572733Y-106414147D02*
X61667971Y-106461766D01*
X61667971Y-106461766D02*
X61858447Y-106461766D01*
X61858447Y-106461766D02*
X61953685Y-106414147D01*
X61953685Y-106414147D02*
X62001304Y-106366528D01*
X62001304Y-106366528D02*
X62048923Y-106271290D01*
X96861905Y-85854819D02*
X96861905Y-86664342D01*
X96861905Y-86664342D02*
X96909524Y-86759580D01*
X96909524Y-86759580D02*
X96957143Y-86807200D01*
X96957143Y-86807200D02*
X97052381Y-86854819D01*
X97052381Y-86854819D02*
X97242857Y-86854819D01*
X97242857Y-86854819D02*
X97338095Y-86807200D01*
X97338095Y-86807200D02*
X97385714Y-86759580D01*
X97385714Y-86759580D02*
X97433333Y-86664342D01*
X97433333Y-86664342D02*
X97433333Y-85854819D01*
X98433333Y-86854819D02*
X97861905Y-86854819D01*
X98147619Y-86854819D02*
X98147619Y-85854819D01*
X98147619Y-85854819D02*
X98052381Y-85997676D01*
X98052381Y-85997676D02*
X97957143Y-86092914D01*
X97957143Y-86092914D02*
X97861905Y-86140533D01*
X99385714Y-86854819D02*
X98814286Y-86854819D01*
X99100000Y-86854819D02*
X99100000Y-85854819D01*
X99100000Y-85854819D02*
X99004762Y-85997676D01*
X99004762Y-85997676D02*
X98909524Y-86092914D01*
X98909524Y-86092914D02*
X98814286Y-86140533D01*
X85646666Y-123234819D02*
X85646666Y-123949104D01*
X85646666Y-123949104D02*
X85599047Y-124091961D01*
X85599047Y-124091961D02*
X85503809Y-124187200D01*
X85503809Y-124187200D02*
X85360952Y-124234819D01*
X85360952Y-124234819D02*
X85265714Y-124234819D01*
X86075238Y-123330057D02*
X86122857Y-123282438D01*
X86122857Y-123282438D02*
X86218095Y-123234819D01*
X86218095Y-123234819D02*
X86456190Y-123234819D01*
X86456190Y-123234819D02*
X86551428Y-123282438D01*
X86551428Y-123282438D02*
X86599047Y-123330057D01*
X86599047Y-123330057D02*
X86646666Y-123425295D01*
X86646666Y-123425295D02*
X86646666Y-123520533D01*
X86646666Y-123520533D02*
X86599047Y-123663390D01*
X86599047Y-123663390D02*
X86027619Y-124234819D01*
X86027619Y-124234819D02*
X86646666Y-124234819D01*
X74998342Y-80959580D02*
X74950723Y-81007200D01*
X74950723Y-81007200D02*
X74807866Y-81054819D01*
X74807866Y-81054819D02*
X74712628Y-81054819D01*
X74712628Y-81054819D02*
X74569771Y-81007200D01*
X74569771Y-81007200D02*
X74474533Y-80911961D01*
X74474533Y-80911961D02*
X74426914Y-80816723D01*
X74426914Y-80816723D02*
X74379295Y-80626247D01*
X74379295Y-80626247D02*
X74379295Y-80483390D01*
X74379295Y-80483390D02*
X74426914Y-80292914D01*
X74426914Y-80292914D02*
X74474533Y-80197676D01*
X74474533Y-80197676D02*
X74569771Y-80102438D01*
X74569771Y-80102438D02*
X74712628Y-80054819D01*
X74712628Y-80054819D02*
X74807866Y-80054819D01*
X74807866Y-80054819D02*
X74950723Y-80102438D01*
X74950723Y-80102438D02*
X74998342Y-80150057D01*
X75331676Y-80054819D02*
X75950723Y-80054819D01*
X75950723Y-80054819D02*
X75617390Y-80435771D01*
X75617390Y-80435771D02*
X75760247Y-80435771D01*
X75760247Y-80435771D02*
X75855485Y-80483390D01*
X75855485Y-80483390D02*
X75903104Y-80531009D01*
X75903104Y-80531009D02*
X75950723Y-80626247D01*
X75950723Y-80626247D02*
X75950723Y-80864342D01*
X75950723Y-80864342D02*
X75903104Y-80959580D01*
X75903104Y-80959580D02*
X75855485Y-81007200D01*
X75855485Y-81007200D02*
X75760247Y-81054819D01*
X75760247Y-81054819D02*
X75474533Y-81054819D01*
X75474533Y-81054819D02*
X75379295Y-81007200D01*
X75379295Y-81007200D02*
X75331676Y-80959580D01*
X76807866Y-80054819D02*
X76617390Y-80054819D01*
X76617390Y-80054819D02*
X76522152Y-80102438D01*
X76522152Y-80102438D02*
X76474533Y-80150057D01*
X76474533Y-80150057D02*
X76379295Y-80292914D01*
X76379295Y-80292914D02*
X76331676Y-80483390D01*
X76331676Y-80483390D02*
X76331676Y-80864342D01*
X76331676Y-80864342D02*
X76379295Y-80959580D01*
X76379295Y-80959580D02*
X76426914Y-81007200D01*
X76426914Y-81007200D02*
X76522152Y-81054819D01*
X76522152Y-81054819D02*
X76712628Y-81054819D01*
X76712628Y-81054819D02*
X76807866Y-81007200D01*
X76807866Y-81007200D02*
X76855485Y-80959580D01*
X76855485Y-80959580D02*
X76903104Y-80864342D01*
X76903104Y-80864342D02*
X76903104Y-80626247D01*
X76903104Y-80626247D02*
X76855485Y-80531009D01*
X76855485Y-80531009D02*
X76807866Y-80483390D01*
X76807866Y-80483390D02*
X76712628Y-80435771D01*
X76712628Y-80435771D02*
X76522152Y-80435771D01*
X76522152Y-80435771D02*
X76426914Y-80483390D01*
X76426914Y-80483390D02*
X76379295Y-80531009D01*
X76379295Y-80531009D02*
X76331676Y-80626247D01*
X53265434Y-121410181D02*
X53217815Y-121457801D01*
X53217815Y-121457801D02*
X53074958Y-121505420D01*
X53074958Y-121505420D02*
X52979720Y-121505420D01*
X52979720Y-121505420D02*
X52836863Y-121457801D01*
X52836863Y-121457801D02*
X52741625Y-121362562D01*
X52741625Y-121362562D02*
X52694006Y-121267324D01*
X52694006Y-121267324D02*
X52646387Y-121076848D01*
X52646387Y-121076848D02*
X52646387Y-120933991D01*
X52646387Y-120933991D02*
X52694006Y-120743515D01*
X52694006Y-120743515D02*
X52741625Y-120648277D01*
X52741625Y-120648277D02*
X52836863Y-120553039D01*
X52836863Y-120553039D02*
X52979720Y-120505420D01*
X52979720Y-120505420D02*
X53074958Y-120505420D01*
X53074958Y-120505420D02*
X53217815Y-120553039D01*
X53217815Y-120553039D02*
X53265434Y-120600658D01*
X54217815Y-121505420D02*
X53646387Y-121505420D01*
X53932101Y-121505420D02*
X53932101Y-120505420D01*
X53932101Y-120505420D02*
X53836863Y-120648277D01*
X53836863Y-120648277D02*
X53741625Y-120743515D01*
X53741625Y-120743515D02*
X53646387Y-120791134D01*
X54694006Y-121505420D02*
X54884482Y-121505420D01*
X54884482Y-121505420D02*
X54979720Y-121457801D01*
X54979720Y-121457801D02*
X55027339Y-121410181D01*
X55027339Y-121410181D02*
X55122577Y-121267324D01*
X55122577Y-121267324D02*
X55170196Y-121076848D01*
X55170196Y-121076848D02*
X55170196Y-120695896D01*
X55170196Y-120695896D02*
X55122577Y-120600658D01*
X55122577Y-120600658D02*
X55074958Y-120553039D01*
X55074958Y-120553039D02*
X54979720Y-120505420D01*
X54979720Y-120505420D02*
X54789244Y-120505420D01*
X54789244Y-120505420D02*
X54694006Y-120553039D01*
X54694006Y-120553039D02*
X54646387Y-120600658D01*
X54646387Y-120600658D02*
X54598768Y-120695896D01*
X54598768Y-120695896D02*
X54598768Y-120933991D01*
X54598768Y-120933991D02*
X54646387Y-121029229D01*
X54646387Y-121029229D02*
X54694006Y-121076848D01*
X54694006Y-121076848D02*
X54789244Y-121124467D01*
X54789244Y-121124467D02*
X54979720Y-121124467D01*
X54979720Y-121124467D02*
X55074958Y-121076848D01*
X55074958Y-121076848D02*
X55122577Y-121029229D01*
X55122577Y-121029229D02*
X55170196Y-120933991D01*
X86683333Y-107754819D02*
X86350000Y-107278628D01*
X86111905Y-107754819D02*
X86111905Y-106754819D01*
X86111905Y-106754819D02*
X86492857Y-106754819D01*
X86492857Y-106754819D02*
X86588095Y-106802438D01*
X86588095Y-106802438D02*
X86635714Y-106850057D01*
X86635714Y-106850057D02*
X86683333Y-106945295D01*
X86683333Y-106945295D02*
X86683333Y-107088152D01*
X86683333Y-107088152D02*
X86635714Y-107183390D01*
X86635714Y-107183390D02*
X86588095Y-107231009D01*
X86588095Y-107231009D02*
X86492857Y-107278628D01*
X86492857Y-107278628D02*
X86111905Y-107278628D01*
X87540476Y-107088152D02*
X87540476Y-107754819D01*
X87302381Y-106707200D02*
X87064286Y-107421485D01*
X87064286Y-107421485D02*
X87683333Y-107421485D01*
X71757142Y-96459580D02*
X71709523Y-96507200D01*
X71709523Y-96507200D02*
X71566666Y-96554819D01*
X71566666Y-96554819D02*
X71471428Y-96554819D01*
X71471428Y-96554819D02*
X71328571Y-96507200D01*
X71328571Y-96507200D02*
X71233333Y-96411961D01*
X71233333Y-96411961D02*
X71185714Y-96316723D01*
X71185714Y-96316723D02*
X71138095Y-96126247D01*
X71138095Y-96126247D02*
X71138095Y-95983390D01*
X71138095Y-95983390D02*
X71185714Y-95792914D01*
X71185714Y-95792914D02*
X71233333Y-95697676D01*
X71233333Y-95697676D02*
X71328571Y-95602438D01*
X71328571Y-95602438D02*
X71471428Y-95554819D01*
X71471428Y-95554819D02*
X71566666Y-95554819D01*
X71566666Y-95554819D02*
X71709523Y-95602438D01*
X71709523Y-95602438D02*
X71757142Y-95650057D01*
X72709523Y-96554819D02*
X72138095Y-96554819D01*
X72423809Y-96554819D02*
X72423809Y-95554819D01*
X72423809Y-95554819D02*
X72328571Y-95697676D01*
X72328571Y-95697676D02*
X72233333Y-95792914D01*
X72233333Y-95792914D02*
X72138095Y-95840533D01*
X73328571Y-95554819D02*
X73423809Y-95554819D01*
X73423809Y-95554819D02*
X73519047Y-95602438D01*
X73519047Y-95602438D02*
X73566666Y-95650057D01*
X73566666Y-95650057D02*
X73614285Y-95745295D01*
X73614285Y-95745295D02*
X73661904Y-95935771D01*
X73661904Y-95935771D02*
X73661904Y-96173866D01*
X73661904Y-96173866D02*
X73614285Y-96364342D01*
X73614285Y-96364342D02*
X73566666Y-96459580D01*
X73566666Y-96459580D02*
X73519047Y-96507200D01*
X73519047Y-96507200D02*
X73423809Y-96554819D01*
X73423809Y-96554819D02*
X73328571Y-96554819D01*
X73328571Y-96554819D02*
X73233333Y-96507200D01*
X73233333Y-96507200D02*
X73185714Y-96459580D01*
X73185714Y-96459580D02*
X73138095Y-96364342D01*
X73138095Y-96364342D02*
X73090476Y-96173866D01*
X73090476Y-96173866D02*
X73090476Y-95935771D01*
X73090476Y-95935771D02*
X73138095Y-95745295D01*
X73138095Y-95745295D02*
X73185714Y-95650057D01*
X73185714Y-95650057D02*
X73233333Y-95602438D01*
X73233333Y-95602438D02*
X73328571Y-95554819D01*
X97438095Y-97154819D02*
X97438095Y-97964342D01*
X97438095Y-97964342D02*
X97485714Y-98059580D01*
X97485714Y-98059580D02*
X97533333Y-98107200D01*
X97533333Y-98107200D02*
X97628571Y-98154819D01*
X97628571Y-98154819D02*
X97819047Y-98154819D01*
X97819047Y-98154819D02*
X97914285Y-98107200D01*
X97914285Y-98107200D02*
X97961904Y-98059580D01*
X97961904Y-98059580D02*
X98009523Y-97964342D01*
X98009523Y-97964342D02*
X98009523Y-97154819D01*
X98390476Y-97154819D02*
X99009523Y-97154819D01*
X99009523Y-97154819D02*
X98676190Y-97535771D01*
X98676190Y-97535771D02*
X98819047Y-97535771D01*
X98819047Y-97535771D02*
X98914285Y-97583390D01*
X98914285Y-97583390D02*
X98961904Y-97631009D01*
X98961904Y-97631009D02*
X99009523Y-97726247D01*
X99009523Y-97726247D02*
X99009523Y-97964342D01*
X99009523Y-97964342D02*
X98961904Y-98059580D01*
X98961904Y-98059580D02*
X98914285Y-98107200D01*
X98914285Y-98107200D02*
X98819047Y-98154819D01*
X98819047Y-98154819D02*
X98533333Y-98154819D01*
X98533333Y-98154819D02*
X98438095Y-98107200D01*
X98438095Y-98107200D02*
X98390476Y-98059580D01*
X100538095Y-103054819D02*
X100538095Y-103864342D01*
X100538095Y-103864342D02*
X100585714Y-103959580D01*
X100585714Y-103959580D02*
X100633333Y-104007200D01*
X100633333Y-104007200D02*
X100728571Y-104054819D01*
X100728571Y-104054819D02*
X100919047Y-104054819D01*
X100919047Y-104054819D02*
X101014285Y-104007200D01*
X101014285Y-104007200D02*
X101061904Y-103959580D01*
X101061904Y-103959580D02*
X101109523Y-103864342D01*
X101109523Y-103864342D02*
X101109523Y-103054819D01*
X102014285Y-103388152D02*
X102014285Y-104054819D01*
X101776190Y-103007200D02*
X101538095Y-103721485D01*
X101538095Y-103721485D02*
X102157142Y-103721485D01*
X61738095Y-98904819D02*
X61738095Y-99714342D01*
X61738095Y-99714342D02*
X61785714Y-99809580D01*
X61785714Y-99809580D02*
X61833333Y-99857200D01*
X61833333Y-99857200D02*
X61928571Y-99904819D01*
X61928571Y-99904819D02*
X62119047Y-99904819D01*
X62119047Y-99904819D02*
X62214285Y-99857200D01*
X62214285Y-99857200D02*
X62261904Y-99809580D01*
X62261904Y-99809580D02*
X62309523Y-99714342D01*
X62309523Y-99714342D02*
X62309523Y-98904819D01*
X63261904Y-98904819D02*
X62785714Y-98904819D01*
X62785714Y-98904819D02*
X62738095Y-99381009D01*
X62738095Y-99381009D02*
X62785714Y-99333390D01*
X62785714Y-99333390D02*
X62880952Y-99285771D01*
X62880952Y-99285771D02*
X63119047Y-99285771D01*
X63119047Y-99285771D02*
X63214285Y-99333390D01*
X63214285Y-99333390D02*
X63261904Y-99381009D01*
X63261904Y-99381009D02*
X63309523Y-99476247D01*
X63309523Y-99476247D02*
X63309523Y-99714342D01*
X63309523Y-99714342D02*
X63261904Y-99809580D01*
X63261904Y-99809580D02*
X63214285Y-99857200D01*
X63214285Y-99857200D02*
X63119047Y-99904819D01*
X63119047Y-99904819D02*
X62880952Y-99904819D01*
X62880952Y-99904819D02*
X62785714Y-99857200D01*
X62785714Y-99857200D02*
X62738095Y-99809580D01*
X95454819Y-80838094D02*
X96264342Y-80838094D01*
X96264342Y-80838094D02*
X96359580Y-80790475D01*
X96359580Y-80790475D02*
X96407200Y-80742856D01*
X96407200Y-80742856D02*
X96454819Y-80647618D01*
X96454819Y-80647618D02*
X96454819Y-80457142D01*
X96454819Y-80457142D02*
X96407200Y-80361904D01*
X96407200Y-80361904D02*
X96359580Y-80314285D01*
X96359580Y-80314285D02*
X96264342Y-80266666D01*
X96264342Y-80266666D02*
X95454819Y-80266666D01*
X96454819Y-79266666D02*
X96454819Y-79838094D01*
X96454819Y-79552380D02*
X95454819Y-79552380D01*
X95454819Y-79552380D02*
X95597676Y-79647618D01*
X95597676Y-79647618D02*
X95692914Y-79742856D01*
X95692914Y-79742856D02*
X95740533Y-79838094D01*
X95454819Y-78647618D02*
X95454819Y-78552380D01*
X95454819Y-78552380D02*
X95502438Y-78457142D01*
X95502438Y-78457142D02*
X95550057Y-78409523D01*
X95550057Y-78409523D02*
X95645295Y-78361904D01*
X95645295Y-78361904D02*
X95835771Y-78314285D01*
X95835771Y-78314285D02*
X96073866Y-78314285D01*
X96073866Y-78314285D02*
X96264342Y-78361904D01*
X96264342Y-78361904D02*
X96359580Y-78409523D01*
X96359580Y-78409523D02*
X96407200Y-78457142D01*
X96407200Y-78457142D02*
X96454819Y-78552380D01*
X96454819Y-78552380D02*
X96454819Y-78647618D01*
X96454819Y-78647618D02*
X96407200Y-78742856D01*
X96407200Y-78742856D02*
X96359580Y-78790475D01*
X96359580Y-78790475D02*
X96264342Y-78838094D01*
X96264342Y-78838094D02*
X96073866Y-78885713D01*
X96073866Y-78885713D02*
X95835771Y-78885713D01*
X95835771Y-78885713D02*
X95645295Y-78838094D01*
X95645295Y-78838094D02*
X95550057Y-78790475D01*
X95550057Y-78790475D02*
X95502438Y-78742856D01*
X95502438Y-78742856D02*
X95454819Y-78647618D01*
X87261905Y-60254819D02*
X87261905Y-61064342D01*
X87261905Y-61064342D02*
X87309524Y-61159580D01*
X87309524Y-61159580D02*
X87357143Y-61207200D01*
X87357143Y-61207200D02*
X87452381Y-61254819D01*
X87452381Y-61254819D02*
X87642857Y-61254819D01*
X87642857Y-61254819D02*
X87738095Y-61207200D01*
X87738095Y-61207200D02*
X87785714Y-61159580D01*
X87785714Y-61159580D02*
X87833333Y-61064342D01*
X87833333Y-61064342D02*
X87833333Y-60254819D01*
X88833333Y-61254819D02*
X88261905Y-61254819D01*
X88547619Y-61254819D02*
X88547619Y-60254819D01*
X88547619Y-60254819D02*
X88452381Y-60397676D01*
X88452381Y-60397676D02*
X88357143Y-60492914D01*
X88357143Y-60492914D02*
X88261905Y-60540533D01*
X89166667Y-60254819D02*
X89785714Y-60254819D01*
X89785714Y-60254819D02*
X89452381Y-60635771D01*
X89452381Y-60635771D02*
X89595238Y-60635771D01*
X89595238Y-60635771D02*
X89690476Y-60683390D01*
X89690476Y-60683390D02*
X89738095Y-60731009D01*
X89738095Y-60731009D02*
X89785714Y-60826247D01*
X89785714Y-60826247D02*
X89785714Y-61064342D01*
X89785714Y-61064342D02*
X89738095Y-61159580D01*
X89738095Y-61159580D02*
X89690476Y-61207200D01*
X89690476Y-61207200D02*
X89595238Y-61254819D01*
X89595238Y-61254819D02*
X89309524Y-61254819D01*
X89309524Y-61254819D02*
X89214286Y-61207200D01*
X89214286Y-61207200D02*
X89166667Y-61159580D01*
X85454819Y-78238094D02*
X86264342Y-78238094D01*
X86264342Y-78238094D02*
X86359580Y-78190475D01*
X86359580Y-78190475D02*
X86407200Y-78142856D01*
X86407200Y-78142856D02*
X86454819Y-78047618D01*
X86454819Y-78047618D02*
X86454819Y-77857142D01*
X86454819Y-77857142D02*
X86407200Y-77761904D01*
X86407200Y-77761904D02*
X86359580Y-77714285D01*
X86359580Y-77714285D02*
X86264342Y-77666666D01*
X86264342Y-77666666D02*
X85454819Y-77666666D01*
X86454819Y-76666666D02*
X86454819Y-77238094D01*
X86454819Y-76952380D02*
X85454819Y-76952380D01*
X85454819Y-76952380D02*
X85597676Y-77047618D01*
X85597676Y-77047618D02*
X85692914Y-77142856D01*
X85692914Y-77142856D02*
X85740533Y-77238094D01*
X85788152Y-75809523D02*
X86454819Y-75809523D01*
X85407200Y-76047618D02*
X86121485Y-76285713D01*
X86121485Y-76285713D02*
X86121485Y-75666666D01*
X99254819Y-65038094D02*
X100064342Y-65038094D01*
X100064342Y-65038094D02*
X100159580Y-64990475D01*
X100159580Y-64990475D02*
X100207200Y-64942856D01*
X100207200Y-64942856D02*
X100254819Y-64847618D01*
X100254819Y-64847618D02*
X100254819Y-64657142D01*
X100254819Y-64657142D02*
X100207200Y-64561904D01*
X100207200Y-64561904D02*
X100159580Y-64514285D01*
X100159580Y-64514285D02*
X100064342Y-64466666D01*
X100064342Y-64466666D02*
X99254819Y-64466666D01*
X100254819Y-63466666D02*
X100254819Y-64038094D01*
X100254819Y-63752380D02*
X99254819Y-63752380D01*
X99254819Y-63752380D02*
X99397676Y-63847618D01*
X99397676Y-63847618D02*
X99492914Y-63942856D01*
X99492914Y-63942856D02*
X99540533Y-64038094D01*
X99254819Y-62561904D02*
X99254819Y-63038094D01*
X99254819Y-63038094D02*
X99731009Y-63085713D01*
X99731009Y-63085713D02*
X99683390Y-63038094D01*
X99683390Y-63038094D02*
X99635771Y-62942856D01*
X99635771Y-62942856D02*
X99635771Y-62704761D01*
X99635771Y-62704761D02*
X99683390Y-62609523D01*
X99683390Y-62609523D02*
X99731009Y-62561904D01*
X99731009Y-62561904D02*
X99826247Y-62514285D01*
X99826247Y-62514285D02*
X100064342Y-62514285D01*
X100064342Y-62514285D02*
X100159580Y-62561904D01*
X100159580Y-62561904D02*
X100207200Y-62609523D01*
X100207200Y-62609523D02*
X100254819Y-62704761D01*
X100254819Y-62704761D02*
X100254819Y-62942856D01*
X100254819Y-62942856D02*
X100207200Y-63038094D01*
X100207200Y-63038094D02*
X100159580Y-63085713D01*
X82154819Y-84438094D02*
X82964342Y-84438094D01*
X82964342Y-84438094D02*
X83059580Y-84390475D01*
X83059580Y-84390475D02*
X83107200Y-84342856D01*
X83107200Y-84342856D02*
X83154819Y-84247618D01*
X83154819Y-84247618D02*
X83154819Y-84057142D01*
X83154819Y-84057142D02*
X83107200Y-83961904D01*
X83107200Y-83961904D02*
X83059580Y-83914285D01*
X83059580Y-83914285D02*
X82964342Y-83866666D01*
X82964342Y-83866666D02*
X82154819Y-83866666D01*
X83154819Y-82866666D02*
X83154819Y-83438094D01*
X83154819Y-83152380D02*
X82154819Y-83152380D01*
X82154819Y-83152380D02*
X82297676Y-83247618D01*
X82297676Y-83247618D02*
X82392914Y-83342856D01*
X82392914Y-83342856D02*
X82440533Y-83438094D01*
X82154819Y-82009523D02*
X82154819Y-82199999D01*
X82154819Y-82199999D02*
X82202438Y-82295237D01*
X82202438Y-82295237D02*
X82250057Y-82342856D01*
X82250057Y-82342856D02*
X82392914Y-82438094D01*
X82392914Y-82438094D02*
X82583390Y-82485713D01*
X82583390Y-82485713D02*
X82964342Y-82485713D01*
X82964342Y-82485713D02*
X83059580Y-82438094D01*
X83059580Y-82438094D02*
X83107200Y-82390475D01*
X83107200Y-82390475D02*
X83154819Y-82295237D01*
X83154819Y-82295237D02*
X83154819Y-82104761D01*
X83154819Y-82104761D02*
X83107200Y-82009523D01*
X83107200Y-82009523D02*
X83059580Y-81961904D01*
X83059580Y-81961904D02*
X82964342Y-81914285D01*
X82964342Y-81914285D02*
X82726247Y-81914285D01*
X82726247Y-81914285D02*
X82631009Y-81961904D01*
X82631009Y-81961904D02*
X82583390Y-82009523D01*
X82583390Y-82009523D02*
X82535771Y-82104761D01*
X82535771Y-82104761D02*
X82535771Y-82295237D01*
X82535771Y-82295237D02*
X82583390Y-82390475D01*
X82583390Y-82390475D02*
X82631009Y-82438094D01*
X82631009Y-82438094D02*
X82726247Y-82485713D01*
X82354819Y-66638094D02*
X83164342Y-66638094D01*
X83164342Y-66638094D02*
X83259580Y-66590475D01*
X83259580Y-66590475D02*
X83307200Y-66542856D01*
X83307200Y-66542856D02*
X83354819Y-66447618D01*
X83354819Y-66447618D02*
X83354819Y-66257142D01*
X83354819Y-66257142D02*
X83307200Y-66161904D01*
X83307200Y-66161904D02*
X83259580Y-66114285D01*
X83259580Y-66114285D02*
X83164342Y-66066666D01*
X83164342Y-66066666D02*
X82354819Y-66066666D01*
X83354819Y-65066666D02*
X83354819Y-65638094D01*
X83354819Y-65352380D02*
X82354819Y-65352380D01*
X82354819Y-65352380D02*
X82497676Y-65447618D01*
X82497676Y-65447618D02*
X82592914Y-65542856D01*
X82592914Y-65542856D02*
X82640533Y-65638094D01*
X82354819Y-64733332D02*
X82354819Y-64066666D01*
X82354819Y-64066666D02*
X83354819Y-64495237D01*
D13*
X97382593Y-105679116D02*
X97382593Y-106201620D01*
X95912593Y-105679116D02*
X95912593Y-106201620D01*
X105312593Y-106201620D02*
X105312593Y-105679116D01*
X106782593Y-106201620D02*
X106782593Y-105679116D01*
X55395800Y-94734748D02*
X55395800Y-95257252D01*
X53925800Y-94734748D02*
X53925800Y-95257252D01*
X54472733Y-69061692D02*
X54472733Y-68539188D01*
X55942733Y-69061692D02*
X55942733Y-68539188D01*
X59538748Y-81365000D02*
X60061252Y-81365000D01*
X59538748Y-82835000D02*
X60061252Y-82835000D01*
X88865000Y-103561252D02*
X88865000Y-103038748D01*
X90335000Y-103561252D02*
X90335000Y-103038748D01*
X77602972Y-103738748D02*
X77602972Y-104261252D01*
X76132972Y-103738748D02*
X76132972Y-104261252D01*
X53831708Y-112420651D02*
X53831708Y-110998147D01*
X56551708Y-112420651D02*
X56551708Y-110998147D01*
X66261252Y-82835000D02*
X65738748Y-82835000D01*
X66261252Y-81365000D02*
X65738748Y-81365000D01*
X62265000Y-69061252D02*
X62265000Y-68538748D01*
X63735000Y-69061252D02*
X63735000Y-68538748D01*
X64461252Y-105535000D02*
X63938748Y-105535000D01*
X64461252Y-104065000D02*
X63938748Y-104065000D01*
X67535000Y-108738748D02*
X67535000Y-109261252D01*
X66065000Y-108738748D02*
X66065000Y-109261252D01*
X93835000Y-90238748D02*
X93835000Y-90761252D01*
X92365000Y-90238748D02*
X92365000Y-90761252D01*
X98638748Y-83265000D02*
X99161252Y-83265000D01*
X98638748Y-84735000D02*
X99161252Y-84735000D01*
X88238748Y-67465000D02*
X88761252Y-67465000D01*
X88238748Y-68935000D02*
X88761252Y-68935000D01*
X88138748Y-72765000D02*
X88661252Y-72765000D01*
X88138748Y-74235000D02*
X88661252Y-74235000D01*
X83565000Y-64961252D02*
X83565000Y-64438748D01*
X85035000Y-64961252D02*
X85035000Y-64438748D01*
X96638748Y-67465000D02*
X97161252Y-67465000D01*
X96638748Y-68935000D02*
X97161252Y-68935000D01*
X89138748Y-81665000D02*
X89661252Y-81665000D01*
X89138748Y-83135000D02*
X89661252Y-83135000D01*
X92065000Y-64961252D02*
X92065000Y-64438748D01*
X93535000Y-64961252D02*
X93535000Y-64438748D01*
X89661252Y-87535000D02*
X89138748Y-87535000D01*
X89661252Y-86065000D02*
X89138748Y-86065000D01*
X83465000Y-83761252D02*
X83465000Y-83238748D01*
X84935000Y-83761252D02*
X84935000Y-83238748D01*
X80265000Y-70861252D02*
X80265000Y-70338748D01*
X81735000Y-70861252D02*
X81735000Y-70338748D01*
X77235000Y-65138748D02*
X77235000Y-65661252D01*
X75765000Y-65138748D02*
X75765000Y-65661252D01*
X79738748Y-90165000D02*
X80261252Y-90165000D01*
X79738748Y-91635000D02*
X80261252Y-91635000D01*
X100727064Y-114535000D02*
X100272936Y-114535000D01*
X100727064Y-113065000D02*
X100272936Y-113065000D01*
X100220529Y-109605368D02*
X100674657Y-109605368D01*
X100220529Y-111075368D02*
X100674657Y-111075368D01*
X57772733Y-69027504D02*
X57772733Y-68573376D01*
X59242733Y-69027504D02*
X59242733Y-68573376D01*
X74102972Y-103772936D02*
X74102972Y-104227064D01*
X72632972Y-103772936D02*
X72632972Y-104227064D01*
X67135000Y-68572936D02*
X67135000Y-69027064D01*
X65665000Y-68572936D02*
X65665000Y-69027064D01*
X101472936Y-52865000D02*
X101927064Y-52865000D01*
X101472936Y-54335000D02*
X101927064Y-54335000D01*
X89527064Y-96035000D02*
X89072936Y-96035000D01*
X89527064Y-94565000D02*
X89072936Y-94565000D01*
X83565000Y-71027064D02*
X83565000Y-70572936D01*
X85035000Y-71027064D02*
X85035000Y-70572936D01*
X85035000Y-76172936D02*
X85035000Y-76627064D01*
X83565000Y-76172936D02*
X83565000Y-76627064D01*
X92065000Y-71127064D02*
X92065000Y-70672936D01*
X93535000Y-71127064D02*
X93535000Y-70672936D01*
X89172936Y-89565000D02*
X89627064Y-89565000D01*
X89172936Y-91035000D02*
X89627064Y-91035000D01*
X55327064Y-53535000D02*
X54872936Y-53535000D01*
X55327064Y-52065000D02*
X54872936Y-52065000D01*
X76435000Y-77672936D02*
X76435000Y-78127064D01*
X74965000Y-77672936D02*
X74965000Y-78127064D01*
X80127064Y-79235000D02*
X79672936Y-79235000D01*
X80127064Y-77765000D02*
X79672936Y-77765000D01*
X70827064Y-53435000D02*
X70372936Y-53435000D01*
X70827064Y-51965000D02*
X70372936Y-51965000D01*
X79772936Y-86865000D02*
X80227064Y-86865000D01*
X79772936Y-88335000D02*
X80227064Y-88335000D01*
X76435000Y-88072936D02*
X76435000Y-88527064D01*
X74965000Y-88072936D02*
X74965000Y-88527064D01*
X74965000Y-71227064D02*
X74965000Y-70772936D01*
X76435000Y-71227064D02*
X76435000Y-70772936D01*
X65727064Y-53535000D02*
X65272936Y-53535000D01*
X65727064Y-52065000D02*
X65272936Y-52065000D01*
X60527064Y-53535000D02*
X60072936Y-53535000D01*
X60527064Y-52065000D02*
X60072936Y-52065000D01*
X56785000Y-115665000D02*
X63035000Y-115665000D01*
X56785000Y-120715000D02*
X63035000Y-120715000D01*
X56785000Y-115665000D02*
G75*
G03*
X56785000Y-120715000I0J-2525000D01*
G01*
X63035000Y-120715000D02*
G75*
G03*
X63035000Y-115665000I0J2525000D01*
G01*
X62030456Y-121874399D02*
X62552960Y-121874399D01*
X62030456Y-123344399D02*
X62552960Y-123344399D01*
X101438748Y-56465000D02*
X101961252Y-56465000D01*
X101438748Y-57935000D02*
X101961252Y-57935000D01*
X99161252Y-75835000D02*
X98638748Y-75835000D01*
X99161252Y-74365000D02*
X98638748Y-74365000D01*
X53090000Y-54970000D02*
X54420000Y-54970000D01*
X53090000Y-56300000D02*
X53090000Y-54970000D01*
X53090000Y-57570000D02*
X53090000Y-65250000D01*
X53090000Y-57570000D02*
X57110000Y-57570000D01*
X53090000Y-65250000D02*
X57110000Y-65250000D01*
X57110000Y-57570000D02*
X57110000Y-65250000D01*
X98030000Y-51490000D02*
X98030000Y-52820000D01*
X96700000Y-51490000D02*
X98030000Y-51490000D01*
X95430000Y-51490000D02*
X87750000Y-51490000D01*
X95430000Y-51490000D02*
X95430000Y-55510000D01*
X87750000Y-51490000D02*
X87750000Y-55510000D01*
X95430000Y-55510000D02*
X87750000Y-55510000D01*
X58290000Y-54970000D02*
X59620000Y-54970000D01*
X58290000Y-56300000D02*
X58290000Y-54970000D01*
X58290000Y-57570000D02*
X58290000Y-65250000D01*
X58290000Y-57570000D02*
X62310000Y-57570000D01*
X58290000Y-65250000D02*
X62310000Y-65250000D01*
X62310000Y-57570000D02*
X62310000Y-65250000D01*
X68590000Y-54970000D02*
X69920000Y-54970000D01*
X68590000Y-56300000D02*
X68590000Y-54970000D01*
X68590000Y-57570000D02*
X68590000Y-65250000D01*
X68590000Y-57570000D02*
X72610000Y-57570000D01*
X68590000Y-65250000D02*
X72610000Y-65250000D01*
X72610000Y-57570000D02*
X72610000Y-65250000D01*
X63490000Y-54970000D02*
X64820000Y-54970000D01*
X63490000Y-56300000D02*
X63490000Y-54970000D01*
X63490000Y-57570000D02*
X63490000Y-65250000D01*
X63490000Y-57570000D02*
X67510000Y-57570000D01*
X63490000Y-65250000D02*
X67510000Y-65250000D01*
X67510000Y-57570000D02*
X67510000Y-65250000D01*
X79772936Y-74065000D02*
X80227064Y-74065000D01*
X79772936Y-75535000D02*
X80227064Y-75535000D01*
D14*
X84000000Y-50250000D02*
X82500000Y-50250000D01*
X82500000Y-50250000D02*
X77500000Y-50250000D01*
X77500000Y-50250000D02*
X76000000Y-50250000D01*
X76000000Y-50250000D02*
X76000000Y-50750000D01*
X84000000Y-50750000D02*
X84000000Y-50250000D01*
X84000000Y-54750000D02*
X84000000Y-55250000D01*
X76000000Y-54750000D02*
X76000000Y-55250000D01*
X84000000Y-58100000D02*
X84000000Y-59750000D01*
X76000000Y-58100000D02*
X76000000Y-59750000D01*
X84000000Y-59750000D02*
X81200000Y-59750000D01*
X78800000Y-59750000D02*
X76000000Y-59750000D01*
D10*
X80100000Y-61500000D02*
G75*
G03*
X79900000Y-61500000I-100000J0D01*
G01*
X79900000Y-61500000D02*
G75*
G03*
X80100000Y-61500000I100000J0D01*
G01*
D14*
X105000000Y-117700000D02*
X105000000Y-123500000D01*
X102200000Y-117700000D02*
X105000000Y-117700000D01*
X95000000Y-117700000D02*
X97900000Y-117700000D01*
X95000000Y-123500000D02*
X95000000Y-117700000D01*
X105000000Y-127900000D02*
X105000000Y-130700000D01*
X105000000Y-130700000D02*
X95000000Y-130700000D01*
X95000000Y-130700000D02*
X95000000Y-127900000D01*
D15*
X89717100Y-114882900D02*
X91378260Y-114882900D01*
X93821740Y-114882900D02*
X95482900Y-114882900D01*
X95482900Y-114882900D02*
X95482900Y-109117100D01*
X91127950Y-114852950D02*
X89750000Y-113475000D01*
X94050000Y-114825000D02*
X95427950Y-113447050D01*
X89717100Y-109117100D02*
X89717100Y-114882900D01*
X91378260Y-109117100D02*
X89717100Y-109117100D01*
X95482900Y-109117100D02*
X93821740Y-109117100D01*
D13*
X68730000Y-126370000D02*
X68730000Y-127700000D01*
X67400000Y-126370000D02*
X68730000Y-126370000D01*
X66130000Y-126370000D02*
X53370000Y-126370000D01*
X66130000Y-126370000D02*
X66130000Y-129030000D01*
X53370000Y-126370000D02*
X53370000Y-129030000D01*
X66130000Y-129030000D02*
X53370000Y-129030000D01*
X74285000Y-118872936D02*
X74285000Y-119327064D01*
X72815000Y-118872936D02*
X72815000Y-119327064D01*
X76555943Y-110187404D02*
X76555943Y-109487404D01*
X76605943Y-109487404D02*
X77305943Y-109487404D01*
X76855943Y-109762404D02*
X83305943Y-109762404D01*
X76855943Y-121212404D02*
X76855943Y-109762404D01*
X83305943Y-109762404D02*
X83305943Y-121212404D01*
X83305943Y-121212404D02*
X76855943Y-121212404D01*
X85290000Y-120611252D02*
X85290000Y-119188748D01*
X87110000Y-120611252D02*
X87110000Y-119188748D01*
X87110000Y-113088748D02*
X87110000Y-114511252D01*
X85290000Y-113088748D02*
X85290000Y-114511252D01*
X102291497Y-100478013D02*
X102291497Y-99955509D01*
X103761497Y-100478013D02*
X103761497Y-99955509D01*
X94361497Y-99955509D02*
X94361497Y-100478013D01*
X92891497Y-99955509D02*
X92891497Y-100478013D01*
X101999433Y-95081761D02*
X102453561Y-95081761D01*
X101999433Y-96551761D02*
X102453561Y-96551761D01*
X97199433Y-95081761D02*
X97653561Y-95081761D01*
X97199433Y-96551761D02*
X97653561Y-96551761D01*
X77561252Y-129435000D02*
X77038748Y-129435000D01*
X77561252Y-127965000D02*
X77038748Y-127965000D01*
X72338748Y-124565000D02*
X72861252Y-124565000D01*
X72338748Y-126035000D02*
X72861252Y-126035000D01*
X72338748Y-127965000D02*
X72861252Y-127965000D01*
X72338748Y-129435000D02*
X72861252Y-129435000D01*
X77038748Y-124565000D02*
X77561252Y-124565000D01*
X77038748Y-126035000D02*
X77561252Y-126035000D01*
D12*
X67414605Y-73705739D02*
X67364605Y-73705739D01*
X67414605Y-73705739D02*
X67414605Y-77855739D01*
X67364605Y-73705739D02*
X67364605Y-72305739D01*
X62264605Y-73705739D02*
X62409605Y-73705739D01*
X62264605Y-73705739D02*
X62264605Y-77855739D01*
X67414605Y-77855739D02*
X67269605Y-77855739D01*
X62264605Y-77855739D02*
X62409605Y-77855739D01*
X59482733Y-73725440D02*
X59432733Y-73725440D01*
X59482733Y-73725440D02*
X59482733Y-77875440D01*
X59432733Y-73725440D02*
X59432733Y-72325440D01*
X54332733Y-73725440D02*
X54477733Y-73725440D01*
X54332733Y-73725440D02*
X54332733Y-77875440D01*
X59482733Y-77875440D02*
X59337733Y-77875440D01*
X54332733Y-77875440D02*
X54477733Y-77875440D01*
X85175000Y-106275000D02*
X85175000Y-106225000D01*
X85175000Y-106275000D02*
X81025000Y-106275000D01*
X85175000Y-106225000D02*
X86575000Y-106225000D01*
X85175000Y-101125000D02*
X85175000Y-101270000D01*
X85175000Y-101125000D02*
X81025000Y-101125000D01*
X81025000Y-106275000D02*
X81025000Y-106130000D01*
X81025000Y-101125000D02*
X81025000Y-101270000D01*
X81675000Y-97575000D02*
X81675000Y-97400000D01*
X81675000Y-97575000D02*
X78325000Y-97575000D01*
X81675000Y-97400000D02*
X82925000Y-97400000D01*
X81675000Y-94225000D02*
X81675000Y-94475000D01*
X81675000Y-94225000D02*
X78325000Y-94225000D01*
X78325000Y-97575000D02*
X78325000Y-97325000D01*
X78325000Y-94225000D02*
X78325000Y-94475000D01*
X58466708Y-113884399D02*
X58466708Y-108609399D01*
X63866708Y-112609399D02*
X63866708Y-108609399D01*
X101175000Y-92575000D02*
X101175000Y-92525000D01*
X101175000Y-92575000D02*
X97025000Y-92575000D01*
X101175000Y-92525000D02*
X102575000Y-92525000D01*
X101175000Y-87425000D02*
X101175000Y-87570000D01*
X101175000Y-87425000D02*
X97025000Y-87425000D01*
X97025000Y-92575000D02*
X97025000Y-92430000D01*
X97025000Y-87425000D02*
X97025000Y-87570000D01*
D14*
X81900000Y-125599000D02*
X81900000Y-130750000D01*
X81900000Y-130750000D02*
X90100000Y-130750000D01*
X90100000Y-130750000D02*
X90100000Y-125599000D01*
D13*
X76435000Y-82738748D02*
X76435000Y-83261252D01*
X74965000Y-82738748D02*
X74965000Y-83261252D01*
X57711252Y-123325000D02*
X57188748Y-123325000D01*
X57711252Y-121855000D02*
X57188748Y-121855000D01*
X86672936Y-108165000D02*
X87127064Y-108165000D01*
X86672936Y-109635000D02*
X87127064Y-109635000D01*
X72138748Y-97065000D02*
X72661252Y-97065000D01*
X72138748Y-98535000D02*
X72661252Y-98535000D01*
X97346497Y-101776761D02*
X99106497Y-101776761D01*
X99106497Y-98706761D02*
X96676497Y-98706761D01*
X100367593Y-107500368D02*
X102127593Y-107500368D01*
X102127593Y-104430368D02*
X99697593Y-104430368D01*
X66360000Y-98610000D02*
X66360000Y-98375000D01*
X66360000Y-98375000D02*
X68175000Y-98375000D01*
X66360000Y-85590000D02*
X66360000Y-85825000D01*
X62500000Y-98610000D02*
X66360000Y-98610000D01*
X62500000Y-98610000D02*
X58640000Y-98610000D01*
X62500000Y-85590000D02*
X66360000Y-85590000D01*
X62500000Y-85590000D02*
X58640000Y-85590000D01*
X58640000Y-98610000D02*
X58640000Y-98375000D01*
X58640000Y-85590000D02*
X58640000Y-85825000D01*
X100510000Y-80500000D02*
X100510000Y-78700000D01*
X97290000Y-78700000D02*
X97290000Y-81150000D01*
X86890000Y-62900000D02*
X86890000Y-64700000D01*
X90110000Y-64700000D02*
X90110000Y-62250000D01*
X90010000Y-78900000D02*
X90010000Y-77100000D01*
X86790000Y-77100000D02*
X86790000Y-79550000D01*
X95290000Y-62900000D02*
X95290000Y-64700000D01*
X98510000Y-64700000D02*
X98510000Y-62250000D01*
X78390000Y-82300000D02*
X78390000Y-84100000D01*
X81610000Y-84100000D02*
X81610000Y-81650000D01*
X78390000Y-64500000D02*
X78390000Y-66300000D01*
X81610000Y-66300000D02*
X81610000Y-63850000D01*
M02*
