G04 #@! TF.GenerationSoftware,KiCad,Pcbnew,6.0.11+dfsg-1*
G04 #@! TF.CreationDate,2024-05-04T22:48:08-04:00*
G04 #@! TF.ProjectId,mystat,6d797374-6174-42e6-9b69-6361645f7063,rev?*
G04 #@! TF.SameCoordinates,Original*
G04 #@! TF.FileFunction,Soldermask,Top*
G04 #@! TF.FilePolarity,Negative*
%FSLAX46Y46*%
G04 Gerber Fmt 4.6, Leading zero omitted, Abs format (unit mm)*
G04 Created by KiCad (PCBNEW 6.0.11+dfsg-1) date 2024-05-04 22:48:08*
%MOMM*%
%LPD*%
G01*
G04 APERTURE LIST*
G04 Aperture macros list*
%AMRoundRect*
0 Rectangle with rounded corners*
0 $1 Rounding radius*
0 $2 $3 $4 $5 $6 $7 $8 $9 X,Y pos of 4 corners*
0 Add a 4 corners polygon primitive as box body*
4,1,4,$2,$3,$4,$5,$6,$7,$8,$9,$2,$3,0*
0 Add four circle primitives for the rounded corners*
1,1,$1+$1,$2,$3*
1,1,$1+$1,$4,$5*
1,1,$1+$1,$6,$7*
1,1,$1+$1,$8,$9*
0 Add four rect primitives between the rounded corners*
20,1,$1+$1,$2,$3,$4,$5,0*
20,1,$1+$1,$4,$5,$6,$7,0*
20,1,$1+$1,$6,$7,$8,$9,0*
20,1,$1+$1,$8,$9,$2,$3,0*%
G04 Aperture macros list end*
%ADD10C,1.501600*%
%ADD11RoundRect,0.050800X-0.900000X1.400000X-0.900000X-1.400000X0.900000X-1.400000X0.900000X1.400000X0*%
%ADD12RoundRect,0.050800X-1.500000X0.900000X-1.500000X-0.900000X1.500000X-0.900000X1.500000X0.900000X0*%
%ADD13RoundRect,0.050800X-1.500000X1.500000X-1.500000X-1.500000X1.500000X-1.500000X1.500000X1.500000X0*%
%ADD14RoundRect,0.294550X-0.456250X0.243750X-0.456250X-0.243750X0.456250X-0.243750X0.456250X0.243750X0*%
%ADD15RoundRect,0.294550X0.456250X-0.243750X0.456250X0.243750X-0.456250X0.243750X-0.456250X-0.243750X0*%
%ADD16RoundRect,0.294550X-0.243750X-0.456250X0.243750X-0.456250X0.243750X0.456250X-0.243750X0.456250X0*%
%ADD17RoundRect,0.300800X1.075000X-0.375000X1.075000X0.375000X-1.075000X0.375000X-1.075000X-0.375000X0*%
%ADD18RoundRect,0.294550X0.243750X0.456250X-0.243750X0.456250X-0.243750X-0.456250X0.243750X-0.456250X0*%
%ADD19C,1.601600*%
%ADD20RoundRect,0.050800X-0.675000X-0.675000X0.675000X-0.675000X0.675000X0.675000X-0.675000X0.675000X0*%
%ADD21O,1.451600X1.451600*%
%ADD22RoundRect,0.050800X-0.675000X0.675000X-0.675000X-0.675000X0.675000X-0.675000X0.675000X0.675000X0*%
%ADD23C,1.701600*%
%ADD24O,4.101600X2.101600*%
%ADD25O,3.401600X2.101600*%
%ADD26O,2.101600X3.601600*%
%ADD27RoundRect,0.050800X0.889000X-1.460500X0.889000X1.460500X-0.889000X1.460500X-0.889000X-1.460500X0*%
%ADD28RoundRect,0.050800X-0.850000X0.850000X-0.850000X-0.850000X0.850000X-0.850000X0.850000X0.850000X0*%
%ADD29O,1.801600X1.801600*%
%ADD30C,0.726600*%
%ADD31RoundRect,0.300800X0.625000X-0.375000X0.625000X0.375000X-0.625000X0.375000X-0.625000X-0.375000X0*%
%ADD32RoundRect,0.300800X-0.625000X0.375000X-0.625000X-0.375000X0.625000X-0.375000X0.625000X0.375000X0*%
%ADD33RoundRect,0.050800X-0.275000X0.775000X-0.275000X-0.775000X0.275000X-0.775000X0.275000X0.775000X0*%
%ADD34RoundRect,0.050800X-0.250000X0.775000X-0.250000X-0.775000X0.250000X-0.775000X0.250000X0.775000X0*%
%ADD35RoundRect,0.050800X0.775000X0.275000X-0.775000X0.275000X-0.775000X-0.275000X0.775000X-0.275000X0*%
%ADD36RoundRect,0.050800X0.775000X0.250000X-0.775000X0.250000X-0.775000X-0.250000X0.775000X-0.250000X0*%
%ADD37RoundRect,0.050800X0.725000X0.190000X-0.725000X0.190000X-0.725000X-0.190000X0.725000X-0.190000X0*%
%ADD38RoundRect,0.050800X0.740000X0.175000X-0.740000X0.175000X-0.740000X-0.175000X0.740000X-0.175000X0*%
%ADD39RoundRect,0.050800X0.150000X-0.600000X0.150000X0.600000X-0.150000X0.600000X-0.150000X-0.600000X0*%
%ADD40RoundRect,0.050800X0.175000X-0.600000X0.175000X0.600000X-0.175000X0.600000X-0.175000X-0.600000X0*%
%ADD41RoundRect,0.050800X-0.875000X-0.600000X0.875000X-0.600000X0.875000X0.600000X-0.875000X0.600000X0*%
%ADD42RoundRect,0.050800X-1.100000X-1.100000X1.100000X-1.100000X1.100000X1.100000X-1.100000X1.100000X0*%
%ADD43RoundRect,0.050800X-0.610000X-0.310000X0.610000X-0.310000X0.610000X0.310000X-0.610000X0.310000X0*%
%ADD44RoundRect,0.050800X1.025000X0.275000X-1.025000X0.275000X-1.025000X-0.275000X1.025000X-0.275000X0*%
%ADD45RoundRect,0.050800X0.300000X-0.550000X0.300000X0.550000X-0.300000X0.550000X-0.300000X-0.550000X0*%
%ADD46RoundRect,0.050800X-0.300000X0.550000X-0.300000X-0.550000X0.300000X-0.550000X0.300000X0.550000X0*%
G04 APERTURE END LIST*
D10*
X80000000Y-56750000D03*
X80000000Y-52250000D03*
D11*
X80000000Y-59750000D03*
D12*
X75800000Y-56750000D03*
X84200000Y-56750000D03*
D13*
X75300000Y-52750000D03*
X84700000Y-52750000D03*
D14*
X96647593Y-105002868D03*
X96647593Y-106877868D03*
D15*
X106047593Y-106877868D03*
X106047593Y-105002868D03*
D14*
X54660800Y-94058500D03*
X54660800Y-95933500D03*
D15*
X55207733Y-69737940D03*
X55207733Y-67862940D03*
D16*
X58862500Y-82100000D03*
X60737500Y-82100000D03*
D15*
X89600000Y-104237500D03*
X89600000Y-102362500D03*
D14*
X76867972Y-103062500D03*
X76867972Y-104937500D03*
D17*
X55191708Y-113109399D03*
X55191708Y-110309399D03*
D18*
X66937500Y-82100000D03*
X65062500Y-82100000D03*
D15*
X63000000Y-69737500D03*
X63000000Y-67862500D03*
D18*
X65137500Y-104800000D03*
X63262500Y-104800000D03*
D14*
X66800000Y-108062500D03*
X66800000Y-109937500D03*
X93100000Y-89562500D03*
X93100000Y-91437500D03*
D16*
X97962500Y-84000000D03*
X99837500Y-84000000D03*
X87562500Y-68200000D03*
X89437500Y-68200000D03*
X87462500Y-73500000D03*
X89337500Y-73500000D03*
D15*
X84300000Y-65637500D03*
X84300000Y-63762500D03*
D16*
X95962500Y-68200000D03*
X97837500Y-68200000D03*
X88462500Y-82400000D03*
X90337500Y-82400000D03*
D15*
X92800000Y-63762500D03*
X92800000Y-65637500D03*
D18*
X90337500Y-86800000D03*
X88462500Y-86800000D03*
D15*
X84200000Y-84437500D03*
X84200000Y-82562500D03*
X81000000Y-71537500D03*
X81000000Y-69662500D03*
D14*
X75700000Y-64462500D03*
X75700000Y-66337500D03*
D16*
X79062500Y-90900000D03*
X80937500Y-90900000D03*
D18*
X101437500Y-113800000D03*
X99562500Y-113800000D03*
D16*
X99510093Y-110340368D03*
X101385093Y-110340368D03*
D15*
X58507733Y-69737940D03*
X58507733Y-67862940D03*
D14*
X73367972Y-103062500D03*
X73367972Y-104937500D03*
X66400000Y-67862500D03*
X66400000Y-69737500D03*
D16*
X100762500Y-53600000D03*
X102637500Y-53600000D03*
D18*
X90237500Y-95300000D03*
X88362500Y-95300000D03*
D15*
X84300000Y-71737500D03*
X84300000Y-69862500D03*
D14*
X84300000Y-75462500D03*
X84300000Y-77337500D03*
D15*
X92800000Y-71837500D03*
X92800000Y-69962500D03*
D16*
X88462500Y-90300000D03*
X90337500Y-90300000D03*
D18*
X56037500Y-52800000D03*
X54162500Y-52800000D03*
D14*
X75700000Y-76962500D03*
X75700000Y-78837500D03*
D18*
X80837500Y-78500000D03*
X78962500Y-78500000D03*
X71537500Y-52700000D03*
X69662500Y-52700000D03*
D16*
X79062500Y-87600000D03*
X80937500Y-87600000D03*
D14*
X75700000Y-87362500D03*
X75700000Y-89237500D03*
D15*
X75700000Y-71937500D03*
X75700000Y-70062500D03*
D18*
X66437500Y-52800000D03*
X64562500Y-52800000D03*
X61237500Y-52800000D03*
X59362500Y-52800000D03*
D19*
X57470000Y-118190000D03*
X62350000Y-118190000D03*
D16*
X61354208Y-122609399D03*
X63229208Y-122609399D03*
X100762500Y-57200000D03*
X102637500Y-57200000D03*
D18*
X99837500Y-75100000D03*
X97962500Y-75100000D03*
D20*
X55100000Y-56300000D03*
D21*
X55100000Y-58840000D03*
X55100000Y-61380000D03*
X55100000Y-63920000D03*
D22*
X96700000Y-53500000D03*
D21*
X94160000Y-53500000D03*
X91620000Y-53500000D03*
X89080000Y-53500000D03*
D20*
X60300000Y-56300000D03*
D21*
X60300000Y-58840000D03*
X60300000Y-61380000D03*
X60300000Y-63920000D03*
D20*
X70600000Y-56300000D03*
D21*
X70600000Y-58840000D03*
X70600000Y-61380000D03*
X70600000Y-63920000D03*
D20*
X65500000Y-56300000D03*
D21*
X65500000Y-58840000D03*
X65500000Y-61380000D03*
X65500000Y-63920000D03*
D16*
X79062500Y-74800000D03*
X80937500Y-74800000D03*
D23*
X100000000Y-127700000D03*
D24*
X100000000Y-118700000D03*
D25*
X100000000Y-124700000D03*
D26*
X104500000Y-125700000D03*
X95500000Y-125700000D03*
D27*
X92600000Y-114501900D03*
X92600000Y-109498100D03*
D28*
X67400000Y-127700000D03*
D29*
X64860000Y-127700000D03*
X62320000Y-127700000D03*
X59780000Y-127700000D03*
X57240000Y-127700000D03*
X54700000Y-127700000D03*
D14*
X73550000Y-118162500D03*
X73550000Y-120037500D03*
D30*
X77540943Y-111042404D03*
X78810943Y-111042404D03*
X80080943Y-111042404D03*
X81350943Y-111042404D03*
X82620943Y-111042404D03*
X77540943Y-112312404D03*
X78810943Y-112312404D03*
X80080943Y-112312404D03*
X81350943Y-112312404D03*
X82620943Y-112312404D03*
X77540943Y-113582404D03*
X78810943Y-113582404D03*
X80080943Y-113582404D03*
X81350943Y-113582404D03*
X82620943Y-113582404D03*
X77540943Y-114852404D03*
X78810943Y-114852404D03*
X80080943Y-114852404D03*
X81350943Y-114852404D03*
X82620943Y-114852404D03*
X77540943Y-116122404D03*
X78810943Y-116122404D03*
X80080943Y-116122404D03*
X81350943Y-116122404D03*
X82620943Y-116122404D03*
X77540943Y-117392404D03*
X78810943Y-117392404D03*
X80080943Y-117392404D03*
X81350943Y-117392404D03*
X82620943Y-117392404D03*
X77540943Y-118662404D03*
X78810943Y-118662404D03*
X80080943Y-118662404D03*
X81350943Y-118662404D03*
X82620943Y-118662404D03*
X77540943Y-119932404D03*
X78810943Y-119932404D03*
X80080943Y-119932404D03*
X81350943Y-119932404D03*
X82620943Y-119932404D03*
D31*
X86200000Y-121300000D03*
X86200000Y-118500000D03*
D32*
X86200000Y-112400000D03*
X86200000Y-115200000D03*
D15*
X103026497Y-101154261D03*
X103026497Y-99279261D03*
D14*
X93626497Y-99279261D03*
X93626497Y-101154261D03*
D16*
X101288997Y-95816761D03*
X103163997Y-95816761D03*
X96488997Y-95816761D03*
X98363997Y-95816761D03*
D18*
X78237500Y-128700000D03*
X76362500Y-128700000D03*
D16*
X71662500Y-125300000D03*
X73537500Y-125300000D03*
X71662500Y-128700000D03*
X73537500Y-128700000D03*
X76362500Y-125300000D03*
X78237500Y-125300000D03*
D33*
X66744605Y-73080739D03*
D34*
X65474605Y-73080739D03*
X64204605Y-73080739D03*
X62934605Y-73080739D03*
D33*
X62934605Y-78480739D03*
X64204605Y-78480739D03*
X65474605Y-78480739D03*
X66744605Y-78480739D03*
X58812733Y-73100440D03*
D34*
X57542733Y-73100440D03*
X56272733Y-73100440D03*
X55002733Y-73100440D03*
D33*
X55002733Y-78500440D03*
X56272733Y-78500440D03*
X57542733Y-78500440D03*
X58812733Y-78500440D03*
D35*
X85800000Y-105605000D03*
D36*
X85800000Y-104335000D03*
X85800000Y-103065000D03*
X85800000Y-101795000D03*
D35*
X80400000Y-101795000D03*
X80400000Y-103065000D03*
X80400000Y-104335000D03*
X80400000Y-105605000D03*
D37*
X82200000Y-96875000D03*
X82200000Y-96225000D03*
X82200000Y-95575000D03*
X82200000Y-94925000D03*
X77800000Y-94925000D03*
D38*
X77800000Y-95575000D03*
D37*
X77800000Y-96225000D03*
X77800000Y-96875000D03*
D39*
X58969208Y-113209399D03*
X59604208Y-113209399D03*
X60239208Y-113209399D03*
X60874208Y-113209399D03*
X61509208Y-113209399D03*
X62144208Y-113209399D03*
X62779208Y-113209399D03*
X63414208Y-113209399D03*
X63414208Y-108009399D03*
X62779208Y-108009399D03*
X62144208Y-108009399D03*
X61509208Y-108009399D03*
X60874208Y-108009399D03*
X60239208Y-108009399D03*
X59604208Y-108009399D03*
X58969208Y-108009399D03*
D35*
X101800000Y-91905000D03*
D36*
X101800000Y-90635000D03*
X101800000Y-89365000D03*
X101800000Y-88095000D03*
D35*
X96400000Y-88095000D03*
X96400000Y-89365000D03*
X96400000Y-90635000D03*
X96400000Y-91905000D03*
D40*
X84700000Y-126100000D03*
X85350000Y-126100000D03*
X86000000Y-126100000D03*
X86650000Y-126100000D03*
X87300000Y-126100000D03*
D41*
X82925000Y-126100000D03*
X89075000Y-126100000D03*
D42*
X83925000Y-128150000D03*
X88075000Y-128150000D03*
D14*
X75700000Y-82062500D03*
X75700000Y-83937500D03*
D18*
X58387500Y-122590000D03*
X56512500Y-122590000D03*
D16*
X85962500Y-108900000D03*
X87837500Y-108900000D03*
X71462500Y-97800000D03*
X73337500Y-97800000D03*
D43*
X96916497Y-99266761D03*
X96916497Y-100216761D03*
X96916497Y-101166761D03*
X99536497Y-101166761D03*
X99536497Y-99266761D03*
X99937593Y-104990368D03*
X99937593Y-105940368D03*
X99937593Y-106890368D03*
X102557593Y-106890368D03*
X102557593Y-104990368D03*
D44*
X67150000Y-97815000D03*
X67150000Y-96545000D03*
X67150000Y-95275000D03*
X67150000Y-94005000D03*
X67150000Y-92735000D03*
X67150000Y-91465000D03*
X67150000Y-90195000D03*
X67150000Y-88925000D03*
X67150000Y-87655000D03*
X67150000Y-86385000D03*
X57850000Y-86385000D03*
X57850000Y-87655000D03*
X57850000Y-88925000D03*
X57850000Y-90195000D03*
X57850000Y-91465000D03*
X57850000Y-92735000D03*
X57850000Y-94005000D03*
X57850000Y-95275000D03*
X57850000Y-96545000D03*
X57850000Y-97815000D03*
D45*
X97950000Y-80900000D03*
X98900000Y-80900000D03*
X99850000Y-80900000D03*
X99850000Y-78300000D03*
X97950000Y-78300000D03*
D46*
X89450000Y-62500000D03*
X88500000Y-62500000D03*
X87550000Y-62500000D03*
X87550000Y-65100000D03*
X89450000Y-65100000D03*
D45*
X87450000Y-79300000D03*
X88400000Y-79300000D03*
X89350000Y-79300000D03*
X89350000Y-76700000D03*
X87450000Y-76700000D03*
D46*
X97850000Y-62500000D03*
X96900000Y-62500000D03*
X95950000Y-62500000D03*
X95950000Y-65100000D03*
X97850000Y-65100000D03*
X80950000Y-81900000D03*
X80000000Y-81900000D03*
X79050000Y-81900000D03*
X79050000Y-84500000D03*
X80950000Y-84500000D03*
X80950000Y-64100000D03*
X80000000Y-64100000D03*
X79050000Y-64100000D03*
X79050000Y-66700000D03*
X80950000Y-66700000D03*
M02*
