M48
; DRILL file {KiCad 7.0.11+1} date Tue 07 May 2024 09:39:46 AM EDT
; FORMAT={-:-/ absolute / inch / decimal}
; #@! TF.CreationDate,2024-05-07T09:39:46-04:00
; #@! TF.GenerationSoftware,Kicad,Pcbnew,7.0.11+1
; #@! TF.FileFunction,Plated,1,4,PTH
FMAT,2
INCH
; #@! TA.AperFunction,Plated,PTH,ViaDrill
T1C0.0150
; #@! TA.AperFunction,Plated,PTH,ComponentDrill
T2C0.0295
; #@! TA.AperFunction,Plated,PTH,ComponentDrill
T3C0.0315
; #@! TA.AperFunction,Plated,PTH,ComponentDrill
T4C0.0394
; #@! TA.AperFunction,Plated,PTH,ComponentDrill
T5C0.0472
%
G90
G05
T1
X2.0984Y-2.878
X2.1027Y-2.6718
X2.122Y-3.437
X2.1575Y-4.8268
X2.164Y-3.848
X2.1732Y-3.2126
X2.2096Y-3.3494
X2.3543Y-2.7992
X2.3661Y-3.3228
X2.3693Y-4.3429
X2.3735Y-2.9285
X2.3797Y-3.5514
X2.3953Y-3.7504
X2.4134Y-2.6718
X2.4134Y-2.878
X2.4553Y-3.801
X2.4721Y-4.5279
X2.4764Y-3.2323
X2.4803Y-3.6535
X2.5358Y-3.7
X2.5512Y-4.8268
X2.6836Y-2.6718
X2.689Y-3.2323
X2.6941Y-4.887
X2.7441Y-4.6496
X2.7637Y-4.5315
X2.7702Y-3.9306
X2.8189Y-3.5906
X2.8214Y-4.9968
X2.8885Y-3.9894
X2.9173Y-2.3346
X2.9488Y-3.8504
X2.9528Y-2.5379
X2.9528Y-2.6117
X2.9528Y-5.0
X2.9552Y-4.1314
X2.9567Y-3.685
X2.9646Y-2.9134
X2.9803Y-3.8031
X3.0512Y-3.1614
X3.0531Y-3.5161
X3.0576Y-3.03
X3.0583Y-3.3366
X3.078Y-4.3971
X3.078Y-4.4483
X3.078Y-4.4975
X3.078Y-4.7495
X3.122Y-2.7426
X3.122Y-2.8164
X3.1272Y-4.4975
X3.1272Y-4.5467
X3.1272Y-4.596
X3.1272Y-4.7495
X3.1292Y-4.4464
X3.1784Y-4.4975
X3.1784Y-4.5467
X3.1784Y-4.5979
X3.2276Y-4.4956
X3.2276Y-4.5467
X3.2276Y-4.596
X3.248Y-3.2244
X3.248Y-3.4488
X3.2505Y-3.0448
X3.2559Y-2.4884
X3.315Y-3.563
X3.315Y-3.7205
X3.3189Y-2.6339
X3.3799Y-3.1004
X3.3858Y-3.7244
X3.3937Y-2.8307
X3.4473Y-2.7441
X3.4646Y-4.8819
X3.4828Y-3.3031
X3.4843Y-4.1929
X3.5212Y-2.7441
X3.5566Y-3.3031
X3.5827Y-2.8937
X3.5947Y-2.4884
X3.6024Y-3.9094
X3.6535Y-2.6339
X3.7362Y-4.134
X3.7402Y-3.0709
X3.7522Y-3.8425
X3.7781Y-2.7441
X3.7953Y-2.9567
X3.8519Y-2.7441
X3.9055Y-3.5449
X3.9395Y-3.3898
X3.9882Y-2.9567
X3.9882Y-3.2323
X3.9882Y-3.3071
X4.0535Y-4.3441
X4.0562Y-4.04
X4.0884Y-3.1514
X4.0945Y-2.252
X4.1266Y-3.7723
X4.1634Y-3.6614
X4.1751Y-4.2654
T2
X2.1693Y-2.2165
X2.1693Y-2.3165
X2.1693Y-2.4165
X2.1693Y-2.5165
X2.374Y-2.2165
X2.374Y-2.3165
X2.374Y-2.4165
X2.374Y-2.5165
X2.5787Y-2.2165
X2.5787Y-2.3165
X2.5787Y-2.4165
X2.5787Y-2.5165
X2.7795Y-2.2165
X2.7795Y-2.3165
X2.7795Y-2.4165
X2.7795Y-2.5165
X3.5071Y-2.1063
X3.6071Y-2.1063
X3.7071Y-2.1063
X3.8071Y-2.1063
T3
X2.2626Y-4.6531
X2.4547Y-4.6531
T4
X2.1535Y-5.0276
X2.2535Y-5.0276
X2.3535Y-5.0276
X2.4535Y-5.0276
X2.5535Y-5.0276
X2.6535Y-5.0276
T5
G00X3.7598Y-4.9193
M15
G01X3.7598Y-4.9783
M16
G05
G00X3.9764Y-4.6732
M15
G01X3.8976Y-4.6732
M16
G05
G00X3.9626Y-4.9094
M15
G01X3.9114Y-4.9094
M16
G05
G00X4.1142Y-4.9193
M15
G01X4.1142Y-4.9783
M16
G05
M30
