G04 #@! TF.GenerationSoftware,KiCad,Pcbnew,7.0.11+1*
G04 #@! TF.CreationDate,2024-05-07T09:39:49-04:00*
G04 #@! TF.ProjectId,mystat,6d797374-6174-42e6-9b69-6361645f7063,rev?*
G04 #@! TF.SameCoordinates,Original*
G04 #@! TF.FileFunction,Copper,L3,Inr*
G04 #@! TF.FilePolarity,Positive*
%FSLAX46Y46*%
G04 Gerber Fmt 4.6, Leading zero omitted, Abs format (unit mm)*
G04 Created by KiCad (PCBNEW 7.0.11+1) date 2024-05-07 09:39:49*
%MOMM*%
%LPD*%
G01*
G04 APERTURE LIST*
G04 #@! TA.AperFunction,ComponentPad*
%ADD10C,1.500000*%
G04 #@! TD*
G04 #@! TA.AperFunction,ComponentPad*
%ADD11R,1.350000X1.350000*%
G04 #@! TD*
G04 #@! TA.AperFunction,ComponentPad*
%ADD12O,1.350000X1.350000*%
G04 #@! TD*
G04 #@! TA.AperFunction,ComponentPad*
%ADD13O,4.000000X2.000000*%
G04 #@! TD*
G04 #@! TA.AperFunction,ComponentPad*
%ADD14O,3.300000X2.000000*%
G04 #@! TD*
G04 #@! TA.AperFunction,ComponentPad*
%ADD15O,2.000000X3.500000*%
G04 #@! TD*
G04 #@! TA.AperFunction,ComponentPad*
%ADD16R,1.700000X1.700000*%
G04 #@! TD*
G04 #@! TA.AperFunction,ComponentPad*
%ADD17O,1.700000X1.700000*%
G04 #@! TD*
G04 #@! TA.AperFunction,ViaPad*
%ADD18C,0.762000*%
G04 #@! TD*
G04 APERTURE END LIST*
D10*
X57470000Y-118190000D03*
X62350000Y-118190000D03*
D11*
X55100000Y-56300000D03*
D12*
X55100000Y-58840000D03*
X55100000Y-61380000D03*
X55100000Y-63920000D03*
D11*
X96700000Y-53500000D03*
D12*
X94160000Y-53500000D03*
X91620000Y-53500000D03*
X89080000Y-53500000D03*
D11*
X60300000Y-56300000D03*
D12*
X60300000Y-58840000D03*
X60300000Y-61380000D03*
X60300000Y-63920000D03*
D11*
X70600000Y-56300000D03*
D12*
X70600000Y-58840000D03*
X70600000Y-61380000D03*
X70600000Y-63920000D03*
D11*
X65500000Y-56300000D03*
D12*
X65500000Y-58840000D03*
X65500000Y-61380000D03*
X65500000Y-63920000D03*
D13*
X100000000Y-118700000D03*
D14*
X100000000Y-124700000D03*
D15*
X104500000Y-125700000D03*
X95500000Y-125700000D03*
D16*
X67400000Y-127700000D03*
D17*
X64860000Y-127700000D03*
X62320000Y-127700000D03*
X59780000Y-127700000D03*
X57240000Y-127700000D03*
X54700000Y-127700000D03*
D18*
X79430943Y-120637404D03*
X78180943Y-120637404D03*
X79430943Y-116737404D03*
X80730943Y-116787404D03*
X81980943Y-116737404D03*
X81980943Y-115487404D03*
X80730943Y-115487404D03*
X79430943Y-115487404D03*
X78180943Y-114237404D03*
X79430943Y-114237404D03*
X81980943Y-114187404D03*
X80730943Y-114237404D03*
X79480943Y-112937404D03*
X78180943Y-112987404D03*
X78180943Y-111687404D03*
X95305758Y-97600000D03*
X71662500Y-126917500D03*
X54965600Y-97739200D03*
X61300000Y-67862500D03*
X86000000Y-94600000D03*
X54800000Y-122600000D03*
X88000000Y-124000000D03*
X74900000Y-97800000D03*
X94900000Y-105002868D03*
X75000000Y-66337500D03*
X75062500Y-104937500D03*
X84300000Y-66900000D03*
X79300000Y-71537500D03*
X92800000Y-66900000D03*
X104000000Y-57200000D03*
X102959632Y-110340368D03*
X60180601Y-110309399D03*
X55200000Y-81600000D03*
X95962500Y-69700000D03*
X71600000Y-91200000D03*
X75000000Y-127000000D03*
X87562500Y-69700000D03*
X106047593Y-108340368D03*
X91000000Y-73500000D03*
X75100000Y-93600000D03*
X95000000Y-78000000D03*
X91500000Y-99300000D03*
X90337500Y-83900000D03*
X77550000Y-89310000D03*
X64800000Y-122600000D03*
X99200000Y-90040000D03*
X77680000Y-84750000D03*
X53407733Y-67862940D03*
X101300000Y-75100000D03*
X62791708Y-115009399D03*
X103026497Y-102616761D03*
X53300000Y-73100000D03*
X62900000Y-82100000D03*
X101300000Y-84000000D03*
X61300000Y-73100000D03*
X75700000Y-96600000D03*
X88462500Y-83900000D03*
X100062500Y-86100000D03*
X82700000Y-63206263D03*
X77500000Y-80300000D03*
X91306263Y-63206263D03*
X75000000Y-64462500D03*
X104816761Y-95816761D03*
X89437500Y-69700000D03*
X84200000Y-90500000D03*
X96400000Y-75100000D03*
X97837500Y-69700000D03*
X79300000Y-69662500D03*
X86200000Y-71900000D03*
X105750000Y-93000000D03*
X84200000Y-94500000D03*
X68300000Y-82100000D03*
X88500000Y-106500000D03*
X68430000Y-124130000D03*
X70362500Y-99837500D03*
X60100000Y-84400000D03*
X73367972Y-101332028D03*
X77662500Y-76962500D03*
X82562500Y-77337500D03*
X60286560Y-74383440D03*
X101300000Y-82100000D03*
X103845011Y-80045011D03*
X59800000Y-71100000D03*
X85850000Y-78750000D03*
X75300000Y-74000000D03*
X82500000Y-87600000D03*
X82500000Y-81900000D03*
X68162500Y-67862500D03*
X60840000Y-95260000D03*
X69700000Y-118100000D03*
X70199000Y-115099000D03*
X62365000Y-96545000D03*
X74100000Y-59300000D03*
X64410000Y-93980000D03*
X63000000Y-92800000D03*
X60445000Y-90205000D03*
X53900000Y-87300000D03*
X56125000Y-85075000D03*
G04 #@! TA.AperFunction,Conductor*
G36*
X109891621Y-50070502D02*
G01*
X109938114Y-50124158D01*
X109949500Y-50176500D01*
X109949500Y-130823500D01*
X109929498Y-130891621D01*
X109875842Y-130938114D01*
X109823500Y-130949500D01*
X50176500Y-130949500D01*
X50108379Y-130929498D01*
X50061886Y-130875842D01*
X50050500Y-130823500D01*
X50050500Y-127700004D01*
X53590768Y-127700004D01*
X53609654Y-127903819D01*
X53623932Y-127954000D01*
X53665672Y-128100701D01*
X53756912Y-128283935D01*
X53756913Y-128283936D01*
X53880266Y-128447284D01*
X54031536Y-128585185D01*
X54205566Y-128692940D01*
X54205568Y-128692940D01*
X54205573Y-128692944D01*
X54396444Y-128766888D01*
X54597653Y-128804500D01*
X54597655Y-128804500D01*
X54802345Y-128804500D01*
X54802347Y-128804500D01*
X55003556Y-128766888D01*
X55194427Y-128692944D01*
X55368462Y-128585186D01*
X55519732Y-128447285D01*
X55643088Y-128283935D01*
X55734328Y-128100701D01*
X55790345Y-127903821D01*
X55796640Y-127835880D01*
X55809232Y-127700004D01*
X56130768Y-127700004D01*
X56149654Y-127903819D01*
X56163932Y-127954000D01*
X56205672Y-128100701D01*
X56296912Y-128283935D01*
X56296913Y-128283936D01*
X56420266Y-128447284D01*
X56571536Y-128585185D01*
X56745566Y-128692940D01*
X56745568Y-128692940D01*
X56745573Y-128692944D01*
X56936444Y-128766888D01*
X57137653Y-128804500D01*
X57137655Y-128804500D01*
X57342345Y-128804500D01*
X57342347Y-128804500D01*
X57543556Y-128766888D01*
X57734427Y-128692944D01*
X57908462Y-128585186D01*
X58059732Y-128447285D01*
X58183088Y-128283935D01*
X58274328Y-128100701D01*
X58330345Y-127903821D01*
X58336640Y-127835880D01*
X58349232Y-127700004D01*
X58670768Y-127700004D01*
X58689654Y-127903819D01*
X58703932Y-127954000D01*
X58745672Y-128100701D01*
X58836912Y-128283935D01*
X58836913Y-128283936D01*
X58960266Y-128447284D01*
X59111536Y-128585185D01*
X59285566Y-128692940D01*
X59285568Y-128692940D01*
X59285573Y-128692944D01*
X59476444Y-128766888D01*
X59677653Y-128804500D01*
X59677655Y-128804500D01*
X59882345Y-128804500D01*
X59882347Y-128804500D01*
X60083556Y-128766888D01*
X60274427Y-128692944D01*
X60448462Y-128585186D01*
X60599732Y-128447285D01*
X60723088Y-128283935D01*
X60814328Y-128100701D01*
X60870345Y-127903821D01*
X60876640Y-127835880D01*
X60889232Y-127700004D01*
X60889232Y-127699995D01*
X60870345Y-127496180D01*
X60870345Y-127496179D01*
X60856068Y-127445999D01*
X61244450Y-127445999D01*
X61244451Y-127446000D01*
X61888884Y-127446000D01*
X61860507Y-127490156D01*
X61820000Y-127628111D01*
X61820000Y-127771889D01*
X61860507Y-127909844D01*
X61888884Y-127954000D01*
X61244451Y-127954000D01*
X61286138Y-128100514D01*
X61286140Y-128100519D01*
X61377340Y-128283672D01*
X61500637Y-128446946D01*
X61651838Y-128584784D01*
X61825796Y-128692493D01*
X61825803Y-128692496D01*
X62016582Y-128766405D01*
X62065999Y-128775642D01*
X62066000Y-128775642D01*
X62066000Y-128133674D01*
X62177685Y-128184680D01*
X62284237Y-128200000D01*
X62355763Y-128200000D01*
X62462315Y-128184680D01*
X62574000Y-128133674D01*
X62574000Y-128775642D01*
X62623417Y-128766405D01*
X62623418Y-128766405D01*
X62814196Y-128692496D01*
X62814203Y-128692493D01*
X62988161Y-128584784D01*
X63139362Y-128446946D01*
X63262659Y-128283672D01*
X63353859Y-128100519D01*
X63353861Y-128100514D01*
X63395549Y-127954000D01*
X62751116Y-127954000D01*
X62779493Y-127909844D01*
X62820000Y-127771889D01*
X62820000Y-127700004D01*
X63750768Y-127700004D01*
X63769654Y-127903819D01*
X63783932Y-127954000D01*
X63825672Y-128100701D01*
X63916912Y-128283935D01*
X63916913Y-128283936D01*
X64040266Y-128447284D01*
X64191536Y-128585185D01*
X64365566Y-128692940D01*
X64365568Y-128692940D01*
X64365573Y-128692944D01*
X64556444Y-128766888D01*
X64757653Y-128804500D01*
X64757655Y-128804500D01*
X64962345Y-128804500D01*
X64962347Y-128804500D01*
X65163556Y-128766888D01*
X65354427Y-128692944D01*
X65528462Y-128585186D01*
X65539566Y-128575063D01*
X66295500Y-128575063D01*
X66295501Y-128575073D01*
X66310265Y-128649300D01*
X66366516Y-128733484D01*
X66450697Y-128789733D01*
X66450699Y-128789734D01*
X66524933Y-128804500D01*
X68275066Y-128804499D01*
X68275069Y-128804498D01*
X68275073Y-128804498D01*
X68324326Y-128794701D01*
X68349301Y-128789734D01*
X68433484Y-128733484D01*
X68489734Y-128649301D01*
X68504500Y-128575067D01*
X68504500Y-127700003D01*
X98944417Y-127700003D01*
X98964698Y-127905927D01*
X98964699Y-127905933D01*
X98964700Y-127905934D01*
X99023726Y-128100519D01*
X99024768Y-128103954D01*
X99120970Y-128283935D01*
X99122315Y-128286450D01*
X99253590Y-128446410D01*
X99413550Y-128577685D01*
X99596046Y-128675232D01*
X99794066Y-128735300D01*
X99794070Y-128735300D01*
X99794072Y-128735301D01*
X99881789Y-128743940D01*
X99948392Y-128750500D01*
X99948401Y-128750500D01*
X100051599Y-128750500D01*
X100051608Y-128750500D01*
X100139331Y-128741859D01*
X100205927Y-128735301D01*
X100205928Y-128735300D01*
X100205934Y-128735300D01*
X100403954Y-128675232D01*
X100586450Y-128577685D01*
X100746410Y-128446410D01*
X100877685Y-128286450D01*
X100975232Y-128103954D01*
X101035300Y-127905934D01*
X101035509Y-127903819D01*
X101055583Y-127700003D01*
X101055583Y-127699996D01*
X101035301Y-127494072D01*
X101035300Y-127494070D01*
X101035300Y-127494066D01*
X100975232Y-127296046D01*
X100877685Y-127113550D01*
X100746410Y-126953590D01*
X100586450Y-126822315D01*
X100586448Y-126822314D01*
X100586447Y-126822313D01*
X100403954Y-126724768D01*
X100347038Y-126707503D01*
X100205934Y-126664700D01*
X100205933Y-126664699D01*
X100205927Y-126664698D01*
X100051614Y-126649500D01*
X100051608Y-126649500D01*
X99948392Y-126649500D01*
X99948385Y-126649500D01*
X99794072Y-126664698D01*
X99596045Y-126724768D01*
X99413552Y-126822313D01*
X99253590Y-126953590D01*
X99122313Y-127113552D01*
X99024768Y-127296045D01*
X98964698Y-127494072D01*
X98944417Y-127699996D01*
X98944417Y-127700003D01*
X68504500Y-127700003D01*
X68504499Y-126824934D01*
X68504498Y-126824930D01*
X68504498Y-126824926D01*
X68489734Y-126750699D01*
X68433483Y-126666515D01*
X68349302Y-126610266D01*
X68275067Y-126595500D01*
X66524936Y-126595500D01*
X66524926Y-126595501D01*
X66450699Y-126610265D01*
X66366515Y-126666516D01*
X66310266Y-126750697D01*
X66295500Y-126824930D01*
X66295500Y-128575063D01*
X65539566Y-128575063D01*
X65679732Y-128447285D01*
X65803088Y-128283935D01*
X65894328Y-128100701D01*
X65950345Y-127903821D01*
X65956640Y-127835880D01*
X65969232Y-127700004D01*
X65969232Y-127699995D01*
X65950345Y-127496180D01*
X65950345Y-127496179D01*
X65894328Y-127299299D01*
X65803088Y-127116065D01*
X65757108Y-127055177D01*
X65679733Y-126952715D01*
X65528463Y-126814814D01*
X65354433Y-126707059D01*
X65354428Y-126707057D01*
X65354427Y-126707056D01*
X65271196Y-126674812D01*
X65163559Y-126633113D01*
X65163560Y-126633113D01*
X65163557Y-126633112D01*
X65163556Y-126633112D01*
X64962347Y-126595500D01*
X64757653Y-126595500D01*
X64603280Y-126624357D01*
X64556439Y-126633113D01*
X64365577Y-126707054D01*
X64365566Y-126707059D01*
X64191536Y-126814814D01*
X64040266Y-126952715D01*
X63916913Y-127116063D01*
X63825671Y-127299301D01*
X63769654Y-127496180D01*
X63750768Y-127699995D01*
X63750768Y-127700004D01*
X62820000Y-127700004D01*
X62820000Y-127628111D01*
X62779493Y-127490156D01*
X62751116Y-127446000D01*
X63395549Y-127446000D01*
X63395549Y-127445999D01*
X63353861Y-127299485D01*
X63353859Y-127299480D01*
X63262659Y-127116327D01*
X63139362Y-126953053D01*
X62988161Y-126815215D01*
X62814203Y-126707506D01*
X62814196Y-126707503D01*
X62623424Y-126633596D01*
X62574000Y-126624357D01*
X62574000Y-127266325D01*
X62462315Y-127215320D01*
X62355763Y-127200000D01*
X62284237Y-127200000D01*
X62177685Y-127215320D01*
X62066000Y-127266325D01*
X62066000Y-126624357D01*
X62016575Y-126633596D01*
X61825803Y-126707503D01*
X61825796Y-126707506D01*
X61651838Y-126815215D01*
X61500637Y-126953053D01*
X61377340Y-127116327D01*
X61286140Y-127299480D01*
X61286138Y-127299485D01*
X61244450Y-127445999D01*
X60856068Y-127445999D01*
X60814328Y-127299299D01*
X60723088Y-127116065D01*
X60677108Y-127055177D01*
X60599733Y-126952715D01*
X60448463Y-126814814D01*
X60274433Y-126707059D01*
X60274428Y-126707057D01*
X60274427Y-126707056D01*
X60191196Y-126674812D01*
X60083559Y-126633113D01*
X60083560Y-126633113D01*
X60083557Y-126633112D01*
X60083556Y-126633112D01*
X59882347Y-126595500D01*
X59677653Y-126595500D01*
X59523280Y-126624357D01*
X59476439Y-126633113D01*
X59285577Y-126707054D01*
X59285566Y-126707059D01*
X59111536Y-126814814D01*
X58960266Y-126952715D01*
X58836913Y-127116063D01*
X58745671Y-127299301D01*
X58689654Y-127496180D01*
X58670768Y-127699995D01*
X58670768Y-127700004D01*
X58349232Y-127700004D01*
X58349232Y-127699995D01*
X58330345Y-127496180D01*
X58330345Y-127496179D01*
X58274328Y-127299299D01*
X58183088Y-127116065D01*
X58137108Y-127055177D01*
X58059733Y-126952715D01*
X57908463Y-126814814D01*
X57734433Y-126707059D01*
X57734428Y-126707057D01*
X57734427Y-126707056D01*
X57651196Y-126674812D01*
X57543559Y-126633113D01*
X57543560Y-126633113D01*
X57543557Y-126633112D01*
X57543556Y-126633112D01*
X57342347Y-126595500D01*
X57137653Y-126595500D01*
X56983280Y-126624357D01*
X56936439Y-126633113D01*
X56745577Y-126707054D01*
X56745566Y-126707059D01*
X56571536Y-126814814D01*
X56420266Y-126952715D01*
X56296913Y-127116063D01*
X56205671Y-127299301D01*
X56149654Y-127496180D01*
X56130768Y-127699995D01*
X56130768Y-127700004D01*
X55809232Y-127700004D01*
X55809232Y-127699995D01*
X55790345Y-127496180D01*
X55790345Y-127496179D01*
X55734328Y-127299299D01*
X55643088Y-127116065D01*
X55597108Y-127055177D01*
X55519733Y-126952715D01*
X55368463Y-126814814D01*
X55194433Y-126707059D01*
X55194428Y-126707057D01*
X55194427Y-126707056D01*
X55111196Y-126674812D01*
X55003559Y-126633113D01*
X55003560Y-126633113D01*
X55003557Y-126633112D01*
X55003556Y-126633112D01*
X54802347Y-126595500D01*
X54597653Y-126595500D01*
X54443280Y-126624357D01*
X54396439Y-126633113D01*
X54205577Y-126707054D01*
X54205566Y-126707059D01*
X54031536Y-126814814D01*
X53880266Y-126952715D01*
X53756913Y-127116063D01*
X53665671Y-127299301D01*
X53609654Y-127496180D01*
X53590768Y-127699995D01*
X53590768Y-127700004D01*
X50050500Y-127700004D01*
X50050500Y-126506316D01*
X94246000Y-126506316D01*
X94261164Y-126674812D01*
X94261165Y-126674819D01*
X94321213Y-126892396D01*
X94321218Y-126892410D01*
X94419150Y-127095769D01*
X94419154Y-127095776D01*
X94551831Y-127278390D01*
X94551832Y-127278391D01*
X94714983Y-127434380D01*
X94903363Y-127558729D01*
X94903375Y-127558735D01*
X95110913Y-127647441D01*
X95110930Y-127647447D01*
X95246000Y-127678275D01*
X95246000Y-126994224D01*
X95343369Y-127034556D01*
X95500000Y-127055177D01*
X95656631Y-127034556D01*
X95754000Y-126994224D01*
X95754000Y-127681046D01*
X95780160Y-127677503D01*
X95780170Y-127677501D01*
X95994846Y-127607748D01*
X96193615Y-127500785D01*
X96193622Y-127500781D01*
X96370094Y-127360050D01*
X96370096Y-127360049D01*
X96518607Y-127190063D01*
X96634378Y-126996296D01*
X96634380Y-126996292D01*
X96713697Y-126784954D01*
X96754000Y-126562865D01*
X96754000Y-126506316D01*
X103246000Y-126506316D01*
X103261164Y-126674812D01*
X103261165Y-126674819D01*
X103321213Y-126892396D01*
X103321218Y-126892410D01*
X103419150Y-127095769D01*
X103419154Y-127095776D01*
X103551831Y-127278390D01*
X103551832Y-127278391D01*
X103714983Y-127434380D01*
X103903363Y-127558729D01*
X103903375Y-127558735D01*
X104110913Y-127647441D01*
X104110930Y-127647447D01*
X104246000Y-127678275D01*
X104246000Y-126994224D01*
X104343369Y-127034556D01*
X104500000Y-127055177D01*
X104656631Y-127034556D01*
X104754000Y-126994224D01*
X104754000Y-127681046D01*
X104780160Y-127677503D01*
X104780170Y-127677501D01*
X104994846Y-127607748D01*
X105193615Y-127500785D01*
X105193622Y-127500781D01*
X105370094Y-127360050D01*
X105370096Y-127360049D01*
X105518607Y-127190063D01*
X105634378Y-126996296D01*
X105634380Y-126996292D01*
X105713697Y-126784954D01*
X105754000Y-126562865D01*
X105754000Y-125954000D01*
X105100000Y-125954000D01*
X105100000Y-125446000D01*
X105754000Y-125446000D01*
X105754000Y-124893686D01*
X105753999Y-124893683D01*
X105738835Y-124725187D01*
X105738834Y-124725180D01*
X105678786Y-124507603D01*
X105678781Y-124507589D01*
X105580849Y-124304230D01*
X105580845Y-124304223D01*
X105448168Y-124121609D01*
X105448167Y-124121608D01*
X105285016Y-123965619D01*
X105096636Y-123841270D01*
X105096633Y-123841269D01*
X104889068Y-123752552D01*
X104754000Y-123721724D01*
X104754000Y-124405775D01*
X104656631Y-124365444D01*
X104500000Y-124344823D01*
X104343369Y-124365444D01*
X104246000Y-124405775D01*
X104246000Y-123718953D01*
X104219827Y-123722498D01*
X104005153Y-123792251D01*
X103806384Y-123899214D01*
X103806377Y-123899218D01*
X103629905Y-124039949D01*
X103629903Y-124039950D01*
X103481392Y-124209936D01*
X103365621Y-124403703D01*
X103365619Y-124403707D01*
X103286302Y-124615045D01*
X103246000Y-124837134D01*
X103246000Y-125446000D01*
X103900000Y-125446000D01*
X103900000Y-125954000D01*
X103246000Y-125954000D01*
X103246000Y-126506316D01*
X96754000Y-126506316D01*
X96754000Y-125954000D01*
X96100000Y-125954000D01*
X96100000Y-125446000D01*
X96754000Y-125446000D01*
X96754000Y-124954000D01*
X98118954Y-124954000D01*
X98122498Y-124980172D01*
X98192251Y-125194846D01*
X98299214Y-125393615D01*
X98299218Y-125393622D01*
X98439949Y-125570094D01*
X98439950Y-125570096D01*
X98609936Y-125718607D01*
X98803703Y-125834378D01*
X98803707Y-125834380D01*
X99015045Y-125913697D01*
X99237135Y-125954000D01*
X99746000Y-125954000D01*
X99746000Y-125300000D01*
X100254000Y-125300000D01*
X100254000Y-125954000D01*
X100706314Y-125954000D01*
X100706316Y-125953999D01*
X100874812Y-125938835D01*
X100874819Y-125938834D01*
X101092396Y-125878786D01*
X101092410Y-125878781D01*
X101295769Y-125780849D01*
X101295776Y-125780845D01*
X101478390Y-125648168D01*
X101478391Y-125648167D01*
X101634380Y-125485016D01*
X101758729Y-125296636D01*
X101758730Y-125296633D01*
X101847447Y-125089068D01*
X101878275Y-124954000D01*
X101194225Y-124954000D01*
X101234556Y-124856631D01*
X101255177Y-124700000D01*
X101234556Y-124543369D01*
X101194225Y-124446000D01*
X101881046Y-124446000D01*
X101877501Y-124419827D01*
X101807748Y-124205153D01*
X101700785Y-124006384D01*
X101700781Y-124006377D01*
X101560050Y-123829905D01*
X101560049Y-123829903D01*
X101390063Y-123681392D01*
X101196296Y-123565621D01*
X101196292Y-123565619D01*
X100984954Y-123486302D01*
X100762865Y-123446000D01*
X100254000Y-123446000D01*
X100254000Y-124100000D01*
X99746000Y-124100000D01*
X99746000Y-123446000D01*
X99293683Y-123446000D01*
X99125187Y-123461164D01*
X99125180Y-123461165D01*
X98907603Y-123521213D01*
X98907589Y-123521218D01*
X98704230Y-123619150D01*
X98704223Y-123619154D01*
X98521609Y-123751831D01*
X98521608Y-123751832D01*
X98365619Y-123914983D01*
X98241270Y-124103363D01*
X98241269Y-124103366D01*
X98152552Y-124310931D01*
X98121724Y-124445999D01*
X98121725Y-124446000D01*
X98805775Y-124446000D01*
X98765444Y-124543369D01*
X98744823Y-124700000D01*
X98765444Y-124856631D01*
X98805775Y-124954000D01*
X98118954Y-124954000D01*
X96754000Y-124954000D01*
X96754000Y-124893686D01*
X96753999Y-124893683D01*
X96738835Y-124725187D01*
X96738834Y-124725180D01*
X96678786Y-124507603D01*
X96678781Y-124507589D01*
X96580849Y-124304230D01*
X96580845Y-124304223D01*
X96448168Y-124121609D01*
X96448167Y-124121608D01*
X96285016Y-123965619D01*
X96096636Y-123841270D01*
X96096633Y-123841269D01*
X95889068Y-123752552D01*
X95754000Y-123721724D01*
X95754000Y-124405775D01*
X95656631Y-124365444D01*
X95500000Y-124344823D01*
X95343369Y-124365444D01*
X95246000Y-124405775D01*
X95246000Y-123718953D01*
X95219827Y-123722498D01*
X95005153Y-123792251D01*
X94806384Y-123899214D01*
X94806377Y-123899218D01*
X94629905Y-124039949D01*
X94629903Y-124039950D01*
X94481392Y-124209936D01*
X94365621Y-124403703D01*
X94365619Y-124403707D01*
X94286302Y-124615045D01*
X94246000Y-124837134D01*
X94246000Y-125446000D01*
X94900000Y-125446000D01*
X94900000Y-125954000D01*
X94246000Y-125954000D01*
X94246000Y-126506316D01*
X50050500Y-126506316D01*
X50050500Y-124130003D01*
X67789832Y-124130003D01*
X67808432Y-124283199D01*
X67839624Y-124365444D01*
X67863159Y-124427501D01*
X67950827Y-124554510D01*
X68066343Y-124656848D01*
X68202993Y-124728567D01*
X68352836Y-124765500D01*
X68352837Y-124765500D01*
X68507163Y-124765500D01*
X68507164Y-124765500D01*
X68657007Y-124728567D01*
X68793657Y-124656848D01*
X68909173Y-124554510D01*
X68996841Y-124427501D01*
X69051566Y-124283202D01*
X69051566Y-124283201D01*
X69051567Y-124283199D01*
X69070168Y-124130003D01*
X69070168Y-124129996D01*
X69051567Y-123976800D01*
X69000167Y-123841270D01*
X68996841Y-123832499D01*
X68995050Y-123829905D01*
X68969060Y-123792251D01*
X68909173Y-123705490D01*
X68793657Y-123603152D01*
X68657007Y-123531433D01*
X68657006Y-123531432D01*
X68657005Y-123531432D01*
X68507165Y-123494500D01*
X68507164Y-123494500D01*
X68352836Y-123494500D01*
X68352834Y-123494500D01*
X68202994Y-123531432D01*
X68066344Y-123603151D01*
X68066342Y-123603152D01*
X67950827Y-123705490D01*
X67863160Y-123832496D01*
X67808432Y-123976800D01*
X67789832Y-124129996D01*
X67789832Y-124130003D01*
X50050500Y-124130003D01*
X50050500Y-118190002D01*
X56460640Y-118190002D01*
X56480033Y-118386909D01*
X56480034Y-118386915D01*
X56480035Y-118386916D01*
X56537473Y-118576265D01*
X56630748Y-118750770D01*
X56756275Y-118903725D01*
X56909230Y-119029252D01*
X57083735Y-119122527D01*
X57273084Y-119179965D01*
X57273088Y-119179965D01*
X57273090Y-119179966D01*
X57469997Y-119199360D01*
X57470000Y-119199360D01*
X57470003Y-119199360D01*
X57666909Y-119179966D01*
X57666910Y-119179965D01*
X57666916Y-119179965D01*
X57856265Y-119122527D01*
X58030770Y-119029252D01*
X58183725Y-118903725D01*
X58309252Y-118750770D01*
X58402527Y-118576265D01*
X58459965Y-118386916D01*
X58473136Y-118253199D01*
X58479360Y-118190002D01*
X61340640Y-118190002D01*
X61360033Y-118386909D01*
X61360034Y-118386915D01*
X61360035Y-118386916D01*
X61417473Y-118576265D01*
X61510748Y-118750770D01*
X61636275Y-118903725D01*
X61789230Y-119029252D01*
X61963735Y-119122527D01*
X62153084Y-119179965D01*
X62153088Y-119179965D01*
X62153090Y-119179966D01*
X62349997Y-119199360D01*
X62350000Y-119199360D01*
X62350003Y-119199360D01*
X62546909Y-119179966D01*
X62546910Y-119179965D01*
X62546916Y-119179965D01*
X62736265Y-119122527D01*
X62910770Y-119029252D01*
X63063725Y-118903725D01*
X63184541Y-118756510D01*
X97741697Y-118756510D01*
X97756945Y-118869075D01*
X97772009Y-118980284D01*
X97841786Y-119195037D01*
X97841788Y-119195041D01*
X97841789Y-119195043D01*
X97948796Y-119393894D01*
X98021714Y-119485329D01*
X98089590Y-119570443D01*
X98259641Y-119719013D01*
X98453485Y-119834830D01*
X98453490Y-119834832D01*
X98453493Y-119834834D01*
X98453496Y-119834835D01*
X98664907Y-119914180D01*
X98887090Y-119954500D01*
X98887093Y-119954500D01*
X101056337Y-119954500D01*
X101056343Y-119954500D01*
X101224905Y-119939329D01*
X101442582Y-119879254D01*
X101646033Y-119781277D01*
X101828721Y-119648547D01*
X101984772Y-119485330D01*
X102109173Y-119296871D01*
X102197923Y-119089229D01*
X102248172Y-118869076D01*
X102258303Y-118643490D01*
X102227991Y-118419719D01*
X102217333Y-118386916D01*
X102158213Y-118204962D01*
X102158212Y-118204960D01*
X102158211Y-118204957D01*
X102051204Y-118006106D01*
X101910411Y-117829558D01*
X101910409Y-117829556D01*
X101740358Y-117680986D01*
X101546514Y-117565169D01*
X101546503Y-117565164D01*
X101335092Y-117485819D01*
X101112910Y-117445500D01*
X101112907Y-117445500D01*
X98943657Y-117445500D01*
X98901904Y-117449257D01*
X98775097Y-117460670D01*
X98775090Y-117460671D01*
X98557426Y-117520743D01*
X98557412Y-117520748D01*
X98353973Y-117618719D01*
X98353966Y-117618723D01*
X98171278Y-117751453D01*
X98171277Y-117751454D01*
X98015227Y-117914670D01*
X97890828Y-118103125D01*
X97890827Y-118103128D01*
X97802076Y-118310771D01*
X97751828Y-118530924D01*
X97742641Y-118735500D01*
X97741697Y-118756510D01*
X63184541Y-118756510D01*
X63189252Y-118750770D01*
X63282527Y-118576265D01*
X63339965Y-118386916D01*
X63353136Y-118253199D01*
X63359360Y-118190002D01*
X63359360Y-118189997D01*
X63350496Y-118100003D01*
X69059832Y-118100003D01*
X69078432Y-118253199D01*
X69121185Y-118365929D01*
X69133159Y-118397501D01*
X69220827Y-118524510D01*
X69336343Y-118626848D01*
X69472993Y-118698567D01*
X69622836Y-118735500D01*
X69622837Y-118735500D01*
X69777163Y-118735500D01*
X69777164Y-118735500D01*
X69927007Y-118698567D01*
X70063657Y-118626848D01*
X70179173Y-118524510D01*
X70266841Y-118397501D01*
X70321566Y-118253202D01*
X70321566Y-118253201D01*
X70321567Y-118253199D01*
X70340168Y-118100003D01*
X70340168Y-118099996D01*
X70321567Y-117946800D01*
X70309382Y-117914670D01*
X70266841Y-117802499D01*
X70179173Y-117675490D01*
X70063657Y-117573152D01*
X69927007Y-117501433D01*
X69927006Y-117501432D01*
X69927005Y-117501432D01*
X69777165Y-117464500D01*
X69777164Y-117464500D01*
X69622836Y-117464500D01*
X69622834Y-117464500D01*
X69472994Y-117501432D01*
X69336344Y-117573151D01*
X69336342Y-117573152D01*
X69220827Y-117675490D01*
X69133160Y-117802496D01*
X69078432Y-117946800D01*
X69059832Y-118099996D01*
X69059832Y-118100003D01*
X63350496Y-118100003D01*
X63339966Y-117993090D01*
X63339965Y-117993088D01*
X63339965Y-117993084D01*
X63282527Y-117803735D01*
X63189252Y-117629230D01*
X63063725Y-117476275D01*
X62910770Y-117350748D01*
X62736265Y-117257473D01*
X62546916Y-117200035D01*
X62546915Y-117200034D01*
X62546909Y-117200033D01*
X62350003Y-117180640D01*
X62349997Y-117180640D01*
X62153090Y-117200033D01*
X61963734Y-117257473D01*
X61789229Y-117350748D01*
X61636275Y-117476275D01*
X61510748Y-117629229D01*
X61417473Y-117803734D01*
X61360033Y-117993090D01*
X61340640Y-118189997D01*
X61340640Y-118190002D01*
X58479360Y-118190002D01*
X58479360Y-118189997D01*
X58459966Y-117993090D01*
X58459965Y-117993088D01*
X58459965Y-117993084D01*
X58402527Y-117803735D01*
X58309252Y-117629230D01*
X58183725Y-117476275D01*
X58030770Y-117350748D01*
X57856265Y-117257473D01*
X57666916Y-117200035D01*
X57666915Y-117200034D01*
X57666909Y-117200033D01*
X57470003Y-117180640D01*
X57469997Y-117180640D01*
X57273090Y-117200033D01*
X57083734Y-117257473D01*
X56909229Y-117350748D01*
X56756275Y-117476275D01*
X56630748Y-117629229D01*
X56537473Y-117803734D01*
X56480033Y-117993090D01*
X56460640Y-118189997D01*
X56460640Y-118190002D01*
X50050500Y-118190002D01*
X50050500Y-115099003D01*
X69558832Y-115099003D01*
X69577432Y-115252199D01*
X69620185Y-115364929D01*
X69632159Y-115396501D01*
X69719827Y-115523510D01*
X69835343Y-115625848D01*
X69971993Y-115697567D01*
X70121836Y-115734500D01*
X70121837Y-115734500D01*
X70276163Y-115734500D01*
X70276164Y-115734500D01*
X70426007Y-115697567D01*
X70562657Y-115625848D01*
X70678173Y-115523510D01*
X70765841Y-115396501D01*
X70820566Y-115252202D01*
X70820566Y-115252201D01*
X70820567Y-115252199D01*
X70839168Y-115099003D01*
X70839168Y-115098996D01*
X70820567Y-114945800D01*
X70808592Y-114914226D01*
X70765841Y-114801499D01*
X70678173Y-114674490D01*
X70562657Y-114572152D01*
X70426007Y-114500433D01*
X70426006Y-114500432D01*
X70426005Y-114500432D01*
X70276165Y-114463500D01*
X70276164Y-114463500D01*
X70121836Y-114463500D01*
X70121834Y-114463500D01*
X69971994Y-114500432D01*
X69835344Y-114572151D01*
X69835342Y-114572152D01*
X69719827Y-114674490D01*
X69632160Y-114801496D01*
X69577432Y-114945800D01*
X69558832Y-115098996D01*
X69558832Y-115099003D01*
X50050500Y-115099003D01*
X50050500Y-106500003D01*
X87859832Y-106500003D01*
X87878432Y-106653199D01*
X87921185Y-106765929D01*
X87933159Y-106797501D01*
X88020827Y-106924510D01*
X88136343Y-107026848D01*
X88272993Y-107098567D01*
X88422836Y-107135500D01*
X88422837Y-107135500D01*
X88577163Y-107135500D01*
X88577164Y-107135500D01*
X88727007Y-107098567D01*
X88863657Y-107026848D01*
X88979173Y-106924510D01*
X89066841Y-106797501D01*
X89121566Y-106653202D01*
X89121566Y-106653201D01*
X89121567Y-106653199D01*
X89140168Y-106500003D01*
X89140168Y-106499996D01*
X89121567Y-106346800D01*
X89109592Y-106315226D01*
X89066841Y-106202499D01*
X88979173Y-106075490D01*
X88863657Y-105973152D01*
X88727007Y-105901433D01*
X88727006Y-105901432D01*
X88727005Y-105901432D01*
X88577165Y-105864500D01*
X88577164Y-105864500D01*
X88422836Y-105864500D01*
X88422834Y-105864500D01*
X88272994Y-105901432D01*
X88136344Y-105973151D01*
X88136342Y-105973152D01*
X88020827Y-106075490D01*
X87933160Y-106202496D01*
X87878432Y-106346800D01*
X87859832Y-106499996D01*
X87859832Y-106500003D01*
X50050500Y-106500003D01*
X50050500Y-101332031D01*
X72727804Y-101332031D01*
X72746404Y-101485227D01*
X72789157Y-101597957D01*
X72801131Y-101629529D01*
X72888799Y-101756538D01*
X73004315Y-101858876D01*
X73140965Y-101930595D01*
X73290808Y-101967528D01*
X73290809Y-101967528D01*
X73445135Y-101967528D01*
X73445136Y-101967528D01*
X73594979Y-101930595D01*
X73731629Y-101858876D01*
X73847145Y-101756538D01*
X73934813Y-101629529D01*
X73989538Y-101485230D01*
X73989538Y-101485229D01*
X73989539Y-101485227D01*
X74008140Y-101332031D01*
X74008140Y-101332024D01*
X73989539Y-101178828D01*
X73977564Y-101147254D01*
X73934813Y-101034527D01*
X73847145Y-100907518D01*
X73731629Y-100805180D01*
X73594979Y-100733461D01*
X73594978Y-100733460D01*
X73594977Y-100733460D01*
X73445137Y-100696528D01*
X73445136Y-100696528D01*
X73290808Y-100696528D01*
X73290806Y-100696528D01*
X73140966Y-100733460D01*
X73004316Y-100805179D01*
X73004314Y-100805180D01*
X72888799Y-100907518D01*
X72801132Y-101034524D01*
X72746404Y-101178828D01*
X72727804Y-101332024D01*
X72727804Y-101332031D01*
X50050500Y-101332031D01*
X50050500Y-99837503D01*
X69722332Y-99837503D01*
X69740932Y-99990699D01*
X69783685Y-100103429D01*
X69795659Y-100135001D01*
X69883327Y-100262010D01*
X69998843Y-100364348D01*
X70135493Y-100436067D01*
X70285336Y-100473000D01*
X70285337Y-100473000D01*
X70439663Y-100473000D01*
X70439664Y-100473000D01*
X70589507Y-100436067D01*
X70726157Y-100364348D01*
X70841673Y-100262010D01*
X70929341Y-100135001D01*
X70984066Y-99990702D01*
X70984066Y-99990701D01*
X70984067Y-99990699D01*
X71002668Y-99837503D01*
X71002668Y-99837496D01*
X70984067Y-99684300D01*
X70972092Y-99652726D01*
X70929341Y-99539999D01*
X70841673Y-99412990D01*
X70726157Y-99310652D01*
X70589507Y-99238933D01*
X70589506Y-99238932D01*
X70589505Y-99238932D01*
X70439665Y-99202000D01*
X70439664Y-99202000D01*
X70285336Y-99202000D01*
X70285334Y-99202000D01*
X70135494Y-99238932D01*
X69998844Y-99310651D01*
X69998842Y-99310652D01*
X69883327Y-99412990D01*
X69795660Y-99539996D01*
X69740932Y-99684300D01*
X69722332Y-99837496D01*
X69722332Y-99837503D01*
X50050500Y-99837503D01*
X50050500Y-96545003D01*
X61724832Y-96545003D01*
X61743432Y-96698199D01*
X61786185Y-96810929D01*
X61798159Y-96842501D01*
X61885827Y-96969510D01*
X62001343Y-97071848D01*
X62137993Y-97143567D01*
X62287836Y-97180500D01*
X62287837Y-97180500D01*
X62442163Y-97180500D01*
X62442164Y-97180500D01*
X62592007Y-97143567D01*
X62728657Y-97071848D01*
X62844173Y-96969510D01*
X62931841Y-96842501D01*
X62986566Y-96698202D01*
X62986566Y-96698201D01*
X62986567Y-96698199D01*
X62998490Y-96600003D01*
X75059832Y-96600003D01*
X75078432Y-96753199D01*
X75112300Y-96842501D01*
X75133159Y-96897501D01*
X75220827Y-97024510D01*
X75336343Y-97126848D01*
X75472993Y-97198567D01*
X75622836Y-97235500D01*
X75622837Y-97235500D01*
X75777163Y-97235500D01*
X75777164Y-97235500D01*
X75927007Y-97198567D01*
X76063657Y-97126848D01*
X76179173Y-97024510D01*
X76266841Y-96897501D01*
X76321566Y-96753202D01*
X76321566Y-96753201D01*
X76321567Y-96753199D01*
X76340168Y-96600003D01*
X76340168Y-96599996D01*
X76321567Y-96446800D01*
X76300707Y-96391798D01*
X76266841Y-96302499D01*
X76179173Y-96175490D01*
X76063657Y-96073152D01*
X75927007Y-96001433D01*
X75927006Y-96001432D01*
X75927005Y-96001432D01*
X75777165Y-95964500D01*
X75777164Y-95964500D01*
X75622836Y-95964500D01*
X75622834Y-95964500D01*
X75472994Y-96001432D01*
X75336344Y-96073151D01*
X75336342Y-96073152D01*
X75220827Y-96175490D01*
X75133160Y-96302496D01*
X75078432Y-96446800D01*
X75059832Y-96599996D01*
X75059832Y-96600003D01*
X62998490Y-96600003D01*
X63005168Y-96545003D01*
X63005168Y-96544996D01*
X62986567Y-96391800D01*
X62968290Y-96343608D01*
X62931841Y-96247499D01*
X62844173Y-96120490D01*
X62728657Y-96018152D01*
X62592007Y-95946433D01*
X62592006Y-95946432D01*
X62592005Y-95946432D01*
X62442165Y-95909500D01*
X62442164Y-95909500D01*
X62287836Y-95909500D01*
X62287834Y-95909500D01*
X62137994Y-95946432D01*
X62001344Y-96018151D01*
X62001342Y-96018152D01*
X61885827Y-96120490D01*
X61798160Y-96247496D01*
X61743432Y-96391800D01*
X61724832Y-96544996D01*
X61724832Y-96545003D01*
X50050500Y-96545003D01*
X50050500Y-95260003D01*
X60199832Y-95260003D01*
X60218432Y-95413199D01*
X60258655Y-95519257D01*
X60273159Y-95557501D01*
X60360827Y-95684510D01*
X60476343Y-95786848D01*
X60612993Y-95858567D01*
X60762836Y-95895500D01*
X60762837Y-95895500D01*
X60917163Y-95895500D01*
X60917164Y-95895500D01*
X61067007Y-95858567D01*
X61146656Y-95816764D01*
X104176593Y-95816764D01*
X104195193Y-95969960D01*
X104234329Y-96073151D01*
X104249920Y-96114262D01*
X104337588Y-96241271D01*
X104453104Y-96343609D01*
X104589754Y-96415328D01*
X104739597Y-96452261D01*
X104739598Y-96452261D01*
X104893924Y-96452261D01*
X104893925Y-96452261D01*
X105043768Y-96415328D01*
X105180418Y-96343609D01*
X105295934Y-96241271D01*
X105383602Y-96114262D01*
X105438327Y-95969963D01*
X105438327Y-95969962D01*
X105438328Y-95969960D01*
X105456929Y-95816764D01*
X105456929Y-95816757D01*
X105438328Y-95663561D01*
X105426353Y-95631987D01*
X105383602Y-95519260D01*
X105295934Y-95392251D01*
X105180418Y-95289913D01*
X105043768Y-95218194D01*
X105043767Y-95218193D01*
X105043766Y-95218193D01*
X104893926Y-95181261D01*
X104893925Y-95181261D01*
X104739597Y-95181261D01*
X104739595Y-95181261D01*
X104589755Y-95218193D01*
X104453105Y-95289912D01*
X104453103Y-95289913D01*
X104337588Y-95392251D01*
X104249921Y-95519257D01*
X104195193Y-95663561D01*
X104176593Y-95816757D01*
X104176593Y-95816764D01*
X61146656Y-95816764D01*
X61203657Y-95786848D01*
X61319173Y-95684510D01*
X61406841Y-95557501D01*
X61461566Y-95413202D01*
X61461566Y-95413201D01*
X61461567Y-95413199D01*
X61480168Y-95260003D01*
X61480168Y-95259996D01*
X61461567Y-95106800D01*
X61431245Y-95026848D01*
X61406841Y-94962499D01*
X61319173Y-94835490D01*
X61203657Y-94733152D01*
X61067007Y-94661433D01*
X61067006Y-94661432D01*
X61067005Y-94661432D01*
X60917165Y-94624500D01*
X60917164Y-94624500D01*
X60762836Y-94624500D01*
X60762834Y-94624500D01*
X60612994Y-94661432D01*
X60476344Y-94733151D01*
X60476342Y-94733152D01*
X60360827Y-94835490D01*
X60273160Y-94962496D01*
X60218432Y-95106800D01*
X60199832Y-95259996D01*
X60199832Y-95260003D01*
X50050500Y-95260003D01*
X50050500Y-93980003D01*
X63769832Y-93980003D01*
X63788432Y-94133199D01*
X63831185Y-94245929D01*
X63843159Y-94277501D01*
X63930827Y-94404510D01*
X64046343Y-94506848D01*
X64182993Y-94578567D01*
X64332836Y-94615500D01*
X64332837Y-94615500D01*
X64487163Y-94615500D01*
X64487164Y-94615500D01*
X64637007Y-94578567D01*
X64773657Y-94506848D01*
X64781383Y-94500003D01*
X83559832Y-94500003D01*
X83578432Y-94653199D01*
X83608754Y-94733151D01*
X83633159Y-94797501D01*
X83720827Y-94924510D01*
X83836343Y-95026848D01*
X83972993Y-95098567D01*
X84122836Y-95135500D01*
X84122837Y-95135500D01*
X84277163Y-95135500D01*
X84277164Y-95135500D01*
X84427007Y-95098567D01*
X84563657Y-95026848D01*
X84679173Y-94924510D01*
X84766841Y-94797501D01*
X84821566Y-94653202D01*
X84821566Y-94653201D01*
X84821567Y-94653199D01*
X84840168Y-94500003D01*
X84840168Y-94499996D01*
X84821567Y-94346800D01*
X84795285Y-94277501D01*
X84766841Y-94202499D01*
X84679173Y-94075490D01*
X84563657Y-93973152D01*
X84427007Y-93901433D01*
X84427006Y-93901432D01*
X84427005Y-93901432D01*
X84277165Y-93864500D01*
X84277164Y-93864500D01*
X84122836Y-93864500D01*
X84122834Y-93864500D01*
X83972994Y-93901432D01*
X83836344Y-93973151D01*
X83836342Y-93973152D01*
X83720827Y-94075490D01*
X83633160Y-94202496D01*
X83578432Y-94346800D01*
X83559832Y-94499996D01*
X83559832Y-94500003D01*
X64781383Y-94500003D01*
X64889173Y-94404510D01*
X64976841Y-94277501D01*
X65031566Y-94133202D01*
X65031566Y-94133201D01*
X65031567Y-94133199D01*
X65050168Y-93980003D01*
X65050168Y-93979996D01*
X65031567Y-93826800D01*
X65019592Y-93795226D01*
X64976841Y-93682499D01*
X64889173Y-93555490D01*
X64773657Y-93453152D01*
X64637007Y-93381433D01*
X64637006Y-93381432D01*
X64637005Y-93381432D01*
X64487165Y-93344500D01*
X64487164Y-93344500D01*
X64332836Y-93344500D01*
X64332834Y-93344500D01*
X64182994Y-93381432D01*
X64046344Y-93453151D01*
X64046342Y-93453152D01*
X63930827Y-93555490D01*
X63843160Y-93682496D01*
X63788432Y-93826800D01*
X63769832Y-93979996D01*
X63769832Y-93980003D01*
X50050500Y-93980003D01*
X50050500Y-92800003D01*
X62359832Y-92800003D01*
X62378432Y-92953199D01*
X62396180Y-92999996D01*
X62433159Y-93097501D01*
X62520827Y-93224510D01*
X62636343Y-93326848D01*
X62772993Y-93398567D01*
X62922836Y-93435500D01*
X62922837Y-93435500D01*
X63077163Y-93435500D01*
X63077164Y-93435500D01*
X63227007Y-93398567D01*
X63363657Y-93326848D01*
X63479173Y-93224510D01*
X63566841Y-93097501D01*
X63603817Y-93000003D01*
X105109832Y-93000003D01*
X105128432Y-93153199D01*
X105155477Y-93224509D01*
X105183159Y-93297501D01*
X105270827Y-93424510D01*
X105386343Y-93526848D01*
X105522993Y-93598567D01*
X105672836Y-93635500D01*
X105672837Y-93635500D01*
X105827163Y-93635500D01*
X105827164Y-93635500D01*
X105977007Y-93598567D01*
X106113657Y-93526848D01*
X106229173Y-93424510D01*
X106316841Y-93297501D01*
X106371566Y-93153202D01*
X106371566Y-93153201D01*
X106371567Y-93153199D01*
X106390168Y-93000003D01*
X106390168Y-92999996D01*
X106371567Y-92846800D01*
X106353816Y-92799996D01*
X106316841Y-92702499D01*
X106229173Y-92575490D01*
X106113657Y-92473152D01*
X105977007Y-92401433D01*
X105977006Y-92401432D01*
X105977005Y-92401432D01*
X105827165Y-92364500D01*
X105827164Y-92364500D01*
X105672836Y-92364500D01*
X105672834Y-92364500D01*
X105522994Y-92401432D01*
X105386344Y-92473151D01*
X105386342Y-92473152D01*
X105270827Y-92575490D01*
X105183160Y-92702496D01*
X105128432Y-92846800D01*
X105109832Y-92999996D01*
X105109832Y-93000003D01*
X63603817Y-93000003D01*
X63621566Y-92953202D01*
X63621566Y-92953201D01*
X63621567Y-92953199D01*
X63640168Y-92800003D01*
X63640168Y-92799996D01*
X63621567Y-92646800D01*
X63609592Y-92615226D01*
X63566841Y-92502499D01*
X63479173Y-92375490D01*
X63363657Y-92273152D01*
X63227007Y-92201433D01*
X63227006Y-92201432D01*
X63227005Y-92201432D01*
X63077165Y-92164500D01*
X63077164Y-92164500D01*
X62922836Y-92164500D01*
X62922834Y-92164500D01*
X62772994Y-92201432D01*
X62636344Y-92273151D01*
X62636342Y-92273152D01*
X62520827Y-92375490D01*
X62433160Y-92502496D01*
X62378432Y-92646800D01*
X62359832Y-92799996D01*
X62359832Y-92800003D01*
X50050500Y-92800003D01*
X50050500Y-90205003D01*
X59804832Y-90205003D01*
X59823432Y-90358199D01*
X59866185Y-90470929D01*
X59878159Y-90502501D01*
X59965827Y-90629510D01*
X60081343Y-90731848D01*
X60217993Y-90803567D01*
X60367836Y-90840500D01*
X60367837Y-90840500D01*
X60522163Y-90840500D01*
X60522164Y-90840500D01*
X60672007Y-90803567D01*
X60808657Y-90731848D01*
X60924173Y-90629510D01*
X61011841Y-90502501D01*
X61012788Y-90500003D01*
X83559832Y-90500003D01*
X83578432Y-90653199D01*
X83608260Y-90731847D01*
X83633159Y-90797501D01*
X83720827Y-90924510D01*
X83836343Y-91026848D01*
X83972993Y-91098567D01*
X84122836Y-91135500D01*
X84122837Y-91135500D01*
X84277163Y-91135500D01*
X84277164Y-91135500D01*
X84427007Y-91098567D01*
X84563657Y-91026848D01*
X84679173Y-90924510D01*
X84766841Y-90797501D01*
X84821566Y-90653202D01*
X84821566Y-90653201D01*
X84821567Y-90653199D01*
X84840168Y-90500003D01*
X84840168Y-90499996D01*
X84821567Y-90346800D01*
X84809592Y-90315226D01*
X84766841Y-90202499D01*
X84679173Y-90075490D01*
X84563657Y-89973152D01*
X84427007Y-89901433D01*
X84427006Y-89901432D01*
X84427005Y-89901432D01*
X84277165Y-89864500D01*
X84277164Y-89864500D01*
X84122836Y-89864500D01*
X84122834Y-89864500D01*
X83972994Y-89901432D01*
X83836344Y-89973151D01*
X83836342Y-89973152D01*
X83720827Y-90075490D01*
X83633160Y-90202496D01*
X83578432Y-90346800D01*
X83559832Y-90499996D01*
X83559832Y-90500003D01*
X61012788Y-90500003D01*
X61066566Y-90358202D01*
X61066566Y-90358201D01*
X61066567Y-90358199D01*
X61085168Y-90205003D01*
X61085168Y-90204996D01*
X61066567Y-90051800D01*
X61054592Y-90020226D01*
X61011841Y-89907499D01*
X60924173Y-89780490D01*
X60808657Y-89678152D01*
X60672007Y-89606433D01*
X60672006Y-89606432D01*
X60672005Y-89606432D01*
X60522165Y-89569500D01*
X60522164Y-89569500D01*
X60367836Y-89569500D01*
X60367834Y-89569500D01*
X60217994Y-89606432D01*
X60081344Y-89678151D01*
X60081342Y-89678152D01*
X59965827Y-89780490D01*
X59878160Y-89907496D01*
X59823432Y-90051800D01*
X59804832Y-90204996D01*
X59804832Y-90205003D01*
X50050500Y-90205003D01*
X50050500Y-87300003D01*
X53259832Y-87300003D01*
X53278432Y-87453199D01*
X53321185Y-87565929D01*
X53333159Y-87597501D01*
X53420827Y-87724510D01*
X53536343Y-87826848D01*
X53672993Y-87898567D01*
X53822836Y-87935500D01*
X53822837Y-87935500D01*
X53977163Y-87935500D01*
X53977164Y-87935500D01*
X54127007Y-87898567D01*
X54263657Y-87826848D01*
X54379173Y-87724510D01*
X54465114Y-87600003D01*
X81859832Y-87600003D01*
X81878432Y-87753199D01*
X81933160Y-87897503D01*
X81959387Y-87935499D01*
X82020827Y-88024510D01*
X82136343Y-88126848D01*
X82272993Y-88198567D01*
X82422836Y-88235500D01*
X82422837Y-88235500D01*
X82577163Y-88235500D01*
X82577164Y-88235500D01*
X82727007Y-88198567D01*
X82863657Y-88126848D01*
X82979173Y-88024510D01*
X83066841Y-87897501D01*
X83121566Y-87753202D01*
X83121566Y-87753201D01*
X83121567Y-87753199D01*
X83140168Y-87600003D01*
X83140168Y-87599996D01*
X83121567Y-87446800D01*
X83109592Y-87415226D01*
X83066841Y-87302499D01*
X82979173Y-87175490D01*
X82863657Y-87073152D01*
X82727007Y-87001433D01*
X82727006Y-87001432D01*
X82727005Y-87001432D01*
X82577165Y-86964500D01*
X82577164Y-86964500D01*
X82422836Y-86964500D01*
X82422834Y-86964500D01*
X82272994Y-87001432D01*
X82136344Y-87073151D01*
X82136342Y-87073152D01*
X82020827Y-87175490D01*
X81933160Y-87302496D01*
X81878432Y-87446800D01*
X81859832Y-87599996D01*
X81859832Y-87600003D01*
X54465114Y-87600003D01*
X54466841Y-87597501D01*
X54521566Y-87453202D01*
X54521566Y-87453201D01*
X54521567Y-87453199D01*
X54540168Y-87300003D01*
X54540168Y-87299996D01*
X54521567Y-87146800D01*
X54493636Y-87073152D01*
X54466841Y-87002499D01*
X54379173Y-86875490D01*
X54263657Y-86773152D01*
X54127007Y-86701433D01*
X54127006Y-86701432D01*
X54127005Y-86701432D01*
X53977165Y-86664500D01*
X53977164Y-86664500D01*
X53822836Y-86664500D01*
X53822834Y-86664500D01*
X53672994Y-86701432D01*
X53536344Y-86773151D01*
X53536342Y-86773152D01*
X53420827Y-86875490D01*
X53333160Y-87002496D01*
X53278432Y-87146800D01*
X53259832Y-87299996D01*
X53259832Y-87300003D01*
X50050500Y-87300003D01*
X50050500Y-86100003D01*
X99422332Y-86100003D01*
X99440932Y-86253199D01*
X99483685Y-86365929D01*
X99495659Y-86397501D01*
X99583327Y-86524510D01*
X99698843Y-86626848D01*
X99835493Y-86698567D01*
X99985336Y-86735500D01*
X99985337Y-86735500D01*
X100139663Y-86735500D01*
X100139664Y-86735500D01*
X100289507Y-86698567D01*
X100426157Y-86626848D01*
X100541673Y-86524510D01*
X100629341Y-86397501D01*
X100684066Y-86253202D01*
X100684066Y-86253201D01*
X100684067Y-86253199D01*
X100702668Y-86100003D01*
X100702668Y-86099996D01*
X100684067Y-85946800D01*
X100672092Y-85915226D01*
X100629341Y-85802499D01*
X100541673Y-85675490D01*
X100426157Y-85573152D01*
X100289507Y-85501433D01*
X100289506Y-85501432D01*
X100289505Y-85501432D01*
X100139665Y-85464500D01*
X100139664Y-85464500D01*
X99985336Y-85464500D01*
X99985334Y-85464500D01*
X99835494Y-85501432D01*
X99698844Y-85573151D01*
X99698842Y-85573152D01*
X99583327Y-85675490D01*
X99495660Y-85802496D01*
X99440932Y-85946800D01*
X99422332Y-86099996D01*
X99422332Y-86100003D01*
X50050500Y-86100003D01*
X50050500Y-85075003D01*
X55484832Y-85075003D01*
X55503432Y-85228199D01*
X55546185Y-85340929D01*
X55558159Y-85372501D01*
X55645827Y-85499510D01*
X55761343Y-85601848D01*
X55897993Y-85673567D01*
X56047836Y-85710500D01*
X56047837Y-85710500D01*
X56202163Y-85710500D01*
X56202164Y-85710500D01*
X56352007Y-85673567D01*
X56488657Y-85601848D01*
X56604173Y-85499510D01*
X56691841Y-85372501D01*
X56746566Y-85228202D01*
X56746566Y-85228201D01*
X56746567Y-85228199D01*
X56765168Y-85075003D01*
X56765168Y-85074996D01*
X56746567Y-84921800D01*
X56734592Y-84890226D01*
X56691841Y-84777499D01*
X56604173Y-84650490D01*
X56488657Y-84548152D01*
X56352007Y-84476433D01*
X56352006Y-84476432D01*
X56352005Y-84476432D01*
X56202165Y-84439500D01*
X56202164Y-84439500D01*
X56047836Y-84439500D01*
X56047834Y-84439500D01*
X55897994Y-84476432D01*
X55761344Y-84548151D01*
X55761342Y-84548152D01*
X55645827Y-84650490D01*
X55558160Y-84777496D01*
X55503432Y-84921800D01*
X55484832Y-85074996D01*
X55484832Y-85075003D01*
X50050500Y-85075003D01*
X50050500Y-84400003D01*
X59459832Y-84400003D01*
X59478432Y-84553199D01*
X59515330Y-84650490D01*
X59533159Y-84697501D01*
X59620827Y-84824510D01*
X59736343Y-84926848D01*
X59872993Y-84998567D01*
X60022836Y-85035500D01*
X60022837Y-85035500D01*
X60177163Y-85035500D01*
X60177164Y-85035500D01*
X60327007Y-84998567D01*
X60463657Y-84926848D01*
X60579173Y-84824510D01*
X60666841Y-84697501D01*
X60721566Y-84553202D01*
X60721566Y-84553201D01*
X60721567Y-84553199D01*
X60740168Y-84400003D01*
X60740168Y-84399996D01*
X60721567Y-84246800D01*
X60702870Y-84197501D01*
X60666841Y-84102499D01*
X60579173Y-83975490D01*
X60493966Y-83900003D01*
X87822332Y-83900003D01*
X87840932Y-84053199D01*
X87883685Y-84165929D01*
X87895659Y-84197501D01*
X87983327Y-84324510D01*
X88098843Y-84426848D01*
X88235493Y-84498567D01*
X88385336Y-84535500D01*
X88385337Y-84535500D01*
X88539663Y-84535500D01*
X88539664Y-84535500D01*
X88689507Y-84498567D01*
X88826157Y-84426848D01*
X88941673Y-84324510D01*
X89029341Y-84197501D01*
X89084066Y-84053202D01*
X89084066Y-84053201D01*
X89084067Y-84053199D01*
X89102668Y-83900003D01*
X89102668Y-83899996D01*
X89084067Y-83746800D01*
X89072092Y-83715226D01*
X89029341Y-83602499D01*
X88941673Y-83475490D01*
X88826157Y-83373152D01*
X88689507Y-83301433D01*
X88689506Y-83301432D01*
X88689505Y-83301432D01*
X88539665Y-83264500D01*
X88539664Y-83264500D01*
X88385336Y-83264500D01*
X88385334Y-83264500D01*
X88235494Y-83301432D01*
X88098844Y-83373151D01*
X88098842Y-83373152D01*
X87983327Y-83475490D01*
X87895660Y-83602496D01*
X87840932Y-83746800D01*
X87822332Y-83899996D01*
X87822332Y-83900003D01*
X60493966Y-83900003D01*
X60463657Y-83873152D01*
X60327007Y-83801433D01*
X60327006Y-83801432D01*
X60327005Y-83801432D01*
X60177165Y-83764500D01*
X60177164Y-83764500D01*
X60022836Y-83764500D01*
X60022834Y-83764500D01*
X59872994Y-83801432D01*
X59736344Y-83873151D01*
X59736342Y-83873152D01*
X59620827Y-83975490D01*
X59533160Y-84102496D01*
X59478432Y-84246800D01*
X59459832Y-84399996D01*
X59459832Y-84400003D01*
X50050500Y-84400003D01*
X50050500Y-82100003D01*
X67659832Y-82100003D01*
X67678432Y-82253199D01*
X67705477Y-82324509D01*
X67733159Y-82397501D01*
X67820827Y-82524510D01*
X67936343Y-82626848D01*
X68072993Y-82698567D01*
X68222836Y-82735500D01*
X68222837Y-82735500D01*
X68377163Y-82735500D01*
X68377164Y-82735500D01*
X68527007Y-82698567D01*
X68663657Y-82626848D01*
X68779173Y-82524510D01*
X68866841Y-82397501D01*
X68921566Y-82253202D01*
X68921566Y-82253201D01*
X68921567Y-82253199D01*
X68940168Y-82100003D01*
X68940168Y-82099996D01*
X68921567Y-81946800D01*
X68903819Y-81900003D01*
X81859832Y-81900003D01*
X81878432Y-82053199D01*
X81896180Y-82099996D01*
X81933159Y-82197501D01*
X82020827Y-82324510D01*
X82136343Y-82426848D01*
X82272993Y-82498567D01*
X82422836Y-82535500D01*
X82422837Y-82535500D01*
X82577163Y-82535500D01*
X82577164Y-82535500D01*
X82727007Y-82498567D01*
X82863657Y-82426848D01*
X82979173Y-82324510D01*
X83066841Y-82197501D01*
X83103817Y-82100003D01*
X100659832Y-82100003D01*
X100678432Y-82253199D01*
X100705477Y-82324509D01*
X100733159Y-82397501D01*
X100820827Y-82524510D01*
X100936343Y-82626848D01*
X101072993Y-82698567D01*
X101222836Y-82735500D01*
X101222837Y-82735500D01*
X101377163Y-82735500D01*
X101377164Y-82735500D01*
X101527007Y-82698567D01*
X101663657Y-82626848D01*
X101779173Y-82524510D01*
X101866841Y-82397501D01*
X101921566Y-82253202D01*
X101921566Y-82253201D01*
X101921567Y-82253199D01*
X101940168Y-82100003D01*
X101940168Y-82099996D01*
X101921567Y-81946800D01*
X101903816Y-81899996D01*
X101866841Y-81802499D01*
X101779173Y-81675490D01*
X101663657Y-81573152D01*
X101527007Y-81501433D01*
X101527006Y-81501432D01*
X101527005Y-81501432D01*
X101377165Y-81464500D01*
X101377164Y-81464500D01*
X101222836Y-81464500D01*
X101222834Y-81464500D01*
X101072994Y-81501432D01*
X100936344Y-81573151D01*
X100936342Y-81573152D01*
X100820827Y-81675490D01*
X100733160Y-81802496D01*
X100678432Y-81946800D01*
X100659832Y-82099996D01*
X100659832Y-82100003D01*
X83103817Y-82100003D01*
X83121566Y-82053202D01*
X83121566Y-82053201D01*
X83121567Y-82053199D01*
X83140168Y-81900003D01*
X83140168Y-81899996D01*
X83121567Y-81746800D01*
X83109592Y-81715226D01*
X83066841Y-81602499D01*
X82979173Y-81475490D01*
X82863657Y-81373152D01*
X82727007Y-81301433D01*
X82727006Y-81301432D01*
X82727005Y-81301432D01*
X82577165Y-81264500D01*
X82577164Y-81264500D01*
X82422836Y-81264500D01*
X82422834Y-81264500D01*
X82272994Y-81301432D01*
X82136344Y-81373151D01*
X82136342Y-81373152D01*
X82020827Y-81475490D01*
X81933160Y-81602496D01*
X81878432Y-81746800D01*
X81859832Y-81899996D01*
X81859832Y-81900003D01*
X68903819Y-81900003D01*
X68903816Y-81899996D01*
X68866841Y-81802499D01*
X68779173Y-81675490D01*
X68663657Y-81573152D01*
X68527007Y-81501433D01*
X68527006Y-81501432D01*
X68527005Y-81501432D01*
X68377165Y-81464500D01*
X68377164Y-81464500D01*
X68222836Y-81464500D01*
X68222834Y-81464500D01*
X68072994Y-81501432D01*
X67936344Y-81573151D01*
X67936342Y-81573152D01*
X67820827Y-81675490D01*
X67733160Y-81802496D01*
X67678432Y-81946800D01*
X67659832Y-82099996D01*
X67659832Y-82100003D01*
X50050500Y-82100003D01*
X50050500Y-80300003D01*
X76859832Y-80300003D01*
X76878432Y-80453199D01*
X76921185Y-80565929D01*
X76933159Y-80597501D01*
X77020827Y-80724510D01*
X77136343Y-80826848D01*
X77272993Y-80898567D01*
X77422836Y-80935500D01*
X77422837Y-80935500D01*
X77577163Y-80935500D01*
X77577164Y-80935500D01*
X77727007Y-80898567D01*
X77863657Y-80826848D01*
X77979173Y-80724510D01*
X78066841Y-80597501D01*
X78121566Y-80453202D01*
X78121566Y-80453201D01*
X78121567Y-80453199D01*
X78140168Y-80300003D01*
X78140168Y-80299996D01*
X78121567Y-80146800D01*
X78109592Y-80115226D01*
X78082965Y-80045014D01*
X103204843Y-80045014D01*
X103223443Y-80198210D01*
X103266196Y-80310940D01*
X103278170Y-80342512D01*
X103365838Y-80469521D01*
X103481354Y-80571859D01*
X103618004Y-80643578D01*
X103767847Y-80680511D01*
X103767848Y-80680511D01*
X103922174Y-80680511D01*
X103922175Y-80680511D01*
X104072018Y-80643578D01*
X104208668Y-80571859D01*
X104324184Y-80469521D01*
X104411852Y-80342512D01*
X104466577Y-80198213D01*
X104466577Y-80198212D01*
X104466578Y-80198210D01*
X104485179Y-80045014D01*
X104485179Y-80045007D01*
X104466578Y-79891811D01*
X104454603Y-79860237D01*
X104411852Y-79747510D01*
X104324184Y-79620501D01*
X104208668Y-79518163D01*
X104072018Y-79446444D01*
X104072017Y-79446443D01*
X104072016Y-79446443D01*
X103922176Y-79409511D01*
X103922175Y-79409511D01*
X103767847Y-79409511D01*
X103767845Y-79409511D01*
X103618005Y-79446443D01*
X103481355Y-79518162D01*
X103481353Y-79518163D01*
X103365838Y-79620501D01*
X103278171Y-79747507D01*
X103223443Y-79891811D01*
X103204843Y-80045007D01*
X103204843Y-80045014D01*
X78082965Y-80045014D01*
X78066841Y-80002499D01*
X77979173Y-79875490D01*
X77863657Y-79773152D01*
X77727007Y-79701433D01*
X77727006Y-79701432D01*
X77727005Y-79701432D01*
X77577165Y-79664500D01*
X77577164Y-79664500D01*
X77422836Y-79664500D01*
X77422834Y-79664500D01*
X77272994Y-79701432D01*
X77136344Y-79773151D01*
X77136342Y-79773152D01*
X77020827Y-79875490D01*
X76933160Y-80002496D01*
X76878432Y-80146800D01*
X76859832Y-80299996D01*
X76859832Y-80300003D01*
X50050500Y-80300003D01*
X50050500Y-78750003D01*
X85209832Y-78750003D01*
X85228432Y-78903199D01*
X85271185Y-79015929D01*
X85283159Y-79047501D01*
X85370827Y-79174510D01*
X85486343Y-79276848D01*
X85622993Y-79348567D01*
X85772836Y-79385500D01*
X85772837Y-79385500D01*
X85927163Y-79385500D01*
X85927164Y-79385500D01*
X86077007Y-79348567D01*
X86213657Y-79276848D01*
X86329173Y-79174510D01*
X86416841Y-79047501D01*
X86471566Y-78903202D01*
X86471566Y-78903201D01*
X86471567Y-78903199D01*
X86490168Y-78750003D01*
X86490168Y-78749996D01*
X86471567Y-78596800D01*
X86459592Y-78565226D01*
X86416841Y-78452499D01*
X86329173Y-78325490D01*
X86213657Y-78223152D01*
X86077007Y-78151433D01*
X86077006Y-78151432D01*
X86077005Y-78151432D01*
X85927165Y-78114500D01*
X85927164Y-78114500D01*
X85772836Y-78114500D01*
X85772834Y-78114500D01*
X85622994Y-78151432D01*
X85486344Y-78223151D01*
X85486342Y-78223152D01*
X85370827Y-78325490D01*
X85283160Y-78452496D01*
X85228432Y-78596800D01*
X85209832Y-78749996D01*
X85209832Y-78750003D01*
X50050500Y-78750003D01*
X50050500Y-76962503D01*
X77022332Y-76962503D01*
X77040932Y-77115699D01*
X77083685Y-77228429D01*
X77095659Y-77260001D01*
X77183327Y-77387010D01*
X77298843Y-77489348D01*
X77435493Y-77561067D01*
X77585336Y-77598000D01*
X77585337Y-77598000D01*
X77739663Y-77598000D01*
X77739664Y-77598000D01*
X77889507Y-77561067D01*
X78026157Y-77489348D01*
X78141673Y-77387010D01*
X78175845Y-77337503D01*
X81922332Y-77337503D01*
X81940932Y-77490699D01*
X81981626Y-77597999D01*
X81995659Y-77635001D01*
X82083327Y-77762010D01*
X82198843Y-77864348D01*
X82335493Y-77936067D01*
X82485336Y-77973000D01*
X82485337Y-77973000D01*
X82639663Y-77973000D01*
X82639664Y-77973000D01*
X82789507Y-77936067D01*
X82926157Y-77864348D01*
X83041673Y-77762010D01*
X83129341Y-77635001D01*
X83184066Y-77490702D01*
X83184066Y-77490701D01*
X83184067Y-77490699D01*
X83202668Y-77337503D01*
X83202668Y-77337496D01*
X83184067Y-77184300D01*
X83158050Y-77115699D01*
X83129341Y-77039999D01*
X83041673Y-76912990D01*
X82926157Y-76810652D01*
X82789507Y-76738933D01*
X82789506Y-76738932D01*
X82789505Y-76738932D01*
X82639665Y-76702000D01*
X82639664Y-76702000D01*
X82485336Y-76702000D01*
X82485334Y-76702000D01*
X82335494Y-76738932D01*
X82198844Y-76810651D01*
X82198842Y-76810652D01*
X82083327Y-76912990D01*
X81995660Y-77039996D01*
X81940932Y-77184300D01*
X81922332Y-77337496D01*
X81922332Y-77337503D01*
X78175845Y-77337503D01*
X78229341Y-77260001D01*
X78284066Y-77115702D01*
X78284066Y-77115701D01*
X78284067Y-77115699D01*
X78302668Y-76962503D01*
X78302668Y-76962496D01*
X78284067Y-76809300D01*
X78257380Y-76738932D01*
X78229341Y-76664999D01*
X78141673Y-76537990D01*
X78026157Y-76435652D01*
X77889507Y-76363933D01*
X77889506Y-76363932D01*
X77889505Y-76363932D01*
X77739665Y-76327000D01*
X77739664Y-76327000D01*
X77585336Y-76327000D01*
X77585334Y-76327000D01*
X77435494Y-76363932D01*
X77298844Y-76435651D01*
X77298842Y-76435652D01*
X77183327Y-76537990D01*
X77095660Y-76664996D01*
X77040932Y-76809300D01*
X77022332Y-76962496D01*
X77022332Y-76962503D01*
X50050500Y-76962503D01*
X50050500Y-75100003D01*
X95759832Y-75100003D01*
X95778432Y-75253199D01*
X95821185Y-75365929D01*
X95833159Y-75397501D01*
X95920827Y-75524510D01*
X96036343Y-75626848D01*
X96172993Y-75698567D01*
X96322836Y-75735500D01*
X96322837Y-75735500D01*
X96477163Y-75735500D01*
X96477164Y-75735500D01*
X96627007Y-75698567D01*
X96763657Y-75626848D01*
X96879173Y-75524510D01*
X96966841Y-75397501D01*
X97021566Y-75253202D01*
X97021566Y-75253201D01*
X97021567Y-75253199D01*
X97040168Y-75100003D01*
X97040168Y-75099996D01*
X97021567Y-74946800D01*
X97007719Y-74910287D01*
X96966841Y-74802499D01*
X96879173Y-74675490D01*
X96763657Y-74573152D01*
X96627007Y-74501433D01*
X96627006Y-74501432D01*
X96627005Y-74501432D01*
X96477165Y-74464500D01*
X96477164Y-74464500D01*
X96322836Y-74464500D01*
X96322834Y-74464500D01*
X96172994Y-74501432D01*
X96036344Y-74573151D01*
X96036342Y-74573152D01*
X95920827Y-74675490D01*
X95833160Y-74802496D01*
X95778432Y-74946800D01*
X95759832Y-75099996D01*
X95759832Y-75100003D01*
X50050500Y-75100003D01*
X50050500Y-74383443D01*
X59646392Y-74383443D01*
X59664992Y-74536639D01*
X59702485Y-74635499D01*
X59719719Y-74680941D01*
X59807387Y-74807950D01*
X59922903Y-74910288D01*
X60059553Y-74982007D01*
X60209396Y-75018940D01*
X60209397Y-75018940D01*
X60363723Y-75018940D01*
X60363724Y-75018940D01*
X60513567Y-74982007D01*
X60650217Y-74910288D01*
X60765733Y-74807950D01*
X60853401Y-74680941D01*
X60908126Y-74536642D01*
X60908126Y-74536641D01*
X60908127Y-74536639D01*
X60926728Y-74383443D01*
X60926728Y-74383436D01*
X60908127Y-74230240D01*
X60878909Y-74153199D01*
X60853401Y-74085939D01*
X60794084Y-74000003D01*
X74659832Y-74000003D01*
X74678432Y-74153199D01*
X74707650Y-74230240D01*
X74733159Y-74297501D01*
X74820827Y-74424510D01*
X74936343Y-74526848D01*
X75072993Y-74598567D01*
X75222836Y-74635500D01*
X75222837Y-74635500D01*
X75377163Y-74635500D01*
X75377164Y-74635500D01*
X75527007Y-74598567D01*
X75663657Y-74526848D01*
X75779173Y-74424510D01*
X75866841Y-74297501D01*
X75921566Y-74153202D01*
X75921566Y-74153201D01*
X75921567Y-74153199D01*
X75940168Y-74000003D01*
X75940168Y-73999996D01*
X75921567Y-73846800D01*
X75884074Y-73747940D01*
X75866841Y-73702499D01*
X75779173Y-73575490D01*
X75663657Y-73473152D01*
X75527007Y-73401433D01*
X75527006Y-73401432D01*
X75527005Y-73401432D01*
X75377165Y-73364500D01*
X75377164Y-73364500D01*
X75222836Y-73364500D01*
X75222834Y-73364500D01*
X75072994Y-73401432D01*
X74936344Y-73473151D01*
X74936342Y-73473152D01*
X74820827Y-73575490D01*
X74733160Y-73702496D01*
X74678432Y-73846800D01*
X74659832Y-73999996D01*
X74659832Y-74000003D01*
X60794084Y-74000003D01*
X60765733Y-73958930D01*
X60650217Y-73856592D01*
X60513567Y-73784873D01*
X60513566Y-73784872D01*
X60513565Y-73784872D01*
X60363725Y-73747940D01*
X60363724Y-73747940D01*
X60209396Y-73747940D01*
X60209394Y-73747940D01*
X60059554Y-73784872D01*
X59922904Y-73856591D01*
X59922902Y-73856592D01*
X59807387Y-73958930D01*
X59719720Y-74085936D01*
X59664992Y-74230240D01*
X59646392Y-74383436D01*
X59646392Y-74383443D01*
X50050500Y-74383443D01*
X50050500Y-71900003D01*
X85559832Y-71900003D01*
X85578432Y-72053199D01*
X85621185Y-72165929D01*
X85633159Y-72197501D01*
X85720827Y-72324510D01*
X85836343Y-72426848D01*
X85972993Y-72498567D01*
X86122836Y-72535500D01*
X86122837Y-72535500D01*
X86277163Y-72535500D01*
X86277164Y-72535500D01*
X86427007Y-72498567D01*
X86563657Y-72426848D01*
X86679173Y-72324510D01*
X86766841Y-72197501D01*
X86821566Y-72053202D01*
X86821566Y-72053201D01*
X86821567Y-72053199D01*
X86840168Y-71900003D01*
X86840168Y-71899996D01*
X86821567Y-71746800D01*
X86809592Y-71715226D01*
X86766841Y-71602499D01*
X86679173Y-71475490D01*
X86563657Y-71373152D01*
X86427007Y-71301433D01*
X86427006Y-71301432D01*
X86427005Y-71301432D01*
X86277165Y-71264500D01*
X86277164Y-71264500D01*
X86122836Y-71264500D01*
X86122834Y-71264500D01*
X85972994Y-71301432D01*
X85836344Y-71373151D01*
X85836342Y-71373152D01*
X85720827Y-71475490D01*
X85633160Y-71602496D01*
X85578432Y-71746800D01*
X85559832Y-71899996D01*
X85559832Y-71900003D01*
X50050500Y-71900003D01*
X50050500Y-71100003D01*
X59159832Y-71100003D01*
X59178432Y-71253199D01*
X59196725Y-71301432D01*
X59233159Y-71397501D01*
X59320827Y-71524510D01*
X59436343Y-71626848D01*
X59572993Y-71698567D01*
X59722836Y-71735500D01*
X59722837Y-71735500D01*
X59877163Y-71735500D01*
X59877164Y-71735500D01*
X60027007Y-71698567D01*
X60163657Y-71626848D01*
X60279173Y-71524510D01*
X60366841Y-71397501D01*
X60421566Y-71253202D01*
X60421566Y-71253201D01*
X60421567Y-71253199D01*
X60440168Y-71100003D01*
X60440168Y-71099996D01*
X60421567Y-70946800D01*
X60409592Y-70915226D01*
X60366841Y-70802499D01*
X60279173Y-70675490D01*
X60163657Y-70573152D01*
X60027007Y-70501433D01*
X60027006Y-70501432D01*
X60027005Y-70501432D01*
X59877165Y-70464500D01*
X59877164Y-70464500D01*
X59722836Y-70464500D01*
X59722834Y-70464500D01*
X59572994Y-70501432D01*
X59436344Y-70573151D01*
X59436342Y-70573152D01*
X59320827Y-70675490D01*
X59233160Y-70802496D01*
X59178432Y-70946800D01*
X59159832Y-71099996D01*
X59159832Y-71100003D01*
X50050500Y-71100003D01*
X50050500Y-69662503D01*
X78659832Y-69662503D01*
X78678432Y-69815699D01*
X78721185Y-69928429D01*
X78733159Y-69960001D01*
X78820827Y-70087010D01*
X78936343Y-70189348D01*
X79072993Y-70261067D01*
X79222836Y-70298000D01*
X79222837Y-70298000D01*
X79377163Y-70298000D01*
X79377164Y-70298000D01*
X79527007Y-70261067D01*
X79663657Y-70189348D01*
X79779173Y-70087010D01*
X79866841Y-69960001D01*
X79921566Y-69815702D01*
X79921566Y-69815701D01*
X79921567Y-69815699D01*
X79935615Y-69700003D01*
X88797332Y-69700003D01*
X88815932Y-69853199D01*
X88856437Y-69960001D01*
X88870659Y-69997501D01*
X88958327Y-70124510D01*
X89073843Y-70226848D01*
X89210493Y-70298567D01*
X89360336Y-70335500D01*
X89360337Y-70335500D01*
X89514663Y-70335500D01*
X89514664Y-70335500D01*
X89664507Y-70298567D01*
X89801157Y-70226848D01*
X89916673Y-70124510D01*
X90004341Y-69997501D01*
X90059066Y-69853202D01*
X90059066Y-69853201D01*
X90059067Y-69853199D01*
X90077668Y-69700003D01*
X97197332Y-69700003D01*
X97215932Y-69853199D01*
X97256437Y-69960001D01*
X97270659Y-69997501D01*
X97358327Y-70124510D01*
X97473843Y-70226848D01*
X97610493Y-70298567D01*
X97760336Y-70335500D01*
X97760337Y-70335500D01*
X97914663Y-70335500D01*
X97914664Y-70335500D01*
X98064507Y-70298567D01*
X98201157Y-70226848D01*
X98316673Y-70124510D01*
X98404341Y-69997501D01*
X98459066Y-69853202D01*
X98459066Y-69853201D01*
X98459067Y-69853199D01*
X98477668Y-69700003D01*
X98477668Y-69699996D01*
X98459067Y-69546800D01*
X98444844Y-69509298D01*
X98404341Y-69402499D01*
X98316673Y-69275490D01*
X98201157Y-69173152D01*
X98064507Y-69101433D01*
X98064506Y-69101432D01*
X98064505Y-69101432D01*
X97914665Y-69064500D01*
X97914664Y-69064500D01*
X97760336Y-69064500D01*
X97760334Y-69064500D01*
X97610494Y-69101432D01*
X97473844Y-69173151D01*
X97473842Y-69173152D01*
X97358327Y-69275490D01*
X97270660Y-69402496D01*
X97215932Y-69546800D01*
X97197332Y-69699996D01*
X97197332Y-69700003D01*
X90077668Y-69700003D01*
X90077668Y-69699996D01*
X90059067Y-69546800D01*
X90044844Y-69509298D01*
X90004341Y-69402499D01*
X89916673Y-69275490D01*
X89801157Y-69173152D01*
X89664507Y-69101433D01*
X89664506Y-69101432D01*
X89664505Y-69101432D01*
X89514665Y-69064500D01*
X89514664Y-69064500D01*
X89360336Y-69064500D01*
X89360334Y-69064500D01*
X89210494Y-69101432D01*
X89073844Y-69173151D01*
X89073842Y-69173152D01*
X88958327Y-69275490D01*
X88870660Y-69402496D01*
X88815932Y-69546800D01*
X88797332Y-69699996D01*
X88797332Y-69700003D01*
X79935615Y-69700003D01*
X79940168Y-69662503D01*
X79940168Y-69662496D01*
X79921567Y-69509300D01*
X79909592Y-69477726D01*
X79866841Y-69364999D01*
X79779173Y-69237990D01*
X79663657Y-69135652D01*
X79527007Y-69063933D01*
X79527006Y-69063932D01*
X79527005Y-69063932D01*
X79377165Y-69027000D01*
X79377164Y-69027000D01*
X79222836Y-69027000D01*
X79222834Y-69027000D01*
X79072994Y-69063932D01*
X78936344Y-69135651D01*
X78936342Y-69135652D01*
X78820827Y-69237990D01*
X78733160Y-69364996D01*
X78678432Y-69509300D01*
X78659832Y-69662496D01*
X78659832Y-69662503D01*
X50050500Y-69662503D01*
X50050500Y-67862503D01*
X67522332Y-67862503D01*
X67540932Y-68015699D01*
X67583685Y-68128429D01*
X67595659Y-68160001D01*
X67683327Y-68287010D01*
X67798843Y-68389348D01*
X67935493Y-68461067D01*
X68085336Y-68498000D01*
X68085337Y-68498000D01*
X68239663Y-68498000D01*
X68239664Y-68498000D01*
X68389507Y-68461067D01*
X68526157Y-68389348D01*
X68641673Y-68287010D01*
X68729341Y-68160001D01*
X68784066Y-68015702D01*
X68784066Y-68015701D01*
X68784067Y-68015699D01*
X68802668Y-67862503D01*
X68802668Y-67862496D01*
X68784067Y-67709300D01*
X68772092Y-67677726D01*
X68729341Y-67564999D01*
X68641673Y-67437990D01*
X68526157Y-67335652D01*
X68389507Y-67263933D01*
X68389506Y-67263932D01*
X68389505Y-67263932D01*
X68239665Y-67227000D01*
X68239664Y-67227000D01*
X68085336Y-67227000D01*
X68085334Y-67227000D01*
X67935494Y-67263932D01*
X67798844Y-67335651D01*
X67798842Y-67335652D01*
X67683327Y-67437990D01*
X67595660Y-67564996D01*
X67540932Y-67709300D01*
X67522332Y-67862496D01*
X67522332Y-67862503D01*
X50050500Y-67862503D01*
X50050500Y-63665999D01*
X54205721Y-63665999D01*
X54205722Y-63666000D01*
X54824122Y-63666000D01*
X54781722Y-63712059D01*
X54731449Y-63826670D01*
X54721114Y-63951395D01*
X54751837Y-64072719D01*
X54818008Y-64174000D01*
X54205722Y-64174000D01*
X54246639Y-64299935D01*
X54246641Y-64299938D01*
X54344281Y-64469058D01*
X54474953Y-64614183D01*
X54632940Y-64728968D01*
X54811340Y-64808397D01*
X54811343Y-64808398D01*
X54846000Y-64815764D01*
X54846000Y-64197503D01*
X54919052Y-64254363D01*
X55037424Y-64295000D01*
X55131073Y-64295000D01*
X55223446Y-64279586D01*
X55333514Y-64220019D01*
X55354000Y-64197765D01*
X55354000Y-64815763D01*
X55388656Y-64808398D01*
X55388659Y-64808397D01*
X55567059Y-64728968D01*
X55725046Y-64614183D01*
X55855718Y-64469058D01*
X55953358Y-64299938D01*
X55953360Y-64299935D01*
X55994278Y-64174000D01*
X55375878Y-64174000D01*
X55418278Y-64127941D01*
X55468551Y-64013330D01*
X55478886Y-63888605D01*
X55448163Y-63767281D01*
X55381992Y-63666000D01*
X55994278Y-63666000D01*
X55994278Y-63665999D01*
X59405721Y-63665999D01*
X59405722Y-63666000D01*
X60024122Y-63666000D01*
X59981722Y-63712059D01*
X59931449Y-63826670D01*
X59921114Y-63951395D01*
X59951837Y-64072719D01*
X60018008Y-64174000D01*
X59405722Y-64174000D01*
X59446639Y-64299935D01*
X59446641Y-64299938D01*
X59544281Y-64469058D01*
X59674953Y-64614183D01*
X59832940Y-64728968D01*
X60011340Y-64808397D01*
X60011343Y-64808398D01*
X60046000Y-64815764D01*
X60046000Y-64197503D01*
X60119052Y-64254363D01*
X60237424Y-64295000D01*
X60331073Y-64295000D01*
X60423446Y-64279586D01*
X60533514Y-64220019D01*
X60554000Y-64197765D01*
X60554000Y-64815763D01*
X60588656Y-64808398D01*
X60588659Y-64808397D01*
X60767059Y-64728968D01*
X60925046Y-64614183D01*
X61055718Y-64469058D01*
X61153358Y-64299938D01*
X61153360Y-64299935D01*
X61194278Y-64174000D01*
X60575878Y-64174000D01*
X60618278Y-64127941D01*
X60668551Y-64013330D01*
X60678886Y-63888605D01*
X60648163Y-63767281D01*
X60581992Y-63666000D01*
X61194278Y-63666000D01*
X61194278Y-63665999D01*
X64605721Y-63665999D01*
X64605722Y-63666000D01*
X65224122Y-63666000D01*
X65181722Y-63712059D01*
X65131449Y-63826670D01*
X65121114Y-63951395D01*
X65151837Y-64072719D01*
X65218008Y-64174000D01*
X64605722Y-64174000D01*
X64646639Y-64299935D01*
X64646641Y-64299938D01*
X64744281Y-64469058D01*
X64874953Y-64614183D01*
X65032940Y-64728968D01*
X65211340Y-64808397D01*
X65211343Y-64808398D01*
X65246000Y-64815764D01*
X65246000Y-64197503D01*
X65319052Y-64254363D01*
X65437424Y-64295000D01*
X65531073Y-64295000D01*
X65623446Y-64279586D01*
X65733514Y-64220019D01*
X65754000Y-64197765D01*
X65754000Y-64815763D01*
X65788656Y-64808398D01*
X65788659Y-64808397D01*
X65967059Y-64728968D01*
X66125046Y-64614183D01*
X66255718Y-64469058D01*
X66353358Y-64299938D01*
X66353360Y-64299935D01*
X66394278Y-64174000D01*
X65775878Y-64174000D01*
X65818278Y-64127941D01*
X65868551Y-64013330D01*
X65878886Y-63888605D01*
X65848163Y-63767281D01*
X65781992Y-63666000D01*
X66394278Y-63666000D01*
X66394278Y-63665999D01*
X69705721Y-63665999D01*
X69705722Y-63666000D01*
X70324122Y-63666000D01*
X70281722Y-63712059D01*
X70231449Y-63826670D01*
X70221114Y-63951395D01*
X70251837Y-64072719D01*
X70318008Y-64174000D01*
X69705722Y-64174000D01*
X69746639Y-64299935D01*
X69746641Y-64299938D01*
X69844281Y-64469058D01*
X69974953Y-64614183D01*
X70132940Y-64728968D01*
X70311340Y-64808397D01*
X70311343Y-64808398D01*
X70346000Y-64815764D01*
X70346000Y-64197503D01*
X70419052Y-64254363D01*
X70537424Y-64295000D01*
X70631073Y-64295000D01*
X70723446Y-64279586D01*
X70833514Y-64220019D01*
X70854000Y-64197765D01*
X70854000Y-64815763D01*
X70888656Y-64808398D01*
X70888659Y-64808397D01*
X71067059Y-64728968D01*
X71225046Y-64614183D01*
X71355718Y-64469058D01*
X71359502Y-64462503D01*
X74359832Y-64462503D01*
X74378432Y-64615699D01*
X74421185Y-64728429D01*
X74433159Y-64760001D01*
X74520827Y-64887010D01*
X74636343Y-64989348D01*
X74772993Y-65061067D01*
X74922836Y-65098000D01*
X74922837Y-65098000D01*
X75077163Y-65098000D01*
X75077164Y-65098000D01*
X75227007Y-65061067D01*
X75363657Y-64989348D01*
X75479173Y-64887010D01*
X75566841Y-64760001D01*
X75621566Y-64615702D01*
X75621566Y-64615701D01*
X75621567Y-64615699D01*
X75640168Y-64462503D01*
X75640168Y-64462496D01*
X75621567Y-64309300D01*
X75587707Y-64220019D01*
X75566841Y-64164999D01*
X75479173Y-64037990D01*
X75363657Y-63935652D01*
X75227007Y-63863933D01*
X75227006Y-63863932D01*
X75227005Y-63863932D01*
X75077165Y-63827000D01*
X75077164Y-63827000D01*
X74922836Y-63827000D01*
X74922834Y-63827000D01*
X74772994Y-63863932D01*
X74636344Y-63935651D01*
X74636342Y-63935652D01*
X74520827Y-64037990D01*
X74433160Y-64164996D01*
X74378432Y-64309300D01*
X74359832Y-64462496D01*
X74359832Y-64462503D01*
X71359502Y-64462503D01*
X71453358Y-64299938D01*
X71453360Y-64299935D01*
X71494278Y-64174000D01*
X70875878Y-64174000D01*
X70918278Y-64127941D01*
X70968551Y-64013330D01*
X70978886Y-63888605D01*
X70948163Y-63767281D01*
X70881992Y-63666000D01*
X71494278Y-63666000D01*
X71494278Y-63665999D01*
X71453360Y-63540064D01*
X71453358Y-63540061D01*
X71355718Y-63370941D01*
X71225046Y-63225816D01*
X71198138Y-63206266D01*
X82059832Y-63206266D01*
X82078432Y-63359462D01*
X82121185Y-63472192D01*
X82133159Y-63503764D01*
X82220827Y-63630773D01*
X82336343Y-63733111D01*
X82472993Y-63804830D01*
X82622836Y-63841763D01*
X82622837Y-63841763D01*
X82777163Y-63841763D01*
X82777164Y-63841763D01*
X82927007Y-63804830D01*
X83063657Y-63733111D01*
X83179173Y-63630773D01*
X83266841Y-63503764D01*
X83321566Y-63359465D01*
X83321566Y-63359464D01*
X83321567Y-63359462D01*
X83340168Y-63206266D01*
X90666095Y-63206266D01*
X90684695Y-63359462D01*
X90727448Y-63472192D01*
X90739422Y-63503764D01*
X90827090Y-63630773D01*
X90942606Y-63733111D01*
X91079256Y-63804830D01*
X91229099Y-63841763D01*
X91229100Y-63841763D01*
X91383426Y-63841763D01*
X91383427Y-63841763D01*
X91533270Y-63804830D01*
X91669920Y-63733111D01*
X91785436Y-63630773D01*
X91873104Y-63503764D01*
X91927829Y-63359465D01*
X91927829Y-63359464D01*
X91927830Y-63359462D01*
X91946431Y-63206266D01*
X91946431Y-63206259D01*
X91927830Y-63053063D01*
X91915855Y-63021489D01*
X91873104Y-62908762D01*
X91785436Y-62781753D01*
X91669920Y-62679415D01*
X91533270Y-62607696D01*
X91533269Y-62607695D01*
X91533268Y-62607695D01*
X91383428Y-62570763D01*
X91383427Y-62570763D01*
X91229099Y-62570763D01*
X91229097Y-62570763D01*
X91079257Y-62607695D01*
X90942607Y-62679414D01*
X90942605Y-62679415D01*
X90827090Y-62781753D01*
X90739423Y-62908759D01*
X90684695Y-63053063D01*
X90666095Y-63206259D01*
X90666095Y-63206266D01*
X83340168Y-63206266D01*
X83340168Y-63206259D01*
X83321567Y-63053063D01*
X83309592Y-63021489D01*
X83266841Y-62908762D01*
X83179173Y-62781753D01*
X83063657Y-62679415D01*
X82927007Y-62607696D01*
X82927006Y-62607695D01*
X82927005Y-62607695D01*
X82777165Y-62570763D01*
X82777164Y-62570763D01*
X82622836Y-62570763D01*
X82622834Y-62570763D01*
X82472994Y-62607695D01*
X82336344Y-62679414D01*
X82336342Y-62679415D01*
X82220827Y-62781753D01*
X82133160Y-62908759D01*
X82078432Y-63053063D01*
X82059832Y-63206259D01*
X82059832Y-63206266D01*
X71198138Y-63206266D01*
X71067059Y-63111031D01*
X70888658Y-63031602D01*
X70854000Y-63024235D01*
X70854000Y-63642496D01*
X70780948Y-63585637D01*
X70662576Y-63545000D01*
X70568927Y-63545000D01*
X70476554Y-63560414D01*
X70366486Y-63619981D01*
X70346000Y-63642234D01*
X70346000Y-63024235D01*
X70311345Y-63031601D01*
X70132941Y-63111031D01*
X69974953Y-63225816D01*
X69844281Y-63370941D01*
X69746641Y-63540061D01*
X69746639Y-63540064D01*
X69705721Y-63665999D01*
X66394278Y-63665999D01*
X66353360Y-63540064D01*
X66353358Y-63540061D01*
X66255718Y-63370941D01*
X66125046Y-63225816D01*
X65967059Y-63111031D01*
X65788658Y-63031602D01*
X65754000Y-63024235D01*
X65754000Y-63642496D01*
X65680948Y-63585637D01*
X65562576Y-63545000D01*
X65468927Y-63545000D01*
X65376554Y-63560414D01*
X65266486Y-63619981D01*
X65246000Y-63642234D01*
X65246000Y-63024235D01*
X65211345Y-63031601D01*
X65032941Y-63111031D01*
X64874953Y-63225816D01*
X64744281Y-63370941D01*
X64646641Y-63540061D01*
X64646639Y-63540064D01*
X64605721Y-63665999D01*
X61194278Y-63665999D01*
X61153360Y-63540064D01*
X61153358Y-63540061D01*
X61055718Y-63370941D01*
X60925046Y-63225816D01*
X60767059Y-63111031D01*
X60588658Y-63031602D01*
X60554000Y-63024235D01*
X60554000Y-63642496D01*
X60480948Y-63585637D01*
X60362576Y-63545000D01*
X60268927Y-63545000D01*
X60176554Y-63560414D01*
X60066486Y-63619981D01*
X60046000Y-63642234D01*
X60046000Y-63024235D01*
X60045999Y-63024235D01*
X60011345Y-63031601D01*
X59832941Y-63111031D01*
X59674953Y-63225816D01*
X59544281Y-63370941D01*
X59446641Y-63540061D01*
X59446639Y-63540064D01*
X59405721Y-63665999D01*
X55994278Y-63665999D01*
X55953360Y-63540064D01*
X55953358Y-63540061D01*
X55855718Y-63370941D01*
X55725046Y-63225816D01*
X55567059Y-63111031D01*
X55388658Y-63031602D01*
X55354000Y-63024235D01*
X55354000Y-63642496D01*
X55280948Y-63585637D01*
X55162576Y-63545000D01*
X55068927Y-63545000D01*
X54976554Y-63560414D01*
X54866486Y-63619981D01*
X54846000Y-63642234D01*
X54846000Y-63024235D01*
X54811345Y-63031601D01*
X54632941Y-63111031D01*
X54474953Y-63225816D01*
X54344281Y-63370941D01*
X54246641Y-63540061D01*
X54246639Y-63540064D01*
X54205721Y-63665999D01*
X50050500Y-63665999D01*
X50050500Y-61125999D01*
X54205721Y-61125999D01*
X54205722Y-61126000D01*
X54824122Y-61126000D01*
X54781722Y-61172059D01*
X54731449Y-61286670D01*
X54721114Y-61411395D01*
X54751837Y-61532719D01*
X54818008Y-61634000D01*
X54205722Y-61634000D01*
X54246639Y-61759935D01*
X54246641Y-61759938D01*
X54344281Y-61929058D01*
X54474953Y-62074183D01*
X54632940Y-62188968D01*
X54811340Y-62268397D01*
X54811343Y-62268398D01*
X54846000Y-62275764D01*
X54846000Y-61657503D01*
X54919052Y-61714363D01*
X55037424Y-61755000D01*
X55131073Y-61755000D01*
X55223446Y-61739586D01*
X55333514Y-61680019D01*
X55354000Y-61657765D01*
X55354000Y-62275763D01*
X55388656Y-62268398D01*
X55388659Y-62268397D01*
X55567059Y-62188968D01*
X55725046Y-62074183D01*
X55855718Y-61929058D01*
X55953358Y-61759938D01*
X55953360Y-61759935D01*
X55994278Y-61634000D01*
X55375878Y-61634000D01*
X55418278Y-61587941D01*
X55468551Y-61473330D01*
X55478886Y-61348605D01*
X55448163Y-61227281D01*
X55381992Y-61126000D01*
X55994278Y-61126000D01*
X55994278Y-61125999D01*
X59405721Y-61125999D01*
X59405722Y-61126000D01*
X60024122Y-61126000D01*
X59981722Y-61172059D01*
X59931449Y-61286670D01*
X59921114Y-61411395D01*
X59951837Y-61532719D01*
X60018008Y-61634000D01*
X59405722Y-61634000D01*
X59446639Y-61759935D01*
X59446641Y-61759938D01*
X59544281Y-61929058D01*
X59674953Y-62074183D01*
X59832940Y-62188968D01*
X60011340Y-62268397D01*
X60011343Y-62268398D01*
X60046000Y-62275764D01*
X60046000Y-61657503D01*
X60119052Y-61714363D01*
X60237424Y-61755000D01*
X60331073Y-61755000D01*
X60423446Y-61739586D01*
X60533514Y-61680019D01*
X60554000Y-61657765D01*
X60554000Y-62275763D01*
X60588656Y-62268398D01*
X60588659Y-62268397D01*
X60767059Y-62188968D01*
X60925046Y-62074183D01*
X61055718Y-61929058D01*
X61153358Y-61759938D01*
X61153360Y-61759935D01*
X61194278Y-61634000D01*
X60575878Y-61634000D01*
X60618278Y-61587941D01*
X60668551Y-61473330D01*
X60678886Y-61348605D01*
X60648163Y-61227281D01*
X60581992Y-61126000D01*
X61194278Y-61126000D01*
X61194278Y-61125999D01*
X64605721Y-61125999D01*
X64605722Y-61126000D01*
X65224122Y-61126000D01*
X65181722Y-61172059D01*
X65131449Y-61286670D01*
X65121114Y-61411395D01*
X65151837Y-61532719D01*
X65218008Y-61634000D01*
X64605722Y-61634000D01*
X64646639Y-61759935D01*
X64646641Y-61759938D01*
X64744281Y-61929058D01*
X64874953Y-62074183D01*
X65032940Y-62188968D01*
X65211340Y-62268397D01*
X65211343Y-62268398D01*
X65246000Y-62275764D01*
X65246000Y-61657503D01*
X65319052Y-61714363D01*
X65437424Y-61755000D01*
X65531073Y-61755000D01*
X65623446Y-61739586D01*
X65733514Y-61680019D01*
X65754000Y-61657765D01*
X65754000Y-62275763D01*
X65788656Y-62268398D01*
X65788659Y-62268397D01*
X65967059Y-62188968D01*
X66125046Y-62074183D01*
X66255718Y-61929058D01*
X66353358Y-61759938D01*
X66353360Y-61759935D01*
X66394278Y-61634000D01*
X65775878Y-61634000D01*
X65818278Y-61587941D01*
X65868551Y-61473330D01*
X65878886Y-61348605D01*
X65848163Y-61227281D01*
X65781992Y-61126000D01*
X66394278Y-61126000D01*
X66394278Y-61125999D01*
X69705721Y-61125999D01*
X69705722Y-61126000D01*
X70324122Y-61126000D01*
X70281722Y-61172059D01*
X70231449Y-61286670D01*
X70221114Y-61411395D01*
X70251837Y-61532719D01*
X70318008Y-61634000D01*
X69705722Y-61634000D01*
X69746639Y-61759935D01*
X69746641Y-61759938D01*
X69844281Y-61929058D01*
X69974953Y-62074183D01*
X70132940Y-62188968D01*
X70311340Y-62268397D01*
X70311343Y-62268398D01*
X70346000Y-62275764D01*
X70346000Y-61657503D01*
X70419052Y-61714363D01*
X70537424Y-61755000D01*
X70631073Y-61755000D01*
X70723446Y-61739586D01*
X70833514Y-61680019D01*
X70854000Y-61657765D01*
X70854000Y-62275763D01*
X70888656Y-62268398D01*
X70888659Y-62268397D01*
X71067059Y-62188968D01*
X71225046Y-62074183D01*
X71355718Y-61929058D01*
X71453358Y-61759938D01*
X71453360Y-61759935D01*
X71494278Y-61634000D01*
X70875878Y-61634000D01*
X70918278Y-61587941D01*
X70968551Y-61473330D01*
X70978886Y-61348605D01*
X70948163Y-61227281D01*
X70881992Y-61126000D01*
X71494278Y-61126000D01*
X71494278Y-61125999D01*
X71453360Y-61000064D01*
X71453358Y-61000061D01*
X71355718Y-60830941D01*
X71225046Y-60685816D01*
X71067059Y-60571031D01*
X70888658Y-60491602D01*
X70854000Y-60484235D01*
X70854000Y-61102496D01*
X70780948Y-61045637D01*
X70662576Y-61005000D01*
X70568927Y-61005000D01*
X70476554Y-61020414D01*
X70366486Y-61079981D01*
X70346000Y-61102234D01*
X70346000Y-60484235D01*
X70311345Y-60491601D01*
X70132941Y-60571031D01*
X69974953Y-60685816D01*
X69844281Y-60830941D01*
X69746641Y-61000061D01*
X69746639Y-61000064D01*
X69705721Y-61125999D01*
X66394278Y-61125999D01*
X66353360Y-61000064D01*
X66353358Y-61000061D01*
X66255718Y-60830941D01*
X66125046Y-60685816D01*
X65967059Y-60571031D01*
X65788658Y-60491602D01*
X65754000Y-60484235D01*
X65754000Y-61102496D01*
X65680948Y-61045637D01*
X65562576Y-61005000D01*
X65468927Y-61005000D01*
X65376554Y-61020414D01*
X65266486Y-61079981D01*
X65246000Y-61102234D01*
X65246000Y-60484235D01*
X65211345Y-60491601D01*
X65032941Y-60571031D01*
X64874953Y-60685816D01*
X64744281Y-60830941D01*
X64646641Y-61000061D01*
X64646639Y-61000064D01*
X64605721Y-61125999D01*
X61194278Y-61125999D01*
X61153360Y-61000064D01*
X61153358Y-61000061D01*
X61055718Y-60830941D01*
X60925046Y-60685816D01*
X60767059Y-60571031D01*
X60588658Y-60491602D01*
X60554000Y-60484235D01*
X60554000Y-61102496D01*
X60480948Y-61045637D01*
X60362576Y-61005000D01*
X60268927Y-61005000D01*
X60176554Y-61020414D01*
X60066486Y-61079981D01*
X60046000Y-61102234D01*
X60046000Y-60484235D01*
X60045999Y-60484235D01*
X60011345Y-60491601D01*
X59832941Y-60571031D01*
X59674953Y-60685816D01*
X59544281Y-60830941D01*
X59446641Y-61000061D01*
X59446639Y-61000064D01*
X59405721Y-61125999D01*
X55994278Y-61125999D01*
X55953360Y-61000064D01*
X55953358Y-61000061D01*
X55855718Y-60830941D01*
X55725046Y-60685816D01*
X55567059Y-60571031D01*
X55388658Y-60491602D01*
X55354000Y-60484235D01*
X55354000Y-61102496D01*
X55280948Y-61045637D01*
X55162576Y-61005000D01*
X55068927Y-61005000D01*
X54976554Y-61020414D01*
X54866486Y-61079981D01*
X54846000Y-61102234D01*
X54846000Y-60484235D01*
X54811345Y-60491601D01*
X54632941Y-60571031D01*
X54474953Y-60685816D01*
X54344281Y-60830941D01*
X54246641Y-61000061D01*
X54246639Y-61000064D01*
X54205721Y-61125999D01*
X50050500Y-61125999D01*
X50050500Y-58840000D01*
X54165380Y-58840000D01*
X54182459Y-59002496D01*
X54185805Y-59034323D01*
X54246179Y-59220139D01*
X54246182Y-59220145D01*
X54343875Y-59389353D01*
X54343877Y-59389356D01*
X54474617Y-59534558D01*
X54632690Y-59649405D01*
X54751268Y-59702198D01*
X54811184Y-59728875D01*
X54811185Y-59728875D01*
X54811187Y-59728876D01*
X55002306Y-59769500D01*
X55002310Y-59769500D01*
X55197690Y-59769500D01*
X55197694Y-59769500D01*
X55388813Y-59728876D01*
X55567310Y-59649405D01*
X55725383Y-59534558D01*
X55856123Y-59389356D01*
X55953818Y-59220144D01*
X56014196Y-59034318D01*
X56034620Y-58840000D01*
X59365380Y-58840000D01*
X59382459Y-59002496D01*
X59385805Y-59034323D01*
X59446179Y-59220139D01*
X59446182Y-59220145D01*
X59543875Y-59389353D01*
X59543877Y-59389356D01*
X59674617Y-59534558D01*
X59832690Y-59649405D01*
X59951268Y-59702198D01*
X60011184Y-59728875D01*
X60011185Y-59728875D01*
X60011187Y-59728876D01*
X60202306Y-59769500D01*
X60202310Y-59769500D01*
X60397690Y-59769500D01*
X60397694Y-59769500D01*
X60588813Y-59728876D01*
X60767310Y-59649405D01*
X60925383Y-59534558D01*
X61056123Y-59389356D01*
X61153818Y-59220144D01*
X61214196Y-59034318D01*
X61234620Y-58840000D01*
X64565380Y-58840000D01*
X64582459Y-59002496D01*
X64585805Y-59034323D01*
X64646179Y-59220139D01*
X64646182Y-59220145D01*
X64743875Y-59389353D01*
X64743877Y-59389356D01*
X64874617Y-59534558D01*
X65032690Y-59649405D01*
X65151268Y-59702198D01*
X65211184Y-59728875D01*
X65211185Y-59728875D01*
X65211187Y-59728876D01*
X65402306Y-59769500D01*
X65402310Y-59769500D01*
X65597690Y-59769500D01*
X65597694Y-59769500D01*
X65788813Y-59728876D01*
X65967310Y-59649405D01*
X66125383Y-59534558D01*
X66256123Y-59389356D01*
X66353818Y-59220144D01*
X66414196Y-59034318D01*
X66434620Y-58840000D01*
X69665380Y-58840000D01*
X69682459Y-59002496D01*
X69685805Y-59034323D01*
X69746179Y-59220139D01*
X69746182Y-59220145D01*
X69843875Y-59389353D01*
X69843877Y-59389356D01*
X69974617Y-59534558D01*
X70132690Y-59649405D01*
X70251268Y-59702198D01*
X70311184Y-59728875D01*
X70311185Y-59728875D01*
X70311187Y-59728876D01*
X70502306Y-59769500D01*
X70502310Y-59769500D01*
X70697690Y-59769500D01*
X70697694Y-59769500D01*
X70888813Y-59728876D01*
X71067310Y-59649405D01*
X71225383Y-59534558D01*
X71356123Y-59389356D01*
X71407711Y-59300003D01*
X73459832Y-59300003D01*
X73478432Y-59453199D01*
X73509288Y-59534558D01*
X73533159Y-59597501D01*
X73620827Y-59724510D01*
X73736343Y-59826848D01*
X73872993Y-59898567D01*
X74022836Y-59935500D01*
X74022837Y-59935500D01*
X74177163Y-59935500D01*
X74177164Y-59935500D01*
X74327007Y-59898567D01*
X74463657Y-59826848D01*
X74579173Y-59724510D01*
X74666841Y-59597501D01*
X74721566Y-59453202D01*
X74721566Y-59453201D01*
X74721567Y-59453199D01*
X74740168Y-59300003D01*
X74740168Y-59299996D01*
X74721567Y-59146800D01*
X74678908Y-59034318D01*
X74666841Y-59002499D01*
X74579173Y-58875490D01*
X74463657Y-58773152D01*
X74327007Y-58701433D01*
X74327006Y-58701432D01*
X74327005Y-58701432D01*
X74177165Y-58664500D01*
X74177164Y-58664500D01*
X74022836Y-58664500D01*
X74022834Y-58664500D01*
X73872994Y-58701432D01*
X73736344Y-58773151D01*
X73736342Y-58773152D01*
X73620827Y-58875490D01*
X73533160Y-59002496D01*
X73478432Y-59146800D01*
X73459832Y-59299996D01*
X73459832Y-59300003D01*
X71407711Y-59300003D01*
X71453818Y-59220144D01*
X71514196Y-59034318D01*
X71534620Y-58840000D01*
X71514196Y-58645682D01*
X71510133Y-58633178D01*
X71453820Y-58459860D01*
X71453817Y-58459854D01*
X71356124Y-58290646D01*
X71356123Y-58290644D01*
X71225383Y-58145442D01*
X71225382Y-58145441D01*
X71067312Y-58030596D01*
X70888815Y-57951124D01*
X70825106Y-57937582D01*
X70697694Y-57910500D01*
X70502306Y-57910500D01*
X70393095Y-57933713D01*
X70311184Y-57951124D01*
X70132687Y-58030596D01*
X69974617Y-58145441D01*
X69843878Y-58290642D01*
X69843875Y-58290646D01*
X69746182Y-58459854D01*
X69746179Y-58459860D01*
X69685805Y-58645676D01*
X69685804Y-58645680D01*
X69685804Y-58645682D01*
X69665380Y-58840000D01*
X66434620Y-58840000D01*
X66414196Y-58645682D01*
X66410133Y-58633178D01*
X66353820Y-58459860D01*
X66353817Y-58459854D01*
X66256124Y-58290646D01*
X66256123Y-58290644D01*
X66125383Y-58145442D01*
X66125382Y-58145441D01*
X65967312Y-58030596D01*
X65788815Y-57951124D01*
X65725106Y-57937582D01*
X65597694Y-57910500D01*
X65402306Y-57910500D01*
X65293095Y-57933713D01*
X65211184Y-57951124D01*
X65032687Y-58030596D01*
X64874617Y-58145441D01*
X64743878Y-58290642D01*
X64743875Y-58290646D01*
X64646182Y-58459854D01*
X64646179Y-58459860D01*
X64585805Y-58645676D01*
X64585804Y-58645680D01*
X64585804Y-58645682D01*
X64565380Y-58840000D01*
X61234620Y-58840000D01*
X61214196Y-58645682D01*
X61210133Y-58633178D01*
X61153820Y-58459860D01*
X61153817Y-58459854D01*
X61056124Y-58290646D01*
X61056123Y-58290644D01*
X60925383Y-58145442D01*
X60925382Y-58145441D01*
X60767312Y-58030596D01*
X60588815Y-57951124D01*
X60525106Y-57937582D01*
X60397694Y-57910500D01*
X60202306Y-57910500D01*
X60093095Y-57933713D01*
X60011184Y-57951124D01*
X59832687Y-58030596D01*
X59674617Y-58145441D01*
X59543878Y-58290642D01*
X59543875Y-58290646D01*
X59446182Y-58459854D01*
X59446179Y-58459860D01*
X59385805Y-58645676D01*
X59385804Y-58645680D01*
X59385804Y-58645682D01*
X59365380Y-58840000D01*
X56034620Y-58840000D01*
X56014196Y-58645682D01*
X56010133Y-58633178D01*
X55953820Y-58459860D01*
X55953817Y-58459854D01*
X55856124Y-58290646D01*
X55856123Y-58290644D01*
X55725383Y-58145442D01*
X55725382Y-58145441D01*
X55567312Y-58030596D01*
X55388815Y-57951124D01*
X55325106Y-57937582D01*
X55197694Y-57910500D01*
X55002306Y-57910500D01*
X54893095Y-57933713D01*
X54811184Y-57951124D01*
X54632687Y-58030596D01*
X54474617Y-58145441D01*
X54343878Y-58290642D01*
X54343875Y-58290646D01*
X54246182Y-58459854D01*
X54246179Y-58459860D01*
X54185805Y-58645676D01*
X54185804Y-58645680D01*
X54185804Y-58645682D01*
X54165380Y-58840000D01*
X50050500Y-58840000D01*
X50050500Y-57000063D01*
X54170500Y-57000063D01*
X54170501Y-57000073D01*
X54185265Y-57074300D01*
X54241516Y-57158484D01*
X54325697Y-57214733D01*
X54325699Y-57214734D01*
X54399933Y-57229500D01*
X55800066Y-57229499D01*
X55800069Y-57229498D01*
X55800073Y-57229498D01*
X55849326Y-57219701D01*
X55874301Y-57214734D01*
X55958484Y-57158484D01*
X56014734Y-57074301D01*
X56029500Y-57000067D01*
X56029500Y-57000063D01*
X59370500Y-57000063D01*
X59370501Y-57000073D01*
X59385265Y-57074300D01*
X59441516Y-57158484D01*
X59525697Y-57214733D01*
X59525699Y-57214734D01*
X59599933Y-57229500D01*
X61000066Y-57229499D01*
X61000069Y-57229498D01*
X61000073Y-57229498D01*
X61049326Y-57219701D01*
X61074301Y-57214734D01*
X61158484Y-57158484D01*
X61214734Y-57074301D01*
X61229500Y-57000067D01*
X61229500Y-57000063D01*
X64570500Y-57000063D01*
X64570501Y-57000073D01*
X64585265Y-57074300D01*
X64641516Y-57158484D01*
X64725697Y-57214733D01*
X64725699Y-57214734D01*
X64799933Y-57229500D01*
X66200066Y-57229499D01*
X66200069Y-57229498D01*
X66200073Y-57229498D01*
X66249326Y-57219701D01*
X66274301Y-57214734D01*
X66358484Y-57158484D01*
X66414734Y-57074301D01*
X66429500Y-57000067D01*
X66429500Y-57000063D01*
X69670500Y-57000063D01*
X69670501Y-57000073D01*
X69685265Y-57074300D01*
X69741516Y-57158484D01*
X69825697Y-57214733D01*
X69825699Y-57214734D01*
X69899933Y-57229500D01*
X71300066Y-57229499D01*
X71300069Y-57229498D01*
X71300073Y-57229498D01*
X71349326Y-57219701D01*
X71374301Y-57214734D01*
X71458484Y-57158484D01*
X71514734Y-57074301D01*
X71529500Y-57000067D01*
X71529500Y-56798390D01*
X79045823Y-56798390D01*
X79060573Y-56894669D01*
X79075097Y-56989474D01*
X79109297Y-57081817D01*
X79142237Y-57170755D01*
X79194979Y-57255373D01*
X79244491Y-57334807D01*
X79377677Y-57474919D01*
X79377680Y-57474921D01*
X79536340Y-57585352D01*
X79536341Y-57585352D01*
X79536342Y-57585353D01*
X79713988Y-57661587D01*
X79903344Y-57700500D01*
X79903345Y-57700500D01*
X80048205Y-57700500D01*
X80048206Y-57700500D01*
X80192321Y-57685845D01*
X80376768Y-57627974D01*
X80545791Y-57534159D01*
X80545792Y-57534158D01*
X80545794Y-57534157D01*
X80599048Y-57488438D01*
X80692468Y-57408240D01*
X80810796Y-57255373D01*
X80895930Y-57081816D01*
X80944385Y-56894674D01*
X80944385Y-56894667D01*
X80944386Y-56894665D01*
X80954176Y-56701609D01*
X80939426Y-56605330D01*
X80924903Y-56510526D01*
X80857764Y-56329247D01*
X80755509Y-56165193D01*
X80622323Y-56025081D01*
X80622319Y-56025078D01*
X80463659Y-55914647D01*
X80286010Y-55838412D01*
X80145632Y-55809564D01*
X80096656Y-55799500D01*
X79951794Y-55799500D01*
X79951793Y-55799500D01*
X79951775Y-55799501D01*
X79807683Y-55814154D01*
X79807680Y-55814154D01*
X79807679Y-55814155D01*
X79757709Y-55829833D01*
X79623233Y-55872025D01*
X79454205Y-55965842D01*
X79307538Y-56091754D01*
X79307536Y-56091756D01*
X79307532Y-56091760D01*
X79250691Y-56165193D01*
X79189201Y-56244631D01*
X79104071Y-56418182D01*
X79104069Y-56418186D01*
X79055614Y-56605330D01*
X79055613Y-56605334D01*
X79045823Y-56798390D01*
X71529500Y-56798390D01*
X71529499Y-55599934D01*
X71529498Y-55599930D01*
X71529498Y-55599926D01*
X71514734Y-55525699D01*
X71458483Y-55441515D01*
X71374302Y-55385266D01*
X71300067Y-55370500D01*
X69899936Y-55370500D01*
X69899926Y-55370501D01*
X69825699Y-55385265D01*
X69741515Y-55441516D01*
X69685266Y-55525697D01*
X69670500Y-55599930D01*
X69670500Y-57000063D01*
X66429500Y-57000063D01*
X66429499Y-55599934D01*
X66429498Y-55599930D01*
X66429498Y-55599926D01*
X66414734Y-55525699D01*
X66358483Y-55441515D01*
X66274302Y-55385266D01*
X66200067Y-55370500D01*
X64799936Y-55370500D01*
X64799926Y-55370501D01*
X64725699Y-55385265D01*
X64641515Y-55441516D01*
X64585266Y-55525697D01*
X64570500Y-55599930D01*
X64570500Y-57000063D01*
X61229500Y-57000063D01*
X61229499Y-55599934D01*
X61229498Y-55599930D01*
X61229498Y-55599926D01*
X61214734Y-55525699D01*
X61158483Y-55441515D01*
X61074302Y-55385266D01*
X61000067Y-55370500D01*
X59599936Y-55370500D01*
X59599926Y-55370501D01*
X59525699Y-55385265D01*
X59441515Y-55441516D01*
X59385266Y-55525697D01*
X59370500Y-55599930D01*
X59370500Y-57000063D01*
X56029500Y-57000063D01*
X56029499Y-55599934D01*
X56029498Y-55599930D01*
X56029498Y-55599926D01*
X56014734Y-55525699D01*
X55958483Y-55441515D01*
X55874302Y-55385266D01*
X55800067Y-55370500D01*
X54399936Y-55370500D01*
X54399926Y-55370501D01*
X54325699Y-55385265D01*
X54241515Y-55441516D01*
X54185266Y-55525697D01*
X54170500Y-55599930D01*
X54170500Y-57000063D01*
X50050500Y-57000063D01*
X50050500Y-53500000D01*
X88145380Y-53500000D01*
X88165805Y-53694323D01*
X88226179Y-53880139D01*
X88226182Y-53880145D01*
X88323875Y-54049353D01*
X88323878Y-54049357D01*
X88454617Y-54194558D01*
X88612088Y-54308968D01*
X88612690Y-54309405D01*
X88722922Y-54358483D01*
X88791184Y-54388875D01*
X88791185Y-54388875D01*
X88791187Y-54388876D01*
X88982306Y-54429500D01*
X88982310Y-54429500D01*
X89177690Y-54429500D01*
X89177694Y-54429500D01*
X89368813Y-54388876D01*
X89547310Y-54309405D01*
X89705383Y-54194558D01*
X89836123Y-54049356D01*
X89933818Y-53880144D01*
X89935490Y-53875000D01*
X89974804Y-53754000D01*
X89994196Y-53694318D01*
X90014620Y-53500000D01*
X89994196Y-53305682D01*
X89989770Y-53292059D01*
X89974804Y-53245999D01*
X90725721Y-53245999D01*
X90725722Y-53246000D01*
X91344122Y-53246000D01*
X91301722Y-53292059D01*
X91251449Y-53406670D01*
X91241114Y-53531395D01*
X91271837Y-53652719D01*
X91338008Y-53754000D01*
X90725722Y-53754000D01*
X90766639Y-53879935D01*
X90766641Y-53879938D01*
X90864281Y-54049058D01*
X90994953Y-54194183D01*
X91152940Y-54308968D01*
X91331340Y-54388397D01*
X91331343Y-54388398D01*
X91366000Y-54395764D01*
X91366000Y-53777503D01*
X91439052Y-53834363D01*
X91557424Y-53875000D01*
X91651073Y-53875000D01*
X91743446Y-53859586D01*
X91853514Y-53800019D01*
X91874000Y-53777765D01*
X91874000Y-54395763D01*
X91908656Y-54388398D01*
X91908659Y-54388397D01*
X92087059Y-54308968D01*
X92245046Y-54194183D01*
X92375718Y-54049058D01*
X92473358Y-53879938D01*
X92473360Y-53879935D01*
X92514278Y-53754000D01*
X91895878Y-53754000D01*
X91938278Y-53707941D01*
X91988551Y-53593330D01*
X91996285Y-53500000D01*
X93225380Y-53500000D01*
X93245805Y-53694323D01*
X93306179Y-53880139D01*
X93306182Y-53880145D01*
X93403875Y-54049353D01*
X93403878Y-54049357D01*
X93534617Y-54194558D01*
X93692088Y-54308968D01*
X93692690Y-54309405D01*
X93802922Y-54358483D01*
X93871184Y-54388875D01*
X93871185Y-54388875D01*
X93871187Y-54388876D01*
X94062306Y-54429500D01*
X94062310Y-54429500D01*
X94257690Y-54429500D01*
X94257694Y-54429500D01*
X94448813Y-54388876D01*
X94627310Y-54309405D01*
X94777806Y-54200063D01*
X95770500Y-54200063D01*
X95770501Y-54200073D01*
X95785265Y-54274300D01*
X95841516Y-54358484D01*
X95925697Y-54414733D01*
X95925699Y-54414734D01*
X95999933Y-54429500D01*
X97400066Y-54429499D01*
X97400069Y-54429498D01*
X97400073Y-54429498D01*
X97449326Y-54419701D01*
X97474301Y-54414734D01*
X97558484Y-54358484D01*
X97614734Y-54274301D01*
X97629500Y-54200067D01*
X97629499Y-52799934D01*
X97629498Y-52799930D01*
X97629498Y-52799926D01*
X97614734Y-52725699D01*
X97591569Y-52691031D01*
X97558484Y-52641516D01*
X97558483Y-52641515D01*
X97474302Y-52585266D01*
X97400067Y-52570500D01*
X95999936Y-52570500D01*
X95999926Y-52570501D01*
X95925699Y-52585265D01*
X95841515Y-52641516D01*
X95785266Y-52725697D01*
X95770500Y-52799930D01*
X95770500Y-54200063D01*
X94777806Y-54200063D01*
X94785383Y-54194558D01*
X94916123Y-54049356D01*
X95013818Y-53880144D01*
X95015490Y-53875000D01*
X95054804Y-53754000D01*
X95074196Y-53694318D01*
X95094620Y-53500000D01*
X95074196Y-53305682D01*
X95069770Y-53292059D01*
X95013820Y-53119860D01*
X95013817Y-53119854D01*
X94916124Y-52950646D01*
X94916123Y-52950644D01*
X94785383Y-52805442D01*
X94777801Y-52799933D01*
X94627312Y-52690596D01*
X94448815Y-52611124D01*
X94385106Y-52597582D01*
X94257694Y-52570500D01*
X94062306Y-52570500D01*
X93953095Y-52593713D01*
X93871184Y-52611124D01*
X93692687Y-52690596D01*
X93534617Y-52805441D01*
X93403878Y-52950642D01*
X93403875Y-52950646D01*
X93306182Y-53119854D01*
X93306179Y-53119860D01*
X93245805Y-53305676D01*
X93225380Y-53500000D01*
X91996285Y-53500000D01*
X91998886Y-53468605D01*
X91968163Y-53347281D01*
X91901992Y-53246000D01*
X92514278Y-53246000D01*
X92514278Y-53245999D01*
X92473360Y-53120064D01*
X92473358Y-53120061D01*
X92375718Y-52950941D01*
X92245046Y-52805816D01*
X92087059Y-52691031D01*
X91908658Y-52611602D01*
X91874000Y-52604235D01*
X91874000Y-53222496D01*
X91800948Y-53165637D01*
X91682576Y-53125000D01*
X91588927Y-53125000D01*
X91496554Y-53140414D01*
X91386486Y-53199981D01*
X91366000Y-53222234D01*
X91366000Y-52604235D01*
X91365999Y-52604235D01*
X91331345Y-52611601D01*
X91152941Y-52691031D01*
X90994953Y-52805816D01*
X90864281Y-52950941D01*
X90766641Y-53120061D01*
X90766639Y-53120064D01*
X90725721Y-53245999D01*
X89974804Y-53245999D01*
X89933820Y-53119860D01*
X89933817Y-53119854D01*
X89836124Y-52950646D01*
X89836123Y-52950644D01*
X89705383Y-52805442D01*
X89697801Y-52799933D01*
X89547312Y-52690596D01*
X89368815Y-52611124D01*
X89305106Y-52597582D01*
X89177694Y-52570500D01*
X88982306Y-52570500D01*
X88873095Y-52593713D01*
X88791184Y-52611124D01*
X88612687Y-52690596D01*
X88454617Y-52805441D01*
X88323878Y-52950642D01*
X88323875Y-52950646D01*
X88226182Y-53119854D01*
X88226179Y-53119860D01*
X88165805Y-53305676D01*
X88145380Y-53500000D01*
X50050500Y-53500000D01*
X50050500Y-52298390D01*
X79045823Y-52298390D01*
X79060573Y-52394669D01*
X79075097Y-52489474D01*
X79131407Y-52641515D01*
X79142237Y-52670755D01*
X79226187Y-52805442D01*
X79244491Y-52834807D01*
X79377677Y-52974919D01*
X79377680Y-52974921D01*
X79536340Y-53085352D01*
X79536341Y-53085352D01*
X79536342Y-53085353D01*
X79713988Y-53161587D01*
X79903344Y-53200500D01*
X79903345Y-53200500D01*
X80048205Y-53200500D01*
X80048206Y-53200500D01*
X80192321Y-53185845D01*
X80376768Y-53127974D01*
X80545791Y-53034159D01*
X80545792Y-53034158D01*
X80545794Y-53034157D01*
X80599048Y-52988438D01*
X80692468Y-52908240D01*
X80810796Y-52755373D01*
X80895930Y-52581816D01*
X80944385Y-52394674D01*
X80944385Y-52394667D01*
X80944386Y-52394665D01*
X80954176Y-52201609D01*
X80939426Y-52105330D01*
X80924903Y-52010526D01*
X80857764Y-51829247D01*
X80755509Y-51665193D01*
X80622323Y-51525081D01*
X80622319Y-51525078D01*
X80463659Y-51414647D01*
X80286010Y-51338412D01*
X80145632Y-51309564D01*
X80096656Y-51299500D01*
X79951794Y-51299500D01*
X79951793Y-51299500D01*
X79951775Y-51299501D01*
X79807683Y-51314154D01*
X79807680Y-51314154D01*
X79807679Y-51314155D01*
X79757709Y-51329833D01*
X79623233Y-51372025D01*
X79454205Y-51465842D01*
X79307538Y-51591754D01*
X79307536Y-51591756D01*
X79307532Y-51591760D01*
X79250691Y-51665193D01*
X79189201Y-51744631D01*
X79104071Y-51918182D01*
X79104069Y-51918186D01*
X79055614Y-52105330D01*
X79055613Y-52105334D01*
X79045823Y-52298390D01*
X50050500Y-52298390D01*
X50050500Y-50176500D01*
X50070502Y-50108379D01*
X50124158Y-50061886D01*
X50176500Y-50050500D01*
X109823500Y-50050500D01*
X109891621Y-50070502D01*
G37*
G04 #@! TD.AperFunction*
M02*
