G04 #@! TF.GenerationSoftware,KiCad,Pcbnew,5.1.4+dfsg1-1*
G04 #@! TF.CreationDate,2019-09-30T15:39:43-04:00*
G04 #@! TF.ProjectId,mystatV7,6d797374-6174-4563-972e-6b696361645f,rev?*
G04 #@! TF.SameCoordinates,Original*
G04 #@! TF.FileFunction,Copper,L4,Bot*
G04 #@! TF.FilePolarity,Positive*
%FSLAX46Y46*%
G04 Gerber Fmt 4.6, Leading zero omitted, Abs format (unit mm)*
G04 Created by KiCad (PCBNEW 5.1.4+dfsg1-1) date 2019-09-30 15:39:43*
%MOMM*%
%LPD*%
G04 APERTURE LIST*
%ADD10O,2.000000X3.500000*%
%ADD11O,3.300000X2.000000*%
%ADD12O,4.000000X2.000000*%
%ADD13R,1.350000X1.350000*%
%ADD14O,1.350000X1.350000*%
%ADD15O,1.700000X1.700000*%
%ADD16R,1.700000X1.700000*%
%ADD17C,1.500000*%
%ADD18C,0.508000*%
%ADD19C,0.762000*%
%ADD20C,0.508000*%
%ADD21C,0.254000*%
G04 APERTURE END LIST*
D10*
X95500000Y-125700000D03*
X104500000Y-125700000D03*
D11*
X100000000Y-124700000D03*
D12*
X100000000Y-118700000D03*
D13*
X65500000Y-56300000D03*
D14*
X65500000Y-58840000D03*
X65500000Y-61380000D03*
X65500000Y-63920000D03*
D13*
X70600000Y-56300000D03*
D14*
X70600000Y-58840000D03*
X70600000Y-61380000D03*
X70600000Y-63920000D03*
D13*
X60300000Y-56300000D03*
D14*
X60300000Y-58840000D03*
X60300000Y-61380000D03*
X60300000Y-63920000D03*
D13*
X96700000Y-53500000D03*
D14*
X94160000Y-53500000D03*
X91620000Y-53500000D03*
X89080000Y-53500000D03*
D13*
X55100000Y-56300000D03*
D14*
X55100000Y-58840000D03*
X55100000Y-61380000D03*
X55100000Y-63920000D03*
D15*
X54700000Y-127700000D03*
X57240000Y-127700000D03*
X59780000Y-127700000D03*
X62320000Y-127700000D03*
X64860000Y-127700000D03*
D16*
X67400000Y-127700000D03*
D17*
X62350000Y-118190000D03*
X57470000Y-118190000D03*
D18*
X78180943Y-111687404D03*
X78180943Y-112987404D03*
X79480943Y-112937404D03*
X80730943Y-114237404D03*
X81980943Y-114187404D03*
X79430943Y-114237404D03*
X78180943Y-114237404D03*
X79430943Y-115487404D03*
X80730943Y-115487404D03*
X81980943Y-115487404D03*
X81980943Y-116737404D03*
X80730943Y-116787404D03*
X79430943Y-116737404D03*
X78180943Y-120637404D03*
D19*
X103026497Y-102616761D03*
X106047593Y-108340368D03*
X53407733Y-67862940D03*
X61300000Y-67862500D03*
X61300000Y-73100000D03*
X73900000Y-66337500D03*
X79300000Y-71537500D03*
X84300000Y-66900000D03*
X87562500Y-69700000D03*
X92800000Y-66900000D03*
X95962500Y-69700000D03*
X91000000Y-73500000D03*
X90337500Y-83900000D03*
X104000000Y-57200000D03*
X101300000Y-75100000D03*
X101300000Y-84000000D03*
X53300000Y-73100000D03*
X95000000Y-78000000D03*
X62900000Y-82100000D03*
D18*
X79430943Y-120637404D03*
D19*
X95305758Y-97600000D03*
X94900000Y-105002868D03*
X62791708Y-115009399D03*
X64800000Y-122600000D03*
X54800000Y-122600000D03*
X54965600Y-97739200D03*
X75000000Y-127000000D03*
X60180601Y-110309399D03*
X77680000Y-84750000D03*
X77550000Y-89310000D03*
X88000000Y-124000000D03*
X71662500Y-126917500D03*
X75062500Y-104937500D03*
X86000000Y-94600000D03*
X91500000Y-99300000D03*
X71600000Y-91200000D03*
X75100000Y-93600000D03*
X55200000Y-81600000D03*
X74900000Y-97800000D03*
X102959632Y-110340368D03*
X99200000Y-90040000D03*
X73900000Y-64462500D03*
X82700000Y-63206263D03*
X91306263Y-63206263D03*
X88462500Y-83900000D03*
X100062500Y-86100000D03*
X75700000Y-96600000D03*
X77500000Y-80300000D03*
X104816761Y-95816761D03*
X79300000Y-69662500D03*
X89437500Y-69700000D03*
X97837500Y-69700000D03*
X86200000Y-71900000D03*
X96400000Y-75100000D03*
X84200000Y-94500000D03*
X84200000Y-90500000D03*
X105750000Y-93000000D03*
X68300000Y-82100000D03*
X68430000Y-124130000D03*
X70362500Y-99837500D03*
X60100000Y-84400000D03*
X88500000Y-106500000D03*
X60286560Y-74383440D03*
X73367972Y-101332028D03*
X82562500Y-77337500D03*
X77662500Y-76962500D03*
X101300000Y-82100000D03*
X103845011Y-80045011D03*
X85850000Y-78750000D03*
X59800000Y-71100000D03*
X68162500Y-67862500D03*
X75300000Y-74000000D03*
X82500000Y-87600000D03*
X82500000Y-81900000D03*
X60840000Y-95260000D03*
X69700000Y-118100000D03*
X62365000Y-96545000D03*
X70199000Y-115099000D03*
X74100000Y-59300000D03*
X64410000Y-93980000D03*
X63000000Y-92800000D03*
X60445000Y-90205000D03*
X56125000Y-85075000D03*
X53900000Y-87300000D03*
D20*
X81443763Y-64462500D02*
X82700000Y-63206263D01*
X73900000Y-64462500D02*
X81443763Y-64462500D01*
X82700000Y-63206263D02*
X91306263Y-63206263D01*
X91312526Y-63200000D02*
X91306263Y-63206263D01*
X90662500Y-86100000D02*
X100062500Y-86100000D01*
X88462500Y-83900000D02*
X90662500Y-86100000D01*
X84862500Y-80300000D02*
X85431250Y-80868750D01*
X77500000Y-80300000D02*
X84862500Y-80300000D01*
X85162500Y-80600000D02*
X85431250Y-80868750D01*
X85431250Y-80868750D02*
X88462500Y-83900000D01*
X104033522Y-96600000D02*
X104816761Y-95816761D01*
X75700000Y-96600000D02*
X104033522Y-96600000D01*
X100062500Y-86100000D02*
X103367044Y-86100000D01*
X103367044Y-86100000D02*
X103367044Y-84132956D01*
X103367044Y-84132956D02*
X105500000Y-82000000D01*
X105500000Y-82000000D02*
X105500000Y-70750000D01*
X97956263Y-63206263D02*
X91306263Y-63206263D01*
X105500000Y-70750000D02*
X97956263Y-63206263D01*
X104816761Y-95816761D02*
X106683239Y-95816761D01*
X106683239Y-95816761D02*
X107750000Y-94750000D01*
X107750000Y-90482956D02*
X103367044Y-86100000D01*
X107750000Y-94750000D02*
X107750000Y-90482956D01*
X81537500Y-71900000D02*
X86200000Y-71900000D01*
X79300000Y-69662500D02*
X81537500Y-71900000D01*
X87237500Y-71900000D02*
X89437500Y-69700000D01*
X86200000Y-71900000D02*
X87237500Y-71900000D01*
X96948499Y-70589001D02*
X97837500Y-69700000D01*
X90326501Y-70589001D02*
X96948499Y-70589001D01*
X89437500Y-69700000D02*
X90326501Y-70589001D01*
X97837500Y-73662500D02*
X96400000Y-75100000D01*
X97837500Y-69700000D02*
X97837500Y-73662500D01*
X85700000Y-93000000D02*
X84200000Y-94500000D01*
X84200000Y-90500000D02*
X84200000Y-91038815D01*
X84200000Y-91038815D02*
X85500000Y-92338815D01*
X85500000Y-92338815D02*
X85500000Y-93000000D01*
X85700000Y-93000000D02*
X85500000Y-93000000D01*
X105750000Y-93000000D02*
X85700000Y-93000000D01*
X70362500Y-84162500D02*
X68300000Y-82100000D01*
X70362500Y-99837500D02*
X70362500Y-84162500D01*
X68430000Y-124130000D02*
X70270000Y-124130000D01*
X74173499Y-120226501D02*
X74173499Y-106673499D01*
X70270000Y-124130000D02*
X74173499Y-120226501D01*
X70362500Y-100699780D02*
X70362500Y-99837500D01*
X74173499Y-104510779D02*
X70362500Y-100699780D01*
X66538815Y-84400000D02*
X60100000Y-84400000D01*
X68300000Y-82638815D02*
X66538815Y-84400000D01*
X68300000Y-82100000D02*
X68300000Y-82638815D01*
X88500000Y-106500000D02*
X74346998Y-106500000D01*
X74346998Y-106500000D02*
X74173499Y-106673499D01*
X74173499Y-106673499D02*
X74173499Y-104510779D01*
X68305438Y-74383440D02*
X60286560Y-74383440D01*
X73367972Y-79445974D02*
X68305438Y-74383440D01*
X73367972Y-101332028D02*
X73367972Y-79445974D01*
X78037500Y-77337500D02*
X77662500Y-76962500D01*
X82562500Y-77337500D02*
X78037500Y-77337500D01*
X74640211Y-79445974D02*
X73367972Y-79445974D01*
X77123685Y-76962500D02*
X74640211Y-79445974D01*
X77662500Y-76962500D02*
X77123685Y-76962500D01*
X103354989Y-80045011D02*
X101300000Y-82100000D01*
X103845011Y-80045011D02*
X103354989Y-80045011D01*
X85850000Y-78750000D02*
X85850000Y-78211185D01*
X85850000Y-78211185D02*
X83038815Y-75400000D01*
X68500000Y-71100000D02*
X59800000Y-71100000D01*
X83038815Y-75400000D02*
X72800000Y-75400000D01*
X72800000Y-75400000D02*
X68500000Y-71100000D01*
X69162500Y-67862500D02*
X68162500Y-67862500D01*
X75300000Y-74000000D02*
X69162500Y-67862500D01*
X82500000Y-81900000D02*
X82500000Y-87600000D01*
D21*
X63236000Y-95260000D02*
X60840000Y-95260000D01*
X66188000Y-98271566D02*
X71700000Y-103783566D01*
X66188000Y-98212000D02*
X66188000Y-98271566D01*
X63236000Y-95260000D02*
X66188000Y-98212000D01*
X71700000Y-116100000D02*
X69700000Y-118100000D01*
X71700000Y-103783566D02*
X71700000Y-116100000D01*
X64237000Y-97039000D02*
X64498000Y-97300000D01*
X63743000Y-96545000D02*
X64498000Y-97300000D01*
X62365000Y-96545000D02*
X63743000Y-96545000D01*
X70949000Y-114349000D02*
X70199000Y-115099000D01*
X64498000Y-97300000D02*
X70949000Y-103751000D01*
X70949000Y-103751000D02*
X70949000Y-114349000D01*
X87979001Y-59680999D02*
X94160000Y-53500000D01*
X74480999Y-59680999D02*
X87979001Y-59680999D01*
X74100000Y-59300000D02*
X74480999Y-59680999D01*
X64410000Y-93980000D02*
X57597038Y-93980000D01*
X57597038Y-93980000D02*
X54037999Y-97539039D01*
X67400000Y-126596000D02*
X67400000Y-127700000D01*
X66788000Y-125984000D02*
X67400000Y-126596000D01*
X61722000Y-125984000D02*
X66788000Y-125984000D01*
X54037999Y-118299999D02*
X61722000Y-125984000D01*
X54037999Y-97539039D02*
X54037999Y-118299999D01*
X58058604Y-92800000D02*
X52007999Y-98850605D01*
X63000000Y-92800000D02*
X58058604Y-92800000D01*
X59780000Y-125690002D02*
X59780000Y-127700000D01*
X52007999Y-117918001D02*
X59780000Y-125690002D01*
X52007999Y-98850605D02*
X52007999Y-117918001D01*
X51499989Y-121959989D02*
X57240000Y-127700000D01*
X60064001Y-90585999D02*
X59554171Y-90585999D01*
X51499989Y-98640181D02*
X51499989Y-121959989D01*
X59554171Y-90585999D02*
X51499989Y-98640181D01*
X60445000Y-90205000D02*
X60064001Y-90585999D01*
X56125000Y-85075000D02*
X53900000Y-87300000D01*
G36*
X109569001Y-130569000D02*
G01*
X50431000Y-130569000D01*
X50431000Y-127700000D01*
X53463044Y-127700000D01*
X53486812Y-127941318D01*
X53557202Y-128173363D01*
X53671509Y-128387216D01*
X53825340Y-128574660D01*
X54012784Y-128728491D01*
X54226637Y-128842798D01*
X54458682Y-128913188D01*
X54639528Y-128931000D01*
X54760472Y-128931000D01*
X54941318Y-128913188D01*
X55173363Y-128842798D01*
X55387216Y-128728491D01*
X55574660Y-128574660D01*
X55728491Y-128387216D01*
X55842798Y-128173363D01*
X55913188Y-127941318D01*
X55936956Y-127700000D01*
X55913188Y-127458682D01*
X55842798Y-127226637D01*
X55728491Y-127012784D01*
X55574660Y-126825340D01*
X55387216Y-126671509D01*
X55173363Y-126557202D01*
X54941318Y-126486812D01*
X54760472Y-126469000D01*
X54639528Y-126469000D01*
X54458682Y-126486812D01*
X54226637Y-126557202D01*
X54012784Y-126671509D01*
X53825340Y-126825340D01*
X53671509Y-127012784D01*
X53557202Y-127226637D01*
X53486812Y-127458682D01*
X53463044Y-127700000D01*
X50431000Y-127700000D01*
X50431000Y-98640181D01*
X50989532Y-98640181D01*
X50991989Y-98665125D01*
X50991990Y-121935035D01*
X50989532Y-121959989D01*
X50999341Y-122059573D01*
X51028389Y-122155332D01*
X51075560Y-122243584D01*
X51123139Y-122301559D01*
X51139042Y-122320937D01*
X51158419Y-122336839D01*
X56085801Y-127264222D01*
X56026812Y-127458682D01*
X56003044Y-127700000D01*
X56026812Y-127941318D01*
X56097202Y-128173363D01*
X56211509Y-128387216D01*
X56365340Y-128574660D01*
X56552784Y-128728491D01*
X56766637Y-128842798D01*
X56998682Y-128913188D01*
X57179528Y-128931000D01*
X57300472Y-128931000D01*
X57481318Y-128913188D01*
X57713363Y-128842798D01*
X57927216Y-128728491D01*
X58114660Y-128574660D01*
X58268491Y-128387216D01*
X58382798Y-128173363D01*
X58453188Y-127941318D01*
X58476956Y-127700000D01*
X58453188Y-127458682D01*
X58382798Y-127226637D01*
X58268491Y-127012784D01*
X58114660Y-126825340D01*
X57927216Y-126671509D01*
X57713363Y-126557202D01*
X57481318Y-126486812D01*
X57300472Y-126469000D01*
X57179528Y-126469000D01*
X56998682Y-126486812D01*
X56804222Y-126545801D01*
X52007989Y-121749569D01*
X52007989Y-118636411D01*
X59272000Y-125900423D01*
X59272000Y-126575716D01*
X59092784Y-126671509D01*
X58905340Y-126825340D01*
X58751509Y-127012784D01*
X58637202Y-127226637D01*
X58566812Y-127458682D01*
X58543044Y-127700000D01*
X58566812Y-127941318D01*
X58637202Y-128173363D01*
X58751509Y-128387216D01*
X58905340Y-128574660D01*
X59092784Y-128728491D01*
X59306637Y-128842798D01*
X59538682Y-128913188D01*
X59719528Y-128931000D01*
X59840472Y-128931000D01*
X60021318Y-128913188D01*
X60253363Y-128842798D01*
X60467216Y-128728491D01*
X60654660Y-128574660D01*
X60808491Y-128387216D01*
X60921017Y-128176695D01*
X60975843Y-128331252D01*
X61124822Y-128581355D01*
X61319731Y-128797588D01*
X61553080Y-128971641D01*
X61815901Y-129096825D01*
X61963110Y-129141476D01*
X62193000Y-129020155D01*
X62193000Y-127827000D01*
X62173000Y-127827000D01*
X62173000Y-127573000D01*
X62193000Y-127573000D01*
X62193000Y-127553000D01*
X62447000Y-127553000D01*
X62447000Y-127573000D01*
X62467000Y-127573000D01*
X62467000Y-127827000D01*
X62447000Y-127827000D01*
X62447000Y-129020155D01*
X62676890Y-129141476D01*
X62824099Y-129096825D01*
X63086920Y-128971641D01*
X63320269Y-128797588D01*
X63515178Y-128581355D01*
X63664157Y-128331252D01*
X63718983Y-128176695D01*
X63831509Y-128387216D01*
X63985340Y-128574660D01*
X64172784Y-128728491D01*
X64386637Y-128842798D01*
X64618682Y-128913188D01*
X64799528Y-128931000D01*
X64920472Y-128931000D01*
X65101318Y-128913188D01*
X65333363Y-128842798D01*
X65547216Y-128728491D01*
X65734660Y-128574660D01*
X65888491Y-128387216D01*
X66002798Y-128173363D01*
X66073188Y-127941318D01*
X66096956Y-127700000D01*
X66073188Y-127458682D01*
X66002798Y-127226637D01*
X65888491Y-127012784D01*
X65734660Y-126825340D01*
X65547216Y-126671509D01*
X65333363Y-126557202D01*
X65118421Y-126492000D01*
X66417664Y-126492000D01*
X66403492Y-126496299D01*
X66337304Y-126531678D01*
X66279289Y-126579289D01*
X66231678Y-126637304D01*
X66196299Y-126703492D01*
X66174513Y-126775311D01*
X66167157Y-126850000D01*
X66167157Y-128550000D01*
X66174513Y-128624689D01*
X66196299Y-128696508D01*
X66231678Y-128762696D01*
X66279289Y-128820711D01*
X66337304Y-128868322D01*
X66403492Y-128903701D01*
X66475311Y-128925487D01*
X66550000Y-128932843D01*
X68250000Y-128932843D01*
X68324689Y-128925487D01*
X68396508Y-128903701D01*
X68462696Y-128868322D01*
X68520711Y-128820711D01*
X68568322Y-128762696D01*
X68603701Y-128696508D01*
X68625487Y-128624689D01*
X68632843Y-128550000D01*
X68632843Y-126850000D01*
X68625487Y-126775311D01*
X68603701Y-126703492D01*
X68568322Y-126637304D01*
X68520711Y-126579289D01*
X68462696Y-126531678D01*
X68396508Y-126496299D01*
X68324689Y-126474513D01*
X68250000Y-126467157D01*
X67891774Y-126467157D01*
X67871601Y-126400657D01*
X67824429Y-126312405D01*
X67760948Y-126235052D01*
X67741565Y-126219145D01*
X67349420Y-125827000D01*
X93865000Y-125827000D01*
X93865000Y-126577000D01*
X93921193Y-126893532D01*
X94038058Y-127193020D01*
X94211105Y-127463954D01*
X94433683Y-127695922D01*
X94697239Y-127880010D01*
X94991645Y-128009144D01*
X95119566Y-128040124D01*
X95373000Y-127920777D01*
X95373000Y-125827000D01*
X95627000Y-125827000D01*
X95627000Y-127920777D01*
X95880434Y-128040124D01*
X96008355Y-128009144D01*
X96302761Y-127880010D01*
X96566317Y-127695922D01*
X96674013Y-127583682D01*
X98819000Y-127583682D01*
X98819000Y-127816318D01*
X98864386Y-128044485D01*
X98953412Y-128259413D01*
X99082658Y-128452843D01*
X99247157Y-128617342D01*
X99440587Y-128746588D01*
X99655515Y-128835614D01*
X99883682Y-128881000D01*
X100116318Y-128881000D01*
X100344485Y-128835614D01*
X100559413Y-128746588D01*
X100752843Y-128617342D01*
X100917342Y-128452843D01*
X101046588Y-128259413D01*
X101135614Y-128044485D01*
X101181000Y-127816318D01*
X101181000Y-127583682D01*
X101135614Y-127355515D01*
X101046588Y-127140587D01*
X100917342Y-126947157D01*
X100752843Y-126782658D01*
X100559413Y-126653412D01*
X100344485Y-126564386D01*
X100116318Y-126519000D01*
X99883682Y-126519000D01*
X99655515Y-126564386D01*
X99440587Y-126653412D01*
X99247157Y-126782658D01*
X99082658Y-126947157D01*
X98953412Y-127140587D01*
X98864386Y-127355515D01*
X98819000Y-127583682D01*
X96674013Y-127583682D01*
X96788895Y-127463954D01*
X96961942Y-127193020D01*
X97078807Y-126893532D01*
X97135000Y-126577000D01*
X97135000Y-125827000D01*
X95627000Y-125827000D01*
X95373000Y-125827000D01*
X93865000Y-125827000D01*
X67349420Y-125827000D01*
X67164855Y-125642435D01*
X67148948Y-125623052D01*
X67071595Y-125559571D01*
X66983343Y-125512399D01*
X66887585Y-125483351D01*
X66812947Y-125476000D01*
X66812944Y-125476000D01*
X66788000Y-125473543D01*
X66763056Y-125476000D01*
X61932421Y-125476000D01*
X54545999Y-118089579D01*
X54545999Y-118078606D01*
X56339000Y-118078606D01*
X56339000Y-118301394D01*
X56382464Y-118519900D01*
X56467721Y-118725729D01*
X56591495Y-118910970D01*
X56749030Y-119068505D01*
X56934271Y-119192279D01*
X57140100Y-119277536D01*
X57358606Y-119321000D01*
X57581394Y-119321000D01*
X57799900Y-119277536D01*
X58005729Y-119192279D01*
X58190970Y-119068505D01*
X58348505Y-118910970D01*
X58472279Y-118725729D01*
X58557536Y-118519900D01*
X58601000Y-118301394D01*
X58601000Y-118078606D01*
X61219000Y-118078606D01*
X61219000Y-118301394D01*
X61262464Y-118519900D01*
X61347721Y-118725729D01*
X61471495Y-118910970D01*
X61629030Y-119068505D01*
X61814271Y-119192279D01*
X62020100Y-119277536D01*
X62238606Y-119321000D01*
X62461394Y-119321000D01*
X62679900Y-119277536D01*
X62885729Y-119192279D01*
X63070970Y-119068505D01*
X63228505Y-118910970D01*
X63352279Y-118725729D01*
X63437536Y-118519900D01*
X63481000Y-118301394D01*
X63481000Y-118078606D01*
X63437536Y-117860100D01*
X63352279Y-117654271D01*
X63228505Y-117469030D01*
X63070970Y-117311495D01*
X62885729Y-117187721D01*
X62679900Y-117102464D01*
X62461394Y-117059000D01*
X62238606Y-117059000D01*
X62020100Y-117102464D01*
X61814271Y-117187721D01*
X61629030Y-117311495D01*
X61471495Y-117469030D01*
X61347721Y-117654271D01*
X61262464Y-117860100D01*
X61219000Y-118078606D01*
X58601000Y-118078606D01*
X58557536Y-117860100D01*
X58472279Y-117654271D01*
X58348505Y-117469030D01*
X58190970Y-117311495D01*
X58005729Y-117187721D01*
X57799900Y-117102464D01*
X57581394Y-117059000D01*
X57358606Y-117059000D01*
X57140100Y-117102464D01*
X56934271Y-117187721D01*
X56749030Y-117311495D01*
X56591495Y-117469030D01*
X56467721Y-117654271D01*
X56382464Y-117860100D01*
X56339000Y-118078606D01*
X54545999Y-118078606D01*
X54545999Y-97749459D01*
X57110508Y-95184950D01*
X60078000Y-95184950D01*
X60078000Y-95335050D01*
X60107283Y-95482267D01*
X60164724Y-95620942D01*
X60248116Y-95745747D01*
X60354253Y-95851884D01*
X60479058Y-95935276D01*
X60617733Y-95992717D01*
X60764950Y-96022000D01*
X60915050Y-96022000D01*
X61062267Y-95992717D01*
X61200942Y-95935276D01*
X61325747Y-95851884D01*
X61409631Y-95768000D01*
X63025580Y-95768000D01*
X63294580Y-96037000D01*
X62934631Y-96037000D01*
X62850747Y-95953116D01*
X62725942Y-95869724D01*
X62587267Y-95812283D01*
X62440050Y-95783000D01*
X62289950Y-95783000D01*
X62142733Y-95812283D01*
X62004058Y-95869724D01*
X61879253Y-95953116D01*
X61773116Y-96059253D01*
X61689724Y-96184058D01*
X61632283Y-96322733D01*
X61603000Y-96469950D01*
X61603000Y-96620050D01*
X61632283Y-96767267D01*
X61689724Y-96905942D01*
X61773116Y-97030747D01*
X61879253Y-97136884D01*
X62004058Y-97220276D01*
X62142733Y-97277717D01*
X62289950Y-97307000D01*
X62440050Y-97307000D01*
X62587267Y-97277717D01*
X62725942Y-97220276D01*
X62850747Y-97136884D01*
X62934631Y-97053000D01*
X63532580Y-97053000D01*
X64156429Y-97676850D01*
X64156435Y-97676855D01*
X70441000Y-103961420D01*
X70441001Y-114138578D01*
X70242579Y-114337000D01*
X70123950Y-114337000D01*
X69976733Y-114366283D01*
X69838058Y-114423724D01*
X69713253Y-114507116D01*
X69607116Y-114613253D01*
X69523724Y-114738058D01*
X69466283Y-114876733D01*
X69437000Y-115023950D01*
X69437000Y-115174050D01*
X69466283Y-115321267D01*
X69523724Y-115459942D01*
X69607116Y-115584747D01*
X69713253Y-115690884D01*
X69838058Y-115774276D01*
X69976733Y-115831717D01*
X70123950Y-115861000D01*
X70274050Y-115861000D01*
X70421267Y-115831717D01*
X70559942Y-115774276D01*
X70684747Y-115690884D01*
X70790884Y-115584747D01*
X70874276Y-115459942D01*
X70931717Y-115321267D01*
X70961000Y-115174050D01*
X70961000Y-115055421D01*
X71192001Y-114824420D01*
X71192001Y-115889578D01*
X69743580Y-117338000D01*
X69624950Y-117338000D01*
X69477733Y-117367283D01*
X69339058Y-117424724D01*
X69214253Y-117508116D01*
X69108116Y-117614253D01*
X69024724Y-117739058D01*
X68967283Y-117877733D01*
X68938000Y-118024950D01*
X68938000Y-118175050D01*
X68967283Y-118322267D01*
X69024724Y-118460942D01*
X69108116Y-118585747D01*
X69214253Y-118691884D01*
X69339058Y-118775276D01*
X69477733Y-118832717D01*
X69624950Y-118862000D01*
X69775050Y-118862000D01*
X69922267Y-118832717D01*
X70060942Y-118775276D01*
X70185747Y-118691884D01*
X70291884Y-118585747D01*
X70375276Y-118460942D01*
X70432717Y-118322267D01*
X70462000Y-118175050D01*
X70462000Y-118056420D01*
X72041571Y-116476850D01*
X72060948Y-116460948D01*
X72079624Y-116438190D01*
X72124429Y-116383596D01*
X72171600Y-116295344D01*
X72171601Y-116295343D01*
X72200649Y-116199585D01*
X72208000Y-116124947D01*
X72208000Y-116124945D01*
X72210457Y-116100001D01*
X72208000Y-116075057D01*
X72208000Y-103808509D01*
X72210457Y-103783565D01*
X72208000Y-103758619D01*
X72200649Y-103683981D01*
X72171601Y-103588223D01*
X72154194Y-103555657D01*
X72124429Y-103499970D01*
X72076850Y-103441995D01*
X72060948Y-103422618D01*
X72041571Y-103406716D01*
X66663124Y-98028270D01*
X66659601Y-98016657D01*
X66631171Y-97963468D01*
X66612429Y-97928404D01*
X66564850Y-97870429D01*
X66548948Y-97851052D01*
X66529571Y-97835150D01*
X63612855Y-94918435D01*
X63596948Y-94899052D01*
X63519595Y-94835571D01*
X63431343Y-94788399D01*
X63335585Y-94759351D01*
X63260947Y-94752000D01*
X63260944Y-94752000D01*
X63236000Y-94749543D01*
X63211056Y-94752000D01*
X61409631Y-94752000D01*
X61325747Y-94668116D01*
X61200942Y-94584724D01*
X61062267Y-94527283D01*
X60915050Y-94498000D01*
X60764950Y-94498000D01*
X60617733Y-94527283D01*
X60479058Y-94584724D01*
X60354253Y-94668116D01*
X60248116Y-94774253D01*
X60164724Y-94899058D01*
X60107283Y-95037733D01*
X60078000Y-95184950D01*
X57110508Y-95184950D01*
X57807459Y-94488000D01*
X63840369Y-94488000D01*
X63924253Y-94571884D01*
X64049058Y-94655276D01*
X64187733Y-94712717D01*
X64334950Y-94742000D01*
X64485050Y-94742000D01*
X64632267Y-94712717D01*
X64770942Y-94655276D01*
X64895747Y-94571884D01*
X65001884Y-94465747D01*
X65085276Y-94340942D01*
X65142717Y-94202267D01*
X65172000Y-94055050D01*
X65172000Y-93904950D01*
X65142717Y-93757733D01*
X65085276Y-93619058D01*
X65001884Y-93494253D01*
X64895747Y-93388116D01*
X64770942Y-93304724D01*
X64632267Y-93247283D01*
X64485050Y-93218000D01*
X64334950Y-93218000D01*
X64187733Y-93247283D01*
X64049058Y-93304724D01*
X63924253Y-93388116D01*
X63840369Y-93472000D01*
X63365845Y-93472000D01*
X63485747Y-93391884D01*
X63591884Y-93285747D01*
X63675276Y-93160942D01*
X63732717Y-93022267D01*
X63762000Y-92875050D01*
X63762000Y-92724950D01*
X63732717Y-92577733D01*
X63675276Y-92439058D01*
X63591884Y-92314253D01*
X63485747Y-92208116D01*
X63360942Y-92124724D01*
X63222267Y-92067283D01*
X63075050Y-92038000D01*
X62924950Y-92038000D01*
X62777733Y-92067283D01*
X62639058Y-92124724D01*
X62514253Y-92208116D01*
X62430369Y-92292000D01*
X58566591Y-92292000D01*
X59764592Y-91093999D01*
X60039057Y-91093999D01*
X60064001Y-91096456D01*
X60088945Y-91093999D01*
X60088948Y-91093999D01*
X60163586Y-91086648D01*
X60259344Y-91057600D01*
X60347596Y-91010428D01*
X60400514Y-90967000D01*
X60520050Y-90967000D01*
X60667267Y-90937717D01*
X60805942Y-90880276D01*
X60930747Y-90796884D01*
X61036884Y-90690747D01*
X61120276Y-90565942D01*
X61177717Y-90427267D01*
X61207000Y-90280050D01*
X61207000Y-90129950D01*
X61177717Y-89982733D01*
X61120276Y-89844058D01*
X61036884Y-89719253D01*
X60930747Y-89613116D01*
X60805942Y-89529724D01*
X60667267Y-89472283D01*
X60520050Y-89443000D01*
X60369950Y-89443000D01*
X60222733Y-89472283D01*
X60084058Y-89529724D01*
X59959253Y-89613116D01*
X59853116Y-89719253D01*
X59769724Y-89844058D01*
X59712283Y-89982733D01*
X59693334Y-90077999D01*
X59579114Y-90077999D01*
X59554170Y-90075542D01*
X59529226Y-90077999D01*
X59529224Y-90077999D01*
X59454586Y-90085350D01*
X59358828Y-90114398D01*
X59358826Y-90114399D01*
X59270575Y-90161570D01*
X59217656Y-90205000D01*
X59193223Y-90225051D01*
X59177321Y-90244428D01*
X51158424Y-98263326D01*
X51139041Y-98279233D01*
X51075560Y-98356586D01*
X51028388Y-98444839D01*
X50999340Y-98540597D01*
X50994588Y-98588850D01*
X50989532Y-98640181D01*
X50431000Y-98640181D01*
X50431000Y-87224950D01*
X53138000Y-87224950D01*
X53138000Y-87375050D01*
X53167283Y-87522267D01*
X53224724Y-87660942D01*
X53308116Y-87785747D01*
X53414253Y-87891884D01*
X53539058Y-87975276D01*
X53677733Y-88032717D01*
X53824950Y-88062000D01*
X53975050Y-88062000D01*
X54122267Y-88032717D01*
X54260942Y-87975276D01*
X54385747Y-87891884D01*
X54491884Y-87785747D01*
X54575276Y-87660942D01*
X54632717Y-87522267D01*
X54662000Y-87375050D01*
X54662000Y-87256420D01*
X56081421Y-85837000D01*
X56200050Y-85837000D01*
X56347267Y-85807717D01*
X56485942Y-85750276D01*
X56610747Y-85666884D01*
X56716884Y-85560747D01*
X56800276Y-85435942D01*
X56857717Y-85297267D01*
X56887000Y-85150050D01*
X56887000Y-84999950D01*
X56857717Y-84852733D01*
X56800276Y-84714058D01*
X56716884Y-84589253D01*
X56610747Y-84483116D01*
X56485942Y-84399724D01*
X56347267Y-84342283D01*
X56260128Y-84324950D01*
X59338000Y-84324950D01*
X59338000Y-84475050D01*
X59367283Y-84622267D01*
X59424724Y-84760942D01*
X59508116Y-84885747D01*
X59614253Y-84991884D01*
X59739058Y-85075276D01*
X59877733Y-85132717D01*
X60024950Y-85162000D01*
X60175050Y-85162000D01*
X60322267Y-85132717D01*
X60460942Y-85075276D01*
X60521219Y-85035000D01*
X66507634Y-85035000D01*
X66538815Y-85038071D01*
X66569996Y-85035000D01*
X66570007Y-85035000D01*
X66663297Y-85025812D01*
X66782995Y-84989502D01*
X66893309Y-84930537D01*
X66990000Y-84851185D01*
X67009889Y-84826950D01*
X68569408Y-83267433D01*
X69727501Y-84425527D01*
X69727500Y-99416281D01*
X69687224Y-99476558D01*
X69629783Y-99615233D01*
X69600500Y-99762450D01*
X69600500Y-99912550D01*
X69629783Y-100059767D01*
X69687224Y-100198442D01*
X69727500Y-100258719D01*
X69727500Y-100668599D01*
X69724429Y-100699780D01*
X69727500Y-100730961D01*
X69727500Y-100730971D01*
X69736688Y-100824261D01*
X69772998Y-100943959D01*
X69831963Y-101054273D01*
X69911315Y-101150965D01*
X69935550Y-101170854D01*
X73538500Y-104773806D01*
X73538499Y-106642318D01*
X73535428Y-106673499D01*
X73538499Y-106704680D01*
X73538499Y-106704690D01*
X73538500Y-106704700D01*
X73538499Y-119963476D01*
X70006976Y-123495000D01*
X68851219Y-123495000D01*
X68790942Y-123454724D01*
X68652267Y-123397283D01*
X68505050Y-123368000D01*
X68354950Y-123368000D01*
X68207733Y-123397283D01*
X68069058Y-123454724D01*
X67944253Y-123538116D01*
X67838116Y-123644253D01*
X67754724Y-123769058D01*
X67697283Y-123907733D01*
X67668000Y-124054950D01*
X67668000Y-124205050D01*
X67697283Y-124352267D01*
X67754724Y-124490942D01*
X67838116Y-124615747D01*
X67944253Y-124721884D01*
X68069058Y-124805276D01*
X68207733Y-124862717D01*
X68354950Y-124892000D01*
X68505050Y-124892000D01*
X68652267Y-124862717D01*
X68748152Y-124823000D01*
X93865000Y-124823000D01*
X93865000Y-125573000D01*
X95373000Y-125573000D01*
X95373000Y-123479223D01*
X95627000Y-123479223D01*
X95627000Y-125573000D01*
X97135000Y-125573000D01*
X97135000Y-125080434D01*
X97759876Y-125080434D01*
X97790856Y-125208355D01*
X97919990Y-125502761D01*
X98104078Y-125766317D01*
X98336046Y-125988895D01*
X98606980Y-126161942D01*
X98906468Y-126278807D01*
X99223000Y-126335000D01*
X99873000Y-126335000D01*
X99873000Y-124827000D01*
X100127000Y-124827000D01*
X100127000Y-126335000D01*
X100777000Y-126335000D01*
X101093532Y-126278807D01*
X101393020Y-126161942D01*
X101663954Y-125988895D01*
X101832678Y-125827000D01*
X102865000Y-125827000D01*
X102865000Y-126577000D01*
X102921193Y-126893532D01*
X103038058Y-127193020D01*
X103211105Y-127463954D01*
X103433683Y-127695922D01*
X103697239Y-127880010D01*
X103991645Y-128009144D01*
X104119566Y-128040124D01*
X104373000Y-127920777D01*
X104373000Y-125827000D01*
X104627000Y-125827000D01*
X104627000Y-127920777D01*
X104880434Y-128040124D01*
X105008355Y-128009144D01*
X105302761Y-127880010D01*
X105566317Y-127695922D01*
X105788895Y-127463954D01*
X105961942Y-127193020D01*
X106078807Y-126893532D01*
X106135000Y-126577000D01*
X106135000Y-125827000D01*
X104627000Y-125827000D01*
X104373000Y-125827000D01*
X102865000Y-125827000D01*
X101832678Y-125827000D01*
X101895922Y-125766317D01*
X102080010Y-125502761D01*
X102209144Y-125208355D01*
X102240124Y-125080434D01*
X102120777Y-124827000D01*
X100127000Y-124827000D01*
X99873000Y-124827000D01*
X97879223Y-124827000D01*
X97759876Y-125080434D01*
X97135000Y-125080434D01*
X97135000Y-124823000D01*
X102865000Y-124823000D01*
X102865000Y-125573000D01*
X104373000Y-125573000D01*
X104373000Y-123479223D01*
X104627000Y-123479223D01*
X104627000Y-125573000D01*
X106135000Y-125573000D01*
X106135000Y-124823000D01*
X106078807Y-124506468D01*
X105961942Y-124206980D01*
X105788895Y-123936046D01*
X105566317Y-123704078D01*
X105302761Y-123519990D01*
X105008355Y-123390856D01*
X104880434Y-123359876D01*
X104627000Y-123479223D01*
X104373000Y-123479223D01*
X104119566Y-123359876D01*
X103991645Y-123390856D01*
X103697239Y-123519990D01*
X103433683Y-123704078D01*
X103211105Y-123936046D01*
X103038058Y-124206980D01*
X102921193Y-124506468D01*
X102865000Y-124823000D01*
X97135000Y-124823000D01*
X97078807Y-124506468D01*
X97005875Y-124319566D01*
X97759876Y-124319566D01*
X97879223Y-124573000D01*
X99873000Y-124573000D01*
X99873000Y-123065000D01*
X100127000Y-123065000D01*
X100127000Y-124573000D01*
X102120777Y-124573000D01*
X102240124Y-124319566D01*
X102209144Y-124191645D01*
X102080010Y-123897239D01*
X101895922Y-123633683D01*
X101663954Y-123411105D01*
X101393020Y-123238058D01*
X101093532Y-123121193D01*
X100777000Y-123065000D01*
X100127000Y-123065000D01*
X99873000Y-123065000D01*
X99223000Y-123065000D01*
X98906468Y-123121193D01*
X98606980Y-123238058D01*
X98336046Y-123411105D01*
X98104078Y-123633683D01*
X97919990Y-123897239D01*
X97790856Y-124191645D01*
X97759876Y-124319566D01*
X97005875Y-124319566D01*
X96961942Y-124206980D01*
X96788895Y-123936046D01*
X96566317Y-123704078D01*
X96302761Y-123519990D01*
X96008355Y-123390856D01*
X95880434Y-123359876D01*
X95627000Y-123479223D01*
X95373000Y-123479223D01*
X95119566Y-123359876D01*
X94991645Y-123390856D01*
X94697239Y-123519990D01*
X94433683Y-123704078D01*
X94211105Y-123936046D01*
X94038058Y-124206980D01*
X93921193Y-124506468D01*
X93865000Y-124823000D01*
X68748152Y-124823000D01*
X68790942Y-124805276D01*
X68851219Y-124765000D01*
X70238819Y-124765000D01*
X70270000Y-124768071D01*
X70301181Y-124765000D01*
X70301192Y-124765000D01*
X70394482Y-124755812D01*
X70514180Y-124719502D01*
X70624494Y-124660537D01*
X70721185Y-124581185D01*
X70741074Y-124556950D01*
X74600455Y-120697570D01*
X74624684Y-120677686D01*
X74662073Y-120632128D01*
X74704036Y-120580996D01*
X74763001Y-120470681D01*
X74763001Y-120470680D01*
X74799311Y-120350983D01*
X74808499Y-120257693D01*
X74808499Y-120257683D01*
X74811570Y-120226502D01*
X74808499Y-120195321D01*
X74808499Y-118700000D01*
X97612318Y-118700000D01*
X97638982Y-118970723D01*
X97717949Y-119231043D01*
X97846185Y-119470955D01*
X98018761Y-119681239D01*
X98229045Y-119853815D01*
X98468957Y-119982051D01*
X98729277Y-120061018D01*
X98932157Y-120081000D01*
X101067843Y-120081000D01*
X101270723Y-120061018D01*
X101531043Y-119982051D01*
X101770955Y-119853815D01*
X101981239Y-119681239D01*
X102153815Y-119470955D01*
X102282051Y-119231043D01*
X102361018Y-118970723D01*
X102387682Y-118700000D01*
X102361018Y-118429277D01*
X102282051Y-118168957D01*
X102153815Y-117929045D01*
X101981239Y-117718761D01*
X101770955Y-117546185D01*
X101531043Y-117417949D01*
X101270723Y-117338982D01*
X101067843Y-117319000D01*
X98932157Y-117319000D01*
X98729277Y-117338982D01*
X98468957Y-117417949D01*
X98229045Y-117546185D01*
X98018761Y-117718761D01*
X97846185Y-117929045D01*
X97717949Y-118168957D01*
X97638982Y-118429277D01*
X97612318Y-118700000D01*
X74808499Y-118700000D01*
X74808499Y-107135000D01*
X88078781Y-107135000D01*
X88139058Y-107175276D01*
X88277733Y-107232717D01*
X88424950Y-107262000D01*
X88575050Y-107262000D01*
X88722267Y-107232717D01*
X88860942Y-107175276D01*
X88985747Y-107091884D01*
X89091884Y-106985747D01*
X89175276Y-106860942D01*
X89232717Y-106722267D01*
X89262000Y-106575050D01*
X89262000Y-106424950D01*
X89232717Y-106277733D01*
X89175276Y-106139058D01*
X89091884Y-106014253D01*
X88985747Y-105908116D01*
X88860942Y-105824724D01*
X88722267Y-105767283D01*
X88575050Y-105738000D01*
X88424950Y-105738000D01*
X88277733Y-105767283D01*
X88139058Y-105824724D01*
X88078781Y-105865000D01*
X74808499Y-105865000D01*
X74808499Y-104541959D01*
X74811570Y-104510778D01*
X74808499Y-104479597D01*
X74808499Y-104479587D01*
X74799311Y-104386297D01*
X74763001Y-104266599D01*
X74714269Y-104175429D01*
X74704036Y-104156284D01*
X74644567Y-104083821D01*
X74644564Y-104083818D01*
X74624684Y-104059594D01*
X74600460Y-104039714D01*
X70997500Y-100436756D01*
X70997500Y-100258719D01*
X71037776Y-100198442D01*
X71095217Y-100059767D01*
X71124500Y-99912550D01*
X71124500Y-99762450D01*
X71095217Y-99615233D01*
X71037776Y-99476558D01*
X70997500Y-99416281D01*
X70997500Y-84193680D01*
X71000571Y-84162499D01*
X70997500Y-84131318D01*
X70997500Y-84131308D01*
X70988312Y-84038018D01*
X70952002Y-83918320D01*
X70902094Y-83824950D01*
X70893037Y-83808005D01*
X70833568Y-83735542D01*
X70833565Y-83735539D01*
X70813685Y-83711315D01*
X70789460Y-83691434D01*
X69046860Y-81948836D01*
X69032717Y-81877733D01*
X68975276Y-81739058D01*
X68891884Y-81614253D01*
X68785747Y-81508116D01*
X68660942Y-81424724D01*
X68522267Y-81367283D01*
X68375050Y-81338000D01*
X68224950Y-81338000D01*
X68077733Y-81367283D01*
X67939058Y-81424724D01*
X67814253Y-81508116D01*
X67708116Y-81614253D01*
X67624724Y-81739058D01*
X67567283Y-81877733D01*
X67538000Y-82024950D01*
X67538000Y-82175050D01*
X67567283Y-82322267D01*
X67611580Y-82429209D01*
X66275791Y-83765000D01*
X60521219Y-83765000D01*
X60460942Y-83724724D01*
X60322267Y-83667283D01*
X60175050Y-83638000D01*
X60024950Y-83638000D01*
X59877733Y-83667283D01*
X59739058Y-83724724D01*
X59614253Y-83808116D01*
X59508116Y-83914253D01*
X59424724Y-84039058D01*
X59367283Y-84177733D01*
X59338000Y-84324950D01*
X56260128Y-84324950D01*
X56200050Y-84313000D01*
X56049950Y-84313000D01*
X55902733Y-84342283D01*
X55764058Y-84399724D01*
X55639253Y-84483116D01*
X55533116Y-84589253D01*
X55449724Y-84714058D01*
X55392283Y-84852733D01*
X55363000Y-84999950D01*
X55363000Y-85118579D01*
X53943580Y-86538000D01*
X53824950Y-86538000D01*
X53677733Y-86567283D01*
X53539058Y-86624724D01*
X53414253Y-86708116D01*
X53308116Y-86814253D01*
X53224724Y-86939058D01*
X53167283Y-87077733D01*
X53138000Y-87224950D01*
X50431000Y-87224950D01*
X50431000Y-74308390D01*
X59524560Y-74308390D01*
X59524560Y-74458490D01*
X59553843Y-74605707D01*
X59611284Y-74744382D01*
X59694676Y-74869187D01*
X59800813Y-74975324D01*
X59925618Y-75058716D01*
X60064293Y-75116157D01*
X60211510Y-75145440D01*
X60361610Y-75145440D01*
X60508827Y-75116157D01*
X60647502Y-75058716D01*
X60707779Y-75018440D01*
X68042414Y-75018440D01*
X72732973Y-79709000D01*
X72732972Y-100910809D01*
X72692696Y-100971086D01*
X72635255Y-101109761D01*
X72605972Y-101256978D01*
X72605972Y-101407078D01*
X72635255Y-101554295D01*
X72692696Y-101692970D01*
X72776088Y-101817775D01*
X72882225Y-101923912D01*
X73007030Y-102007304D01*
X73145705Y-102064745D01*
X73292922Y-102094028D01*
X73443022Y-102094028D01*
X73590239Y-102064745D01*
X73728914Y-102007304D01*
X73853719Y-101923912D01*
X73959856Y-101817775D01*
X74043248Y-101692970D01*
X74100689Y-101554295D01*
X74129972Y-101407078D01*
X74129972Y-101256978D01*
X74100689Y-101109761D01*
X74043248Y-100971086D01*
X74002972Y-100910809D01*
X74002972Y-90424950D01*
X83438000Y-90424950D01*
X83438000Y-90575050D01*
X83467283Y-90722267D01*
X83524724Y-90860942D01*
X83565000Y-90921219D01*
X83565000Y-91007634D01*
X83561929Y-91038815D01*
X83565000Y-91069996D01*
X83565000Y-91070007D01*
X83574188Y-91163297D01*
X83610498Y-91282995D01*
X83669463Y-91393309D01*
X83748816Y-91490000D01*
X83773046Y-91509885D01*
X84865000Y-92601841D01*
X84865000Y-92936975D01*
X84048836Y-93753140D01*
X83977733Y-93767283D01*
X83839058Y-93824724D01*
X83714253Y-93908116D01*
X83608116Y-94014253D01*
X83524724Y-94139058D01*
X83467283Y-94277733D01*
X83438000Y-94424950D01*
X83438000Y-94575050D01*
X83467283Y-94722267D01*
X83524724Y-94860942D01*
X83608116Y-94985747D01*
X83714253Y-95091884D01*
X83839058Y-95175276D01*
X83977733Y-95232717D01*
X84124950Y-95262000D01*
X84275050Y-95262000D01*
X84422267Y-95232717D01*
X84560942Y-95175276D01*
X84685747Y-95091884D01*
X84791884Y-94985747D01*
X84875276Y-94860942D01*
X84932717Y-94722267D01*
X84946860Y-94651164D01*
X85963025Y-93635000D01*
X105328781Y-93635000D01*
X105389058Y-93675276D01*
X105527733Y-93732717D01*
X105674950Y-93762000D01*
X105825050Y-93762000D01*
X105972267Y-93732717D01*
X106110942Y-93675276D01*
X106235747Y-93591884D01*
X106341884Y-93485747D01*
X106425276Y-93360942D01*
X106482717Y-93222267D01*
X106512000Y-93075050D01*
X106512000Y-92924950D01*
X106482717Y-92777733D01*
X106425276Y-92639058D01*
X106341884Y-92514253D01*
X106235747Y-92408116D01*
X106110942Y-92324724D01*
X105972267Y-92267283D01*
X105825050Y-92238000D01*
X105674950Y-92238000D01*
X105527733Y-92267283D01*
X105389058Y-92324724D01*
X105328781Y-92365000D01*
X86135493Y-92365000D01*
X86138072Y-92338815D01*
X86133219Y-92289543D01*
X86125812Y-92214333D01*
X86089502Y-92094635D01*
X86074882Y-92067283D01*
X86030538Y-91984321D01*
X85971069Y-91911858D01*
X85971065Y-91911854D01*
X85951185Y-91887630D01*
X85926961Y-91867751D01*
X84888420Y-90829210D01*
X84932717Y-90722267D01*
X84962000Y-90575050D01*
X84962000Y-90424950D01*
X84932717Y-90277733D01*
X84875276Y-90139058D01*
X84791884Y-90014253D01*
X84685747Y-89908116D01*
X84560942Y-89824724D01*
X84422267Y-89767283D01*
X84275050Y-89738000D01*
X84124950Y-89738000D01*
X83977733Y-89767283D01*
X83839058Y-89824724D01*
X83714253Y-89908116D01*
X83608116Y-90014253D01*
X83524724Y-90139058D01*
X83467283Y-90277733D01*
X83438000Y-90424950D01*
X74002972Y-90424950D01*
X74002972Y-81824950D01*
X81738000Y-81824950D01*
X81738000Y-81975050D01*
X81767283Y-82122267D01*
X81824724Y-82260942D01*
X81865000Y-82321219D01*
X81865001Y-87178779D01*
X81824724Y-87239058D01*
X81767283Y-87377733D01*
X81738000Y-87524950D01*
X81738000Y-87675050D01*
X81767283Y-87822267D01*
X81824724Y-87960942D01*
X81908116Y-88085747D01*
X82014253Y-88191884D01*
X82139058Y-88275276D01*
X82277733Y-88332717D01*
X82424950Y-88362000D01*
X82575050Y-88362000D01*
X82722267Y-88332717D01*
X82860942Y-88275276D01*
X82985747Y-88191884D01*
X83091884Y-88085747D01*
X83175276Y-87960942D01*
X83232717Y-87822267D01*
X83262000Y-87675050D01*
X83262000Y-87524950D01*
X83232717Y-87377733D01*
X83175276Y-87239058D01*
X83135000Y-87178781D01*
X83135000Y-82321219D01*
X83175276Y-82260942D01*
X83232717Y-82122267D01*
X83262000Y-81975050D01*
X83262000Y-81824950D01*
X83232717Y-81677733D01*
X83175276Y-81539058D01*
X83091884Y-81414253D01*
X82985747Y-81308116D01*
X82860942Y-81224724D01*
X82722267Y-81167283D01*
X82575050Y-81138000D01*
X82424950Y-81138000D01*
X82277733Y-81167283D01*
X82139058Y-81224724D01*
X82014253Y-81308116D01*
X81908116Y-81414253D01*
X81824724Y-81539058D01*
X81767283Y-81677733D01*
X81738000Y-81824950D01*
X74002972Y-81824950D01*
X74002972Y-80080974D01*
X74609030Y-80080974D01*
X74640211Y-80084045D01*
X74671392Y-80080974D01*
X74671403Y-80080974D01*
X74764693Y-80071786D01*
X74884391Y-80035476D01*
X74994705Y-79976511D01*
X75091396Y-79897159D01*
X75111285Y-79872924D01*
X77333291Y-77650920D01*
X77440233Y-77695217D01*
X77511336Y-77709360D01*
X77566426Y-77764450D01*
X77586315Y-77788685D01*
X77683006Y-77868037D01*
X77793320Y-77927002D01*
X77913018Y-77963312D01*
X78006308Y-77972500D01*
X78006318Y-77972500D01*
X78037499Y-77975571D01*
X78068680Y-77972500D01*
X82141281Y-77972500D01*
X82201558Y-78012776D01*
X82340233Y-78070217D01*
X82487450Y-78099500D01*
X82637550Y-78099500D01*
X82784767Y-78070217D01*
X82923442Y-78012776D01*
X83048247Y-77929384D01*
X83154384Y-77823247D01*
X83237776Y-77698442D01*
X83295217Y-77559767D01*
X83324500Y-77412550D01*
X83324500Y-77262450D01*
X83295217Y-77115233D01*
X83237776Y-76976558D01*
X83154384Y-76851753D01*
X83048247Y-76745616D01*
X82923442Y-76662224D01*
X82784767Y-76604783D01*
X82637550Y-76575500D01*
X82487450Y-76575500D01*
X82340233Y-76604783D01*
X82201558Y-76662224D01*
X82141281Y-76702500D01*
X78379587Y-76702500D01*
X78337776Y-76601558D01*
X78254384Y-76476753D01*
X78148247Y-76370616D01*
X78023442Y-76287224D01*
X77884767Y-76229783D01*
X77737550Y-76200500D01*
X77587450Y-76200500D01*
X77440233Y-76229783D01*
X77301558Y-76287224D01*
X77241281Y-76327500D01*
X77154874Y-76327500D01*
X77123685Y-76324428D01*
X77092496Y-76327500D01*
X77092493Y-76327500D01*
X76999203Y-76336688D01*
X76879505Y-76372998D01*
X76769191Y-76431962D01*
X76696728Y-76491431D01*
X76696724Y-76491435D01*
X76672500Y-76511315D01*
X76652620Y-76535540D01*
X74377187Y-78810974D01*
X73630997Y-78810974D01*
X68776512Y-73956490D01*
X68756623Y-73932255D01*
X68659932Y-73852903D01*
X68549618Y-73793938D01*
X68429920Y-73757628D01*
X68336630Y-73748440D01*
X68336619Y-73748440D01*
X68305438Y-73745369D01*
X68274257Y-73748440D01*
X60707779Y-73748440D01*
X60647502Y-73708164D01*
X60508827Y-73650723D01*
X60361610Y-73621440D01*
X60211510Y-73621440D01*
X60064293Y-73650723D01*
X59925618Y-73708164D01*
X59800813Y-73791556D01*
X59694676Y-73897693D01*
X59611284Y-74022498D01*
X59553843Y-74161173D01*
X59524560Y-74308390D01*
X50431000Y-74308390D01*
X50431000Y-71024950D01*
X59038000Y-71024950D01*
X59038000Y-71175050D01*
X59067283Y-71322267D01*
X59124724Y-71460942D01*
X59208116Y-71585747D01*
X59314253Y-71691884D01*
X59439058Y-71775276D01*
X59577733Y-71832717D01*
X59724950Y-71862000D01*
X59875050Y-71862000D01*
X60022267Y-71832717D01*
X60160942Y-71775276D01*
X60221219Y-71735000D01*
X68236976Y-71735000D01*
X72328930Y-75826955D01*
X72348815Y-75851185D01*
X72373043Y-75871068D01*
X72445505Y-75930537D01*
X72483931Y-75951076D01*
X72555820Y-75989502D01*
X72675518Y-76025812D01*
X72768808Y-76035000D01*
X72768818Y-76035000D01*
X72799999Y-76038071D01*
X72831180Y-76035000D01*
X82775791Y-76035000D01*
X85161580Y-78420790D01*
X85117283Y-78527733D01*
X85088000Y-78674950D01*
X85088000Y-78825050D01*
X85117283Y-78972267D01*
X85174724Y-79110942D01*
X85258116Y-79235747D01*
X85364253Y-79341884D01*
X85489058Y-79425276D01*
X85627733Y-79482717D01*
X85774950Y-79512000D01*
X85925050Y-79512000D01*
X86072267Y-79482717D01*
X86210942Y-79425276D01*
X86335747Y-79341884D01*
X86441884Y-79235747D01*
X86525276Y-79110942D01*
X86582717Y-78972267D01*
X86612000Y-78825050D01*
X86612000Y-78674950D01*
X86582717Y-78527733D01*
X86525276Y-78389058D01*
X86485000Y-78328781D01*
X86485000Y-78242366D01*
X86488071Y-78211185D01*
X86485000Y-78180004D01*
X86485000Y-78179993D01*
X86475812Y-78086703D01*
X86439502Y-77967005D01*
X86437528Y-77963312D01*
X86380538Y-77856691D01*
X86321068Y-77784228D01*
X86301185Y-77760000D01*
X86276955Y-77740115D01*
X83509889Y-74973050D01*
X83490000Y-74948815D01*
X83393309Y-74869463D01*
X83282995Y-74810498D01*
X83163297Y-74774188D01*
X83070007Y-74765000D01*
X83069996Y-74765000D01*
X83038815Y-74761929D01*
X83007634Y-74765000D01*
X73063025Y-74765000D01*
X68971074Y-70673050D01*
X68951185Y-70648815D01*
X68854494Y-70569463D01*
X68744180Y-70510498D01*
X68624482Y-70474188D01*
X68531192Y-70465000D01*
X68531181Y-70465000D01*
X68500000Y-70461929D01*
X68468819Y-70465000D01*
X60221219Y-70465000D01*
X60160942Y-70424724D01*
X60022267Y-70367283D01*
X59875050Y-70338000D01*
X59724950Y-70338000D01*
X59577733Y-70367283D01*
X59439058Y-70424724D01*
X59314253Y-70508116D01*
X59208116Y-70614253D01*
X59124724Y-70739058D01*
X59067283Y-70877733D01*
X59038000Y-71024950D01*
X50431000Y-71024950D01*
X50431000Y-67787450D01*
X67400500Y-67787450D01*
X67400500Y-67937550D01*
X67429783Y-68084767D01*
X67487224Y-68223442D01*
X67570616Y-68348247D01*
X67676753Y-68454384D01*
X67801558Y-68537776D01*
X67940233Y-68595217D01*
X68087450Y-68624500D01*
X68237550Y-68624500D01*
X68384767Y-68595217D01*
X68523442Y-68537776D01*
X68583719Y-68497500D01*
X68899476Y-68497500D01*
X74553140Y-74151166D01*
X74567283Y-74222267D01*
X74624724Y-74360942D01*
X74708116Y-74485747D01*
X74814253Y-74591884D01*
X74939058Y-74675276D01*
X75077733Y-74732717D01*
X75224950Y-74762000D01*
X75375050Y-74762000D01*
X75522267Y-74732717D01*
X75660942Y-74675276D01*
X75785747Y-74591884D01*
X75891884Y-74485747D01*
X75975276Y-74360942D01*
X76032717Y-74222267D01*
X76062000Y-74075050D01*
X76062000Y-73924950D01*
X76032717Y-73777733D01*
X75975276Y-73639058D01*
X75891884Y-73514253D01*
X75785747Y-73408116D01*
X75660942Y-73324724D01*
X75522267Y-73267283D01*
X75451166Y-73253140D01*
X71785475Y-69587450D01*
X78538000Y-69587450D01*
X78538000Y-69737550D01*
X78567283Y-69884767D01*
X78624724Y-70023442D01*
X78708116Y-70148247D01*
X78814253Y-70254384D01*
X78939058Y-70337776D01*
X79077733Y-70395217D01*
X79148836Y-70409360D01*
X81066430Y-72326955D01*
X81086315Y-72351185D01*
X81110543Y-72371068D01*
X81183006Y-72430538D01*
X81293320Y-72489502D01*
X81413018Y-72525812D01*
X81506308Y-72535000D01*
X81506311Y-72535000D01*
X81537500Y-72538072D01*
X81568689Y-72535000D01*
X85778781Y-72535000D01*
X85839058Y-72575276D01*
X85977733Y-72632717D01*
X86124950Y-72662000D01*
X86275050Y-72662000D01*
X86422267Y-72632717D01*
X86560942Y-72575276D01*
X86621219Y-72535000D01*
X87206319Y-72535000D01*
X87237500Y-72538071D01*
X87268681Y-72535000D01*
X87268692Y-72535000D01*
X87361982Y-72525812D01*
X87481680Y-72489502D01*
X87591994Y-72430537D01*
X87688685Y-72351185D01*
X87708574Y-72326950D01*
X89437500Y-70598025D01*
X89855431Y-71015956D01*
X89875316Y-71040186D01*
X89899544Y-71060069D01*
X89972006Y-71119538D01*
X90006546Y-71138000D01*
X90082321Y-71178503D01*
X90202019Y-71214813D01*
X90295309Y-71224001D01*
X90295319Y-71224001D01*
X90326500Y-71227072D01*
X90357681Y-71224001D01*
X96917318Y-71224001D01*
X96948499Y-71227072D01*
X96979680Y-71224001D01*
X96979691Y-71224001D01*
X97072981Y-71214813D01*
X97192679Y-71178503D01*
X97202500Y-71173253D01*
X97202501Y-73399474D01*
X96248836Y-74353140D01*
X96177733Y-74367283D01*
X96039058Y-74424724D01*
X95914253Y-74508116D01*
X95808116Y-74614253D01*
X95724724Y-74739058D01*
X95667283Y-74877733D01*
X95638000Y-75024950D01*
X95638000Y-75175050D01*
X95667283Y-75322267D01*
X95724724Y-75460942D01*
X95808116Y-75585747D01*
X95914253Y-75691884D01*
X96039058Y-75775276D01*
X96177733Y-75832717D01*
X96324950Y-75862000D01*
X96475050Y-75862000D01*
X96622267Y-75832717D01*
X96760942Y-75775276D01*
X96885747Y-75691884D01*
X96991884Y-75585747D01*
X97075276Y-75460942D01*
X97132717Y-75322267D01*
X97146860Y-75251164D01*
X98264455Y-74133570D01*
X98288685Y-74113685D01*
X98368037Y-74016994D01*
X98427002Y-73906680D01*
X98463312Y-73786982D01*
X98472500Y-73693692D01*
X98472500Y-73693681D01*
X98475571Y-73662500D01*
X98472500Y-73631319D01*
X98472500Y-70121219D01*
X98512776Y-70060942D01*
X98570217Y-69922267D01*
X98599500Y-69775050D01*
X98599500Y-69624950D01*
X98570217Y-69477733D01*
X98512776Y-69339058D01*
X98429384Y-69214253D01*
X98323247Y-69108116D01*
X98198442Y-69024724D01*
X98059767Y-68967283D01*
X97912550Y-68938000D01*
X97762450Y-68938000D01*
X97615233Y-68967283D01*
X97476558Y-69024724D01*
X97351753Y-69108116D01*
X97245616Y-69214253D01*
X97162224Y-69339058D01*
X97104783Y-69477733D01*
X97090640Y-69548835D01*
X96685475Y-69954001D01*
X90589526Y-69954001D01*
X90184360Y-69548836D01*
X90170217Y-69477733D01*
X90112776Y-69339058D01*
X90029384Y-69214253D01*
X89923247Y-69108116D01*
X89798442Y-69024724D01*
X89659767Y-68967283D01*
X89512550Y-68938000D01*
X89362450Y-68938000D01*
X89215233Y-68967283D01*
X89076558Y-69024724D01*
X88951753Y-69108116D01*
X88845616Y-69214253D01*
X88762224Y-69339058D01*
X88704783Y-69477733D01*
X88690640Y-69548835D01*
X86974476Y-71265000D01*
X86621219Y-71265000D01*
X86560942Y-71224724D01*
X86422267Y-71167283D01*
X86275050Y-71138000D01*
X86124950Y-71138000D01*
X85977733Y-71167283D01*
X85839058Y-71224724D01*
X85778781Y-71265000D01*
X81800525Y-71265000D01*
X80046860Y-69511336D01*
X80032717Y-69440233D01*
X79975276Y-69301558D01*
X79891884Y-69176753D01*
X79785747Y-69070616D01*
X79660942Y-68987224D01*
X79522267Y-68929783D01*
X79375050Y-68900500D01*
X79224950Y-68900500D01*
X79077733Y-68929783D01*
X78939058Y-68987224D01*
X78814253Y-69070616D01*
X78708116Y-69176753D01*
X78624724Y-69301558D01*
X78567283Y-69440233D01*
X78538000Y-69587450D01*
X71785475Y-69587450D01*
X69633574Y-67435550D01*
X69613685Y-67411315D01*
X69516994Y-67331963D01*
X69406680Y-67272998D01*
X69286982Y-67236688D01*
X69193692Y-67227500D01*
X69193681Y-67227500D01*
X69162500Y-67224429D01*
X69131319Y-67227500D01*
X68583719Y-67227500D01*
X68523442Y-67187224D01*
X68384767Y-67129783D01*
X68237550Y-67100500D01*
X68087450Y-67100500D01*
X67940233Y-67129783D01*
X67801558Y-67187224D01*
X67676753Y-67270616D01*
X67570616Y-67376753D01*
X67487224Y-67501558D01*
X67429783Y-67640233D01*
X67400500Y-67787450D01*
X50431000Y-67787450D01*
X50431000Y-64249400D01*
X53832090Y-64249400D01*
X53862762Y-64350528D01*
X53970527Y-64583629D01*
X54121697Y-64791227D01*
X54310463Y-64965344D01*
X54529570Y-65099289D01*
X54770599Y-65187915D01*
X54973000Y-65065085D01*
X54973000Y-64047000D01*
X55227000Y-64047000D01*
X55227000Y-65065085D01*
X55429401Y-65187915D01*
X55670430Y-65099289D01*
X55889537Y-64965344D01*
X56078303Y-64791227D01*
X56229473Y-64583629D01*
X56337238Y-64350528D01*
X56367910Y-64249400D01*
X59032090Y-64249400D01*
X59062762Y-64350528D01*
X59170527Y-64583629D01*
X59321697Y-64791227D01*
X59510463Y-64965344D01*
X59729570Y-65099289D01*
X59970599Y-65187915D01*
X60173000Y-65065085D01*
X60173000Y-64047000D01*
X60427000Y-64047000D01*
X60427000Y-65065085D01*
X60629401Y-65187915D01*
X60870430Y-65099289D01*
X61089537Y-64965344D01*
X61278303Y-64791227D01*
X61429473Y-64583629D01*
X61537238Y-64350528D01*
X61567910Y-64249400D01*
X64232090Y-64249400D01*
X64262762Y-64350528D01*
X64370527Y-64583629D01*
X64521697Y-64791227D01*
X64710463Y-64965344D01*
X64929570Y-65099289D01*
X65170599Y-65187915D01*
X65373000Y-65065085D01*
X65373000Y-64047000D01*
X65627000Y-64047000D01*
X65627000Y-65065085D01*
X65829401Y-65187915D01*
X66070430Y-65099289D01*
X66289537Y-64965344D01*
X66478303Y-64791227D01*
X66629473Y-64583629D01*
X66737238Y-64350528D01*
X66767910Y-64249400D01*
X69332090Y-64249400D01*
X69362762Y-64350528D01*
X69470527Y-64583629D01*
X69621697Y-64791227D01*
X69810463Y-64965344D01*
X70029570Y-65099289D01*
X70270599Y-65187915D01*
X70473000Y-65065085D01*
X70473000Y-64047000D01*
X70727000Y-64047000D01*
X70727000Y-65065085D01*
X70929401Y-65187915D01*
X71170430Y-65099289D01*
X71389537Y-64965344D01*
X71578303Y-64791227D01*
X71729473Y-64583629D01*
X71820168Y-64387450D01*
X73138000Y-64387450D01*
X73138000Y-64537550D01*
X73167283Y-64684767D01*
X73224724Y-64823442D01*
X73308116Y-64948247D01*
X73414253Y-65054384D01*
X73539058Y-65137776D01*
X73677733Y-65195217D01*
X73824950Y-65224500D01*
X73975050Y-65224500D01*
X74122267Y-65195217D01*
X74260942Y-65137776D01*
X74321219Y-65097500D01*
X81412582Y-65097500D01*
X81443763Y-65100571D01*
X81474944Y-65097500D01*
X81474955Y-65097500D01*
X81568245Y-65088312D01*
X81687943Y-65052002D01*
X81798257Y-64993037D01*
X81894948Y-64913685D01*
X81914837Y-64889450D01*
X82851166Y-63953123D01*
X82922267Y-63938980D01*
X83060942Y-63881539D01*
X83121219Y-63841263D01*
X90885044Y-63841263D01*
X90945321Y-63881539D01*
X91083996Y-63938980D01*
X91231213Y-63968263D01*
X91381313Y-63968263D01*
X91528530Y-63938980D01*
X91667205Y-63881539D01*
X91727482Y-63841263D01*
X97693239Y-63841263D01*
X104865001Y-71013026D01*
X104865000Y-81736975D01*
X102940090Y-83661886D01*
X102915860Y-83681771D01*
X102871731Y-83735542D01*
X102836507Y-83778463D01*
X102777542Y-83888777D01*
X102759330Y-83948815D01*
X102741233Y-84008474D01*
X102738323Y-84038018D01*
X102728973Y-84132956D01*
X102732045Y-84164147D01*
X102732044Y-85465000D01*
X100483719Y-85465000D01*
X100423442Y-85424724D01*
X100284767Y-85367283D01*
X100137550Y-85338000D01*
X99987450Y-85338000D01*
X99840233Y-85367283D01*
X99701558Y-85424724D01*
X99641281Y-85465000D01*
X90925525Y-85465000D01*
X89209360Y-83748836D01*
X89195217Y-83677733D01*
X89137776Y-83539058D01*
X89054384Y-83414253D01*
X88948247Y-83308116D01*
X88823442Y-83224724D01*
X88684767Y-83167283D01*
X88613665Y-83153140D01*
X87485475Y-82024950D01*
X100538000Y-82024950D01*
X100538000Y-82175050D01*
X100567283Y-82322267D01*
X100624724Y-82460942D01*
X100708116Y-82585747D01*
X100814253Y-82691884D01*
X100939058Y-82775276D01*
X101077733Y-82832717D01*
X101224950Y-82862000D01*
X101375050Y-82862000D01*
X101522267Y-82832717D01*
X101660942Y-82775276D01*
X101785747Y-82691884D01*
X101891884Y-82585747D01*
X101975276Y-82460942D01*
X102032717Y-82322267D01*
X102046860Y-82251164D01*
X103550303Y-80747722D01*
X103622744Y-80777728D01*
X103769961Y-80807011D01*
X103920061Y-80807011D01*
X104067278Y-80777728D01*
X104205953Y-80720287D01*
X104330758Y-80636895D01*
X104436895Y-80530758D01*
X104520287Y-80405953D01*
X104577728Y-80267278D01*
X104607011Y-80120061D01*
X104607011Y-79969961D01*
X104577728Y-79822744D01*
X104520287Y-79684069D01*
X104436895Y-79559264D01*
X104330758Y-79453127D01*
X104205953Y-79369735D01*
X104067278Y-79312294D01*
X103920061Y-79283011D01*
X103769961Y-79283011D01*
X103622744Y-79312294D01*
X103484069Y-79369735D01*
X103423792Y-79410011D01*
X103386169Y-79410011D01*
X103354988Y-79406940D01*
X103323807Y-79410011D01*
X103323797Y-79410011D01*
X103230507Y-79419199D01*
X103110809Y-79455509D01*
X103038920Y-79493935D01*
X103000494Y-79514474D01*
X102971828Y-79538000D01*
X102903804Y-79593826D01*
X102883919Y-79618056D01*
X101148836Y-81353140D01*
X101077733Y-81367283D01*
X100939058Y-81424724D01*
X100814253Y-81508116D01*
X100708116Y-81614253D01*
X100624724Y-81739058D01*
X100567283Y-81877733D01*
X100538000Y-82024950D01*
X87485475Y-82024950D01*
X85902318Y-80441793D01*
X85333574Y-79873050D01*
X85313685Y-79848815D01*
X85216994Y-79769463D01*
X85106680Y-79710498D01*
X84986982Y-79674188D01*
X84893692Y-79665000D01*
X84893681Y-79665000D01*
X84862500Y-79661929D01*
X84831319Y-79665000D01*
X77921219Y-79665000D01*
X77860942Y-79624724D01*
X77722267Y-79567283D01*
X77575050Y-79538000D01*
X77424950Y-79538000D01*
X77277733Y-79567283D01*
X77139058Y-79624724D01*
X77014253Y-79708116D01*
X76908116Y-79814253D01*
X76824724Y-79939058D01*
X76767283Y-80077733D01*
X76738000Y-80224950D01*
X76738000Y-80375050D01*
X76767283Y-80522267D01*
X76824724Y-80660942D01*
X76908116Y-80785747D01*
X77014253Y-80891884D01*
X77139058Y-80975276D01*
X77277733Y-81032717D01*
X77424950Y-81062000D01*
X77575050Y-81062000D01*
X77722267Y-81032717D01*
X77860942Y-80975276D01*
X77921219Y-80935000D01*
X84599476Y-80935000D01*
X85004293Y-81339818D01*
X87715640Y-84051165D01*
X87729783Y-84122267D01*
X87787224Y-84260942D01*
X87870616Y-84385747D01*
X87976753Y-84491884D01*
X88101558Y-84575276D01*
X88240233Y-84632717D01*
X88311336Y-84646860D01*
X90191430Y-86526955D01*
X90211315Y-86551185D01*
X90235543Y-86571068D01*
X90308006Y-86630538D01*
X90418320Y-86689502D01*
X90538018Y-86725812D01*
X90631308Y-86735000D01*
X90631311Y-86735000D01*
X90662500Y-86738072D01*
X90693689Y-86735000D01*
X99641281Y-86735000D01*
X99701558Y-86775276D01*
X99840233Y-86832717D01*
X99987450Y-86862000D01*
X100137550Y-86862000D01*
X100284767Y-86832717D01*
X100423442Y-86775276D01*
X100483719Y-86735000D01*
X103104020Y-86735000D01*
X107115001Y-90745983D01*
X107115000Y-94486975D01*
X106420215Y-95181761D01*
X105237980Y-95181761D01*
X105177703Y-95141485D01*
X105039028Y-95084044D01*
X104891811Y-95054761D01*
X104741711Y-95054761D01*
X104594494Y-95084044D01*
X104455819Y-95141485D01*
X104331014Y-95224877D01*
X104224877Y-95331014D01*
X104141485Y-95455819D01*
X104084044Y-95594494D01*
X104069901Y-95665596D01*
X103770498Y-95965000D01*
X76121219Y-95965000D01*
X76060942Y-95924724D01*
X75922267Y-95867283D01*
X75775050Y-95838000D01*
X75624950Y-95838000D01*
X75477733Y-95867283D01*
X75339058Y-95924724D01*
X75214253Y-96008116D01*
X75108116Y-96114253D01*
X75024724Y-96239058D01*
X74967283Y-96377733D01*
X74938000Y-96524950D01*
X74938000Y-96675050D01*
X74967283Y-96822267D01*
X75024724Y-96960942D01*
X75108116Y-97085747D01*
X75214253Y-97191884D01*
X75339058Y-97275276D01*
X75477733Y-97332717D01*
X75624950Y-97362000D01*
X75775050Y-97362000D01*
X75922267Y-97332717D01*
X76060942Y-97275276D01*
X76121219Y-97235000D01*
X104002341Y-97235000D01*
X104033522Y-97238071D01*
X104064703Y-97235000D01*
X104064714Y-97235000D01*
X104158004Y-97225812D01*
X104277702Y-97189502D01*
X104388016Y-97130537D01*
X104484707Y-97051185D01*
X104504596Y-97026950D01*
X104967926Y-96563621D01*
X105039028Y-96549478D01*
X105177703Y-96492037D01*
X105237980Y-96451761D01*
X106652058Y-96451761D01*
X106683239Y-96454832D01*
X106714420Y-96451761D01*
X106714431Y-96451761D01*
X106807721Y-96442573D01*
X106927419Y-96406263D01*
X107037733Y-96347298D01*
X107134424Y-96267946D01*
X107154313Y-96243711D01*
X108176956Y-95221069D01*
X108201185Y-95201185D01*
X108236235Y-95158476D01*
X108280538Y-95104494D01*
X108339502Y-94994180D01*
X108352544Y-94951185D01*
X108375812Y-94874482D01*
X108385000Y-94781192D01*
X108385000Y-94781189D01*
X108388072Y-94750000D01*
X108385000Y-94718811D01*
X108385000Y-90514145D01*
X108388072Y-90482956D01*
X108385000Y-90451764D01*
X108375812Y-90358474D01*
X108339502Y-90238776D01*
X108321448Y-90205000D01*
X108280538Y-90128462D01*
X108221069Y-90055999D01*
X108221065Y-90055995D01*
X108201185Y-90031771D01*
X108176961Y-90011891D01*
X104002044Y-85836976D01*
X104002044Y-84395980D01*
X105926956Y-82471069D01*
X105951185Y-82451185D01*
X105988574Y-82405627D01*
X106030537Y-82354495D01*
X106051076Y-82316069D01*
X106089502Y-82244180D01*
X106125812Y-82124482D01*
X106135000Y-82031192D01*
X106135000Y-82031182D01*
X106138071Y-82000001D01*
X106135000Y-81968820D01*
X106135000Y-70781180D01*
X106138071Y-70749999D01*
X106135000Y-70718818D01*
X106135000Y-70718808D01*
X106125812Y-70625518D01*
X106089502Y-70505820D01*
X106030537Y-70395506D01*
X105951185Y-70298815D01*
X105926955Y-70278930D01*
X98427337Y-62779313D01*
X98407448Y-62755078D01*
X98310757Y-62675726D01*
X98200443Y-62616761D01*
X98080745Y-62580451D01*
X97987455Y-62571263D01*
X97987444Y-62571263D01*
X97956263Y-62568192D01*
X97925082Y-62571263D01*
X91727482Y-62571263D01*
X91667205Y-62530987D01*
X91528530Y-62473546D01*
X91381313Y-62444263D01*
X91231213Y-62444263D01*
X91083996Y-62473546D01*
X90945321Y-62530987D01*
X90885044Y-62571263D01*
X83121219Y-62571263D01*
X83060942Y-62530987D01*
X82922267Y-62473546D01*
X82775050Y-62444263D01*
X82624950Y-62444263D01*
X82477733Y-62473546D01*
X82339058Y-62530987D01*
X82214253Y-62614379D01*
X82108116Y-62720516D01*
X82024724Y-62845321D01*
X81967283Y-62983996D01*
X81953140Y-63055097D01*
X81180739Y-63827500D01*
X74321219Y-63827500D01*
X74260942Y-63787224D01*
X74122267Y-63729783D01*
X73975050Y-63700500D01*
X73824950Y-63700500D01*
X73677733Y-63729783D01*
X73539058Y-63787224D01*
X73414253Y-63870616D01*
X73308116Y-63976753D01*
X73224724Y-64101558D01*
X73167283Y-64240233D01*
X73138000Y-64387450D01*
X71820168Y-64387450D01*
X71837238Y-64350528D01*
X71867910Y-64249400D01*
X71744224Y-64047000D01*
X70727000Y-64047000D01*
X70473000Y-64047000D01*
X69455776Y-64047000D01*
X69332090Y-64249400D01*
X66767910Y-64249400D01*
X66644224Y-64047000D01*
X65627000Y-64047000D01*
X65373000Y-64047000D01*
X64355776Y-64047000D01*
X64232090Y-64249400D01*
X61567910Y-64249400D01*
X61444224Y-64047000D01*
X60427000Y-64047000D01*
X60173000Y-64047000D01*
X59155776Y-64047000D01*
X59032090Y-64249400D01*
X56367910Y-64249400D01*
X56244224Y-64047000D01*
X55227000Y-64047000D01*
X54973000Y-64047000D01*
X53955776Y-64047000D01*
X53832090Y-64249400D01*
X50431000Y-64249400D01*
X50431000Y-63590600D01*
X53832090Y-63590600D01*
X53955776Y-63793000D01*
X54973000Y-63793000D01*
X54973000Y-62774915D01*
X55227000Y-62774915D01*
X55227000Y-63793000D01*
X56244224Y-63793000D01*
X56367910Y-63590600D01*
X59032090Y-63590600D01*
X59155776Y-63793000D01*
X60173000Y-63793000D01*
X60173000Y-62774915D01*
X60427000Y-62774915D01*
X60427000Y-63793000D01*
X61444224Y-63793000D01*
X61567910Y-63590600D01*
X64232090Y-63590600D01*
X64355776Y-63793000D01*
X65373000Y-63793000D01*
X65373000Y-62774915D01*
X65627000Y-62774915D01*
X65627000Y-63793000D01*
X66644224Y-63793000D01*
X66767910Y-63590600D01*
X69332090Y-63590600D01*
X69455776Y-63793000D01*
X70473000Y-63793000D01*
X70473000Y-62774915D01*
X70727000Y-62774915D01*
X70727000Y-63793000D01*
X71744224Y-63793000D01*
X71867910Y-63590600D01*
X71837238Y-63489472D01*
X71729473Y-63256371D01*
X71578303Y-63048773D01*
X71389537Y-62874656D01*
X71170430Y-62740711D01*
X70929401Y-62652085D01*
X70727000Y-62774915D01*
X70473000Y-62774915D01*
X70270599Y-62652085D01*
X70029570Y-62740711D01*
X69810463Y-62874656D01*
X69621697Y-63048773D01*
X69470527Y-63256371D01*
X69362762Y-63489472D01*
X69332090Y-63590600D01*
X66767910Y-63590600D01*
X66737238Y-63489472D01*
X66629473Y-63256371D01*
X66478303Y-63048773D01*
X66289537Y-62874656D01*
X66070430Y-62740711D01*
X65829401Y-62652085D01*
X65627000Y-62774915D01*
X65373000Y-62774915D01*
X65170599Y-62652085D01*
X64929570Y-62740711D01*
X64710463Y-62874656D01*
X64521697Y-63048773D01*
X64370527Y-63256371D01*
X64262762Y-63489472D01*
X64232090Y-63590600D01*
X61567910Y-63590600D01*
X61537238Y-63489472D01*
X61429473Y-63256371D01*
X61278303Y-63048773D01*
X61089537Y-62874656D01*
X60870430Y-62740711D01*
X60629401Y-62652085D01*
X60427000Y-62774915D01*
X60173000Y-62774915D01*
X59970599Y-62652085D01*
X59729570Y-62740711D01*
X59510463Y-62874656D01*
X59321697Y-63048773D01*
X59170527Y-63256371D01*
X59062762Y-63489472D01*
X59032090Y-63590600D01*
X56367910Y-63590600D01*
X56337238Y-63489472D01*
X56229473Y-63256371D01*
X56078303Y-63048773D01*
X55889537Y-62874656D01*
X55670430Y-62740711D01*
X55429401Y-62652085D01*
X55227000Y-62774915D01*
X54973000Y-62774915D01*
X54770599Y-62652085D01*
X54529570Y-62740711D01*
X54310463Y-62874656D01*
X54121697Y-63048773D01*
X53970527Y-63256371D01*
X53862762Y-63489472D01*
X53832090Y-63590600D01*
X50431000Y-63590600D01*
X50431000Y-61709400D01*
X53832090Y-61709400D01*
X53862762Y-61810528D01*
X53970527Y-62043629D01*
X54121697Y-62251227D01*
X54310463Y-62425344D01*
X54529570Y-62559289D01*
X54770599Y-62647915D01*
X54973000Y-62525085D01*
X54973000Y-61507000D01*
X55227000Y-61507000D01*
X55227000Y-62525085D01*
X55429401Y-62647915D01*
X55670430Y-62559289D01*
X55889537Y-62425344D01*
X56078303Y-62251227D01*
X56229473Y-62043629D01*
X56337238Y-61810528D01*
X56367910Y-61709400D01*
X59032090Y-61709400D01*
X59062762Y-61810528D01*
X59170527Y-62043629D01*
X59321697Y-62251227D01*
X59510463Y-62425344D01*
X59729570Y-62559289D01*
X59970599Y-62647915D01*
X60173000Y-62525085D01*
X60173000Y-61507000D01*
X60427000Y-61507000D01*
X60427000Y-62525085D01*
X60629401Y-62647915D01*
X60870430Y-62559289D01*
X61089537Y-62425344D01*
X61278303Y-62251227D01*
X61429473Y-62043629D01*
X61537238Y-61810528D01*
X61567910Y-61709400D01*
X64232090Y-61709400D01*
X64262762Y-61810528D01*
X64370527Y-62043629D01*
X64521697Y-62251227D01*
X64710463Y-62425344D01*
X64929570Y-62559289D01*
X65170599Y-62647915D01*
X65373000Y-62525085D01*
X65373000Y-61507000D01*
X65627000Y-61507000D01*
X65627000Y-62525085D01*
X65829401Y-62647915D01*
X66070430Y-62559289D01*
X66289537Y-62425344D01*
X66478303Y-62251227D01*
X66629473Y-62043629D01*
X66737238Y-61810528D01*
X66767910Y-61709400D01*
X69332090Y-61709400D01*
X69362762Y-61810528D01*
X69470527Y-62043629D01*
X69621697Y-62251227D01*
X69810463Y-62425344D01*
X70029570Y-62559289D01*
X70270599Y-62647915D01*
X70473000Y-62525085D01*
X70473000Y-61507000D01*
X70727000Y-61507000D01*
X70727000Y-62525085D01*
X70929401Y-62647915D01*
X71170430Y-62559289D01*
X71389537Y-62425344D01*
X71578303Y-62251227D01*
X71729473Y-62043629D01*
X71837238Y-61810528D01*
X71867910Y-61709400D01*
X71744224Y-61507000D01*
X70727000Y-61507000D01*
X70473000Y-61507000D01*
X69455776Y-61507000D01*
X69332090Y-61709400D01*
X66767910Y-61709400D01*
X66644224Y-61507000D01*
X65627000Y-61507000D01*
X65373000Y-61507000D01*
X64355776Y-61507000D01*
X64232090Y-61709400D01*
X61567910Y-61709400D01*
X61444224Y-61507000D01*
X60427000Y-61507000D01*
X60173000Y-61507000D01*
X59155776Y-61507000D01*
X59032090Y-61709400D01*
X56367910Y-61709400D01*
X56244224Y-61507000D01*
X55227000Y-61507000D01*
X54973000Y-61507000D01*
X53955776Y-61507000D01*
X53832090Y-61709400D01*
X50431000Y-61709400D01*
X50431000Y-61050600D01*
X53832090Y-61050600D01*
X53955776Y-61253000D01*
X54973000Y-61253000D01*
X54973000Y-60234915D01*
X55227000Y-60234915D01*
X55227000Y-61253000D01*
X56244224Y-61253000D01*
X56367910Y-61050600D01*
X59032090Y-61050600D01*
X59155776Y-61253000D01*
X60173000Y-61253000D01*
X60173000Y-60234915D01*
X60427000Y-60234915D01*
X60427000Y-61253000D01*
X61444224Y-61253000D01*
X61567910Y-61050600D01*
X64232090Y-61050600D01*
X64355776Y-61253000D01*
X65373000Y-61253000D01*
X65373000Y-60234915D01*
X65627000Y-60234915D01*
X65627000Y-61253000D01*
X66644224Y-61253000D01*
X66767910Y-61050600D01*
X69332090Y-61050600D01*
X69455776Y-61253000D01*
X70473000Y-61253000D01*
X70473000Y-60234915D01*
X70727000Y-60234915D01*
X70727000Y-61253000D01*
X71744224Y-61253000D01*
X71867910Y-61050600D01*
X71837238Y-60949472D01*
X71729473Y-60716371D01*
X71578303Y-60508773D01*
X71389537Y-60334656D01*
X71170430Y-60200711D01*
X70929401Y-60112085D01*
X70727000Y-60234915D01*
X70473000Y-60234915D01*
X70270599Y-60112085D01*
X70029570Y-60200711D01*
X69810463Y-60334656D01*
X69621697Y-60508773D01*
X69470527Y-60716371D01*
X69362762Y-60949472D01*
X69332090Y-61050600D01*
X66767910Y-61050600D01*
X66737238Y-60949472D01*
X66629473Y-60716371D01*
X66478303Y-60508773D01*
X66289537Y-60334656D01*
X66070430Y-60200711D01*
X65829401Y-60112085D01*
X65627000Y-60234915D01*
X65373000Y-60234915D01*
X65170599Y-60112085D01*
X64929570Y-60200711D01*
X64710463Y-60334656D01*
X64521697Y-60508773D01*
X64370527Y-60716371D01*
X64262762Y-60949472D01*
X64232090Y-61050600D01*
X61567910Y-61050600D01*
X61537238Y-60949472D01*
X61429473Y-60716371D01*
X61278303Y-60508773D01*
X61089537Y-60334656D01*
X60870430Y-60200711D01*
X60629401Y-60112085D01*
X60427000Y-60234915D01*
X60173000Y-60234915D01*
X59970599Y-60112085D01*
X59729570Y-60200711D01*
X59510463Y-60334656D01*
X59321697Y-60508773D01*
X59170527Y-60716371D01*
X59062762Y-60949472D01*
X59032090Y-61050600D01*
X56367910Y-61050600D01*
X56337238Y-60949472D01*
X56229473Y-60716371D01*
X56078303Y-60508773D01*
X55889537Y-60334656D01*
X55670430Y-60200711D01*
X55429401Y-60112085D01*
X55227000Y-60234915D01*
X54973000Y-60234915D01*
X54770599Y-60112085D01*
X54529570Y-60200711D01*
X54310463Y-60334656D01*
X54121697Y-60508773D01*
X53970527Y-60716371D01*
X53862762Y-60949472D01*
X53832090Y-61050600D01*
X50431000Y-61050600D01*
X50431000Y-58840000D01*
X54038891Y-58840000D01*
X54059280Y-59047012D01*
X54119663Y-59246069D01*
X54217720Y-59429521D01*
X54349683Y-59590317D01*
X54510479Y-59722280D01*
X54693931Y-59820337D01*
X54892988Y-59880720D01*
X55048128Y-59896000D01*
X55151872Y-59896000D01*
X55307012Y-59880720D01*
X55506069Y-59820337D01*
X55689521Y-59722280D01*
X55850317Y-59590317D01*
X55982280Y-59429521D01*
X56080337Y-59246069D01*
X56140720Y-59047012D01*
X56161109Y-58840000D01*
X59238891Y-58840000D01*
X59259280Y-59047012D01*
X59319663Y-59246069D01*
X59417720Y-59429521D01*
X59549683Y-59590317D01*
X59710479Y-59722280D01*
X59893931Y-59820337D01*
X60092988Y-59880720D01*
X60248128Y-59896000D01*
X60351872Y-59896000D01*
X60507012Y-59880720D01*
X60706069Y-59820337D01*
X60889521Y-59722280D01*
X61050317Y-59590317D01*
X61182280Y-59429521D01*
X61280337Y-59246069D01*
X61340720Y-59047012D01*
X61361109Y-58840000D01*
X64438891Y-58840000D01*
X64459280Y-59047012D01*
X64519663Y-59246069D01*
X64617720Y-59429521D01*
X64749683Y-59590317D01*
X64910479Y-59722280D01*
X65093931Y-59820337D01*
X65292988Y-59880720D01*
X65448128Y-59896000D01*
X65551872Y-59896000D01*
X65707012Y-59880720D01*
X65906069Y-59820337D01*
X66089521Y-59722280D01*
X66250317Y-59590317D01*
X66382280Y-59429521D01*
X66480337Y-59246069D01*
X66540720Y-59047012D01*
X66561109Y-58840000D01*
X69538891Y-58840000D01*
X69559280Y-59047012D01*
X69619663Y-59246069D01*
X69717720Y-59429521D01*
X69849683Y-59590317D01*
X70010479Y-59722280D01*
X70193931Y-59820337D01*
X70392988Y-59880720D01*
X70548128Y-59896000D01*
X70651872Y-59896000D01*
X70807012Y-59880720D01*
X71006069Y-59820337D01*
X71189521Y-59722280D01*
X71350317Y-59590317D01*
X71482280Y-59429521D01*
X71580337Y-59246069D01*
X71586743Y-59224950D01*
X73338000Y-59224950D01*
X73338000Y-59375050D01*
X73367283Y-59522267D01*
X73424724Y-59660942D01*
X73508116Y-59785747D01*
X73614253Y-59891884D01*
X73739058Y-59975276D01*
X73877733Y-60032717D01*
X74024950Y-60062000D01*
X74144486Y-60062000D01*
X74197403Y-60105428D01*
X74209858Y-60112085D01*
X74285656Y-60152600D01*
X74381414Y-60181648D01*
X74456052Y-60188999D01*
X74456055Y-60188999D01*
X74480999Y-60191456D01*
X74505943Y-60188999D01*
X87954057Y-60188999D01*
X87979001Y-60191456D01*
X88003945Y-60188999D01*
X88003948Y-60188999D01*
X88078586Y-60181648D01*
X88174344Y-60152600D01*
X88262596Y-60105428D01*
X88339949Y-60041947D01*
X88355856Y-60022564D01*
X93864533Y-54513887D01*
X93952988Y-54540720D01*
X94108128Y-54556000D01*
X94211872Y-54556000D01*
X94367012Y-54540720D01*
X94566069Y-54480337D01*
X94749521Y-54382280D01*
X94910317Y-54250317D01*
X95042280Y-54089521D01*
X95140337Y-53906069D01*
X95200720Y-53707012D01*
X95221109Y-53500000D01*
X95200720Y-53292988D01*
X95140337Y-53093931D01*
X95042280Y-52910479D01*
X94972129Y-52825000D01*
X95642157Y-52825000D01*
X95642157Y-54175000D01*
X95649513Y-54249689D01*
X95671299Y-54321508D01*
X95706678Y-54387696D01*
X95754289Y-54445711D01*
X95812304Y-54493322D01*
X95878492Y-54528701D01*
X95950311Y-54550487D01*
X96025000Y-54557843D01*
X97375000Y-54557843D01*
X97449689Y-54550487D01*
X97521508Y-54528701D01*
X97587696Y-54493322D01*
X97645711Y-54445711D01*
X97693322Y-54387696D01*
X97728701Y-54321508D01*
X97750487Y-54249689D01*
X97757843Y-54175000D01*
X97757843Y-52825000D01*
X97750487Y-52750311D01*
X97728701Y-52678492D01*
X97693322Y-52612304D01*
X97645711Y-52554289D01*
X97587696Y-52506678D01*
X97521508Y-52471299D01*
X97449689Y-52449513D01*
X97375000Y-52442157D01*
X96025000Y-52442157D01*
X95950311Y-52449513D01*
X95878492Y-52471299D01*
X95812304Y-52506678D01*
X95754289Y-52554289D01*
X95706678Y-52612304D01*
X95671299Y-52678492D01*
X95649513Y-52750311D01*
X95642157Y-52825000D01*
X94972129Y-52825000D01*
X94910317Y-52749683D01*
X94749521Y-52617720D01*
X94566069Y-52519663D01*
X94367012Y-52459280D01*
X94211872Y-52444000D01*
X94108128Y-52444000D01*
X93952988Y-52459280D01*
X93753931Y-52519663D01*
X93570479Y-52617720D01*
X93409683Y-52749683D01*
X93277720Y-52910479D01*
X93179663Y-53093931D01*
X93119280Y-53292988D01*
X93098891Y-53500000D01*
X93119280Y-53707012D01*
X93146113Y-53795467D01*
X92686264Y-54255316D01*
X92799289Y-54070430D01*
X92887915Y-53829401D01*
X92765085Y-53627000D01*
X91747000Y-53627000D01*
X91747000Y-54644224D01*
X91949400Y-54767910D01*
X92050528Y-54737238D01*
X92283629Y-54629473D01*
X92388399Y-54553181D01*
X87768581Y-59172999D01*
X74851666Y-59172999D01*
X74832717Y-59077733D01*
X74775276Y-58939058D01*
X74691884Y-58814253D01*
X74585747Y-58708116D01*
X74460942Y-58624724D01*
X74322267Y-58567283D01*
X74175050Y-58538000D01*
X74024950Y-58538000D01*
X73877733Y-58567283D01*
X73739058Y-58624724D01*
X73614253Y-58708116D01*
X73508116Y-58814253D01*
X73424724Y-58939058D01*
X73367283Y-59077733D01*
X73338000Y-59224950D01*
X71586743Y-59224950D01*
X71640720Y-59047012D01*
X71661109Y-58840000D01*
X71640720Y-58632988D01*
X71580337Y-58433931D01*
X71482280Y-58250479D01*
X71350317Y-58089683D01*
X71189521Y-57957720D01*
X71006069Y-57859663D01*
X70807012Y-57799280D01*
X70651872Y-57784000D01*
X70548128Y-57784000D01*
X70392988Y-57799280D01*
X70193931Y-57859663D01*
X70010479Y-57957720D01*
X69849683Y-58089683D01*
X69717720Y-58250479D01*
X69619663Y-58433931D01*
X69559280Y-58632988D01*
X69538891Y-58840000D01*
X66561109Y-58840000D01*
X66540720Y-58632988D01*
X66480337Y-58433931D01*
X66382280Y-58250479D01*
X66250317Y-58089683D01*
X66089521Y-57957720D01*
X65906069Y-57859663D01*
X65707012Y-57799280D01*
X65551872Y-57784000D01*
X65448128Y-57784000D01*
X65292988Y-57799280D01*
X65093931Y-57859663D01*
X64910479Y-57957720D01*
X64749683Y-58089683D01*
X64617720Y-58250479D01*
X64519663Y-58433931D01*
X64459280Y-58632988D01*
X64438891Y-58840000D01*
X61361109Y-58840000D01*
X61340720Y-58632988D01*
X61280337Y-58433931D01*
X61182280Y-58250479D01*
X61050317Y-58089683D01*
X60889521Y-57957720D01*
X60706069Y-57859663D01*
X60507012Y-57799280D01*
X60351872Y-57784000D01*
X60248128Y-57784000D01*
X60092988Y-57799280D01*
X59893931Y-57859663D01*
X59710479Y-57957720D01*
X59549683Y-58089683D01*
X59417720Y-58250479D01*
X59319663Y-58433931D01*
X59259280Y-58632988D01*
X59238891Y-58840000D01*
X56161109Y-58840000D01*
X56140720Y-58632988D01*
X56080337Y-58433931D01*
X55982280Y-58250479D01*
X55850317Y-58089683D01*
X55689521Y-57957720D01*
X55506069Y-57859663D01*
X55307012Y-57799280D01*
X55151872Y-57784000D01*
X55048128Y-57784000D01*
X54892988Y-57799280D01*
X54693931Y-57859663D01*
X54510479Y-57957720D01*
X54349683Y-58089683D01*
X54217720Y-58250479D01*
X54119663Y-58433931D01*
X54059280Y-58632988D01*
X54038891Y-58840000D01*
X50431000Y-58840000D01*
X50431000Y-55625000D01*
X54042157Y-55625000D01*
X54042157Y-56975000D01*
X54049513Y-57049689D01*
X54071299Y-57121508D01*
X54106678Y-57187696D01*
X54154289Y-57245711D01*
X54212304Y-57293322D01*
X54278492Y-57328701D01*
X54350311Y-57350487D01*
X54425000Y-57357843D01*
X55775000Y-57357843D01*
X55849689Y-57350487D01*
X55921508Y-57328701D01*
X55987696Y-57293322D01*
X56045711Y-57245711D01*
X56093322Y-57187696D01*
X56128701Y-57121508D01*
X56150487Y-57049689D01*
X56157843Y-56975000D01*
X56157843Y-55625000D01*
X59242157Y-55625000D01*
X59242157Y-56975000D01*
X59249513Y-57049689D01*
X59271299Y-57121508D01*
X59306678Y-57187696D01*
X59354289Y-57245711D01*
X59412304Y-57293322D01*
X59478492Y-57328701D01*
X59550311Y-57350487D01*
X59625000Y-57357843D01*
X60975000Y-57357843D01*
X61049689Y-57350487D01*
X61121508Y-57328701D01*
X61187696Y-57293322D01*
X61245711Y-57245711D01*
X61293322Y-57187696D01*
X61328701Y-57121508D01*
X61350487Y-57049689D01*
X61357843Y-56975000D01*
X61357843Y-55625000D01*
X64442157Y-55625000D01*
X64442157Y-56975000D01*
X64449513Y-57049689D01*
X64471299Y-57121508D01*
X64506678Y-57187696D01*
X64554289Y-57245711D01*
X64612304Y-57293322D01*
X64678492Y-57328701D01*
X64750311Y-57350487D01*
X64825000Y-57357843D01*
X66175000Y-57357843D01*
X66249689Y-57350487D01*
X66321508Y-57328701D01*
X66387696Y-57293322D01*
X66445711Y-57245711D01*
X66493322Y-57187696D01*
X66528701Y-57121508D01*
X66550487Y-57049689D01*
X66557843Y-56975000D01*
X66557843Y-55625000D01*
X69542157Y-55625000D01*
X69542157Y-56975000D01*
X69549513Y-57049689D01*
X69571299Y-57121508D01*
X69606678Y-57187696D01*
X69654289Y-57245711D01*
X69712304Y-57293322D01*
X69778492Y-57328701D01*
X69850311Y-57350487D01*
X69925000Y-57357843D01*
X71275000Y-57357843D01*
X71349689Y-57350487D01*
X71421508Y-57328701D01*
X71487696Y-57293322D01*
X71545711Y-57245711D01*
X71593322Y-57187696D01*
X71628701Y-57121508D01*
X71650487Y-57049689D01*
X71657843Y-56975000D01*
X71657843Y-56643531D01*
X78919000Y-56643531D01*
X78919000Y-56856469D01*
X78960543Y-57065316D01*
X79042031Y-57262045D01*
X79160333Y-57439097D01*
X79310903Y-57589667D01*
X79487955Y-57707969D01*
X79684684Y-57789457D01*
X79893531Y-57831000D01*
X80106469Y-57831000D01*
X80315316Y-57789457D01*
X80512045Y-57707969D01*
X80689097Y-57589667D01*
X80839667Y-57439097D01*
X80957969Y-57262045D01*
X81039457Y-57065316D01*
X81081000Y-56856469D01*
X81081000Y-56643531D01*
X81039457Y-56434684D01*
X80957969Y-56237955D01*
X80839667Y-56060903D01*
X80689097Y-55910333D01*
X80512045Y-55792031D01*
X80315316Y-55710543D01*
X80106469Y-55669000D01*
X79893531Y-55669000D01*
X79684684Y-55710543D01*
X79487955Y-55792031D01*
X79310903Y-55910333D01*
X79160333Y-56060903D01*
X79042031Y-56237955D01*
X78960543Y-56434684D01*
X78919000Y-56643531D01*
X71657843Y-56643531D01*
X71657843Y-55625000D01*
X71650487Y-55550311D01*
X71628701Y-55478492D01*
X71593322Y-55412304D01*
X71545711Y-55354289D01*
X71487696Y-55306678D01*
X71421508Y-55271299D01*
X71349689Y-55249513D01*
X71275000Y-55242157D01*
X69925000Y-55242157D01*
X69850311Y-55249513D01*
X69778492Y-55271299D01*
X69712304Y-55306678D01*
X69654289Y-55354289D01*
X69606678Y-55412304D01*
X69571299Y-55478492D01*
X69549513Y-55550311D01*
X69542157Y-55625000D01*
X66557843Y-55625000D01*
X66550487Y-55550311D01*
X66528701Y-55478492D01*
X66493322Y-55412304D01*
X66445711Y-55354289D01*
X66387696Y-55306678D01*
X66321508Y-55271299D01*
X66249689Y-55249513D01*
X66175000Y-55242157D01*
X64825000Y-55242157D01*
X64750311Y-55249513D01*
X64678492Y-55271299D01*
X64612304Y-55306678D01*
X64554289Y-55354289D01*
X64506678Y-55412304D01*
X64471299Y-55478492D01*
X64449513Y-55550311D01*
X64442157Y-55625000D01*
X61357843Y-55625000D01*
X61350487Y-55550311D01*
X61328701Y-55478492D01*
X61293322Y-55412304D01*
X61245711Y-55354289D01*
X61187696Y-55306678D01*
X61121508Y-55271299D01*
X61049689Y-55249513D01*
X60975000Y-55242157D01*
X59625000Y-55242157D01*
X59550311Y-55249513D01*
X59478492Y-55271299D01*
X59412304Y-55306678D01*
X59354289Y-55354289D01*
X59306678Y-55412304D01*
X59271299Y-55478492D01*
X59249513Y-55550311D01*
X59242157Y-55625000D01*
X56157843Y-55625000D01*
X56150487Y-55550311D01*
X56128701Y-55478492D01*
X56093322Y-55412304D01*
X56045711Y-55354289D01*
X55987696Y-55306678D01*
X55921508Y-55271299D01*
X55849689Y-55249513D01*
X55775000Y-55242157D01*
X54425000Y-55242157D01*
X54350311Y-55249513D01*
X54278492Y-55271299D01*
X54212304Y-55306678D01*
X54154289Y-55354289D01*
X54106678Y-55412304D01*
X54071299Y-55478492D01*
X54049513Y-55550311D01*
X54042157Y-55625000D01*
X50431000Y-55625000D01*
X50431000Y-53500000D01*
X88018891Y-53500000D01*
X88039280Y-53707012D01*
X88099663Y-53906069D01*
X88197720Y-54089521D01*
X88329683Y-54250317D01*
X88490479Y-54382280D01*
X88673931Y-54480337D01*
X88872988Y-54540720D01*
X89028128Y-54556000D01*
X89131872Y-54556000D01*
X89287012Y-54540720D01*
X89486069Y-54480337D01*
X89669521Y-54382280D01*
X89830317Y-54250317D01*
X89962280Y-54089521D01*
X90060337Y-53906069D01*
X90083593Y-53829401D01*
X90352085Y-53829401D01*
X90440711Y-54070430D01*
X90574656Y-54289537D01*
X90748773Y-54478303D01*
X90956371Y-54629473D01*
X91189472Y-54737238D01*
X91290600Y-54767910D01*
X91493000Y-54644224D01*
X91493000Y-53627000D01*
X90474915Y-53627000D01*
X90352085Y-53829401D01*
X90083593Y-53829401D01*
X90120720Y-53707012D01*
X90141109Y-53500000D01*
X90120720Y-53292988D01*
X90083594Y-53170599D01*
X90352085Y-53170599D01*
X90474915Y-53373000D01*
X91493000Y-53373000D01*
X91493000Y-52355776D01*
X91747000Y-52355776D01*
X91747000Y-53373000D01*
X92765085Y-53373000D01*
X92887915Y-53170599D01*
X92799289Y-52929570D01*
X92665344Y-52710463D01*
X92491227Y-52521697D01*
X92283629Y-52370527D01*
X92050528Y-52262762D01*
X91949400Y-52232090D01*
X91747000Y-52355776D01*
X91493000Y-52355776D01*
X91290600Y-52232090D01*
X91189472Y-52262762D01*
X90956371Y-52370527D01*
X90748773Y-52521697D01*
X90574656Y-52710463D01*
X90440711Y-52929570D01*
X90352085Y-53170599D01*
X90083594Y-53170599D01*
X90060337Y-53093931D01*
X89962280Y-52910479D01*
X89830317Y-52749683D01*
X89669521Y-52617720D01*
X89486069Y-52519663D01*
X89287012Y-52459280D01*
X89131872Y-52444000D01*
X89028128Y-52444000D01*
X88872988Y-52459280D01*
X88673931Y-52519663D01*
X88490479Y-52617720D01*
X88329683Y-52749683D01*
X88197720Y-52910479D01*
X88099663Y-53093931D01*
X88039280Y-53292988D01*
X88018891Y-53500000D01*
X50431000Y-53500000D01*
X50431000Y-52143531D01*
X78919000Y-52143531D01*
X78919000Y-52356469D01*
X78960543Y-52565316D01*
X79042031Y-52762045D01*
X79160333Y-52939097D01*
X79310903Y-53089667D01*
X79487955Y-53207969D01*
X79684684Y-53289457D01*
X79893531Y-53331000D01*
X80106469Y-53331000D01*
X80315316Y-53289457D01*
X80512045Y-53207969D01*
X80689097Y-53089667D01*
X80839667Y-52939097D01*
X80957969Y-52762045D01*
X81039457Y-52565316D01*
X81081000Y-52356469D01*
X81081000Y-52143531D01*
X81039457Y-51934684D01*
X80957969Y-51737955D01*
X80839667Y-51560903D01*
X80689097Y-51410333D01*
X80512045Y-51292031D01*
X80315316Y-51210543D01*
X80106469Y-51169000D01*
X79893531Y-51169000D01*
X79684684Y-51210543D01*
X79487955Y-51292031D01*
X79310903Y-51410333D01*
X79160333Y-51560903D01*
X79042031Y-51737955D01*
X78960543Y-51934684D01*
X78919000Y-52143531D01*
X50431000Y-52143531D01*
X50431000Y-50431000D01*
X109569000Y-50431000D01*
X109569001Y-130569000D01*
X109569001Y-130569000D01*
G37*
X109569001Y-130569000D02*
X50431000Y-130569000D01*
X50431000Y-127700000D01*
X53463044Y-127700000D01*
X53486812Y-127941318D01*
X53557202Y-128173363D01*
X53671509Y-128387216D01*
X53825340Y-128574660D01*
X54012784Y-128728491D01*
X54226637Y-128842798D01*
X54458682Y-128913188D01*
X54639528Y-128931000D01*
X54760472Y-128931000D01*
X54941318Y-128913188D01*
X55173363Y-128842798D01*
X55387216Y-128728491D01*
X55574660Y-128574660D01*
X55728491Y-128387216D01*
X55842798Y-128173363D01*
X55913188Y-127941318D01*
X55936956Y-127700000D01*
X55913188Y-127458682D01*
X55842798Y-127226637D01*
X55728491Y-127012784D01*
X55574660Y-126825340D01*
X55387216Y-126671509D01*
X55173363Y-126557202D01*
X54941318Y-126486812D01*
X54760472Y-126469000D01*
X54639528Y-126469000D01*
X54458682Y-126486812D01*
X54226637Y-126557202D01*
X54012784Y-126671509D01*
X53825340Y-126825340D01*
X53671509Y-127012784D01*
X53557202Y-127226637D01*
X53486812Y-127458682D01*
X53463044Y-127700000D01*
X50431000Y-127700000D01*
X50431000Y-98640181D01*
X50989532Y-98640181D01*
X50991989Y-98665125D01*
X50991990Y-121935035D01*
X50989532Y-121959989D01*
X50999341Y-122059573D01*
X51028389Y-122155332D01*
X51075560Y-122243584D01*
X51123139Y-122301559D01*
X51139042Y-122320937D01*
X51158419Y-122336839D01*
X56085801Y-127264222D01*
X56026812Y-127458682D01*
X56003044Y-127700000D01*
X56026812Y-127941318D01*
X56097202Y-128173363D01*
X56211509Y-128387216D01*
X56365340Y-128574660D01*
X56552784Y-128728491D01*
X56766637Y-128842798D01*
X56998682Y-128913188D01*
X57179528Y-128931000D01*
X57300472Y-128931000D01*
X57481318Y-128913188D01*
X57713363Y-128842798D01*
X57927216Y-128728491D01*
X58114660Y-128574660D01*
X58268491Y-128387216D01*
X58382798Y-128173363D01*
X58453188Y-127941318D01*
X58476956Y-127700000D01*
X58453188Y-127458682D01*
X58382798Y-127226637D01*
X58268491Y-127012784D01*
X58114660Y-126825340D01*
X57927216Y-126671509D01*
X57713363Y-126557202D01*
X57481318Y-126486812D01*
X57300472Y-126469000D01*
X57179528Y-126469000D01*
X56998682Y-126486812D01*
X56804222Y-126545801D01*
X52007989Y-121749569D01*
X52007989Y-118636411D01*
X59272000Y-125900423D01*
X59272000Y-126575716D01*
X59092784Y-126671509D01*
X58905340Y-126825340D01*
X58751509Y-127012784D01*
X58637202Y-127226637D01*
X58566812Y-127458682D01*
X58543044Y-127700000D01*
X58566812Y-127941318D01*
X58637202Y-128173363D01*
X58751509Y-128387216D01*
X58905340Y-128574660D01*
X59092784Y-128728491D01*
X59306637Y-128842798D01*
X59538682Y-128913188D01*
X59719528Y-128931000D01*
X59840472Y-128931000D01*
X60021318Y-128913188D01*
X60253363Y-128842798D01*
X60467216Y-128728491D01*
X60654660Y-128574660D01*
X60808491Y-128387216D01*
X60921017Y-128176695D01*
X60975843Y-128331252D01*
X61124822Y-128581355D01*
X61319731Y-128797588D01*
X61553080Y-128971641D01*
X61815901Y-129096825D01*
X61963110Y-129141476D01*
X62193000Y-129020155D01*
X62193000Y-127827000D01*
X62173000Y-127827000D01*
X62173000Y-127573000D01*
X62193000Y-127573000D01*
X62193000Y-127553000D01*
X62447000Y-127553000D01*
X62447000Y-127573000D01*
X62467000Y-127573000D01*
X62467000Y-127827000D01*
X62447000Y-127827000D01*
X62447000Y-129020155D01*
X62676890Y-129141476D01*
X62824099Y-129096825D01*
X63086920Y-128971641D01*
X63320269Y-128797588D01*
X63515178Y-128581355D01*
X63664157Y-128331252D01*
X63718983Y-128176695D01*
X63831509Y-128387216D01*
X63985340Y-128574660D01*
X64172784Y-128728491D01*
X64386637Y-128842798D01*
X64618682Y-128913188D01*
X64799528Y-128931000D01*
X64920472Y-128931000D01*
X65101318Y-128913188D01*
X65333363Y-128842798D01*
X65547216Y-128728491D01*
X65734660Y-128574660D01*
X65888491Y-128387216D01*
X66002798Y-128173363D01*
X66073188Y-127941318D01*
X66096956Y-127700000D01*
X66073188Y-127458682D01*
X66002798Y-127226637D01*
X65888491Y-127012784D01*
X65734660Y-126825340D01*
X65547216Y-126671509D01*
X65333363Y-126557202D01*
X65118421Y-126492000D01*
X66417664Y-126492000D01*
X66403492Y-126496299D01*
X66337304Y-126531678D01*
X66279289Y-126579289D01*
X66231678Y-126637304D01*
X66196299Y-126703492D01*
X66174513Y-126775311D01*
X66167157Y-126850000D01*
X66167157Y-128550000D01*
X66174513Y-128624689D01*
X66196299Y-128696508D01*
X66231678Y-128762696D01*
X66279289Y-128820711D01*
X66337304Y-128868322D01*
X66403492Y-128903701D01*
X66475311Y-128925487D01*
X66550000Y-128932843D01*
X68250000Y-128932843D01*
X68324689Y-128925487D01*
X68396508Y-128903701D01*
X68462696Y-128868322D01*
X68520711Y-128820711D01*
X68568322Y-128762696D01*
X68603701Y-128696508D01*
X68625487Y-128624689D01*
X68632843Y-128550000D01*
X68632843Y-126850000D01*
X68625487Y-126775311D01*
X68603701Y-126703492D01*
X68568322Y-126637304D01*
X68520711Y-126579289D01*
X68462696Y-126531678D01*
X68396508Y-126496299D01*
X68324689Y-126474513D01*
X68250000Y-126467157D01*
X67891774Y-126467157D01*
X67871601Y-126400657D01*
X67824429Y-126312405D01*
X67760948Y-126235052D01*
X67741565Y-126219145D01*
X67349420Y-125827000D01*
X93865000Y-125827000D01*
X93865000Y-126577000D01*
X93921193Y-126893532D01*
X94038058Y-127193020D01*
X94211105Y-127463954D01*
X94433683Y-127695922D01*
X94697239Y-127880010D01*
X94991645Y-128009144D01*
X95119566Y-128040124D01*
X95373000Y-127920777D01*
X95373000Y-125827000D01*
X95627000Y-125827000D01*
X95627000Y-127920777D01*
X95880434Y-128040124D01*
X96008355Y-128009144D01*
X96302761Y-127880010D01*
X96566317Y-127695922D01*
X96674013Y-127583682D01*
X98819000Y-127583682D01*
X98819000Y-127816318D01*
X98864386Y-128044485D01*
X98953412Y-128259413D01*
X99082658Y-128452843D01*
X99247157Y-128617342D01*
X99440587Y-128746588D01*
X99655515Y-128835614D01*
X99883682Y-128881000D01*
X100116318Y-128881000D01*
X100344485Y-128835614D01*
X100559413Y-128746588D01*
X100752843Y-128617342D01*
X100917342Y-128452843D01*
X101046588Y-128259413D01*
X101135614Y-128044485D01*
X101181000Y-127816318D01*
X101181000Y-127583682D01*
X101135614Y-127355515D01*
X101046588Y-127140587D01*
X100917342Y-126947157D01*
X100752843Y-126782658D01*
X100559413Y-126653412D01*
X100344485Y-126564386D01*
X100116318Y-126519000D01*
X99883682Y-126519000D01*
X99655515Y-126564386D01*
X99440587Y-126653412D01*
X99247157Y-126782658D01*
X99082658Y-126947157D01*
X98953412Y-127140587D01*
X98864386Y-127355515D01*
X98819000Y-127583682D01*
X96674013Y-127583682D01*
X96788895Y-127463954D01*
X96961942Y-127193020D01*
X97078807Y-126893532D01*
X97135000Y-126577000D01*
X97135000Y-125827000D01*
X95627000Y-125827000D01*
X95373000Y-125827000D01*
X93865000Y-125827000D01*
X67349420Y-125827000D01*
X67164855Y-125642435D01*
X67148948Y-125623052D01*
X67071595Y-125559571D01*
X66983343Y-125512399D01*
X66887585Y-125483351D01*
X66812947Y-125476000D01*
X66812944Y-125476000D01*
X66788000Y-125473543D01*
X66763056Y-125476000D01*
X61932421Y-125476000D01*
X54545999Y-118089579D01*
X54545999Y-118078606D01*
X56339000Y-118078606D01*
X56339000Y-118301394D01*
X56382464Y-118519900D01*
X56467721Y-118725729D01*
X56591495Y-118910970D01*
X56749030Y-119068505D01*
X56934271Y-119192279D01*
X57140100Y-119277536D01*
X57358606Y-119321000D01*
X57581394Y-119321000D01*
X57799900Y-119277536D01*
X58005729Y-119192279D01*
X58190970Y-119068505D01*
X58348505Y-118910970D01*
X58472279Y-118725729D01*
X58557536Y-118519900D01*
X58601000Y-118301394D01*
X58601000Y-118078606D01*
X61219000Y-118078606D01*
X61219000Y-118301394D01*
X61262464Y-118519900D01*
X61347721Y-118725729D01*
X61471495Y-118910970D01*
X61629030Y-119068505D01*
X61814271Y-119192279D01*
X62020100Y-119277536D01*
X62238606Y-119321000D01*
X62461394Y-119321000D01*
X62679900Y-119277536D01*
X62885729Y-119192279D01*
X63070970Y-119068505D01*
X63228505Y-118910970D01*
X63352279Y-118725729D01*
X63437536Y-118519900D01*
X63481000Y-118301394D01*
X63481000Y-118078606D01*
X63437536Y-117860100D01*
X63352279Y-117654271D01*
X63228505Y-117469030D01*
X63070970Y-117311495D01*
X62885729Y-117187721D01*
X62679900Y-117102464D01*
X62461394Y-117059000D01*
X62238606Y-117059000D01*
X62020100Y-117102464D01*
X61814271Y-117187721D01*
X61629030Y-117311495D01*
X61471495Y-117469030D01*
X61347721Y-117654271D01*
X61262464Y-117860100D01*
X61219000Y-118078606D01*
X58601000Y-118078606D01*
X58557536Y-117860100D01*
X58472279Y-117654271D01*
X58348505Y-117469030D01*
X58190970Y-117311495D01*
X58005729Y-117187721D01*
X57799900Y-117102464D01*
X57581394Y-117059000D01*
X57358606Y-117059000D01*
X57140100Y-117102464D01*
X56934271Y-117187721D01*
X56749030Y-117311495D01*
X56591495Y-117469030D01*
X56467721Y-117654271D01*
X56382464Y-117860100D01*
X56339000Y-118078606D01*
X54545999Y-118078606D01*
X54545999Y-97749459D01*
X57110508Y-95184950D01*
X60078000Y-95184950D01*
X60078000Y-95335050D01*
X60107283Y-95482267D01*
X60164724Y-95620942D01*
X60248116Y-95745747D01*
X60354253Y-95851884D01*
X60479058Y-95935276D01*
X60617733Y-95992717D01*
X60764950Y-96022000D01*
X60915050Y-96022000D01*
X61062267Y-95992717D01*
X61200942Y-95935276D01*
X61325747Y-95851884D01*
X61409631Y-95768000D01*
X63025580Y-95768000D01*
X63294580Y-96037000D01*
X62934631Y-96037000D01*
X62850747Y-95953116D01*
X62725942Y-95869724D01*
X62587267Y-95812283D01*
X62440050Y-95783000D01*
X62289950Y-95783000D01*
X62142733Y-95812283D01*
X62004058Y-95869724D01*
X61879253Y-95953116D01*
X61773116Y-96059253D01*
X61689724Y-96184058D01*
X61632283Y-96322733D01*
X61603000Y-96469950D01*
X61603000Y-96620050D01*
X61632283Y-96767267D01*
X61689724Y-96905942D01*
X61773116Y-97030747D01*
X61879253Y-97136884D01*
X62004058Y-97220276D01*
X62142733Y-97277717D01*
X62289950Y-97307000D01*
X62440050Y-97307000D01*
X62587267Y-97277717D01*
X62725942Y-97220276D01*
X62850747Y-97136884D01*
X62934631Y-97053000D01*
X63532580Y-97053000D01*
X64156429Y-97676850D01*
X64156435Y-97676855D01*
X70441000Y-103961420D01*
X70441001Y-114138578D01*
X70242579Y-114337000D01*
X70123950Y-114337000D01*
X69976733Y-114366283D01*
X69838058Y-114423724D01*
X69713253Y-114507116D01*
X69607116Y-114613253D01*
X69523724Y-114738058D01*
X69466283Y-114876733D01*
X69437000Y-115023950D01*
X69437000Y-115174050D01*
X69466283Y-115321267D01*
X69523724Y-115459942D01*
X69607116Y-115584747D01*
X69713253Y-115690884D01*
X69838058Y-115774276D01*
X69976733Y-115831717D01*
X70123950Y-115861000D01*
X70274050Y-115861000D01*
X70421267Y-115831717D01*
X70559942Y-115774276D01*
X70684747Y-115690884D01*
X70790884Y-115584747D01*
X70874276Y-115459942D01*
X70931717Y-115321267D01*
X70961000Y-115174050D01*
X70961000Y-115055421D01*
X71192001Y-114824420D01*
X71192001Y-115889578D01*
X69743580Y-117338000D01*
X69624950Y-117338000D01*
X69477733Y-117367283D01*
X69339058Y-117424724D01*
X69214253Y-117508116D01*
X69108116Y-117614253D01*
X69024724Y-117739058D01*
X68967283Y-117877733D01*
X68938000Y-118024950D01*
X68938000Y-118175050D01*
X68967283Y-118322267D01*
X69024724Y-118460942D01*
X69108116Y-118585747D01*
X69214253Y-118691884D01*
X69339058Y-118775276D01*
X69477733Y-118832717D01*
X69624950Y-118862000D01*
X69775050Y-118862000D01*
X69922267Y-118832717D01*
X70060942Y-118775276D01*
X70185747Y-118691884D01*
X70291884Y-118585747D01*
X70375276Y-118460942D01*
X70432717Y-118322267D01*
X70462000Y-118175050D01*
X70462000Y-118056420D01*
X72041571Y-116476850D01*
X72060948Y-116460948D01*
X72079624Y-116438190D01*
X72124429Y-116383596D01*
X72171600Y-116295344D01*
X72171601Y-116295343D01*
X72200649Y-116199585D01*
X72208000Y-116124947D01*
X72208000Y-116124945D01*
X72210457Y-116100001D01*
X72208000Y-116075057D01*
X72208000Y-103808509D01*
X72210457Y-103783565D01*
X72208000Y-103758619D01*
X72200649Y-103683981D01*
X72171601Y-103588223D01*
X72154194Y-103555657D01*
X72124429Y-103499970D01*
X72076850Y-103441995D01*
X72060948Y-103422618D01*
X72041571Y-103406716D01*
X66663124Y-98028270D01*
X66659601Y-98016657D01*
X66631171Y-97963468D01*
X66612429Y-97928404D01*
X66564850Y-97870429D01*
X66548948Y-97851052D01*
X66529571Y-97835150D01*
X63612855Y-94918435D01*
X63596948Y-94899052D01*
X63519595Y-94835571D01*
X63431343Y-94788399D01*
X63335585Y-94759351D01*
X63260947Y-94752000D01*
X63260944Y-94752000D01*
X63236000Y-94749543D01*
X63211056Y-94752000D01*
X61409631Y-94752000D01*
X61325747Y-94668116D01*
X61200942Y-94584724D01*
X61062267Y-94527283D01*
X60915050Y-94498000D01*
X60764950Y-94498000D01*
X60617733Y-94527283D01*
X60479058Y-94584724D01*
X60354253Y-94668116D01*
X60248116Y-94774253D01*
X60164724Y-94899058D01*
X60107283Y-95037733D01*
X60078000Y-95184950D01*
X57110508Y-95184950D01*
X57807459Y-94488000D01*
X63840369Y-94488000D01*
X63924253Y-94571884D01*
X64049058Y-94655276D01*
X64187733Y-94712717D01*
X64334950Y-94742000D01*
X64485050Y-94742000D01*
X64632267Y-94712717D01*
X64770942Y-94655276D01*
X64895747Y-94571884D01*
X65001884Y-94465747D01*
X65085276Y-94340942D01*
X65142717Y-94202267D01*
X65172000Y-94055050D01*
X65172000Y-93904950D01*
X65142717Y-93757733D01*
X65085276Y-93619058D01*
X65001884Y-93494253D01*
X64895747Y-93388116D01*
X64770942Y-93304724D01*
X64632267Y-93247283D01*
X64485050Y-93218000D01*
X64334950Y-93218000D01*
X64187733Y-93247283D01*
X64049058Y-93304724D01*
X63924253Y-93388116D01*
X63840369Y-93472000D01*
X63365845Y-93472000D01*
X63485747Y-93391884D01*
X63591884Y-93285747D01*
X63675276Y-93160942D01*
X63732717Y-93022267D01*
X63762000Y-92875050D01*
X63762000Y-92724950D01*
X63732717Y-92577733D01*
X63675276Y-92439058D01*
X63591884Y-92314253D01*
X63485747Y-92208116D01*
X63360942Y-92124724D01*
X63222267Y-92067283D01*
X63075050Y-92038000D01*
X62924950Y-92038000D01*
X62777733Y-92067283D01*
X62639058Y-92124724D01*
X62514253Y-92208116D01*
X62430369Y-92292000D01*
X58566591Y-92292000D01*
X59764592Y-91093999D01*
X60039057Y-91093999D01*
X60064001Y-91096456D01*
X60088945Y-91093999D01*
X60088948Y-91093999D01*
X60163586Y-91086648D01*
X60259344Y-91057600D01*
X60347596Y-91010428D01*
X60400514Y-90967000D01*
X60520050Y-90967000D01*
X60667267Y-90937717D01*
X60805942Y-90880276D01*
X60930747Y-90796884D01*
X61036884Y-90690747D01*
X61120276Y-90565942D01*
X61177717Y-90427267D01*
X61207000Y-90280050D01*
X61207000Y-90129950D01*
X61177717Y-89982733D01*
X61120276Y-89844058D01*
X61036884Y-89719253D01*
X60930747Y-89613116D01*
X60805942Y-89529724D01*
X60667267Y-89472283D01*
X60520050Y-89443000D01*
X60369950Y-89443000D01*
X60222733Y-89472283D01*
X60084058Y-89529724D01*
X59959253Y-89613116D01*
X59853116Y-89719253D01*
X59769724Y-89844058D01*
X59712283Y-89982733D01*
X59693334Y-90077999D01*
X59579114Y-90077999D01*
X59554170Y-90075542D01*
X59529226Y-90077999D01*
X59529224Y-90077999D01*
X59454586Y-90085350D01*
X59358828Y-90114398D01*
X59358826Y-90114399D01*
X59270575Y-90161570D01*
X59217656Y-90205000D01*
X59193223Y-90225051D01*
X59177321Y-90244428D01*
X51158424Y-98263326D01*
X51139041Y-98279233D01*
X51075560Y-98356586D01*
X51028388Y-98444839D01*
X50999340Y-98540597D01*
X50994588Y-98588850D01*
X50989532Y-98640181D01*
X50431000Y-98640181D01*
X50431000Y-87224950D01*
X53138000Y-87224950D01*
X53138000Y-87375050D01*
X53167283Y-87522267D01*
X53224724Y-87660942D01*
X53308116Y-87785747D01*
X53414253Y-87891884D01*
X53539058Y-87975276D01*
X53677733Y-88032717D01*
X53824950Y-88062000D01*
X53975050Y-88062000D01*
X54122267Y-88032717D01*
X54260942Y-87975276D01*
X54385747Y-87891884D01*
X54491884Y-87785747D01*
X54575276Y-87660942D01*
X54632717Y-87522267D01*
X54662000Y-87375050D01*
X54662000Y-87256420D01*
X56081421Y-85837000D01*
X56200050Y-85837000D01*
X56347267Y-85807717D01*
X56485942Y-85750276D01*
X56610747Y-85666884D01*
X56716884Y-85560747D01*
X56800276Y-85435942D01*
X56857717Y-85297267D01*
X56887000Y-85150050D01*
X56887000Y-84999950D01*
X56857717Y-84852733D01*
X56800276Y-84714058D01*
X56716884Y-84589253D01*
X56610747Y-84483116D01*
X56485942Y-84399724D01*
X56347267Y-84342283D01*
X56260128Y-84324950D01*
X59338000Y-84324950D01*
X59338000Y-84475050D01*
X59367283Y-84622267D01*
X59424724Y-84760942D01*
X59508116Y-84885747D01*
X59614253Y-84991884D01*
X59739058Y-85075276D01*
X59877733Y-85132717D01*
X60024950Y-85162000D01*
X60175050Y-85162000D01*
X60322267Y-85132717D01*
X60460942Y-85075276D01*
X60521219Y-85035000D01*
X66507634Y-85035000D01*
X66538815Y-85038071D01*
X66569996Y-85035000D01*
X66570007Y-85035000D01*
X66663297Y-85025812D01*
X66782995Y-84989502D01*
X66893309Y-84930537D01*
X66990000Y-84851185D01*
X67009889Y-84826950D01*
X68569408Y-83267433D01*
X69727501Y-84425527D01*
X69727500Y-99416281D01*
X69687224Y-99476558D01*
X69629783Y-99615233D01*
X69600500Y-99762450D01*
X69600500Y-99912550D01*
X69629783Y-100059767D01*
X69687224Y-100198442D01*
X69727500Y-100258719D01*
X69727500Y-100668599D01*
X69724429Y-100699780D01*
X69727500Y-100730961D01*
X69727500Y-100730971D01*
X69736688Y-100824261D01*
X69772998Y-100943959D01*
X69831963Y-101054273D01*
X69911315Y-101150965D01*
X69935550Y-101170854D01*
X73538500Y-104773806D01*
X73538499Y-106642318D01*
X73535428Y-106673499D01*
X73538499Y-106704680D01*
X73538499Y-106704690D01*
X73538500Y-106704700D01*
X73538499Y-119963476D01*
X70006976Y-123495000D01*
X68851219Y-123495000D01*
X68790942Y-123454724D01*
X68652267Y-123397283D01*
X68505050Y-123368000D01*
X68354950Y-123368000D01*
X68207733Y-123397283D01*
X68069058Y-123454724D01*
X67944253Y-123538116D01*
X67838116Y-123644253D01*
X67754724Y-123769058D01*
X67697283Y-123907733D01*
X67668000Y-124054950D01*
X67668000Y-124205050D01*
X67697283Y-124352267D01*
X67754724Y-124490942D01*
X67838116Y-124615747D01*
X67944253Y-124721884D01*
X68069058Y-124805276D01*
X68207733Y-124862717D01*
X68354950Y-124892000D01*
X68505050Y-124892000D01*
X68652267Y-124862717D01*
X68748152Y-124823000D01*
X93865000Y-124823000D01*
X93865000Y-125573000D01*
X95373000Y-125573000D01*
X95373000Y-123479223D01*
X95627000Y-123479223D01*
X95627000Y-125573000D01*
X97135000Y-125573000D01*
X97135000Y-125080434D01*
X97759876Y-125080434D01*
X97790856Y-125208355D01*
X97919990Y-125502761D01*
X98104078Y-125766317D01*
X98336046Y-125988895D01*
X98606980Y-126161942D01*
X98906468Y-126278807D01*
X99223000Y-126335000D01*
X99873000Y-126335000D01*
X99873000Y-124827000D01*
X100127000Y-124827000D01*
X100127000Y-126335000D01*
X100777000Y-126335000D01*
X101093532Y-126278807D01*
X101393020Y-126161942D01*
X101663954Y-125988895D01*
X101832678Y-125827000D01*
X102865000Y-125827000D01*
X102865000Y-126577000D01*
X102921193Y-126893532D01*
X103038058Y-127193020D01*
X103211105Y-127463954D01*
X103433683Y-127695922D01*
X103697239Y-127880010D01*
X103991645Y-128009144D01*
X104119566Y-128040124D01*
X104373000Y-127920777D01*
X104373000Y-125827000D01*
X104627000Y-125827000D01*
X104627000Y-127920777D01*
X104880434Y-128040124D01*
X105008355Y-128009144D01*
X105302761Y-127880010D01*
X105566317Y-127695922D01*
X105788895Y-127463954D01*
X105961942Y-127193020D01*
X106078807Y-126893532D01*
X106135000Y-126577000D01*
X106135000Y-125827000D01*
X104627000Y-125827000D01*
X104373000Y-125827000D01*
X102865000Y-125827000D01*
X101832678Y-125827000D01*
X101895922Y-125766317D01*
X102080010Y-125502761D01*
X102209144Y-125208355D01*
X102240124Y-125080434D01*
X102120777Y-124827000D01*
X100127000Y-124827000D01*
X99873000Y-124827000D01*
X97879223Y-124827000D01*
X97759876Y-125080434D01*
X97135000Y-125080434D01*
X97135000Y-124823000D01*
X102865000Y-124823000D01*
X102865000Y-125573000D01*
X104373000Y-125573000D01*
X104373000Y-123479223D01*
X104627000Y-123479223D01*
X104627000Y-125573000D01*
X106135000Y-125573000D01*
X106135000Y-124823000D01*
X106078807Y-124506468D01*
X105961942Y-124206980D01*
X105788895Y-123936046D01*
X105566317Y-123704078D01*
X105302761Y-123519990D01*
X105008355Y-123390856D01*
X104880434Y-123359876D01*
X104627000Y-123479223D01*
X104373000Y-123479223D01*
X104119566Y-123359876D01*
X103991645Y-123390856D01*
X103697239Y-123519990D01*
X103433683Y-123704078D01*
X103211105Y-123936046D01*
X103038058Y-124206980D01*
X102921193Y-124506468D01*
X102865000Y-124823000D01*
X97135000Y-124823000D01*
X97078807Y-124506468D01*
X97005875Y-124319566D01*
X97759876Y-124319566D01*
X97879223Y-124573000D01*
X99873000Y-124573000D01*
X99873000Y-123065000D01*
X100127000Y-123065000D01*
X100127000Y-124573000D01*
X102120777Y-124573000D01*
X102240124Y-124319566D01*
X102209144Y-124191645D01*
X102080010Y-123897239D01*
X101895922Y-123633683D01*
X101663954Y-123411105D01*
X101393020Y-123238058D01*
X101093532Y-123121193D01*
X100777000Y-123065000D01*
X100127000Y-123065000D01*
X99873000Y-123065000D01*
X99223000Y-123065000D01*
X98906468Y-123121193D01*
X98606980Y-123238058D01*
X98336046Y-123411105D01*
X98104078Y-123633683D01*
X97919990Y-123897239D01*
X97790856Y-124191645D01*
X97759876Y-124319566D01*
X97005875Y-124319566D01*
X96961942Y-124206980D01*
X96788895Y-123936046D01*
X96566317Y-123704078D01*
X96302761Y-123519990D01*
X96008355Y-123390856D01*
X95880434Y-123359876D01*
X95627000Y-123479223D01*
X95373000Y-123479223D01*
X95119566Y-123359876D01*
X94991645Y-123390856D01*
X94697239Y-123519990D01*
X94433683Y-123704078D01*
X94211105Y-123936046D01*
X94038058Y-124206980D01*
X93921193Y-124506468D01*
X93865000Y-124823000D01*
X68748152Y-124823000D01*
X68790942Y-124805276D01*
X68851219Y-124765000D01*
X70238819Y-124765000D01*
X70270000Y-124768071D01*
X70301181Y-124765000D01*
X70301192Y-124765000D01*
X70394482Y-124755812D01*
X70514180Y-124719502D01*
X70624494Y-124660537D01*
X70721185Y-124581185D01*
X70741074Y-124556950D01*
X74600455Y-120697570D01*
X74624684Y-120677686D01*
X74662073Y-120632128D01*
X74704036Y-120580996D01*
X74763001Y-120470681D01*
X74763001Y-120470680D01*
X74799311Y-120350983D01*
X74808499Y-120257693D01*
X74808499Y-120257683D01*
X74811570Y-120226502D01*
X74808499Y-120195321D01*
X74808499Y-118700000D01*
X97612318Y-118700000D01*
X97638982Y-118970723D01*
X97717949Y-119231043D01*
X97846185Y-119470955D01*
X98018761Y-119681239D01*
X98229045Y-119853815D01*
X98468957Y-119982051D01*
X98729277Y-120061018D01*
X98932157Y-120081000D01*
X101067843Y-120081000D01*
X101270723Y-120061018D01*
X101531043Y-119982051D01*
X101770955Y-119853815D01*
X101981239Y-119681239D01*
X102153815Y-119470955D01*
X102282051Y-119231043D01*
X102361018Y-118970723D01*
X102387682Y-118700000D01*
X102361018Y-118429277D01*
X102282051Y-118168957D01*
X102153815Y-117929045D01*
X101981239Y-117718761D01*
X101770955Y-117546185D01*
X101531043Y-117417949D01*
X101270723Y-117338982D01*
X101067843Y-117319000D01*
X98932157Y-117319000D01*
X98729277Y-117338982D01*
X98468957Y-117417949D01*
X98229045Y-117546185D01*
X98018761Y-117718761D01*
X97846185Y-117929045D01*
X97717949Y-118168957D01*
X97638982Y-118429277D01*
X97612318Y-118700000D01*
X74808499Y-118700000D01*
X74808499Y-107135000D01*
X88078781Y-107135000D01*
X88139058Y-107175276D01*
X88277733Y-107232717D01*
X88424950Y-107262000D01*
X88575050Y-107262000D01*
X88722267Y-107232717D01*
X88860942Y-107175276D01*
X88985747Y-107091884D01*
X89091884Y-106985747D01*
X89175276Y-106860942D01*
X89232717Y-106722267D01*
X89262000Y-106575050D01*
X89262000Y-106424950D01*
X89232717Y-106277733D01*
X89175276Y-106139058D01*
X89091884Y-106014253D01*
X88985747Y-105908116D01*
X88860942Y-105824724D01*
X88722267Y-105767283D01*
X88575050Y-105738000D01*
X88424950Y-105738000D01*
X88277733Y-105767283D01*
X88139058Y-105824724D01*
X88078781Y-105865000D01*
X74808499Y-105865000D01*
X74808499Y-104541959D01*
X74811570Y-104510778D01*
X74808499Y-104479597D01*
X74808499Y-104479587D01*
X74799311Y-104386297D01*
X74763001Y-104266599D01*
X74714269Y-104175429D01*
X74704036Y-104156284D01*
X74644567Y-104083821D01*
X74644564Y-104083818D01*
X74624684Y-104059594D01*
X74600460Y-104039714D01*
X70997500Y-100436756D01*
X70997500Y-100258719D01*
X71037776Y-100198442D01*
X71095217Y-100059767D01*
X71124500Y-99912550D01*
X71124500Y-99762450D01*
X71095217Y-99615233D01*
X71037776Y-99476558D01*
X70997500Y-99416281D01*
X70997500Y-84193680D01*
X71000571Y-84162499D01*
X70997500Y-84131318D01*
X70997500Y-84131308D01*
X70988312Y-84038018D01*
X70952002Y-83918320D01*
X70902094Y-83824950D01*
X70893037Y-83808005D01*
X70833568Y-83735542D01*
X70833565Y-83735539D01*
X70813685Y-83711315D01*
X70789460Y-83691434D01*
X69046860Y-81948836D01*
X69032717Y-81877733D01*
X68975276Y-81739058D01*
X68891884Y-81614253D01*
X68785747Y-81508116D01*
X68660942Y-81424724D01*
X68522267Y-81367283D01*
X68375050Y-81338000D01*
X68224950Y-81338000D01*
X68077733Y-81367283D01*
X67939058Y-81424724D01*
X67814253Y-81508116D01*
X67708116Y-81614253D01*
X67624724Y-81739058D01*
X67567283Y-81877733D01*
X67538000Y-82024950D01*
X67538000Y-82175050D01*
X67567283Y-82322267D01*
X67611580Y-82429209D01*
X66275791Y-83765000D01*
X60521219Y-83765000D01*
X60460942Y-83724724D01*
X60322267Y-83667283D01*
X60175050Y-83638000D01*
X60024950Y-83638000D01*
X59877733Y-83667283D01*
X59739058Y-83724724D01*
X59614253Y-83808116D01*
X59508116Y-83914253D01*
X59424724Y-84039058D01*
X59367283Y-84177733D01*
X59338000Y-84324950D01*
X56260128Y-84324950D01*
X56200050Y-84313000D01*
X56049950Y-84313000D01*
X55902733Y-84342283D01*
X55764058Y-84399724D01*
X55639253Y-84483116D01*
X55533116Y-84589253D01*
X55449724Y-84714058D01*
X55392283Y-84852733D01*
X55363000Y-84999950D01*
X55363000Y-85118579D01*
X53943580Y-86538000D01*
X53824950Y-86538000D01*
X53677733Y-86567283D01*
X53539058Y-86624724D01*
X53414253Y-86708116D01*
X53308116Y-86814253D01*
X53224724Y-86939058D01*
X53167283Y-87077733D01*
X53138000Y-87224950D01*
X50431000Y-87224950D01*
X50431000Y-74308390D01*
X59524560Y-74308390D01*
X59524560Y-74458490D01*
X59553843Y-74605707D01*
X59611284Y-74744382D01*
X59694676Y-74869187D01*
X59800813Y-74975324D01*
X59925618Y-75058716D01*
X60064293Y-75116157D01*
X60211510Y-75145440D01*
X60361610Y-75145440D01*
X60508827Y-75116157D01*
X60647502Y-75058716D01*
X60707779Y-75018440D01*
X68042414Y-75018440D01*
X72732973Y-79709000D01*
X72732972Y-100910809D01*
X72692696Y-100971086D01*
X72635255Y-101109761D01*
X72605972Y-101256978D01*
X72605972Y-101407078D01*
X72635255Y-101554295D01*
X72692696Y-101692970D01*
X72776088Y-101817775D01*
X72882225Y-101923912D01*
X73007030Y-102007304D01*
X73145705Y-102064745D01*
X73292922Y-102094028D01*
X73443022Y-102094028D01*
X73590239Y-102064745D01*
X73728914Y-102007304D01*
X73853719Y-101923912D01*
X73959856Y-101817775D01*
X74043248Y-101692970D01*
X74100689Y-101554295D01*
X74129972Y-101407078D01*
X74129972Y-101256978D01*
X74100689Y-101109761D01*
X74043248Y-100971086D01*
X74002972Y-100910809D01*
X74002972Y-90424950D01*
X83438000Y-90424950D01*
X83438000Y-90575050D01*
X83467283Y-90722267D01*
X83524724Y-90860942D01*
X83565000Y-90921219D01*
X83565000Y-91007634D01*
X83561929Y-91038815D01*
X83565000Y-91069996D01*
X83565000Y-91070007D01*
X83574188Y-91163297D01*
X83610498Y-91282995D01*
X83669463Y-91393309D01*
X83748816Y-91490000D01*
X83773046Y-91509885D01*
X84865000Y-92601841D01*
X84865000Y-92936975D01*
X84048836Y-93753140D01*
X83977733Y-93767283D01*
X83839058Y-93824724D01*
X83714253Y-93908116D01*
X83608116Y-94014253D01*
X83524724Y-94139058D01*
X83467283Y-94277733D01*
X83438000Y-94424950D01*
X83438000Y-94575050D01*
X83467283Y-94722267D01*
X83524724Y-94860942D01*
X83608116Y-94985747D01*
X83714253Y-95091884D01*
X83839058Y-95175276D01*
X83977733Y-95232717D01*
X84124950Y-95262000D01*
X84275050Y-95262000D01*
X84422267Y-95232717D01*
X84560942Y-95175276D01*
X84685747Y-95091884D01*
X84791884Y-94985747D01*
X84875276Y-94860942D01*
X84932717Y-94722267D01*
X84946860Y-94651164D01*
X85963025Y-93635000D01*
X105328781Y-93635000D01*
X105389058Y-93675276D01*
X105527733Y-93732717D01*
X105674950Y-93762000D01*
X105825050Y-93762000D01*
X105972267Y-93732717D01*
X106110942Y-93675276D01*
X106235747Y-93591884D01*
X106341884Y-93485747D01*
X106425276Y-93360942D01*
X106482717Y-93222267D01*
X106512000Y-93075050D01*
X106512000Y-92924950D01*
X106482717Y-92777733D01*
X106425276Y-92639058D01*
X106341884Y-92514253D01*
X106235747Y-92408116D01*
X106110942Y-92324724D01*
X105972267Y-92267283D01*
X105825050Y-92238000D01*
X105674950Y-92238000D01*
X105527733Y-92267283D01*
X105389058Y-92324724D01*
X105328781Y-92365000D01*
X86135493Y-92365000D01*
X86138072Y-92338815D01*
X86133219Y-92289543D01*
X86125812Y-92214333D01*
X86089502Y-92094635D01*
X86074882Y-92067283D01*
X86030538Y-91984321D01*
X85971069Y-91911858D01*
X85971065Y-91911854D01*
X85951185Y-91887630D01*
X85926961Y-91867751D01*
X84888420Y-90829210D01*
X84932717Y-90722267D01*
X84962000Y-90575050D01*
X84962000Y-90424950D01*
X84932717Y-90277733D01*
X84875276Y-90139058D01*
X84791884Y-90014253D01*
X84685747Y-89908116D01*
X84560942Y-89824724D01*
X84422267Y-89767283D01*
X84275050Y-89738000D01*
X84124950Y-89738000D01*
X83977733Y-89767283D01*
X83839058Y-89824724D01*
X83714253Y-89908116D01*
X83608116Y-90014253D01*
X83524724Y-90139058D01*
X83467283Y-90277733D01*
X83438000Y-90424950D01*
X74002972Y-90424950D01*
X74002972Y-81824950D01*
X81738000Y-81824950D01*
X81738000Y-81975050D01*
X81767283Y-82122267D01*
X81824724Y-82260942D01*
X81865000Y-82321219D01*
X81865001Y-87178779D01*
X81824724Y-87239058D01*
X81767283Y-87377733D01*
X81738000Y-87524950D01*
X81738000Y-87675050D01*
X81767283Y-87822267D01*
X81824724Y-87960942D01*
X81908116Y-88085747D01*
X82014253Y-88191884D01*
X82139058Y-88275276D01*
X82277733Y-88332717D01*
X82424950Y-88362000D01*
X82575050Y-88362000D01*
X82722267Y-88332717D01*
X82860942Y-88275276D01*
X82985747Y-88191884D01*
X83091884Y-88085747D01*
X83175276Y-87960942D01*
X83232717Y-87822267D01*
X83262000Y-87675050D01*
X83262000Y-87524950D01*
X83232717Y-87377733D01*
X83175276Y-87239058D01*
X83135000Y-87178781D01*
X83135000Y-82321219D01*
X83175276Y-82260942D01*
X83232717Y-82122267D01*
X83262000Y-81975050D01*
X83262000Y-81824950D01*
X83232717Y-81677733D01*
X83175276Y-81539058D01*
X83091884Y-81414253D01*
X82985747Y-81308116D01*
X82860942Y-81224724D01*
X82722267Y-81167283D01*
X82575050Y-81138000D01*
X82424950Y-81138000D01*
X82277733Y-81167283D01*
X82139058Y-81224724D01*
X82014253Y-81308116D01*
X81908116Y-81414253D01*
X81824724Y-81539058D01*
X81767283Y-81677733D01*
X81738000Y-81824950D01*
X74002972Y-81824950D01*
X74002972Y-80080974D01*
X74609030Y-80080974D01*
X74640211Y-80084045D01*
X74671392Y-80080974D01*
X74671403Y-80080974D01*
X74764693Y-80071786D01*
X74884391Y-80035476D01*
X74994705Y-79976511D01*
X75091396Y-79897159D01*
X75111285Y-79872924D01*
X77333291Y-77650920D01*
X77440233Y-77695217D01*
X77511336Y-77709360D01*
X77566426Y-77764450D01*
X77586315Y-77788685D01*
X77683006Y-77868037D01*
X77793320Y-77927002D01*
X77913018Y-77963312D01*
X78006308Y-77972500D01*
X78006318Y-77972500D01*
X78037499Y-77975571D01*
X78068680Y-77972500D01*
X82141281Y-77972500D01*
X82201558Y-78012776D01*
X82340233Y-78070217D01*
X82487450Y-78099500D01*
X82637550Y-78099500D01*
X82784767Y-78070217D01*
X82923442Y-78012776D01*
X83048247Y-77929384D01*
X83154384Y-77823247D01*
X83237776Y-77698442D01*
X83295217Y-77559767D01*
X83324500Y-77412550D01*
X83324500Y-77262450D01*
X83295217Y-77115233D01*
X83237776Y-76976558D01*
X83154384Y-76851753D01*
X83048247Y-76745616D01*
X82923442Y-76662224D01*
X82784767Y-76604783D01*
X82637550Y-76575500D01*
X82487450Y-76575500D01*
X82340233Y-76604783D01*
X82201558Y-76662224D01*
X82141281Y-76702500D01*
X78379587Y-76702500D01*
X78337776Y-76601558D01*
X78254384Y-76476753D01*
X78148247Y-76370616D01*
X78023442Y-76287224D01*
X77884767Y-76229783D01*
X77737550Y-76200500D01*
X77587450Y-76200500D01*
X77440233Y-76229783D01*
X77301558Y-76287224D01*
X77241281Y-76327500D01*
X77154874Y-76327500D01*
X77123685Y-76324428D01*
X77092496Y-76327500D01*
X77092493Y-76327500D01*
X76999203Y-76336688D01*
X76879505Y-76372998D01*
X76769191Y-76431962D01*
X76696728Y-76491431D01*
X76696724Y-76491435D01*
X76672500Y-76511315D01*
X76652620Y-76535540D01*
X74377187Y-78810974D01*
X73630997Y-78810974D01*
X68776512Y-73956490D01*
X68756623Y-73932255D01*
X68659932Y-73852903D01*
X68549618Y-73793938D01*
X68429920Y-73757628D01*
X68336630Y-73748440D01*
X68336619Y-73748440D01*
X68305438Y-73745369D01*
X68274257Y-73748440D01*
X60707779Y-73748440D01*
X60647502Y-73708164D01*
X60508827Y-73650723D01*
X60361610Y-73621440D01*
X60211510Y-73621440D01*
X60064293Y-73650723D01*
X59925618Y-73708164D01*
X59800813Y-73791556D01*
X59694676Y-73897693D01*
X59611284Y-74022498D01*
X59553843Y-74161173D01*
X59524560Y-74308390D01*
X50431000Y-74308390D01*
X50431000Y-71024950D01*
X59038000Y-71024950D01*
X59038000Y-71175050D01*
X59067283Y-71322267D01*
X59124724Y-71460942D01*
X59208116Y-71585747D01*
X59314253Y-71691884D01*
X59439058Y-71775276D01*
X59577733Y-71832717D01*
X59724950Y-71862000D01*
X59875050Y-71862000D01*
X60022267Y-71832717D01*
X60160942Y-71775276D01*
X60221219Y-71735000D01*
X68236976Y-71735000D01*
X72328930Y-75826955D01*
X72348815Y-75851185D01*
X72373043Y-75871068D01*
X72445505Y-75930537D01*
X72483931Y-75951076D01*
X72555820Y-75989502D01*
X72675518Y-76025812D01*
X72768808Y-76035000D01*
X72768818Y-76035000D01*
X72799999Y-76038071D01*
X72831180Y-76035000D01*
X82775791Y-76035000D01*
X85161580Y-78420790D01*
X85117283Y-78527733D01*
X85088000Y-78674950D01*
X85088000Y-78825050D01*
X85117283Y-78972267D01*
X85174724Y-79110942D01*
X85258116Y-79235747D01*
X85364253Y-79341884D01*
X85489058Y-79425276D01*
X85627733Y-79482717D01*
X85774950Y-79512000D01*
X85925050Y-79512000D01*
X86072267Y-79482717D01*
X86210942Y-79425276D01*
X86335747Y-79341884D01*
X86441884Y-79235747D01*
X86525276Y-79110942D01*
X86582717Y-78972267D01*
X86612000Y-78825050D01*
X86612000Y-78674950D01*
X86582717Y-78527733D01*
X86525276Y-78389058D01*
X86485000Y-78328781D01*
X86485000Y-78242366D01*
X86488071Y-78211185D01*
X86485000Y-78180004D01*
X86485000Y-78179993D01*
X86475812Y-78086703D01*
X86439502Y-77967005D01*
X86437528Y-77963312D01*
X86380538Y-77856691D01*
X86321068Y-77784228D01*
X86301185Y-77760000D01*
X86276955Y-77740115D01*
X83509889Y-74973050D01*
X83490000Y-74948815D01*
X83393309Y-74869463D01*
X83282995Y-74810498D01*
X83163297Y-74774188D01*
X83070007Y-74765000D01*
X83069996Y-74765000D01*
X83038815Y-74761929D01*
X83007634Y-74765000D01*
X73063025Y-74765000D01*
X68971074Y-70673050D01*
X68951185Y-70648815D01*
X68854494Y-70569463D01*
X68744180Y-70510498D01*
X68624482Y-70474188D01*
X68531192Y-70465000D01*
X68531181Y-70465000D01*
X68500000Y-70461929D01*
X68468819Y-70465000D01*
X60221219Y-70465000D01*
X60160942Y-70424724D01*
X60022267Y-70367283D01*
X59875050Y-70338000D01*
X59724950Y-70338000D01*
X59577733Y-70367283D01*
X59439058Y-70424724D01*
X59314253Y-70508116D01*
X59208116Y-70614253D01*
X59124724Y-70739058D01*
X59067283Y-70877733D01*
X59038000Y-71024950D01*
X50431000Y-71024950D01*
X50431000Y-67787450D01*
X67400500Y-67787450D01*
X67400500Y-67937550D01*
X67429783Y-68084767D01*
X67487224Y-68223442D01*
X67570616Y-68348247D01*
X67676753Y-68454384D01*
X67801558Y-68537776D01*
X67940233Y-68595217D01*
X68087450Y-68624500D01*
X68237550Y-68624500D01*
X68384767Y-68595217D01*
X68523442Y-68537776D01*
X68583719Y-68497500D01*
X68899476Y-68497500D01*
X74553140Y-74151166D01*
X74567283Y-74222267D01*
X74624724Y-74360942D01*
X74708116Y-74485747D01*
X74814253Y-74591884D01*
X74939058Y-74675276D01*
X75077733Y-74732717D01*
X75224950Y-74762000D01*
X75375050Y-74762000D01*
X75522267Y-74732717D01*
X75660942Y-74675276D01*
X75785747Y-74591884D01*
X75891884Y-74485747D01*
X75975276Y-74360942D01*
X76032717Y-74222267D01*
X76062000Y-74075050D01*
X76062000Y-73924950D01*
X76032717Y-73777733D01*
X75975276Y-73639058D01*
X75891884Y-73514253D01*
X75785747Y-73408116D01*
X75660942Y-73324724D01*
X75522267Y-73267283D01*
X75451166Y-73253140D01*
X71785475Y-69587450D01*
X78538000Y-69587450D01*
X78538000Y-69737550D01*
X78567283Y-69884767D01*
X78624724Y-70023442D01*
X78708116Y-70148247D01*
X78814253Y-70254384D01*
X78939058Y-70337776D01*
X79077733Y-70395217D01*
X79148836Y-70409360D01*
X81066430Y-72326955D01*
X81086315Y-72351185D01*
X81110543Y-72371068D01*
X81183006Y-72430538D01*
X81293320Y-72489502D01*
X81413018Y-72525812D01*
X81506308Y-72535000D01*
X81506311Y-72535000D01*
X81537500Y-72538072D01*
X81568689Y-72535000D01*
X85778781Y-72535000D01*
X85839058Y-72575276D01*
X85977733Y-72632717D01*
X86124950Y-72662000D01*
X86275050Y-72662000D01*
X86422267Y-72632717D01*
X86560942Y-72575276D01*
X86621219Y-72535000D01*
X87206319Y-72535000D01*
X87237500Y-72538071D01*
X87268681Y-72535000D01*
X87268692Y-72535000D01*
X87361982Y-72525812D01*
X87481680Y-72489502D01*
X87591994Y-72430537D01*
X87688685Y-72351185D01*
X87708574Y-72326950D01*
X89437500Y-70598025D01*
X89855431Y-71015956D01*
X89875316Y-71040186D01*
X89899544Y-71060069D01*
X89972006Y-71119538D01*
X90006546Y-71138000D01*
X90082321Y-71178503D01*
X90202019Y-71214813D01*
X90295309Y-71224001D01*
X90295319Y-71224001D01*
X90326500Y-71227072D01*
X90357681Y-71224001D01*
X96917318Y-71224001D01*
X96948499Y-71227072D01*
X96979680Y-71224001D01*
X96979691Y-71224001D01*
X97072981Y-71214813D01*
X97192679Y-71178503D01*
X97202500Y-71173253D01*
X97202501Y-73399474D01*
X96248836Y-74353140D01*
X96177733Y-74367283D01*
X96039058Y-74424724D01*
X95914253Y-74508116D01*
X95808116Y-74614253D01*
X95724724Y-74739058D01*
X95667283Y-74877733D01*
X95638000Y-75024950D01*
X95638000Y-75175050D01*
X95667283Y-75322267D01*
X95724724Y-75460942D01*
X95808116Y-75585747D01*
X95914253Y-75691884D01*
X96039058Y-75775276D01*
X96177733Y-75832717D01*
X96324950Y-75862000D01*
X96475050Y-75862000D01*
X96622267Y-75832717D01*
X96760942Y-75775276D01*
X96885747Y-75691884D01*
X96991884Y-75585747D01*
X97075276Y-75460942D01*
X97132717Y-75322267D01*
X97146860Y-75251164D01*
X98264455Y-74133570D01*
X98288685Y-74113685D01*
X98368037Y-74016994D01*
X98427002Y-73906680D01*
X98463312Y-73786982D01*
X98472500Y-73693692D01*
X98472500Y-73693681D01*
X98475571Y-73662500D01*
X98472500Y-73631319D01*
X98472500Y-70121219D01*
X98512776Y-70060942D01*
X98570217Y-69922267D01*
X98599500Y-69775050D01*
X98599500Y-69624950D01*
X98570217Y-69477733D01*
X98512776Y-69339058D01*
X98429384Y-69214253D01*
X98323247Y-69108116D01*
X98198442Y-69024724D01*
X98059767Y-68967283D01*
X97912550Y-68938000D01*
X97762450Y-68938000D01*
X97615233Y-68967283D01*
X97476558Y-69024724D01*
X97351753Y-69108116D01*
X97245616Y-69214253D01*
X97162224Y-69339058D01*
X97104783Y-69477733D01*
X97090640Y-69548835D01*
X96685475Y-69954001D01*
X90589526Y-69954001D01*
X90184360Y-69548836D01*
X90170217Y-69477733D01*
X90112776Y-69339058D01*
X90029384Y-69214253D01*
X89923247Y-69108116D01*
X89798442Y-69024724D01*
X89659767Y-68967283D01*
X89512550Y-68938000D01*
X89362450Y-68938000D01*
X89215233Y-68967283D01*
X89076558Y-69024724D01*
X88951753Y-69108116D01*
X88845616Y-69214253D01*
X88762224Y-69339058D01*
X88704783Y-69477733D01*
X88690640Y-69548835D01*
X86974476Y-71265000D01*
X86621219Y-71265000D01*
X86560942Y-71224724D01*
X86422267Y-71167283D01*
X86275050Y-71138000D01*
X86124950Y-71138000D01*
X85977733Y-71167283D01*
X85839058Y-71224724D01*
X85778781Y-71265000D01*
X81800525Y-71265000D01*
X80046860Y-69511336D01*
X80032717Y-69440233D01*
X79975276Y-69301558D01*
X79891884Y-69176753D01*
X79785747Y-69070616D01*
X79660942Y-68987224D01*
X79522267Y-68929783D01*
X79375050Y-68900500D01*
X79224950Y-68900500D01*
X79077733Y-68929783D01*
X78939058Y-68987224D01*
X78814253Y-69070616D01*
X78708116Y-69176753D01*
X78624724Y-69301558D01*
X78567283Y-69440233D01*
X78538000Y-69587450D01*
X71785475Y-69587450D01*
X69633574Y-67435550D01*
X69613685Y-67411315D01*
X69516994Y-67331963D01*
X69406680Y-67272998D01*
X69286982Y-67236688D01*
X69193692Y-67227500D01*
X69193681Y-67227500D01*
X69162500Y-67224429D01*
X69131319Y-67227500D01*
X68583719Y-67227500D01*
X68523442Y-67187224D01*
X68384767Y-67129783D01*
X68237550Y-67100500D01*
X68087450Y-67100500D01*
X67940233Y-67129783D01*
X67801558Y-67187224D01*
X67676753Y-67270616D01*
X67570616Y-67376753D01*
X67487224Y-67501558D01*
X67429783Y-67640233D01*
X67400500Y-67787450D01*
X50431000Y-67787450D01*
X50431000Y-64249400D01*
X53832090Y-64249400D01*
X53862762Y-64350528D01*
X53970527Y-64583629D01*
X54121697Y-64791227D01*
X54310463Y-64965344D01*
X54529570Y-65099289D01*
X54770599Y-65187915D01*
X54973000Y-65065085D01*
X54973000Y-64047000D01*
X55227000Y-64047000D01*
X55227000Y-65065085D01*
X55429401Y-65187915D01*
X55670430Y-65099289D01*
X55889537Y-64965344D01*
X56078303Y-64791227D01*
X56229473Y-64583629D01*
X56337238Y-64350528D01*
X56367910Y-64249400D01*
X59032090Y-64249400D01*
X59062762Y-64350528D01*
X59170527Y-64583629D01*
X59321697Y-64791227D01*
X59510463Y-64965344D01*
X59729570Y-65099289D01*
X59970599Y-65187915D01*
X60173000Y-65065085D01*
X60173000Y-64047000D01*
X60427000Y-64047000D01*
X60427000Y-65065085D01*
X60629401Y-65187915D01*
X60870430Y-65099289D01*
X61089537Y-64965344D01*
X61278303Y-64791227D01*
X61429473Y-64583629D01*
X61537238Y-64350528D01*
X61567910Y-64249400D01*
X64232090Y-64249400D01*
X64262762Y-64350528D01*
X64370527Y-64583629D01*
X64521697Y-64791227D01*
X64710463Y-64965344D01*
X64929570Y-65099289D01*
X65170599Y-65187915D01*
X65373000Y-65065085D01*
X65373000Y-64047000D01*
X65627000Y-64047000D01*
X65627000Y-65065085D01*
X65829401Y-65187915D01*
X66070430Y-65099289D01*
X66289537Y-64965344D01*
X66478303Y-64791227D01*
X66629473Y-64583629D01*
X66737238Y-64350528D01*
X66767910Y-64249400D01*
X69332090Y-64249400D01*
X69362762Y-64350528D01*
X69470527Y-64583629D01*
X69621697Y-64791227D01*
X69810463Y-64965344D01*
X70029570Y-65099289D01*
X70270599Y-65187915D01*
X70473000Y-65065085D01*
X70473000Y-64047000D01*
X70727000Y-64047000D01*
X70727000Y-65065085D01*
X70929401Y-65187915D01*
X71170430Y-65099289D01*
X71389537Y-64965344D01*
X71578303Y-64791227D01*
X71729473Y-64583629D01*
X71820168Y-64387450D01*
X73138000Y-64387450D01*
X73138000Y-64537550D01*
X73167283Y-64684767D01*
X73224724Y-64823442D01*
X73308116Y-64948247D01*
X73414253Y-65054384D01*
X73539058Y-65137776D01*
X73677733Y-65195217D01*
X73824950Y-65224500D01*
X73975050Y-65224500D01*
X74122267Y-65195217D01*
X74260942Y-65137776D01*
X74321219Y-65097500D01*
X81412582Y-65097500D01*
X81443763Y-65100571D01*
X81474944Y-65097500D01*
X81474955Y-65097500D01*
X81568245Y-65088312D01*
X81687943Y-65052002D01*
X81798257Y-64993037D01*
X81894948Y-64913685D01*
X81914837Y-64889450D01*
X82851166Y-63953123D01*
X82922267Y-63938980D01*
X83060942Y-63881539D01*
X83121219Y-63841263D01*
X90885044Y-63841263D01*
X90945321Y-63881539D01*
X91083996Y-63938980D01*
X91231213Y-63968263D01*
X91381313Y-63968263D01*
X91528530Y-63938980D01*
X91667205Y-63881539D01*
X91727482Y-63841263D01*
X97693239Y-63841263D01*
X104865001Y-71013026D01*
X104865000Y-81736975D01*
X102940090Y-83661886D01*
X102915860Y-83681771D01*
X102871731Y-83735542D01*
X102836507Y-83778463D01*
X102777542Y-83888777D01*
X102759330Y-83948815D01*
X102741233Y-84008474D01*
X102738323Y-84038018D01*
X102728973Y-84132956D01*
X102732045Y-84164147D01*
X102732044Y-85465000D01*
X100483719Y-85465000D01*
X100423442Y-85424724D01*
X100284767Y-85367283D01*
X100137550Y-85338000D01*
X99987450Y-85338000D01*
X99840233Y-85367283D01*
X99701558Y-85424724D01*
X99641281Y-85465000D01*
X90925525Y-85465000D01*
X89209360Y-83748836D01*
X89195217Y-83677733D01*
X89137776Y-83539058D01*
X89054384Y-83414253D01*
X88948247Y-83308116D01*
X88823442Y-83224724D01*
X88684767Y-83167283D01*
X88613665Y-83153140D01*
X87485475Y-82024950D01*
X100538000Y-82024950D01*
X100538000Y-82175050D01*
X100567283Y-82322267D01*
X100624724Y-82460942D01*
X100708116Y-82585747D01*
X100814253Y-82691884D01*
X100939058Y-82775276D01*
X101077733Y-82832717D01*
X101224950Y-82862000D01*
X101375050Y-82862000D01*
X101522267Y-82832717D01*
X101660942Y-82775276D01*
X101785747Y-82691884D01*
X101891884Y-82585747D01*
X101975276Y-82460942D01*
X102032717Y-82322267D01*
X102046860Y-82251164D01*
X103550303Y-80747722D01*
X103622744Y-80777728D01*
X103769961Y-80807011D01*
X103920061Y-80807011D01*
X104067278Y-80777728D01*
X104205953Y-80720287D01*
X104330758Y-80636895D01*
X104436895Y-80530758D01*
X104520287Y-80405953D01*
X104577728Y-80267278D01*
X104607011Y-80120061D01*
X104607011Y-79969961D01*
X104577728Y-79822744D01*
X104520287Y-79684069D01*
X104436895Y-79559264D01*
X104330758Y-79453127D01*
X104205953Y-79369735D01*
X104067278Y-79312294D01*
X103920061Y-79283011D01*
X103769961Y-79283011D01*
X103622744Y-79312294D01*
X103484069Y-79369735D01*
X103423792Y-79410011D01*
X103386169Y-79410011D01*
X103354988Y-79406940D01*
X103323807Y-79410011D01*
X103323797Y-79410011D01*
X103230507Y-79419199D01*
X103110809Y-79455509D01*
X103038920Y-79493935D01*
X103000494Y-79514474D01*
X102971828Y-79538000D01*
X102903804Y-79593826D01*
X102883919Y-79618056D01*
X101148836Y-81353140D01*
X101077733Y-81367283D01*
X100939058Y-81424724D01*
X100814253Y-81508116D01*
X100708116Y-81614253D01*
X100624724Y-81739058D01*
X100567283Y-81877733D01*
X100538000Y-82024950D01*
X87485475Y-82024950D01*
X85902318Y-80441793D01*
X85333574Y-79873050D01*
X85313685Y-79848815D01*
X85216994Y-79769463D01*
X85106680Y-79710498D01*
X84986982Y-79674188D01*
X84893692Y-79665000D01*
X84893681Y-79665000D01*
X84862500Y-79661929D01*
X84831319Y-79665000D01*
X77921219Y-79665000D01*
X77860942Y-79624724D01*
X77722267Y-79567283D01*
X77575050Y-79538000D01*
X77424950Y-79538000D01*
X77277733Y-79567283D01*
X77139058Y-79624724D01*
X77014253Y-79708116D01*
X76908116Y-79814253D01*
X76824724Y-79939058D01*
X76767283Y-80077733D01*
X76738000Y-80224950D01*
X76738000Y-80375050D01*
X76767283Y-80522267D01*
X76824724Y-80660942D01*
X76908116Y-80785747D01*
X77014253Y-80891884D01*
X77139058Y-80975276D01*
X77277733Y-81032717D01*
X77424950Y-81062000D01*
X77575050Y-81062000D01*
X77722267Y-81032717D01*
X77860942Y-80975276D01*
X77921219Y-80935000D01*
X84599476Y-80935000D01*
X85004293Y-81339818D01*
X87715640Y-84051165D01*
X87729783Y-84122267D01*
X87787224Y-84260942D01*
X87870616Y-84385747D01*
X87976753Y-84491884D01*
X88101558Y-84575276D01*
X88240233Y-84632717D01*
X88311336Y-84646860D01*
X90191430Y-86526955D01*
X90211315Y-86551185D01*
X90235543Y-86571068D01*
X90308006Y-86630538D01*
X90418320Y-86689502D01*
X90538018Y-86725812D01*
X90631308Y-86735000D01*
X90631311Y-86735000D01*
X90662500Y-86738072D01*
X90693689Y-86735000D01*
X99641281Y-86735000D01*
X99701558Y-86775276D01*
X99840233Y-86832717D01*
X99987450Y-86862000D01*
X100137550Y-86862000D01*
X100284767Y-86832717D01*
X100423442Y-86775276D01*
X100483719Y-86735000D01*
X103104020Y-86735000D01*
X107115001Y-90745983D01*
X107115000Y-94486975D01*
X106420215Y-95181761D01*
X105237980Y-95181761D01*
X105177703Y-95141485D01*
X105039028Y-95084044D01*
X104891811Y-95054761D01*
X104741711Y-95054761D01*
X104594494Y-95084044D01*
X104455819Y-95141485D01*
X104331014Y-95224877D01*
X104224877Y-95331014D01*
X104141485Y-95455819D01*
X104084044Y-95594494D01*
X104069901Y-95665596D01*
X103770498Y-95965000D01*
X76121219Y-95965000D01*
X76060942Y-95924724D01*
X75922267Y-95867283D01*
X75775050Y-95838000D01*
X75624950Y-95838000D01*
X75477733Y-95867283D01*
X75339058Y-95924724D01*
X75214253Y-96008116D01*
X75108116Y-96114253D01*
X75024724Y-96239058D01*
X74967283Y-96377733D01*
X74938000Y-96524950D01*
X74938000Y-96675050D01*
X74967283Y-96822267D01*
X75024724Y-96960942D01*
X75108116Y-97085747D01*
X75214253Y-97191884D01*
X75339058Y-97275276D01*
X75477733Y-97332717D01*
X75624950Y-97362000D01*
X75775050Y-97362000D01*
X75922267Y-97332717D01*
X76060942Y-97275276D01*
X76121219Y-97235000D01*
X104002341Y-97235000D01*
X104033522Y-97238071D01*
X104064703Y-97235000D01*
X104064714Y-97235000D01*
X104158004Y-97225812D01*
X104277702Y-97189502D01*
X104388016Y-97130537D01*
X104484707Y-97051185D01*
X104504596Y-97026950D01*
X104967926Y-96563621D01*
X105039028Y-96549478D01*
X105177703Y-96492037D01*
X105237980Y-96451761D01*
X106652058Y-96451761D01*
X106683239Y-96454832D01*
X106714420Y-96451761D01*
X106714431Y-96451761D01*
X106807721Y-96442573D01*
X106927419Y-96406263D01*
X107037733Y-96347298D01*
X107134424Y-96267946D01*
X107154313Y-96243711D01*
X108176956Y-95221069D01*
X108201185Y-95201185D01*
X108236235Y-95158476D01*
X108280538Y-95104494D01*
X108339502Y-94994180D01*
X108352544Y-94951185D01*
X108375812Y-94874482D01*
X108385000Y-94781192D01*
X108385000Y-94781189D01*
X108388072Y-94750000D01*
X108385000Y-94718811D01*
X108385000Y-90514145D01*
X108388072Y-90482956D01*
X108385000Y-90451764D01*
X108375812Y-90358474D01*
X108339502Y-90238776D01*
X108321448Y-90205000D01*
X108280538Y-90128462D01*
X108221069Y-90055999D01*
X108221065Y-90055995D01*
X108201185Y-90031771D01*
X108176961Y-90011891D01*
X104002044Y-85836976D01*
X104002044Y-84395980D01*
X105926956Y-82471069D01*
X105951185Y-82451185D01*
X105988574Y-82405627D01*
X106030537Y-82354495D01*
X106051076Y-82316069D01*
X106089502Y-82244180D01*
X106125812Y-82124482D01*
X106135000Y-82031192D01*
X106135000Y-82031182D01*
X106138071Y-82000001D01*
X106135000Y-81968820D01*
X106135000Y-70781180D01*
X106138071Y-70749999D01*
X106135000Y-70718818D01*
X106135000Y-70718808D01*
X106125812Y-70625518D01*
X106089502Y-70505820D01*
X106030537Y-70395506D01*
X105951185Y-70298815D01*
X105926955Y-70278930D01*
X98427337Y-62779313D01*
X98407448Y-62755078D01*
X98310757Y-62675726D01*
X98200443Y-62616761D01*
X98080745Y-62580451D01*
X97987455Y-62571263D01*
X97987444Y-62571263D01*
X97956263Y-62568192D01*
X97925082Y-62571263D01*
X91727482Y-62571263D01*
X91667205Y-62530987D01*
X91528530Y-62473546D01*
X91381313Y-62444263D01*
X91231213Y-62444263D01*
X91083996Y-62473546D01*
X90945321Y-62530987D01*
X90885044Y-62571263D01*
X83121219Y-62571263D01*
X83060942Y-62530987D01*
X82922267Y-62473546D01*
X82775050Y-62444263D01*
X82624950Y-62444263D01*
X82477733Y-62473546D01*
X82339058Y-62530987D01*
X82214253Y-62614379D01*
X82108116Y-62720516D01*
X82024724Y-62845321D01*
X81967283Y-62983996D01*
X81953140Y-63055097D01*
X81180739Y-63827500D01*
X74321219Y-63827500D01*
X74260942Y-63787224D01*
X74122267Y-63729783D01*
X73975050Y-63700500D01*
X73824950Y-63700500D01*
X73677733Y-63729783D01*
X73539058Y-63787224D01*
X73414253Y-63870616D01*
X73308116Y-63976753D01*
X73224724Y-64101558D01*
X73167283Y-64240233D01*
X73138000Y-64387450D01*
X71820168Y-64387450D01*
X71837238Y-64350528D01*
X71867910Y-64249400D01*
X71744224Y-64047000D01*
X70727000Y-64047000D01*
X70473000Y-64047000D01*
X69455776Y-64047000D01*
X69332090Y-64249400D01*
X66767910Y-64249400D01*
X66644224Y-64047000D01*
X65627000Y-64047000D01*
X65373000Y-64047000D01*
X64355776Y-64047000D01*
X64232090Y-64249400D01*
X61567910Y-64249400D01*
X61444224Y-64047000D01*
X60427000Y-64047000D01*
X60173000Y-64047000D01*
X59155776Y-64047000D01*
X59032090Y-64249400D01*
X56367910Y-64249400D01*
X56244224Y-64047000D01*
X55227000Y-64047000D01*
X54973000Y-64047000D01*
X53955776Y-64047000D01*
X53832090Y-64249400D01*
X50431000Y-64249400D01*
X50431000Y-63590600D01*
X53832090Y-63590600D01*
X53955776Y-63793000D01*
X54973000Y-63793000D01*
X54973000Y-62774915D01*
X55227000Y-62774915D01*
X55227000Y-63793000D01*
X56244224Y-63793000D01*
X56367910Y-63590600D01*
X59032090Y-63590600D01*
X59155776Y-63793000D01*
X60173000Y-63793000D01*
X60173000Y-62774915D01*
X60427000Y-62774915D01*
X60427000Y-63793000D01*
X61444224Y-63793000D01*
X61567910Y-63590600D01*
X64232090Y-63590600D01*
X64355776Y-63793000D01*
X65373000Y-63793000D01*
X65373000Y-62774915D01*
X65627000Y-62774915D01*
X65627000Y-63793000D01*
X66644224Y-63793000D01*
X66767910Y-63590600D01*
X69332090Y-63590600D01*
X69455776Y-63793000D01*
X70473000Y-63793000D01*
X70473000Y-62774915D01*
X70727000Y-62774915D01*
X70727000Y-63793000D01*
X71744224Y-63793000D01*
X71867910Y-63590600D01*
X71837238Y-63489472D01*
X71729473Y-63256371D01*
X71578303Y-63048773D01*
X71389537Y-62874656D01*
X71170430Y-62740711D01*
X70929401Y-62652085D01*
X70727000Y-62774915D01*
X70473000Y-62774915D01*
X70270599Y-62652085D01*
X70029570Y-62740711D01*
X69810463Y-62874656D01*
X69621697Y-63048773D01*
X69470527Y-63256371D01*
X69362762Y-63489472D01*
X69332090Y-63590600D01*
X66767910Y-63590600D01*
X66737238Y-63489472D01*
X66629473Y-63256371D01*
X66478303Y-63048773D01*
X66289537Y-62874656D01*
X66070430Y-62740711D01*
X65829401Y-62652085D01*
X65627000Y-62774915D01*
X65373000Y-62774915D01*
X65170599Y-62652085D01*
X64929570Y-62740711D01*
X64710463Y-62874656D01*
X64521697Y-63048773D01*
X64370527Y-63256371D01*
X64262762Y-63489472D01*
X64232090Y-63590600D01*
X61567910Y-63590600D01*
X61537238Y-63489472D01*
X61429473Y-63256371D01*
X61278303Y-63048773D01*
X61089537Y-62874656D01*
X60870430Y-62740711D01*
X60629401Y-62652085D01*
X60427000Y-62774915D01*
X60173000Y-62774915D01*
X59970599Y-62652085D01*
X59729570Y-62740711D01*
X59510463Y-62874656D01*
X59321697Y-63048773D01*
X59170527Y-63256371D01*
X59062762Y-63489472D01*
X59032090Y-63590600D01*
X56367910Y-63590600D01*
X56337238Y-63489472D01*
X56229473Y-63256371D01*
X56078303Y-63048773D01*
X55889537Y-62874656D01*
X55670430Y-62740711D01*
X55429401Y-62652085D01*
X55227000Y-62774915D01*
X54973000Y-62774915D01*
X54770599Y-62652085D01*
X54529570Y-62740711D01*
X54310463Y-62874656D01*
X54121697Y-63048773D01*
X53970527Y-63256371D01*
X53862762Y-63489472D01*
X53832090Y-63590600D01*
X50431000Y-63590600D01*
X50431000Y-61709400D01*
X53832090Y-61709400D01*
X53862762Y-61810528D01*
X53970527Y-62043629D01*
X54121697Y-62251227D01*
X54310463Y-62425344D01*
X54529570Y-62559289D01*
X54770599Y-62647915D01*
X54973000Y-62525085D01*
X54973000Y-61507000D01*
X55227000Y-61507000D01*
X55227000Y-62525085D01*
X55429401Y-62647915D01*
X55670430Y-62559289D01*
X55889537Y-62425344D01*
X56078303Y-62251227D01*
X56229473Y-62043629D01*
X56337238Y-61810528D01*
X56367910Y-61709400D01*
X59032090Y-61709400D01*
X59062762Y-61810528D01*
X59170527Y-62043629D01*
X59321697Y-62251227D01*
X59510463Y-62425344D01*
X59729570Y-62559289D01*
X59970599Y-62647915D01*
X60173000Y-62525085D01*
X60173000Y-61507000D01*
X60427000Y-61507000D01*
X60427000Y-62525085D01*
X60629401Y-62647915D01*
X60870430Y-62559289D01*
X61089537Y-62425344D01*
X61278303Y-62251227D01*
X61429473Y-62043629D01*
X61537238Y-61810528D01*
X61567910Y-61709400D01*
X64232090Y-61709400D01*
X64262762Y-61810528D01*
X64370527Y-62043629D01*
X64521697Y-62251227D01*
X64710463Y-62425344D01*
X64929570Y-62559289D01*
X65170599Y-62647915D01*
X65373000Y-62525085D01*
X65373000Y-61507000D01*
X65627000Y-61507000D01*
X65627000Y-62525085D01*
X65829401Y-62647915D01*
X66070430Y-62559289D01*
X66289537Y-62425344D01*
X66478303Y-62251227D01*
X66629473Y-62043629D01*
X66737238Y-61810528D01*
X66767910Y-61709400D01*
X69332090Y-61709400D01*
X69362762Y-61810528D01*
X69470527Y-62043629D01*
X69621697Y-62251227D01*
X69810463Y-62425344D01*
X70029570Y-62559289D01*
X70270599Y-62647915D01*
X70473000Y-62525085D01*
X70473000Y-61507000D01*
X70727000Y-61507000D01*
X70727000Y-62525085D01*
X70929401Y-62647915D01*
X71170430Y-62559289D01*
X71389537Y-62425344D01*
X71578303Y-62251227D01*
X71729473Y-62043629D01*
X71837238Y-61810528D01*
X71867910Y-61709400D01*
X71744224Y-61507000D01*
X70727000Y-61507000D01*
X70473000Y-61507000D01*
X69455776Y-61507000D01*
X69332090Y-61709400D01*
X66767910Y-61709400D01*
X66644224Y-61507000D01*
X65627000Y-61507000D01*
X65373000Y-61507000D01*
X64355776Y-61507000D01*
X64232090Y-61709400D01*
X61567910Y-61709400D01*
X61444224Y-61507000D01*
X60427000Y-61507000D01*
X60173000Y-61507000D01*
X59155776Y-61507000D01*
X59032090Y-61709400D01*
X56367910Y-61709400D01*
X56244224Y-61507000D01*
X55227000Y-61507000D01*
X54973000Y-61507000D01*
X53955776Y-61507000D01*
X53832090Y-61709400D01*
X50431000Y-61709400D01*
X50431000Y-61050600D01*
X53832090Y-61050600D01*
X53955776Y-61253000D01*
X54973000Y-61253000D01*
X54973000Y-60234915D01*
X55227000Y-60234915D01*
X55227000Y-61253000D01*
X56244224Y-61253000D01*
X56367910Y-61050600D01*
X59032090Y-61050600D01*
X59155776Y-61253000D01*
X60173000Y-61253000D01*
X60173000Y-60234915D01*
X60427000Y-60234915D01*
X60427000Y-61253000D01*
X61444224Y-61253000D01*
X61567910Y-61050600D01*
X64232090Y-61050600D01*
X64355776Y-61253000D01*
X65373000Y-61253000D01*
X65373000Y-60234915D01*
X65627000Y-60234915D01*
X65627000Y-61253000D01*
X66644224Y-61253000D01*
X66767910Y-61050600D01*
X69332090Y-61050600D01*
X69455776Y-61253000D01*
X70473000Y-61253000D01*
X70473000Y-60234915D01*
X70727000Y-60234915D01*
X70727000Y-61253000D01*
X71744224Y-61253000D01*
X71867910Y-61050600D01*
X71837238Y-60949472D01*
X71729473Y-60716371D01*
X71578303Y-60508773D01*
X71389537Y-60334656D01*
X71170430Y-60200711D01*
X70929401Y-60112085D01*
X70727000Y-60234915D01*
X70473000Y-60234915D01*
X70270599Y-60112085D01*
X70029570Y-60200711D01*
X69810463Y-60334656D01*
X69621697Y-60508773D01*
X69470527Y-60716371D01*
X69362762Y-60949472D01*
X69332090Y-61050600D01*
X66767910Y-61050600D01*
X66737238Y-60949472D01*
X66629473Y-60716371D01*
X66478303Y-60508773D01*
X66289537Y-60334656D01*
X66070430Y-60200711D01*
X65829401Y-60112085D01*
X65627000Y-60234915D01*
X65373000Y-60234915D01*
X65170599Y-60112085D01*
X64929570Y-60200711D01*
X64710463Y-60334656D01*
X64521697Y-60508773D01*
X64370527Y-60716371D01*
X64262762Y-60949472D01*
X64232090Y-61050600D01*
X61567910Y-61050600D01*
X61537238Y-60949472D01*
X61429473Y-60716371D01*
X61278303Y-60508773D01*
X61089537Y-60334656D01*
X60870430Y-60200711D01*
X60629401Y-60112085D01*
X60427000Y-60234915D01*
X60173000Y-60234915D01*
X59970599Y-60112085D01*
X59729570Y-60200711D01*
X59510463Y-60334656D01*
X59321697Y-60508773D01*
X59170527Y-60716371D01*
X59062762Y-60949472D01*
X59032090Y-61050600D01*
X56367910Y-61050600D01*
X56337238Y-60949472D01*
X56229473Y-60716371D01*
X56078303Y-60508773D01*
X55889537Y-60334656D01*
X55670430Y-60200711D01*
X55429401Y-60112085D01*
X55227000Y-60234915D01*
X54973000Y-60234915D01*
X54770599Y-60112085D01*
X54529570Y-60200711D01*
X54310463Y-60334656D01*
X54121697Y-60508773D01*
X53970527Y-60716371D01*
X53862762Y-60949472D01*
X53832090Y-61050600D01*
X50431000Y-61050600D01*
X50431000Y-58840000D01*
X54038891Y-58840000D01*
X54059280Y-59047012D01*
X54119663Y-59246069D01*
X54217720Y-59429521D01*
X54349683Y-59590317D01*
X54510479Y-59722280D01*
X54693931Y-59820337D01*
X54892988Y-59880720D01*
X55048128Y-59896000D01*
X55151872Y-59896000D01*
X55307012Y-59880720D01*
X55506069Y-59820337D01*
X55689521Y-59722280D01*
X55850317Y-59590317D01*
X55982280Y-59429521D01*
X56080337Y-59246069D01*
X56140720Y-59047012D01*
X56161109Y-58840000D01*
X59238891Y-58840000D01*
X59259280Y-59047012D01*
X59319663Y-59246069D01*
X59417720Y-59429521D01*
X59549683Y-59590317D01*
X59710479Y-59722280D01*
X59893931Y-59820337D01*
X60092988Y-59880720D01*
X60248128Y-59896000D01*
X60351872Y-59896000D01*
X60507012Y-59880720D01*
X60706069Y-59820337D01*
X60889521Y-59722280D01*
X61050317Y-59590317D01*
X61182280Y-59429521D01*
X61280337Y-59246069D01*
X61340720Y-59047012D01*
X61361109Y-58840000D01*
X64438891Y-58840000D01*
X64459280Y-59047012D01*
X64519663Y-59246069D01*
X64617720Y-59429521D01*
X64749683Y-59590317D01*
X64910479Y-59722280D01*
X65093931Y-59820337D01*
X65292988Y-59880720D01*
X65448128Y-59896000D01*
X65551872Y-59896000D01*
X65707012Y-59880720D01*
X65906069Y-59820337D01*
X66089521Y-59722280D01*
X66250317Y-59590317D01*
X66382280Y-59429521D01*
X66480337Y-59246069D01*
X66540720Y-59047012D01*
X66561109Y-58840000D01*
X69538891Y-58840000D01*
X69559280Y-59047012D01*
X69619663Y-59246069D01*
X69717720Y-59429521D01*
X69849683Y-59590317D01*
X70010479Y-59722280D01*
X70193931Y-59820337D01*
X70392988Y-59880720D01*
X70548128Y-59896000D01*
X70651872Y-59896000D01*
X70807012Y-59880720D01*
X71006069Y-59820337D01*
X71189521Y-59722280D01*
X71350317Y-59590317D01*
X71482280Y-59429521D01*
X71580337Y-59246069D01*
X71586743Y-59224950D01*
X73338000Y-59224950D01*
X73338000Y-59375050D01*
X73367283Y-59522267D01*
X73424724Y-59660942D01*
X73508116Y-59785747D01*
X73614253Y-59891884D01*
X73739058Y-59975276D01*
X73877733Y-60032717D01*
X74024950Y-60062000D01*
X74144486Y-60062000D01*
X74197403Y-60105428D01*
X74209858Y-60112085D01*
X74285656Y-60152600D01*
X74381414Y-60181648D01*
X74456052Y-60188999D01*
X74456055Y-60188999D01*
X74480999Y-60191456D01*
X74505943Y-60188999D01*
X87954057Y-60188999D01*
X87979001Y-60191456D01*
X88003945Y-60188999D01*
X88003948Y-60188999D01*
X88078586Y-60181648D01*
X88174344Y-60152600D01*
X88262596Y-60105428D01*
X88339949Y-60041947D01*
X88355856Y-60022564D01*
X93864533Y-54513887D01*
X93952988Y-54540720D01*
X94108128Y-54556000D01*
X94211872Y-54556000D01*
X94367012Y-54540720D01*
X94566069Y-54480337D01*
X94749521Y-54382280D01*
X94910317Y-54250317D01*
X95042280Y-54089521D01*
X95140337Y-53906069D01*
X95200720Y-53707012D01*
X95221109Y-53500000D01*
X95200720Y-53292988D01*
X95140337Y-53093931D01*
X95042280Y-52910479D01*
X94972129Y-52825000D01*
X95642157Y-52825000D01*
X95642157Y-54175000D01*
X95649513Y-54249689D01*
X95671299Y-54321508D01*
X95706678Y-54387696D01*
X95754289Y-54445711D01*
X95812304Y-54493322D01*
X95878492Y-54528701D01*
X95950311Y-54550487D01*
X96025000Y-54557843D01*
X97375000Y-54557843D01*
X97449689Y-54550487D01*
X97521508Y-54528701D01*
X97587696Y-54493322D01*
X97645711Y-54445711D01*
X97693322Y-54387696D01*
X97728701Y-54321508D01*
X97750487Y-54249689D01*
X97757843Y-54175000D01*
X97757843Y-52825000D01*
X97750487Y-52750311D01*
X97728701Y-52678492D01*
X97693322Y-52612304D01*
X97645711Y-52554289D01*
X97587696Y-52506678D01*
X97521508Y-52471299D01*
X97449689Y-52449513D01*
X97375000Y-52442157D01*
X96025000Y-52442157D01*
X95950311Y-52449513D01*
X95878492Y-52471299D01*
X95812304Y-52506678D01*
X95754289Y-52554289D01*
X95706678Y-52612304D01*
X95671299Y-52678492D01*
X95649513Y-52750311D01*
X95642157Y-52825000D01*
X94972129Y-52825000D01*
X94910317Y-52749683D01*
X94749521Y-52617720D01*
X94566069Y-52519663D01*
X94367012Y-52459280D01*
X94211872Y-52444000D01*
X94108128Y-52444000D01*
X93952988Y-52459280D01*
X93753931Y-52519663D01*
X93570479Y-52617720D01*
X93409683Y-52749683D01*
X93277720Y-52910479D01*
X93179663Y-53093931D01*
X93119280Y-53292988D01*
X93098891Y-53500000D01*
X93119280Y-53707012D01*
X93146113Y-53795467D01*
X92686264Y-54255316D01*
X92799289Y-54070430D01*
X92887915Y-53829401D01*
X92765085Y-53627000D01*
X91747000Y-53627000D01*
X91747000Y-54644224D01*
X91949400Y-54767910D01*
X92050528Y-54737238D01*
X92283629Y-54629473D01*
X92388399Y-54553181D01*
X87768581Y-59172999D01*
X74851666Y-59172999D01*
X74832717Y-59077733D01*
X74775276Y-58939058D01*
X74691884Y-58814253D01*
X74585747Y-58708116D01*
X74460942Y-58624724D01*
X74322267Y-58567283D01*
X74175050Y-58538000D01*
X74024950Y-58538000D01*
X73877733Y-58567283D01*
X73739058Y-58624724D01*
X73614253Y-58708116D01*
X73508116Y-58814253D01*
X73424724Y-58939058D01*
X73367283Y-59077733D01*
X73338000Y-59224950D01*
X71586743Y-59224950D01*
X71640720Y-59047012D01*
X71661109Y-58840000D01*
X71640720Y-58632988D01*
X71580337Y-58433931D01*
X71482280Y-58250479D01*
X71350317Y-58089683D01*
X71189521Y-57957720D01*
X71006069Y-57859663D01*
X70807012Y-57799280D01*
X70651872Y-57784000D01*
X70548128Y-57784000D01*
X70392988Y-57799280D01*
X70193931Y-57859663D01*
X70010479Y-57957720D01*
X69849683Y-58089683D01*
X69717720Y-58250479D01*
X69619663Y-58433931D01*
X69559280Y-58632988D01*
X69538891Y-58840000D01*
X66561109Y-58840000D01*
X66540720Y-58632988D01*
X66480337Y-58433931D01*
X66382280Y-58250479D01*
X66250317Y-58089683D01*
X66089521Y-57957720D01*
X65906069Y-57859663D01*
X65707012Y-57799280D01*
X65551872Y-57784000D01*
X65448128Y-57784000D01*
X65292988Y-57799280D01*
X65093931Y-57859663D01*
X64910479Y-57957720D01*
X64749683Y-58089683D01*
X64617720Y-58250479D01*
X64519663Y-58433931D01*
X64459280Y-58632988D01*
X64438891Y-58840000D01*
X61361109Y-58840000D01*
X61340720Y-58632988D01*
X61280337Y-58433931D01*
X61182280Y-58250479D01*
X61050317Y-58089683D01*
X60889521Y-57957720D01*
X60706069Y-57859663D01*
X60507012Y-57799280D01*
X60351872Y-57784000D01*
X60248128Y-57784000D01*
X60092988Y-57799280D01*
X59893931Y-57859663D01*
X59710479Y-57957720D01*
X59549683Y-58089683D01*
X59417720Y-58250479D01*
X59319663Y-58433931D01*
X59259280Y-58632988D01*
X59238891Y-58840000D01*
X56161109Y-58840000D01*
X56140720Y-58632988D01*
X56080337Y-58433931D01*
X55982280Y-58250479D01*
X55850317Y-58089683D01*
X55689521Y-57957720D01*
X55506069Y-57859663D01*
X55307012Y-57799280D01*
X55151872Y-57784000D01*
X55048128Y-57784000D01*
X54892988Y-57799280D01*
X54693931Y-57859663D01*
X54510479Y-57957720D01*
X54349683Y-58089683D01*
X54217720Y-58250479D01*
X54119663Y-58433931D01*
X54059280Y-58632988D01*
X54038891Y-58840000D01*
X50431000Y-58840000D01*
X50431000Y-55625000D01*
X54042157Y-55625000D01*
X54042157Y-56975000D01*
X54049513Y-57049689D01*
X54071299Y-57121508D01*
X54106678Y-57187696D01*
X54154289Y-57245711D01*
X54212304Y-57293322D01*
X54278492Y-57328701D01*
X54350311Y-57350487D01*
X54425000Y-57357843D01*
X55775000Y-57357843D01*
X55849689Y-57350487D01*
X55921508Y-57328701D01*
X55987696Y-57293322D01*
X56045711Y-57245711D01*
X56093322Y-57187696D01*
X56128701Y-57121508D01*
X56150487Y-57049689D01*
X56157843Y-56975000D01*
X56157843Y-55625000D01*
X59242157Y-55625000D01*
X59242157Y-56975000D01*
X59249513Y-57049689D01*
X59271299Y-57121508D01*
X59306678Y-57187696D01*
X59354289Y-57245711D01*
X59412304Y-57293322D01*
X59478492Y-57328701D01*
X59550311Y-57350487D01*
X59625000Y-57357843D01*
X60975000Y-57357843D01*
X61049689Y-57350487D01*
X61121508Y-57328701D01*
X61187696Y-57293322D01*
X61245711Y-57245711D01*
X61293322Y-57187696D01*
X61328701Y-57121508D01*
X61350487Y-57049689D01*
X61357843Y-56975000D01*
X61357843Y-55625000D01*
X64442157Y-55625000D01*
X64442157Y-56975000D01*
X64449513Y-57049689D01*
X64471299Y-57121508D01*
X64506678Y-57187696D01*
X64554289Y-57245711D01*
X64612304Y-57293322D01*
X64678492Y-57328701D01*
X64750311Y-57350487D01*
X64825000Y-57357843D01*
X66175000Y-57357843D01*
X66249689Y-57350487D01*
X66321508Y-57328701D01*
X66387696Y-57293322D01*
X66445711Y-57245711D01*
X66493322Y-57187696D01*
X66528701Y-57121508D01*
X66550487Y-57049689D01*
X66557843Y-56975000D01*
X66557843Y-55625000D01*
X69542157Y-55625000D01*
X69542157Y-56975000D01*
X69549513Y-57049689D01*
X69571299Y-57121508D01*
X69606678Y-57187696D01*
X69654289Y-57245711D01*
X69712304Y-57293322D01*
X69778492Y-57328701D01*
X69850311Y-57350487D01*
X69925000Y-57357843D01*
X71275000Y-57357843D01*
X71349689Y-57350487D01*
X71421508Y-57328701D01*
X71487696Y-57293322D01*
X71545711Y-57245711D01*
X71593322Y-57187696D01*
X71628701Y-57121508D01*
X71650487Y-57049689D01*
X71657843Y-56975000D01*
X71657843Y-56643531D01*
X78919000Y-56643531D01*
X78919000Y-56856469D01*
X78960543Y-57065316D01*
X79042031Y-57262045D01*
X79160333Y-57439097D01*
X79310903Y-57589667D01*
X79487955Y-57707969D01*
X79684684Y-57789457D01*
X79893531Y-57831000D01*
X80106469Y-57831000D01*
X80315316Y-57789457D01*
X80512045Y-57707969D01*
X80689097Y-57589667D01*
X80839667Y-57439097D01*
X80957969Y-57262045D01*
X81039457Y-57065316D01*
X81081000Y-56856469D01*
X81081000Y-56643531D01*
X81039457Y-56434684D01*
X80957969Y-56237955D01*
X80839667Y-56060903D01*
X80689097Y-55910333D01*
X80512045Y-55792031D01*
X80315316Y-55710543D01*
X80106469Y-55669000D01*
X79893531Y-55669000D01*
X79684684Y-55710543D01*
X79487955Y-55792031D01*
X79310903Y-55910333D01*
X79160333Y-56060903D01*
X79042031Y-56237955D01*
X78960543Y-56434684D01*
X78919000Y-56643531D01*
X71657843Y-56643531D01*
X71657843Y-55625000D01*
X71650487Y-55550311D01*
X71628701Y-55478492D01*
X71593322Y-55412304D01*
X71545711Y-55354289D01*
X71487696Y-55306678D01*
X71421508Y-55271299D01*
X71349689Y-55249513D01*
X71275000Y-55242157D01*
X69925000Y-55242157D01*
X69850311Y-55249513D01*
X69778492Y-55271299D01*
X69712304Y-55306678D01*
X69654289Y-55354289D01*
X69606678Y-55412304D01*
X69571299Y-55478492D01*
X69549513Y-55550311D01*
X69542157Y-55625000D01*
X66557843Y-55625000D01*
X66550487Y-55550311D01*
X66528701Y-55478492D01*
X66493322Y-55412304D01*
X66445711Y-55354289D01*
X66387696Y-55306678D01*
X66321508Y-55271299D01*
X66249689Y-55249513D01*
X66175000Y-55242157D01*
X64825000Y-55242157D01*
X64750311Y-55249513D01*
X64678492Y-55271299D01*
X64612304Y-55306678D01*
X64554289Y-55354289D01*
X64506678Y-55412304D01*
X64471299Y-55478492D01*
X64449513Y-55550311D01*
X64442157Y-55625000D01*
X61357843Y-55625000D01*
X61350487Y-55550311D01*
X61328701Y-55478492D01*
X61293322Y-55412304D01*
X61245711Y-55354289D01*
X61187696Y-55306678D01*
X61121508Y-55271299D01*
X61049689Y-55249513D01*
X60975000Y-55242157D01*
X59625000Y-55242157D01*
X59550311Y-55249513D01*
X59478492Y-55271299D01*
X59412304Y-55306678D01*
X59354289Y-55354289D01*
X59306678Y-55412304D01*
X59271299Y-55478492D01*
X59249513Y-55550311D01*
X59242157Y-55625000D01*
X56157843Y-55625000D01*
X56150487Y-55550311D01*
X56128701Y-55478492D01*
X56093322Y-55412304D01*
X56045711Y-55354289D01*
X55987696Y-55306678D01*
X55921508Y-55271299D01*
X55849689Y-55249513D01*
X55775000Y-55242157D01*
X54425000Y-55242157D01*
X54350311Y-55249513D01*
X54278492Y-55271299D01*
X54212304Y-55306678D01*
X54154289Y-55354289D01*
X54106678Y-55412304D01*
X54071299Y-55478492D01*
X54049513Y-55550311D01*
X54042157Y-55625000D01*
X50431000Y-55625000D01*
X50431000Y-53500000D01*
X88018891Y-53500000D01*
X88039280Y-53707012D01*
X88099663Y-53906069D01*
X88197720Y-54089521D01*
X88329683Y-54250317D01*
X88490479Y-54382280D01*
X88673931Y-54480337D01*
X88872988Y-54540720D01*
X89028128Y-54556000D01*
X89131872Y-54556000D01*
X89287012Y-54540720D01*
X89486069Y-54480337D01*
X89669521Y-54382280D01*
X89830317Y-54250317D01*
X89962280Y-54089521D01*
X90060337Y-53906069D01*
X90083593Y-53829401D01*
X90352085Y-53829401D01*
X90440711Y-54070430D01*
X90574656Y-54289537D01*
X90748773Y-54478303D01*
X90956371Y-54629473D01*
X91189472Y-54737238D01*
X91290600Y-54767910D01*
X91493000Y-54644224D01*
X91493000Y-53627000D01*
X90474915Y-53627000D01*
X90352085Y-53829401D01*
X90083593Y-53829401D01*
X90120720Y-53707012D01*
X90141109Y-53500000D01*
X90120720Y-53292988D01*
X90083594Y-53170599D01*
X90352085Y-53170599D01*
X90474915Y-53373000D01*
X91493000Y-53373000D01*
X91493000Y-52355776D01*
X91747000Y-52355776D01*
X91747000Y-53373000D01*
X92765085Y-53373000D01*
X92887915Y-53170599D01*
X92799289Y-52929570D01*
X92665344Y-52710463D01*
X92491227Y-52521697D01*
X92283629Y-52370527D01*
X92050528Y-52262762D01*
X91949400Y-52232090D01*
X91747000Y-52355776D01*
X91493000Y-52355776D01*
X91290600Y-52232090D01*
X91189472Y-52262762D01*
X90956371Y-52370527D01*
X90748773Y-52521697D01*
X90574656Y-52710463D01*
X90440711Y-52929570D01*
X90352085Y-53170599D01*
X90083594Y-53170599D01*
X90060337Y-53093931D01*
X89962280Y-52910479D01*
X89830317Y-52749683D01*
X89669521Y-52617720D01*
X89486069Y-52519663D01*
X89287012Y-52459280D01*
X89131872Y-52444000D01*
X89028128Y-52444000D01*
X88872988Y-52459280D01*
X88673931Y-52519663D01*
X88490479Y-52617720D01*
X88329683Y-52749683D01*
X88197720Y-52910479D01*
X88099663Y-53093931D01*
X88039280Y-53292988D01*
X88018891Y-53500000D01*
X50431000Y-53500000D01*
X50431000Y-52143531D01*
X78919000Y-52143531D01*
X78919000Y-52356469D01*
X78960543Y-52565316D01*
X79042031Y-52762045D01*
X79160333Y-52939097D01*
X79310903Y-53089667D01*
X79487955Y-53207969D01*
X79684684Y-53289457D01*
X79893531Y-53331000D01*
X80106469Y-53331000D01*
X80315316Y-53289457D01*
X80512045Y-53207969D01*
X80689097Y-53089667D01*
X80839667Y-52939097D01*
X80957969Y-52762045D01*
X81039457Y-52565316D01*
X81081000Y-52356469D01*
X81081000Y-52143531D01*
X81039457Y-51934684D01*
X80957969Y-51737955D01*
X80839667Y-51560903D01*
X80689097Y-51410333D01*
X80512045Y-51292031D01*
X80315316Y-51210543D01*
X80106469Y-51169000D01*
X79893531Y-51169000D01*
X79684684Y-51210543D01*
X79487955Y-51292031D01*
X79310903Y-51410333D01*
X79160333Y-51560903D01*
X79042031Y-51737955D01*
X78960543Y-51934684D01*
X78919000Y-52143531D01*
X50431000Y-52143531D01*
X50431000Y-50431000D01*
X109569000Y-50431000D01*
X109569001Y-130569000D01*
M02*
