G04 #@! TF.GenerationSoftware,KiCad,Pcbnew,7.0.11+1*
G04 #@! TF.CreationDate,2024-05-07T09:39:49-04:00*
G04 #@! TF.ProjectId,mystat,6d797374-6174-42e6-9b69-6361645f7063,rev?*
G04 #@! TF.SameCoordinates,Original*
G04 #@! TF.FileFunction,Soldermask,Bot*
G04 #@! TF.FilePolarity,Negative*
%FSLAX46Y46*%
G04 Gerber Fmt 4.6, Leading zero omitted, Abs format (unit mm)*
G04 Created by KiCad (PCBNEW 7.0.11+1) date 2024-05-07 09:39:49*
%MOMM*%
%LPD*%
G01*
G04 APERTURE LIST*
G04 APERTURE END LIST*
G36*
X68269440Y-126803067D02*
G01*
X68285921Y-126814079D01*
X68296933Y-126830560D01*
X68300800Y-126850000D01*
X68300800Y-128550000D01*
X68296933Y-128569440D01*
X68285921Y-128585921D01*
X68269440Y-128596933D01*
X68250000Y-128600800D01*
X66550000Y-128600800D01*
X66530560Y-128596933D01*
X66514079Y-128585921D01*
X66503067Y-128569440D01*
X66499200Y-128550000D01*
X66499200Y-126850000D01*
X66503067Y-126830560D01*
X66514079Y-126814079D01*
X66530560Y-126803067D01*
X66550000Y-126799200D01*
X68250000Y-126799200D01*
X68269440Y-126803067D01*
G37*
G36*
X54747617Y-126804135D02*
G01*
X54794159Y-126804135D01*
X54834349Y-126812677D01*
X54875686Y-126816749D01*
X54927613Y-126832501D01*
X54978363Y-126843288D01*
X55010838Y-126857747D01*
X55044628Y-126867997D01*
X55098329Y-126896700D01*
X55150400Y-126919884D01*
X55174606Y-126937470D01*
X55200320Y-126951215D01*
X55252770Y-126994260D01*
X55302753Y-127030575D01*
X55318983Y-127048601D01*
X55336787Y-127063212D01*
X55384632Y-127121511D01*
X55428763Y-127170523D01*
X55438032Y-127186578D01*
X55448784Y-127199679D01*
X55488555Y-127274086D01*
X55522922Y-127333612D01*
X55526875Y-127345780D01*
X55532002Y-127355371D01*
X55560270Y-127448559D01*
X55581115Y-127512713D01*
X55581848Y-127519693D01*
X55583250Y-127524313D01*
X55596889Y-127662798D01*
X55600800Y-127700000D01*
X55596889Y-127737204D01*
X55583250Y-127875686D01*
X55581848Y-127880304D01*
X55581115Y-127887287D01*
X55560265Y-127951454D01*
X55532002Y-128044628D01*
X55526876Y-128054217D01*
X55522922Y-128066388D01*
X55488547Y-128125926D01*
X55448784Y-128200320D01*
X55438034Y-128213417D01*
X55428763Y-128229477D01*
X55384623Y-128278498D01*
X55336787Y-128336787D01*
X55318987Y-128351395D01*
X55302753Y-128369425D01*
X55252759Y-128405747D01*
X55200320Y-128448784D01*
X55174611Y-128462525D01*
X55150400Y-128480116D01*
X55098318Y-128503304D01*
X55044628Y-128532002D01*
X55010845Y-128542249D01*
X54978363Y-128556712D01*
X54927602Y-128567501D01*
X54875686Y-128583250D01*
X54834358Y-128587320D01*
X54794159Y-128595865D01*
X54747607Y-128595865D01*
X54700000Y-128600554D01*
X54652393Y-128595865D01*
X54605841Y-128595865D01*
X54565642Y-128587320D01*
X54524313Y-128583250D01*
X54472393Y-128567500D01*
X54421637Y-128556712D01*
X54389156Y-128542250D01*
X54355371Y-128532002D01*
X54301675Y-128503301D01*
X54249600Y-128480116D01*
X54225391Y-128462527D01*
X54199679Y-128448784D01*
X54147231Y-128405740D01*
X54097247Y-128369425D01*
X54081015Y-128351398D01*
X54063212Y-128336787D01*
X54015365Y-128278486D01*
X53971237Y-128229477D01*
X53961967Y-128213422D01*
X53951215Y-128200320D01*
X53911438Y-128125902D01*
X53877078Y-128066388D01*
X53873125Y-128054222D01*
X53867997Y-128044628D01*
X53839719Y-127951408D01*
X53818885Y-127887287D01*
X53818151Y-127880309D01*
X53816749Y-127875686D01*
X53803094Y-127737052D01*
X53799200Y-127700000D01*
X53803094Y-127662950D01*
X53816749Y-127524313D01*
X53818151Y-127519688D01*
X53818885Y-127512713D01*
X53839714Y-127448605D01*
X53867997Y-127355371D01*
X53873125Y-127345775D01*
X53877078Y-127333612D01*
X53911431Y-127274109D01*
X53951215Y-127199679D01*
X53961969Y-127186574D01*
X53971237Y-127170523D01*
X54015355Y-127121524D01*
X54063212Y-127063212D01*
X54081018Y-127048597D01*
X54097247Y-127030575D01*
X54147220Y-126994266D01*
X54199679Y-126951215D01*
X54225396Y-126937468D01*
X54249600Y-126919884D01*
X54301664Y-126896703D01*
X54355371Y-126867997D01*
X54389163Y-126857746D01*
X54421637Y-126843288D01*
X54472382Y-126832501D01*
X54524313Y-126816749D01*
X54565650Y-126812677D01*
X54605841Y-126804135D01*
X54652383Y-126804135D01*
X54700000Y-126799445D01*
X54747617Y-126804135D01*
G37*
G36*
X57287617Y-126804135D02*
G01*
X57334159Y-126804135D01*
X57374349Y-126812677D01*
X57415686Y-126816749D01*
X57467613Y-126832501D01*
X57518363Y-126843288D01*
X57550838Y-126857747D01*
X57584628Y-126867997D01*
X57638329Y-126896700D01*
X57690400Y-126919884D01*
X57714606Y-126937470D01*
X57740320Y-126951215D01*
X57792770Y-126994260D01*
X57842753Y-127030575D01*
X57858983Y-127048601D01*
X57876787Y-127063212D01*
X57924632Y-127121511D01*
X57968763Y-127170523D01*
X57978032Y-127186578D01*
X57988784Y-127199679D01*
X58028555Y-127274086D01*
X58062922Y-127333612D01*
X58066875Y-127345780D01*
X58072002Y-127355371D01*
X58100270Y-127448559D01*
X58121115Y-127512713D01*
X58121848Y-127519693D01*
X58123250Y-127524313D01*
X58136889Y-127662798D01*
X58140800Y-127700000D01*
X58136889Y-127737204D01*
X58123250Y-127875686D01*
X58121848Y-127880304D01*
X58121115Y-127887287D01*
X58100265Y-127951454D01*
X58072002Y-128044628D01*
X58066876Y-128054217D01*
X58062922Y-128066388D01*
X58028547Y-128125926D01*
X57988784Y-128200320D01*
X57978034Y-128213417D01*
X57968763Y-128229477D01*
X57924623Y-128278498D01*
X57876787Y-128336787D01*
X57858987Y-128351395D01*
X57842753Y-128369425D01*
X57792759Y-128405747D01*
X57740320Y-128448784D01*
X57714611Y-128462525D01*
X57690400Y-128480116D01*
X57638318Y-128503304D01*
X57584628Y-128532002D01*
X57550845Y-128542249D01*
X57518363Y-128556712D01*
X57467602Y-128567501D01*
X57415686Y-128583250D01*
X57374358Y-128587320D01*
X57334159Y-128595865D01*
X57287607Y-128595865D01*
X57240000Y-128600554D01*
X57192393Y-128595865D01*
X57145841Y-128595865D01*
X57105642Y-128587320D01*
X57064313Y-128583250D01*
X57012393Y-128567500D01*
X56961637Y-128556712D01*
X56929156Y-128542250D01*
X56895371Y-128532002D01*
X56841675Y-128503301D01*
X56789600Y-128480116D01*
X56765391Y-128462527D01*
X56739679Y-128448784D01*
X56687231Y-128405740D01*
X56637247Y-128369425D01*
X56621015Y-128351398D01*
X56603212Y-128336787D01*
X56555365Y-128278486D01*
X56511237Y-128229477D01*
X56501967Y-128213422D01*
X56491215Y-128200320D01*
X56451438Y-128125902D01*
X56417078Y-128066388D01*
X56413125Y-128054222D01*
X56407997Y-128044628D01*
X56379719Y-127951408D01*
X56358885Y-127887287D01*
X56358151Y-127880309D01*
X56356749Y-127875686D01*
X56343094Y-127737052D01*
X56339200Y-127700000D01*
X56343094Y-127662950D01*
X56356749Y-127524313D01*
X56358151Y-127519688D01*
X56358885Y-127512713D01*
X56379714Y-127448605D01*
X56407997Y-127355371D01*
X56413125Y-127345775D01*
X56417078Y-127333612D01*
X56451431Y-127274109D01*
X56491215Y-127199679D01*
X56501969Y-127186574D01*
X56511237Y-127170523D01*
X56555355Y-127121524D01*
X56603212Y-127063212D01*
X56621018Y-127048597D01*
X56637247Y-127030575D01*
X56687220Y-126994266D01*
X56739679Y-126951215D01*
X56765396Y-126937468D01*
X56789600Y-126919884D01*
X56841664Y-126896703D01*
X56895371Y-126867997D01*
X56929163Y-126857746D01*
X56961637Y-126843288D01*
X57012382Y-126832501D01*
X57064313Y-126816749D01*
X57105650Y-126812677D01*
X57145841Y-126804135D01*
X57192383Y-126804135D01*
X57240000Y-126799445D01*
X57287617Y-126804135D01*
G37*
G36*
X59827617Y-126804135D02*
G01*
X59874159Y-126804135D01*
X59914349Y-126812677D01*
X59955686Y-126816749D01*
X60007613Y-126832501D01*
X60058363Y-126843288D01*
X60090838Y-126857747D01*
X60124628Y-126867997D01*
X60178329Y-126896700D01*
X60230400Y-126919884D01*
X60254606Y-126937470D01*
X60280320Y-126951215D01*
X60332770Y-126994260D01*
X60382753Y-127030575D01*
X60398983Y-127048601D01*
X60416787Y-127063212D01*
X60464632Y-127121511D01*
X60508763Y-127170523D01*
X60518032Y-127186578D01*
X60528784Y-127199679D01*
X60568555Y-127274086D01*
X60602922Y-127333612D01*
X60606875Y-127345780D01*
X60612002Y-127355371D01*
X60640270Y-127448559D01*
X60661115Y-127512713D01*
X60661848Y-127519693D01*
X60663250Y-127524313D01*
X60676889Y-127662798D01*
X60680800Y-127700000D01*
X60676889Y-127737204D01*
X60663250Y-127875686D01*
X60661848Y-127880304D01*
X60661115Y-127887287D01*
X60640265Y-127951454D01*
X60612002Y-128044628D01*
X60606876Y-128054217D01*
X60602922Y-128066388D01*
X60568547Y-128125926D01*
X60528784Y-128200320D01*
X60518034Y-128213417D01*
X60508763Y-128229477D01*
X60464623Y-128278498D01*
X60416787Y-128336787D01*
X60398987Y-128351395D01*
X60382753Y-128369425D01*
X60332759Y-128405747D01*
X60280320Y-128448784D01*
X60254611Y-128462525D01*
X60230400Y-128480116D01*
X60178318Y-128503304D01*
X60124628Y-128532002D01*
X60090845Y-128542249D01*
X60058363Y-128556712D01*
X60007602Y-128567501D01*
X59955686Y-128583250D01*
X59914358Y-128587320D01*
X59874159Y-128595865D01*
X59827607Y-128595865D01*
X59780000Y-128600554D01*
X59732393Y-128595865D01*
X59685841Y-128595865D01*
X59645642Y-128587320D01*
X59604313Y-128583250D01*
X59552393Y-128567500D01*
X59501637Y-128556712D01*
X59469156Y-128542250D01*
X59435371Y-128532002D01*
X59381675Y-128503301D01*
X59329600Y-128480116D01*
X59305391Y-128462527D01*
X59279679Y-128448784D01*
X59227231Y-128405740D01*
X59177247Y-128369425D01*
X59161015Y-128351398D01*
X59143212Y-128336787D01*
X59095365Y-128278486D01*
X59051237Y-128229477D01*
X59041967Y-128213422D01*
X59031215Y-128200320D01*
X58991438Y-128125902D01*
X58957078Y-128066388D01*
X58953125Y-128054222D01*
X58947997Y-128044628D01*
X58919719Y-127951408D01*
X58898885Y-127887287D01*
X58898151Y-127880309D01*
X58896749Y-127875686D01*
X58883094Y-127737052D01*
X58879200Y-127700000D01*
X58883094Y-127662950D01*
X58896749Y-127524313D01*
X58898151Y-127519688D01*
X58898885Y-127512713D01*
X58919714Y-127448605D01*
X58947997Y-127355371D01*
X58953125Y-127345775D01*
X58957078Y-127333612D01*
X58991431Y-127274109D01*
X59031215Y-127199679D01*
X59041969Y-127186574D01*
X59051237Y-127170523D01*
X59095355Y-127121524D01*
X59143212Y-127063212D01*
X59161018Y-127048597D01*
X59177247Y-127030575D01*
X59227220Y-126994266D01*
X59279679Y-126951215D01*
X59305396Y-126937468D01*
X59329600Y-126919884D01*
X59381664Y-126896703D01*
X59435371Y-126867997D01*
X59469163Y-126857746D01*
X59501637Y-126843288D01*
X59552382Y-126832501D01*
X59604313Y-126816749D01*
X59645650Y-126812677D01*
X59685841Y-126804135D01*
X59732383Y-126804135D01*
X59780000Y-126799445D01*
X59827617Y-126804135D01*
G37*
G36*
X62367617Y-126804135D02*
G01*
X62414159Y-126804135D01*
X62454349Y-126812677D01*
X62495686Y-126816749D01*
X62547613Y-126832501D01*
X62598363Y-126843288D01*
X62630838Y-126857747D01*
X62664628Y-126867997D01*
X62718329Y-126896700D01*
X62770400Y-126919884D01*
X62794606Y-126937470D01*
X62820320Y-126951215D01*
X62872770Y-126994260D01*
X62922753Y-127030575D01*
X62938983Y-127048601D01*
X62956787Y-127063212D01*
X63004632Y-127121511D01*
X63048763Y-127170523D01*
X63058032Y-127186578D01*
X63068784Y-127199679D01*
X63108555Y-127274086D01*
X63142922Y-127333612D01*
X63146875Y-127345780D01*
X63152002Y-127355371D01*
X63180270Y-127448559D01*
X63201115Y-127512713D01*
X63201848Y-127519693D01*
X63203250Y-127524313D01*
X63216889Y-127662798D01*
X63220800Y-127700000D01*
X63216889Y-127737204D01*
X63203250Y-127875686D01*
X63201848Y-127880304D01*
X63201115Y-127887287D01*
X63180265Y-127951454D01*
X63152002Y-128044628D01*
X63146876Y-128054217D01*
X63142922Y-128066388D01*
X63108547Y-128125926D01*
X63068784Y-128200320D01*
X63058034Y-128213417D01*
X63048763Y-128229477D01*
X63004623Y-128278498D01*
X62956787Y-128336787D01*
X62938987Y-128351395D01*
X62922753Y-128369425D01*
X62872759Y-128405747D01*
X62820320Y-128448784D01*
X62794611Y-128462525D01*
X62770400Y-128480116D01*
X62718318Y-128503304D01*
X62664628Y-128532002D01*
X62630845Y-128542249D01*
X62598363Y-128556712D01*
X62547602Y-128567501D01*
X62495686Y-128583250D01*
X62454358Y-128587320D01*
X62414159Y-128595865D01*
X62367607Y-128595865D01*
X62320000Y-128600554D01*
X62272393Y-128595865D01*
X62225841Y-128595865D01*
X62185642Y-128587320D01*
X62144313Y-128583250D01*
X62092393Y-128567500D01*
X62041637Y-128556712D01*
X62009156Y-128542250D01*
X61975371Y-128532002D01*
X61921675Y-128503301D01*
X61869600Y-128480116D01*
X61845391Y-128462527D01*
X61819679Y-128448784D01*
X61767231Y-128405740D01*
X61717247Y-128369425D01*
X61701015Y-128351398D01*
X61683212Y-128336787D01*
X61635365Y-128278486D01*
X61591237Y-128229477D01*
X61581967Y-128213422D01*
X61571215Y-128200320D01*
X61531438Y-128125902D01*
X61497078Y-128066388D01*
X61493125Y-128054222D01*
X61487997Y-128044628D01*
X61459719Y-127951408D01*
X61438885Y-127887287D01*
X61438151Y-127880309D01*
X61436749Y-127875686D01*
X61423094Y-127737052D01*
X61419200Y-127700000D01*
X61423094Y-127662950D01*
X61436749Y-127524313D01*
X61438151Y-127519688D01*
X61438885Y-127512713D01*
X61459714Y-127448605D01*
X61487997Y-127355371D01*
X61493125Y-127345775D01*
X61497078Y-127333612D01*
X61531431Y-127274109D01*
X61571215Y-127199679D01*
X61581969Y-127186574D01*
X61591237Y-127170523D01*
X61635355Y-127121524D01*
X61683212Y-127063212D01*
X61701018Y-127048597D01*
X61717247Y-127030575D01*
X61767220Y-126994266D01*
X61819679Y-126951215D01*
X61845396Y-126937468D01*
X61869600Y-126919884D01*
X61921664Y-126896703D01*
X61975371Y-126867997D01*
X62009163Y-126857746D01*
X62041637Y-126843288D01*
X62092382Y-126832501D01*
X62144313Y-126816749D01*
X62185650Y-126812677D01*
X62225841Y-126804135D01*
X62272383Y-126804135D01*
X62320000Y-126799445D01*
X62367617Y-126804135D01*
G37*
G36*
X64907617Y-126804135D02*
G01*
X64954159Y-126804135D01*
X64994349Y-126812677D01*
X65035686Y-126816749D01*
X65087613Y-126832501D01*
X65138363Y-126843288D01*
X65170838Y-126857747D01*
X65204628Y-126867997D01*
X65258329Y-126896700D01*
X65310400Y-126919884D01*
X65334606Y-126937470D01*
X65360320Y-126951215D01*
X65412770Y-126994260D01*
X65462753Y-127030575D01*
X65478983Y-127048601D01*
X65496787Y-127063212D01*
X65544632Y-127121511D01*
X65588763Y-127170523D01*
X65598032Y-127186578D01*
X65608784Y-127199679D01*
X65648555Y-127274086D01*
X65682922Y-127333612D01*
X65686875Y-127345780D01*
X65692002Y-127355371D01*
X65720270Y-127448559D01*
X65741115Y-127512713D01*
X65741848Y-127519693D01*
X65743250Y-127524313D01*
X65756889Y-127662798D01*
X65760800Y-127700000D01*
X65756889Y-127737204D01*
X65743250Y-127875686D01*
X65741848Y-127880304D01*
X65741115Y-127887287D01*
X65720265Y-127951454D01*
X65692002Y-128044628D01*
X65686876Y-128054217D01*
X65682922Y-128066388D01*
X65648547Y-128125926D01*
X65608784Y-128200320D01*
X65598034Y-128213417D01*
X65588763Y-128229477D01*
X65544623Y-128278498D01*
X65496787Y-128336787D01*
X65478987Y-128351395D01*
X65462753Y-128369425D01*
X65412759Y-128405747D01*
X65360320Y-128448784D01*
X65334611Y-128462525D01*
X65310400Y-128480116D01*
X65258318Y-128503304D01*
X65204628Y-128532002D01*
X65170845Y-128542249D01*
X65138363Y-128556712D01*
X65087602Y-128567501D01*
X65035686Y-128583250D01*
X64994358Y-128587320D01*
X64954159Y-128595865D01*
X64907607Y-128595865D01*
X64860000Y-128600554D01*
X64812393Y-128595865D01*
X64765841Y-128595865D01*
X64725642Y-128587320D01*
X64684313Y-128583250D01*
X64632393Y-128567500D01*
X64581637Y-128556712D01*
X64549156Y-128542250D01*
X64515371Y-128532002D01*
X64461675Y-128503301D01*
X64409600Y-128480116D01*
X64385391Y-128462527D01*
X64359679Y-128448784D01*
X64307231Y-128405740D01*
X64257247Y-128369425D01*
X64241015Y-128351398D01*
X64223212Y-128336787D01*
X64175365Y-128278486D01*
X64131237Y-128229477D01*
X64121967Y-128213422D01*
X64111215Y-128200320D01*
X64071438Y-128125902D01*
X64037078Y-128066388D01*
X64033125Y-128054222D01*
X64027997Y-128044628D01*
X63999719Y-127951408D01*
X63978885Y-127887287D01*
X63978151Y-127880309D01*
X63976749Y-127875686D01*
X63963094Y-127737052D01*
X63959200Y-127700000D01*
X63963094Y-127662950D01*
X63976749Y-127524313D01*
X63978151Y-127519688D01*
X63978885Y-127512713D01*
X63999714Y-127448605D01*
X64027997Y-127355371D01*
X64033125Y-127345775D01*
X64037078Y-127333612D01*
X64071431Y-127274109D01*
X64111215Y-127199679D01*
X64121969Y-127186574D01*
X64131237Y-127170523D01*
X64175355Y-127121524D01*
X64223212Y-127063212D01*
X64241018Y-127048597D01*
X64257247Y-127030575D01*
X64307220Y-126994266D01*
X64359679Y-126951215D01*
X64385396Y-126937468D01*
X64409600Y-126919884D01*
X64461664Y-126896703D01*
X64515371Y-126867997D01*
X64549163Y-126857746D01*
X64581637Y-126843288D01*
X64632382Y-126832501D01*
X64684313Y-126816749D01*
X64725650Y-126812677D01*
X64765841Y-126804135D01*
X64812383Y-126804135D01*
X64860000Y-126799445D01*
X64907617Y-126804135D01*
G37*
G36*
X100262912Y-126890841D02*
G01*
X100425400Y-126963186D01*
X100569296Y-127067732D01*
X100688312Y-127199912D01*
X100777244Y-127353948D01*
X100832208Y-127523109D01*
X100850800Y-127700000D01*
X100832208Y-127876891D01*
X100777244Y-128046052D01*
X100688312Y-128200088D01*
X100569296Y-128332268D01*
X100425400Y-128436814D01*
X100262912Y-128509159D01*
X100088933Y-128546139D01*
X99911067Y-128546139D01*
X99737088Y-128509159D01*
X99574600Y-128436814D01*
X99430704Y-128332268D01*
X99311688Y-128200088D01*
X99222756Y-128046052D01*
X99167792Y-127876891D01*
X99149200Y-127700000D01*
X99167792Y-127523109D01*
X99222756Y-127353948D01*
X99311688Y-127199912D01*
X99430704Y-127067732D01*
X99574600Y-126963186D01*
X99737088Y-126890841D01*
X99911067Y-126853861D01*
X100088933Y-126853861D01*
X100262912Y-126890841D01*
G37*
G36*
X95526012Y-123901762D02*
G01*
X95549985Y-123900620D01*
X95627344Y-123911742D01*
X95705001Y-123919391D01*
X95727039Y-123926076D01*
X95747681Y-123929044D01*
X95824708Y-123955703D01*
X95902124Y-123979187D01*
X95919693Y-123988578D01*
X95936422Y-123994368D01*
X96009991Y-124036843D01*
X96083793Y-124076292D01*
X96096787Y-124086956D01*
X96109391Y-124094233D01*
X96176315Y-124152222D01*
X96243028Y-124206972D01*
X96251711Y-124217553D01*
X96260330Y-124225021D01*
X96317458Y-124297666D01*
X96373708Y-124366207D01*
X96378692Y-124375532D01*
X96383796Y-124382022D01*
X96428189Y-124468133D01*
X96470813Y-124547876D01*
X96472977Y-124555009D01*
X96475314Y-124559543D01*
X96504382Y-124658541D01*
X96530609Y-124744999D01*
X96531032Y-124749303D01*
X96531583Y-124751177D01*
X96543220Y-124873045D01*
X96550800Y-124950000D01*
X96550800Y-126450000D01*
X96550689Y-126451123D01*
X96546043Y-126548664D01*
X96535898Y-126601299D01*
X96530609Y-126655001D01*
X96516728Y-126700757D01*
X96508013Y-126745980D01*
X96487368Y-126797547D01*
X96470813Y-126852124D01*
X96449724Y-126891578D01*
X96433783Y-126931397D01*
X96402034Y-126980797D01*
X96373708Y-127033793D01*
X96347284Y-127065990D01*
X96325801Y-127099419D01*
X96283081Y-127144222D01*
X96243028Y-127193028D01*
X96213224Y-127217487D01*
X96187977Y-127243966D01*
X96134937Y-127281735D01*
X96083793Y-127323708D01*
X96052520Y-127340423D01*
X96025282Y-127359820D01*
X95963134Y-127388201D01*
X95902124Y-127420813D01*
X95871157Y-127430206D01*
X95843608Y-127442788D01*
X95774069Y-127459657D01*
X95705001Y-127480609D01*
X95675882Y-127483476D01*
X95649509Y-127489875D01*
X95574772Y-127493435D01*
X95500000Y-127500800D01*
X95473980Y-127498237D01*
X95450014Y-127499379D01*
X95372674Y-127488259D01*
X95294999Y-127480609D01*
X95272955Y-127473922D01*
X95252318Y-127470955D01*
X95175307Y-127444301D01*
X95097876Y-127420813D01*
X95080302Y-127411419D01*
X95063577Y-127405631D01*
X94990018Y-127363161D01*
X94916207Y-127323708D01*
X94903210Y-127313042D01*
X94890608Y-127305766D01*
X94823687Y-127247779D01*
X94756972Y-127193028D01*
X94748287Y-127182446D01*
X94739669Y-127174978D01*
X94682536Y-127102327D01*
X94626292Y-127033793D01*
X94621307Y-127024468D01*
X94616203Y-127017977D01*
X94571797Y-126931840D01*
X94529187Y-126852124D01*
X94527023Y-126844992D01*
X94524685Y-126840456D01*
X94495595Y-126741385D01*
X94469391Y-126655001D01*
X94468967Y-126650699D01*
X94468416Y-126648822D01*
X94456775Y-126526912D01*
X94449200Y-126450000D01*
X94449200Y-124950000D01*
X94449310Y-124948877D01*
X94453956Y-124851335D01*
X94464103Y-124798687D01*
X94469391Y-124744999D01*
X94483267Y-124699253D01*
X94491986Y-124654019D01*
X94512635Y-124602438D01*
X94529187Y-124547876D01*
X94550270Y-124508432D01*
X94566216Y-124468602D01*
X94597973Y-124419186D01*
X94626292Y-124366207D01*
X94652708Y-124334018D01*
X94674198Y-124300580D01*
X94716930Y-124255763D01*
X94756972Y-124206972D01*
X94786766Y-124182520D01*
X94812022Y-124156033D01*
X94865078Y-124118251D01*
X94916207Y-124076292D01*
X94947469Y-124059581D01*
X94974717Y-124040179D01*
X95036884Y-124011788D01*
X95097876Y-123979187D01*
X95128832Y-123969796D01*
X95156391Y-123957211D01*
X95225951Y-123940336D01*
X95294999Y-123919391D01*
X95324108Y-123916523D01*
X95350490Y-123910124D01*
X95425247Y-123906562D01*
X95500000Y-123899200D01*
X95526012Y-123901762D01*
G37*
G36*
X104526012Y-123901762D02*
G01*
X104549985Y-123900620D01*
X104627344Y-123911742D01*
X104705001Y-123919391D01*
X104727039Y-123926076D01*
X104747681Y-123929044D01*
X104824708Y-123955703D01*
X104902124Y-123979187D01*
X104919693Y-123988578D01*
X104936422Y-123994368D01*
X105009991Y-124036843D01*
X105083793Y-124076292D01*
X105096787Y-124086956D01*
X105109391Y-124094233D01*
X105176315Y-124152222D01*
X105243028Y-124206972D01*
X105251711Y-124217553D01*
X105260330Y-124225021D01*
X105317458Y-124297666D01*
X105373708Y-124366207D01*
X105378692Y-124375532D01*
X105383796Y-124382022D01*
X105428189Y-124468133D01*
X105470813Y-124547876D01*
X105472977Y-124555009D01*
X105475314Y-124559543D01*
X105504382Y-124658541D01*
X105530609Y-124744999D01*
X105531032Y-124749303D01*
X105531583Y-124751177D01*
X105543220Y-124873045D01*
X105550800Y-124950000D01*
X105550800Y-126450000D01*
X105550689Y-126451123D01*
X105546043Y-126548664D01*
X105535898Y-126601299D01*
X105530609Y-126655001D01*
X105516728Y-126700757D01*
X105508013Y-126745980D01*
X105487368Y-126797547D01*
X105470813Y-126852124D01*
X105449724Y-126891578D01*
X105433783Y-126931397D01*
X105402034Y-126980797D01*
X105373708Y-127033793D01*
X105347284Y-127065990D01*
X105325801Y-127099419D01*
X105283081Y-127144222D01*
X105243028Y-127193028D01*
X105213224Y-127217487D01*
X105187977Y-127243966D01*
X105134937Y-127281735D01*
X105083793Y-127323708D01*
X105052520Y-127340423D01*
X105025282Y-127359820D01*
X104963134Y-127388201D01*
X104902124Y-127420813D01*
X104871157Y-127430206D01*
X104843608Y-127442788D01*
X104774069Y-127459657D01*
X104705001Y-127480609D01*
X104675882Y-127483476D01*
X104649509Y-127489875D01*
X104574772Y-127493435D01*
X104500000Y-127500800D01*
X104473980Y-127498237D01*
X104450014Y-127499379D01*
X104372674Y-127488259D01*
X104294999Y-127480609D01*
X104272955Y-127473922D01*
X104252318Y-127470955D01*
X104175307Y-127444301D01*
X104097876Y-127420813D01*
X104080302Y-127411419D01*
X104063577Y-127405631D01*
X103990018Y-127363161D01*
X103916207Y-127323708D01*
X103903210Y-127313042D01*
X103890608Y-127305766D01*
X103823687Y-127247779D01*
X103756972Y-127193028D01*
X103748287Y-127182446D01*
X103739669Y-127174978D01*
X103682536Y-127102327D01*
X103626292Y-127033793D01*
X103621307Y-127024468D01*
X103616203Y-127017977D01*
X103571797Y-126931840D01*
X103529187Y-126852124D01*
X103527023Y-126844992D01*
X103524685Y-126840456D01*
X103495595Y-126741385D01*
X103469391Y-126655001D01*
X103468967Y-126650699D01*
X103468416Y-126648822D01*
X103456775Y-126526912D01*
X103449200Y-126450000D01*
X103449200Y-124950000D01*
X103449310Y-124948877D01*
X103453956Y-124851335D01*
X103464103Y-124798687D01*
X103469391Y-124744999D01*
X103483267Y-124699253D01*
X103491986Y-124654019D01*
X103512635Y-124602438D01*
X103529187Y-124547876D01*
X103550270Y-124508432D01*
X103566216Y-124468602D01*
X103597973Y-124419186D01*
X103626292Y-124366207D01*
X103652708Y-124334018D01*
X103674198Y-124300580D01*
X103716930Y-124255763D01*
X103756972Y-124206972D01*
X103786766Y-124182520D01*
X103812022Y-124156033D01*
X103865078Y-124118251D01*
X103916207Y-124076292D01*
X103947469Y-124059581D01*
X103974717Y-124040179D01*
X104036884Y-124011788D01*
X104097876Y-123979187D01*
X104128832Y-123969796D01*
X104156391Y-123957211D01*
X104225951Y-123940336D01*
X104294999Y-123919391D01*
X104324108Y-123916523D01*
X104350490Y-123910124D01*
X104425247Y-123906562D01*
X104500000Y-123899200D01*
X104526012Y-123901762D01*
G37*
G36*
X100651122Y-123649310D02*
G01*
X100748664Y-123653956D01*
X100801310Y-123664102D01*
X100855001Y-123669391D01*
X100900748Y-123683268D01*
X100945980Y-123691986D01*
X100997557Y-123712634D01*
X101052124Y-123729187D01*
X101091570Y-123750271D01*
X101131397Y-123766216D01*
X101180807Y-123797970D01*
X101233793Y-123826292D01*
X101265984Y-123852711D01*
X101299419Y-123874198D01*
X101344229Y-123916924D01*
X101393028Y-123956972D01*
X101417483Y-123986770D01*
X101443966Y-124012022D01*
X101481740Y-124065069D01*
X101523708Y-124116207D01*
X101540421Y-124147475D01*
X101559820Y-124174717D01*
X101588205Y-124236871D01*
X101620813Y-124297876D01*
X101630205Y-124328839D01*
X101642788Y-124356391D01*
X101659658Y-124425934D01*
X101680609Y-124494999D01*
X101683476Y-124524115D01*
X101689875Y-124550490D01*
X101693435Y-124625227D01*
X101700800Y-124700000D01*
X101698237Y-124726019D01*
X101699379Y-124749985D01*
X101688259Y-124827321D01*
X101680609Y-124905001D01*
X101673921Y-124927045D01*
X101670955Y-124947681D01*
X101644303Y-125024684D01*
X101620813Y-125102124D01*
X101611418Y-125119698D01*
X101605631Y-125136422D01*
X101563168Y-125209967D01*
X101523708Y-125283793D01*
X101513040Y-125296791D01*
X101505766Y-125309391D01*
X101447795Y-125376293D01*
X101393028Y-125443028D01*
X101382443Y-125451714D01*
X101374978Y-125460330D01*
X101302356Y-125517439D01*
X101233793Y-125573708D01*
X101224464Y-125578694D01*
X101217977Y-125583796D01*
X101131893Y-125628174D01*
X101052124Y-125670813D01*
X101044987Y-125672977D01*
X101040456Y-125675314D01*
X100941488Y-125704373D01*
X100855001Y-125730609D01*
X100850694Y-125731033D01*
X100848822Y-125731583D01*
X100727024Y-125743213D01*
X100650000Y-125750800D01*
X100647580Y-125750800D01*
X99351199Y-125750800D01*
X99350000Y-125750800D01*
X99348876Y-125750689D01*
X99251335Y-125746043D01*
X99198698Y-125735897D01*
X99144999Y-125730609D01*
X99099243Y-125716729D01*
X99054019Y-125708013D01*
X99002448Y-125687367D01*
X98947876Y-125670813D01*
X98908424Y-125649725D01*
X98868602Y-125633783D01*
X98819196Y-125602031D01*
X98766207Y-125573708D01*
X98734013Y-125547287D01*
X98700580Y-125525801D01*
X98655770Y-125483075D01*
X98606972Y-125443028D01*
X98582516Y-125413228D01*
X98556033Y-125387977D01*
X98518257Y-125334928D01*
X98476292Y-125283793D01*
X98459579Y-125252526D01*
X98440179Y-125225282D01*
X98411791Y-125163121D01*
X98379187Y-125102124D01*
X98369795Y-125071164D01*
X98357211Y-125043608D01*
X98340337Y-124974052D01*
X98319391Y-124905001D01*
X98316523Y-124875889D01*
X98310124Y-124849509D01*
X98306562Y-124774753D01*
X98299200Y-124700000D01*
X98301762Y-124673986D01*
X98300620Y-124650014D01*
X98311742Y-124572652D01*
X98319391Y-124494999D01*
X98326075Y-124472961D01*
X98329044Y-124452318D01*
X98355705Y-124375283D01*
X98379187Y-124297876D01*
X98388577Y-124280308D01*
X98394368Y-124263577D01*
X98436850Y-124189995D01*
X98476292Y-124116207D01*
X98486954Y-124103214D01*
X98494233Y-124090608D01*
X98552238Y-124023665D01*
X98606972Y-123956972D01*
X98617550Y-123948290D01*
X98625021Y-123939669D01*
X98697695Y-123882517D01*
X98766207Y-123826292D01*
X98775528Y-123821309D01*
X98782022Y-123816203D01*
X98868186Y-123771782D01*
X98947876Y-123729187D01*
X98955005Y-123727024D01*
X98959543Y-123724685D01*
X99058644Y-123695585D01*
X99144999Y-123669391D01*
X99149298Y-123668967D01*
X99151177Y-123668416D01*
X99273119Y-123656772D01*
X99350000Y-123649200D01*
X100650000Y-123649200D01*
X100651122Y-123649310D01*
G37*
G36*
X101001122Y-117649310D02*
G01*
X101098664Y-117653956D01*
X101151310Y-117664102D01*
X101205001Y-117669391D01*
X101250748Y-117683268D01*
X101295980Y-117691986D01*
X101347557Y-117712634D01*
X101402124Y-117729187D01*
X101441570Y-117750271D01*
X101481397Y-117766216D01*
X101530807Y-117797970D01*
X101583793Y-117826292D01*
X101615984Y-117852711D01*
X101649419Y-117874198D01*
X101694229Y-117916924D01*
X101743028Y-117956972D01*
X101767483Y-117986770D01*
X101793966Y-118012022D01*
X101831740Y-118065069D01*
X101873708Y-118116207D01*
X101890421Y-118147475D01*
X101909820Y-118174717D01*
X101938205Y-118236871D01*
X101970813Y-118297876D01*
X101980205Y-118328839D01*
X101992788Y-118356391D01*
X102009658Y-118425934D01*
X102030609Y-118494999D01*
X102033476Y-118524115D01*
X102039875Y-118550490D01*
X102043435Y-118625227D01*
X102050800Y-118700000D01*
X102048237Y-118726019D01*
X102049379Y-118749985D01*
X102038259Y-118827321D01*
X102030609Y-118905001D01*
X102023921Y-118927045D01*
X102020955Y-118947681D01*
X101994303Y-119024684D01*
X101970813Y-119102124D01*
X101961418Y-119119698D01*
X101955631Y-119136422D01*
X101913168Y-119209967D01*
X101873708Y-119283793D01*
X101863040Y-119296791D01*
X101855766Y-119309391D01*
X101797795Y-119376293D01*
X101743028Y-119443028D01*
X101732443Y-119451714D01*
X101724978Y-119460330D01*
X101652356Y-119517439D01*
X101583793Y-119573708D01*
X101574464Y-119578694D01*
X101567977Y-119583796D01*
X101481893Y-119628174D01*
X101402124Y-119670813D01*
X101394987Y-119672977D01*
X101390456Y-119675314D01*
X101291488Y-119704373D01*
X101205001Y-119730609D01*
X101200694Y-119731033D01*
X101198822Y-119731583D01*
X101077024Y-119743213D01*
X101000000Y-119750800D01*
X100997580Y-119750800D01*
X99001199Y-119750800D01*
X99000000Y-119750800D01*
X98998876Y-119750689D01*
X98901335Y-119746043D01*
X98848698Y-119735897D01*
X98794999Y-119730609D01*
X98749243Y-119716729D01*
X98704019Y-119708013D01*
X98652448Y-119687367D01*
X98597876Y-119670813D01*
X98558424Y-119649725D01*
X98518602Y-119633783D01*
X98469196Y-119602031D01*
X98416207Y-119573708D01*
X98384013Y-119547287D01*
X98350580Y-119525801D01*
X98305770Y-119483075D01*
X98256972Y-119443028D01*
X98232516Y-119413228D01*
X98206033Y-119387977D01*
X98168257Y-119334928D01*
X98126292Y-119283793D01*
X98109579Y-119252526D01*
X98090179Y-119225282D01*
X98061791Y-119163121D01*
X98029187Y-119102124D01*
X98019795Y-119071164D01*
X98007211Y-119043608D01*
X97990337Y-118974052D01*
X97969391Y-118905001D01*
X97966523Y-118875889D01*
X97960124Y-118849509D01*
X97956562Y-118774753D01*
X97949200Y-118700000D01*
X97951762Y-118673986D01*
X97950620Y-118650014D01*
X97961742Y-118572652D01*
X97969391Y-118494999D01*
X97976075Y-118472961D01*
X97979044Y-118452318D01*
X98005705Y-118375283D01*
X98029187Y-118297876D01*
X98038577Y-118280308D01*
X98044368Y-118263577D01*
X98086850Y-118189995D01*
X98126292Y-118116207D01*
X98136954Y-118103214D01*
X98144233Y-118090608D01*
X98202238Y-118023665D01*
X98256972Y-117956972D01*
X98267550Y-117948290D01*
X98275021Y-117939669D01*
X98347695Y-117882517D01*
X98416207Y-117826292D01*
X98425528Y-117821309D01*
X98432022Y-117816203D01*
X98518186Y-117771782D01*
X98597876Y-117729187D01*
X98605005Y-117727024D01*
X98609543Y-117724685D01*
X98708644Y-117695585D01*
X98794999Y-117669391D01*
X98799298Y-117668967D01*
X98801177Y-117668416D01*
X98923119Y-117656772D01*
X99000000Y-117649200D01*
X101000000Y-117649200D01*
X101001122Y-117649310D01*
G37*
G36*
X57511403Y-117393865D02*
G01*
X57553676Y-117393865D01*
X57601364Y-117404001D01*
X57648195Y-117409278D01*
X57682247Y-117421193D01*
X57717375Y-117428660D01*
X57767995Y-117451197D01*
X57817454Y-117468504D01*
X57843199Y-117484680D01*
X57870260Y-117496729D01*
X57920716Y-117533387D01*
X57969291Y-117563909D01*
X57986735Y-117581353D01*
X58005652Y-117595097D01*
X58052416Y-117647034D01*
X58096091Y-117690709D01*
X58106137Y-117706697D01*
X58117633Y-117719465D01*
X58156967Y-117787593D01*
X58191496Y-117842546D01*
X58195806Y-117854864D01*
X58201310Y-117864397D01*
X58229500Y-117951158D01*
X58250722Y-118011805D01*
X58251526Y-118018944D01*
X58253027Y-118023563D01*
X58266621Y-118152916D01*
X58270800Y-118190000D01*
X58266621Y-118227086D01*
X58253027Y-118356436D01*
X58251526Y-118361053D01*
X58250722Y-118368195D01*
X58229496Y-118428854D01*
X58201310Y-118515602D01*
X58195807Y-118525132D01*
X58191496Y-118537454D01*
X58156959Y-118592418D01*
X58117633Y-118660534D01*
X58106139Y-118673299D01*
X58096091Y-118689291D01*
X58052407Y-118732974D01*
X58005652Y-118784902D01*
X57986738Y-118798643D01*
X57969291Y-118816091D01*
X57920706Y-118846618D01*
X57870260Y-118883270D01*
X57843204Y-118895315D01*
X57817454Y-118911496D01*
X57767985Y-118928805D01*
X57717375Y-118951339D01*
X57682253Y-118958804D01*
X57648195Y-118970722D01*
X57601361Y-118975998D01*
X57553676Y-118986135D01*
X57511403Y-118986135D01*
X57470000Y-118990800D01*
X57428597Y-118986135D01*
X57386324Y-118986135D01*
X57338637Y-118975998D01*
X57291805Y-118970722D01*
X57257747Y-118958804D01*
X57222624Y-118951339D01*
X57172009Y-118928804D01*
X57122546Y-118911496D01*
X57096797Y-118895317D01*
X57069739Y-118883270D01*
X57019286Y-118846613D01*
X56970709Y-118816091D01*
X56953263Y-118798645D01*
X56934347Y-118784902D01*
X56887582Y-118732964D01*
X56843909Y-118689291D01*
X56833862Y-118673302D01*
X56822366Y-118660534D01*
X56783027Y-118592398D01*
X56748504Y-118537454D01*
X56744194Y-118525137D01*
X56738689Y-118515602D01*
X56710489Y-118428814D01*
X56689278Y-118368195D01*
X56688473Y-118361058D01*
X56686972Y-118356436D01*
X56673363Y-118226954D01*
X56669200Y-118190000D01*
X56673363Y-118153048D01*
X56686972Y-118023563D01*
X56688474Y-118018940D01*
X56689278Y-118011805D01*
X56710485Y-117951198D01*
X56738689Y-117864397D01*
X56744195Y-117854860D01*
X56748504Y-117842546D01*
X56783020Y-117787612D01*
X56822366Y-117719465D01*
X56833865Y-117706694D01*
X56843909Y-117690709D01*
X56887572Y-117647045D01*
X56934347Y-117595097D01*
X56953267Y-117581350D01*
X56970709Y-117563909D01*
X57019280Y-117533389D01*
X57069740Y-117496729D01*
X57096801Y-117484680D01*
X57122546Y-117468504D01*
X57172000Y-117451199D01*
X57222624Y-117428660D01*
X57257753Y-117421193D01*
X57291805Y-117409278D01*
X57338634Y-117404001D01*
X57386324Y-117393865D01*
X57428597Y-117393865D01*
X57470000Y-117389200D01*
X57511403Y-117393865D01*
G37*
G36*
X62391403Y-117393865D02*
G01*
X62433676Y-117393865D01*
X62481364Y-117404001D01*
X62528195Y-117409278D01*
X62562247Y-117421193D01*
X62597375Y-117428660D01*
X62647995Y-117451197D01*
X62697454Y-117468504D01*
X62723199Y-117484680D01*
X62750260Y-117496729D01*
X62800716Y-117533387D01*
X62849291Y-117563909D01*
X62866735Y-117581353D01*
X62885652Y-117595097D01*
X62932416Y-117647034D01*
X62976091Y-117690709D01*
X62986137Y-117706697D01*
X62997633Y-117719465D01*
X63036967Y-117787593D01*
X63071496Y-117842546D01*
X63075806Y-117854864D01*
X63081310Y-117864397D01*
X63109500Y-117951158D01*
X63130722Y-118011805D01*
X63131526Y-118018944D01*
X63133027Y-118023563D01*
X63146621Y-118152916D01*
X63150800Y-118190000D01*
X63146621Y-118227086D01*
X63133027Y-118356436D01*
X63131526Y-118361053D01*
X63130722Y-118368195D01*
X63109496Y-118428854D01*
X63081310Y-118515602D01*
X63075807Y-118525132D01*
X63071496Y-118537454D01*
X63036959Y-118592418D01*
X62997633Y-118660534D01*
X62986139Y-118673299D01*
X62976091Y-118689291D01*
X62932407Y-118732974D01*
X62885652Y-118784902D01*
X62866738Y-118798643D01*
X62849291Y-118816091D01*
X62800706Y-118846618D01*
X62750260Y-118883270D01*
X62723204Y-118895315D01*
X62697454Y-118911496D01*
X62647985Y-118928805D01*
X62597375Y-118951339D01*
X62562253Y-118958804D01*
X62528195Y-118970722D01*
X62481361Y-118975998D01*
X62433676Y-118986135D01*
X62391403Y-118986135D01*
X62350000Y-118990800D01*
X62308597Y-118986135D01*
X62266324Y-118986135D01*
X62218637Y-118975998D01*
X62171805Y-118970722D01*
X62137747Y-118958804D01*
X62102624Y-118951339D01*
X62052009Y-118928804D01*
X62002546Y-118911496D01*
X61976797Y-118895317D01*
X61949739Y-118883270D01*
X61899286Y-118846613D01*
X61850709Y-118816091D01*
X61833263Y-118798645D01*
X61814347Y-118784902D01*
X61767582Y-118732964D01*
X61723909Y-118689291D01*
X61713862Y-118673302D01*
X61702366Y-118660534D01*
X61663027Y-118592398D01*
X61628504Y-118537454D01*
X61624194Y-118525137D01*
X61618689Y-118515602D01*
X61590489Y-118428814D01*
X61569278Y-118368195D01*
X61568473Y-118361058D01*
X61566972Y-118356436D01*
X61553363Y-118226954D01*
X61549200Y-118190000D01*
X61553363Y-118153048D01*
X61566972Y-118023563D01*
X61568474Y-118018940D01*
X61569278Y-118011805D01*
X61590485Y-117951198D01*
X61618689Y-117864397D01*
X61624195Y-117854860D01*
X61628504Y-117842546D01*
X61663020Y-117787612D01*
X61702366Y-117719465D01*
X61713865Y-117706694D01*
X61723909Y-117690709D01*
X61767572Y-117647045D01*
X61814347Y-117595097D01*
X61833267Y-117581350D01*
X61850709Y-117563909D01*
X61899280Y-117533389D01*
X61949740Y-117496729D01*
X61976801Y-117484680D01*
X62002546Y-117468504D01*
X62052000Y-117451199D01*
X62102624Y-117428660D01*
X62137753Y-117421193D01*
X62171805Y-117409278D01*
X62218634Y-117404001D01*
X62266324Y-117393865D01*
X62308597Y-117393865D01*
X62350000Y-117389200D01*
X62391403Y-117393865D01*
G37*
G36*
X55261506Y-63212397D02*
G01*
X55414913Y-63266077D01*
X55552529Y-63352547D01*
X55667453Y-63467471D01*
X55753923Y-63605087D01*
X55807603Y-63758494D01*
X55825800Y-63920000D01*
X55807603Y-64081506D01*
X55753923Y-64234913D01*
X55667453Y-64372529D01*
X55552529Y-64487453D01*
X55414913Y-64573923D01*
X55261506Y-64627603D01*
X55100000Y-64645800D01*
X54938494Y-64627603D01*
X54785087Y-64573923D01*
X54647471Y-64487453D01*
X54532547Y-64372529D01*
X54446077Y-64234913D01*
X54392397Y-64081506D01*
X54374200Y-63920000D01*
X54392397Y-63758494D01*
X54446077Y-63605087D01*
X54532547Y-63467471D01*
X54647471Y-63352547D01*
X54785087Y-63266077D01*
X54938494Y-63212397D01*
X55100000Y-63194200D01*
X55261506Y-63212397D01*
G37*
G36*
X60461506Y-63212397D02*
G01*
X60614913Y-63266077D01*
X60752529Y-63352547D01*
X60867453Y-63467471D01*
X60953923Y-63605087D01*
X61007603Y-63758494D01*
X61025800Y-63920000D01*
X61007603Y-64081506D01*
X60953923Y-64234913D01*
X60867453Y-64372529D01*
X60752529Y-64487453D01*
X60614913Y-64573923D01*
X60461506Y-64627603D01*
X60300000Y-64645800D01*
X60138494Y-64627603D01*
X59985087Y-64573923D01*
X59847471Y-64487453D01*
X59732547Y-64372529D01*
X59646077Y-64234913D01*
X59592397Y-64081506D01*
X59574200Y-63920000D01*
X59592397Y-63758494D01*
X59646077Y-63605087D01*
X59732547Y-63467471D01*
X59847471Y-63352547D01*
X59985087Y-63266077D01*
X60138494Y-63212397D01*
X60300000Y-63194200D01*
X60461506Y-63212397D01*
G37*
G36*
X65661506Y-63212397D02*
G01*
X65814913Y-63266077D01*
X65952529Y-63352547D01*
X66067453Y-63467471D01*
X66153923Y-63605087D01*
X66207603Y-63758494D01*
X66225800Y-63920000D01*
X66207603Y-64081506D01*
X66153923Y-64234913D01*
X66067453Y-64372529D01*
X65952529Y-64487453D01*
X65814913Y-64573923D01*
X65661506Y-64627603D01*
X65500000Y-64645800D01*
X65338494Y-64627603D01*
X65185087Y-64573923D01*
X65047471Y-64487453D01*
X64932547Y-64372529D01*
X64846077Y-64234913D01*
X64792397Y-64081506D01*
X64774200Y-63920000D01*
X64792397Y-63758494D01*
X64846077Y-63605087D01*
X64932547Y-63467471D01*
X65047471Y-63352547D01*
X65185087Y-63266077D01*
X65338494Y-63212397D01*
X65500000Y-63194200D01*
X65661506Y-63212397D01*
G37*
G36*
X70761506Y-63212397D02*
G01*
X70914913Y-63266077D01*
X71052529Y-63352547D01*
X71167453Y-63467471D01*
X71253923Y-63605087D01*
X71307603Y-63758494D01*
X71325800Y-63920000D01*
X71307603Y-64081506D01*
X71253923Y-64234913D01*
X71167453Y-64372529D01*
X71052529Y-64487453D01*
X70914913Y-64573923D01*
X70761506Y-64627603D01*
X70600000Y-64645800D01*
X70438494Y-64627603D01*
X70285087Y-64573923D01*
X70147471Y-64487453D01*
X70032547Y-64372529D01*
X69946077Y-64234913D01*
X69892397Y-64081506D01*
X69874200Y-63920000D01*
X69892397Y-63758494D01*
X69946077Y-63605087D01*
X70032547Y-63467471D01*
X70147471Y-63352547D01*
X70285087Y-63266077D01*
X70438494Y-63212397D01*
X70600000Y-63194200D01*
X70761506Y-63212397D01*
G37*
G36*
X55261506Y-60672397D02*
G01*
X55414913Y-60726077D01*
X55552529Y-60812547D01*
X55667453Y-60927471D01*
X55753923Y-61065087D01*
X55807603Y-61218494D01*
X55825800Y-61380000D01*
X55807603Y-61541506D01*
X55753923Y-61694913D01*
X55667453Y-61832529D01*
X55552529Y-61947453D01*
X55414913Y-62033923D01*
X55261506Y-62087603D01*
X55100000Y-62105800D01*
X54938494Y-62087603D01*
X54785087Y-62033923D01*
X54647471Y-61947453D01*
X54532547Y-61832529D01*
X54446077Y-61694913D01*
X54392397Y-61541506D01*
X54374200Y-61380000D01*
X54392397Y-61218494D01*
X54446077Y-61065087D01*
X54532547Y-60927471D01*
X54647471Y-60812547D01*
X54785087Y-60726077D01*
X54938494Y-60672397D01*
X55100000Y-60654200D01*
X55261506Y-60672397D01*
G37*
G36*
X60461506Y-60672397D02*
G01*
X60614913Y-60726077D01*
X60752529Y-60812547D01*
X60867453Y-60927471D01*
X60953923Y-61065087D01*
X61007603Y-61218494D01*
X61025800Y-61380000D01*
X61007603Y-61541506D01*
X60953923Y-61694913D01*
X60867453Y-61832529D01*
X60752529Y-61947453D01*
X60614913Y-62033923D01*
X60461506Y-62087603D01*
X60300000Y-62105800D01*
X60138494Y-62087603D01*
X59985087Y-62033923D01*
X59847471Y-61947453D01*
X59732547Y-61832529D01*
X59646077Y-61694913D01*
X59592397Y-61541506D01*
X59574200Y-61380000D01*
X59592397Y-61218494D01*
X59646077Y-61065087D01*
X59732547Y-60927471D01*
X59847471Y-60812547D01*
X59985087Y-60726077D01*
X60138494Y-60672397D01*
X60300000Y-60654200D01*
X60461506Y-60672397D01*
G37*
G36*
X65661506Y-60672397D02*
G01*
X65814913Y-60726077D01*
X65952529Y-60812547D01*
X66067453Y-60927471D01*
X66153923Y-61065087D01*
X66207603Y-61218494D01*
X66225800Y-61380000D01*
X66207603Y-61541506D01*
X66153923Y-61694913D01*
X66067453Y-61832529D01*
X65952529Y-61947453D01*
X65814913Y-62033923D01*
X65661506Y-62087603D01*
X65500000Y-62105800D01*
X65338494Y-62087603D01*
X65185087Y-62033923D01*
X65047471Y-61947453D01*
X64932547Y-61832529D01*
X64846077Y-61694913D01*
X64792397Y-61541506D01*
X64774200Y-61380000D01*
X64792397Y-61218494D01*
X64846077Y-61065087D01*
X64932547Y-60927471D01*
X65047471Y-60812547D01*
X65185087Y-60726077D01*
X65338494Y-60672397D01*
X65500000Y-60654200D01*
X65661506Y-60672397D01*
G37*
G36*
X70761506Y-60672397D02*
G01*
X70914913Y-60726077D01*
X71052529Y-60812547D01*
X71167453Y-60927471D01*
X71253923Y-61065087D01*
X71307603Y-61218494D01*
X71325800Y-61380000D01*
X71307603Y-61541506D01*
X71253923Y-61694913D01*
X71167453Y-61832529D01*
X71052529Y-61947453D01*
X70914913Y-62033923D01*
X70761506Y-62087603D01*
X70600000Y-62105800D01*
X70438494Y-62087603D01*
X70285087Y-62033923D01*
X70147471Y-61947453D01*
X70032547Y-61832529D01*
X69946077Y-61694913D01*
X69892397Y-61541506D01*
X69874200Y-61380000D01*
X69892397Y-61218494D01*
X69946077Y-61065087D01*
X70032547Y-60927471D01*
X70147471Y-60812547D01*
X70285087Y-60726077D01*
X70438494Y-60672397D01*
X70600000Y-60654200D01*
X70761506Y-60672397D01*
G37*
G36*
X55261506Y-58132397D02*
G01*
X55414913Y-58186077D01*
X55552529Y-58272547D01*
X55667453Y-58387471D01*
X55753923Y-58525087D01*
X55807603Y-58678494D01*
X55825800Y-58840000D01*
X55807603Y-59001506D01*
X55753923Y-59154913D01*
X55667453Y-59292529D01*
X55552529Y-59407453D01*
X55414913Y-59493923D01*
X55261506Y-59547603D01*
X55100000Y-59565800D01*
X54938494Y-59547603D01*
X54785087Y-59493923D01*
X54647471Y-59407453D01*
X54532547Y-59292529D01*
X54446077Y-59154913D01*
X54392397Y-59001506D01*
X54374200Y-58840000D01*
X54392397Y-58678494D01*
X54446077Y-58525087D01*
X54532547Y-58387471D01*
X54647471Y-58272547D01*
X54785087Y-58186077D01*
X54938494Y-58132397D01*
X55100000Y-58114200D01*
X55261506Y-58132397D01*
G37*
G36*
X60461506Y-58132397D02*
G01*
X60614913Y-58186077D01*
X60752529Y-58272547D01*
X60867453Y-58387471D01*
X60953923Y-58525087D01*
X61007603Y-58678494D01*
X61025800Y-58840000D01*
X61007603Y-59001506D01*
X60953923Y-59154913D01*
X60867453Y-59292529D01*
X60752529Y-59407453D01*
X60614913Y-59493923D01*
X60461506Y-59547603D01*
X60300000Y-59565800D01*
X60138494Y-59547603D01*
X59985087Y-59493923D01*
X59847471Y-59407453D01*
X59732547Y-59292529D01*
X59646077Y-59154913D01*
X59592397Y-59001506D01*
X59574200Y-58840000D01*
X59592397Y-58678494D01*
X59646077Y-58525087D01*
X59732547Y-58387471D01*
X59847471Y-58272547D01*
X59985087Y-58186077D01*
X60138494Y-58132397D01*
X60300000Y-58114200D01*
X60461506Y-58132397D01*
G37*
G36*
X65661506Y-58132397D02*
G01*
X65814913Y-58186077D01*
X65952529Y-58272547D01*
X66067453Y-58387471D01*
X66153923Y-58525087D01*
X66207603Y-58678494D01*
X66225800Y-58840000D01*
X66207603Y-59001506D01*
X66153923Y-59154913D01*
X66067453Y-59292529D01*
X65952529Y-59407453D01*
X65814913Y-59493923D01*
X65661506Y-59547603D01*
X65500000Y-59565800D01*
X65338494Y-59547603D01*
X65185087Y-59493923D01*
X65047471Y-59407453D01*
X64932547Y-59292529D01*
X64846077Y-59154913D01*
X64792397Y-59001506D01*
X64774200Y-58840000D01*
X64792397Y-58678494D01*
X64846077Y-58525087D01*
X64932547Y-58387471D01*
X65047471Y-58272547D01*
X65185087Y-58186077D01*
X65338494Y-58132397D01*
X65500000Y-58114200D01*
X65661506Y-58132397D01*
G37*
G36*
X70761506Y-58132397D02*
G01*
X70914913Y-58186077D01*
X71052529Y-58272547D01*
X71167453Y-58387471D01*
X71253923Y-58525087D01*
X71307603Y-58678494D01*
X71325800Y-58840000D01*
X71307603Y-59001506D01*
X71253923Y-59154913D01*
X71167453Y-59292529D01*
X71052529Y-59407453D01*
X70914913Y-59493923D01*
X70761506Y-59547603D01*
X70600000Y-59565800D01*
X70438494Y-59547603D01*
X70285087Y-59493923D01*
X70147471Y-59407453D01*
X70032547Y-59292529D01*
X69946077Y-59154913D01*
X69892397Y-59001506D01*
X69874200Y-58840000D01*
X69892397Y-58678494D01*
X69946077Y-58525087D01*
X70032547Y-58387471D01*
X70147471Y-58272547D01*
X70285087Y-58186077D01*
X70438494Y-58132397D01*
X70600000Y-58114200D01*
X70761506Y-58132397D01*
G37*
G36*
X80167069Y-56018024D02*
G01*
X80325760Y-56073553D01*
X80468116Y-56163001D01*
X80586999Y-56281884D01*
X80676447Y-56424240D01*
X80731976Y-56582931D01*
X80750800Y-56750000D01*
X80731976Y-56917069D01*
X80676447Y-57075760D01*
X80586999Y-57218116D01*
X80468116Y-57336999D01*
X80325760Y-57426447D01*
X80167069Y-57481976D01*
X80000000Y-57500800D01*
X79832931Y-57481976D01*
X79674240Y-57426447D01*
X79531884Y-57336999D01*
X79413001Y-57218116D01*
X79323553Y-57075760D01*
X79268024Y-56917069D01*
X79249200Y-56750000D01*
X79268024Y-56582931D01*
X79323553Y-56424240D01*
X79413001Y-56281884D01*
X79531884Y-56163001D01*
X79674240Y-56073553D01*
X79832931Y-56018024D01*
X80000000Y-55999200D01*
X80167069Y-56018024D01*
G37*
G36*
X55794440Y-55578067D02*
G01*
X55810921Y-55589079D01*
X55821933Y-55605560D01*
X55825800Y-55625000D01*
X55825800Y-56975000D01*
X55821933Y-56994440D01*
X55810921Y-57010921D01*
X55794440Y-57021933D01*
X55775000Y-57025800D01*
X54425000Y-57025800D01*
X54405560Y-57021933D01*
X54389079Y-57010921D01*
X54378067Y-56994440D01*
X54374200Y-56975000D01*
X54374200Y-55625000D01*
X54378067Y-55605560D01*
X54389079Y-55589079D01*
X54405560Y-55578067D01*
X54425000Y-55574200D01*
X55775000Y-55574200D01*
X55794440Y-55578067D01*
G37*
G36*
X60994440Y-55578067D02*
G01*
X61010921Y-55589079D01*
X61021933Y-55605560D01*
X61025800Y-55625000D01*
X61025800Y-56975000D01*
X61021933Y-56994440D01*
X61010921Y-57010921D01*
X60994440Y-57021933D01*
X60975000Y-57025800D01*
X59625000Y-57025800D01*
X59605560Y-57021933D01*
X59589079Y-57010921D01*
X59578067Y-56994440D01*
X59574200Y-56975000D01*
X59574200Y-55625000D01*
X59578067Y-55605560D01*
X59589079Y-55589079D01*
X59605560Y-55578067D01*
X59625000Y-55574200D01*
X60975000Y-55574200D01*
X60994440Y-55578067D01*
G37*
G36*
X66194440Y-55578067D02*
G01*
X66210921Y-55589079D01*
X66221933Y-55605560D01*
X66225800Y-55625000D01*
X66225800Y-56975000D01*
X66221933Y-56994440D01*
X66210921Y-57010921D01*
X66194440Y-57021933D01*
X66175000Y-57025800D01*
X64825000Y-57025800D01*
X64805560Y-57021933D01*
X64789079Y-57010921D01*
X64778067Y-56994440D01*
X64774200Y-56975000D01*
X64774200Y-55625000D01*
X64778067Y-55605560D01*
X64789079Y-55589079D01*
X64805560Y-55578067D01*
X64825000Y-55574200D01*
X66175000Y-55574200D01*
X66194440Y-55578067D01*
G37*
G36*
X71294440Y-55578067D02*
G01*
X71310921Y-55589079D01*
X71321933Y-55605560D01*
X71325800Y-55625000D01*
X71325800Y-56975000D01*
X71321933Y-56994440D01*
X71310921Y-57010921D01*
X71294440Y-57021933D01*
X71275000Y-57025800D01*
X69925000Y-57025800D01*
X69905560Y-57021933D01*
X69889079Y-57010921D01*
X69878067Y-56994440D01*
X69874200Y-56975000D01*
X69874200Y-55625000D01*
X69878067Y-55605560D01*
X69889079Y-55589079D01*
X69905560Y-55578067D01*
X69925000Y-55574200D01*
X71275000Y-55574200D01*
X71294440Y-55578067D01*
G37*
G36*
X89241506Y-52792397D02*
G01*
X89394913Y-52846077D01*
X89532529Y-52932547D01*
X89647453Y-53047471D01*
X89733923Y-53185087D01*
X89787603Y-53338494D01*
X89805800Y-53500000D01*
X89787603Y-53661506D01*
X89733923Y-53814913D01*
X89647453Y-53952529D01*
X89532529Y-54067453D01*
X89394913Y-54153923D01*
X89241506Y-54207603D01*
X89080000Y-54225800D01*
X88918494Y-54207603D01*
X88765087Y-54153923D01*
X88627471Y-54067453D01*
X88512547Y-53952529D01*
X88426077Y-53814913D01*
X88372397Y-53661506D01*
X88354200Y-53500000D01*
X88372397Y-53338494D01*
X88426077Y-53185087D01*
X88512547Y-53047471D01*
X88627471Y-52932547D01*
X88765087Y-52846077D01*
X88918494Y-52792397D01*
X89080000Y-52774200D01*
X89241506Y-52792397D01*
G37*
G36*
X91781506Y-52792397D02*
G01*
X91934913Y-52846077D01*
X92072529Y-52932547D01*
X92187453Y-53047471D01*
X92273923Y-53185087D01*
X92327603Y-53338494D01*
X92345800Y-53500000D01*
X92327603Y-53661506D01*
X92273923Y-53814913D01*
X92187453Y-53952529D01*
X92072529Y-54067453D01*
X91934913Y-54153923D01*
X91781506Y-54207603D01*
X91620000Y-54225800D01*
X91458494Y-54207603D01*
X91305087Y-54153923D01*
X91167471Y-54067453D01*
X91052547Y-53952529D01*
X90966077Y-53814913D01*
X90912397Y-53661506D01*
X90894200Y-53500000D01*
X90912397Y-53338494D01*
X90966077Y-53185087D01*
X91052547Y-53047471D01*
X91167471Y-52932547D01*
X91305087Y-52846077D01*
X91458494Y-52792397D01*
X91620000Y-52774200D01*
X91781506Y-52792397D01*
G37*
G36*
X94321506Y-52792397D02*
G01*
X94474913Y-52846077D01*
X94612529Y-52932547D01*
X94727453Y-53047471D01*
X94813923Y-53185087D01*
X94867603Y-53338494D01*
X94885800Y-53500000D01*
X94867603Y-53661506D01*
X94813923Y-53814913D01*
X94727453Y-53952529D01*
X94612529Y-54067453D01*
X94474913Y-54153923D01*
X94321506Y-54207603D01*
X94160000Y-54225800D01*
X93998494Y-54207603D01*
X93845087Y-54153923D01*
X93707471Y-54067453D01*
X93592547Y-53952529D01*
X93506077Y-53814913D01*
X93452397Y-53661506D01*
X93434200Y-53500000D01*
X93452397Y-53338494D01*
X93506077Y-53185087D01*
X93592547Y-53047471D01*
X93707471Y-52932547D01*
X93845087Y-52846077D01*
X93998494Y-52792397D01*
X94160000Y-52774200D01*
X94321506Y-52792397D01*
G37*
G36*
X97394440Y-52778067D02*
G01*
X97410921Y-52789079D01*
X97421933Y-52805560D01*
X97425800Y-52825000D01*
X97425800Y-54175000D01*
X97421933Y-54194440D01*
X97410921Y-54210921D01*
X97394440Y-54221933D01*
X97375000Y-54225800D01*
X96025000Y-54225800D01*
X96005560Y-54221933D01*
X95989079Y-54210921D01*
X95978067Y-54194440D01*
X95974200Y-54175000D01*
X95974200Y-52825000D01*
X95978067Y-52805560D01*
X95989079Y-52789079D01*
X96005560Y-52778067D01*
X96025000Y-52774200D01*
X97375000Y-52774200D01*
X97394440Y-52778067D01*
G37*
G36*
X80167069Y-51518024D02*
G01*
X80325760Y-51573553D01*
X80468116Y-51663001D01*
X80586999Y-51781884D01*
X80676447Y-51924240D01*
X80731976Y-52082931D01*
X80750800Y-52250000D01*
X80731976Y-52417069D01*
X80676447Y-52575760D01*
X80586999Y-52718116D01*
X80468116Y-52836999D01*
X80325760Y-52926447D01*
X80167069Y-52981976D01*
X80000000Y-53000800D01*
X79832931Y-52981976D01*
X79674240Y-52926447D01*
X79531884Y-52836999D01*
X79413001Y-52718116D01*
X79323553Y-52575760D01*
X79268024Y-52417069D01*
X79249200Y-52250000D01*
X79268024Y-52082931D01*
X79323553Y-51924240D01*
X79413001Y-51781884D01*
X79531884Y-51663001D01*
X79674240Y-51573553D01*
X79832931Y-51518024D01*
X80000000Y-51499200D01*
X80167069Y-51518024D01*
G37*
M02*
