G04 #@! TF.GenerationSoftware,KiCad,Pcbnew,6.0.11+dfsg-1*
G04 #@! TF.CreationDate,2024-05-04T22:48:08-04:00*
G04 #@! TF.ProjectId,mystat,6d797374-6174-42e6-9b69-6361645f7063,rev?*
G04 #@! TF.SameCoordinates,Original*
G04 #@! TF.FileFunction,Copper,L4,Bot*
G04 #@! TF.FilePolarity,Positive*
%FSLAX46Y46*%
G04 Gerber Fmt 4.6, Leading zero omitted, Abs format (unit mm)*
G04 Created by KiCad (PCBNEW 6.0.11+dfsg-1) date 2024-05-04 22:48:08*
%MOMM*%
%LPD*%
G01*
G04 APERTURE LIST*
G04 #@! TA.AperFunction,ComponentPad*
%ADD10C,1.500000*%
G04 #@! TD*
G04 #@! TA.AperFunction,ComponentPad*
%ADD11R,1.350000X1.350000*%
G04 #@! TD*
G04 #@! TA.AperFunction,ComponentPad*
%ADD12O,1.350000X1.350000*%
G04 #@! TD*
G04 #@! TA.AperFunction,ComponentPad*
%ADD13O,4.000000X2.000000*%
G04 #@! TD*
G04 #@! TA.AperFunction,ComponentPad*
%ADD14O,3.300000X2.000000*%
G04 #@! TD*
G04 #@! TA.AperFunction,ComponentPad*
%ADD15O,2.000000X3.500000*%
G04 #@! TD*
G04 #@! TA.AperFunction,ComponentPad*
%ADD16R,1.700000X1.700000*%
G04 #@! TD*
G04 #@! TA.AperFunction,ComponentPad*
%ADD17O,1.700000X1.700000*%
G04 #@! TD*
G04 #@! TA.AperFunction,ViaPad*
%ADD18C,0.762000*%
G04 #@! TD*
G04 #@! TA.AperFunction,Conductor*
%ADD19C,0.254000*%
G04 #@! TD*
G04 APERTURE END LIST*
D10*
X57470000Y-118190000D03*
X62350000Y-118190000D03*
D11*
X55100000Y-56300000D03*
D12*
X55100000Y-58840000D03*
X55100000Y-61380000D03*
X55100000Y-63920000D03*
D11*
X96700000Y-53500000D03*
D12*
X94160000Y-53500000D03*
X91620000Y-53500000D03*
X89080000Y-53500000D03*
D11*
X60300000Y-56300000D03*
D12*
X60300000Y-58840000D03*
X60300000Y-61380000D03*
X60300000Y-63920000D03*
D11*
X70600000Y-56300000D03*
D12*
X70600000Y-58840000D03*
X70600000Y-61380000D03*
X70600000Y-63920000D03*
D11*
X65500000Y-56300000D03*
D12*
X65500000Y-58840000D03*
X65500000Y-61380000D03*
X65500000Y-63920000D03*
D13*
X100000000Y-118700000D03*
D14*
X100000000Y-124700000D03*
D15*
X104500000Y-125700000D03*
X95500000Y-125700000D03*
D16*
X67400000Y-127700000D03*
D17*
X64860000Y-127700000D03*
X62320000Y-127700000D03*
X59780000Y-127700000D03*
X57240000Y-127700000D03*
X54700000Y-127700000D03*
D18*
X79430943Y-120637404D03*
X78180943Y-120637404D03*
X79430943Y-116737404D03*
X80730943Y-116787404D03*
X81980943Y-116737404D03*
X81980943Y-115487404D03*
X80730943Y-115487404D03*
X79430943Y-115487404D03*
X78180943Y-114237404D03*
X79430943Y-114237404D03*
X81980943Y-114187404D03*
X80730943Y-114237404D03*
X79480943Y-112937404D03*
X78180943Y-112987404D03*
X78180943Y-111687404D03*
X95305758Y-97600000D03*
X71662500Y-126917500D03*
X54965600Y-97739200D03*
X61300000Y-67862500D03*
X86000000Y-94600000D03*
X54800000Y-122600000D03*
X88000000Y-124000000D03*
X74900000Y-97800000D03*
X94900000Y-105002868D03*
X73900000Y-66337500D03*
X75062500Y-104937500D03*
X84300000Y-66900000D03*
X79300000Y-71537500D03*
X92800000Y-66900000D03*
X104000000Y-57200000D03*
X102959632Y-110340368D03*
X60180601Y-110309399D03*
X55200000Y-81600000D03*
X95962500Y-69700000D03*
X71600000Y-91200000D03*
X75000000Y-127000000D03*
X87562500Y-69700000D03*
X106047593Y-108340368D03*
X91000000Y-73500000D03*
X75100000Y-93600000D03*
X95000000Y-78000000D03*
X91500000Y-99300000D03*
X90337500Y-83900000D03*
X77550000Y-89310000D03*
X64800000Y-122600000D03*
X99200000Y-90040000D03*
X77680000Y-84750000D03*
X53407733Y-67862940D03*
X101300000Y-75100000D03*
X62791708Y-115009399D03*
X103026497Y-102616761D03*
X53300000Y-73100000D03*
X62900000Y-82100000D03*
X101300000Y-84000000D03*
X61300000Y-73100000D03*
X75700000Y-96600000D03*
X88462500Y-83900000D03*
X100062500Y-86100000D03*
X82700000Y-63206263D03*
X77500000Y-80300000D03*
X91306263Y-63206263D03*
X73900000Y-64462500D03*
X104816761Y-95816761D03*
X89437500Y-69700000D03*
X84200000Y-90500000D03*
X96400000Y-75100000D03*
X97837500Y-69700000D03*
X79300000Y-69662500D03*
X86200000Y-71900000D03*
X105750000Y-93000000D03*
X84200000Y-94500000D03*
X68300000Y-82100000D03*
X88500000Y-106500000D03*
X68430000Y-124130000D03*
X70362500Y-99837500D03*
X60100000Y-84400000D03*
X73367972Y-101332028D03*
X77662500Y-76962500D03*
X82562500Y-77337500D03*
X60286560Y-74383440D03*
X101300000Y-82100000D03*
X103845011Y-80045011D03*
X59800000Y-71100000D03*
X85850000Y-78750000D03*
X75300000Y-74000000D03*
X82500000Y-87600000D03*
X82500000Y-81900000D03*
X68162500Y-67862500D03*
X60840000Y-95260000D03*
X69700000Y-118100000D03*
X70199000Y-115099000D03*
X62365000Y-96545000D03*
X74100000Y-59300000D03*
X64410000Y-93980000D03*
X63000000Y-92800000D03*
X60445000Y-90205000D03*
X53900000Y-87300000D03*
X56125000Y-85075000D03*
D19*
X104033522Y-96600000D02*
X104816761Y-95816761D01*
X90662500Y-86100000D02*
X100062500Y-86100000D01*
X107750000Y-90482956D02*
X103367044Y-86100000D01*
X84862500Y-80300000D02*
X85431250Y-80868750D01*
X97956263Y-63206263D02*
X91306263Y-63206263D01*
X75700000Y-96600000D02*
X104033522Y-96600000D01*
X103367044Y-86100000D02*
X103367044Y-84132956D01*
X105500000Y-70750000D02*
X97956263Y-63206263D01*
X104816761Y-95816761D02*
X106683239Y-95816761D01*
X105500000Y-82000000D02*
X105500000Y-70750000D01*
X100062500Y-86100000D02*
X103367044Y-86100000D01*
X107750000Y-94750000D02*
X107750000Y-90482956D01*
X106683239Y-95816761D02*
X107750000Y-94750000D01*
X85431250Y-80868750D02*
X88462500Y-83900000D01*
X88462500Y-83900000D02*
X90662500Y-86100000D01*
X77500000Y-80300000D02*
X84862500Y-80300000D01*
X103367044Y-84132956D02*
X105500000Y-82000000D01*
X73900000Y-64462500D02*
X81443763Y-64462500D01*
X82700000Y-63206263D02*
X91306263Y-63206263D01*
X81443763Y-64462500D02*
X82700000Y-63206263D01*
X85500000Y-92338815D02*
X85500000Y-93000000D01*
X87237500Y-71900000D02*
X89437500Y-69700000D01*
X85700000Y-93000000D02*
X84200000Y-94500000D01*
X97837500Y-69700000D02*
X97837500Y-73662500D01*
X90326501Y-70589001D02*
X96948499Y-70589001D01*
X79300000Y-69662500D02*
X81537500Y-71900000D01*
X96948499Y-70589001D02*
X97837500Y-69700000D01*
X89437500Y-69700000D02*
X90326501Y-70589001D01*
X85700000Y-93000000D02*
X85500000Y-93000000D01*
X81537500Y-71900000D02*
X86200000Y-71900000D01*
X105750000Y-93000000D02*
X85700000Y-93000000D01*
X84200000Y-90500000D02*
X84200000Y-91038815D01*
X86200000Y-71900000D02*
X87237500Y-71900000D01*
X97837500Y-73662500D02*
X96400000Y-75100000D01*
X84200000Y-91038815D02*
X85500000Y-92338815D01*
X66538815Y-84400000D02*
X60100000Y-84400000D01*
X70270000Y-124130000D02*
X74173499Y-120226501D01*
X68300000Y-82638815D02*
X66538815Y-84400000D01*
X88500000Y-106500000D02*
X74346998Y-106500000D01*
X70362500Y-99837500D02*
X70362500Y-84162500D01*
X70362500Y-100699780D02*
X70362500Y-99837500D01*
X74173499Y-120226501D02*
X74173499Y-106673499D01*
X74346998Y-106500000D02*
X74173499Y-106673499D01*
X68300000Y-82100000D02*
X68300000Y-82638815D01*
X74173499Y-106673499D02*
X74173499Y-104510779D01*
X68430000Y-124130000D02*
X70270000Y-124130000D01*
X70362500Y-84162500D02*
X68300000Y-82100000D01*
X74173499Y-104510779D02*
X70362500Y-100699780D01*
X77123685Y-76962500D02*
X74640211Y-79445974D01*
X77662500Y-76962500D02*
X77123685Y-76962500D01*
X74640211Y-79445974D02*
X73367972Y-79445974D01*
X73367972Y-79445974D02*
X68305438Y-74383440D01*
X68305438Y-74383440D02*
X60286560Y-74383440D01*
X78037500Y-77337500D02*
X77662500Y-76962500D01*
X73367972Y-101332028D02*
X73367972Y-79445974D01*
X82562500Y-77337500D02*
X78037500Y-77337500D01*
X103845011Y-80045011D02*
X103354989Y-80045011D01*
X103354989Y-80045011D02*
X101300000Y-82100000D01*
X83038815Y-75400000D02*
X72800000Y-75400000D01*
X72800000Y-75400000D02*
X68500000Y-71100000D01*
X85850000Y-78211185D02*
X83038815Y-75400000D01*
X68500000Y-71100000D02*
X59800000Y-71100000D01*
X85850000Y-78750000D02*
X85850000Y-78211185D01*
X75300000Y-74000000D02*
X69162500Y-67862500D01*
X69162500Y-67862500D02*
X68162500Y-67862500D01*
X82500000Y-81900000D02*
X82500000Y-87600000D01*
X63236000Y-95260000D02*
X66188000Y-98212000D01*
X66188000Y-98212000D02*
X66188000Y-98271566D01*
X71700000Y-103783566D02*
X71700000Y-116100000D01*
X63236000Y-95260000D02*
X60840000Y-95260000D01*
X66188000Y-98271566D02*
X71700000Y-103783566D01*
X71700000Y-116100000D02*
X69700000Y-118100000D01*
X70949000Y-103751000D02*
X70949000Y-114349000D01*
X64498000Y-97300000D02*
X70949000Y-103751000D01*
X62365000Y-96545000D02*
X63743000Y-96545000D01*
X70949000Y-114349000D02*
X70199000Y-115099000D01*
X63743000Y-96545000D02*
X64498000Y-97300000D01*
X87979001Y-59680999D02*
X94160000Y-53500000D01*
X74100000Y-59300000D02*
X74480999Y-59680999D01*
X74480999Y-59680999D02*
X87979001Y-59680999D01*
X66788000Y-125984000D02*
X67400000Y-126596000D01*
X61722000Y-125984000D02*
X66788000Y-125984000D01*
X54037999Y-97539039D02*
X54037999Y-118299999D01*
X54037999Y-118299999D02*
X61722000Y-125984000D01*
X57597038Y-93980000D02*
X54037999Y-97539039D01*
X64410000Y-93980000D02*
X57597038Y-93980000D01*
X67400000Y-126596000D02*
X67400000Y-127700000D01*
X58058604Y-92800000D02*
X52007999Y-98850605D01*
X63000000Y-92800000D02*
X58058604Y-92800000D01*
X52007999Y-98850605D02*
X52007999Y-117918001D01*
X52007999Y-117918001D02*
X59780000Y-125690002D01*
X59780000Y-125690002D02*
X59780000Y-127700000D01*
X60064001Y-90585999D02*
X59554171Y-90585999D01*
X60445000Y-90205000D02*
X60064001Y-90585999D01*
X51499989Y-98640181D02*
X51499989Y-121959989D01*
X51499989Y-121959989D02*
X57240000Y-127700000D01*
X59554171Y-90585999D02*
X51499989Y-98640181D01*
X56125000Y-85075000D02*
X53900000Y-87300000D01*
G04 #@! TA.AperFunction,Conductor*
G36*
X109687621Y-50274502D02*
G01*
X109734114Y-50328158D01*
X109745500Y-50380500D01*
X109745500Y-130619500D01*
X109725498Y-130687621D01*
X109671842Y-130734114D01*
X109619500Y-130745500D01*
X50380500Y-130745500D01*
X50312379Y-130725498D01*
X50265886Y-130671842D01*
X50254500Y-130619500D01*
X50254500Y-127670964D01*
X53591148Y-127670964D01*
X53604424Y-127873522D01*
X53605845Y-127879118D01*
X53605846Y-127879123D01*
X53626119Y-127958945D01*
X53654392Y-128070269D01*
X53656809Y-128075512D01*
X53694010Y-128156208D01*
X53739377Y-128254616D01*
X53856533Y-128420389D01*
X54001938Y-128562035D01*
X54170720Y-128674812D01*
X54176023Y-128677090D01*
X54176026Y-128677092D01*
X54351921Y-128752662D01*
X54357228Y-128754942D01*
X54430244Y-128771464D01*
X54549579Y-128798467D01*
X54549584Y-128798468D01*
X54555216Y-128799742D01*
X54560987Y-128799969D01*
X54560989Y-128799969D01*
X54620756Y-128802317D01*
X54758053Y-128807712D01*
X54865348Y-128792155D01*
X54953231Y-128779413D01*
X54953236Y-128779412D01*
X54958945Y-128778584D01*
X54964409Y-128776729D01*
X54964414Y-128776728D01*
X55145693Y-128715192D01*
X55145698Y-128715190D01*
X55151165Y-128713334D01*
X55328276Y-128614147D01*
X55362770Y-128585459D01*
X55455696Y-128508172D01*
X55484345Y-128484345D01*
X55520091Y-128441365D01*
X55610453Y-128332718D01*
X55610455Y-128332715D01*
X55614147Y-128328276D01*
X55713334Y-128151165D01*
X55715190Y-128145698D01*
X55715192Y-128145693D01*
X55776728Y-127964414D01*
X55776729Y-127964409D01*
X55778584Y-127958945D01*
X55779412Y-127953236D01*
X55779413Y-127953231D01*
X55799913Y-127811841D01*
X55807712Y-127758053D01*
X55809232Y-127700000D01*
X55797471Y-127572000D01*
X55791187Y-127503613D01*
X55791186Y-127503610D01*
X55790658Y-127497859D01*
X55785918Y-127481052D01*
X55737125Y-127308046D01*
X55737124Y-127308044D01*
X55735557Y-127302487D01*
X55732001Y-127295275D01*
X55648331Y-127125609D01*
X55645776Y-127120428D01*
X55524320Y-126957779D01*
X55375258Y-126819987D01*
X55370375Y-126816906D01*
X55370371Y-126816903D01*
X55208464Y-126714748D01*
X55203581Y-126711667D01*
X55015039Y-126636446D01*
X55009379Y-126635320D01*
X55009375Y-126635319D01*
X54821613Y-126597971D01*
X54821610Y-126597971D01*
X54815946Y-126596844D01*
X54810171Y-126596768D01*
X54810167Y-126596768D01*
X54708793Y-126595441D01*
X54612971Y-126594187D01*
X54607274Y-126595166D01*
X54607273Y-126595166D01*
X54479271Y-126617161D01*
X54412910Y-126628564D01*
X54222463Y-126698824D01*
X54048010Y-126802612D01*
X54043670Y-126806418D01*
X54043666Y-126806421D01*
X53911153Y-126922633D01*
X53895392Y-126936455D01*
X53769720Y-127095869D01*
X53767031Y-127100980D01*
X53767029Y-127100983D01*
X53727913Y-127175330D01*
X53675203Y-127275515D01*
X53615007Y-127469378D01*
X53591148Y-127670964D01*
X50254500Y-127670964D01*
X50254500Y-121941769D01*
X51113644Y-121941769D01*
X51114868Y-121952109D01*
X51117616Y-121975331D01*
X51117968Y-121981309D01*
X51118061Y-121981301D01*
X51118489Y-121986479D01*
X51118489Y-121991681D01*
X51119343Y-121996811D01*
X51121675Y-122010821D01*
X51122511Y-122016693D01*
X51128571Y-122067896D01*
X51132556Y-122076195D01*
X51134067Y-122085272D01*
X51158547Y-122130640D01*
X51161228Y-122135903D01*
X51180116Y-122175239D01*
X51180119Y-122175243D01*
X51183549Y-122182387D01*
X51187159Y-122186681D01*
X51189091Y-122188613D01*
X51190878Y-122190562D01*
X51190907Y-122190615D01*
X51190777Y-122190734D01*
X51191278Y-122191302D01*
X51194377Y-122197046D01*
X51202022Y-122204113D01*
X51234198Y-122233856D01*
X51237764Y-122237286D01*
X56175807Y-127175330D01*
X56209833Y-127237642D01*
X56207044Y-127301789D01*
X56156722Y-127463851D01*
X56156720Y-127463861D01*
X56155007Y-127469378D01*
X56131148Y-127670964D01*
X56144424Y-127873522D01*
X56145845Y-127879118D01*
X56145846Y-127879123D01*
X56166119Y-127958945D01*
X56194392Y-128070269D01*
X56196809Y-128075512D01*
X56234010Y-128156208D01*
X56279377Y-128254616D01*
X56396533Y-128420389D01*
X56541938Y-128562035D01*
X56710720Y-128674812D01*
X56716023Y-128677090D01*
X56716026Y-128677092D01*
X56891921Y-128752662D01*
X56897228Y-128754942D01*
X56970244Y-128771464D01*
X57089579Y-128798467D01*
X57089584Y-128798468D01*
X57095216Y-128799742D01*
X57100987Y-128799969D01*
X57100989Y-128799969D01*
X57160756Y-128802317D01*
X57298053Y-128807712D01*
X57405348Y-128792155D01*
X57493231Y-128779413D01*
X57493236Y-128779412D01*
X57498945Y-128778584D01*
X57504409Y-128776729D01*
X57504414Y-128776728D01*
X57685693Y-128715192D01*
X57685698Y-128715190D01*
X57691165Y-128713334D01*
X57868276Y-128614147D01*
X57902770Y-128585459D01*
X57995696Y-128508172D01*
X58024345Y-128484345D01*
X58060091Y-128441365D01*
X58150453Y-128332718D01*
X58150455Y-128332715D01*
X58154147Y-128328276D01*
X58253334Y-128151165D01*
X58255190Y-128145698D01*
X58255192Y-128145693D01*
X58316728Y-127964414D01*
X58316729Y-127964409D01*
X58318584Y-127958945D01*
X58319412Y-127953236D01*
X58319413Y-127953231D01*
X58339913Y-127811841D01*
X58347712Y-127758053D01*
X58349232Y-127700000D01*
X58337471Y-127572000D01*
X58331187Y-127503613D01*
X58331186Y-127503610D01*
X58330658Y-127497859D01*
X58325918Y-127481052D01*
X58277125Y-127308046D01*
X58277124Y-127308044D01*
X58275557Y-127302487D01*
X58272001Y-127295275D01*
X58188331Y-127125609D01*
X58185776Y-127120428D01*
X58064320Y-126957779D01*
X57915258Y-126819987D01*
X57910375Y-126816906D01*
X57910371Y-126816903D01*
X57748464Y-126714748D01*
X57743581Y-126711667D01*
X57555039Y-126636446D01*
X57549379Y-126635320D01*
X57549375Y-126635319D01*
X57361613Y-126597971D01*
X57361610Y-126597971D01*
X57355946Y-126596844D01*
X57350171Y-126596768D01*
X57350167Y-126596768D01*
X57248793Y-126595441D01*
X57152971Y-126594187D01*
X57147274Y-126595166D01*
X57147273Y-126595166D01*
X57019271Y-126617161D01*
X56952910Y-126628564D01*
X56849737Y-126666627D01*
X56778905Y-126671439D01*
X56717032Y-126637510D01*
X54324316Y-124244793D01*
X51918394Y-121838871D01*
X51884368Y-121776559D01*
X51881489Y-121749776D01*
X51881489Y-118635203D01*
X51901491Y-118567082D01*
X51955147Y-118520589D01*
X52025421Y-118510485D01*
X52090001Y-118539979D01*
X52096584Y-118546108D01*
X55732862Y-122182387D01*
X59361595Y-125811120D01*
X59395621Y-125873432D01*
X59398500Y-125900215D01*
X59398500Y-126575577D01*
X59378498Y-126643698D01*
X59324842Y-126690191D01*
X59316112Y-126693789D01*
X59302463Y-126698824D01*
X59128010Y-126802612D01*
X59123670Y-126806418D01*
X59123666Y-126806421D01*
X58991153Y-126922633D01*
X58975392Y-126936455D01*
X58849720Y-127095869D01*
X58847031Y-127100980D01*
X58847029Y-127100983D01*
X58807913Y-127175330D01*
X58755203Y-127275515D01*
X58695007Y-127469378D01*
X58671148Y-127670964D01*
X58684424Y-127873522D01*
X58685845Y-127879118D01*
X58685846Y-127879123D01*
X58706119Y-127958945D01*
X58734392Y-128070269D01*
X58736809Y-128075512D01*
X58774010Y-128156208D01*
X58819377Y-128254616D01*
X58936533Y-128420389D01*
X59081938Y-128562035D01*
X59250720Y-128674812D01*
X59256023Y-128677090D01*
X59256026Y-128677092D01*
X59431921Y-128752662D01*
X59437228Y-128754942D01*
X59510244Y-128771464D01*
X59629579Y-128798467D01*
X59629584Y-128798468D01*
X59635216Y-128799742D01*
X59640987Y-128799969D01*
X59640989Y-128799969D01*
X59700756Y-128802317D01*
X59838053Y-128807712D01*
X59945348Y-128792155D01*
X60033231Y-128779413D01*
X60033236Y-128779412D01*
X60038945Y-128778584D01*
X60044409Y-128776729D01*
X60044414Y-128776728D01*
X60225693Y-128715192D01*
X60225698Y-128715190D01*
X60231165Y-128713334D01*
X60408276Y-128614147D01*
X60442770Y-128585459D01*
X60535696Y-128508172D01*
X60564345Y-128484345D01*
X60600091Y-128441365D01*
X60690453Y-128332718D01*
X60690455Y-128332715D01*
X60694147Y-128328276D01*
X60793334Y-128151165D01*
X60795720Y-128144135D01*
X60796170Y-128143496D01*
X60797541Y-128140416D01*
X60798146Y-128140685D01*
X60836553Y-128086059D01*
X60902305Y-128059278D01*
X60972098Y-128072295D01*
X61023773Y-128120980D01*
X61031777Y-128137229D01*
X61101770Y-128309603D01*
X61106413Y-128318794D01*
X61217694Y-128500388D01*
X61223777Y-128508699D01*
X61363213Y-128669667D01*
X61370580Y-128676883D01*
X61534434Y-128812916D01*
X61542881Y-128818831D01*
X61726756Y-128926279D01*
X61736042Y-128930729D01*
X61935001Y-129006703D01*
X61944899Y-129009579D01*
X62048250Y-129030606D01*
X62062299Y-129029410D01*
X62066000Y-129019065D01*
X62066000Y-127572000D01*
X62086002Y-127503879D01*
X62139658Y-127457386D01*
X62192000Y-127446000D01*
X62448000Y-127446000D01*
X62516121Y-127466002D01*
X62562614Y-127519658D01*
X62574000Y-127572000D01*
X62574000Y-129018517D01*
X62578064Y-129032359D01*
X62591478Y-129034393D01*
X62598184Y-129033534D01*
X62608262Y-129031392D01*
X62812255Y-128970191D01*
X62821842Y-128966433D01*
X63013095Y-128872739D01*
X63021945Y-128867464D01*
X63195328Y-128743792D01*
X63203200Y-128737139D01*
X63354052Y-128586812D01*
X63360730Y-128578965D01*
X63485003Y-128406020D01*
X63490313Y-128397183D01*
X63584670Y-128206267D01*
X63588469Y-128196672D01*
X63605066Y-128142047D01*
X63644007Y-128082683D01*
X63708862Y-128053796D01*
X63779038Y-128064558D01*
X63832256Y-128111551D01*
X63840048Y-128125922D01*
X63899377Y-128254616D01*
X64016533Y-128420389D01*
X64161938Y-128562035D01*
X64330720Y-128674812D01*
X64336023Y-128677090D01*
X64336026Y-128677092D01*
X64511921Y-128752662D01*
X64517228Y-128754942D01*
X64590244Y-128771464D01*
X64709579Y-128798467D01*
X64709584Y-128798468D01*
X64715216Y-128799742D01*
X64720987Y-128799969D01*
X64720989Y-128799969D01*
X64780756Y-128802317D01*
X64918053Y-128807712D01*
X65025348Y-128792155D01*
X65113231Y-128779413D01*
X65113236Y-128779412D01*
X65118945Y-128778584D01*
X65124409Y-128776729D01*
X65124414Y-128776728D01*
X65305693Y-128715192D01*
X65305698Y-128715190D01*
X65311165Y-128713334D01*
X65488276Y-128614147D01*
X65522770Y-128585459D01*
X65615696Y-128508172D01*
X65644345Y-128484345D01*
X65680091Y-128441365D01*
X65770453Y-128332718D01*
X65770455Y-128332715D01*
X65774147Y-128328276D01*
X65873334Y-128151165D01*
X65875190Y-128145698D01*
X65875192Y-128145693D01*
X65936728Y-127964414D01*
X65936729Y-127964409D01*
X65938584Y-127958945D01*
X65939412Y-127953236D01*
X65939413Y-127953231D01*
X65959913Y-127811841D01*
X65967712Y-127758053D01*
X65969232Y-127700000D01*
X65957471Y-127572000D01*
X65951187Y-127503613D01*
X65951186Y-127503610D01*
X65950658Y-127497859D01*
X65945918Y-127481052D01*
X65897125Y-127308046D01*
X65897124Y-127308044D01*
X65895557Y-127302487D01*
X65892001Y-127295275D01*
X65808331Y-127125609D01*
X65805776Y-127120428D01*
X65684320Y-126957779D01*
X65535258Y-126819987D01*
X65530375Y-126816906D01*
X65530371Y-126816903D01*
X65368464Y-126714748D01*
X65363581Y-126711667D01*
X65175039Y-126636446D01*
X65169379Y-126635320D01*
X65169375Y-126635319D01*
X65067620Y-126615079D01*
X65004710Y-126582172D01*
X64969578Y-126520477D01*
X64973378Y-126449582D01*
X65014904Y-126391996D01*
X65080970Y-126366001D01*
X65092201Y-126365500D01*
X66414500Y-126365500D01*
X66482621Y-126385502D01*
X66529114Y-126439158D01*
X66539218Y-126509432D01*
X66509724Y-126574012D01*
X66462781Y-126607863D01*
X66450699Y-126610266D01*
X66440379Y-126617161D01*
X66440378Y-126617162D01*
X66400665Y-126643698D01*
X66366516Y-126666516D01*
X66310266Y-126750699D01*
X66295500Y-126824933D01*
X66295501Y-128575066D01*
X66310266Y-128649301D01*
X66317161Y-128659620D01*
X66317162Y-128659622D01*
X66357516Y-128720015D01*
X66366516Y-128733484D01*
X66450699Y-128789734D01*
X66524933Y-128804500D01*
X67399858Y-128804500D01*
X68275066Y-128804499D01*
X68310818Y-128797388D01*
X68337126Y-128792156D01*
X68337128Y-128792155D01*
X68349301Y-128789734D01*
X68359621Y-128782839D01*
X68359622Y-128782838D01*
X68423168Y-128740377D01*
X68433484Y-128733484D01*
X68489734Y-128649301D01*
X68504500Y-128575067D01*
X68504499Y-126824934D01*
X68489734Y-126750699D01*
X68473286Y-126726082D01*
X68440377Y-126676832D01*
X68433484Y-126666516D01*
X68349301Y-126610266D01*
X68275067Y-126595500D01*
X67895446Y-126595500D01*
X67827325Y-126575498D01*
X67780832Y-126521842D01*
X67775861Y-126508456D01*
X93992000Y-126508456D01*
X93992202Y-126513488D01*
X94006150Y-126686843D01*
X94007762Y-126696796D01*
X94063233Y-126922633D01*
X94066416Y-126932203D01*
X94157280Y-127146265D01*
X94161955Y-127155207D01*
X94285874Y-127351987D01*
X94291914Y-127360060D01*
X94445703Y-127534500D01*
X94452956Y-127541504D01*
X94632654Y-127689110D01*
X94640936Y-127694866D01*
X94841919Y-127811841D01*
X94851024Y-127816203D01*
X95068115Y-127899537D01*
X95077804Y-127902388D01*
X95228264Y-127933821D01*
X95242325Y-127932698D01*
X95246000Y-127922590D01*
X95246000Y-127920590D01*
X95754000Y-127920590D01*
X95758136Y-127934676D01*
X95771114Y-127936725D01*
X95788830Y-127934675D01*
X95798727Y-127932715D01*
X96022494Y-127869396D01*
X96031938Y-127865884D01*
X96242705Y-127767601D01*
X96251471Y-127762622D01*
X96354500Y-127692603D01*
X98940424Y-127692603D01*
X98942328Y-127713526D01*
X98956364Y-127867755D01*
X98959166Y-127898550D01*
X99017554Y-128096934D01*
X99020411Y-128102399D01*
X99110508Y-128274739D01*
X99110511Y-128274743D01*
X99113363Y-128280199D01*
X99117223Y-128284999D01*
X99117223Y-128285000D01*
X99123271Y-128292522D01*
X99242943Y-128441365D01*
X99401360Y-128574292D01*
X99582578Y-128673918D01*
X99779696Y-128736447D01*
X99785813Y-128737133D01*
X99785817Y-128737134D01*
X99861837Y-128745661D01*
X99940640Y-128754500D01*
X100052034Y-128754500D01*
X100205811Y-128739422D01*
X100403783Y-128679651D01*
X100526978Y-128614147D01*
X100580933Y-128585459D01*
X100580936Y-128585457D01*
X100586375Y-128582565D01*
X100591145Y-128578674D01*
X100591149Y-128578672D01*
X100741857Y-128455758D01*
X100741860Y-128455755D01*
X100746632Y-128451863D01*
X100759288Y-128436565D01*
X100874522Y-128297271D01*
X100874525Y-128297266D01*
X100878450Y-128292522D01*
X100885113Y-128280199D01*
X100973878Y-128116032D01*
X100973880Y-128116027D01*
X100976808Y-128110612D01*
X101037960Y-127913063D01*
X101048599Y-127811841D01*
X101058932Y-127713526D01*
X101058932Y-127713524D01*
X101059576Y-127707397D01*
X101040834Y-127501450D01*
X100982446Y-127303066D01*
X100960383Y-127260863D01*
X100889492Y-127125261D01*
X100889489Y-127125257D01*
X100886637Y-127119801D01*
X100881089Y-127112900D01*
X100855477Y-127081046D01*
X100757057Y-126958635D01*
X100598640Y-126825708D01*
X100417422Y-126726082D01*
X100318863Y-126694817D01*
X100226177Y-126665416D01*
X100220304Y-126663553D01*
X100214187Y-126662867D01*
X100214183Y-126662866D01*
X100138163Y-126654339D01*
X100059360Y-126645500D01*
X99947966Y-126645500D01*
X99794189Y-126660578D01*
X99596217Y-126720349D01*
X99539137Y-126750699D01*
X99419067Y-126814541D01*
X99419064Y-126814543D01*
X99413625Y-126817435D01*
X99408855Y-126821326D01*
X99408851Y-126821328D01*
X99258143Y-126944242D01*
X99258140Y-126944245D01*
X99253368Y-126948137D01*
X99249441Y-126952884D01*
X99249439Y-126952886D01*
X99125478Y-127102729D01*
X99125475Y-127102734D01*
X99121550Y-127107478D01*
X99118620Y-127112897D01*
X99118618Y-127112900D01*
X99026122Y-127283968D01*
X99026120Y-127283973D01*
X99023192Y-127289388D01*
X98962040Y-127486937D01*
X98940424Y-127692603D01*
X96354500Y-127692603D01*
X96443802Y-127631913D01*
X96451677Y-127625581D01*
X96620626Y-127465814D01*
X96627387Y-127458305D01*
X96768625Y-127273574D01*
X96774089Y-127265095D01*
X96883978Y-127060153D01*
X96888020Y-127050901D01*
X96963727Y-126831029D01*
X96966236Y-126821257D01*
X97006004Y-126591029D01*
X97006859Y-126583157D01*
X97007936Y-126559449D01*
X97008000Y-126556616D01*
X97008000Y-126508456D01*
X102992000Y-126508456D01*
X102992202Y-126513488D01*
X103006150Y-126686843D01*
X103007762Y-126696796D01*
X103063233Y-126922633D01*
X103066416Y-126932203D01*
X103157280Y-127146265D01*
X103161955Y-127155207D01*
X103285874Y-127351987D01*
X103291914Y-127360060D01*
X103445703Y-127534500D01*
X103452956Y-127541504D01*
X103632654Y-127689110D01*
X103640936Y-127694866D01*
X103841919Y-127811841D01*
X103851024Y-127816203D01*
X104068115Y-127899537D01*
X104077804Y-127902388D01*
X104228264Y-127933821D01*
X104242325Y-127932698D01*
X104246000Y-127922590D01*
X104246000Y-127920590D01*
X104754000Y-127920590D01*
X104758136Y-127934676D01*
X104771114Y-127936725D01*
X104788830Y-127934675D01*
X104798727Y-127932715D01*
X105022494Y-127869396D01*
X105031938Y-127865884D01*
X105242705Y-127767601D01*
X105251471Y-127762622D01*
X105443802Y-127631913D01*
X105451677Y-127625581D01*
X105620626Y-127465814D01*
X105627387Y-127458305D01*
X105768625Y-127273574D01*
X105774089Y-127265095D01*
X105883978Y-127060153D01*
X105888020Y-127050901D01*
X105963727Y-126831029D01*
X105966236Y-126821257D01*
X106006004Y-126591029D01*
X106006859Y-126583157D01*
X106007936Y-126559449D01*
X106008000Y-126556616D01*
X106008000Y-125972115D01*
X106003525Y-125956876D01*
X106002135Y-125955671D01*
X105994452Y-125954000D01*
X104772115Y-125954000D01*
X104756876Y-125958475D01*
X104755671Y-125959865D01*
X104754000Y-125967548D01*
X104754000Y-127920590D01*
X104246000Y-127920590D01*
X104246000Y-125972115D01*
X104241525Y-125956876D01*
X104240135Y-125955671D01*
X104232452Y-125954000D01*
X103010115Y-125954000D01*
X102994876Y-125958475D01*
X102993671Y-125959865D01*
X102992000Y-125967548D01*
X102992000Y-126508456D01*
X97008000Y-126508456D01*
X97008000Y-125972115D01*
X97003525Y-125956876D01*
X97002135Y-125955671D01*
X96994452Y-125954000D01*
X95772115Y-125954000D01*
X95756876Y-125958475D01*
X95755671Y-125959865D01*
X95754000Y-125967548D01*
X95754000Y-127920590D01*
X95246000Y-127920590D01*
X95246000Y-125972115D01*
X95241525Y-125956876D01*
X95240135Y-125955671D01*
X95232452Y-125954000D01*
X94010115Y-125954000D01*
X93994876Y-125958475D01*
X93993671Y-125959865D01*
X93992000Y-125967548D01*
X93992000Y-126508456D01*
X67775861Y-126508456D01*
X67774450Y-126504658D01*
X67772642Y-126498436D01*
X67771418Y-126488093D01*
X67767433Y-126479794D01*
X67765922Y-126470717D01*
X67741442Y-126425349D01*
X67738761Y-126420086D01*
X67719869Y-126380743D01*
X67716440Y-126373602D01*
X67712831Y-126369308D01*
X67710905Y-126367382D01*
X67709109Y-126365424D01*
X67709079Y-126365367D01*
X67709208Y-126365249D01*
X67708710Y-126364684D01*
X67705612Y-126358943D01*
X67665804Y-126322145D01*
X67662239Y-126318716D01*
X67096044Y-125752521D01*
X67080685Y-125733505D01*
X67079719Y-125732444D01*
X67074071Y-125723696D01*
X67047528Y-125702771D01*
X67043053Y-125698794D01*
X67042992Y-125698865D01*
X67039035Y-125695512D01*
X67035352Y-125691829D01*
X67019561Y-125680545D01*
X67014815Y-125676982D01*
X66982507Y-125651512D01*
X66982506Y-125651511D01*
X66974330Y-125645066D01*
X66965643Y-125642015D01*
X66958157Y-125636666D01*
X66948181Y-125633683D01*
X66948180Y-125633682D01*
X66908789Y-125621902D01*
X66903157Y-125620072D01*
X66854498Y-125602984D01*
X66848909Y-125602500D01*
X66846198Y-125602500D01*
X66843531Y-125602385D01*
X66843468Y-125602366D01*
X66843475Y-125602192D01*
X66842729Y-125602145D01*
X66836476Y-125600275D01*
X66787692Y-125602192D01*
X66782322Y-125602403D01*
X66777375Y-125602500D01*
X61932212Y-125602500D01*
X61864091Y-125582498D01*
X61843117Y-125565595D01*
X61705407Y-125427885D01*
X93992000Y-125427885D01*
X93996475Y-125443124D01*
X93997865Y-125444329D01*
X94005548Y-125446000D01*
X95227885Y-125446000D01*
X95243124Y-125441525D01*
X95244329Y-125440135D01*
X95246000Y-125432452D01*
X95246000Y-125427885D01*
X95754000Y-125427885D01*
X95758475Y-125443124D01*
X95759865Y-125444329D01*
X95767548Y-125446000D01*
X96989885Y-125446000D01*
X97005124Y-125441525D01*
X97006329Y-125440135D01*
X97008000Y-125432452D01*
X97008000Y-124971114D01*
X97863275Y-124971114D01*
X97865325Y-124988830D01*
X97867285Y-124998727D01*
X97930604Y-125222494D01*
X97934116Y-125231938D01*
X98032399Y-125442705D01*
X98037378Y-125451471D01*
X98168087Y-125643802D01*
X98174419Y-125651677D01*
X98334186Y-125820626D01*
X98341695Y-125827387D01*
X98526426Y-125968625D01*
X98534905Y-125974089D01*
X98739847Y-126083978D01*
X98749099Y-126088020D01*
X98968971Y-126163727D01*
X98978743Y-126166236D01*
X99208971Y-126206004D01*
X99216843Y-126206859D01*
X99240551Y-126207936D01*
X99243384Y-126208000D01*
X99727885Y-126208000D01*
X99743124Y-126203525D01*
X99744329Y-126202135D01*
X99746000Y-126194452D01*
X99746000Y-126189885D01*
X100254000Y-126189885D01*
X100258475Y-126205124D01*
X100259865Y-126206329D01*
X100267548Y-126208000D01*
X100708456Y-126208000D01*
X100713488Y-126207798D01*
X100886843Y-126193850D01*
X100896796Y-126192238D01*
X101122633Y-126136767D01*
X101132203Y-126133584D01*
X101346265Y-126042720D01*
X101355207Y-126038045D01*
X101551987Y-125914126D01*
X101560060Y-125908086D01*
X101734500Y-125754297D01*
X101741504Y-125747044D01*
X101889110Y-125567346D01*
X101894866Y-125559064D01*
X101971214Y-125427885D01*
X102992000Y-125427885D01*
X102996475Y-125443124D01*
X102997865Y-125444329D01*
X103005548Y-125446000D01*
X104227885Y-125446000D01*
X104243124Y-125441525D01*
X104244329Y-125440135D01*
X104246000Y-125432452D01*
X104246000Y-125427885D01*
X104754000Y-125427885D01*
X104758475Y-125443124D01*
X104759865Y-125444329D01*
X104767548Y-125446000D01*
X105989885Y-125446000D01*
X106005124Y-125441525D01*
X106006329Y-125440135D01*
X106008000Y-125432452D01*
X106008000Y-124891544D01*
X106007798Y-124886512D01*
X105993850Y-124713157D01*
X105992238Y-124703204D01*
X105936767Y-124477367D01*
X105933584Y-124467797D01*
X105842720Y-124253735D01*
X105838045Y-124244793D01*
X105714126Y-124048013D01*
X105708086Y-124039940D01*
X105554297Y-123865500D01*
X105547044Y-123858496D01*
X105367346Y-123710890D01*
X105359064Y-123705134D01*
X105158081Y-123588159D01*
X105148976Y-123583797D01*
X104931885Y-123500463D01*
X104922196Y-123497612D01*
X104771736Y-123466179D01*
X104757675Y-123467302D01*
X104754000Y-123477410D01*
X104754000Y-125427885D01*
X104246000Y-125427885D01*
X104246000Y-123479410D01*
X104241864Y-123465324D01*
X104228886Y-123463275D01*
X104211170Y-123465325D01*
X104201273Y-123467285D01*
X103977506Y-123530604D01*
X103968062Y-123534116D01*
X103757295Y-123632399D01*
X103748529Y-123637378D01*
X103556198Y-123768087D01*
X103548323Y-123774419D01*
X103379374Y-123934186D01*
X103372613Y-123941695D01*
X103231375Y-124126426D01*
X103225911Y-124134905D01*
X103116022Y-124339847D01*
X103111980Y-124349099D01*
X103036273Y-124568971D01*
X103033764Y-124578743D01*
X102993996Y-124808971D01*
X102993141Y-124816843D01*
X102992064Y-124840551D01*
X102992000Y-124843384D01*
X102992000Y-125427885D01*
X101971214Y-125427885D01*
X102011841Y-125358081D01*
X102016203Y-125348976D01*
X102099537Y-125131885D01*
X102102388Y-125122196D01*
X102133821Y-124971736D01*
X102132698Y-124957675D01*
X102122590Y-124954000D01*
X100272115Y-124954000D01*
X100256876Y-124958475D01*
X100255671Y-124959865D01*
X100254000Y-124967548D01*
X100254000Y-126189885D01*
X99746000Y-126189885D01*
X99746000Y-124972115D01*
X99741525Y-124956876D01*
X99740135Y-124955671D01*
X99732452Y-124954000D01*
X97879410Y-124954000D01*
X97865324Y-124958136D01*
X97863275Y-124971114D01*
X97008000Y-124971114D01*
X97008000Y-124891544D01*
X97007798Y-124886512D01*
X96993850Y-124713157D01*
X96992238Y-124703204D01*
X96936767Y-124477367D01*
X96933584Y-124467797D01*
X96916803Y-124428264D01*
X97866179Y-124428264D01*
X97867302Y-124442325D01*
X97877410Y-124446000D01*
X99727885Y-124446000D01*
X99743124Y-124441525D01*
X99744329Y-124440135D01*
X99746000Y-124432452D01*
X99746000Y-124427885D01*
X100254000Y-124427885D01*
X100258475Y-124443124D01*
X100259865Y-124444329D01*
X100267548Y-124446000D01*
X102120590Y-124446000D01*
X102134676Y-124441864D01*
X102136725Y-124428886D01*
X102134675Y-124411170D01*
X102132715Y-124401273D01*
X102069396Y-124177506D01*
X102065884Y-124168062D01*
X101967601Y-123957295D01*
X101962622Y-123948529D01*
X101831913Y-123756198D01*
X101825581Y-123748323D01*
X101665814Y-123579374D01*
X101658305Y-123572613D01*
X101473574Y-123431375D01*
X101465095Y-123425911D01*
X101260153Y-123316022D01*
X101250901Y-123311980D01*
X101031029Y-123236273D01*
X101021257Y-123233764D01*
X100791029Y-123193996D01*
X100783157Y-123193141D01*
X100759449Y-123192064D01*
X100756616Y-123192000D01*
X100272115Y-123192000D01*
X100256876Y-123196475D01*
X100255671Y-123197865D01*
X100254000Y-123205548D01*
X100254000Y-124427885D01*
X99746000Y-124427885D01*
X99746000Y-123210115D01*
X99741525Y-123194876D01*
X99740135Y-123193671D01*
X99732452Y-123192000D01*
X99291544Y-123192000D01*
X99286512Y-123192202D01*
X99113157Y-123206150D01*
X99103204Y-123207762D01*
X98877367Y-123263233D01*
X98867797Y-123266416D01*
X98653735Y-123357280D01*
X98644793Y-123361955D01*
X98448013Y-123485874D01*
X98439940Y-123491914D01*
X98265500Y-123645703D01*
X98258496Y-123652956D01*
X98110890Y-123832654D01*
X98105134Y-123840936D01*
X97988159Y-124041919D01*
X97983797Y-124051024D01*
X97900463Y-124268115D01*
X97897612Y-124277804D01*
X97866179Y-124428264D01*
X96916803Y-124428264D01*
X96842720Y-124253735D01*
X96838045Y-124244793D01*
X96714126Y-124048013D01*
X96708086Y-124039940D01*
X96554297Y-123865500D01*
X96547044Y-123858496D01*
X96367346Y-123710890D01*
X96359064Y-123705134D01*
X96158081Y-123588159D01*
X96148976Y-123583797D01*
X95931885Y-123500463D01*
X95922196Y-123497612D01*
X95771736Y-123466179D01*
X95757675Y-123467302D01*
X95754000Y-123477410D01*
X95754000Y-125427885D01*
X95246000Y-125427885D01*
X95246000Y-123479410D01*
X95241864Y-123465324D01*
X95228886Y-123463275D01*
X95211170Y-123465325D01*
X95201273Y-123467285D01*
X94977506Y-123530604D01*
X94968062Y-123534116D01*
X94757295Y-123632399D01*
X94748529Y-123637378D01*
X94556198Y-123768087D01*
X94548323Y-123774419D01*
X94379374Y-123934186D01*
X94372613Y-123941695D01*
X94231375Y-124126426D01*
X94225911Y-124134905D01*
X94116022Y-124339847D01*
X94111980Y-124349099D01*
X94036273Y-124568971D01*
X94033764Y-124578743D01*
X93993996Y-124808971D01*
X93993141Y-124816843D01*
X93992064Y-124840551D01*
X93992000Y-124843384D01*
X93992000Y-125427885D01*
X61705407Y-125427885D01*
X54456404Y-118178881D01*
X54454780Y-118175907D01*
X56460738Y-118175907D01*
X56461254Y-118182051D01*
X56475921Y-118356710D01*
X56477222Y-118372209D01*
X56495068Y-118434445D01*
X56525330Y-118539979D01*
X56531521Y-118561570D01*
X56534336Y-118567047D01*
X56603858Y-118702322D01*
X56621566Y-118736779D01*
X56625389Y-118741603D01*
X56625392Y-118741607D01*
X56653045Y-118776496D01*
X56743927Y-118891160D01*
X56748620Y-118895154D01*
X56748621Y-118895155D01*
X56773447Y-118916283D01*
X56893945Y-119018835D01*
X56899323Y-119021841D01*
X56899325Y-119021842D01*
X57032543Y-119096295D01*
X57065904Y-119114940D01*
X57253255Y-119175814D01*
X57448862Y-119199139D01*
X57454997Y-119198667D01*
X57454999Y-119198667D01*
X57514801Y-119194065D01*
X57645274Y-119184026D01*
X57835009Y-119131050D01*
X57840513Y-119128270D01*
X58005341Y-119045010D01*
X58005343Y-119045009D01*
X58010842Y-119042231D01*
X58166074Y-118920950D01*
X58170100Y-118916286D01*
X58170103Y-118916283D01*
X58290764Y-118776496D01*
X58290765Y-118776494D01*
X58294793Y-118771828D01*
X58392096Y-118600544D01*
X58454277Y-118413622D01*
X58478966Y-118218183D01*
X58479360Y-118190000D01*
X58477978Y-118175907D01*
X61340738Y-118175907D01*
X61341254Y-118182051D01*
X61355921Y-118356710D01*
X61357222Y-118372209D01*
X61375068Y-118434445D01*
X61405330Y-118539979D01*
X61411521Y-118561570D01*
X61414336Y-118567047D01*
X61483858Y-118702322D01*
X61501566Y-118736779D01*
X61505389Y-118741603D01*
X61505392Y-118741607D01*
X61533045Y-118776496D01*
X61623927Y-118891160D01*
X61628620Y-118895154D01*
X61628621Y-118895155D01*
X61653447Y-118916283D01*
X61773945Y-119018835D01*
X61779323Y-119021841D01*
X61779325Y-119021842D01*
X61912543Y-119096295D01*
X61945904Y-119114940D01*
X62133255Y-119175814D01*
X62328862Y-119199139D01*
X62334997Y-119198667D01*
X62334999Y-119198667D01*
X62394801Y-119194065D01*
X62525274Y-119184026D01*
X62715009Y-119131050D01*
X62720513Y-119128270D01*
X62885341Y-119045010D01*
X62885343Y-119045009D01*
X62890842Y-119042231D01*
X63046074Y-118920950D01*
X63050100Y-118916286D01*
X63050103Y-118916283D01*
X63170764Y-118776496D01*
X63170765Y-118776494D01*
X63174793Y-118771828D01*
X63272096Y-118600544D01*
X63334277Y-118413622D01*
X63358966Y-118218183D01*
X63359360Y-118190000D01*
X63340137Y-117993948D01*
X63283200Y-117805363D01*
X63259068Y-117759978D01*
X63193611Y-117636871D01*
X63193609Y-117636868D01*
X63190717Y-117631429D01*
X63066212Y-117478770D01*
X63000893Y-117424734D01*
X62919177Y-117357132D01*
X62919174Y-117357130D01*
X62914427Y-117353203D01*
X62741143Y-117259508D01*
X62552960Y-117201256D01*
X62546835Y-117200612D01*
X62546834Y-117200612D01*
X62363176Y-117181309D01*
X62363174Y-117181309D01*
X62357047Y-117180665D01*
X62275018Y-117188130D01*
X62167004Y-117197960D01*
X62167001Y-117197961D01*
X62160865Y-117198519D01*
X62154959Y-117200257D01*
X62154955Y-117200258D01*
X62014775Y-117241516D01*
X61971887Y-117254138D01*
X61966427Y-117256992D01*
X61966428Y-117256992D01*
X61802772Y-117342549D01*
X61802768Y-117342552D01*
X61797312Y-117345404D01*
X61792512Y-117349264D01*
X61792511Y-117349264D01*
X61654365Y-117460336D01*
X61643788Y-117468840D01*
X61517163Y-117619745D01*
X61510740Y-117631429D01*
X61454038Y-117734571D01*
X61422262Y-117792371D01*
X61420398Y-117798246D01*
X61420397Y-117798249D01*
X61404797Y-117847427D01*
X61362697Y-117980142D01*
X61340738Y-118175907D01*
X58477978Y-118175907D01*
X58460137Y-117993948D01*
X58403200Y-117805363D01*
X58379068Y-117759978D01*
X58313611Y-117636871D01*
X58313609Y-117636868D01*
X58310717Y-117631429D01*
X58186212Y-117478770D01*
X58120893Y-117424734D01*
X58039177Y-117357132D01*
X58039174Y-117357130D01*
X58034427Y-117353203D01*
X57861143Y-117259508D01*
X57672960Y-117201256D01*
X57666835Y-117200612D01*
X57666834Y-117200612D01*
X57483176Y-117181309D01*
X57483174Y-117181309D01*
X57477047Y-117180665D01*
X57395018Y-117188130D01*
X57287004Y-117197960D01*
X57287001Y-117197961D01*
X57280865Y-117198519D01*
X57274959Y-117200257D01*
X57274955Y-117200258D01*
X57134775Y-117241516D01*
X57091887Y-117254138D01*
X57086427Y-117256992D01*
X57086428Y-117256992D01*
X56922772Y-117342549D01*
X56922768Y-117342552D01*
X56917312Y-117345404D01*
X56912512Y-117349264D01*
X56912511Y-117349264D01*
X56774365Y-117460336D01*
X56763788Y-117468840D01*
X56637163Y-117619745D01*
X56630740Y-117631429D01*
X56574038Y-117734571D01*
X56542262Y-117792371D01*
X56540398Y-117798246D01*
X56540397Y-117798249D01*
X56524797Y-117847427D01*
X56482697Y-117980142D01*
X56460738Y-118175907D01*
X54454780Y-118175907D01*
X54422378Y-118116569D01*
X54419499Y-118089786D01*
X54419499Y-97749251D01*
X54439501Y-97681130D01*
X54456404Y-97660156D01*
X56863265Y-95253296D01*
X60199867Y-95253296D01*
X60204171Y-95292283D01*
X60215470Y-95394623D01*
X60216746Y-95406183D01*
X60219355Y-95413314D01*
X60219356Y-95413316D01*
X60258883Y-95521327D01*
X60269606Y-95550630D01*
X60273842Y-95556933D01*
X60273842Y-95556934D01*
X60351162Y-95671999D01*
X60351165Y-95672002D01*
X60355396Y-95678299D01*
X60469163Y-95781819D01*
X60604338Y-95855213D01*
X60753119Y-95894245D01*
X60832938Y-95895499D01*
X60899318Y-95896542D01*
X60899321Y-95896542D01*
X60906916Y-95896661D01*
X60914320Y-95894965D01*
X60914322Y-95894965D01*
X60969589Y-95882307D01*
X61056849Y-95862322D01*
X61145752Y-95817609D01*
X61187481Y-95796622D01*
X61187484Y-95796620D01*
X61194264Y-95793210D01*
X61311226Y-95693314D01*
X61315659Y-95687144D01*
X61320193Y-95682214D01*
X61381026Y-95645609D01*
X61412942Y-95641500D01*
X63025788Y-95641500D01*
X63093909Y-95661502D01*
X63114883Y-95678405D01*
X63384883Y-95948405D01*
X63418909Y-96010717D01*
X63413844Y-96081532D01*
X63371297Y-96138368D01*
X63304777Y-96163179D01*
X63295788Y-96163500D01*
X62937768Y-96163500D01*
X62869647Y-96143498D01*
X62846613Y-96123709D01*
X62845197Y-96121649D01*
X62839534Y-96116603D01*
X62839530Y-96116599D01*
X62736024Y-96024380D01*
X62730353Y-96019327D01*
X62631017Y-95966731D01*
X62601131Y-95950907D01*
X62601128Y-95950906D01*
X62594416Y-95947352D01*
X62445234Y-95909880D01*
X62437636Y-95909840D01*
X62437634Y-95909840D01*
X62372143Y-95909497D01*
X62291421Y-95909075D01*
X62284042Y-95910847D01*
X62284038Y-95910847D01*
X62149234Y-95943210D01*
X62149230Y-95943211D01*
X62141855Y-95944982D01*
X62103381Y-95964840D01*
X62028550Y-96003463D01*
X62005172Y-96015529D01*
X61999450Y-96020521D01*
X61999448Y-96020522D01*
X61928341Y-96082553D01*
X61889262Y-96116644D01*
X61800818Y-96242488D01*
X61798059Y-96249563D01*
X61798058Y-96249566D01*
X61747704Y-96378717D01*
X61744944Y-96385797D01*
X61743952Y-96393330D01*
X61743952Y-96393331D01*
X61735888Y-96454586D01*
X61724867Y-96538296D01*
X61741746Y-96691183D01*
X61794606Y-96835630D01*
X61798842Y-96841933D01*
X61798842Y-96841934D01*
X61876162Y-96956999D01*
X61876165Y-96957002D01*
X61880396Y-96963299D01*
X61994163Y-97066819D01*
X62129338Y-97140213D01*
X62278119Y-97179245D01*
X62357938Y-97180499D01*
X62424318Y-97181542D01*
X62424321Y-97181542D01*
X62431916Y-97181661D01*
X62439320Y-97179965D01*
X62439322Y-97179965D01*
X62494589Y-97167307D01*
X62581849Y-97147322D01*
X62625351Y-97125443D01*
X62712481Y-97081622D01*
X62712484Y-97081620D01*
X62719264Y-97078210D01*
X62836226Y-96978314D01*
X62840659Y-96972144D01*
X62845193Y-96967214D01*
X62906026Y-96930609D01*
X62937942Y-96926500D01*
X63532787Y-96926500D01*
X63600908Y-96946502D01*
X63621883Y-96963405D01*
X64250647Y-97592170D01*
X64250662Y-97592184D01*
X70530595Y-103872117D01*
X70564621Y-103934429D01*
X70567500Y-103961212D01*
X70567500Y-114138787D01*
X70547498Y-114206908D01*
X70530595Y-114227883D01*
X70331694Y-114426783D01*
X70269382Y-114460808D01*
X70241941Y-114463685D01*
X70125421Y-114463075D01*
X70118042Y-114464847D01*
X70118038Y-114464847D01*
X69983234Y-114497210D01*
X69983230Y-114497211D01*
X69975855Y-114498982D01*
X69839172Y-114569529D01*
X69833450Y-114574521D01*
X69833448Y-114574522D01*
X69764040Y-114635071D01*
X69723262Y-114670644D01*
X69634818Y-114796488D01*
X69578944Y-114939797D01*
X69558867Y-115092296D01*
X69575746Y-115245183D01*
X69578355Y-115252314D01*
X69578356Y-115252316D01*
X69585463Y-115271735D01*
X69628606Y-115389630D01*
X69632842Y-115395933D01*
X69632842Y-115395934D01*
X69710162Y-115510999D01*
X69710165Y-115511002D01*
X69714396Y-115517299D01*
X69828163Y-115620819D01*
X69963338Y-115694213D01*
X70112119Y-115733245D01*
X70191938Y-115734499D01*
X70258318Y-115735542D01*
X70258321Y-115735542D01*
X70265916Y-115735661D01*
X70273320Y-115733965D01*
X70273322Y-115733965D01*
X70328589Y-115721307D01*
X70415849Y-115701322D01*
X70437187Y-115690590D01*
X70546481Y-115635622D01*
X70546484Y-115635620D01*
X70553264Y-115632210D01*
X70670226Y-115532314D01*
X70759983Y-115407403D01*
X70817355Y-115264688D01*
X70839028Y-115112407D01*
X70839168Y-115099000D01*
X70837446Y-115084765D01*
X70835670Y-115070093D01*
X70847343Y-115000063D01*
X70871662Y-114965860D01*
X71103405Y-114734118D01*
X71165717Y-114700093D01*
X71236533Y-114705158D01*
X71293368Y-114747705D01*
X71318179Y-114814226D01*
X71318500Y-114823214D01*
X71318500Y-115889788D01*
X71298498Y-115957909D01*
X71281595Y-115978883D01*
X69832695Y-117427782D01*
X69770383Y-117461808D01*
X69742942Y-117464685D01*
X69626421Y-117464075D01*
X69619042Y-117465847D01*
X69619038Y-117465847D01*
X69484234Y-117498210D01*
X69484230Y-117498211D01*
X69476855Y-117499982D01*
X69340172Y-117570529D01*
X69334450Y-117575521D01*
X69334448Y-117575522D01*
X69288238Y-117615834D01*
X69224262Y-117671644D01*
X69135818Y-117797488D01*
X69133059Y-117804563D01*
X69133058Y-117804566D01*
X69091179Y-117911981D01*
X69079944Y-117940797D01*
X69078952Y-117948330D01*
X69078952Y-117948331D01*
X69068191Y-118030071D01*
X69059867Y-118093296D01*
X69068307Y-118169740D01*
X69073655Y-118218183D01*
X69076746Y-118246183D01*
X69079355Y-118253314D01*
X69079356Y-118253316D01*
X69116118Y-118353771D01*
X69129606Y-118390630D01*
X69133842Y-118396933D01*
X69133842Y-118396934D01*
X69211162Y-118511999D01*
X69211165Y-118512002D01*
X69215396Y-118518299D01*
X69329163Y-118621819D01*
X69464338Y-118695213D01*
X69613119Y-118734245D01*
X69692938Y-118735499D01*
X69759318Y-118736542D01*
X69759321Y-118736542D01*
X69766916Y-118736661D01*
X69774320Y-118734965D01*
X69774322Y-118734965D01*
X69829589Y-118722307D01*
X69916849Y-118702322D01*
X69938187Y-118691590D01*
X70047481Y-118636622D01*
X70047484Y-118636620D01*
X70054264Y-118633210D01*
X70156246Y-118546108D01*
X70165454Y-118538244D01*
X70165455Y-118538243D01*
X70171226Y-118533314D01*
X70260983Y-118408403D01*
X70318355Y-118265688D01*
X70340028Y-118113407D01*
X70340168Y-118100000D01*
X70338782Y-118088540D01*
X70336670Y-118071092D01*
X70348343Y-118001061D01*
X70372662Y-117966860D01*
X71136445Y-117203078D01*
X71931479Y-116408044D01*
X71950495Y-116392685D01*
X71951556Y-116391719D01*
X71960304Y-116386071D01*
X71981229Y-116359528D01*
X71985208Y-116355050D01*
X71985137Y-116354990D01*
X71988490Y-116351033D01*
X71992171Y-116347352D01*
X72003469Y-116331543D01*
X72007032Y-116326798D01*
X72032485Y-116294510D01*
X72038934Y-116286330D01*
X72041984Y-116277645D01*
X72047334Y-116270158D01*
X72062109Y-116220753D01*
X72063930Y-116215150D01*
X72078388Y-116173981D01*
X72081016Y-116166498D01*
X72081500Y-116160909D01*
X72081500Y-116158196D01*
X72081615Y-116155531D01*
X72081634Y-116155468D01*
X72081808Y-116155475D01*
X72081855Y-116154729D01*
X72083725Y-116148476D01*
X72081597Y-116094322D01*
X72081500Y-116089375D01*
X72081500Y-103837701D01*
X72084086Y-103813402D01*
X72084154Y-103811964D01*
X72086345Y-103801786D01*
X72082373Y-103768224D01*
X72082021Y-103762246D01*
X72081928Y-103762254D01*
X72081500Y-103757076D01*
X72081500Y-103751874D01*
X72078312Y-103732720D01*
X72077477Y-103726855D01*
X72072642Y-103685999D01*
X72072642Y-103685998D01*
X72071418Y-103675659D01*
X72067433Y-103667360D01*
X72065922Y-103658283D01*
X72041442Y-103612915D01*
X72038761Y-103607652D01*
X72019873Y-103568316D01*
X72019870Y-103568312D01*
X72016440Y-103561168D01*
X72012830Y-103556874D01*
X72010898Y-103554942D01*
X72009111Y-103552993D01*
X72009082Y-103552940D01*
X72009212Y-103552821D01*
X72008711Y-103552253D01*
X72005612Y-103546509D01*
X71965790Y-103509698D01*
X71962225Y-103506269D01*
X66577682Y-98121725D01*
X66555364Y-98085938D01*
X66553922Y-98086716D01*
X66529447Y-98041356D01*
X66526751Y-98036066D01*
X66507871Y-97996747D01*
X66507871Y-97996746D01*
X66504440Y-97989602D01*
X66500830Y-97985308D01*
X66498898Y-97983376D01*
X66497111Y-97981427D01*
X66497082Y-97981374D01*
X66497212Y-97981255D01*
X66496711Y-97980687D01*
X66493612Y-97974943D01*
X66453791Y-97938133D01*
X66450226Y-97934704D01*
X63544044Y-95028521D01*
X63528685Y-95009505D01*
X63527719Y-95008444D01*
X63522071Y-94999696D01*
X63495528Y-94978771D01*
X63491053Y-94974794D01*
X63490992Y-94974865D01*
X63487035Y-94971512D01*
X63483352Y-94967829D01*
X63467561Y-94956545D01*
X63462815Y-94952982D01*
X63430507Y-94927512D01*
X63430506Y-94927511D01*
X63422330Y-94921066D01*
X63413643Y-94918015D01*
X63406157Y-94912666D01*
X63396181Y-94909683D01*
X63396180Y-94909682D01*
X63356789Y-94897902D01*
X63351157Y-94896072D01*
X63302498Y-94878984D01*
X63296909Y-94878500D01*
X63294198Y-94878500D01*
X63291531Y-94878385D01*
X63291468Y-94878366D01*
X63291475Y-94878192D01*
X63290729Y-94878145D01*
X63284476Y-94876275D01*
X63235692Y-94878192D01*
X63230322Y-94878403D01*
X63225375Y-94878500D01*
X61412768Y-94878500D01*
X61344647Y-94858498D01*
X61321613Y-94838709D01*
X61320197Y-94836649D01*
X61314534Y-94831603D01*
X61314530Y-94831599D01*
X61216560Y-94744312D01*
X61205353Y-94734327D01*
X61191602Y-94727046D01*
X61076131Y-94665907D01*
X61076128Y-94665906D01*
X61069416Y-94662352D01*
X60920234Y-94624880D01*
X60912636Y-94624840D01*
X60912634Y-94624840D01*
X60847143Y-94624497D01*
X60766421Y-94624075D01*
X60759042Y-94625847D01*
X60759038Y-94625847D01*
X60624234Y-94658210D01*
X60624230Y-94658211D01*
X60616855Y-94659982D01*
X60480172Y-94730529D01*
X60474450Y-94735521D01*
X60474448Y-94735522D01*
X60389228Y-94809865D01*
X60364262Y-94831644D01*
X60275818Y-94957488D01*
X60273059Y-94964563D01*
X60273058Y-94964566D01*
X60222704Y-95093717D01*
X60219944Y-95100797D01*
X60218952Y-95108330D01*
X60218952Y-95108331D01*
X60204611Y-95217263D01*
X60199867Y-95253296D01*
X56863265Y-95253296D01*
X57718156Y-94398405D01*
X57780468Y-94364379D01*
X57807251Y-94361500D01*
X63837150Y-94361500D01*
X63905271Y-94381502D01*
X63925052Y-94398677D01*
X63925396Y-94398299D01*
X64039163Y-94501819D01*
X64174338Y-94575213D01*
X64323119Y-94614245D01*
X64402938Y-94615499D01*
X64469318Y-94616542D01*
X64469321Y-94616542D01*
X64476916Y-94616661D01*
X64484320Y-94614965D01*
X64484322Y-94614965D01*
X64584688Y-94591978D01*
X64626849Y-94582322D01*
X64648187Y-94571590D01*
X64757481Y-94516622D01*
X64757484Y-94516620D01*
X64764264Y-94513210D01*
X64881226Y-94413314D01*
X64970983Y-94288403D01*
X65028355Y-94145688D01*
X65050028Y-93993407D01*
X65050168Y-93980000D01*
X65049627Y-93975522D01*
X65032601Y-93834839D01*
X65031689Y-93827299D01*
X64977319Y-93683413D01*
X64968640Y-93670784D01*
X64894499Y-93562908D01*
X64894497Y-93562906D01*
X64890197Y-93556649D01*
X64775353Y-93454327D01*
X64737425Y-93434245D01*
X64646131Y-93385907D01*
X64646128Y-93385906D01*
X64639416Y-93382352D01*
X64490234Y-93344880D01*
X64482636Y-93344840D01*
X64482634Y-93344840D01*
X64417143Y-93344497D01*
X64336421Y-93344075D01*
X64329042Y-93345847D01*
X64329038Y-93345847D01*
X64194234Y-93378210D01*
X64194230Y-93378211D01*
X64186855Y-93379982D01*
X64050172Y-93450529D01*
X63934262Y-93551644D01*
X63930472Y-93557036D01*
X63870392Y-93594050D01*
X63837202Y-93598500D01*
X63357741Y-93598500D01*
X63289620Y-93578498D01*
X63243127Y-93524842D01*
X63233023Y-93454568D01*
X63262517Y-93389988D01*
X63301127Y-93359935D01*
X63347480Y-93336622D01*
X63354264Y-93333210D01*
X63471226Y-93233314D01*
X63560983Y-93108403D01*
X63572392Y-93080024D01*
X63615522Y-92972735D01*
X63618355Y-92965688D01*
X63640028Y-92813407D01*
X63640168Y-92800000D01*
X63621689Y-92647299D01*
X63567319Y-92503413D01*
X63505902Y-92414050D01*
X63484499Y-92382908D01*
X63484497Y-92382906D01*
X63480197Y-92376649D01*
X63365353Y-92274327D01*
X63276854Y-92227469D01*
X63236131Y-92205907D01*
X63236128Y-92205906D01*
X63229416Y-92202352D01*
X63080234Y-92164880D01*
X63072636Y-92164840D01*
X63072634Y-92164840D01*
X63007143Y-92164497D01*
X62926421Y-92164075D01*
X62919042Y-92165847D01*
X62919038Y-92165847D01*
X62784234Y-92198210D01*
X62784230Y-92198211D01*
X62776855Y-92199982D01*
X62640172Y-92270529D01*
X62634450Y-92275521D01*
X62634448Y-92275522D01*
X62587943Y-92316091D01*
X62524262Y-92371644D01*
X62520472Y-92377036D01*
X62460392Y-92414050D01*
X62427202Y-92418500D01*
X58565383Y-92418500D01*
X58497262Y-92398498D01*
X58450769Y-92344842D01*
X58440665Y-92274568D01*
X58470159Y-92209988D01*
X58476288Y-92203405D01*
X59675289Y-91004404D01*
X59737601Y-90970378D01*
X59764384Y-90967499D01*
X60009866Y-90967499D01*
X60034165Y-90970085D01*
X60035603Y-90970153D01*
X60045781Y-90972344D01*
X60079342Y-90968372D01*
X60085321Y-90968020D01*
X60085313Y-90967927D01*
X60090491Y-90967499D01*
X60095693Y-90967499D01*
X60114847Y-90964311D01*
X60120705Y-90963477D01*
X60137319Y-90961511D01*
X60161568Y-90958641D01*
X60161569Y-90958641D01*
X60171908Y-90957417D01*
X60180207Y-90953432D01*
X60189284Y-90951921D01*
X60234652Y-90927441D01*
X60239915Y-90924760D01*
X60279251Y-90905872D01*
X60279255Y-90905869D01*
X60286399Y-90902439D01*
X60290693Y-90898829D01*
X60292625Y-90896897D01*
X60294574Y-90895110D01*
X60294627Y-90895081D01*
X60294746Y-90895211D01*
X60295314Y-90894710D01*
X60301058Y-90891611D01*
X60308124Y-90883967D01*
X60308128Y-90883964D01*
X60311375Y-90880451D01*
X60372303Y-90844005D01*
X60405877Y-90839995D01*
X60447605Y-90840651D01*
X60504318Y-90841542D01*
X60504321Y-90841542D01*
X60511916Y-90841661D01*
X60519320Y-90839965D01*
X60519322Y-90839965D01*
X60574589Y-90827307D01*
X60661849Y-90807322D01*
X60709222Y-90783496D01*
X60792481Y-90741622D01*
X60792484Y-90741620D01*
X60799264Y-90738210D01*
X60883359Y-90666385D01*
X60910454Y-90643244D01*
X60910455Y-90643243D01*
X60916226Y-90638314D01*
X61005983Y-90513403D01*
X61063355Y-90370688D01*
X61085028Y-90218407D01*
X61085168Y-90205000D01*
X61084670Y-90200878D01*
X61076284Y-90131589D01*
X61066689Y-90052299D01*
X61012319Y-89908413D01*
X60925197Y-89781649D01*
X60810353Y-89679327D01*
X60796602Y-89672046D01*
X60681131Y-89610907D01*
X60681128Y-89610906D01*
X60674416Y-89607352D01*
X60525234Y-89569880D01*
X60517636Y-89569840D01*
X60517634Y-89569840D01*
X60452143Y-89569497D01*
X60371421Y-89569075D01*
X60364042Y-89570847D01*
X60364038Y-89570847D01*
X60229234Y-89603210D01*
X60229230Y-89603211D01*
X60221855Y-89604982D01*
X60085172Y-89675529D01*
X59969262Y-89776644D01*
X59880818Y-89902488D01*
X59878059Y-89909563D01*
X59878058Y-89909566D01*
X59854195Y-89970771D01*
X59824944Y-90045797D01*
X59823952Y-90053332D01*
X59818474Y-90094944D01*
X59789752Y-90159872D01*
X59730488Y-90198964D01*
X59693552Y-90204499D01*
X59608307Y-90204499D01*
X59584018Y-90201914D01*
X59582571Y-90201846D01*
X59572391Y-90199654D01*
X59540631Y-90203413D01*
X59538831Y-90203626D01*
X59532850Y-90203979D01*
X59532858Y-90204071D01*
X59527679Y-90204499D01*
X59522479Y-90204499D01*
X59517352Y-90205352D01*
X59517344Y-90205353D01*
X59503322Y-90207687D01*
X59497446Y-90208524D01*
X59456602Y-90213358D01*
X59456600Y-90213359D01*
X59446263Y-90214582D01*
X59437966Y-90218566D01*
X59428888Y-90220077D01*
X59419726Y-90225021D01*
X59419722Y-90225022D01*
X59383527Y-90244552D01*
X59378243Y-90247245D01*
X59331773Y-90269559D01*
X59327479Y-90273169D01*
X59325547Y-90275101D01*
X59323598Y-90276888D01*
X59323545Y-90276917D01*
X59323426Y-90276787D01*
X59322858Y-90277288D01*
X59317114Y-90280387D01*
X59310047Y-90288032D01*
X59280304Y-90320208D01*
X59276874Y-90323774D01*
X51268510Y-98332137D01*
X51249494Y-98347496D01*
X51248433Y-98348462D01*
X51239685Y-98354110D01*
X51233239Y-98362287D01*
X51218760Y-98380653D01*
X51214783Y-98385128D01*
X51214854Y-98385189D01*
X51211501Y-98389146D01*
X51207818Y-98392829D01*
X51204792Y-98397064D01*
X51204790Y-98397066D01*
X51196536Y-98408617D01*
X51192973Y-98413363D01*
X51161055Y-98453851D01*
X51158004Y-98462538D01*
X51152655Y-98470024D01*
X51149672Y-98480000D01*
X51149671Y-98480001D01*
X51137891Y-98519392D01*
X51136061Y-98525024D01*
X51118973Y-98573683D01*
X51118489Y-98579272D01*
X51118489Y-98581983D01*
X51118374Y-98584650D01*
X51118355Y-98584713D01*
X51118181Y-98584706D01*
X51118134Y-98585452D01*
X51116264Y-98591705D01*
X51116673Y-98602109D01*
X51118392Y-98645859D01*
X51118489Y-98650806D01*
X51118489Y-121905854D01*
X51115903Y-121930153D01*
X51115835Y-121931591D01*
X51113644Y-121941769D01*
X50254500Y-121941769D01*
X50254500Y-87293296D01*
X53259867Y-87293296D01*
X53262538Y-87317487D01*
X53275370Y-87433717D01*
X53276746Y-87446183D01*
X53279355Y-87453314D01*
X53279356Y-87453316D01*
X53286463Y-87472735D01*
X53329606Y-87590630D01*
X53333842Y-87596933D01*
X53333842Y-87596934D01*
X53411162Y-87711999D01*
X53411165Y-87712002D01*
X53415396Y-87718299D01*
X53529163Y-87821819D01*
X53664338Y-87895213D01*
X53813119Y-87934245D01*
X53892938Y-87935499D01*
X53959318Y-87936542D01*
X53959321Y-87936542D01*
X53966916Y-87936661D01*
X53974320Y-87934965D01*
X53974322Y-87934965D01*
X54063375Y-87914569D01*
X54116849Y-87902322D01*
X54154281Y-87883496D01*
X54247481Y-87836622D01*
X54247484Y-87836620D01*
X54254264Y-87833210D01*
X54347807Y-87753316D01*
X54365454Y-87738244D01*
X54365455Y-87738243D01*
X54371226Y-87733314D01*
X54460983Y-87608403D01*
X54518355Y-87465688D01*
X54540028Y-87313407D01*
X54540168Y-87300000D01*
X54538446Y-87285765D01*
X54536670Y-87271092D01*
X54548343Y-87201061D01*
X54572662Y-87166860D01*
X55992671Y-85746851D01*
X56054983Y-85712825D01*
X56083745Y-85709962D01*
X56184317Y-85711542D01*
X56184320Y-85711542D01*
X56191916Y-85711661D01*
X56199320Y-85709965D01*
X56199322Y-85709965D01*
X56254589Y-85697307D01*
X56341849Y-85677322D01*
X56375056Y-85660621D01*
X56472481Y-85611622D01*
X56472484Y-85611620D01*
X56479264Y-85608210D01*
X56596226Y-85508314D01*
X56685983Y-85383403D01*
X56743355Y-85240688D01*
X56765028Y-85088407D01*
X56765168Y-85075000D01*
X56763446Y-85060765D01*
X56747601Y-84929839D01*
X56746689Y-84922299D01*
X56692319Y-84778413D01*
X56666920Y-84741457D01*
X56609499Y-84657908D01*
X56609497Y-84657906D01*
X56605197Y-84651649D01*
X56490353Y-84549327D01*
X56455794Y-84531029D01*
X56361131Y-84480907D01*
X56361128Y-84480906D01*
X56354416Y-84477352D01*
X56205234Y-84439880D01*
X56197636Y-84439840D01*
X56197634Y-84439840D01*
X56132143Y-84439497D01*
X56051421Y-84439075D01*
X56044042Y-84440847D01*
X56044038Y-84440847D01*
X55909234Y-84473210D01*
X55909230Y-84473211D01*
X55901855Y-84474982D01*
X55820028Y-84517216D01*
X55782354Y-84536661D01*
X55765172Y-84545529D01*
X55759450Y-84550521D01*
X55759448Y-84550522D01*
X55654989Y-84641648D01*
X55649262Y-84646644D01*
X55560818Y-84772488D01*
X55558059Y-84779563D01*
X55558058Y-84779566D01*
X55535179Y-84838248D01*
X55504944Y-84915797D01*
X55503952Y-84923330D01*
X55503952Y-84923331D01*
X55489032Y-85036661D01*
X55484867Y-85068296D01*
X55485701Y-85075849D01*
X55488897Y-85104805D01*
X55476490Y-85174709D01*
X55452753Y-85207725D01*
X54720456Y-85940021D01*
X54032695Y-86627782D01*
X53970383Y-86661808D01*
X53942942Y-86664685D01*
X53826421Y-86664075D01*
X53819042Y-86665847D01*
X53819038Y-86665847D01*
X53684234Y-86698210D01*
X53684230Y-86698211D01*
X53676855Y-86699982D01*
X53540172Y-86770529D01*
X53424262Y-86871644D01*
X53335818Y-86997488D01*
X53333059Y-87004563D01*
X53333058Y-87004566D01*
X53299969Y-87089435D01*
X53279944Y-87140797D01*
X53259867Y-87293296D01*
X50254500Y-87293296D01*
X50254500Y-84393296D01*
X59459867Y-84393296D01*
X59468306Y-84469739D01*
X59475695Y-84536661D01*
X59476746Y-84546183D01*
X59479355Y-84553314D01*
X59479356Y-84553316D01*
X59513493Y-84646598D01*
X59529606Y-84690630D01*
X59533842Y-84696933D01*
X59533842Y-84696934D01*
X59611162Y-84811999D01*
X59611165Y-84812002D01*
X59615396Y-84818299D01*
X59729163Y-84921819D01*
X59864338Y-84995213D01*
X60013119Y-85034245D01*
X60092938Y-85035499D01*
X60159318Y-85036542D01*
X60159321Y-85036542D01*
X60166916Y-85036661D01*
X60174320Y-85034965D01*
X60174322Y-85034965D01*
X60229589Y-85022307D01*
X60316849Y-85002322D01*
X60338187Y-84991590D01*
X60447481Y-84936622D01*
X60447484Y-84936620D01*
X60454264Y-84933210D01*
X60571226Y-84833314D01*
X60575659Y-84827144D01*
X60580193Y-84822214D01*
X60641026Y-84785609D01*
X60672942Y-84781500D01*
X66484680Y-84781500D01*
X66508979Y-84784086D01*
X66510417Y-84784154D01*
X66520595Y-84786345D01*
X66554156Y-84782373D01*
X66560135Y-84782021D01*
X66560127Y-84781928D01*
X66565305Y-84781500D01*
X66570507Y-84781500D01*
X66589661Y-84778312D01*
X66595519Y-84777478D01*
X66612133Y-84775512D01*
X66636382Y-84772642D01*
X66636383Y-84772642D01*
X66646722Y-84771418D01*
X66655021Y-84767433D01*
X66664098Y-84765922D01*
X66709466Y-84741442D01*
X66714729Y-84738761D01*
X66754065Y-84719873D01*
X66754069Y-84719870D01*
X66761213Y-84716440D01*
X66765507Y-84712830D01*
X66767439Y-84710898D01*
X66769388Y-84709111D01*
X66769441Y-84709082D01*
X66769560Y-84709212D01*
X66770128Y-84708711D01*
X66775872Y-84705612D01*
X66812683Y-84665790D01*
X66816112Y-84662225D01*
X68480312Y-82998025D01*
X68542624Y-82963999D01*
X68613439Y-82969064D01*
X68658502Y-82998025D01*
X69944095Y-84283618D01*
X69978121Y-84345930D01*
X69981000Y-84372713D01*
X69981000Y-99269646D01*
X69960998Y-99337767D01*
X69937832Y-99364593D01*
X69886762Y-99409144D01*
X69798318Y-99534988D01*
X69795559Y-99542063D01*
X69795558Y-99542066D01*
X69745204Y-99671217D01*
X69742444Y-99678297D01*
X69722367Y-99830796D01*
X69739246Y-99983683D01*
X69741855Y-99990814D01*
X69741856Y-99990816D01*
X69748963Y-100010235D01*
X69792106Y-100128130D01*
X69796342Y-100134433D01*
X69796342Y-100134434D01*
X69799314Y-100138856D01*
X69877896Y-100255799D01*
X69883515Y-100260912D01*
X69883516Y-100260913D01*
X69939799Y-100312126D01*
X69976722Y-100372766D01*
X69981000Y-100405320D01*
X69981000Y-100645645D01*
X69978414Y-100669944D01*
X69978346Y-100671382D01*
X69976155Y-100681560D01*
X69977379Y-100691900D01*
X69980127Y-100715122D01*
X69980479Y-100721100D01*
X69980572Y-100721092D01*
X69981000Y-100726270D01*
X69981000Y-100731472D01*
X69981854Y-100736602D01*
X69984186Y-100750612D01*
X69985022Y-100756484D01*
X69991082Y-100807687D01*
X69995067Y-100815986D01*
X69996578Y-100825063D01*
X70021058Y-100870431D01*
X70023739Y-100875694D01*
X70042627Y-100915030D01*
X70042630Y-100915034D01*
X70046060Y-100922178D01*
X70049670Y-100926472D01*
X70051602Y-100928404D01*
X70053389Y-100930353D01*
X70053418Y-100930406D01*
X70053288Y-100930526D01*
X70053790Y-100931095D01*
X70056888Y-100936837D01*
X70064532Y-100943903D01*
X70096708Y-100973647D01*
X70100273Y-100977076D01*
X73755094Y-104631897D01*
X73789120Y-104694209D01*
X73791999Y-104720992D01*
X73791999Y-106613126D01*
X73791644Y-106618771D01*
X73789774Y-106625023D01*
X73791372Y-106665688D01*
X73791902Y-106679177D01*
X73791999Y-106684124D01*
X73791999Y-120016289D01*
X73771997Y-120084410D01*
X73755094Y-120105384D01*
X70148882Y-123711595D01*
X70086570Y-123745621D01*
X70059787Y-123748500D01*
X69002768Y-123748500D01*
X68934647Y-123728498D01*
X68911613Y-123708709D01*
X68910197Y-123706649D01*
X68904534Y-123701603D01*
X68904530Y-123701599D01*
X68801024Y-123609380D01*
X68795353Y-123604327D01*
X68735456Y-123572613D01*
X68666131Y-123535907D01*
X68666128Y-123535906D01*
X68659416Y-123532352D01*
X68510234Y-123494880D01*
X68502636Y-123494840D01*
X68502634Y-123494840D01*
X68437143Y-123494497D01*
X68356421Y-123494075D01*
X68349042Y-123495847D01*
X68349038Y-123495847D01*
X68214234Y-123528210D01*
X68214230Y-123528211D01*
X68206855Y-123529982D01*
X68125028Y-123572216D01*
X68094139Y-123588159D01*
X68070172Y-123600529D01*
X67954262Y-123701644D01*
X67865818Y-123827488D01*
X67863059Y-123834563D01*
X67863058Y-123834566D01*
X67824218Y-123934186D01*
X67809944Y-123970797D01*
X67808952Y-123978330D01*
X67808952Y-123978331D01*
X67800581Y-124041919D01*
X67789867Y-124123296D01*
X67790701Y-124130846D01*
X67804268Y-124253735D01*
X67806746Y-124276183D01*
X67809355Y-124283314D01*
X67809356Y-124283316D01*
X67850517Y-124395792D01*
X67859606Y-124420630D01*
X67863842Y-124426933D01*
X67863842Y-124426934D01*
X67941162Y-124541999D01*
X67941165Y-124542002D01*
X67945396Y-124548299D01*
X68059163Y-124651819D01*
X68194338Y-124725213D01*
X68343119Y-124764245D01*
X68422938Y-124765499D01*
X68489318Y-124766542D01*
X68489321Y-124766542D01*
X68496916Y-124766661D01*
X68504320Y-124764965D01*
X68504322Y-124764965D01*
X68559589Y-124752307D01*
X68646849Y-124732322D01*
X68684955Y-124713157D01*
X68777481Y-124666622D01*
X68777484Y-124666620D01*
X68784264Y-124663210D01*
X68901226Y-124563314D01*
X68905659Y-124557144D01*
X68910193Y-124552214D01*
X68971026Y-124515609D01*
X69002942Y-124511500D01*
X70215865Y-124511500D01*
X70240164Y-124514086D01*
X70241602Y-124514154D01*
X70251780Y-124516345D01*
X70285341Y-124512373D01*
X70291320Y-124512021D01*
X70291312Y-124511928D01*
X70296490Y-124511500D01*
X70301692Y-124511500D01*
X70320846Y-124508312D01*
X70326704Y-124507478D01*
X70343318Y-124505512D01*
X70367567Y-124502642D01*
X70367568Y-124502642D01*
X70377907Y-124501418D01*
X70386206Y-124497433D01*
X70395283Y-124495922D01*
X70440651Y-124471442D01*
X70445914Y-124468761D01*
X70485250Y-124449873D01*
X70485254Y-124449870D01*
X70492398Y-124446440D01*
X70496692Y-124442830D01*
X70498624Y-124440898D01*
X70500573Y-124439111D01*
X70500626Y-124439082D01*
X70500746Y-124439212D01*
X70501315Y-124438710D01*
X70507057Y-124435612D01*
X70543867Y-124395792D01*
X70547296Y-124392227D01*
X74404978Y-120534545D01*
X74423994Y-120519186D01*
X74425055Y-120518220D01*
X74433803Y-120512572D01*
X74454728Y-120486029D01*
X74458707Y-120481551D01*
X74458636Y-120481491D01*
X74461989Y-120477534D01*
X74465670Y-120473853D01*
X74476968Y-120458044D01*
X74480531Y-120453299D01*
X74505984Y-120421011D01*
X74512433Y-120412831D01*
X74515483Y-120404146D01*
X74520833Y-120396659D01*
X74535608Y-120347254D01*
X74537429Y-120341651D01*
X74551887Y-120300482D01*
X74554515Y-120292999D01*
X74554999Y-120287410D01*
X74554999Y-120284697D01*
X74555114Y-120282032D01*
X74555133Y-120281969D01*
X74555307Y-120281976D01*
X74555354Y-120281230D01*
X74557224Y-120274977D01*
X74555096Y-120220823D01*
X74554999Y-120215876D01*
X74554999Y-118739564D01*
X97741051Y-118739564D01*
X97767954Y-118961880D01*
X97833800Y-119175917D01*
X97836370Y-119180897D01*
X97836372Y-119180901D01*
X97898703Y-119301665D01*
X97936509Y-119374912D01*
X98072833Y-119552573D01*
X98076979Y-119556346D01*
X98076984Y-119556351D01*
X98179309Y-119649459D01*
X98238464Y-119703286D01*
X98428167Y-119822286D01*
X98635944Y-119905812D01*
X98641436Y-119906949D01*
X98641438Y-119906950D01*
X98782059Y-119936071D01*
X98855228Y-119951224D01*
X98859839Y-119951490D01*
X98859840Y-119951490D01*
X98910225Y-119954395D01*
X98910229Y-119954395D01*
X98912048Y-119954500D01*
X101056819Y-119954500D01*
X101059606Y-119954251D01*
X101059612Y-119954251D01*
X101128962Y-119948061D01*
X101223051Y-119939664D01*
X101439051Y-119880573D01*
X101444109Y-119878161D01*
X101444113Y-119878159D01*
X101636107Y-119786583D01*
X101636109Y-119786582D01*
X101641174Y-119784166D01*
X101749578Y-119706270D01*
X101818470Y-119656766D01*
X101818472Y-119656764D01*
X101823030Y-119653489D01*
X101978871Y-119492674D01*
X102058003Y-119374912D01*
X102100641Y-119311460D01*
X102100643Y-119311457D01*
X102103770Y-119306803D01*
X102187993Y-119114940D01*
X102191525Y-119106894D01*
X102191526Y-119106892D01*
X102193782Y-119101752D01*
X102238309Y-118916283D01*
X102244749Y-118889459D01*
X102244749Y-118889458D01*
X102246059Y-118884002D01*
X102254687Y-118734364D01*
X102258626Y-118666043D01*
X102258626Y-118666040D01*
X102258949Y-118660436D01*
X102232046Y-118438120D01*
X102166200Y-118224083D01*
X102150427Y-118193522D01*
X102066063Y-118030071D01*
X102066063Y-118030070D01*
X102063491Y-118025088D01*
X101927167Y-117847427D01*
X101923021Y-117843654D01*
X101923016Y-117843649D01*
X101765689Y-117700493D01*
X101761536Y-117696714D01*
X101571833Y-117577714D01*
X101566381Y-117575522D01*
X101369262Y-117496281D01*
X101364056Y-117494188D01*
X101358564Y-117493051D01*
X101358562Y-117493050D01*
X101207754Y-117461819D01*
X101144772Y-117448776D01*
X101140161Y-117448510D01*
X101140160Y-117448510D01*
X101089775Y-117445605D01*
X101089771Y-117445605D01*
X101087952Y-117445500D01*
X98943181Y-117445500D01*
X98940394Y-117445749D01*
X98940388Y-117445749D01*
X98871038Y-117451939D01*
X98776949Y-117460336D01*
X98560949Y-117519427D01*
X98555891Y-117521839D01*
X98555887Y-117521841D01*
X98363893Y-117613417D01*
X98358826Y-117615834D01*
X98354265Y-117619111D01*
X98354264Y-117619112D01*
X98230859Y-117707788D01*
X98176970Y-117746511D01*
X98021129Y-117907326D01*
X98018001Y-117911981D01*
X97911084Y-118071092D01*
X97896230Y-118093197D01*
X97836421Y-118229444D01*
X97817418Y-118272735D01*
X97806218Y-118298248D01*
X97793594Y-118350831D01*
X97755265Y-118510485D01*
X97753941Y-118515998D01*
X97750998Y-118567047D01*
X97743101Y-118704017D01*
X97741051Y-118739564D01*
X74554999Y-118739564D01*
X74554999Y-107007500D01*
X74575001Y-106939379D01*
X74628657Y-106892886D01*
X74680999Y-106881500D01*
X87927150Y-106881500D01*
X87995271Y-106901502D01*
X88015052Y-106918677D01*
X88015396Y-106918299D01*
X88113427Y-107007500D01*
X88129163Y-107021819D01*
X88264338Y-107095213D01*
X88413119Y-107134245D01*
X88492938Y-107135499D01*
X88559318Y-107136542D01*
X88559321Y-107136542D01*
X88566916Y-107136661D01*
X88574320Y-107134965D01*
X88574322Y-107134965D01*
X88629589Y-107122307D01*
X88716849Y-107102322D01*
X88738187Y-107091590D01*
X88847481Y-107036622D01*
X88847484Y-107036620D01*
X88854264Y-107033210D01*
X88971226Y-106933314D01*
X89060983Y-106808403D01*
X89118355Y-106665688D01*
X89140028Y-106513407D01*
X89140168Y-106500000D01*
X89121689Y-106347299D01*
X89067319Y-106203413D01*
X89005902Y-106114050D01*
X88984499Y-106082908D01*
X88984497Y-106082906D01*
X88980197Y-106076649D01*
X88865353Y-105974327D01*
X88851602Y-105967046D01*
X88736131Y-105905907D01*
X88736128Y-105905906D01*
X88729416Y-105902352D01*
X88580234Y-105864880D01*
X88572636Y-105864840D01*
X88572634Y-105864840D01*
X88507143Y-105864497D01*
X88426421Y-105864075D01*
X88419042Y-105865847D01*
X88419038Y-105865847D01*
X88284234Y-105898210D01*
X88284230Y-105898211D01*
X88276855Y-105899982D01*
X88140172Y-105970529D01*
X88024262Y-106071644D01*
X88020472Y-106077036D01*
X87960392Y-106114050D01*
X87927202Y-106118500D01*
X74680999Y-106118500D01*
X74612878Y-106098498D01*
X74566385Y-106044842D01*
X74554999Y-105992500D01*
X74554999Y-104564915D01*
X74557584Y-104540626D01*
X74557652Y-104539179D01*
X74559844Y-104528999D01*
X74555872Y-104495439D01*
X74555519Y-104489458D01*
X74555427Y-104489466D01*
X74554999Y-104484287D01*
X74554999Y-104479087D01*
X74554146Y-104473960D01*
X74554145Y-104473952D01*
X74551811Y-104459930D01*
X74550974Y-104454054D01*
X74546140Y-104413210D01*
X74546139Y-104413208D01*
X74544916Y-104402871D01*
X74540932Y-104394574D01*
X74539421Y-104385496D01*
X74534477Y-104376334D01*
X74534476Y-104376330D01*
X74514946Y-104340135D01*
X74512250Y-104334845D01*
X74493370Y-104295526D01*
X74493370Y-104295525D01*
X74489939Y-104288381D01*
X74486329Y-104284087D01*
X74484397Y-104282155D01*
X74482610Y-104280206D01*
X74482581Y-104280153D01*
X74482711Y-104280033D01*
X74482209Y-104279464D01*
X74479111Y-104273722D01*
X74439291Y-104236912D01*
X74435726Y-104233483D01*
X70780905Y-100578662D01*
X70746879Y-100516350D01*
X70744000Y-100489567D01*
X70744000Y-100405535D01*
X70764002Y-100337414D01*
X70788169Y-100309725D01*
X70827950Y-100275749D01*
X70827958Y-100275741D01*
X70833726Y-100270814D01*
X70923483Y-100145903D01*
X70980855Y-100003188D01*
X71002528Y-99850907D01*
X71002668Y-99837500D01*
X71000946Y-99823265D01*
X70985101Y-99692339D01*
X70984189Y-99684799D01*
X70929819Y-99540913D01*
X70842697Y-99414149D01*
X70786181Y-99363795D01*
X70748625Y-99303545D01*
X70744000Y-99269719D01*
X70744000Y-84216636D01*
X70746585Y-84192347D01*
X70746653Y-84190900D01*
X70748845Y-84180720D01*
X70744873Y-84147160D01*
X70744520Y-84141179D01*
X70744428Y-84141187D01*
X70744000Y-84136008D01*
X70744000Y-84130808D01*
X70743147Y-84125681D01*
X70743146Y-84125673D01*
X70740812Y-84111651D01*
X70739975Y-84105775D01*
X70735141Y-84064931D01*
X70735140Y-84064929D01*
X70733917Y-84054592D01*
X70729933Y-84046295D01*
X70728422Y-84037217D01*
X70723478Y-84028055D01*
X70723477Y-84028051D01*
X70703947Y-83991856D01*
X70701251Y-83986566D01*
X70682371Y-83947247D01*
X70682371Y-83947246D01*
X70678940Y-83940102D01*
X70675330Y-83935808D01*
X70673398Y-83933876D01*
X70671611Y-83931927D01*
X70671582Y-83931874D01*
X70671712Y-83931755D01*
X70671211Y-83931187D01*
X70668112Y-83925443D01*
X70655092Y-83913407D01*
X70628292Y-83888634D01*
X70624726Y-83885204D01*
X68973695Y-82234173D01*
X68939669Y-82171861D01*
X68938047Y-82127325D01*
X68940028Y-82113407D01*
X68940168Y-82100000D01*
X68938446Y-82085765D01*
X68922601Y-81954839D01*
X68921689Y-81947299D01*
X68867319Y-81803413D01*
X68833935Y-81754839D01*
X68784499Y-81682908D01*
X68784497Y-81682906D01*
X68780197Y-81676649D01*
X68665353Y-81574327D01*
X68651602Y-81567046D01*
X68536131Y-81505907D01*
X68536128Y-81505906D01*
X68529416Y-81502352D01*
X68380234Y-81464880D01*
X68372636Y-81464840D01*
X68372634Y-81464840D01*
X68307143Y-81464497D01*
X68226421Y-81464075D01*
X68219042Y-81465847D01*
X68219038Y-81465847D01*
X68084234Y-81498210D01*
X68084230Y-81498211D01*
X68076855Y-81499982D01*
X67940172Y-81570529D01*
X67934450Y-81575521D01*
X67934448Y-81575522D01*
X67894334Y-81610516D01*
X67824262Y-81671644D01*
X67735818Y-81797488D01*
X67733059Y-81804563D01*
X67733058Y-81804566D01*
X67704083Y-81878883D01*
X67679944Y-81940797D01*
X67678952Y-81948330D01*
X67678952Y-81948331D01*
X67662410Y-82073981D01*
X67659867Y-82093296D01*
X67663624Y-82127322D01*
X67675130Y-82231543D01*
X67676746Y-82246183D01*
X67679355Y-82253314D01*
X67679356Y-82253316D01*
X67722871Y-82372225D01*
X67729606Y-82390630D01*
X67733842Y-82396933D01*
X67733842Y-82396934D01*
X67783932Y-82471476D01*
X67805324Y-82539173D01*
X67786720Y-82607689D01*
X67768445Y-82630847D01*
X66417697Y-83981595D01*
X66355385Y-84015621D01*
X66328602Y-84018500D01*
X60672768Y-84018500D01*
X60604647Y-83998498D01*
X60581613Y-83978709D01*
X60580197Y-83976649D01*
X60574534Y-83971603D01*
X60574530Y-83971599D01*
X60486643Y-83893296D01*
X60465353Y-83874327D01*
X60413524Y-83846885D01*
X60336131Y-83805907D01*
X60336128Y-83805906D01*
X60329416Y-83802352D01*
X60180234Y-83764880D01*
X60172636Y-83764840D01*
X60172634Y-83764840D01*
X60107143Y-83764497D01*
X60026421Y-83764075D01*
X60019042Y-83765847D01*
X60019038Y-83765847D01*
X59884234Y-83798210D01*
X59884230Y-83798211D01*
X59876855Y-83799982D01*
X59740172Y-83870529D01*
X59734450Y-83875521D01*
X59734448Y-83875522D01*
X59639920Y-83957985D01*
X59624262Y-83971644D01*
X59535818Y-84097488D01*
X59533059Y-84104563D01*
X59533058Y-84104566D01*
X59494593Y-84203224D01*
X59479944Y-84240797D01*
X59478952Y-84248330D01*
X59478952Y-84248331D01*
X59462577Y-84372713D01*
X59459867Y-84393296D01*
X50254500Y-84393296D01*
X50254500Y-74376736D01*
X59646427Y-74376736D01*
X59647261Y-74384286D01*
X59660034Y-74499982D01*
X59663306Y-74529623D01*
X59665915Y-74536754D01*
X59665916Y-74536756D01*
X59702433Y-74636542D01*
X59716166Y-74674070D01*
X59720402Y-74680373D01*
X59720402Y-74680374D01*
X59797722Y-74795439D01*
X59797725Y-74795442D01*
X59801956Y-74801739D01*
X59915723Y-74905259D01*
X60050898Y-74978653D01*
X60199679Y-75017685D01*
X60279498Y-75018939D01*
X60345878Y-75019982D01*
X60345881Y-75019982D01*
X60353476Y-75020101D01*
X60360880Y-75018405D01*
X60360882Y-75018405D01*
X60416149Y-75005747D01*
X60503409Y-74985762D01*
X60592813Y-74940797D01*
X60634041Y-74920062D01*
X60634044Y-74920060D01*
X60640824Y-74916650D01*
X60757786Y-74816754D01*
X60762219Y-74810584D01*
X60766753Y-74805654D01*
X60827586Y-74769049D01*
X60859502Y-74764940D01*
X68095226Y-74764940D01*
X68163347Y-74784942D01*
X68184321Y-74801845D01*
X72949567Y-79567092D01*
X72983593Y-79629404D01*
X72986472Y-79656187D01*
X72986472Y-100764174D01*
X72966470Y-100832295D01*
X72943304Y-100859121D01*
X72892234Y-100903672D01*
X72803790Y-101029516D01*
X72801031Y-101036591D01*
X72801030Y-101036594D01*
X72750676Y-101165745D01*
X72747916Y-101172825D01*
X72727839Y-101325324D01*
X72744718Y-101478211D01*
X72747327Y-101485342D01*
X72747328Y-101485344D01*
X72754435Y-101504763D01*
X72797578Y-101622658D01*
X72801814Y-101628961D01*
X72801814Y-101628962D01*
X72879134Y-101744027D01*
X72879137Y-101744030D01*
X72883368Y-101750327D01*
X72997135Y-101853847D01*
X73132310Y-101927241D01*
X73281091Y-101966273D01*
X73360910Y-101967527D01*
X73427290Y-101968570D01*
X73427293Y-101968570D01*
X73434888Y-101968689D01*
X73442292Y-101966993D01*
X73442294Y-101966993D01*
X73497561Y-101954335D01*
X73584821Y-101934350D01*
X73606159Y-101923618D01*
X73715453Y-101868650D01*
X73715456Y-101868648D01*
X73722236Y-101865238D01*
X73839198Y-101765342D01*
X73928955Y-101640431D01*
X73986327Y-101497716D01*
X74008000Y-101345435D01*
X74008140Y-101332028D01*
X74006418Y-101317793D01*
X73990573Y-101186867D01*
X73989661Y-101179327D01*
X73935291Y-101035441D01*
X73893964Y-100975310D01*
X73852471Y-100914936D01*
X73852469Y-100914934D01*
X73848169Y-100908677D01*
X73791653Y-100858323D01*
X73754097Y-100798073D01*
X73749472Y-100764247D01*
X73749472Y-94493296D01*
X83559867Y-94493296D01*
X83562538Y-94517487D01*
X83574501Y-94625847D01*
X83576746Y-94646183D01*
X83579355Y-94653314D01*
X83579356Y-94653316D01*
X83611753Y-94741843D01*
X83629606Y-94790630D01*
X83633842Y-94796933D01*
X83633842Y-94796934D01*
X83711162Y-94911999D01*
X83711165Y-94912002D01*
X83715396Y-94918299D01*
X83829163Y-95021819D01*
X83964338Y-95095213D01*
X84113119Y-95134245D01*
X84192938Y-95135499D01*
X84259318Y-95136542D01*
X84259321Y-95136542D01*
X84266916Y-95136661D01*
X84274320Y-95134965D01*
X84274322Y-95134965D01*
X84329589Y-95122307D01*
X84416849Y-95102322D01*
X84504891Y-95058042D01*
X84547481Y-95036622D01*
X84547484Y-95036620D01*
X84554264Y-95033210D01*
X84671226Y-94933314D01*
X84760983Y-94808403D01*
X84818355Y-94665688D01*
X84840028Y-94513407D01*
X84840168Y-94500000D01*
X84838446Y-94485765D01*
X84836670Y-94471092D01*
X84848343Y-94401061D01*
X84872659Y-94366863D01*
X85821120Y-93418403D01*
X85883430Y-93384379D01*
X85910213Y-93381500D01*
X105177150Y-93381500D01*
X105245271Y-93401502D01*
X105265052Y-93418677D01*
X105265396Y-93418299D01*
X105306304Y-93455522D01*
X105379163Y-93521819D01*
X105514338Y-93595213D01*
X105663119Y-93634245D01*
X105742938Y-93635499D01*
X105809318Y-93636542D01*
X105809321Y-93636542D01*
X105816916Y-93636661D01*
X105824320Y-93634965D01*
X105824322Y-93634965D01*
X105879589Y-93622307D01*
X105966849Y-93602322D01*
X106045216Y-93562908D01*
X106097481Y-93536622D01*
X106097484Y-93536620D01*
X106104264Y-93533210D01*
X106221226Y-93433314D01*
X106310983Y-93308403D01*
X106368355Y-93165688D01*
X106390028Y-93013407D01*
X106390168Y-93000000D01*
X106388136Y-92983204D01*
X106372601Y-92854839D01*
X106371689Y-92847299D01*
X106317319Y-92703413D01*
X106278753Y-92647299D01*
X106234499Y-92582908D01*
X106234497Y-92582906D01*
X106230197Y-92576649D01*
X106115353Y-92474327D01*
X106088166Y-92459932D01*
X105986131Y-92405907D01*
X105986128Y-92405906D01*
X105979416Y-92402352D01*
X105830234Y-92364880D01*
X105822636Y-92364840D01*
X105822634Y-92364840D01*
X105757143Y-92364497D01*
X105676421Y-92364075D01*
X105669042Y-92365847D01*
X105669038Y-92365847D01*
X105534234Y-92398210D01*
X105534230Y-92398211D01*
X105526855Y-92399982D01*
X105390172Y-92470529D01*
X105384450Y-92475521D01*
X105384448Y-92475522D01*
X105359650Y-92497155D01*
X105274262Y-92571644D01*
X105270472Y-92577036D01*
X105210392Y-92614050D01*
X105177202Y-92618500D01*
X86007500Y-92618500D01*
X85939379Y-92598498D01*
X85892886Y-92544842D01*
X85881500Y-92492500D01*
X85881500Y-92392955D01*
X85884087Y-92368639D01*
X85884154Y-92367216D01*
X85886346Y-92357035D01*
X85882373Y-92323467D01*
X85882021Y-92317493D01*
X85881928Y-92317501D01*
X85881500Y-92312323D01*
X85881500Y-92307123D01*
X85880646Y-92301991D01*
X85878314Y-92287980D01*
X85877477Y-92282101D01*
X85872642Y-92241248D01*
X85872642Y-92241247D01*
X85871418Y-92230908D01*
X85867433Y-92222609D01*
X85865922Y-92213532D01*
X85841442Y-92168164D01*
X85838761Y-92162901D01*
X85819869Y-92123558D01*
X85816440Y-92116417D01*
X85812831Y-92112123D01*
X85810905Y-92110197D01*
X85809109Y-92108239D01*
X85809079Y-92108182D01*
X85809208Y-92108064D01*
X85808710Y-92107499D01*
X85805612Y-92101758D01*
X85765804Y-92064960D01*
X85762239Y-92061531D01*
X84731362Y-91030654D01*
X84697336Y-90968342D01*
X84702401Y-90897527D01*
X84718133Y-90868035D01*
X84760983Y-90808403D01*
X84818355Y-90665688D01*
X84840028Y-90513407D01*
X84840168Y-90500000D01*
X84839060Y-90490837D01*
X84824392Y-90369638D01*
X84821689Y-90347299D01*
X84767319Y-90203413D01*
X84680197Y-90076649D01*
X84565353Y-89974327D01*
X84551602Y-89967046D01*
X84436131Y-89905907D01*
X84436128Y-89905906D01*
X84429416Y-89902352D01*
X84280234Y-89864880D01*
X84272636Y-89864840D01*
X84272634Y-89864840D01*
X84207143Y-89864497D01*
X84126421Y-89864075D01*
X84119042Y-89865847D01*
X84119038Y-89865847D01*
X83984234Y-89898210D01*
X83984230Y-89898211D01*
X83976855Y-89899982D01*
X83840172Y-89970529D01*
X83834450Y-89975521D01*
X83834448Y-89975522D01*
X83745253Y-90053332D01*
X83724262Y-90071644D01*
X83635818Y-90197488D01*
X83633059Y-90204563D01*
X83633058Y-90204566D01*
X83592064Y-90309710D01*
X83579944Y-90340797D01*
X83578952Y-90348330D01*
X83578952Y-90348331D01*
X83563249Y-90467608D01*
X83559867Y-90493296D01*
X83562538Y-90517487D01*
X83575197Y-90632150D01*
X83576746Y-90646183D01*
X83579355Y-90653314D01*
X83579356Y-90653316D01*
X83611672Y-90741622D01*
X83629606Y-90790630D01*
X83633842Y-90796933D01*
X83633842Y-90796934D01*
X83645694Y-90814571D01*
X83715396Y-90918299D01*
X83777149Y-90974490D01*
X83814070Y-91035129D01*
X83817474Y-91052870D01*
X83817626Y-91054154D01*
X83817979Y-91060135D01*
X83818072Y-91060127D01*
X83818500Y-91065305D01*
X83818500Y-91070507D01*
X83819354Y-91075637D01*
X83821686Y-91089647D01*
X83822522Y-91095519D01*
X83828582Y-91146722D01*
X83832567Y-91155021D01*
X83834078Y-91164098D01*
X83858558Y-91209466D01*
X83861239Y-91214729D01*
X83880127Y-91254065D01*
X83880130Y-91254069D01*
X83883560Y-91261213D01*
X83887170Y-91265507D01*
X83889102Y-91267439D01*
X83890889Y-91269388D01*
X83890918Y-91269441D01*
X83890788Y-91269560D01*
X83891289Y-91270128D01*
X83894388Y-91275872D01*
X83902033Y-91282939D01*
X83934209Y-91312682D01*
X83937775Y-91316112D01*
X85081595Y-92459932D01*
X85115621Y-92522244D01*
X85118500Y-92549027D01*
X85118500Y-92977759D01*
X85118030Y-92988635D01*
X85116889Y-93001804D01*
X85091081Y-93067944D01*
X85080454Y-93080024D01*
X84332694Y-93827783D01*
X84270382Y-93861808D01*
X84242941Y-93864685D01*
X84126421Y-93864075D01*
X84119042Y-93865847D01*
X84119038Y-93865847D01*
X83984234Y-93898210D01*
X83984230Y-93898211D01*
X83976855Y-93899982D01*
X83840172Y-93970529D01*
X83834450Y-93975521D01*
X83834448Y-93975522D01*
X83729989Y-94066648D01*
X83724262Y-94071644D01*
X83635818Y-94197488D01*
X83633059Y-94204563D01*
X83633058Y-94204566D01*
X83582704Y-94333717D01*
X83579944Y-94340797D01*
X83578952Y-94348330D01*
X83578952Y-94348331D01*
X83572360Y-94398405D01*
X83559867Y-94493296D01*
X73749472Y-94493296D01*
X73749472Y-87593296D01*
X81859867Y-87593296D01*
X81862216Y-87614569D01*
X81875870Y-87738244D01*
X81876746Y-87746183D01*
X81879355Y-87753314D01*
X81879356Y-87753316D01*
X81906789Y-87828279D01*
X81929606Y-87890630D01*
X81933842Y-87896933D01*
X81933842Y-87896934D01*
X82011162Y-88011999D01*
X82011165Y-88012002D01*
X82015396Y-88018299D01*
X82129163Y-88121819D01*
X82264338Y-88195213D01*
X82413119Y-88234245D01*
X82492938Y-88235499D01*
X82559318Y-88236542D01*
X82559321Y-88236542D01*
X82566916Y-88236661D01*
X82574320Y-88234965D01*
X82574322Y-88234965D01*
X82629589Y-88222307D01*
X82716849Y-88202322D01*
X82738187Y-88191590D01*
X82847481Y-88136622D01*
X82847484Y-88136620D01*
X82854264Y-88133210D01*
X82971226Y-88033314D01*
X83060983Y-87908403D01*
X83066286Y-87895213D01*
X83115522Y-87772735D01*
X83118355Y-87765688D01*
X83140028Y-87613407D01*
X83140168Y-87600000D01*
X83138446Y-87585765D01*
X83122601Y-87454839D01*
X83121689Y-87447299D01*
X83067319Y-87303413D01*
X82980197Y-87176649D01*
X82923681Y-87126295D01*
X82886125Y-87066045D01*
X82881500Y-87032219D01*
X82881500Y-82468035D01*
X82901502Y-82399914D01*
X82925669Y-82372225D01*
X82965450Y-82338249D01*
X82965458Y-82338241D01*
X82971226Y-82333314D01*
X83060983Y-82208403D01*
X83071555Y-82182106D01*
X83115522Y-82072735D01*
X83118355Y-82065688D01*
X83140028Y-81913407D01*
X83140168Y-81900000D01*
X83138446Y-81885765D01*
X83128619Y-81804566D01*
X83121689Y-81747299D01*
X83067319Y-81603413D01*
X83042325Y-81567046D01*
X82984499Y-81482908D01*
X82984497Y-81482906D01*
X82980197Y-81476649D01*
X82865353Y-81374327D01*
X82851602Y-81367046D01*
X82736131Y-81305907D01*
X82736128Y-81305906D01*
X82729416Y-81302352D01*
X82580234Y-81264880D01*
X82572636Y-81264840D01*
X82572634Y-81264840D01*
X82507143Y-81264497D01*
X82426421Y-81264075D01*
X82419042Y-81265847D01*
X82419038Y-81265847D01*
X82284234Y-81298210D01*
X82284230Y-81298211D01*
X82276855Y-81299982D01*
X82140172Y-81370529D01*
X82024262Y-81471644D01*
X81935818Y-81597488D01*
X81933059Y-81604563D01*
X81933058Y-81604566D01*
X81904954Y-81676649D01*
X81879944Y-81740797D01*
X81878952Y-81748330D01*
X81878952Y-81748331D01*
X81861765Y-81878883D01*
X81859867Y-81893296D01*
X81867989Y-81966860D01*
X81875851Y-82038072D01*
X81876746Y-82046183D01*
X81879355Y-82053314D01*
X81879356Y-82053316D01*
X81926487Y-82182106D01*
X81929606Y-82190630D01*
X81933842Y-82196933D01*
X81933842Y-82196934D01*
X82002131Y-82298558D01*
X82015396Y-82318299D01*
X82021015Y-82323412D01*
X82021016Y-82323413D01*
X82077299Y-82374626D01*
X82114222Y-82435266D01*
X82118500Y-82467820D01*
X82118500Y-87032146D01*
X82098498Y-87100267D01*
X82075332Y-87127093D01*
X82024262Y-87171644D01*
X81935818Y-87297488D01*
X81933059Y-87304563D01*
X81933058Y-87304566D01*
X81882704Y-87433717D01*
X81879944Y-87440797D01*
X81859867Y-87593296D01*
X73749472Y-87593296D01*
X73749472Y-79953474D01*
X73769474Y-79885353D01*
X73823130Y-79838860D01*
X73875472Y-79827474D01*
X74586076Y-79827474D01*
X74610375Y-79830060D01*
X74611813Y-79830128D01*
X74621991Y-79832319D01*
X74655552Y-79828347D01*
X74661531Y-79827995D01*
X74661523Y-79827902D01*
X74666701Y-79827474D01*
X74671903Y-79827474D01*
X74691057Y-79824286D01*
X74696915Y-79823452D01*
X74713529Y-79821486D01*
X74737778Y-79818616D01*
X74737779Y-79818616D01*
X74748118Y-79817392D01*
X74756417Y-79813407D01*
X74765494Y-79811896D01*
X74810862Y-79787416D01*
X74816125Y-79784735D01*
X74855461Y-79765847D01*
X74855465Y-79765844D01*
X74862609Y-79762414D01*
X74866903Y-79758804D01*
X74868835Y-79756872D01*
X74870784Y-79755085D01*
X74870837Y-79755056D01*
X74870956Y-79755186D01*
X74871524Y-79754685D01*
X74877268Y-79751586D01*
X74914079Y-79711764D01*
X74917508Y-79708199D01*
X77129180Y-77496527D01*
X77191492Y-77462501D01*
X77262307Y-77467566D01*
X77288526Y-77481465D01*
X77291663Y-77484319D01*
X77426838Y-77557713D01*
X77575619Y-77596745D01*
X77710205Y-77598859D01*
X77778002Y-77619928D01*
X77787702Y-77627225D01*
X77790148Y-77629671D01*
X77794374Y-77632691D01*
X77794381Y-77632697D01*
X77805957Y-77640969D01*
X77810702Y-77644532D01*
X77851170Y-77676434D01*
X77859855Y-77679484D01*
X77867342Y-77684834D01*
X77916747Y-77699609D01*
X77922342Y-77701427D01*
X77971002Y-77718516D01*
X77976591Y-77719000D01*
X77979304Y-77719000D01*
X77981969Y-77719115D01*
X77982032Y-77719134D01*
X77982025Y-77719308D01*
X77982771Y-77719355D01*
X77989024Y-77721225D01*
X78038883Y-77719266D01*
X78043178Y-77719097D01*
X78048125Y-77719000D01*
X81989650Y-77719000D01*
X82057771Y-77739002D01*
X82077552Y-77756177D01*
X82077896Y-77755799D01*
X82191663Y-77859319D01*
X82326838Y-77932713D01*
X82475619Y-77971745D01*
X82555438Y-77972999D01*
X82621818Y-77974042D01*
X82621821Y-77974042D01*
X82629416Y-77974161D01*
X82636820Y-77972465D01*
X82636822Y-77972465D01*
X82692089Y-77959807D01*
X82779349Y-77939822D01*
X82800687Y-77929090D01*
X82909981Y-77874122D01*
X82909984Y-77874120D01*
X82916764Y-77870710D01*
X83033726Y-77770814D01*
X83123483Y-77645903D01*
X83132560Y-77623325D01*
X83178022Y-77510235D01*
X83180855Y-77503188D01*
X83202528Y-77350907D01*
X83202668Y-77337500D01*
X83184189Y-77184799D01*
X83129819Y-77040913D01*
X83068402Y-76951550D01*
X83046999Y-76920408D01*
X83046997Y-76920406D01*
X83042697Y-76914149D01*
X82927853Y-76811827D01*
X82910608Y-76802696D01*
X82798631Y-76743407D01*
X82798628Y-76743406D01*
X82791916Y-76739852D01*
X82642734Y-76702380D01*
X82635136Y-76702340D01*
X82635134Y-76702340D01*
X82569643Y-76701997D01*
X82488921Y-76701575D01*
X82481542Y-76703347D01*
X82481538Y-76703347D01*
X82346734Y-76735710D01*
X82346730Y-76735711D01*
X82339355Y-76737482D01*
X82257528Y-76779716D01*
X82213005Y-76802696D01*
X82202672Y-76808029D01*
X82196950Y-76813021D01*
X82196948Y-76813022D01*
X82117919Y-76881964D01*
X82086762Y-76909144D01*
X82082972Y-76914536D01*
X82022892Y-76951550D01*
X81989702Y-76956000D01*
X78413552Y-76956000D01*
X78345431Y-76935998D01*
X78298938Y-76882342D01*
X78288466Y-76845143D01*
X78284189Y-76809799D01*
X78229819Y-76665913D01*
X78218655Y-76649669D01*
X78146999Y-76545408D01*
X78146997Y-76545406D01*
X78142697Y-76539149D01*
X78027853Y-76436827D01*
X78014102Y-76429546D01*
X77898631Y-76368407D01*
X77898628Y-76368406D01*
X77891916Y-76364852D01*
X77742734Y-76327380D01*
X77735136Y-76327340D01*
X77735134Y-76327340D01*
X77669643Y-76326997D01*
X77588921Y-76326575D01*
X77581542Y-76328347D01*
X77581538Y-76328347D01*
X77446734Y-76360710D01*
X77446730Y-76360711D01*
X77439355Y-76362482D01*
X77302672Y-76433029D01*
X77186762Y-76534144D01*
X77182859Y-76539698D01*
X77122705Y-76576756D01*
X77099893Y-76580777D01*
X77097195Y-76581000D01*
X77091993Y-76581000D01*
X77086863Y-76581854D01*
X77086862Y-76581854D01*
X77072850Y-76584186D01*
X77066971Y-76585023D01*
X77026118Y-76589858D01*
X77026117Y-76589858D01*
X77015778Y-76591082D01*
X77007479Y-76595067D01*
X76998402Y-76596578D01*
X76953034Y-76621058D01*
X76947771Y-76623739D01*
X76901287Y-76646060D01*
X76896993Y-76649669D01*
X76895067Y-76651595D01*
X76893109Y-76653391D01*
X76893052Y-76653421D01*
X76892934Y-76653292D01*
X76892369Y-76653790D01*
X76886628Y-76656888D01*
X76879559Y-76664535D01*
X76879558Y-76664536D01*
X76849831Y-76696695D01*
X76846401Y-76700261D01*
X74519093Y-79027569D01*
X74456781Y-79061595D01*
X74429998Y-79064474D01*
X73578184Y-79064474D01*
X73510063Y-79044472D01*
X73489089Y-79027569D01*
X71063044Y-76601523D01*
X68613482Y-74151961D01*
X68598123Y-74132945D01*
X68597157Y-74131884D01*
X68591509Y-74123136D01*
X68564966Y-74102211D01*
X68560491Y-74098234D01*
X68560430Y-74098305D01*
X68556473Y-74094952D01*
X68552790Y-74091269D01*
X68536999Y-74079985D01*
X68532253Y-74076422D01*
X68499945Y-74050952D01*
X68499944Y-74050951D01*
X68491768Y-74044506D01*
X68483081Y-74041455D01*
X68475595Y-74036106D01*
X68465619Y-74033123D01*
X68465618Y-74033122D01*
X68426227Y-74021342D01*
X68420595Y-74019512D01*
X68371936Y-74002424D01*
X68366347Y-74001940D01*
X68363636Y-74001940D01*
X68360969Y-74001825D01*
X68360906Y-74001806D01*
X68360913Y-74001632D01*
X68360167Y-74001585D01*
X68353914Y-73999715D01*
X68305130Y-74001632D01*
X68299760Y-74001843D01*
X68294813Y-74001940D01*
X60859328Y-74001940D01*
X60791207Y-73981938D01*
X60768173Y-73962149D01*
X60766757Y-73960089D01*
X60761094Y-73955043D01*
X60761090Y-73955039D01*
X60685752Y-73887916D01*
X60651913Y-73857767D01*
X60633506Y-73848021D01*
X60522691Y-73789347D01*
X60522688Y-73789346D01*
X60515976Y-73785792D01*
X60366794Y-73748320D01*
X60359196Y-73748280D01*
X60359194Y-73748280D01*
X60293703Y-73747937D01*
X60212981Y-73747515D01*
X60205602Y-73749287D01*
X60205598Y-73749287D01*
X60070794Y-73781650D01*
X60070790Y-73781651D01*
X60063415Y-73783422D01*
X59987354Y-73822680D01*
X59936689Y-73848830D01*
X59926732Y-73853969D01*
X59921010Y-73858961D01*
X59921008Y-73858962D01*
X59855398Y-73916198D01*
X59810822Y-73955084D01*
X59722378Y-74080928D01*
X59719619Y-74088003D01*
X59719618Y-74088006D01*
X59669264Y-74217157D01*
X59666504Y-74224237D01*
X59646427Y-74376736D01*
X50254500Y-74376736D01*
X50254500Y-71093296D01*
X59159867Y-71093296D01*
X59176746Y-71246183D01*
X59179355Y-71253314D01*
X59179356Y-71253316D01*
X59222339Y-71370771D01*
X59229606Y-71390630D01*
X59233842Y-71396933D01*
X59233842Y-71396934D01*
X59311162Y-71511999D01*
X59311165Y-71512002D01*
X59315396Y-71518299D01*
X59429163Y-71621819D01*
X59564338Y-71695213D01*
X59713119Y-71734245D01*
X59792938Y-71735499D01*
X59859318Y-71736542D01*
X59859321Y-71736542D01*
X59866916Y-71736661D01*
X59874320Y-71734965D01*
X59874322Y-71734965D01*
X59929589Y-71722307D01*
X60016849Y-71702322D01*
X60038187Y-71691590D01*
X60147481Y-71636622D01*
X60147484Y-71636620D01*
X60154264Y-71633210D01*
X60271226Y-71533314D01*
X60275659Y-71527144D01*
X60280193Y-71522214D01*
X60341026Y-71485609D01*
X60372942Y-71481500D01*
X68289788Y-71481500D01*
X68357909Y-71501502D01*
X68378883Y-71518405D01*
X70437126Y-73576649D01*
X72491956Y-75631479D01*
X72507315Y-75650495D01*
X72508281Y-75651556D01*
X72513929Y-75660304D01*
X72522106Y-75666750D01*
X72540472Y-75681229D01*
X72544950Y-75685208D01*
X72545010Y-75685137D01*
X72548967Y-75688490D01*
X72552648Y-75692171D01*
X72556880Y-75695195D01*
X72556882Y-75695197D01*
X72568457Y-75703469D01*
X72573202Y-75707032D01*
X72613670Y-75738934D01*
X72622355Y-75741984D01*
X72629842Y-75747334D01*
X72679247Y-75762109D01*
X72684842Y-75763927D01*
X72733502Y-75781016D01*
X72739091Y-75781500D01*
X72741804Y-75781500D01*
X72744469Y-75781615D01*
X72744532Y-75781634D01*
X72744525Y-75781808D01*
X72745271Y-75781855D01*
X72751524Y-75783725D01*
X72801383Y-75781766D01*
X72805678Y-75781597D01*
X72810625Y-75781500D01*
X82828603Y-75781500D01*
X82896724Y-75801502D01*
X82917698Y-75818405D01*
X85318634Y-78219342D01*
X85352660Y-78281654D01*
X85347595Y-78352470D01*
X85332629Y-78380882D01*
X85285818Y-78447488D01*
X85283059Y-78454563D01*
X85283058Y-78454566D01*
X85232704Y-78583717D01*
X85229944Y-78590797D01*
X85209867Y-78743296D01*
X85226746Y-78896183D01*
X85229355Y-78903314D01*
X85229356Y-78903316D01*
X85236463Y-78922735D01*
X85279606Y-79040630D01*
X85283842Y-79046933D01*
X85283842Y-79046934D01*
X85361162Y-79161999D01*
X85361165Y-79162002D01*
X85365396Y-79168299D01*
X85479163Y-79271819D01*
X85614338Y-79345213D01*
X85763119Y-79384245D01*
X85842938Y-79385499D01*
X85909318Y-79386542D01*
X85909321Y-79386542D01*
X85916916Y-79386661D01*
X85924320Y-79384965D01*
X85924322Y-79384965D01*
X85979589Y-79372307D01*
X86066849Y-79352322D01*
X86088187Y-79341590D01*
X86197481Y-79286622D01*
X86197484Y-79286620D01*
X86204264Y-79283210D01*
X86321226Y-79183314D01*
X86410983Y-79058403D01*
X86468355Y-78915688D01*
X86490028Y-78763407D01*
X86490168Y-78750000D01*
X86488446Y-78735765D01*
X86472601Y-78604839D01*
X86471689Y-78597299D01*
X86417319Y-78453413D01*
X86330197Y-78326649D01*
X86273837Y-78276434D01*
X86236283Y-78216186D01*
X86232534Y-78197191D01*
X86232376Y-78195858D01*
X86232022Y-78189863D01*
X86231928Y-78189871D01*
X86231500Y-78184693D01*
X86231500Y-78179493D01*
X86230646Y-78174361D01*
X86228314Y-78160350D01*
X86227477Y-78154471D01*
X86222642Y-78113618D01*
X86222642Y-78113617D01*
X86221418Y-78103278D01*
X86217433Y-78094979D01*
X86215922Y-78085902D01*
X86191442Y-78040534D01*
X86188761Y-78035271D01*
X86169873Y-77995935D01*
X86169870Y-77995931D01*
X86166440Y-77988787D01*
X86162830Y-77984493D01*
X86160898Y-77982561D01*
X86159111Y-77980612D01*
X86159082Y-77980559D01*
X86159212Y-77980440D01*
X86158711Y-77979872D01*
X86155612Y-77974128D01*
X86115791Y-77937318D01*
X86112226Y-77933889D01*
X83346859Y-75168521D01*
X83331500Y-75149505D01*
X83330534Y-75148444D01*
X83324886Y-75139696D01*
X83298343Y-75118771D01*
X83293868Y-75114794D01*
X83293807Y-75114865D01*
X83289850Y-75111512D01*
X83286167Y-75107829D01*
X83270376Y-75096545D01*
X83265630Y-75092982D01*
X83233322Y-75067512D01*
X83233321Y-75067511D01*
X83225145Y-75061066D01*
X83216458Y-75058015D01*
X83208972Y-75052666D01*
X83198996Y-75049683D01*
X83198995Y-75049682D01*
X83159604Y-75037902D01*
X83153972Y-75036072D01*
X83105313Y-75018984D01*
X83099724Y-75018500D01*
X83097013Y-75018500D01*
X83094346Y-75018385D01*
X83094283Y-75018366D01*
X83094290Y-75018192D01*
X83093544Y-75018145D01*
X83087291Y-75016275D01*
X83038507Y-75018192D01*
X83033137Y-75018403D01*
X83028190Y-75018500D01*
X73010212Y-75018500D01*
X72942091Y-74998498D01*
X72921117Y-74981595D01*
X68808044Y-70868521D01*
X68792685Y-70849505D01*
X68791719Y-70848444D01*
X68786071Y-70839696D01*
X68759528Y-70818771D01*
X68755053Y-70814794D01*
X68754992Y-70814865D01*
X68751035Y-70811512D01*
X68747352Y-70807829D01*
X68739323Y-70802091D01*
X68731564Y-70796547D01*
X68726815Y-70792982D01*
X68694507Y-70767512D01*
X68694506Y-70767511D01*
X68686330Y-70761066D01*
X68677643Y-70758015D01*
X68670157Y-70752666D01*
X68660181Y-70749683D01*
X68660180Y-70749682D01*
X68620789Y-70737902D01*
X68615157Y-70736072D01*
X68566498Y-70718984D01*
X68560909Y-70718500D01*
X68558198Y-70718500D01*
X68555531Y-70718385D01*
X68555468Y-70718366D01*
X68555475Y-70718192D01*
X68554729Y-70718145D01*
X68548476Y-70716275D01*
X68499692Y-70718192D01*
X68494322Y-70718403D01*
X68489375Y-70718500D01*
X60372768Y-70718500D01*
X60304647Y-70698498D01*
X60281613Y-70678709D01*
X60280197Y-70676649D01*
X60274534Y-70671603D01*
X60274530Y-70671599D01*
X60171022Y-70579378D01*
X60171023Y-70579378D01*
X60165353Y-70574327D01*
X60151602Y-70567046D01*
X60036131Y-70505907D01*
X60036128Y-70505906D01*
X60029416Y-70502352D01*
X59880234Y-70464880D01*
X59872636Y-70464840D01*
X59872634Y-70464840D01*
X59807143Y-70464497D01*
X59726421Y-70464075D01*
X59719042Y-70465847D01*
X59719038Y-70465847D01*
X59584234Y-70498210D01*
X59584230Y-70498211D01*
X59576855Y-70499982D01*
X59440172Y-70570529D01*
X59434450Y-70575521D01*
X59434448Y-70575522D01*
X59362079Y-70638654D01*
X59324262Y-70671644D01*
X59235818Y-70797488D01*
X59233059Y-70804563D01*
X59233058Y-70804566D01*
X59182887Y-70933248D01*
X59179944Y-70940797D01*
X59178952Y-70948330D01*
X59178952Y-70948331D01*
X59175396Y-70975346D01*
X59159867Y-71093296D01*
X50254500Y-71093296D01*
X50254500Y-67855796D01*
X67522367Y-67855796D01*
X67539246Y-68008683D01*
X67592106Y-68153130D01*
X67596342Y-68159433D01*
X67596342Y-68159434D01*
X67673662Y-68274499D01*
X67673665Y-68274502D01*
X67677896Y-68280799D01*
X67791663Y-68384319D01*
X67926838Y-68457713D01*
X68075619Y-68496745D01*
X68155438Y-68497999D01*
X68221818Y-68499042D01*
X68221821Y-68499042D01*
X68229416Y-68499161D01*
X68236820Y-68497465D01*
X68236822Y-68497465D01*
X68292089Y-68484807D01*
X68379349Y-68464822D01*
X68400687Y-68454090D01*
X68509981Y-68399122D01*
X68509984Y-68399120D01*
X68516764Y-68395710D01*
X68633726Y-68295814D01*
X68638159Y-68289644D01*
X68642693Y-68284714D01*
X68703526Y-68248109D01*
X68735442Y-68244000D01*
X68952288Y-68244000D01*
X69020409Y-68264002D01*
X69041383Y-68280905D01*
X74626854Y-73866376D01*
X74660880Y-73928688D01*
X74662681Y-73971915D01*
X74660858Y-73985761D01*
X74660858Y-73985769D01*
X74659867Y-73993296D01*
X74664761Y-74037626D01*
X74675285Y-74132945D01*
X74676746Y-74146183D01*
X74679355Y-74153314D01*
X74679356Y-74153316D01*
X74708067Y-74231771D01*
X74729606Y-74290630D01*
X74733842Y-74296933D01*
X74733842Y-74296934D01*
X74811162Y-74411999D01*
X74811165Y-74412002D01*
X74815396Y-74418299D01*
X74929163Y-74521819D01*
X75064338Y-74595213D01*
X75213119Y-74634245D01*
X75292938Y-74635499D01*
X75359318Y-74636542D01*
X75359321Y-74636542D01*
X75366916Y-74636661D01*
X75374320Y-74634965D01*
X75374322Y-74634965D01*
X75429589Y-74622307D01*
X75516849Y-74602322D01*
X75538187Y-74591590D01*
X75647481Y-74536622D01*
X75647484Y-74536620D01*
X75654264Y-74533210D01*
X75771226Y-74433314D01*
X75860983Y-74308403D01*
X75918355Y-74165688D01*
X75940028Y-74013407D01*
X75940168Y-74000000D01*
X75937983Y-73981938D01*
X75927055Y-73891639D01*
X75921689Y-73847299D01*
X75867319Y-73703413D01*
X75780197Y-73576649D01*
X75665353Y-73474327D01*
X75623727Y-73452287D01*
X75536131Y-73405907D01*
X75536128Y-73405906D01*
X75529416Y-73402352D01*
X75380234Y-73364880D01*
X75372636Y-73364840D01*
X75372634Y-73364840D01*
X75255282Y-73364226D01*
X75187266Y-73343868D01*
X75166846Y-73327323D01*
X71495319Y-69655796D01*
X78659867Y-69655796D01*
X78663176Y-69685765D01*
X78674677Y-69789941D01*
X78676746Y-69808683D01*
X78679355Y-69815814D01*
X78679356Y-69815816D01*
X78700186Y-69872735D01*
X78729606Y-69953130D01*
X78733842Y-69959433D01*
X78733842Y-69959434D01*
X78811162Y-70074499D01*
X78811165Y-70074502D01*
X78815396Y-70080799D01*
X78821010Y-70085907D01*
X78914082Y-70170596D01*
X78929163Y-70184319D01*
X79064338Y-70257713D01*
X79213119Y-70296745D01*
X79296788Y-70298059D01*
X79346593Y-70298842D01*
X79414391Y-70319911D01*
X79433709Y-70335731D01*
X81229454Y-72131476D01*
X81244818Y-72150499D01*
X81245782Y-72151558D01*
X81251429Y-72160304D01*
X81259608Y-72166752D01*
X81259610Y-72166754D01*
X81277977Y-72181234D01*
X81282448Y-72185207D01*
X81282509Y-72185136D01*
X81286473Y-72188495D01*
X81290149Y-72192171D01*
X81294376Y-72195191D01*
X81294380Y-72195195D01*
X81305933Y-72203450D01*
X81310675Y-72207009D01*
X81351170Y-72238934D01*
X81359857Y-72241985D01*
X81367343Y-72247334D01*
X81377319Y-72250317D01*
X81377320Y-72250318D01*
X81408702Y-72259703D01*
X81412963Y-72260977D01*
X81416711Y-72262098D01*
X81422343Y-72263928D01*
X81471002Y-72281016D01*
X81476591Y-72281500D01*
X81479302Y-72281500D01*
X81481969Y-72281615D01*
X81482032Y-72281634D01*
X81482025Y-72281808D01*
X81482771Y-72281855D01*
X81489024Y-72283725D01*
X81543188Y-72281597D01*
X81548134Y-72281500D01*
X85627150Y-72281500D01*
X85695271Y-72301502D01*
X85715052Y-72318677D01*
X85715396Y-72318299D01*
X85829163Y-72421819D01*
X85964338Y-72495213D01*
X86113119Y-72534245D01*
X86192938Y-72535499D01*
X86259318Y-72536542D01*
X86259321Y-72536542D01*
X86266916Y-72536661D01*
X86274320Y-72534965D01*
X86274322Y-72534965D01*
X86329589Y-72522307D01*
X86416849Y-72502322D01*
X86438187Y-72491590D01*
X86547481Y-72436622D01*
X86547484Y-72436620D01*
X86554264Y-72433210D01*
X86671226Y-72333314D01*
X86675659Y-72327144D01*
X86680193Y-72322214D01*
X86741026Y-72285609D01*
X86772942Y-72281500D01*
X87183365Y-72281500D01*
X87207664Y-72284086D01*
X87209102Y-72284154D01*
X87219280Y-72286345D01*
X87252841Y-72282373D01*
X87258820Y-72282021D01*
X87258812Y-72281928D01*
X87263990Y-72281500D01*
X87269192Y-72281500D01*
X87288346Y-72278312D01*
X87294204Y-72277478D01*
X87310818Y-72275512D01*
X87335067Y-72272642D01*
X87335068Y-72272642D01*
X87345407Y-72271418D01*
X87353706Y-72267433D01*
X87362783Y-72265922D01*
X87408151Y-72241442D01*
X87413414Y-72238761D01*
X87452750Y-72219873D01*
X87452754Y-72219870D01*
X87459898Y-72216440D01*
X87464192Y-72212830D01*
X87466124Y-72210898D01*
X87468073Y-72209111D01*
X87468126Y-72209082D01*
X87468245Y-72209212D01*
X87468813Y-72208711D01*
X87474557Y-72205612D01*
X87511368Y-72165790D01*
X87514797Y-72162225D01*
X89305171Y-70371851D01*
X89367483Y-70337825D01*
X89396245Y-70334962D01*
X89484092Y-70336342D01*
X89551890Y-70357411D01*
X89571209Y-70373231D01*
X90018461Y-70820484D01*
X90033815Y-70839495D01*
X90034781Y-70840557D01*
X90040430Y-70849305D01*
X90048605Y-70855749D01*
X90048607Y-70855752D01*
X90066973Y-70870230D01*
X90071451Y-70874209D01*
X90071511Y-70874138D01*
X90075468Y-70877491D01*
X90079149Y-70881172D01*
X90083381Y-70884196D01*
X90083383Y-70884198D01*
X90094958Y-70892470D01*
X90099703Y-70896033D01*
X90140171Y-70927935D01*
X90148856Y-70930985D01*
X90156343Y-70936335D01*
X90205748Y-70951110D01*
X90211343Y-70952928D01*
X90260003Y-70970017D01*
X90265592Y-70970501D01*
X90268305Y-70970501D01*
X90270970Y-70970616D01*
X90271033Y-70970635D01*
X90271026Y-70970809D01*
X90271772Y-70970856D01*
X90278025Y-70972726D01*
X90327884Y-70970767D01*
X90332179Y-70970598D01*
X90337126Y-70970501D01*
X96894364Y-70970501D01*
X96918663Y-70973087D01*
X96920101Y-70973155D01*
X96930279Y-70975346D01*
X96963840Y-70971374D01*
X96969819Y-70971022D01*
X96969811Y-70970929D01*
X96974989Y-70970501D01*
X96980191Y-70970501D01*
X96999345Y-70967313D01*
X97005203Y-70966479D01*
X97021817Y-70964513D01*
X97046066Y-70961643D01*
X97046067Y-70961643D01*
X97056406Y-70960419D01*
X97064705Y-70956434D01*
X97073782Y-70954923D01*
X97119150Y-70930443D01*
X97124413Y-70927762D01*
X97163749Y-70908874D01*
X97163753Y-70908871D01*
X97170897Y-70905441D01*
X97175191Y-70901831D01*
X97177123Y-70899899D01*
X97179072Y-70898112D01*
X97179125Y-70898083D01*
X97179244Y-70898213D01*
X97179812Y-70897712D01*
X97185556Y-70894613D01*
X97195184Y-70884198D01*
X97222365Y-70854793D01*
X97225795Y-70851227D01*
X97240905Y-70836117D01*
X97303217Y-70802091D01*
X97374032Y-70807156D01*
X97430868Y-70849703D01*
X97455679Y-70916223D01*
X97456000Y-70925212D01*
X97456000Y-73452287D01*
X97435998Y-73520408D01*
X97419095Y-73541383D01*
X96532694Y-74427783D01*
X96470382Y-74461808D01*
X96442941Y-74464685D01*
X96326421Y-74464075D01*
X96319042Y-74465847D01*
X96319038Y-74465847D01*
X96184234Y-74498210D01*
X96184230Y-74498211D01*
X96176855Y-74499982D01*
X96040172Y-74570529D01*
X95924262Y-74671644D01*
X95835818Y-74797488D01*
X95833059Y-74804563D01*
X95833058Y-74804566D01*
X95788028Y-74920062D01*
X95779944Y-74940797D01*
X95778952Y-74948330D01*
X95778952Y-74948331D01*
X95763262Y-75067512D01*
X95759867Y-75093296D01*
X95776746Y-75246183D01*
X95779355Y-75253314D01*
X95779356Y-75253316D01*
X95786463Y-75272735D01*
X95829606Y-75390630D01*
X95833842Y-75396933D01*
X95833842Y-75396934D01*
X95911162Y-75511999D01*
X95911165Y-75512002D01*
X95915396Y-75518299D01*
X96029163Y-75621819D01*
X96164338Y-75695213D01*
X96313119Y-75734245D01*
X96392938Y-75735499D01*
X96459318Y-75736542D01*
X96459321Y-75736542D01*
X96466916Y-75736661D01*
X96474320Y-75734965D01*
X96474322Y-75734965D01*
X96529589Y-75722307D01*
X96616849Y-75702322D01*
X96687577Y-75666750D01*
X96747481Y-75636622D01*
X96747484Y-75636620D01*
X96754264Y-75633210D01*
X96871226Y-75533314D01*
X96960983Y-75408403D01*
X97018355Y-75265688D01*
X97040028Y-75113407D01*
X97040168Y-75100000D01*
X97039541Y-75094814D01*
X97036670Y-75071092D01*
X97048343Y-75001061D01*
X97072662Y-74966860D01*
X98068980Y-73970542D01*
X98087989Y-73955189D01*
X98089052Y-73954222D01*
X98097804Y-73948571D01*
X98118729Y-73922028D01*
X98122706Y-73917553D01*
X98122635Y-73917492D01*
X98125988Y-73913535D01*
X98129671Y-73909852D01*
X98140955Y-73894061D01*
X98144518Y-73889315D01*
X98169988Y-73857007D01*
X98169989Y-73857006D01*
X98176434Y-73848830D01*
X98179485Y-73840143D01*
X98184834Y-73832657D01*
X98199599Y-73783286D01*
X98201433Y-73777641D01*
X98211080Y-73750171D01*
X98218516Y-73728998D01*
X98219000Y-73723409D01*
X98219000Y-73720698D01*
X98219115Y-73718031D01*
X98219134Y-73717968D01*
X98219308Y-73717975D01*
X98219355Y-73717229D01*
X98221225Y-73710976D01*
X98219097Y-73656822D01*
X98219000Y-73651875D01*
X98219000Y-70268035D01*
X98239002Y-70199914D01*
X98263169Y-70172225D01*
X98302950Y-70138249D01*
X98302958Y-70138241D01*
X98308726Y-70133314D01*
X98398483Y-70008403D01*
X98455855Y-69865688D01*
X98477528Y-69713407D01*
X98477668Y-69700000D01*
X98475946Y-69685765D01*
X98460101Y-69554839D01*
X98459189Y-69547299D01*
X98404819Y-69403413D01*
X98317697Y-69276649D01*
X98202853Y-69174327D01*
X98189102Y-69167046D01*
X98073631Y-69105907D01*
X98073628Y-69105906D01*
X98066916Y-69102352D01*
X97917734Y-69064880D01*
X97910136Y-69064840D01*
X97910134Y-69064840D01*
X97844643Y-69064497D01*
X97763921Y-69064075D01*
X97756542Y-69065847D01*
X97756538Y-69065847D01*
X97621734Y-69098210D01*
X97621730Y-69098211D01*
X97614355Y-69099982D01*
X97477672Y-69170529D01*
X97471950Y-69175521D01*
X97471948Y-69175522D01*
X97397621Y-69240362D01*
X97361762Y-69271644D01*
X97273318Y-69397488D01*
X97270559Y-69404563D01*
X97270558Y-69404566D01*
X97229127Y-69510831D01*
X97217444Y-69540797D01*
X97216452Y-69548330D01*
X97216452Y-69548331D01*
X97199119Y-69679992D01*
X97197367Y-69693296D01*
X97198201Y-69700848D01*
X97201397Y-69729803D01*
X97188991Y-69799708D01*
X97165254Y-69832724D01*
X96989574Y-70008403D01*
X96827380Y-70170597D01*
X96765068Y-70204622D01*
X96738285Y-70207501D01*
X90536713Y-70207501D01*
X90468592Y-70187499D01*
X90447618Y-70170596D01*
X90111195Y-69834173D01*
X90077169Y-69771861D01*
X90075547Y-69727325D01*
X90077528Y-69713407D01*
X90077668Y-69700000D01*
X90075946Y-69685765D01*
X90060101Y-69554839D01*
X90059189Y-69547299D01*
X90004819Y-69403413D01*
X89917697Y-69276649D01*
X89802853Y-69174327D01*
X89789102Y-69167046D01*
X89673631Y-69105907D01*
X89673628Y-69105906D01*
X89666916Y-69102352D01*
X89517734Y-69064880D01*
X89510136Y-69064840D01*
X89510134Y-69064840D01*
X89444643Y-69064497D01*
X89363921Y-69064075D01*
X89356542Y-69065847D01*
X89356538Y-69065847D01*
X89221734Y-69098210D01*
X89221730Y-69098211D01*
X89214355Y-69099982D01*
X89077672Y-69170529D01*
X89071950Y-69175521D01*
X89071948Y-69175522D01*
X88997621Y-69240362D01*
X88961762Y-69271644D01*
X88873318Y-69397488D01*
X88870559Y-69404563D01*
X88870558Y-69404566D01*
X88829127Y-69510831D01*
X88817444Y-69540797D01*
X88816452Y-69548330D01*
X88816452Y-69548331D01*
X88799119Y-69679992D01*
X88797367Y-69693296D01*
X88798201Y-69700848D01*
X88801397Y-69729803D01*
X88788991Y-69799708D01*
X88765253Y-69832724D01*
X87116382Y-71481595D01*
X87054070Y-71515621D01*
X87027287Y-71518500D01*
X86772768Y-71518500D01*
X86704647Y-71498498D01*
X86681613Y-71478709D01*
X86680197Y-71476649D01*
X86674534Y-71471603D01*
X86674530Y-71471599D01*
X86599192Y-71404476D01*
X86565353Y-71374327D01*
X86551602Y-71367046D01*
X86436131Y-71305907D01*
X86436128Y-71305906D01*
X86429416Y-71302352D01*
X86280234Y-71264880D01*
X86272636Y-71264840D01*
X86272634Y-71264840D01*
X86207143Y-71264497D01*
X86126421Y-71264075D01*
X86119042Y-71265847D01*
X86119038Y-71265847D01*
X85984234Y-71298210D01*
X85984230Y-71298211D01*
X85976855Y-71299982D01*
X85840172Y-71370529D01*
X85834450Y-71375521D01*
X85834448Y-71375522D01*
X85817130Y-71390630D01*
X85724262Y-71471644D01*
X85720472Y-71477036D01*
X85660392Y-71514050D01*
X85627202Y-71518500D01*
X81747713Y-71518500D01*
X81679592Y-71498498D01*
X81658618Y-71481595D01*
X79973695Y-69796672D01*
X79939669Y-69734360D01*
X79938048Y-69689819D01*
X79939447Y-69679992D01*
X79939447Y-69679986D01*
X79940028Y-69675907D01*
X79940168Y-69662500D01*
X79938446Y-69648265D01*
X79922601Y-69517339D01*
X79921689Y-69509799D01*
X79867319Y-69365913D01*
X79802530Y-69271644D01*
X79784499Y-69245408D01*
X79784497Y-69245406D01*
X79780197Y-69239149D01*
X79665353Y-69136827D01*
X79651602Y-69129546D01*
X79536131Y-69068407D01*
X79536128Y-69068406D01*
X79529416Y-69064852D01*
X79380234Y-69027380D01*
X79372636Y-69027340D01*
X79372634Y-69027340D01*
X79307143Y-69026997D01*
X79226421Y-69026575D01*
X79219042Y-69028347D01*
X79219038Y-69028347D01*
X79084234Y-69060710D01*
X79084230Y-69060711D01*
X79076855Y-69062482D01*
X78940172Y-69133029D01*
X78934450Y-69138021D01*
X78934448Y-69138022D01*
X78892831Y-69174327D01*
X78824262Y-69234144D01*
X78735818Y-69359988D01*
X78733059Y-69367063D01*
X78733058Y-69367066D01*
X78716118Y-69410516D01*
X78679944Y-69503297D01*
X78659867Y-69655796D01*
X71495319Y-69655796D01*
X69470544Y-67631021D01*
X69455185Y-67612005D01*
X69454219Y-67610944D01*
X69448571Y-67602196D01*
X69422028Y-67581271D01*
X69417553Y-67577294D01*
X69417492Y-67577365D01*
X69413535Y-67574012D01*
X69409852Y-67570329D01*
X69394061Y-67559045D01*
X69389315Y-67555482D01*
X69357007Y-67530012D01*
X69357006Y-67530011D01*
X69348830Y-67523566D01*
X69340143Y-67520515D01*
X69332657Y-67515166D01*
X69322681Y-67512183D01*
X69322680Y-67512182D01*
X69283289Y-67500402D01*
X69277657Y-67498572D01*
X69228998Y-67481484D01*
X69223409Y-67481000D01*
X69220698Y-67481000D01*
X69218031Y-67480885D01*
X69217968Y-67480866D01*
X69217975Y-67480692D01*
X69217229Y-67480645D01*
X69210976Y-67478775D01*
X69162192Y-67480692D01*
X69156822Y-67480903D01*
X69151875Y-67481000D01*
X68735268Y-67481000D01*
X68667147Y-67460998D01*
X68644113Y-67441209D01*
X68642697Y-67439149D01*
X68637034Y-67434103D01*
X68637030Y-67434099D01*
X68533524Y-67341880D01*
X68527853Y-67336827D01*
X68514102Y-67329546D01*
X68398631Y-67268407D01*
X68398628Y-67268406D01*
X68391916Y-67264852D01*
X68242734Y-67227380D01*
X68235136Y-67227340D01*
X68235134Y-67227340D01*
X68169643Y-67226997D01*
X68088921Y-67226575D01*
X68081542Y-67228347D01*
X68081538Y-67228347D01*
X67946734Y-67260710D01*
X67946730Y-67260711D01*
X67939355Y-67262482D01*
X67802672Y-67333029D01*
X67686762Y-67434144D01*
X67598318Y-67559988D01*
X67595559Y-67567063D01*
X67595558Y-67567066D01*
X67570623Y-67631021D01*
X67542444Y-67703297D01*
X67522367Y-67855796D01*
X50254500Y-67855796D01*
X50254500Y-64186962D01*
X53947158Y-64186962D01*
X53978656Y-64310985D01*
X53982497Y-64321832D01*
X54068685Y-64508789D01*
X54074436Y-64518750D01*
X54193254Y-64686873D01*
X54200720Y-64695615D01*
X54348191Y-64839275D01*
X54357124Y-64846509D01*
X54528299Y-64960884D01*
X54538409Y-64966374D01*
X54727566Y-65047642D01*
X54738499Y-65051194D01*
X54828332Y-65071521D01*
X54842405Y-65070632D01*
X54846000Y-65061233D01*
X54846000Y-65060512D01*
X55354000Y-65060512D01*
X55357966Y-65074018D01*
X55371883Y-65076011D01*
X55382817Y-65073386D01*
X55577763Y-65007210D01*
X55588272Y-65002531D01*
X55767882Y-64901944D01*
X55777375Y-64895420D01*
X55935653Y-64763782D01*
X55943782Y-64755653D01*
X56075420Y-64597375D01*
X56081944Y-64587882D01*
X56182531Y-64408272D01*
X56187210Y-64397763D01*
X56253386Y-64202817D01*
X56256017Y-64191857D01*
X56255319Y-64186962D01*
X59147158Y-64186962D01*
X59178656Y-64310985D01*
X59182497Y-64321832D01*
X59268685Y-64508789D01*
X59274436Y-64518750D01*
X59393254Y-64686873D01*
X59400720Y-64695615D01*
X59548191Y-64839275D01*
X59557124Y-64846509D01*
X59728299Y-64960884D01*
X59738409Y-64966374D01*
X59927566Y-65047642D01*
X59938499Y-65051194D01*
X60028332Y-65071521D01*
X60042405Y-65070632D01*
X60046000Y-65061233D01*
X60046000Y-65060512D01*
X60554000Y-65060512D01*
X60557966Y-65074018D01*
X60571883Y-65076011D01*
X60582817Y-65073386D01*
X60777763Y-65007210D01*
X60788272Y-65002531D01*
X60967882Y-64901944D01*
X60977375Y-64895420D01*
X61135653Y-64763782D01*
X61143782Y-64755653D01*
X61275420Y-64597375D01*
X61281944Y-64587882D01*
X61382531Y-64408272D01*
X61387210Y-64397763D01*
X61453386Y-64202817D01*
X61456017Y-64191857D01*
X61455319Y-64186962D01*
X64347158Y-64186962D01*
X64378656Y-64310985D01*
X64382497Y-64321832D01*
X64468685Y-64508789D01*
X64474436Y-64518750D01*
X64593254Y-64686873D01*
X64600720Y-64695615D01*
X64748191Y-64839275D01*
X64757124Y-64846509D01*
X64928299Y-64960884D01*
X64938409Y-64966374D01*
X65127566Y-65047642D01*
X65138499Y-65051194D01*
X65228332Y-65071521D01*
X65242405Y-65070632D01*
X65246000Y-65061233D01*
X65246000Y-65060512D01*
X65754000Y-65060512D01*
X65757966Y-65074018D01*
X65771883Y-65076011D01*
X65782817Y-65073386D01*
X65977763Y-65007210D01*
X65988272Y-65002531D01*
X66167882Y-64901944D01*
X66177375Y-64895420D01*
X66335653Y-64763782D01*
X66343782Y-64755653D01*
X66475420Y-64597375D01*
X66481944Y-64587882D01*
X66582531Y-64408272D01*
X66587210Y-64397763D01*
X66653386Y-64202817D01*
X66656017Y-64191857D01*
X66655319Y-64186962D01*
X69447158Y-64186962D01*
X69478656Y-64310985D01*
X69482497Y-64321832D01*
X69568685Y-64508789D01*
X69574436Y-64518750D01*
X69693254Y-64686873D01*
X69700720Y-64695615D01*
X69848191Y-64839275D01*
X69857124Y-64846509D01*
X70028299Y-64960884D01*
X70038409Y-64966374D01*
X70227566Y-65047642D01*
X70238499Y-65051194D01*
X70328332Y-65071521D01*
X70342405Y-65070632D01*
X70346000Y-65061233D01*
X70346000Y-65060512D01*
X70854000Y-65060512D01*
X70857966Y-65074018D01*
X70871883Y-65076011D01*
X70882817Y-65073386D01*
X71077763Y-65007210D01*
X71088272Y-65002531D01*
X71267882Y-64901944D01*
X71277375Y-64895420D01*
X71435653Y-64763782D01*
X71443782Y-64755653D01*
X71575420Y-64597375D01*
X71581944Y-64587882D01*
X71655916Y-64455796D01*
X73259867Y-64455796D01*
X73260701Y-64463346D01*
X73275498Y-64597375D01*
X73276746Y-64608683D01*
X73279355Y-64615814D01*
X73279356Y-64615816D01*
X73320517Y-64728292D01*
X73329606Y-64753130D01*
X73333842Y-64759433D01*
X73333842Y-64759434D01*
X73411162Y-64874499D01*
X73411165Y-64874502D01*
X73415396Y-64880799D01*
X73529163Y-64984319D01*
X73664338Y-65057713D01*
X73813119Y-65096745D01*
X73892938Y-65097999D01*
X73959318Y-65099042D01*
X73959321Y-65099042D01*
X73966916Y-65099161D01*
X73974320Y-65097465D01*
X73974322Y-65097465D01*
X74029589Y-65084807D01*
X74116849Y-65064822D01*
X74138187Y-65054090D01*
X74247481Y-64999122D01*
X74247484Y-64999120D01*
X74254264Y-64995710D01*
X74371226Y-64895814D01*
X74375659Y-64889644D01*
X74380193Y-64884714D01*
X74441026Y-64848109D01*
X74472942Y-64844000D01*
X81389628Y-64844000D01*
X81413927Y-64846586D01*
X81415365Y-64846654D01*
X81425543Y-64848845D01*
X81459104Y-64844873D01*
X81465083Y-64844521D01*
X81465075Y-64844428D01*
X81470253Y-64844000D01*
X81475455Y-64844000D01*
X81494609Y-64840812D01*
X81500467Y-64839978D01*
X81517081Y-64838012D01*
X81541330Y-64835142D01*
X81541331Y-64835142D01*
X81551670Y-64833918D01*
X81559969Y-64829933D01*
X81569046Y-64828422D01*
X81614414Y-64803942D01*
X81619677Y-64801261D01*
X81659013Y-64782373D01*
X81659017Y-64782370D01*
X81666161Y-64778940D01*
X81670455Y-64775330D01*
X81672387Y-64773398D01*
X81674336Y-64771611D01*
X81674389Y-64771582D01*
X81674508Y-64771712D01*
X81675076Y-64771211D01*
X81680820Y-64768112D01*
X81717630Y-64728291D01*
X81721059Y-64724726D01*
X82567671Y-63878114D01*
X82629983Y-63844088D01*
X82658745Y-63841225D01*
X82759317Y-63842805D01*
X82759320Y-63842805D01*
X82766916Y-63842924D01*
X82774320Y-63841228D01*
X82774322Y-63841228D01*
X82838300Y-63826575D01*
X82916849Y-63808585D01*
X82938187Y-63797853D01*
X83047481Y-63742885D01*
X83047484Y-63742883D01*
X83054264Y-63739473D01*
X83171226Y-63639577D01*
X83175659Y-63633407D01*
X83180193Y-63628477D01*
X83241026Y-63591872D01*
X83272942Y-63587763D01*
X90733413Y-63587763D01*
X90801534Y-63607765D01*
X90821315Y-63624940D01*
X90821659Y-63624562D01*
X90935426Y-63728082D01*
X91070601Y-63801476D01*
X91219382Y-63840508D01*
X91299201Y-63841762D01*
X91365581Y-63842805D01*
X91365584Y-63842805D01*
X91373179Y-63842924D01*
X91380583Y-63841228D01*
X91380585Y-63841228D01*
X91444563Y-63826575D01*
X91523112Y-63808585D01*
X91544450Y-63797853D01*
X91653744Y-63742885D01*
X91653747Y-63742883D01*
X91660527Y-63739473D01*
X91777489Y-63639577D01*
X91781922Y-63633407D01*
X91786456Y-63628477D01*
X91847289Y-63591872D01*
X91879205Y-63587763D01*
X97746051Y-63587763D01*
X97814172Y-63607765D01*
X97835146Y-63624668D01*
X105081595Y-70871118D01*
X105115621Y-70933430D01*
X105118500Y-70960213D01*
X105118500Y-81789788D01*
X105098498Y-81857909D01*
X105081595Y-81878883D01*
X103135565Y-83824912D01*
X103116549Y-83840271D01*
X103115488Y-83841237D01*
X103106740Y-83846885D01*
X103100294Y-83855062D01*
X103085815Y-83873428D01*
X103081838Y-83877903D01*
X103081909Y-83877964D01*
X103078556Y-83881921D01*
X103074873Y-83885604D01*
X103071847Y-83889839D01*
X103071845Y-83889841D01*
X103063591Y-83901392D01*
X103060026Y-83906141D01*
X103037181Y-83935120D01*
X103028110Y-83946626D01*
X103025059Y-83955313D01*
X103019710Y-83962799D01*
X103016727Y-83972775D01*
X103016726Y-83972776D01*
X103004946Y-84012167D01*
X103003116Y-84017799D01*
X102986028Y-84066458D01*
X102985544Y-84072047D01*
X102985544Y-84074758D01*
X102985429Y-84077425D01*
X102985410Y-84077488D01*
X102985236Y-84077481D01*
X102985189Y-84078227D01*
X102983319Y-84084480D01*
X102985278Y-84134339D01*
X102985447Y-84138634D01*
X102985544Y-84143581D01*
X102985544Y-85592500D01*
X102965542Y-85660621D01*
X102911886Y-85707114D01*
X102859544Y-85718500D01*
X100635268Y-85718500D01*
X100567147Y-85698498D01*
X100544113Y-85678709D01*
X100542697Y-85676649D01*
X100537034Y-85671603D01*
X100537030Y-85671599D01*
X100433524Y-85579380D01*
X100427853Y-85574327D01*
X100414102Y-85567046D01*
X100298631Y-85505907D01*
X100298628Y-85505906D01*
X100291916Y-85502352D01*
X100142734Y-85464880D01*
X100135136Y-85464840D01*
X100135134Y-85464840D01*
X100069643Y-85464497D01*
X99988921Y-85464075D01*
X99981542Y-85465847D01*
X99981538Y-85465847D01*
X99846734Y-85498210D01*
X99846730Y-85498211D01*
X99839355Y-85499982D01*
X99702672Y-85570529D01*
X99696950Y-85575521D01*
X99696948Y-85575522D01*
X99655566Y-85611622D01*
X99586762Y-85671644D01*
X99582972Y-85677036D01*
X99522892Y-85714050D01*
X99489702Y-85718500D01*
X90872713Y-85718500D01*
X90804592Y-85698498D01*
X90783618Y-85681595D01*
X89136195Y-84034172D01*
X89102169Y-83971860D01*
X89100548Y-83927319D01*
X89101947Y-83917492D01*
X89101947Y-83917486D01*
X89102528Y-83913407D01*
X89102668Y-83900000D01*
X89101092Y-83886971D01*
X89090350Y-83798210D01*
X89084189Y-83747299D01*
X89029819Y-83603413D01*
X88942697Y-83476649D01*
X88827853Y-83374327D01*
X88821137Y-83370771D01*
X88698631Y-83305907D01*
X88698628Y-83305906D01*
X88691916Y-83302352D01*
X88542734Y-83264880D01*
X88535136Y-83264840D01*
X88535134Y-83264840D01*
X88417782Y-83264226D01*
X88349766Y-83243868D01*
X88329346Y-83227323D01*
X87195319Y-82093296D01*
X100659867Y-82093296D01*
X100663624Y-82127322D01*
X100675130Y-82231543D01*
X100676746Y-82246183D01*
X100679355Y-82253314D01*
X100679356Y-82253316D01*
X100722871Y-82372225D01*
X100729606Y-82390630D01*
X100733842Y-82396933D01*
X100733842Y-82396934D01*
X100811162Y-82511999D01*
X100811165Y-82512002D01*
X100815396Y-82518299D01*
X100929163Y-82621819D01*
X101064338Y-82695213D01*
X101213119Y-82734245D01*
X101292938Y-82735499D01*
X101359318Y-82736542D01*
X101359321Y-82736542D01*
X101366916Y-82736661D01*
X101374320Y-82734965D01*
X101374322Y-82734965D01*
X101429589Y-82722307D01*
X101516849Y-82702322D01*
X101538187Y-82691590D01*
X101647481Y-82636622D01*
X101647484Y-82636620D01*
X101654264Y-82633210D01*
X101771226Y-82533314D01*
X101860983Y-82408403D01*
X101874562Y-82374626D01*
X101915522Y-82272735D01*
X101918355Y-82265688D01*
X101940028Y-82113407D01*
X101940168Y-82100000D01*
X101938446Y-82085765D01*
X101936670Y-82071092D01*
X101948343Y-82001061D01*
X101972662Y-81966860D01*
X103341873Y-80597650D01*
X103404185Y-80563624D01*
X103475001Y-80568689D01*
X103491083Y-80576011D01*
X103609349Y-80640224D01*
X103758130Y-80679256D01*
X103837949Y-80680510D01*
X103904329Y-80681553D01*
X103904332Y-80681553D01*
X103911927Y-80681672D01*
X103919331Y-80679976D01*
X103919333Y-80679976D01*
X103974600Y-80667318D01*
X104061860Y-80647333D01*
X104083198Y-80636601D01*
X104192492Y-80581633D01*
X104192495Y-80581631D01*
X104199275Y-80578221D01*
X104316237Y-80478325D01*
X104405994Y-80353414D01*
X104463366Y-80210699D01*
X104485039Y-80058418D01*
X104485179Y-80045011D01*
X104481523Y-80014794D01*
X104476295Y-79971600D01*
X104466700Y-79892310D01*
X104412330Y-79748424D01*
X104401167Y-79732181D01*
X104329510Y-79627919D01*
X104329508Y-79627917D01*
X104325208Y-79621660D01*
X104210364Y-79519338D01*
X104196613Y-79512057D01*
X104081142Y-79450918D01*
X104081139Y-79450917D01*
X104074427Y-79447363D01*
X103925245Y-79409891D01*
X103917647Y-79409851D01*
X103917645Y-79409851D01*
X103852154Y-79409508D01*
X103771432Y-79409086D01*
X103764053Y-79410858D01*
X103764049Y-79410858D01*
X103629245Y-79443221D01*
X103629241Y-79443222D01*
X103621866Y-79444993D01*
X103485183Y-79515540D01*
X103369273Y-79616655D01*
X103364903Y-79622873D01*
X103359823Y-79628515D01*
X103357349Y-79626287D01*
X103313479Y-79661186D01*
X103280804Y-79669602D01*
X103247081Y-79673593D01*
X103238782Y-79677578D01*
X103229706Y-79679089D01*
X103184352Y-79703561D01*
X103179067Y-79706253D01*
X103171336Y-79709966D01*
X103139737Y-79725139D01*
X103139734Y-79725141D01*
X103132591Y-79728571D01*
X103128297Y-79732181D01*
X103126367Y-79734111D01*
X103124416Y-79735900D01*
X103124363Y-79735929D01*
X103124244Y-79735799D01*
X103123676Y-79736300D01*
X103117932Y-79739399D01*
X103110865Y-79747044D01*
X103081123Y-79779219D01*
X103077693Y-79782785D01*
X101432695Y-81427782D01*
X101370383Y-81461808D01*
X101342942Y-81464685D01*
X101226421Y-81464075D01*
X101219042Y-81465847D01*
X101219038Y-81465847D01*
X101084234Y-81498210D01*
X101084230Y-81498211D01*
X101076855Y-81499982D01*
X100940172Y-81570529D01*
X100934450Y-81575521D01*
X100934448Y-81575522D01*
X100894334Y-81610516D01*
X100824262Y-81671644D01*
X100735818Y-81797488D01*
X100733059Y-81804563D01*
X100733058Y-81804566D01*
X100704083Y-81878883D01*
X100679944Y-81940797D01*
X100678952Y-81948330D01*
X100678952Y-81948331D01*
X100662410Y-82073981D01*
X100659867Y-82093296D01*
X87195319Y-82093296D01*
X85170540Y-80068517D01*
X85155186Y-80049506D01*
X85154220Y-80048444D01*
X85148571Y-80039696D01*
X85140396Y-80033252D01*
X85140394Y-80033249D01*
X85122028Y-80018771D01*
X85117553Y-80014794D01*
X85117492Y-80014865D01*
X85113535Y-80011512D01*
X85109852Y-80007829D01*
X85094061Y-79996545D01*
X85089315Y-79992982D01*
X85057007Y-79967512D01*
X85057006Y-79967511D01*
X85048830Y-79961066D01*
X85040143Y-79958015D01*
X85032657Y-79952666D01*
X85022681Y-79949683D01*
X85022680Y-79949682D01*
X84983289Y-79937902D01*
X84977657Y-79936072D01*
X84928998Y-79918984D01*
X84923409Y-79918500D01*
X84920698Y-79918500D01*
X84918031Y-79918385D01*
X84917968Y-79918366D01*
X84917975Y-79918192D01*
X84917229Y-79918145D01*
X84910976Y-79916275D01*
X84862192Y-79918192D01*
X84856822Y-79918403D01*
X84851875Y-79918500D01*
X78072768Y-79918500D01*
X78004647Y-79898498D01*
X77981613Y-79878709D01*
X77980197Y-79876649D01*
X77974534Y-79871603D01*
X77974530Y-79871599D01*
X77899192Y-79804476D01*
X77865353Y-79774327D01*
X77815566Y-79747966D01*
X77736131Y-79705907D01*
X77736128Y-79705906D01*
X77729416Y-79702352D01*
X77580234Y-79664880D01*
X77572636Y-79664840D01*
X77572634Y-79664840D01*
X77507143Y-79664497D01*
X77426421Y-79664075D01*
X77419042Y-79665847D01*
X77419038Y-79665847D01*
X77284234Y-79698210D01*
X77284230Y-79698211D01*
X77276855Y-79699982D01*
X77207187Y-79735940D01*
X77155895Y-79762414D01*
X77140172Y-79770529D01*
X77134450Y-79775521D01*
X77134448Y-79775522D01*
X77070744Y-79831095D01*
X77024262Y-79871644D01*
X76935818Y-79997488D01*
X76933059Y-80004563D01*
X76933058Y-80004566D01*
X76882704Y-80133717D01*
X76879944Y-80140797D01*
X76859867Y-80293296D01*
X76876746Y-80446183D01*
X76879355Y-80453314D01*
X76879356Y-80453316D01*
X76926314Y-80581633D01*
X76929606Y-80590630D01*
X76933842Y-80596933D01*
X76933842Y-80596934D01*
X77011162Y-80711999D01*
X77011165Y-80712002D01*
X77015396Y-80718299D01*
X77129163Y-80821819D01*
X77264338Y-80895213D01*
X77413119Y-80934245D01*
X77492938Y-80935499D01*
X77559318Y-80936542D01*
X77559321Y-80936542D01*
X77566916Y-80936661D01*
X77574320Y-80934965D01*
X77574322Y-80934965D01*
X77629589Y-80922307D01*
X77716849Y-80902322D01*
X77738187Y-80891590D01*
X77847481Y-80836622D01*
X77847484Y-80836620D01*
X77854264Y-80833210D01*
X77971226Y-80733314D01*
X77975659Y-80727144D01*
X77980193Y-80722214D01*
X78041026Y-80685609D01*
X78072942Y-80681500D01*
X84652287Y-80681500D01*
X84720408Y-80701502D01*
X84741383Y-80718405D01*
X85183885Y-81160908D01*
X85183897Y-81160920D01*
X85183908Y-81160930D01*
X87789354Y-83766377D01*
X87823380Y-83828689D01*
X87825181Y-83871916D01*
X87823358Y-83885761D01*
X87823358Y-83885770D01*
X87822367Y-83893296D01*
X87828255Y-83946626D01*
X87836190Y-84018500D01*
X87839246Y-84046183D01*
X87841855Y-84053314D01*
X87841856Y-84053316D01*
X87874889Y-84143581D01*
X87892106Y-84190630D01*
X87896342Y-84196933D01*
X87896342Y-84196934D01*
X87973662Y-84311999D01*
X87973665Y-84312002D01*
X87977896Y-84318299D01*
X88091663Y-84421819D01*
X88226838Y-84495213D01*
X88375619Y-84534245D01*
X88459288Y-84535559D01*
X88509093Y-84536342D01*
X88576891Y-84557411D01*
X88596209Y-84573231D01*
X90354454Y-86331476D01*
X90369818Y-86350499D01*
X90370782Y-86351558D01*
X90376429Y-86360304D01*
X90384608Y-86366752D01*
X90384610Y-86366754D01*
X90402977Y-86381234D01*
X90407450Y-86385209D01*
X90407511Y-86385137D01*
X90411468Y-86388490D01*
X90415149Y-86392171D01*
X90419381Y-86395195D01*
X90430939Y-86403455D01*
X90435685Y-86407018D01*
X90476170Y-86438934D01*
X90484855Y-86441984D01*
X90492343Y-86447335D01*
X90541766Y-86462115D01*
X90547340Y-86463927D01*
X90596002Y-86481016D01*
X90601591Y-86481500D01*
X90604302Y-86481500D01*
X90606969Y-86481615D01*
X90607032Y-86481634D01*
X90607025Y-86481808D01*
X90607771Y-86481855D01*
X90614024Y-86483725D01*
X90668188Y-86481597D01*
X90673134Y-86481500D01*
X99489650Y-86481500D01*
X99557771Y-86501502D01*
X99577552Y-86518677D01*
X99577896Y-86518299D01*
X99691663Y-86621819D01*
X99826838Y-86695213D01*
X99975619Y-86734245D01*
X100055438Y-86735499D01*
X100121818Y-86736542D01*
X100121821Y-86736542D01*
X100129416Y-86736661D01*
X100136820Y-86734965D01*
X100136822Y-86734965D01*
X100192089Y-86722307D01*
X100279349Y-86702322D01*
X100347663Y-86667964D01*
X100409981Y-86636622D01*
X100409984Y-86636620D01*
X100416764Y-86633210D01*
X100533726Y-86533314D01*
X100538159Y-86527144D01*
X100542693Y-86522214D01*
X100603526Y-86485609D01*
X100635442Y-86481500D01*
X103156832Y-86481500D01*
X103224953Y-86501502D01*
X103245927Y-86518405D01*
X107331595Y-90604073D01*
X107365621Y-90666385D01*
X107368500Y-90693168D01*
X107368500Y-94539787D01*
X107348498Y-94607908D01*
X107331595Y-94628883D01*
X106562120Y-95398357D01*
X106499808Y-95432382D01*
X106473025Y-95435261D01*
X105389529Y-95435261D01*
X105321408Y-95415259D01*
X105298374Y-95395470D01*
X105296958Y-95393410D01*
X105291295Y-95388364D01*
X105291291Y-95388360D01*
X105187785Y-95296141D01*
X105182114Y-95291088D01*
X105124997Y-95260846D01*
X105052892Y-95222668D01*
X105052889Y-95222667D01*
X105046177Y-95219113D01*
X104896995Y-95181641D01*
X104889397Y-95181601D01*
X104889395Y-95181601D01*
X104823904Y-95181258D01*
X104743182Y-95180836D01*
X104735803Y-95182608D01*
X104735799Y-95182608D01*
X104600995Y-95214971D01*
X104600991Y-95214972D01*
X104593616Y-95216743D01*
X104456933Y-95287290D01*
X104341023Y-95388405D01*
X104252579Y-95514249D01*
X104249820Y-95521324D01*
X104249819Y-95521327D01*
X104199465Y-95650478D01*
X104196705Y-95657558D01*
X104195713Y-95665091D01*
X104195713Y-95665092D01*
X104178397Y-95796622D01*
X104176628Y-95810057D01*
X104177462Y-95817609D01*
X104180658Y-95846564D01*
X104168252Y-95916469D01*
X104144514Y-95949486D01*
X103912403Y-96181596D01*
X103850091Y-96215621D01*
X103823308Y-96218500D01*
X76272768Y-96218500D01*
X76204647Y-96198498D01*
X76181613Y-96178709D01*
X76180197Y-96176649D01*
X76174534Y-96171603D01*
X76174530Y-96171599D01*
X76099192Y-96104476D01*
X76065353Y-96074327D01*
X75971020Y-96024380D01*
X75936131Y-96005907D01*
X75936128Y-96005906D01*
X75929416Y-96002352D01*
X75780234Y-95964880D01*
X75772636Y-95964840D01*
X75772634Y-95964840D01*
X75707143Y-95964497D01*
X75626421Y-95964075D01*
X75619042Y-95965847D01*
X75619038Y-95965847D01*
X75484234Y-95998210D01*
X75484230Y-95998211D01*
X75476855Y-95999982D01*
X75340172Y-96070529D01*
X75334450Y-96075521D01*
X75334448Y-96075522D01*
X75239652Y-96158218D01*
X75224262Y-96171644D01*
X75135818Y-96297488D01*
X75133059Y-96304563D01*
X75133058Y-96304566D01*
X75098450Y-96393331D01*
X75079944Y-96440797D01*
X75078952Y-96448330D01*
X75078952Y-96448331D01*
X75078129Y-96454586D01*
X75059867Y-96593296D01*
X75076746Y-96746183D01*
X75079355Y-96753314D01*
X75079356Y-96753316D01*
X75120517Y-96865792D01*
X75129606Y-96890630D01*
X75133842Y-96896933D01*
X75133842Y-96896934D01*
X75211162Y-97011999D01*
X75211165Y-97012002D01*
X75215396Y-97018299D01*
X75329163Y-97121819D01*
X75464338Y-97195213D01*
X75613119Y-97234245D01*
X75692938Y-97235499D01*
X75759318Y-97236542D01*
X75759321Y-97236542D01*
X75766916Y-97236661D01*
X75774320Y-97234965D01*
X75774322Y-97234965D01*
X75829589Y-97222307D01*
X75916849Y-97202322D01*
X75958166Y-97181542D01*
X76047481Y-97136622D01*
X76047484Y-97136620D01*
X76054264Y-97133210D01*
X76171226Y-97033314D01*
X76175659Y-97027144D01*
X76180193Y-97022214D01*
X76241026Y-96985609D01*
X76272942Y-96981500D01*
X103979387Y-96981500D01*
X104003686Y-96984086D01*
X104005124Y-96984154D01*
X104015302Y-96986345D01*
X104048863Y-96982373D01*
X104054842Y-96982021D01*
X104054834Y-96981928D01*
X104060012Y-96981500D01*
X104065214Y-96981500D01*
X104084368Y-96978312D01*
X104090226Y-96977478D01*
X104106840Y-96975512D01*
X104131089Y-96972642D01*
X104131090Y-96972642D01*
X104141429Y-96971418D01*
X104149728Y-96967433D01*
X104158805Y-96965922D01*
X104204173Y-96941442D01*
X104209436Y-96938761D01*
X104248772Y-96919873D01*
X104248776Y-96919870D01*
X104255920Y-96916440D01*
X104260214Y-96912830D01*
X104262146Y-96910898D01*
X104264095Y-96909111D01*
X104264148Y-96909082D01*
X104264267Y-96909212D01*
X104264835Y-96908711D01*
X104270579Y-96905612D01*
X104307389Y-96865791D01*
X104310818Y-96862226D01*
X104684432Y-96488612D01*
X104746744Y-96454586D01*
X104775506Y-96451723D01*
X104876078Y-96453303D01*
X104876081Y-96453303D01*
X104883677Y-96453422D01*
X104891081Y-96451726D01*
X104891083Y-96451726D01*
X104969714Y-96433717D01*
X105033610Y-96419083D01*
X105084813Y-96393331D01*
X105164242Y-96353383D01*
X105164245Y-96353381D01*
X105171025Y-96349971D01*
X105287987Y-96250075D01*
X105292420Y-96243905D01*
X105296954Y-96238975D01*
X105357787Y-96202370D01*
X105389703Y-96198261D01*
X106629104Y-96198261D01*
X106653403Y-96200847D01*
X106654841Y-96200915D01*
X106665019Y-96203106D01*
X106698580Y-96199134D01*
X106704559Y-96198782D01*
X106704551Y-96198689D01*
X106709729Y-96198261D01*
X106714931Y-96198261D01*
X106734085Y-96195073D01*
X106739943Y-96194239D01*
X106756557Y-96192273D01*
X106780806Y-96189403D01*
X106780807Y-96189403D01*
X106791146Y-96188179D01*
X106799445Y-96184194D01*
X106808522Y-96182683D01*
X106853890Y-96158203D01*
X106859153Y-96155522D01*
X106898489Y-96136634D01*
X106898493Y-96136631D01*
X106905637Y-96133201D01*
X106909931Y-96129591D01*
X106911863Y-96127659D01*
X106913812Y-96125872D01*
X106913865Y-96125843D01*
X106913984Y-96125973D01*
X106914552Y-96125472D01*
X106920296Y-96122373D01*
X106957106Y-96082552D01*
X106960535Y-96078987D01*
X107981480Y-95058042D01*
X108000489Y-95042689D01*
X108001552Y-95041722D01*
X108010304Y-95036071D01*
X108031229Y-95009528D01*
X108035206Y-95005053D01*
X108035135Y-95004992D01*
X108038488Y-95001035D01*
X108042171Y-94997352D01*
X108053455Y-94981561D01*
X108057018Y-94976815D01*
X108082488Y-94944507D01*
X108082489Y-94944506D01*
X108088934Y-94936330D01*
X108091985Y-94927643D01*
X108097334Y-94920157D01*
X108104539Y-94896067D01*
X108112098Y-94870789D01*
X108113933Y-94865141D01*
X108124230Y-94835821D01*
X108131016Y-94816498D01*
X108131500Y-94810909D01*
X108131500Y-94808198D01*
X108131615Y-94805531D01*
X108131634Y-94805468D01*
X108131808Y-94805475D01*
X108131855Y-94804729D01*
X108133725Y-94798476D01*
X108131597Y-94744312D01*
X108131500Y-94739366D01*
X108131500Y-90537096D01*
X108134087Y-90512780D01*
X108134154Y-90511357D01*
X108136346Y-90501176D01*
X108132373Y-90467608D01*
X108132021Y-90461634D01*
X108131928Y-90461642D01*
X108131500Y-90456464D01*
X108131500Y-90451264D01*
X108130646Y-90446132D01*
X108128314Y-90432121D01*
X108127477Y-90426242D01*
X108122642Y-90385389D01*
X108122642Y-90385388D01*
X108121418Y-90375049D01*
X108117433Y-90366750D01*
X108115922Y-90357673D01*
X108091442Y-90312305D01*
X108088761Y-90307042D01*
X108069869Y-90267699D01*
X108066440Y-90260558D01*
X108062831Y-90256264D01*
X108060905Y-90254338D01*
X108059109Y-90252380D01*
X108059079Y-90252323D01*
X108059208Y-90252205D01*
X108058710Y-90251640D01*
X108055612Y-90245899D01*
X108027145Y-90219584D01*
X108015805Y-90209102D01*
X108012239Y-90205672D01*
X103785449Y-85978882D01*
X103751423Y-85916570D01*
X103748544Y-85889787D01*
X103748544Y-84343168D01*
X103768546Y-84275047D01*
X103785449Y-84254073D01*
X105731479Y-82308044D01*
X105750495Y-82292685D01*
X105751556Y-82291719D01*
X105760304Y-82286071D01*
X105781229Y-82259528D01*
X105785208Y-82255050D01*
X105785137Y-82254990D01*
X105788490Y-82251033D01*
X105792171Y-82247352D01*
X105803469Y-82231543D01*
X105807032Y-82226798D01*
X105821533Y-82208403D01*
X105838934Y-82186330D01*
X105841984Y-82177645D01*
X105847334Y-82170158D01*
X105862109Y-82120753D01*
X105863930Y-82115150D01*
X105868954Y-82100846D01*
X105881016Y-82066498D01*
X105881500Y-82060909D01*
X105881500Y-82058196D01*
X105881615Y-82055531D01*
X105881634Y-82055468D01*
X105881808Y-82055475D01*
X105881855Y-82054729D01*
X105883725Y-82048476D01*
X105881597Y-81994322D01*
X105881500Y-81989375D01*
X105881500Y-70804135D01*
X105884086Y-70779836D01*
X105884154Y-70778398D01*
X105886345Y-70768220D01*
X105882373Y-70734658D01*
X105882021Y-70728680D01*
X105881928Y-70728688D01*
X105881500Y-70723510D01*
X105881500Y-70718308D01*
X105878312Y-70699154D01*
X105877477Y-70693289D01*
X105872642Y-70652433D01*
X105872642Y-70652432D01*
X105871418Y-70642093D01*
X105867433Y-70633794D01*
X105865922Y-70624717D01*
X105841442Y-70579349D01*
X105838761Y-70574086D01*
X105819873Y-70534750D01*
X105819870Y-70534746D01*
X105816440Y-70527602D01*
X105812830Y-70523308D01*
X105810898Y-70521376D01*
X105809111Y-70519427D01*
X105809082Y-70519374D01*
X105809212Y-70519255D01*
X105808711Y-70518687D01*
X105805612Y-70512943D01*
X105765790Y-70476132D01*
X105762225Y-70472703D01*
X98264307Y-62974784D01*
X98248948Y-62955768D01*
X98247982Y-62954707D01*
X98242334Y-62945959D01*
X98215791Y-62925034D01*
X98211316Y-62921057D01*
X98211255Y-62921128D01*
X98207298Y-62917775D01*
X98203615Y-62914092D01*
X98187824Y-62902808D01*
X98183078Y-62899245D01*
X98150770Y-62873775D01*
X98150769Y-62873774D01*
X98142593Y-62867329D01*
X98133906Y-62864278D01*
X98126420Y-62858929D01*
X98116444Y-62855946D01*
X98116443Y-62855945D01*
X98077052Y-62844165D01*
X98071420Y-62842335D01*
X98022761Y-62825247D01*
X98017172Y-62824763D01*
X98014461Y-62824763D01*
X98011794Y-62824648D01*
X98011731Y-62824629D01*
X98011738Y-62824455D01*
X98010992Y-62824408D01*
X98004739Y-62822538D01*
X97955955Y-62824455D01*
X97950585Y-62824666D01*
X97945638Y-62824763D01*
X91879031Y-62824763D01*
X91810910Y-62804761D01*
X91787876Y-62784972D01*
X91786460Y-62782912D01*
X91780797Y-62777866D01*
X91780793Y-62777862D01*
X91705455Y-62710739D01*
X91671616Y-62680590D01*
X91657865Y-62673309D01*
X91542394Y-62612170D01*
X91542391Y-62612169D01*
X91535679Y-62608615D01*
X91386497Y-62571143D01*
X91378899Y-62571103D01*
X91378897Y-62571103D01*
X91313406Y-62570760D01*
X91232684Y-62570338D01*
X91225305Y-62572110D01*
X91225301Y-62572110D01*
X91090497Y-62604473D01*
X91090493Y-62604474D01*
X91083118Y-62606245D01*
X90946435Y-62676792D01*
X90830525Y-62777907D01*
X90826735Y-62783299D01*
X90766655Y-62820313D01*
X90733465Y-62824763D01*
X83272768Y-62824763D01*
X83204647Y-62804761D01*
X83181613Y-62784972D01*
X83180197Y-62782912D01*
X83174534Y-62777866D01*
X83174530Y-62777862D01*
X83099192Y-62710739D01*
X83065353Y-62680590D01*
X83051602Y-62673309D01*
X82936131Y-62612170D01*
X82936128Y-62612169D01*
X82929416Y-62608615D01*
X82780234Y-62571143D01*
X82772636Y-62571103D01*
X82772634Y-62571103D01*
X82707143Y-62570760D01*
X82626421Y-62570338D01*
X82619042Y-62572110D01*
X82619038Y-62572110D01*
X82484234Y-62604473D01*
X82484230Y-62604474D01*
X82476855Y-62606245D01*
X82340172Y-62676792D01*
X82334450Y-62681784D01*
X82334448Y-62681785D01*
X82235471Y-62768129D01*
X82224262Y-62777907D01*
X82135818Y-62903751D01*
X82133059Y-62910826D01*
X82133058Y-62910829D01*
X82108123Y-62974784D01*
X82079944Y-63047060D01*
X82078952Y-63054593D01*
X82078952Y-63054594D01*
X82069071Y-63129651D01*
X82059867Y-63199559D01*
X82060701Y-63207111D01*
X82063897Y-63236066D01*
X82051491Y-63305971D01*
X82027753Y-63338988D01*
X81322644Y-64044096D01*
X81260332Y-64078121D01*
X81233549Y-64081000D01*
X74472768Y-64081000D01*
X74404647Y-64060998D01*
X74381613Y-64041209D01*
X74380197Y-64039149D01*
X74374534Y-64034103D01*
X74374530Y-64034099D01*
X74271024Y-63941880D01*
X74265353Y-63936827D01*
X74154464Y-63878114D01*
X74136131Y-63868407D01*
X74136128Y-63868406D01*
X74129416Y-63864852D01*
X73980234Y-63827380D01*
X73972636Y-63827340D01*
X73972634Y-63827340D01*
X73907143Y-63826997D01*
X73826421Y-63826575D01*
X73819042Y-63828347D01*
X73819038Y-63828347D01*
X73684234Y-63860710D01*
X73684230Y-63860711D01*
X73676855Y-63862482D01*
X73540172Y-63933029D01*
X73424262Y-64034144D01*
X73335818Y-64159988D01*
X73333059Y-64167063D01*
X73333058Y-64167066D01*
X73282704Y-64296217D01*
X73279944Y-64303297D01*
X73278952Y-64310830D01*
X73278952Y-64310831D01*
X73266124Y-64408272D01*
X73259867Y-64455796D01*
X71655916Y-64455796D01*
X71682531Y-64408272D01*
X71687210Y-64397763D01*
X71753386Y-64202817D01*
X71756017Y-64191857D01*
X71754040Y-64177992D01*
X71740474Y-64174000D01*
X70872115Y-64174000D01*
X70856876Y-64178475D01*
X70855671Y-64179865D01*
X70854000Y-64187548D01*
X70854000Y-65060512D01*
X70346000Y-65060512D01*
X70346000Y-64192115D01*
X70341525Y-64176876D01*
X70340135Y-64175671D01*
X70332452Y-64174000D01*
X69461981Y-64174000D01*
X69448450Y-64177973D01*
X69447158Y-64186962D01*
X66655319Y-64186962D01*
X66654040Y-64177992D01*
X66640474Y-64174000D01*
X65772115Y-64174000D01*
X65756876Y-64178475D01*
X65755671Y-64179865D01*
X65754000Y-64187548D01*
X65754000Y-65060512D01*
X65246000Y-65060512D01*
X65246000Y-64192115D01*
X65241525Y-64176876D01*
X65240135Y-64175671D01*
X65232452Y-64174000D01*
X64361981Y-64174000D01*
X64348450Y-64177973D01*
X64347158Y-64186962D01*
X61455319Y-64186962D01*
X61454040Y-64177992D01*
X61440474Y-64174000D01*
X60572115Y-64174000D01*
X60556876Y-64178475D01*
X60555671Y-64179865D01*
X60554000Y-64187548D01*
X60554000Y-65060512D01*
X60046000Y-65060512D01*
X60046000Y-64192115D01*
X60041525Y-64176876D01*
X60040135Y-64175671D01*
X60032452Y-64174000D01*
X59161981Y-64174000D01*
X59148450Y-64177973D01*
X59147158Y-64186962D01*
X56255319Y-64186962D01*
X56254040Y-64177992D01*
X56240474Y-64174000D01*
X55372115Y-64174000D01*
X55356876Y-64178475D01*
X55355671Y-64179865D01*
X55354000Y-64187548D01*
X55354000Y-65060512D01*
X54846000Y-65060512D01*
X54846000Y-64192115D01*
X54841525Y-64176876D01*
X54840135Y-64175671D01*
X54832452Y-64174000D01*
X53961981Y-64174000D01*
X53948450Y-64177973D01*
X53947158Y-64186962D01*
X50254500Y-64186962D01*
X50254500Y-63662799D01*
X53945218Y-63662799D01*
X53951950Y-63666000D01*
X56239485Y-63666000D01*
X56250387Y-63662799D01*
X59145218Y-63662799D01*
X59151950Y-63666000D01*
X61439485Y-63666000D01*
X61450387Y-63662799D01*
X64345218Y-63662799D01*
X64351950Y-63666000D01*
X66639485Y-63666000D01*
X66650387Y-63662799D01*
X69445218Y-63662799D01*
X69451950Y-63666000D01*
X71739485Y-63666000D01*
X71753016Y-63662027D01*
X71754185Y-63653892D01*
X71710725Y-63499794D01*
X71706603Y-63489055D01*
X71615549Y-63304417D01*
X71609538Y-63294608D01*
X71486360Y-63129651D01*
X71478671Y-63121111D01*
X71327490Y-62981361D01*
X71318365Y-62974360D01*
X71144255Y-62864505D01*
X71134008Y-62859284D01*
X70942799Y-62782999D01*
X70931762Y-62779730D01*
X70904527Y-62774312D01*
X70841618Y-62741404D01*
X70806486Y-62679709D01*
X70810286Y-62608814D01*
X70851812Y-62551228D01*
X70888608Y-62531420D01*
X71077760Y-62467212D01*
X71088272Y-62462531D01*
X71267882Y-62361944D01*
X71277375Y-62355420D01*
X71435653Y-62223782D01*
X71443782Y-62215653D01*
X71575420Y-62057375D01*
X71581944Y-62047882D01*
X71682531Y-61868272D01*
X71687210Y-61857763D01*
X71753386Y-61662817D01*
X71756017Y-61651857D01*
X71754040Y-61637992D01*
X71740474Y-61634000D01*
X69461981Y-61634000D01*
X69448450Y-61637973D01*
X69447158Y-61646962D01*
X69478656Y-61770985D01*
X69482497Y-61781832D01*
X69568685Y-61968789D01*
X69574436Y-61978750D01*
X69693254Y-62146873D01*
X69700720Y-62155615D01*
X69848191Y-62299275D01*
X69857124Y-62306509D01*
X70028299Y-62420884D01*
X70038409Y-62426374D01*
X70227560Y-62507640D01*
X70238505Y-62511196D01*
X70300135Y-62525141D01*
X70362162Y-62559683D01*
X70395667Y-62622277D01*
X70390013Y-62693048D01*
X70346995Y-62749527D01*
X70303293Y-62768129D01*
X70303778Y-62769941D01*
X70287082Y-62774415D01*
X70093940Y-62845669D01*
X70083562Y-62850619D01*
X69906639Y-62955877D01*
X69897327Y-62962643D01*
X69742547Y-63098381D01*
X69734630Y-63106724D01*
X69607180Y-63268394D01*
X69600909Y-63278050D01*
X69505060Y-63460229D01*
X69500655Y-63470863D01*
X69445436Y-63648700D01*
X69445218Y-63662799D01*
X66650387Y-63662799D01*
X66653016Y-63662027D01*
X66654185Y-63653892D01*
X66610725Y-63499794D01*
X66606603Y-63489055D01*
X66515549Y-63304417D01*
X66509538Y-63294608D01*
X66386360Y-63129651D01*
X66378671Y-63121111D01*
X66227490Y-62981361D01*
X66218365Y-62974360D01*
X66044255Y-62864505D01*
X66034008Y-62859284D01*
X65842799Y-62782999D01*
X65831762Y-62779730D01*
X65804527Y-62774312D01*
X65741618Y-62741404D01*
X65706486Y-62679709D01*
X65710286Y-62608814D01*
X65751812Y-62551228D01*
X65788608Y-62531420D01*
X65977760Y-62467212D01*
X65988272Y-62462531D01*
X66167882Y-62361944D01*
X66177375Y-62355420D01*
X66335653Y-62223782D01*
X66343782Y-62215653D01*
X66475420Y-62057375D01*
X66481944Y-62047882D01*
X66582531Y-61868272D01*
X66587210Y-61857763D01*
X66653386Y-61662817D01*
X66656017Y-61651857D01*
X66654040Y-61637992D01*
X66640474Y-61634000D01*
X64361981Y-61634000D01*
X64348450Y-61637973D01*
X64347158Y-61646962D01*
X64378656Y-61770985D01*
X64382497Y-61781832D01*
X64468685Y-61968789D01*
X64474436Y-61978750D01*
X64593254Y-62146873D01*
X64600720Y-62155615D01*
X64748191Y-62299275D01*
X64757124Y-62306509D01*
X64928299Y-62420884D01*
X64938409Y-62426374D01*
X65127560Y-62507640D01*
X65138505Y-62511196D01*
X65200135Y-62525141D01*
X65262162Y-62559683D01*
X65295667Y-62622277D01*
X65290013Y-62693048D01*
X65246995Y-62749527D01*
X65203293Y-62768129D01*
X65203778Y-62769941D01*
X65187082Y-62774415D01*
X64993940Y-62845669D01*
X64983562Y-62850619D01*
X64806639Y-62955877D01*
X64797327Y-62962643D01*
X64642547Y-63098381D01*
X64634630Y-63106724D01*
X64507180Y-63268394D01*
X64500909Y-63278050D01*
X64405060Y-63460229D01*
X64400655Y-63470863D01*
X64345436Y-63648700D01*
X64345218Y-63662799D01*
X61450387Y-63662799D01*
X61453016Y-63662027D01*
X61454185Y-63653892D01*
X61410725Y-63499794D01*
X61406603Y-63489055D01*
X61315549Y-63304417D01*
X61309538Y-63294608D01*
X61186360Y-63129651D01*
X61178671Y-63121111D01*
X61027490Y-62981361D01*
X61018365Y-62974360D01*
X60844255Y-62864505D01*
X60834008Y-62859284D01*
X60642799Y-62782999D01*
X60631762Y-62779730D01*
X60604527Y-62774312D01*
X60541618Y-62741404D01*
X60506486Y-62679709D01*
X60510286Y-62608814D01*
X60551812Y-62551228D01*
X60588608Y-62531420D01*
X60777760Y-62467212D01*
X60788272Y-62462531D01*
X60967882Y-62361944D01*
X60977375Y-62355420D01*
X61135653Y-62223782D01*
X61143782Y-62215653D01*
X61275420Y-62057375D01*
X61281944Y-62047882D01*
X61382531Y-61868272D01*
X61387210Y-61857763D01*
X61453386Y-61662817D01*
X61456017Y-61651857D01*
X61454040Y-61637992D01*
X61440474Y-61634000D01*
X59161981Y-61634000D01*
X59148450Y-61637973D01*
X59147158Y-61646962D01*
X59178656Y-61770985D01*
X59182497Y-61781832D01*
X59268685Y-61968789D01*
X59274436Y-61978750D01*
X59393254Y-62146873D01*
X59400720Y-62155615D01*
X59548191Y-62299275D01*
X59557124Y-62306509D01*
X59728299Y-62420884D01*
X59738409Y-62426374D01*
X59927560Y-62507640D01*
X59938505Y-62511196D01*
X60000135Y-62525141D01*
X60062162Y-62559683D01*
X60095667Y-62622277D01*
X60090013Y-62693048D01*
X60046995Y-62749527D01*
X60003293Y-62768129D01*
X60003778Y-62769941D01*
X59987082Y-62774415D01*
X59793940Y-62845669D01*
X59783562Y-62850619D01*
X59606639Y-62955877D01*
X59597327Y-62962643D01*
X59442547Y-63098381D01*
X59434630Y-63106724D01*
X59307180Y-63268394D01*
X59300909Y-63278050D01*
X59205060Y-63460229D01*
X59200655Y-63470863D01*
X59145436Y-63648700D01*
X59145218Y-63662799D01*
X56250387Y-63662799D01*
X56253016Y-63662027D01*
X56254185Y-63653892D01*
X56210725Y-63499794D01*
X56206603Y-63489055D01*
X56115549Y-63304417D01*
X56109538Y-63294608D01*
X55986360Y-63129651D01*
X55978671Y-63121111D01*
X55827490Y-62981361D01*
X55818365Y-62974360D01*
X55644255Y-62864505D01*
X55634008Y-62859284D01*
X55442799Y-62782999D01*
X55431762Y-62779730D01*
X55404527Y-62774312D01*
X55341618Y-62741404D01*
X55306486Y-62679709D01*
X55310286Y-62608814D01*
X55351812Y-62551228D01*
X55388608Y-62531420D01*
X55577760Y-62467212D01*
X55588272Y-62462531D01*
X55767882Y-62361944D01*
X55777375Y-62355420D01*
X55935653Y-62223782D01*
X55943782Y-62215653D01*
X56075420Y-62057375D01*
X56081944Y-62047882D01*
X56182531Y-61868272D01*
X56187210Y-61857763D01*
X56253386Y-61662817D01*
X56256017Y-61651857D01*
X56254040Y-61637992D01*
X56240474Y-61634000D01*
X53961981Y-61634000D01*
X53948450Y-61637973D01*
X53947158Y-61646962D01*
X53978656Y-61770985D01*
X53982497Y-61781832D01*
X54068685Y-61968789D01*
X54074436Y-61978750D01*
X54193254Y-62146873D01*
X54200720Y-62155615D01*
X54348191Y-62299275D01*
X54357124Y-62306509D01*
X54528299Y-62420884D01*
X54538409Y-62426374D01*
X54727560Y-62507640D01*
X54738505Y-62511196D01*
X54800135Y-62525141D01*
X54862162Y-62559683D01*
X54895667Y-62622277D01*
X54890013Y-62693048D01*
X54846995Y-62749527D01*
X54803293Y-62768129D01*
X54803778Y-62769941D01*
X54787082Y-62774415D01*
X54593940Y-62845669D01*
X54583562Y-62850619D01*
X54406639Y-62955877D01*
X54397327Y-62962643D01*
X54242547Y-63098381D01*
X54234630Y-63106724D01*
X54107180Y-63268394D01*
X54100909Y-63278050D01*
X54005060Y-63460229D01*
X54000655Y-63470863D01*
X53945436Y-63648700D01*
X53945218Y-63662799D01*
X50254500Y-63662799D01*
X50254500Y-61122799D01*
X53945218Y-61122799D01*
X53951950Y-61126000D01*
X54827885Y-61126000D01*
X54843124Y-61121525D01*
X54844329Y-61120135D01*
X54846000Y-61112452D01*
X54846000Y-61107885D01*
X55354000Y-61107885D01*
X55358475Y-61123124D01*
X55359865Y-61124329D01*
X55367548Y-61126000D01*
X56239485Y-61126000D01*
X56250387Y-61122799D01*
X59145218Y-61122799D01*
X59151950Y-61126000D01*
X60027885Y-61126000D01*
X60043124Y-61121525D01*
X60044329Y-61120135D01*
X60046000Y-61112452D01*
X60046000Y-61107885D01*
X60554000Y-61107885D01*
X60558475Y-61123124D01*
X60559865Y-61124329D01*
X60567548Y-61126000D01*
X61439485Y-61126000D01*
X61450387Y-61122799D01*
X64345218Y-61122799D01*
X64351950Y-61126000D01*
X65227885Y-61126000D01*
X65243124Y-61121525D01*
X65244329Y-61120135D01*
X65246000Y-61112452D01*
X65246000Y-61107885D01*
X65754000Y-61107885D01*
X65758475Y-61123124D01*
X65759865Y-61124329D01*
X65767548Y-61126000D01*
X66639485Y-61126000D01*
X66650387Y-61122799D01*
X69445218Y-61122799D01*
X69451950Y-61126000D01*
X70327885Y-61126000D01*
X70343124Y-61121525D01*
X70344329Y-61120135D01*
X70346000Y-61112452D01*
X70346000Y-61107885D01*
X70854000Y-61107885D01*
X70858475Y-61123124D01*
X70859865Y-61124329D01*
X70867548Y-61126000D01*
X71739485Y-61126000D01*
X71753016Y-61122027D01*
X71754185Y-61113892D01*
X71710725Y-60959794D01*
X71706603Y-60949055D01*
X71615549Y-60764417D01*
X71609538Y-60754608D01*
X71486360Y-60589651D01*
X71478671Y-60581111D01*
X71327490Y-60441361D01*
X71318365Y-60434360D01*
X71144255Y-60324505D01*
X71134008Y-60319284D01*
X70942793Y-60242997D01*
X70931767Y-60239730D01*
X70871770Y-60227797D01*
X70858894Y-60228949D01*
X70854000Y-60244102D01*
X70854000Y-61107885D01*
X70346000Y-61107885D01*
X70346000Y-60241337D01*
X70342194Y-60228375D01*
X70327278Y-60226439D01*
X70298202Y-60231435D01*
X70287082Y-60234415D01*
X70093940Y-60305669D01*
X70083562Y-60310619D01*
X69906639Y-60415877D01*
X69897327Y-60422643D01*
X69742547Y-60558381D01*
X69734630Y-60566724D01*
X69607180Y-60728394D01*
X69600909Y-60738050D01*
X69505060Y-60920229D01*
X69500655Y-60930863D01*
X69445436Y-61108700D01*
X69445218Y-61122799D01*
X66650387Y-61122799D01*
X66653016Y-61122027D01*
X66654185Y-61113892D01*
X66610725Y-60959794D01*
X66606603Y-60949055D01*
X66515549Y-60764417D01*
X66509538Y-60754608D01*
X66386360Y-60589651D01*
X66378671Y-60581111D01*
X66227490Y-60441361D01*
X66218365Y-60434360D01*
X66044255Y-60324505D01*
X66034008Y-60319284D01*
X65842793Y-60242997D01*
X65831767Y-60239730D01*
X65771770Y-60227797D01*
X65758894Y-60228949D01*
X65754000Y-60244102D01*
X65754000Y-61107885D01*
X65246000Y-61107885D01*
X65246000Y-60241337D01*
X65242194Y-60228375D01*
X65227278Y-60226439D01*
X65198202Y-60231435D01*
X65187082Y-60234415D01*
X64993940Y-60305669D01*
X64983562Y-60310619D01*
X64806639Y-60415877D01*
X64797327Y-60422643D01*
X64642547Y-60558381D01*
X64634630Y-60566724D01*
X64507180Y-60728394D01*
X64500909Y-60738050D01*
X64405060Y-60920229D01*
X64400655Y-60930863D01*
X64345436Y-61108700D01*
X64345218Y-61122799D01*
X61450387Y-61122799D01*
X61453016Y-61122027D01*
X61454185Y-61113892D01*
X61410725Y-60959794D01*
X61406603Y-60949055D01*
X61315549Y-60764417D01*
X61309538Y-60754608D01*
X61186360Y-60589651D01*
X61178671Y-60581111D01*
X61027490Y-60441361D01*
X61018365Y-60434360D01*
X60844255Y-60324505D01*
X60834008Y-60319284D01*
X60642793Y-60242997D01*
X60631767Y-60239730D01*
X60571770Y-60227797D01*
X60558894Y-60228949D01*
X60554000Y-60244102D01*
X60554000Y-61107885D01*
X60046000Y-61107885D01*
X60046000Y-60241337D01*
X60042194Y-60228375D01*
X60027278Y-60226439D01*
X59998202Y-60231435D01*
X59987082Y-60234415D01*
X59793940Y-60305669D01*
X59783562Y-60310619D01*
X59606639Y-60415877D01*
X59597327Y-60422643D01*
X59442547Y-60558381D01*
X59434630Y-60566724D01*
X59307180Y-60728394D01*
X59300909Y-60738050D01*
X59205060Y-60920229D01*
X59200655Y-60930863D01*
X59145436Y-61108700D01*
X59145218Y-61122799D01*
X56250387Y-61122799D01*
X56253016Y-61122027D01*
X56254185Y-61113892D01*
X56210725Y-60959794D01*
X56206603Y-60949055D01*
X56115549Y-60764417D01*
X56109538Y-60754608D01*
X55986360Y-60589651D01*
X55978671Y-60581111D01*
X55827490Y-60441361D01*
X55818365Y-60434360D01*
X55644255Y-60324505D01*
X55634008Y-60319284D01*
X55442793Y-60242997D01*
X55431767Y-60239730D01*
X55371770Y-60227797D01*
X55358894Y-60228949D01*
X55354000Y-60244102D01*
X55354000Y-61107885D01*
X54846000Y-61107885D01*
X54846000Y-60241337D01*
X54842194Y-60228375D01*
X54827278Y-60226439D01*
X54798202Y-60231435D01*
X54787082Y-60234415D01*
X54593940Y-60305669D01*
X54583562Y-60310619D01*
X54406639Y-60415877D01*
X54397327Y-60422643D01*
X54242547Y-60558381D01*
X54234630Y-60566724D01*
X54107180Y-60728394D01*
X54100909Y-60738050D01*
X54005060Y-60920229D01*
X54000655Y-60930863D01*
X53945436Y-61108700D01*
X53945218Y-61122799D01*
X50254500Y-61122799D01*
X50254500Y-58840000D01*
X54165380Y-58840000D01*
X54166070Y-58846565D01*
X54169360Y-58877862D01*
X54185804Y-59034318D01*
X54246182Y-59220144D01*
X54343877Y-59389356D01*
X54348295Y-59394263D01*
X54348296Y-59394264D01*
X54470195Y-59529647D01*
X54474617Y-59534558D01*
X54632690Y-59649405D01*
X54638719Y-59652089D01*
X54638722Y-59652091D01*
X54805151Y-59726189D01*
X54805154Y-59726190D01*
X54811187Y-59728876D01*
X54890727Y-59745783D01*
X54995849Y-59768128D01*
X54995854Y-59768128D01*
X55002306Y-59769500D01*
X55197694Y-59769500D01*
X55204146Y-59768128D01*
X55204151Y-59768128D01*
X55309273Y-59745783D01*
X55388813Y-59728876D01*
X55394846Y-59726190D01*
X55394849Y-59726189D01*
X55561278Y-59652091D01*
X55561281Y-59652089D01*
X55567310Y-59649405D01*
X55725383Y-59534558D01*
X55729805Y-59529647D01*
X55851704Y-59394264D01*
X55851705Y-59394263D01*
X55856123Y-59389356D01*
X55953818Y-59220144D01*
X56014196Y-59034318D01*
X56030641Y-58877862D01*
X56033930Y-58846565D01*
X56034620Y-58840000D01*
X59365380Y-58840000D01*
X59366070Y-58846565D01*
X59369360Y-58877862D01*
X59385804Y-59034318D01*
X59446182Y-59220144D01*
X59543877Y-59389356D01*
X59548295Y-59394263D01*
X59548296Y-59394264D01*
X59670195Y-59529647D01*
X59674617Y-59534558D01*
X59832690Y-59649405D01*
X59838719Y-59652089D01*
X59838722Y-59652091D01*
X60005151Y-59726189D01*
X60005154Y-59726190D01*
X60011187Y-59728876D01*
X60090727Y-59745783D01*
X60195849Y-59768128D01*
X60195854Y-59768128D01*
X60202306Y-59769500D01*
X60397694Y-59769500D01*
X60404146Y-59768128D01*
X60404151Y-59768128D01*
X60509273Y-59745783D01*
X60588813Y-59728876D01*
X60594846Y-59726190D01*
X60594849Y-59726189D01*
X60761278Y-59652091D01*
X60761281Y-59652089D01*
X60767310Y-59649405D01*
X60925383Y-59534558D01*
X60929805Y-59529647D01*
X61051704Y-59394264D01*
X61051705Y-59394263D01*
X61056123Y-59389356D01*
X61153818Y-59220144D01*
X61214196Y-59034318D01*
X61230641Y-58877862D01*
X61233930Y-58846565D01*
X61234620Y-58840000D01*
X64565380Y-58840000D01*
X64566070Y-58846565D01*
X64569360Y-58877862D01*
X64585804Y-59034318D01*
X64646182Y-59220144D01*
X64743877Y-59389356D01*
X64748295Y-59394263D01*
X64748296Y-59394264D01*
X64870195Y-59529647D01*
X64874617Y-59534558D01*
X65032690Y-59649405D01*
X65038719Y-59652089D01*
X65038722Y-59652091D01*
X65205151Y-59726189D01*
X65205154Y-59726190D01*
X65211187Y-59728876D01*
X65290727Y-59745783D01*
X65395849Y-59768128D01*
X65395854Y-59768128D01*
X65402306Y-59769500D01*
X65597694Y-59769500D01*
X65604146Y-59768128D01*
X65604151Y-59768128D01*
X65709273Y-59745783D01*
X65788813Y-59728876D01*
X65794846Y-59726190D01*
X65794849Y-59726189D01*
X65961278Y-59652091D01*
X65961281Y-59652089D01*
X65967310Y-59649405D01*
X66125383Y-59534558D01*
X66129805Y-59529647D01*
X66251704Y-59394264D01*
X66251705Y-59394263D01*
X66256123Y-59389356D01*
X66353818Y-59220144D01*
X66414196Y-59034318D01*
X66430641Y-58877862D01*
X66433930Y-58846565D01*
X66434620Y-58840000D01*
X69665380Y-58840000D01*
X69666070Y-58846565D01*
X69669360Y-58877862D01*
X69685804Y-59034318D01*
X69746182Y-59220144D01*
X69843877Y-59389356D01*
X69848295Y-59394263D01*
X69848296Y-59394264D01*
X69970195Y-59529647D01*
X69974617Y-59534558D01*
X70132690Y-59649405D01*
X70138719Y-59652089D01*
X70138722Y-59652091D01*
X70305151Y-59726189D01*
X70305154Y-59726190D01*
X70311187Y-59728876D01*
X70390727Y-59745783D01*
X70495849Y-59768128D01*
X70495854Y-59768128D01*
X70502306Y-59769500D01*
X70697694Y-59769500D01*
X70704146Y-59768128D01*
X70704151Y-59768128D01*
X70809273Y-59745783D01*
X70888813Y-59728876D01*
X70894846Y-59726190D01*
X70894849Y-59726189D01*
X71061278Y-59652091D01*
X71061281Y-59652089D01*
X71067310Y-59649405D01*
X71225383Y-59534558D01*
X71229805Y-59529647D01*
X71351704Y-59394264D01*
X71351705Y-59394263D01*
X71356123Y-59389356D01*
X71411583Y-59293296D01*
X73459867Y-59293296D01*
X73476746Y-59446183D01*
X73479355Y-59453314D01*
X73479356Y-59453316D01*
X73510508Y-59538441D01*
X73529606Y-59590630D01*
X73533842Y-59596933D01*
X73533842Y-59596934D01*
X73611162Y-59711999D01*
X73611165Y-59712002D01*
X73615396Y-59718299D01*
X73729163Y-59821819D01*
X73864338Y-59895213D01*
X74013119Y-59934245D01*
X74121391Y-59935946D01*
X74146603Y-59936342D01*
X74214401Y-59957411D01*
X74226079Y-59966195D01*
X74229964Y-59969487D01*
X74233647Y-59973170D01*
X74237882Y-59976196D01*
X74237884Y-59976198D01*
X74249435Y-59984452D01*
X74254181Y-59988015D01*
X74294669Y-60019933D01*
X74303356Y-60022984D01*
X74310842Y-60028333D01*
X74320818Y-60031316D01*
X74320819Y-60031317D01*
X74352201Y-60040702D01*
X74356462Y-60041976D01*
X74360210Y-60043097D01*
X74365842Y-60044927D01*
X74414501Y-60062015D01*
X74420090Y-60062499D01*
X74422801Y-60062499D01*
X74425468Y-60062614D01*
X74425531Y-60062633D01*
X74425524Y-60062807D01*
X74426270Y-60062854D01*
X74432523Y-60064724D01*
X74482382Y-60062765D01*
X74486677Y-60062596D01*
X74491624Y-60062499D01*
X87924866Y-60062499D01*
X87949165Y-60065085D01*
X87950603Y-60065153D01*
X87960781Y-60067344D01*
X87994342Y-60063372D01*
X88000321Y-60063020D01*
X88000313Y-60062927D01*
X88005491Y-60062499D01*
X88010693Y-60062499D01*
X88029847Y-60059311D01*
X88035705Y-60058477D01*
X88052319Y-60056511D01*
X88076568Y-60053641D01*
X88076569Y-60053641D01*
X88086908Y-60052417D01*
X88095207Y-60048432D01*
X88104284Y-60046921D01*
X88149652Y-60022441D01*
X88154915Y-60019760D01*
X88194251Y-60000872D01*
X88194255Y-60000869D01*
X88201399Y-59997439D01*
X88205693Y-59993829D01*
X88207625Y-59991897D01*
X88209574Y-59990110D01*
X88209627Y-59990081D01*
X88209746Y-59990211D01*
X88210314Y-59989710D01*
X88216058Y-59986611D01*
X88252869Y-59946789D01*
X88256298Y-59943224D01*
X93772883Y-54426639D01*
X93835195Y-54392613D01*
X93888175Y-54392487D01*
X94055849Y-54428128D01*
X94055854Y-54428128D01*
X94062306Y-54429500D01*
X94257694Y-54429500D01*
X94264146Y-54428128D01*
X94264151Y-54428128D01*
X94369273Y-54405783D01*
X94448813Y-54388876D01*
X94454846Y-54386190D01*
X94454849Y-54386189D01*
X94621278Y-54312091D01*
X94621281Y-54312089D01*
X94627310Y-54309405D01*
X94673818Y-54275615D01*
X94780039Y-54198441D01*
X94780041Y-54198439D01*
X94785383Y-54194558D01*
X94871649Y-54098750D01*
X94911704Y-54054264D01*
X94911705Y-54054263D01*
X94916123Y-54049356D01*
X94975454Y-53946593D01*
X95010514Y-53885867D01*
X95010515Y-53885866D01*
X95013818Y-53880144D01*
X95074196Y-53694318D01*
X95094620Y-53500000D01*
X95074196Y-53305682D01*
X95013818Y-53119856D01*
X94916123Y-52950644D01*
X94876460Y-52906593D01*
X94789805Y-52810353D01*
X94789804Y-52810352D01*
X94785383Y-52805442D01*
X94777801Y-52799933D01*
X95770500Y-52799933D01*
X95770501Y-54200066D01*
X95785266Y-54274301D01*
X95792161Y-54284620D01*
X95792162Y-54284622D01*
X95832516Y-54345015D01*
X95841516Y-54358484D01*
X95925699Y-54414734D01*
X95999933Y-54429500D01*
X96699886Y-54429500D01*
X97400066Y-54429499D01*
X97435818Y-54422388D01*
X97462126Y-54417156D01*
X97462128Y-54417155D01*
X97474301Y-54414734D01*
X97484621Y-54407839D01*
X97484622Y-54407838D01*
X97548168Y-54365377D01*
X97558484Y-54358484D01*
X97614734Y-54274301D01*
X97629500Y-54200067D01*
X97629499Y-52799934D01*
X97614734Y-52725699D01*
X97588692Y-52686724D01*
X97565377Y-52651832D01*
X97558484Y-52641516D01*
X97474301Y-52585266D01*
X97400067Y-52570500D01*
X96700114Y-52570500D01*
X95999934Y-52570501D01*
X95964182Y-52577612D01*
X95937874Y-52582844D01*
X95937872Y-52582845D01*
X95925699Y-52585266D01*
X95915379Y-52592161D01*
X95915378Y-52592162D01*
X95889055Y-52609751D01*
X95841516Y-52641516D01*
X95785266Y-52725699D01*
X95770500Y-52799933D01*
X94777801Y-52799933D01*
X94727602Y-52763461D01*
X94632652Y-52694476D01*
X94632651Y-52694475D01*
X94627310Y-52690595D01*
X94621281Y-52687911D01*
X94621278Y-52687909D01*
X94454849Y-52613811D01*
X94454846Y-52613810D01*
X94448813Y-52611124D01*
X94350172Y-52590157D01*
X94264151Y-52571872D01*
X94264146Y-52571872D01*
X94257694Y-52570500D01*
X94062306Y-52570500D01*
X94055854Y-52571872D01*
X94055849Y-52571872D01*
X93969828Y-52590157D01*
X93871187Y-52611124D01*
X93865154Y-52613810D01*
X93865151Y-52613811D01*
X93698722Y-52687909D01*
X93698719Y-52687911D01*
X93692690Y-52690595D01*
X93687349Y-52694475D01*
X93687348Y-52694476D01*
X93592399Y-52763461D01*
X93534617Y-52805442D01*
X93530196Y-52810352D01*
X93530195Y-52810353D01*
X93443541Y-52906593D01*
X93403877Y-52950644D01*
X93306182Y-53119856D01*
X93245804Y-53305682D01*
X93225380Y-53500000D01*
X93245804Y-53694318D01*
X93266174Y-53757012D01*
X93268201Y-53827978D01*
X93235436Y-53885041D01*
X92799751Y-54320726D01*
X92737439Y-54354752D01*
X92666624Y-54349687D01*
X92609788Y-54307140D01*
X92584977Y-54240620D01*
X92600721Y-54170065D01*
X92702535Y-53988264D01*
X92707210Y-53977763D01*
X92773386Y-53782817D01*
X92776017Y-53771857D01*
X92774040Y-53757992D01*
X92760474Y-53754000D01*
X91892115Y-53754000D01*
X91876876Y-53758475D01*
X91875671Y-53759865D01*
X91874000Y-53767548D01*
X91874000Y-54640512D01*
X91877966Y-54654018D01*
X91891883Y-54656011D01*
X91902817Y-54653386D01*
X92097763Y-54587210D01*
X92108264Y-54582535D01*
X92290065Y-54480721D01*
X92359273Y-54464888D01*
X92426055Y-54488985D01*
X92469208Y-54545362D01*
X92475031Y-54616119D01*
X92440726Y-54679751D01*
X87857883Y-59262594D01*
X87795571Y-59296620D01*
X87768788Y-59299499D01*
X74851778Y-59299499D01*
X74783657Y-59279497D01*
X74737164Y-59225841D01*
X74726692Y-59188642D01*
X74721689Y-59147299D01*
X74667319Y-59003413D01*
X74580197Y-58876649D01*
X74465353Y-58774327D01*
X74451602Y-58767046D01*
X74336131Y-58705907D01*
X74336128Y-58705906D01*
X74329416Y-58702352D01*
X74180234Y-58664880D01*
X74172636Y-58664840D01*
X74172634Y-58664840D01*
X74107143Y-58664497D01*
X74026421Y-58664075D01*
X74019042Y-58665847D01*
X74019038Y-58665847D01*
X73884234Y-58698210D01*
X73884230Y-58698211D01*
X73876855Y-58699982D01*
X73740172Y-58770529D01*
X73734450Y-58775521D01*
X73734448Y-58775522D01*
X73629989Y-58866648D01*
X73624262Y-58871644D01*
X73535818Y-58997488D01*
X73533059Y-59004563D01*
X73533058Y-59004566D01*
X73519010Y-59040597D01*
X73479944Y-59140797D01*
X73478952Y-59148330D01*
X73478952Y-59148331D01*
X73461684Y-59279497D01*
X73459867Y-59293296D01*
X71411583Y-59293296D01*
X71453818Y-59220144D01*
X71514196Y-59034318D01*
X71530641Y-58877862D01*
X71533930Y-58846565D01*
X71534620Y-58840000D01*
X71533930Y-58833435D01*
X71514886Y-58652246D01*
X71514886Y-58652245D01*
X71514196Y-58645682D01*
X71453818Y-58459856D01*
X71356123Y-58290644D01*
X71225383Y-58145442D01*
X71067310Y-58030595D01*
X71061281Y-58027911D01*
X71061278Y-58027909D01*
X70894849Y-57953811D01*
X70894846Y-57953810D01*
X70888813Y-57951124D01*
X70809273Y-57934217D01*
X70704151Y-57911872D01*
X70704146Y-57911872D01*
X70697694Y-57910500D01*
X70502306Y-57910500D01*
X70495854Y-57911872D01*
X70495849Y-57911872D01*
X70390727Y-57934217D01*
X70311187Y-57951124D01*
X70305154Y-57953810D01*
X70305151Y-57953811D01*
X70138722Y-58027909D01*
X70138719Y-58027911D01*
X70132690Y-58030595D01*
X69974617Y-58145442D01*
X69843877Y-58290644D01*
X69746182Y-58459856D01*
X69685804Y-58645682D01*
X69685114Y-58652245D01*
X69685114Y-58652246D01*
X69666070Y-58833435D01*
X69665380Y-58840000D01*
X66434620Y-58840000D01*
X66433930Y-58833435D01*
X66414886Y-58652246D01*
X66414886Y-58652245D01*
X66414196Y-58645682D01*
X66353818Y-58459856D01*
X66256123Y-58290644D01*
X66125383Y-58145442D01*
X65967310Y-58030595D01*
X65961281Y-58027911D01*
X65961278Y-58027909D01*
X65794849Y-57953811D01*
X65794846Y-57953810D01*
X65788813Y-57951124D01*
X65709273Y-57934217D01*
X65604151Y-57911872D01*
X65604146Y-57911872D01*
X65597694Y-57910500D01*
X65402306Y-57910500D01*
X65395854Y-57911872D01*
X65395849Y-57911872D01*
X65290727Y-57934217D01*
X65211187Y-57951124D01*
X65205154Y-57953810D01*
X65205151Y-57953811D01*
X65038722Y-58027909D01*
X65038719Y-58027911D01*
X65032690Y-58030595D01*
X64874617Y-58145442D01*
X64743877Y-58290644D01*
X64646182Y-58459856D01*
X64585804Y-58645682D01*
X64585114Y-58652245D01*
X64585114Y-58652246D01*
X64566070Y-58833435D01*
X64565380Y-58840000D01*
X61234620Y-58840000D01*
X61233930Y-58833435D01*
X61214886Y-58652246D01*
X61214886Y-58652245D01*
X61214196Y-58645682D01*
X61153818Y-58459856D01*
X61056123Y-58290644D01*
X60925383Y-58145442D01*
X60767310Y-58030595D01*
X60761281Y-58027911D01*
X60761278Y-58027909D01*
X60594849Y-57953811D01*
X60594846Y-57953810D01*
X60588813Y-57951124D01*
X60509273Y-57934217D01*
X60404151Y-57911872D01*
X60404146Y-57911872D01*
X60397694Y-57910500D01*
X60202306Y-57910500D01*
X60195854Y-57911872D01*
X60195849Y-57911872D01*
X60090727Y-57934217D01*
X60011187Y-57951124D01*
X60005154Y-57953810D01*
X60005151Y-57953811D01*
X59838722Y-58027909D01*
X59838719Y-58027911D01*
X59832690Y-58030595D01*
X59674617Y-58145442D01*
X59543877Y-58290644D01*
X59446182Y-58459856D01*
X59385804Y-58645682D01*
X59385114Y-58652245D01*
X59385114Y-58652246D01*
X59366070Y-58833435D01*
X59365380Y-58840000D01*
X56034620Y-58840000D01*
X56033930Y-58833435D01*
X56014886Y-58652246D01*
X56014886Y-58652245D01*
X56014196Y-58645682D01*
X55953818Y-58459856D01*
X55856123Y-58290644D01*
X55725383Y-58145442D01*
X55567310Y-58030595D01*
X55561281Y-58027911D01*
X55561278Y-58027909D01*
X55394849Y-57953811D01*
X55394846Y-57953810D01*
X55388813Y-57951124D01*
X55309273Y-57934217D01*
X55204151Y-57911872D01*
X55204146Y-57911872D01*
X55197694Y-57910500D01*
X55002306Y-57910500D01*
X54995854Y-57911872D01*
X54995849Y-57911872D01*
X54890727Y-57934217D01*
X54811187Y-57951124D01*
X54805154Y-57953810D01*
X54805151Y-57953811D01*
X54638722Y-58027909D01*
X54638719Y-58027911D01*
X54632690Y-58030595D01*
X54474617Y-58145442D01*
X54343877Y-58290644D01*
X54246182Y-58459856D01*
X54185804Y-58645682D01*
X54185114Y-58652245D01*
X54185114Y-58652246D01*
X54166070Y-58833435D01*
X54165380Y-58840000D01*
X50254500Y-58840000D01*
X50254500Y-55599933D01*
X54170500Y-55599933D01*
X54170501Y-57000066D01*
X54185266Y-57074301D01*
X54192161Y-57084620D01*
X54192162Y-57084622D01*
X54232516Y-57145015D01*
X54241516Y-57158484D01*
X54325699Y-57214734D01*
X54399933Y-57229500D01*
X55099886Y-57229500D01*
X55800066Y-57229499D01*
X55835818Y-57222388D01*
X55862126Y-57217156D01*
X55862128Y-57217155D01*
X55874301Y-57214734D01*
X55884621Y-57207839D01*
X55884622Y-57207838D01*
X55948168Y-57165377D01*
X55958484Y-57158484D01*
X56014734Y-57074301D01*
X56029500Y-57000067D01*
X56029499Y-55599934D01*
X56029499Y-55599933D01*
X59370500Y-55599933D01*
X59370501Y-57000066D01*
X59385266Y-57074301D01*
X59392161Y-57084620D01*
X59392162Y-57084622D01*
X59432516Y-57145015D01*
X59441516Y-57158484D01*
X59525699Y-57214734D01*
X59599933Y-57229500D01*
X60299886Y-57229500D01*
X61000066Y-57229499D01*
X61035818Y-57222388D01*
X61062126Y-57217156D01*
X61062128Y-57217155D01*
X61074301Y-57214734D01*
X61084621Y-57207839D01*
X61084622Y-57207838D01*
X61148168Y-57165377D01*
X61158484Y-57158484D01*
X61214734Y-57074301D01*
X61229500Y-57000067D01*
X61229499Y-55599934D01*
X61229499Y-55599933D01*
X64570500Y-55599933D01*
X64570501Y-57000066D01*
X64585266Y-57074301D01*
X64592161Y-57084620D01*
X64592162Y-57084622D01*
X64632516Y-57145015D01*
X64641516Y-57158484D01*
X64725699Y-57214734D01*
X64799933Y-57229500D01*
X65499886Y-57229500D01*
X66200066Y-57229499D01*
X66235818Y-57222388D01*
X66262126Y-57217156D01*
X66262128Y-57217155D01*
X66274301Y-57214734D01*
X66284621Y-57207839D01*
X66284622Y-57207838D01*
X66348168Y-57165377D01*
X66358484Y-57158484D01*
X66414734Y-57074301D01*
X66429500Y-57000067D01*
X66429499Y-55599934D01*
X66429499Y-55599933D01*
X69670500Y-55599933D01*
X69670501Y-57000066D01*
X69685266Y-57074301D01*
X69692161Y-57084620D01*
X69692162Y-57084622D01*
X69732516Y-57145015D01*
X69741516Y-57158484D01*
X69825699Y-57214734D01*
X69899933Y-57229500D01*
X70599886Y-57229500D01*
X71300066Y-57229499D01*
X71335818Y-57222388D01*
X71362126Y-57217156D01*
X71362128Y-57217155D01*
X71374301Y-57214734D01*
X71384621Y-57207839D01*
X71384622Y-57207838D01*
X71448168Y-57165377D01*
X71458484Y-57158484D01*
X71514734Y-57074301D01*
X71529500Y-57000067D01*
X71529500Y-56796868D01*
X79041723Y-56796868D01*
X79070720Y-56988599D01*
X79072925Y-56994592D01*
X79135474Y-57164597D01*
X79135476Y-57164602D01*
X79137677Y-57170583D01*
X79239860Y-57335387D01*
X79244248Y-57340027D01*
X79315891Y-57415787D01*
X79373094Y-57476278D01*
X79531937Y-57587501D01*
X79627238Y-57628741D01*
X79704039Y-57661976D01*
X79704041Y-57661977D01*
X79709900Y-57664512D01*
X79716150Y-57665818D01*
X79716151Y-57665818D01*
X79894968Y-57703175D01*
X79894972Y-57703175D01*
X79899713Y-57704166D01*
X79906086Y-57704500D01*
X80048456Y-57704500D01*
X80117805Y-57697456D01*
X80186570Y-57690471D01*
X80186571Y-57690471D01*
X80192919Y-57689826D01*
X80377957Y-57631839D01*
X80547555Y-57537829D01*
X80694786Y-57411636D01*
X80813636Y-57258416D01*
X80827865Y-57229500D01*
X80896430Y-57090157D01*
X80899249Y-57084428D01*
X80948128Y-56896778D01*
X80958277Y-56703132D01*
X80929280Y-56511401D01*
X80891914Y-56409843D01*
X80864526Y-56335403D01*
X80864524Y-56335398D01*
X80862323Y-56329417D01*
X80760140Y-56164613D01*
X80688035Y-56088364D01*
X80631295Y-56028363D01*
X80631294Y-56028362D01*
X80626906Y-56023722D01*
X80468063Y-55912499D01*
X80351151Y-55861907D01*
X80295961Y-55838024D01*
X80295959Y-55838023D01*
X80290100Y-55835488D01*
X80283849Y-55834182D01*
X80105032Y-55796825D01*
X80105028Y-55796825D01*
X80100287Y-55795834D01*
X80093914Y-55795500D01*
X79951544Y-55795500D01*
X79938500Y-55796825D01*
X79813430Y-55809529D01*
X79813429Y-55809529D01*
X79807081Y-55810174D01*
X79622043Y-55868161D01*
X79452445Y-55962171D01*
X79305214Y-56088364D01*
X79186364Y-56241584D01*
X79183547Y-56247309D01*
X79183545Y-56247312D01*
X79140199Y-56335403D01*
X79100751Y-56415572D01*
X79051872Y-56603222D01*
X79041723Y-56796868D01*
X71529500Y-56796868D01*
X71529499Y-55599934D01*
X71514734Y-55525699D01*
X71458484Y-55441516D01*
X71374301Y-55385266D01*
X71300067Y-55370500D01*
X70600114Y-55370500D01*
X69899934Y-55370501D01*
X69864182Y-55377612D01*
X69837874Y-55382844D01*
X69837872Y-55382845D01*
X69825699Y-55385266D01*
X69815379Y-55392161D01*
X69815378Y-55392162D01*
X69754985Y-55432516D01*
X69741516Y-55441516D01*
X69685266Y-55525699D01*
X69670500Y-55599933D01*
X66429499Y-55599933D01*
X66414734Y-55525699D01*
X66358484Y-55441516D01*
X66274301Y-55385266D01*
X66200067Y-55370500D01*
X65500114Y-55370500D01*
X64799934Y-55370501D01*
X64764182Y-55377612D01*
X64737874Y-55382844D01*
X64737872Y-55382845D01*
X64725699Y-55385266D01*
X64715379Y-55392161D01*
X64715378Y-55392162D01*
X64654985Y-55432516D01*
X64641516Y-55441516D01*
X64585266Y-55525699D01*
X64570500Y-55599933D01*
X61229499Y-55599933D01*
X61214734Y-55525699D01*
X61158484Y-55441516D01*
X61074301Y-55385266D01*
X61000067Y-55370500D01*
X60300114Y-55370500D01*
X59599934Y-55370501D01*
X59564182Y-55377612D01*
X59537874Y-55382844D01*
X59537872Y-55382845D01*
X59525699Y-55385266D01*
X59515379Y-55392161D01*
X59515378Y-55392162D01*
X59454985Y-55432516D01*
X59441516Y-55441516D01*
X59385266Y-55525699D01*
X59370500Y-55599933D01*
X56029499Y-55599933D01*
X56014734Y-55525699D01*
X55958484Y-55441516D01*
X55874301Y-55385266D01*
X55800067Y-55370500D01*
X55100114Y-55370500D01*
X54399934Y-55370501D01*
X54364182Y-55377612D01*
X54337874Y-55382844D01*
X54337872Y-55382845D01*
X54325699Y-55385266D01*
X54315379Y-55392161D01*
X54315378Y-55392162D01*
X54254985Y-55432516D01*
X54241516Y-55441516D01*
X54185266Y-55525699D01*
X54170500Y-55599933D01*
X50254500Y-55599933D01*
X50254500Y-53500000D01*
X88145380Y-53500000D01*
X88165804Y-53694318D01*
X88226182Y-53880144D01*
X88229485Y-53885866D01*
X88229486Y-53885867D01*
X88264546Y-53946593D01*
X88323877Y-54049356D01*
X88328295Y-54054263D01*
X88328296Y-54054264D01*
X88368351Y-54098750D01*
X88454617Y-54194558D01*
X88459959Y-54198439D01*
X88459961Y-54198441D01*
X88566182Y-54275615D01*
X88612690Y-54309405D01*
X88618719Y-54312089D01*
X88618722Y-54312091D01*
X88785151Y-54386189D01*
X88785154Y-54386190D01*
X88791187Y-54388876D01*
X88870727Y-54405783D01*
X88975849Y-54428128D01*
X88975854Y-54428128D01*
X88982306Y-54429500D01*
X89177694Y-54429500D01*
X89184146Y-54428128D01*
X89184151Y-54428128D01*
X89289273Y-54405783D01*
X89368813Y-54388876D01*
X89374846Y-54386190D01*
X89374849Y-54386189D01*
X89541278Y-54312091D01*
X89541281Y-54312089D01*
X89547310Y-54309405D01*
X89593818Y-54275615D01*
X89700039Y-54198441D01*
X89700041Y-54198439D01*
X89705383Y-54194558D01*
X89791649Y-54098750D01*
X89831704Y-54054264D01*
X89831705Y-54054263D01*
X89836123Y-54049356D01*
X89895454Y-53946593D01*
X89930514Y-53885867D01*
X89930515Y-53885866D01*
X89933818Y-53880144D01*
X89970593Y-53766962D01*
X90467158Y-53766962D01*
X90498656Y-53890985D01*
X90502497Y-53901832D01*
X90588685Y-54088789D01*
X90594436Y-54098750D01*
X90713254Y-54266873D01*
X90720720Y-54275615D01*
X90868191Y-54419275D01*
X90877124Y-54426509D01*
X91048299Y-54540884D01*
X91058409Y-54546374D01*
X91247566Y-54627642D01*
X91258499Y-54631194D01*
X91348332Y-54651521D01*
X91362405Y-54650632D01*
X91366000Y-54641233D01*
X91366000Y-53772115D01*
X91361525Y-53756876D01*
X91360135Y-53755671D01*
X91352452Y-53754000D01*
X90481981Y-53754000D01*
X90468450Y-53757973D01*
X90467158Y-53766962D01*
X89970593Y-53766962D01*
X89994196Y-53694318D01*
X90014620Y-53500000D01*
X89994196Y-53305682D01*
X89973764Y-53242799D01*
X90465218Y-53242799D01*
X90471950Y-53246000D01*
X91347885Y-53246000D01*
X91363124Y-53241525D01*
X91364329Y-53240135D01*
X91366000Y-53232452D01*
X91366000Y-53227885D01*
X91874000Y-53227885D01*
X91878475Y-53243124D01*
X91879865Y-53244329D01*
X91887548Y-53246000D01*
X92759485Y-53246000D01*
X92773016Y-53242027D01*
X92774185Y-53233892D01*
X92730725Y-53079794D01*
X92726603Y-53069055D01*
X92635549Y-52884417D01*
X92629538Y-52874608D01*
X92506360Y-52709651D01*
X92498671Y-52701111D01*
X92347490Y-52561361D01*
X92338365Y-52554360D01*
X92164255Y-52444505D01*
X92154008Y-52439284D01*
X91962793Y-52362997D01*
X91951767Y-52359730D01*
X91891770Y-52347797D01*
X91878894Y-52348949D01*
X91874000Y-52364102D01*
X91874000Y-53227885D01*
X91366000Y-53227885D01*
X91366000Y-52361337D01*
X91362194Y-52348375D01*
X91347278Y-52346439D01*
X91318202Y-52351435D01*
X91307082Y-52354415D01*
X91113940Y-52425669D01*
X91103562Y-52430619D01*
X90926639Y-52535877D01*
X90917327Y-52542643D01*
X90762547Y-52678381D01*
X90754630Y-52686724D01*
X90627180Y-52848394D01*
X90620909Y-52858050D01*
X90525060Y-53040229D01*
X90520655Y-53050863D01*
X90465436Y-53228700D01*
X90465218Y-53242799D01*
X89973764Y-53242799D01*
X89933818Y-53119856D01*
X89836123Y-52950644D01*
X89796460Y-52906593D01*
X89709805Y-52810353D01*
X89709804Y-52810352D01*
X89705383Y-52805442D01*
X89647602Y-52763461D01*
X89552652Y-52694476D01*
X89552651Y-52694475D01*
X89547310Y-52690595D01*
X89541281Y-52687911D01*
X89541278Y-52687909D01*
X89374849Y-52613811D01*
X89374846Y-52613810D01*
X89368813Y-52611124D01*
X89270172Y-52590157D01*
X89184151Y-52571872D01*
X89184146Y-52571872D01*
X89177694Y-52570500D01*
X88982306Y-52570500D01*
X88975854Y-52571872D01*
X88975849Y-52571872D01*
X88889828Y-52590157D01*
X88791187Y-52611124D01*
X88785154Y-52613810D01*
X88785151Y-52613811D01*
X88618722Y-52687909D01*
X88618719Y-52687911D01*
X88612690Y-52690595D01*
X88607349Y-52694475D01*
X88607348Y-52694476D01*
X88512399Y-52763461D01*
X88454617Y-52805442D01*
X88450196Y-52810352D01*
X88450195Y-52810353D01*
X88363541Y-52906593D01*
X88323877Y-52950644D01*
X88226182Y-53119856D01*
X88165804Y-53305682D01*
X88145380Y-53500000D01*
X50254500Y-53500000D01*
X50254500Y-52296868D01*
X79041723Y-52296868D01*
X79070720Y-52488599D01*
X79072925Y-52494592D01*
X79135474Y-52664597D01*
X79135476Y-52664602D01*
X79137677Y-52670583D01*
X79239860Y-52835387D01*
X79286225Y-52884417D01*
X79315891Y-52915787D01*
X79373094Y-52976278D01*
X79531937Y-53087501D01*
X79627238Y-53128741D01*
X79704039Y-53161976D01*
X79704041Y-53161977D01*
X79709900Y-53164512D01*
X79716150Y-53165818D01*
X79716151Y-53165818D01*
X79894968Y-53203175D01*
X79894972Y-53203175D01*
X79899713Y-53204166D01*
X79906086Y-53204500D01*
X80048456Y-53204500D01*
X80117805Y-53197456D01*
X80186570Y-53190471D01*
X80186571Y-53190471D01*
X80192919Y-53189826D01*
X80377957Y-53131839D01*
X80388237Y-53126141D01*
X80541975Y-53040922D01*
X80547555Y-53037829D01*
X80694786Y-52911636D01*
X80813636Y-52758416D01*
X80834813Y-52715380D01*
X80896430Y-52590157D01*
X80899249Y-52584428D01*
X80948128Y-52396778D01*
X80958277Y-52203132D01*
X80929280Y-52011401D01*
X80891914Y-51909843D01*
X80864526Y-51835403D01*
X80864524Y-51835398D01*
X80862323Y-51829417D01*
X80760140Y-51664613D01*
X80688035Y-51588364D01*
X80631295Y-51528363D01*
X80631294Y-51528362D01*
X80626906Y-51523722D01*
X80468063Y-51412499D01*
X80351151Y-51361907D01*
X80295961Y-51338024D01*
X80295959Y-51338023D01*
X80290100Y-51335488D01*
X80283849Y-51334182D01*
X80105032Y-51296825D01*
X80105028Y-51296825D01*
X80100287Y-51295834D01*
X80093914Y-51295500D01*
X79951544Y-51295500D01*
X79938500Y-51296825D01*
X79813430Y-51309529D01*
X79813429Y-51309529D01*
X79807081Y-51310174D01*
X79622043Y-51368161D01*
X79452445Y-51462171D01*
X79305214Y-51588364D01*
X79186364Y-51741584D01*
X79183547Y-51747309D01*
X79183545Y-51747312D01*
X79140199Y-51835403D01*
X79100751Y-51915572D01*
X79051872Y-52103222D01*
X79041723Y-52296868D01*
X50254500Y-52296868D01*
X50254500Y-50380500D01*
X50274502Y-50312379D01*
X50328158Y-50265886D01*
X50380500Y-50254500D01*
X109619500Y-50254500D01*
X109687621Y-50274502D01*
G37*
G04 #@! TD.AperFunction*
M02*
