M48
; DRILL file {KiCad 6.0.11+dfsg-1} date Sat 04 May 2024 10:48:03 PM EDT
; FORMAT={-:-/ absolute / metric / decimal}
; #@! TF.CreationDate,2024-05-04T22:48:03-04:00
; #@! TF.GenerationSoftware,Kicad,Pcbnew,6.0.11+dfsg-1
; #@! TF.FileFunction,Plated,1,4,PTH
FMAT,2
METRIC
; #@! TA.AperFunction,Plated,PTH,ViaDrill
T1C0.381
; #@! TA.AperFunction,Plated,PTH,ComponentDrill
T2C0.750
; #@! TA.AperFunction,Plated,PTH,ComponentDrill
T3C0.800
; #@! TA.AperFunction,Plated,PTH,ComponentDrill
T4C1.000
; #@! TA.AperFunction,Plated,PTH,ComponentDrill
T5C1.200
%
G90
G05
T1
X53.3Y-73.1
X53.408Y-67.863
X53.9Y-87.3
X54.8Y-122.6
X54.966Y-97.739
X55.2Y-81.6
X56.125Y-85.075
X59.8Y-71.1
X60.1Y-84.4
X60.181Y-110.309
X60.287Y-74.383
X60.445Y-90.205
X60.84Y-95.26
X61.3Y-67.862
X61.3Y-73.1
X62.365Y-96.545
X62.792Y-115.009
X62.9Y-82.1
X63.0Y-92.8
X64.41Y-93.98
X64.8Y-122.6
X68.162Y-67.862
X68.3Y-82.1
X68.43Y-124.13
X69.7Y-118.1
X70.199Y-115.099
X70.362Y-99.837
X71.6Y-91.2
X71.662Y-126.917
X73.368Y-101.332
X73.9Y-64.462
X73.9Y-66.337
X74.1Y-59.3
X74.9Y-97.8
X75.0Y-127.0
X75.062Y-104.938
X75.1Y-93.6
X75.3Y-74.0
X75.7Y-96.6
X77.5Y-80.3
X77.55Y-89.31
X77.662Y-76.962
X77.68Y-84.75
X78.181Y-111.687
X78.181Y-112.987
X78.181Y-114.237
X78.181Y-120.637
X79.3Y-69.662
X79.3Y-71.537
X79.431Y-114.237
X79.431Y-115.487
X79.431Y-116.737
X79.431Y-120.637
X79.481Y-112.937
X80.731Y-114.237
X80.731Y-115.487
X80.731Y-116.787
X81.981Y-114.187
X81.981Y-115.487
X81.981Y-116.737
X82.5Y-81.9
X82.5Y-87.6
X82.562Y-77.337
X82.7Y-63.206
X84.2Y-90.5
X84.2Y-94.5
X84.3Y-66.9
X85.85Y-78.75
X86.0Y-94.6
X86.2Y-71.9
X87.562Y-69.7
X88.0Y-124.0
X88.462Y-83.9
X88.5Y-106.5
X89.438Y-69.7
X90.337Y-83.9
X91.0Y-73.5
X91.306Y-63.206
X91.5Y-99.3
X92.8Y-66.9
X94.9Y-105.003
X95.0Y-78.0
X95.306Y-97.6
X95.962Y-69.7
X96.4Y-75.1
X97.837Y-69.7
X99.2Y-90.04
X100.062Y-86.1
X101.3Y-75.1
X101.3Y-82.1
X101.3Y-84.0
X102.96Y-110.34
X103.026Y-102.617
X103.845Y-80.045
X104.0Y-57.2
X104.817Y-95.817
X105.75Y-93.0
X106.048Y-108.34
T2
X55.1Y-56.3
X55.1Y-58.84
X55.1Y-61.38
X55.1Y-63.92
X60.3Y-56.3
X60.3Y-58.84
X60.3Y-61.38
X60.3Y-63.92
X65.5Y-56.3
X65.5Y-58.84
X65.5Y-61.38
X65.5Y-63.92
X70.6Y-56.3
X70.6Y-58.84
X70.6Y-61.38
X70.6Y-63.92
X89.08Y-53.5
X91.62Y-53.5
X94.16Y-53.5
X96.7Y-53.5
T3
X57.47Y-118.19
X62.35Y-118.19
T4
X54.7Y-127.7
X57.24Y-127.7
X59.78Y-127.7
X62.32Y-127.7
X64.86Y-127.7
X67.4Y-127.7
T5
G00X95.5Y-124.95
M15
G01X95.5Y-126.45
M16
G05
G00X101.0Y-118.7
M15
G01X99.0Y-118.7
M16
G05
G00X100.65Y-124.7
M15
G01X99.35Y-124.7
M16
G05
G00X104.5Y-124.95
M15
G01X104.5Y-126.45
M16
G05
T0
M30
