G04 #@! TF.GenerationSoftware,KiCad,Pcbnew,5.1.4+dfsg1-1*
G04 #@! TF.CreationDate,2019-09-30T15:39:43-04:00*
G04 #@! TF.ProjectId,mystatV7,6d797374-6174-4563-972e-6b696361645f,rev?*
G04 #@! TF.SameCoordinates,Original*
G04 #@! TF.FileFunction,Soldermask,Bot*
G04 #@! TF.FilePolarity,Negative*
%FSLAX46Y46*%
G04 Gerber Fmt 4.6, Leading zero omitted, Abs format (unit mm)*
G04 Created by KiCad (PCBNEW 5.1.4+dfsg1-1) date 2019-09-30 15:39:43*
%MOMM*%
%LPD*%
G04 APERTURE LIST*
%ADD10C,0.100000*%
G04 APERTURE END LIST*
D10*
G36*
X62496584Y-126812233D02*
G01*
X62496587Y-126812234D01*
X62496588Y-126812234D01*
X62666389Y-126863743D01*
X62713861Y-126889117D01*
X62822881Y-126947389D01*
X62960044Y-127059956D01*
X63072611Y-127197119D01*
X63125995Y-127296995D01*
X63156257Y-127353611D01*
X63186052Y-127451831D01*
X63207767Y-127523416D01*
X63225159Y-127700000D01*
X63207767Y-127876584D01*
X63207766Y-127876587D01*
X63207766Y-127876588D01*
X63156257Y-128046389D01*
X63156256Y-128046390D01*
X63072611Y-128202881D01*
X62960044Y-128340044D01*
X62822881Y-128452611D01*
X62713861Y-128510883D01*
X62666389Y-128536257D01*
X62496588Y-128587766D01*
X62496587Y-128587766D01*
X62496584Y-128587767D01*
X62364255Y-128600800D01*
X62275745Y-128600800D01*
X62143416Y-128587767D01*
X62143413Y-128587766D01*
X62143412Y-128587766D01*
X61973611Y-128536257D01*
X61926139Y-128510883D01*
X61817119Y-128452611D01*
X61679956Y-128340044D01*
X61567389Y-128202881D01*
X61483744Y-128046390D01*
X61483743Y-128046389D01*
X61432234Y-127876588D01*
X61432234Y-127876587D01*
X61432233Y-127876584D01*
X61414841Y-127700000D01*
X61432233Y-127523416D01*
X61453948Y-127451831D01*
X61483743Y-127353611D01*
X61514005Y-127296995D01*
X61567389Y-127197119D01*
X61679956Y-127059956D01*
X61817119Y-126947389D01*
X61926139Y-126889117D01*
X61973611Y-126863743D01*
X62143412Y-126812234D01*
X62143413Y-126812234D01*
X62143416Y-126812233D01*
X62275745Y-126799200D01*
X62364255Y-126799200D01*
X62496584Y-126812233D01*
X62496584Y-126812233D01*
G37*
G36*
X59956584Y-126812233D02*
G01*
X59956587Y-126812234D01*
X59956588Y-126812234D01*
X60126389Y-126863743D01*
X60173861Y-126889117D01*
X60282881Y-126947389D01*
X60420044Y-127059956D01*
X60532611Y-127197119D01*
X60585995Y-127296995D01*
X60616257Y-127353611D01*
X60646052Y-127451831D01*
X60667767Y-127523416D01*
X60685159Y-127700000D01*
X60667767Y-127876584D01*
X60667766Y-127876587D01*
X60667766Y-127876588D01*
X60616257Y-128046389D01*
X60616256Y-128046390D01*
X60532611Y-128202881D01*
X60420044Y-128340044D01*
X60282881Y-128452611D01*
X60173861Y-128510883D01*
X60126389Y-128536257D01*
X59956588Y-128587766D01*
X59956587Y-128587766D01*
X59956584Y-128587767D01*
X59824255Y-128600800D01*
X59735745Y-128600800D01*
X59603416Y-128587767D01*
X59603413Y-128587766D01*
X59603412Y-128587766D01*
X59433611Y-128536257D01*
X59386139Y-128510883D01*
X59277119Y-128452611D01*
X59139956Y-128340044D01*
X59027389Y-128202881D01*
X58943744Y-128046390D01*
X58943743Y-128046389D01*
X58892234Y-127876588D01*
X58892234Y-127876587D01*
X58892233Y-127876584D01*
X58874841Y-127700000D01*
X58892233Y-127523416D01*
X58913948Y-127451831D01*
X58943743Y-127353611D01*
X58974005Y-127296995D01*
X59027389Y-127197119D01*
X59139956Y-127059956D01*
X59277119Y-126947389D01*
X59386139Y-126889117D01*
X59433611Y-126863743D01*
X59603412Y-126812234D01*
X59603413Y-126812234D01*
X59603416Y-126812233D01*
X59735745Y-126799200D01*
X59824255Y-126799200D01*
X59956584Y-126812233D01*
X59956584Y-126812233D01*
G37*
G36*
X57416584Y-126812233D02*
G01*
X57416587Y-126812234D01*
X57416588Y-126812234D01*
X57586389Y-126863743D01*
X57633861Y-126889117D01*
X57742881Y-126947389D01*
X57880044Y-127059956D01*
X57992611Y-127197119D01*
X58045995Y-127296995D01*
X58076257Y-127353611D01*
X58106052Y-127451831D01*
X58127767Y-127523416D01*
X58145159Y-127700000D01*
X58127767Y-127876584D01*
X58127766Y-127876587D01*
X58127766Y-127876588D01*
X58076257Y-128046389D01*
X58076256Y-128046390D01*
X57992611Y-128202881D01*
X57880044Y-128340044D01*
X57742881Y-128452611D01*
X57633861Y-128510883D01*
X57586389Y-128536257D01*
X57416588Y-128587766D01*
X57416587Y-128587766D01*
X57416584Y-128587767D01*
X57284255Y-128600800D01*
X57195745Y-128600800D01*
X57063416Y-128587767D01*
X57063413Y-128587766D01*
X57063412Y-128587766D01*
X56893611Y-128536257D01*
X56846139Y-128510883D01*
X56737119Y-128452611D01*
X56599956Y-128340044D01*
X56487389Y-128202881D01*
X56403744Y-128046390D01*
X56403743Y-128046389D01*
X56352234Y-127876588D01*
X56352234Y-127876587D01*
X56352233Y-127876584D01*
X56334841Y-127700000D01*
X56352233Y-127523416D01*
X56373948Y-127451831D01*
X56403743Y-127353611D01*
X56434005Y-127296995D01*
X56487389Y-127197119D01*
X56599956Y-127059956D01*
X56737119Y-126947389D01*
X56846139Y-126889117D01*
X56893611Y-126863743D01*
X57063412Y-126812234D01*
X57063413Y-126812234D01*
X57063416Y-126812233D01*
X57195745Y-126799200D01*
X57284255Y-126799200D01*
X57416584Y-126812233D01*
X57416584Y-126812233D01*
G37*
G36*
X54876584Y-126812233D02*
G01*
X54876587Y-126812234D01*
X54876588Y-126812234D01*
X55046389Y-126863743D01*
X55093861Y-126889117D01*
X55202881Y-126947389D01*
X55340044Y-127059956D01*
X55452611Y-127197119D01*
X55505995Y-127296995D01*
X55536257Y-127353611D01*
X55566052Y-127451831D01*
X55587767Y-127523416D01*
X55605159Y-127700000D01*
X55587767Y-127876584D01*
X55587766Y-127876587D01*
X55587766Y-127876588D01*
X55536257Y-128046389D01*
X55536256Y-128046390D01*
X55452611Y-128202881D01*
X55340044Y-128340044D01*
X55202881Y-128452611D01*
X55093861Y-128510883D01*
X55046389Y-128536257D01*
X54876588Y-128587766D01*
X54876587Y-128587766D01*
X54876584Y-128587767D01*
X54744255Y-128600800D01*
X54655745Y-128600800D01*
X54523416Y-128587767D01*
X54523413Y-128587766D01*
X54523412Y-128587766D01*
X54353611Y-128536257D01*
X54306139Y-128510883D01*
X54197119Y-128452611D01*
X54059956Y-128340044D01*
X53947389Y-128202881D01*
X53863744Y-128046390D01*
X53863743Y-128046389D01*
X53812234Y-127876588D01*
X53812234Y-127876587D01*
X53812233Y-127876584D01*
X53794841Y-127700000D01*
X53812233Y-127523416D01*
X53833948Y-127451831D01*
X53863743Y-127353611D01*
X53894005Y-127296995D01*
X53947389Y-127197119D01*
X54059956Y-127059956D01*
X54197119Y-126947389D01*
X54306139Y-126889117D01*
X54353611Y-126863743D01*
X54523412Y-126812234D01*
X54523413Y-126812234D01*
X54523416Y-126812233D01*
X54655745Y-126799200D01*
X54744255Y-126799200D01*
X54876584Y-126812233D01*
X54876584Y-126812233D01*
G37*
G36*
X68300800Y-128600800D02*
G01*
X66499200Y-128600800D01*
X66499200Y-126799200D01*
X68300800Y-126799200D01*
X68300800Y-128600800D01*
X68300800Y-128600800D01*
G37*
G36*
X65036584Y-126812233D02*
G01*
X65036587Y-126812234D01*
X65036588Y-126812234D01*
X65206389Y-126863743D01*
X65253861Y-126889117D01*
X65362881Y-126947389D01*
X65500044Y-127059956D01*
X65612611Y-127197119D01*
X65665995Y-127296995D01*
X65696257Y-127353611D01*
X65726052Y-127451831D01*
X65747767Y-127523416D01*
X65765159Y-127700000D01*
X65747767Y-127876584D01*
X65747766Y-127876587D01*
X65747766Y-127876588D01*
X65696257Y-128046389D01*
X65696256Y-128046390D01*
X65612611Y-128202881D01*
X65500044Y-128340044D01*
X65362881Y-128452611D01*
X65253861Y-128510883D01*
X65206389Y-128536257D01*
X65036588Y-128587766D01*
X65036587Y-128587766D01*
X65036584Y-128587767D01*
X64904255Y-128600800D01*
X64815745Y-128600800D01*
X64683416Y-128587767D01*
X64683413Y-128587766D01*
X64683412Y-128587766D01*
X64513611Y-128536257D01*
X64466139Y-128510883D01*
X64357119Y-128452611D01*
X64219956Y-128340044D01*
X64107389Y-128202881D01*
X64023744Y-128046390D01*
X64023743Y-128046389D01*
X63972234Y-127876588D01*
X63972234Y-127876587D01*
X63972233Y-127876584D01*
X63954841Y-127700000D01*
X63972233Y-127523416D01*
X63993948Y-127451831D01*
X64023743Y-127353611D01*
X64054005Y-127296995D01*
X64107389Y-127197119D01*
X64219956Y-127059956D01*
X64357119Y-126947389D01*
X64466139Y-126889117D01*
X64513611Y-126863743D01*
X64683412Y-126812234D01*
X64683413Y-126812234D01*
X64683416Y-126812233D01*
X64815745Y-126799200D01*
X64904255Y-126799200D01*
X65036584Y-126812233D01*
X65036584Y-126812233D01*
G37*
G36*
X100248169Y-126881895D02*
G01*
X100403005Y-126946031D01*
X100542354Y-127039140D01*
X100660860Y-127157646D01*
X100753969Y-127296995D01*
X100818105Y-127451831D01*
X100850800Y-127616203D01*
X100850800Y-127783797D01*
X100818105Y-127948169D01*
X100753969Y-128103005D01*
X100660860Y-128242354D01*
X100542354Y-128360860D01*
X100403005Y-128453969D01*
X100248169Y-128518105D01*
X100083797Y-128550800D01*
X99916203Y-128550800D01*
X99751831Y-128518105D01*
X99596995Y-128453969D01*
X99457646Y-128360860D01*
X99339140Y-128242354D01*
X99246031Y-128103005D01*
X99181895Y-127948169D01*
X99149200Y-127783797D01*
X99149200Y-127616203D01*
X99181895Y-127451831D01*
X99246031Y-127296995D01*
X99339140Y-127157646D01*
X99457646Y-127039140D01*
X99596995Y-126946031D01*
X99751831Y-126881895D01*
X99916203Y-126849200D01*
X100083797Y-126849200D01*
X100248169Y-126881895D01*
X100248169Y-126881895D01*
G37*
G36*
X95705989Y-123914403D02*
G01*
X95811037Y-123946269D01*
X95904069Y-123974490D01*
X96086617Y-124072064D01*
X96246623Y-124203377D01*
X96377935Y-124363382D01*
X96475510Y-124545931D01*
X96503731Y-124638963D01*
X96535597Y-124744011D01*
X96550800Y-124898374D01*
X96550800Y-126501626D01*
X96535597Y-126655989D01*
X96503731Y-126761037D01*
X96475510Y-126854069D01*
X96460636Y-126881896D01*
X96377936Y-127036617D01*
X96246623Y-127196623D01*
X96086617Y-127327936D01*
X96038582Y-127353611D01*
X95904068Y-127425510D01*
X95817298Y-127451831D01*
X95705988Y-127485597D01*
X95500000Y-127505885D01*
X95294011Y-127485597D01*
X95182701Y-127451831D01*
X95095931Y-127425510D01*
X94961416Y-127353610D01*
X94913383Y-127327936D01*
X94753377Y-127196623D01*
X94622064Y-127036617D01*
X94573278Y-126945343D01*
X94524490Y-126854068D01*
X94464405Y-126655993D01*
X94464403Y-126655988D01*
X94449200Y-126501625D01*
X94449200Y-124898374D01*
X94464403Y-124744011D01*
X94507635Y-124601499D01*
X94524491Y-124545931D01*
X94622066Y-124363382D01*
X94753378Y-124203377D01*
X94913384Y-124072064D01*
X95004657Y-124023278D01*
X95095932Y-123974490D01*
X95188964Y-123946269D01*
X95294012Y-123914403D01*
X95500000Y-123894115D01*
X95705989Y-123914403D01*
X95705989Y-123914403D01*
G37*
G36*
X104705989Y-123914403D02*
G01*
X104811037Y-123946269D01*
X104904069Y-123974490D01*
X105086617Y-124072064D01*
X105246623Y-124203377D01*
X105377935Y-124363382D01*
X105475510Y-124545931D01*
X105503731Y-124638963D01*
X105535597Y-124744011D01*
X105550800Y-124898374D01*
X105550800Y-126501626D01*
X105535597Y-126655989D01*
X105503731Y-126761037D01*
X105475510Y-126854069D01*
X105460636Y-126881896D01*
X105377936Y-127036617D01*
X105246623Y-127196623D01*
X105086617Y-127327936D01*
X105038582Y-127353611D01*
X104904068Y-127425510D01*
X104817298Y-127451831D01*
X104705988Y-127485597D01*
X104500000Y-127505885D01*
X104294011Y-127485597D01*
X104182701Y-127451831D01*
X104095931Y-127425510D01*
X103961416Y-127353610D01*
X103913383Y-127327936D01*
X103753377Y-127196623D01*
X103622064Y-127036617D01*
X103573278Y-126945343D01*
X103524490Y-126854068D01*
X103464405Y-126655993D01*
X103464403Y-126655988D01*
X103449200Y-126501625D01*
X103449200Y-124898374D01*
X103464403Y-124744011D01*
X103507635Y-124601499D01*
X103524491Y-124545931D01*
X103622066Y-124363382D01*
X103753378Y-124203377D01*
X103913384Y-124072064D01*
X104004657Y-124023278D01*
X104095932Y-123974490D01*
X104188964Y-123946269D01*
X104294012Y-123914403D01*
X104500000Y-123894115D01*
X104705989Y-123914403D01*
X104705989Y-123914403D01*
G37*
G36*
X100855989Y-123664403D02*
G01*
X100961037Y-123696269D01*
X101054069Y-123724490D01*
X101145344Y-123773278D01*
X101236617Y-123822064D01*
X101396623Y-123953377D01*
X101494027Y-124072064D01*
X101527935Y-124113382D01*
X101625510Y-124295931D01*
X101645971Y-124363382D01*
X101685597Y-124494011D01*
X101705885Y-124700000D01*
X101685597Y-124905989D01*
X101653731Y-125011037D01*
X101625510Y-125104069D01*
X101625509Y-125104070D01*
X101527936Y-125286617D01*
X101396623Y-125446623D01*
X101236617Y-125577936D01*
X101145344Y-125626722D01*
X101054069Y-125675510D01*
X100961037Y-125703731D01*
X100855989Y-125735597D01*
X100701626Y-125750800D01*
X99298374Y-125750800D01*
X99144011Y-125735597D01*
X99038963Y-125703731D01*
X98945931Y-125675510D01*
X98854656Y-125626722D01*
X98763383Y-125577936D01*
X98603377Y-125446623D01*
X98472064Y-125286617D01*
X98374491Y-125104070D01*
X98374490Y-125104069D01*
X98346269Y-125011037D01*
X98314403Y-124905989D01*
X98294115Y-124700000D01*
X98314403Y-124494011D01*
X98354029Y-124363382D01*
X98374490Y-124295931D01*
X98472065Y-124113382D01*
X98505974Y-124072064D01*
X98603377Y-123953377D01*
X98763383Y-123822064D01*
X98854656Y-123773278D01*
X98945931Y-123724490D01*
X99038963Y-123696269D01*
X99144011Y-123664403D01*
X99298374Y-123649200D01*
X100701626Y-123649200D01*
X100855989Y-123664403D01*
X100855989Y-123664403D01*
G37*
G36*
X101205989Y-117664403D02*
G01*
X101311037Y-117696269D01*
X101404069Y-117724490D01*
X101586617Y-117822064D01*
X101586619Y-117822065D01*
X101586618Y-117822065D01*
X101746623Y-117953377D01*
X101877935Y-118113382D01*
X101975510Y-118295931D01*
X102003731Y-118388963D01*
X102035597Y-118494011D01*
X102055885Y-118700000D01*
X102035597Y-118905989D01*
X102003731Y-119011037D01*
X101975510Y-119104069D01*
X101975509Y-119104070D01*
X101877936Y-119286617D01*
X101746623Y-119446623D01*
X101586617Y-119577936D01*
X101495344Y-119626722D01*
X101404069Y-119675510D01*
X101311037Y-119703731D01*
X101205989Y-119735597D01*
X101051626Y-119750800D01*
X98948374Y-119750800D01*
X98794011Y-119735597D01*
X98688963Y-119703731D01*
X98595931Y-119675510D01*
X98504656Y-119626722D01*
X98413383Y-119577936D01*
X98253377Y-119446623D01*
X98122064Y-119286617D01*
X98024491Y-119104070D01*
X98024490Y-119104069D01*
X97996269Y-119011037D01*
X97964403Y-118905989D01*
X97944115Y-118700000D01*
X97964403Y-118494011D01*
X97996269Y-118388963D01*
X98024490Y-118295931D01*
X98122065Y-118113382D01*
X98253377Y-117953377D01*
X98413382Y-117822065D01*
X98413381Y-117822065D01*
X98413383Y-117822064D01*
X98595931Y-117724490D01*
X98688963Y-117696269D01*
X98794011Y-117664403D01*
X98948374Y-117649200D01*
X101051626Y-117649200D01*
X101205989Y-117664403D01*
X101205989Y-117664403D01*
G37*
G36*
X57703585Y-117419974D02*
G01*
X57849322Y-117480339D01*
X57980482Y-117567978D01*
X58092022Y-117679518D01*
X58179661Y-117810678D01*
X58240026Y-117956415D01*
X58270800Y-118111128D01*
X58270800Y-118268872D01*
X58240026Y-118423585D01*
X58179661Y-118569322D01*
X58092022Y-118700482D01*
X57980482Y-118812022D01*
X57849322Y-118899661D01*
X57703585Y-118960026D01*
X57548872Y-118990800D01*
X57391128Y-118990800D01*
X57236415Y-118960026D01*
X57090678Y-118899661D01*
X56959518Y-118812022D01*
X56847978Y-118700482D01*
X56760339Y-118569322D01*
X56699974Y-118423585D01*
X56669200Y-118268872D01*
X56669200Y-118111128D01*
X56699974Y-117956415D01*
X56760339Y-117810678D01*
X56847978Y-117679518D01*
X56959518Y-117567978D01*
X57090678Y-117480339D01*
X57236415Y-117419974D01*
X57391128Y-117389200D01*
X57548872Y-117389200D01*
X57703585Y-117419974D01*
X57703585Y-117419974D01*
G37*
G36*
X62583585Y-117419974D02*
G01*
X62729322Y-117480339D01*
X62860482Y-117567978D01*
X62972022Y-117679518D01*
X63059661Y-117810678D01*
X63120026Y-117956415D01*
X63150800Y-118111128D01*
X63150800Y-118268872D01*
X63120026Y-118423585D01*
X63059661Y-118569322D01*
X62972022Y-118700482D01*
X62860482Y-118812022D01*
X62729322Y-118899661D01*
X62583585Y-118960026D01*
X62428872Y-118990800D01*
X62271128Y-118990800D01*
X62116415Y-118960026D01*
X61970678Y-118899661D01*
X61839518Y-118812022D01*
X61727978Y-118700482D01*
X61640339Y-118569322D01*
X61579974Y-118423585D01*
X61549200Y-118268872D01*
X61549200Y-118111128D01*
X61579974Y-117956415D01*
X61640339Y-117810678D01*
X61727978Y-117679518D01*
X61839518Y-117567978D01*
X61970678Y-117480339D01*
X62116415Y-117419974D01*
X62271128Y-117389200D01*
X62428872Y-117389200D01*
X62583585Y-117419974D01*
X62583585Y-117419974D01*
G37*
G36*
X70742278Y-63204701D02*
G01*
X70814837Y-63226712D01*
X70879095Y-63246204D01*
X71005183Y-63313600D01*
X71115701Y-63404299D01*
X71206400Y-63514817D01*
X71273796Y-63640905D01*
X71293288Y-63705163D01*
X71315299Y-63777722D01*
X71329312Y-63920000D01*
X71315299Y-64062278D01*
X71293288Y-64134837D01*
X71273796Y-64199095D01*
X71206400Y-64325183D01*
X71115701Y-64435701D01*
X71005183Y-64526400D01*
X70879095Y-64593796D01*
X70814837Y-64613288D01*
X70742278Y-64635299D01*
X70635655Y-64645800D01*
X70564345Y-64645800D01*
X70457722Y-64635299D01*
X70385163Y-64613288D01*
X70320905Y-64593796D01*
X70194817Y-64526400D01*
X70084299Y-64435701D01*
X69993600Y-64325183D01*
X69926204Y-64199095D01*
X69906712Y-64134837D01*
X69884701Y-64062278D01*
X69870688Y-63920000D01*
X69884701Y-63777722D01*
X69906712Y-63705163D01*
X69926204Y-63640905D01*
X69993600Y-63514817D01*
X70084299Y-63404299D01*
X70194817Y-63313600D01*
X70320905Y-63246204D01*
X70385163Y-63226712D01*
X70457722Y-63204701D01*
X70564345Y-63194200D01*
X70635655Y-63194200D01*
X70742278Y-63204701D01*
X70742278Y-63204701D01*
G37*
G36*
X65642278Y-63204701D02*
G01*
X65714837Y-63226712D01*
X65779095Y-63246204D01*
X65905183Y-63313600D01*
X66015701Y-63404299D01*
X66106400Y-63514817D01*
X66173796Y-63640905D01*
X66193288Y-63705163D01*
X66215299Y-63777722D01*
X66229312Y-63920000D01*
X66215299Y-64062278D01*
X66193288Y-64134837D01*
X66173796Y-64199095D01*
X66106400Y-64325183D01*
X66015701Y-64435701D01*
X65905183Y-64526400D01*
X65779095Y-64593796D01*
X65714837Y-64613288D01*
X65642278Y-64635299D01*
X65535655Y-64645800D01*
X65464345Y-64645800D01*
X65357722Y-64635299D01*
X65285163Y-64613288D01*
X65220905Y-64593796D01*
X65094817Y-64526400D01*
X64984299Y-64435701D01*
X64893600Y-64325183D01*
X64826204Y-64199095D01*
X64806712Y-64134837D01*
X64784701Y-64062278D01*
X64770688Y-63920000D01*
X64784701Y-63777722D01*
X64806712Y-63705163D01*
X64826204Y-63640905D01*
X64893600Y-63514817D01*
X64984299Y-63404299D01*
X65094817Y-63313600D01*
X65220905Y-63246204D01*
X65285163Y-63226712D01*
X65357722Y-63204701D01*
X65464345Y-63194200D01*
X65535655Y-63194200D01*
X65642278Y-63204701D01*
X65642278Y-63204701D01*
G37*
G36*
X60442278Y-63204701D02*
G01*
X60514837Y-63226712D01*
X60579095Y-63246204D01*
X60705183Y-63313600D01*
X60815701Y-63404299D01*
X60906400Y-63514817D01*
X60973796Y-63640905D01*
X60993288Y-63705163D01*
X61015299Y-63777722D01*
X61029312Y-63920000D01*
X61015299Y-64062278D01*
X60993288Y-64134837D01*
X60973796Y-64199095D01*
X60906400Y-64325183D01*
X60815701Y-64435701D01*
X60705183Y-64526400D01*
X60579095Y-64593796D01*
X60514837Y-64613288D01*
X60442278Y-64635299D01*
X60335655Y-64645800D01*
X60264345Y-64645800D01*
X60157722Y-64635299D01*
X60085163Y-64613288D01*
X60020905Y-64593796D01*
X59894817Y-64526400D01*
X59784299Y-64435701D01*
X59693600Y-64325183D01*
X59626204Y-64199095D01*
X59606712Y-64134837D01*
X59584701Y-64062278D01*
X59570688Y-63920000D01*
X59584701Y-63777722D01*
X59606712Y-63705163D01*
X59626204Y-63640905D01*
X59693600Y-63514817D01*
X59784299Y-63404299D01*
X59894817Y-63313600D01*
X60020905Y-63246204D01*
X60085163Y-63226712D01*
X60157722Y-63204701D01*
X60264345Y-63194200D01*
X60335655Y-63194200D01*
X60442278Y-63204701D01*
X60442278Y-63204701D01*
G37*
G36*
X55242278Y-63204701D02*
G01*
X55314837Y-63226712D01*
X55379095Y-63246204D01*
X55505183Y-63313600D01*
X55615701Y-63404299D01*
X55706400Y-63514817D01*
X55773796Y-63640905D01*
X55793288Y-63705163D01*
X55815299Y-63777722D01*
X55829312Y-63920000D01*
X55815299Y-64062278D01*
X55793288Y-64134837D01*
X55773796Y-64199095D01*
X55706400Y-64325183D01*
X55615701Y-64435701D01*
X55505183Y-64526400D01*
X55379095Y-64593796D01*
X55314837Y-64613288D01*
X55242278Y-64635299D01*
X55135655Y-64645800D01*
X55064345Y-64645800D01*
X54957722Y-64635299D01*
X54885163Y-64613288D01*
X54820905Y-64593796D01*
X54694817Y-64526400D01*
X54584299Y-64435701D01*
X54493600Y-64325183D01*
X54426204Y-64199095D01*
X54406712Y-64134837D01*
X54384701Y-64062278D01*
X54370688Y-63920000D01*
X54384701Y-63777722D01*
X54406712Y-63705163D01*
X54426204Y-63640905D01*
X54493600Y-63514817D01*
X54584299Y-63404299D01*
X54694817Y-63313600D01*
X54820905Y-63246204D01*
X54885163Y-63226712D01*
X54957722Y-63204701D01*
X55064345Y-63194200D01*
X55135655Y-63194200D01*
X55242278Y-63204701D01*
X55242278Y-63204701D01*
G37*
G36*
X55242278Y-60664701D02*
G01*
X55314837Y-60686712D01*
X55379095Y-60706204D01*
X55505183Y-60773600D01*
X55615701Y-60864299D01*
X55706400Y-60974817D01*
X55773796Y-61100905D01*
X55793288Y-61165163D01*
X55815299Y-61237722D01*
X55829312Y-61380000D01*
X55815299Y-61522278D01*
X55793288Y-61594837D01*
X55773796Y-61659095D01*
X55706400Y-61785183D01*
X55615701Y-61895701D01*
X55505183Y-61986400D01*
X55379095Y-62053796D01*
X55314837Y-62073288D01*
X55242278Y-62095299D01*
X55135655Y-62105800D01*
X55064345Y-62105800D01*
X54957722Y-62095299D01*
X54885163Y-62073288D01*
X54820905Y-62053796D01*
X54694817Y-61986400D01*
X54584299Y-61895701D01*
X54493600Y-61785183D01*
X54426204Y-61659095D01*
X54406712Y-61594837D01*
X54384701Y-61522278D01*
X54370688Y-61380000D01*
X54384701Y-61237722D01*
X54406712Y-61165163D01*
X54426204Y-61100905D01*
X54493600Y-60974817D01*
X54584299Y-60864299D01*
X54694817Y-60773600D01*
X54820905Y-60706204D01*
X54885163Y-60686712D01*
X54957722Y-60664701D01*
X55064345Y-60654200D01*
X55135655Y-60654200D01*
X55242278Y-60664701D01*
X55242278Y-60664701D01*
G37*
G36*
X65642278Y-60664701D02*
G01*
X65714837Y-60686712D01*
X65779095Y-60706204D01*
X65905183Y-60773600D01*
X66015701Y-60864299D01*
X66106400Y-60974817D01*
X66173796Y-61100905D01*
X66193288Y-61165163D01*
X66215299Y-61237722D01*
X66229312Y-61380000D01*
X66215299Y-61522278D01*
X66193288Y-61594837D01*
X66173796Y-61659095D01*
X66106400Y-61785183D01*
X66015701Y-61895701D01*
X65905183Y-61986400D01*
X65779095Y-62053796D01*
X65714837Y-62073288D01*
X65642278Y-62095299D01*
X65535655Y-62105800D01*
X65464345Y-62105800D01*
X65357722Y-62095299D01*
X65285163Y-62073288D01*
X65220905Y-62053796D01*
X65094817Y-61986400D01*
X64984299Y-61895701D01*
X64893600Y-61785183D01*
X64826204Y-61659095D01*
X64806712Y-61594837D01*
X64784701Y-61522278D01*
X64770688Y-61380000D01*
X64784701Y-61237722D01*
X64806712Y-61165163D01*
X64826204Y-61100905D01*
X64893600Y-60974817D01*
X64984299Y-60864299D01*
X65094817Y-60773600D01*
X65220905Y-60706204D01*
X65285163Y-60686712D01*
X65357722Y-60664701D01*
X65464345Y-60654200D01*
X65535655Y-60654200D01*
X65642278Y-60664701D01*
X65642278Y-60664701D01*
G37*
G36*
X70742278Y-60664701D02*
G01*
X70814837Y-60686712D01*
X70879095Y-60706204D01*
X71005183Y-60773600D01*
X71115701Y-60864299D01*
X71206400Y-60974817D01*
X71273796Y-61100905D01*
X71293288Y-61165163D01*
X71315299Y-61237722D01*
X71329312Y-61380000D01*
X71315299Y-61522278D01*
X71293288Y-61594837D01*
X71273796Y-61659095D01*
X71206400Y-61785183D01*
X71115701Y-61895701D01*
X71005183Y-61986400D01*
X70879095Y-62053796D01*
X70814837Y-62073288D01*
X70742278Y-62095299D01*
X70635655Y-62105800D01*
X70564345Y-62105800D01*
X70457722Y-62095299D01*
X70385163Y-62073288D01*
X70320905Y-62053796D01*
X70194817Y-61986400D01*
X70084299Y-61895701D01*
X69993600Y-61785183D01*
X69926204Y-61659095D01*
X69906712Y-61594837D01*
X69884701Y-61522278D01*
X69870688Y-61380000D01*
X69884701Y-61237722D01*
X69906712Y-61165163D01*
X69926204Y-61100905D01*
X69993600Y-60974817D01*
X70084299Y-60864299D01*
X70194817Y-60773600D01*
X70320905Y-60706204D01*
X70385163Y-60686712D01*
X70457722Y-60664701D01*
X70564345Y-60654200D01*
X70635655Y-60654200D01*
X70742278Y-60664701D01*
X70742278Y-60664701D01*
G37*
G36*
X60442278Y-60664701D02*
G01*
X60514837Y-60686712D01*
X60579095Y-60706204D01*
X60705183Y-60773600D01*
X60815701Y-60864299D01*
X60906400Y-60974817D01*
X60973796Y-61100905D01*
X60993288Y-61165163D01*
X61015299Y-61237722D01*
X61029312Y-61380000D01*
X61015299Y-61522278D01*
X60993288Y-61594837D01*
X60973796Y-61659095D01*
X60906400Y-61785183D01*
X60815701Y-61895701D01*
X60705183Y-61986400D01*
X60579095Y-62053796D01*
X60514837Y-62073288D01*
X60442278Y-62095299D01*
X60335655Y-62105800D01*
X60264345Y-62105800D01*
X60157722Y-62095299D01*
X60085163Y-62073288D01*
X60020905Y-62053796D01*
X59894817Y-61986400D01*
X59784299Y-61895701D01*
X59693600Y-61785183D01*
X59626204Y-61659095D01*
X59606712Y-61594837D01*
X59584701Y-61522278D01*
X59570688Y-61380000D01*
X59584701Y-61237722D01*
X59606712Y-61165163D01*
X59626204Y-61100905D01*
X59693600Y-60974817D01*
X59784299Y-60864299D01*
X59894817Y-60773600D01*
X60020905Y-60706204D01*
X60085163Y-60686712D01*
X60157722Y-60664701D01*
X60264345Y-60654200D01*
X60335655Y-60654200D01*
X60442278Y-60664701D01*
X60442278Y-60664701D01*
G37*
G36*
X70742278Y-58124701D02*
G01*
X70814837Y-58146712D01*
X70879095Y-58166204D01*
X71005183Y-58233600D01*
X71115701Y-58324299D01*
X71206400Y-58434817D01*
X71273796Y-58560905D01*
X71293288Y-58625163D01*
X71315299Y-58697722D01*
X71329312Y-58840000D01*
X71315299Y-58982278D01*
X71293288Y-59054837D01*
X71273796Y-59119095D01*
X71206400Y-59245183D01*
X71115701Y-59355701D01*
X71005183Y-59446400D01*
X70879095Y-59513796D01*
X70814837Y-59533288D01*
X70742278Y-59555299D01*
X70635655Y-59565800D01*
X70564345Y-59565800D01*
X70457722Y-59555299D01*
X70385163Y-59533288D01*
X70320905Y-59513796D01*
X70194817Y-59446400D01*
X70084299Y-59355701D01*
X69993600Y-59245183D01*
X69926204Y-59119095D01*
X69906712Y-59054837D01*
X69884701Y-58982278D01*
X69870688Y-58840000D01*
X69884701Y-58697722D01*
X69906712Y-58625163D01*
X69926204Y-58560905D01*
X69993600Y-58434817D01*
X70084299Y-58324299D01*
X70194817Y-58233600D01*
X70320905Y-58166204D01*
X70385163Y-58146712D01*
X70457722Y-58124701D01*
X70564345Y-58114200D01*
X70635655Y-58114200D01*
X70742278Y-58124701D01*
X70742278Y-58124701D01*
G37*
G36*
X65642278Y-58124701D02*
G01*
X65714837Y-58146712D01*
X65779095Y-58166204D01*
X65905183Y-58233600D01*
X66015701Y-58324299D01*
X66106400Y-58434817D01*
X66173796Y-58560905D01*
X66193288Y-58625163D01*
X66215299Y-58697722D01*
X66229312Y-58840000D01*
X66215299Y-58982278D01*
X66193288Y-59054837D01*
X66173796Y-59119095D01*
X66106400Y-59245183D01*
X66015701Y-59355701D01*
X65905183Y-59446400D01*
X65779095Y-59513796D01*
X65714837Y-59533288D01*
X65642278Y-59555299D01*
X65535655Y-59565800D01*
X65464345Y-59565800D01*
X65357722Y-59555299D01*
X65285163Y-59533288D01*
X65220905Y-59513796D01*
X65094817Y-59446400D01*
X64984299Y-59355701D01*
X64893600Y-59245183D01*
X64826204Y-59119095D01*
X64806712Y-59054837D01*
X64784701Y-58982278D01*
X64770688Y-58840000D01*
X64784701Y-58697722D01*
X64806712Y-58625163D01*
X64826204Y-58560905D01*
X64893600Y-58434817D01*
X64984299Y-58324299D01*
X65094817Y-58233600D01*
X65220905Y-58166204D01*
X65285163Y-58146712D01*
X65357722Y-58124701D01*
X65464345Y-58114200D01*
X65535655Y-58114200D01*
X65642278Y-58124701D01*
X65642278Y-58124701D01*
G37*
G36*
X55242278Y-58124701D02*
G01*
X55314837Y-58146712D01*
X55379095Y-58166204D01*
X55505183Y-58233600D01*
X55615701Y-58324299D01*
X55706400Y-58434817D01*
X55773796Y-58560905D01*
X55793288Y-58625163D01*
X55815299Y-58697722D01*
X55829312Y-58840000D01*
X55815299Y-58982278D01*
X55793288Y-59054837D01*
X55773796Y-59119095D01*
X55706400Y-59245183D01*
X55615701Y-59355701D01*
X55505183Y-59446400D01*
X55379095Y-59513796D01*
X55314837Y-59533288D01*
X55242278Y-59555299D01*
X55135655Y-59565800D01*
X55064345Y-59565800D01*
X54957722Y-59555299D01*
X54885163Y-59533288D01*
X54820905Y-59513796D01*
X54694817Y-59446400D01*
X54584299Y-59355701D01*
X54493600Y-59245183D01*
X54426204Y-59119095D01*
X54406712Y-59054837D01*
X54384701Y-58982278D01*
X54370688Y-58840000D01*
X54384701Y-58697722D01*
X54406712Y-58625163D01*
X54426204Y-58560905D01*
X54493600Y-58434817D01*
X54584299Y-58324299D01*
X54694817Y-58233600D01*
X54820905Y-58166204D01*
X54885163Y-58146712D01*
X54957722Y-58124701D01*
X55064345Y-58114200D01*
X55135655Y-58114200D01*
X55242278Y-58124701D01*
X55242278Y-58124701D01*
G37*
G36*
X60442278Y-58124701D02*
G01*
X60514837Y-58146712D01*
X60579095Y-58166204D01*
X60705183Y-58233600D01*
X60815701Y-58324299D01*
X60906400Y-58434817D01*
X60973796Y-58560905D01*
X60993288Y-58625163D01*
X61015299Y-58697722D01*
X61029312Y-58840000D01*
X61015299Y-58982278D01*
X60993288Y-59054837D01*
X60973796Y-59119095D01*
X60906400Y-59245183D01*
X60815701Y-59355701D01*
X60705183Y-59446400D01*
X60579095Y-59513796D01*
X60514837Y-59533288D01*
X60442278Y-59555299D01*
X60335655Y-59565800D01*
X60264345Y-59565800D01*
X60157722Y-59555299D01*
X60085163Y-59533288D01*
X60020905Y-59513796D01*
X59894817Y-59446400D01*
X59784299Y-59355701D01*
X59693600Y-59245183D01*
X59626204Y-59119095D01*
X59606712Y-59054837D01*
X59584701Y-58982278D01*
X59570688Y-58840000D01*
X59584701Y-58697722D01*
X59606712Y-58625163D01*
X59626204Y-58560905D01*
X59693600Y-58434817D01*
X59784299Y-58324299D01*
X59894817Y-58233600D01*
X60020905Y-58166204D01*
X60085163Y-58146712D01*
X60157722Y-58124701D01*
X60264345Y-58114200D01*
X60335655Y-58114200D01*
X60442278Y-58124701D01*
X60442278Y-58124701D01*
G37*
G36*
X80219001Y-56028053D02*
G01*
X80355638Y-56084649D01*
X80478609Y-56166816D01*
X80583184Y-56271391D01*
X80665351Y-56394362D01*
X80721947Y-56530999D01*
X80750800Y-56676052D01*
X80750800Y-56823948D01*
X80721947Y-56969001D01*
X80665351Y-57105638D01*
X80583184Y-57228609D01*
X80478609Y-57333184D01*
X80355638Y-57415351D01*
X80219001Y-57471947D01*
X80073948Y-57500800D01*
X79926052Y-57500800D01*
X79780999Y-57471947D01*
X79644362Y-57415351D01*
X79521391Y-57333184D01*
X79416816Y-57228609D01*
X79334649Y-57105638D01*
X79278053Y-56969001D01*
X79249200Y-56823948D01*
X79249200Y-56676052D01*
X79278053Y-56530999D01*
X79334649Y-56394362D01*
X79416816Y-56271391D01*
X79521391Y-56166816D01*
X79644362Y-56084649D01*
X79780999Y-56028053D01*
X79926052Y-55999200D01*
X80073948Y-55999200D01*
X80219001Y-56028053D01*
X80219001Y-56028053D01*
G37*
G36*
X61025800Y-57025800D02*
G01*
X59574200Y-57025800D01*
X59574200Y-55574200D01*
X61025800Y-55574200D01*
X61025800Y-57025800D01*
X61025800Y-57025800D01*
G37*
G36*
X55825800Y-57025800D02*
G01*
X54374200Y-57025800D01*
X54374200Y-55574200D01*
X55825800Y-55574200D01*
X55825800Y-57025800D01*
X55825800Y-57025800D01*
G37*
G36*
X71325800Y-57025800D02*
G01*
X69874200Y-57025800D01*
X69874200Y-55574200D01*
X71325800Y-55574200D01*
X71325800Y-57025800D01*
X71325800Y-57025800D01*
G37*
G36*
X66225800Y-57025800D02*
G01*
X64774200Y-57025800D01*
X64774200Y-55574200D01*
X66225800Y-55574200D01*
X66225800Y-57025800D01*
X66225800Y-57025800D01*
G37*
G36*
X97425800Y-54225800D02*
G01*
X95974200Y-54225800D01*
X95974200Y-52774200D01*
X97425800Y-52774200D01*
X97425800Y-54225800D01*
X97425800Y-54225800D01*
G37*
G36*
X94302278Y-52784701D02*
G01*
X94374837Y-52806712D01*
X94439095Y-52826204D01*
X94565183Y-52893600D01*
X94675701Y-52984299D01*
X94766400Y-53094817D01*
X94833796Y-53220905D01*
X94853288Y-53285163D01*
X94875299Y-53357722D01*
X94889312Y-53500000D01*
X94875299Y-53642278D01*
X94853288Y-53714837D01*
X94833796Y-53779095D01*
X94766400Y-53905183D01*
X94675701Y-54015701D01*
X94565183Y-54106400D01*
X94439095Y-54173796D01*
X94374837Y-54193288D01*
X94302278Y-54215299D01*
X94195655Y-54225800D01*
X94124345Y-54225800D01*
X94017722Y-54215299D01*
X93945163Y-54193288D01*
X93880905Y-54173796D01*
X93754817Y-54106400D01*
X93644299Y-54015701D01*
X93553600Y-53905183D01*
X93486204Y-53779095D01*
X93466712Y-53714837D01*
X93444701Y-53642278D01*
X93430688Y-53500000D01*
X93444701Y-53357722D01*
X93466712Y-53285163D01*
X93486204Y-53220905D01*
X93553600Y-53094817D01*
X93644299Y-52984299D01*
X93754817Y-52893600D01*
X93880905Y-52826204D01*
X93945163Y-52806712D01*
X94017722Y-52784701D01*
X94124345Y-52774200D01*
X94195655Y-52774200D01*
X94302278Y-52784701D01*
X94302278Y-52784701D01*
G37*
G36*
X91762278Y-52784701D02*
G01*
X91834837Y-52806712D01*
X91899095Y-52826204D01*
X92025183Y-52893600D01*
X92135701Y-52984299D01*
X92226400Y-53094817D01*
X92293796Y-53220905D01*
X92313288Y-53285163D01*
X92335299Y-53357722D01*
X92349312Y-53500000D01*
X92335299Y-53642278D01*
X92313288Y-53714837D01*
X92293796Y-53779095D01*
X92226400Y-53905183D01*
X92135701Y-54015701D01*
X92025183Y-54106400D01*
X91899095Y-54173796D01*
X91834837Y-54193288D01*
X91762278Y-54215299D01*
X91655655Y-54225800D01*
X91584345Y-54225800D01*
X91477722Y-54215299D01*
X91405163Y-54193288D01*
X91340905Y-54173796D01*
X91214817Y-54106400D01*
X91104299Y-54015701D01*
X91013600Y-53905183D01*
X90946204Y-53779095D01*
X90926712Y-53714837D01*
X90904701Y-53642278D01*
X90890688Y-53500000D01*
X90904701Y-53357722D01*
X90926712Y-53285163D01*
X90946204Y-53220905D01*
X91013600Y-53094817D01*
X91104299Y-52984299D01*
X91214817Y-52893600D01*
X91340905Y-52826204D01*
X91405163Y-52806712D01*
X91477722Y-52784701D01*
X91584345Y-52774200D01*
X91655655Y-52774200D01*
X91762278Y-52784701D01*
X91762278Y-52784701D01*
G37*
G36*
X89222278Y-52784701D02*
G01*
X89294837Y-52806712D01*
X89359095Y-52826204D01*
X89485183Y-52893600D01*
X89595701Y-52984299D01*
X89686400Y-53094817D01*
X89753796Y-53220905D01*
X89773288Y-53285163D01*
X89795299Y-53357722D01*
X89809312Y-53500000D01*
X89795299Y-53642278D01*
X89773288Y-53714837D01*
X89753796Y-53779095D01*
X89686400Y-53905183D01*
X89595701Y-54015701D01*
X89485183Y-54106400D01*
X89359095Y-54173796D01*
X89294837Y-54193288D01*
X89222278Y-54215299D01*
X89115655Y-54225800D01*
X89044345Y-54225800D01*
X88937722Y-54215299D01*
X88865163Y-54193288D01*
X88800905Y-54173796D01*
X88674817Y-54106400D01*
X88564299Y-54015701D01*
X88473600Y-53905183D01*
X88406204Y-53779095D01*
X88386712Y-53714837D01*
X88364701Y-53642278D01*
X88350688Y-53500000D01*
X88364701Y-53357722D01*
X88386712Y-53285163D01*
X88406204Y-53220905D01*
X88473600Y-53094817D01*
X88564299Y-52984299D01*
X88674817Y-52893600D01*
X88800905Y-52826204D01*
X88865163Y-52806712D01*
X88937722Y-52784701D01*
X89044345Y-52774200D01*
X89115655Y-52774200D01*
X89222278Y-52784701D01*
X89222278Y-52784701D01*
G37*
G36*
X80219001Y-51528053D02*
G01*
X80355638Y-51584649D01*
X80478609Y-51666816D01*
X80583184Y-51771391D01*
X80665351Y-51894362D01*
X80721947Y-52030999D01*
X80750800Y-52176052D01*
X80750800Y-52323948D01*
X80721947Y-52469001D01*
X80665351Y-52605638D01*
X80583184Y-52728609D01*
X80478609Y-52833184D01*
X80355638Y-52915351D01*
X80219001Y-52971947D01*
X80073948Y-53000800D01*
X79926052Y-53000800D01*
X79780999Y-52971947D01*
X79644362Y-52915351D01*
X79521391Y-52833184D01*
X79416816Y-52728609D01*
X79334649Y-52605638D01*
X79278053Y-52469001D01*
X79249200Y-52323948D01*
X79249200Y-52176052D01*
X79278053Y-52030999D01*
X79334649Y-51894362D01*
X79416816Y-51771391D01*
X79521391Y-51666816D01*
X79644362Y-51584649D01*
X79780999Y-51528053D01*
X79926052Y-51499200D01*
X80073948Y-51499200D01*
X80219001Y-51528053D01*
X80219001Y-51528053D01*
G37*
M02*
