G04 #@! TF.GenerationSoftware,KiCad,Pcbnew,7.0.11+1*
G04 #@! TF.CreationDate,2024-05-07T09:39:49-04:00*
G04 #@! TF.ProjectId,mystat,6d797374-6174-42e6-9b69-6361645f7063,rev?*
G04 #@! TF.SameCoordinates,Original*
G04 #@! TF.FileFunction,Paste,Top*
G04 #@! TF.FilePolarity,Positive*
%FSLAX46Y46*%
G04 Gerber Fmt 4.6, Leading zero omitted, Abs format (unit mm)*
G04 Created by KiCad (PCBNEW 7.0.11+1) date 2024-05-07 09:39:49*
%MOMM*%
%LPD*%
G01*
G04 APERTURE LIST*
G04 Aperture macros list*
%AMRoundRect*
0 Rectangle with rounded corners*
0 $1 Rounding radius*
0 $2 $3 $4 $5 $6 $7 $8 $9 X,Y pos of 4 corners*
0 Add a 4 corners polygon primitive as box body*
4,1,4,$2,$3,$4,$5,$6,$7,$8,$9,$2,$3,0*
0 Add four circle primitives for the rounded corners*
1,1,$1+$1,$2,$3*
1,1,$1+$1,$4,$5*
1,1,$1+$1,$6,$7*
1,1,$1+$1,$8,$9*
0 Add four rect primitives between the rounded corners*
20,1,$1+$1,$2,$3,$4,$5,0*
20,1,$1+$1,$4,$5,$6,$7,0*
20,1,$1+$1,$6,$7,$8,$9,0*
20,1,$1+$1,$8,$9,$2,$3,0*%
G04 Aperture macros list end*
%ADD10RoundRect,0.224600X-0.449600X0.224600X-0.449600X-0.224600X0.449600X-0.224600X0.449600X0.224600X0*%
%ADD11RoundRect,0.224600X0.449600X-0.224600X0.449600X0.224600X-0.449600X0.224600X-0.449600X-0.224600X0*%
%ADD12RoundRect,0.224600X-0.224600X-0.449600X0.224600X-0.449600X0.224600X0.449600X-0.224600X0.449600X0*%
%ADD13RoundRect,0.227913X1.071287X-0.296287X1.071287X0.296287X-1.071287X0.296287X-1.071287X-0.296287X0*%
%ADD14RoundRect,0.224600X0.224600X0.449600X-0.224600X0.449600X-0.224600X-0.449600X0.224600X-0.449600X0*%
%ADD15RoundRect,0.225220X0.236480X0.423980X-0.236480X0.423980X-0.236480X-0.423980X0.236480X-0.423980X0*%
%ADD16RoundRect,0.225220X-0.236480X-0.423980X0.236480X-0.423980X0.236480X0.423980X-0.236480X0.423980X0*%
%ADD17RoundRect,0.225220X0.423980X-0.236480X0.423980X0.236480X-0.423980X0.236480X-0.423980X-0.236480X0*%
%ADD18RoundRect,0.225220X-0.423980X0.236480X-0.423980X-0.236480X0.423980X-0.236480X0.423980X0.236480X0*%
%ADD19R,1.698400X2.698400*%
%ADD20R,2.898400X1.698400*%
%ADD21R,2.898400X2.898400*%
%ADD22R,1.676400X2.819400*%
%ADD23C,0.523400*%
%ADD24RoundRect,0.227913X0.621287X-0.296287X0.621287X0.296287X-0.621287X0.296287X-0.621287X-0.296287X0*%
%ADD25RoundRect,0.227913X-0.621287X0.296287X-0.621287X-0.296287X0.621287X-0.296287X0.621287X0.296287X0*%
%ADD26R,0.448400X1.448400*%
%ADD27R,0.398400X1.448400*%
%ADD28R,1.448400X0.448400*%
%ADD29R,1.448400X0.398400*%
%ADD30R,1.348400X0.278400*%
%ADD31R,1.378400X0.248400*%
%ADD32R,0.198400X1.098400*%
%ADD33R,0.248400X1.098400*%
%ADD34R,1.648400X1.098400*%
%ADD35R,2.098400X2.098400*%
%ADD36R,1.118400X0.518400*%
%ADD37R,1.948400X0.448400*%
%ADD38R,0.498400X0.998400*%
G04 APERTURE END LIST*
D10*
X96647593Y-104990368D03*
X96647593Y-106890368D03*
D11*
X106047593Y-106890368D03*
X106047593Y-104990368D03*
D10*
X54660800Y-94046000D03*
X54660800Y-95946000D03*
D11*
X55207733Y-69750440D03*
X55207733Y-67850440D03*
D12*
X58850000Y-82100000D03*
X60750000Y-82100000D03*
D11*
X89600000Y-104250000D03*
X89600000Y-102350000D03*
D10*
X76867972Y-103050000D03*
X76867972Y-104950000D03*
D13*
X55191708Y-113184399D03*
X55191708Y-110234399D03*
D14*
X66950000Y-82100000D03*
X65050000Y-82100000D03*
D11*
X63000000Y-69750000D03*
X63000000Y-67850000D03*
D14*
X65150000Y-104800000D03*
X63250000Y-104800000D03*
D10*
X66800000Y-108050000D03*
X66800000Y-109950000D03*
X93100000Y-89550000D03*
X93100000Y-91450000D03*
D12*
X97950000Y-84000000D03*
X99850000Y-84000000D03*
X87550000Y-68200000D03*
X89450000Y-68200000D03*
X87450000Y-73500000D03*
X89350000Y-73500000D03*
D11*
X84300000Y-65650000D03*
X84300000Y-63750000D03*
D12*
X95950000Y-68200000D03*
X97850000Y-68200000D03*
X88450000Y-82400000D03*
X90350000Y-82400000D03*
D11*
X92800000Y-65650000D03*
X92800000Y-63750000D03*
D14*
X90350000Y-86800000D03*
X88450000Y-86800000D03*
D11*
X84200000Y-84450000D03*
X84200000Y-82550000D03*
X81000000Y-71550000D03*
X81000000Y-69650000D03*
D10*
X76500000Y-64450000D03*
X76500000Y-66350000D03*
D12*
X79050000Y-90900000D03*
X80950000Y-90900000D03*
D15*
X101412500Y-113800000D03*
X99587500Y-113800000D03*
D16*
X99535093Y-110340368D03*
X101360093Y-110340368D03*
D17*
X58507733Y-69712940D03*
X58507733Y-67887940D03*
D18*
X73367972Y-103087500D03*
X73367972Y-104912500D03*
X66400000Y-67887500D03*
X66400000Y-69712500D03*
D16*
X100787500Y-53600000D03*
X102612500Y-53600000D03*
D15*
X90212500Y-95300000D03*
X88387500Y-95300000D03*
D17*
X84300000Y-71712500D03*
X84300000Y-69887500D03*
D18*
X84300000Y-75487500D03*
X84300000Y-77312500D03*
D17*
X92800000Y-71812500D03*
X92800000Y-69987500D03*
D16*
X88487500Y-90300000D03*
X90312500Y-90300000D03*
D15*
X56012500Y-52800000D03*
X54187500Y-52800000D03*
D18*
X75700000Y-76987500D03*
X75700000Y-78812500D03*
D15*
X80812500Y-78500000D03*
X78987500Y-78500000D03*
X71512500Y-52700000D03*
X69687500Y-52700000D03*
D16*
X79087500Y-87600000D03*
X80912500Y-87600000D03*
D18*
X75700000Y-87387500D03*
X75700000Y-89212500D03*
D17*
X75700000Y-71912500D03*
X75700000Y-70087500D03*
D15*
X66412500Y-52800000D03*
X64587500Y-52800000D03*
X61212500Y-52800000D03*
X59387500Y-52800000D03*
D12*
X61341708Y-122609399D03*
X63241708Y-122609399D03*
X100750000Y-57200000D03*
X102650000Y-57200000D03*
D14*
X99850000Y-75100000D03*
X97950000Y-75100000D03*
D16*
X79087500Y-74800000D03*
X80912500Y-74800000D03*
D19*
X80000000Y-59750000D03*
D20*
X75800000Y-56750000D03*
X84200000Y-56750000D03*
D21*
X84700000Y-52750000D03*
X75300000Y-52750000D03*
D22*
X92600000Y-114501900D03*
X92600000Y-109498100D03*
D18*
X73550000Y-118187500D03*
X73550000Y-120012500D03*
D23*
X77540943Y-111042404D03*
X78810943Y-111042404D03*
X80080943Y-111042404D03*
X81350943Y-111042404D03*
X82620943Y-111042404D03*
X77540943Y-112312404D03*
X78810943Y-112312404D03*
X80080943Y-112312404D03*
X81350943Y-112312404D03*
X82620943Y-112312404D03*
X77540943Y-113582404D03*
X78810943Y-113582404D03*
X80080943Y-113582404D03*
X81350943Y-113582404D03*
X82620943Y-113582404D03*
X77540943Y-114852404D03*
X78810943Y-114852404D03*
X80080943Y-114852404D03*
X81350943Y-114852404D03*
X82620943Y-114852404D03*
X77540943Y-116122404D03*
X78810943Y-116122404D03*
X80080943Y-116122404D03*
X81350943Y-116122404D03*
X82620943Y-116122404D03*
X77540943Y-117392404D03*
X78810943Y-117392404D03*
X80080943Y-117392404D03*
X81350943Y-117392404D03*
X82620943Y-117392404D03*
X77540943Y-118662404D03*
X78810943Y-118662404D03*
X80080943Y-118662404D03*
X81350943Y-118662404D03*
X82620943Y-118662404D03*
X77540943Y-119932404D03*
X78810943Y-119932404D03*
X80080943Y-119932404D03*
X81350943Y-119932404D03*
X82620943Y-119932404D03*
D24*
X86200000Y-121375000D03*
X86200000Y-118425000D03*
D25*
X86200000Y-112325000D03*
X86200000Y-115275000D03*
D11*
X103026497Y-101166761D03*
X103026497Y-99266761D03*
D10*
X93626497Y-99266761D03*
X93626497Y-101166761D03*
D16*
X101313997Y-95816761D03*
X103138997Y-95816761D03*
X96513997Y-95816761D03*
X98338997Y-95816761D03*
D14*
X78250000Y-128700000D03*
X76350000Y-128700000D03*
D12*
X71650000Y-125300000D03*
X73550000Y-125300000D03*
X71650000Y-128700000D03*
X73550000Y-128700000D03*
X76350000Y-125300000D03*
X78250000Y-125300000D03*
D26*
X66744605Y-73080739D03*
D27*
X65474605Y-73080739D03*
X64204605Y-73080739D03*
X62934605Y-73080739D03*
D26*
X62934605Y-78480739D03*
X64204605Y-78480739D03*
X65474605Y-78480739D03*
X66744605Y-78480739D03*
X58812733Y-73100440D03*
D27*
X57542733Y-73100440D03*
X56272733Y-73100440D03*
X55002733Y-73100440D03*
D26*
X55002733Y-78500440D03*
X56272733Y-78500440D03*
X57542733Y-78500440D03*
X58812733Y-78500440D03*
D28*
X85800000Y-105605000D03*
D29*
X85800000Y-104335000D03*
X85800000Y-103065000D03*
X85800000Y-101795000D03*
D28*
X80400000Y-101795000D03*
X80400000Y-103065000D03*
X80400000Y-104335000D03*
X80400000Y-105605000D03*
D30*
X82200000Y-96875000D03*
X82200000Y-96225000D03*
X82200000Y-95575000D03*
X82200000Y-94925000D03*
X77800000Y-94925000D03*
D31*
X77800000Y-95575000D03*
D30*
X77800000Y-96225000D03*
X77800000Y-96875000D03*
D32*
X58969208Y-113209399D03*
X59604208Y-113209399D03*
X60239208Y-113209399D03*
X60874208Y-113209399D03*
X61509208Y-113209399D03*
X62144208Y-113209399D03*
X62779208Y-113209399D03*
X63414208Y-113209399D03*
X63414208Y-108009399D03*
X62779208Y-108009399D03*
X62144208Y-108009399D03*
X61509208Y-108009399D03*
X60874208Y-108009399D03*
X60239208Y-108009399D03*
X59604208Y-108009399D03*
X58969208Y-108009399D03*
D28*
X101800000Y-91905000D03*
D29*
X101800000Y-90635000D03*
X101800000Y-89365000D03*
X101800000Y-88095000D03*
D28*
X96400000Y-88095000D03*
X96400000Y-89365000D03*
X96400000Y-90635000D03*
X96400000Y-91905000D03*
D33*
X84700000Y-126100000D03*
X85350000Y-126100000D03*
X86000000Y-126100000D03*
X86650000Y-126100000D03*
X87300000Y-126100000D03*
D34*
X82925000Y-126100000D03*
X89075000Y-126100000D03*
D35*
X83925000Y-128150000D03*
X88075000Y-128150000D03*
D10*
X75700000Y-82050000D03*
X75700000Y-83950000D03*
D14*
X58400000Y-122590000D03*
X56500000Y-122590000D03*
D16*
X85987500Y-108900000D03*
X87812500Y-108900000D03*
D12*
X71450000Y-97800000D03*
X73350000Y-97800000D03*
D36*
X96916497Y-99266761D03*
X96916497Y-100216761D03*
X96916497Y-101166761D03*
X99536497Y-101166761D03*
X99536497Y-99266761D03*
X99937593Y-104990368D03*
X99937593Y-105940368D03*
X99937593Y-106890368D03*
X102557593Y-106890368D03*
X102557593Y-104990368D03*
D37*
X67150000Y-97815000D03*
X67150000Y-96545000D03*
X67150000Y-95275000D03*
X67150000Y-94005000D03*
X67150000Y-92735000D03*
X67150000Y-91465000D03*
X67150000Y-90195000D03*
X67150000Y-88925000D03*
X67150000Y-87655000D03*
X67150000Y-86385000D03*
X57850000Y-86385000D03*
X57850000Y-87655000D03*
X57850000Y-88925000D03*
X57850000Y-90195000D03*
X57850000Y-91465000D03*
X57850000Y-92735000D03*
X57850000Y-94005000D03*
X57850000Y-95275000D03*
X57850000Y-96545000D03*
X57850000Y-97815000D03*
D38*
X97950000Y-80900000D03*
X98900000Y-80900000D03*
X99850000Y-80900000D03*
X99850000Y-78300000D03*
X97950000Y-78300000D03*
X89450000Y-62500000D03*
X88500000Y-62500000D03*
X87550000Y-62500000D03*
X87550000Y-65100000D03*
X89450000Y-65100000D03*
X87450000Y-79300000D03*
X88400000Y-79300000D03*
X89350000Y-79300000D03*
X89350000Y-76700000D03*
X87450000Y-76700000D03*
X97850000Y-62500000D03*
X96900000Y-62500000D03*
X95950000Y-62500000D03*
X95950000Y-65100000D03*
X97850000Y-65100000D03*
X80950000Y-81900000D03*
X80000000Y-81900000D03*
X79050000Y-81900000D03*
X79050000Y-84500000D03*
X80950000Y-84500000D03*
X80950000Y-64100000D03*
X80000000Y-64100000D03*
X79050000Y-64100000D03*
X79050000Y-66700000D03*
X80950000Y-66700000D03*
M02*
