G04 #@! TF.GenerationSoftware,KiCad,Pcbnew,5.1.4+dfsg1-1*
G04 #@! TF.CreationDate,2019-09-30T15:39:43-04:00*
G04 #@! TF.ProjectId,mystatV7,6d797374-6174-4563-972e-6b696361645f,rev?*
G04 #@! TF.SameCoordinates,Original*
G04 #@! TF.FileFunction,Copper,L2,Inr*
G04 #@! TF.FilePolarity,Positive*
%FSLAX46Y46*%
G04 Gerber Fmt 4.6, Leading zero omitted, Abs format (unit mm)*
G04 Created by KiCad (PCBNEW 5.1.4+dfsg1-1) date 2019-09-30 15:39:43*
%MOMM*%
%LPD*%
G04 APERTURE LIST*
%ADD10O,2.000000X3.500000*%
%ADD11O,3.300000X2.000000*%
%ADD12O,4.000000X2.000000*%
%ADD13R,1.350000X1.350000*%
%ADD14O,1.350000X1.350000*%
%ADD15O,1.700000X1.700000*%
%ADD16R,1.700000X1.700000*%
%ADD17C,1.500000*%
%ADD18C,0.508000*%
%ADD19C,0.762000*%
%ADD20C,0.508000*%
%ADD21C,0.254000*%
G04 APERTURE END LIST*
D10*
X95500000Y-125700000D03*
X104500000Y-125700000D03*
D11*
X100000000Y-124700000D03*
D12*
X100000000Y-118700000D03*
D13*
X65500000Y-56300000D03*
D14*
X65500000Y-58840000D03*
X65500000Y-61380000D03*
X65500000Y-63920000D03*
D13*
X70600000Y-56300000D03*
D14*
X70600000Y-58840000D03*
X70600000Y-61380000D03*
X70600000Y-63920000D03*
D13*
X60300000Y-56300000D03*
D14*
X60300000Y-58840000D03*
X60300000Y-61380000D03*
X60300000Y-63920000D03*
D13*
X96700000Y-53500000D03*
D14*
X94160000Y-53500000D03*
X91620000Y-53500000D03*
X89080000Y-53500000D03*
D13*
X55100000Y-56300000D03*
D14*
X55100000Y-58840000D03*
X55100000Y-61380000D03*
X55100000Y-63920000D03*
D15*
X54700000Y-127700000D03*
X57240000Y-127700000D03*
X59780000Y-127700000D03*
X62320000Y-127700000D03*
X64860000Y-127700000D03*
D16*
X67400000Y-127700000D03*
D17*
X62350000Y-118190000D03*
X57470000Y-118190000D03*
D18*
X78180943Y-111687404D03*
X78180943Y-112987404D03*
X79480943Y-112937404D03*
X80730943Y-114237404D03*
X81980943Y-114187404D03*
X79430943Y-114237404D03*
X78180943Y-114237404D03*
X79430943Y-115487404D03*
X80730943Y-115487404D03*
X81980943Y-115487404D03*
X81980943Y-116737404D03*
X80730943Y-116787404D03*
X79430943Y-116737404D03*
X78180943Y-120637404D03*
D19*
X103026497Y-102616761D03*
X106047593Y-108340368D03*
X53407733Y-67862940D03*
X61300000Y-67862500D03*
X61300000Y-73100000D03*
X73900000Y-66337500D03*
X79300000Y-71537500D03*
X84300000Y-66900000D03*
X87562500Y-69700000D03*
X92800000Y-66900000D03*
X95962500Y-69700000D03*
X91000000Y-73500000D03*
X90337500Y-83900000D03*
X104000000Y-57200000D03*
X101300000Y-75100000D03*
X101300000Y-84000000D03*
X53300000Y-73100000D03*
X95000000Y-78000000D03*
X62900000Y-82100000D03*
D18*
X79430943Y-120637404D03*
D19*
X95305758Y-97600000D03*
X94900000Y-105002868D03*
X62791708Y-115009399D03*
X64800000Y-122600000D03*
X54800000Y-122600000D03*
X54965600Y-97739200D03*
X75000000Y-127000000D03*
X60180601Y-110309399D03*
X77680000Y-84750000D03*
X77550000Y-89310000D03*
X88000000Y-124000000D03*
X71662500Y-126917500D03*
X75062500Y-104937500D03*
X86000000Y-94600000D03*
X91500000Y-99300000D03*
X71600000Y-91200000D03*
X75100000Y-93600000D03*
X55200000Y-81600000D03*
X74900000Y-97800000D03*
X102959632Y-110340368D03*
X99200000Y-90040000D03*
X73900000Y-64462500D03*
X82700000Y-63206263D03*
X91306263Y-63206263D03*
X88462500Y-83900000D03*
X100062500Y-86100000D03*
X75700000Y-96600000D03*
X77500000Y-80300000D03*
X104816761Y-95816761D03*
X79300000Y-69662500D03*
X89437500Y-69700000D03*
X97837500Y-69700000D03*
X86200000Y-71900000D03*
X96400000Y-75100000D03*
X84200000Y-94500000D03*
X84200000Y-90500000D03*
X105750000Y-93000000D03*
X68300000Y-82100000D03*
X68430000Y-124130000D03*
X70362500Y-99837500D03*
X60100000Y-84400000D03*
X88500000Y-106500000D03*
X60286560Y-74383440D03*
X73367972Y-101332028D03*
X82562500Y-77337500D03*
X77662500Y-76962500D03*
X101300000Y-82100000D03*
X103845011Y-80045011D03*
X85850000Y-78750000D03*
X59800000Y-71100000D03*
X68162500Y-67862500D03*
X75300000Y-74000000D03*
X82500000Y-87600000D03*
X82500000Y-81900000D03*
X60840000Y-95260000D03*
X69700000Y-118100000D03*
X62365000Y-96545000D03*
X70199000Y-115099000D03*
X74100000Y-59300000D03*
X64410000Y-93980000D03*
X63000000Y-92800000D03*
X60445000Y-90205000D03*
X56125000Y-85075000D03*
X53900000Y-87300000D03*
D20*
X79430943Y-120637404D02*
X79430943Y-123089057D01*
X79430943Y-123089057D02*
X78520000Y-124000000D01*
X103026497Y-105319272D02*
X106047593Y-108340368D01*
X103026497Y-102616761D02*
X103026497Y-105319272D01*
X62320000Y-125080000D02*
X62320000Y-127700000D01*
X64800000Y-122600000D02*
X62320000Y-125080000D01*
X57220000Y-122600000D02*
X62320000Y-127700000D01*
X54800000Y-122600000D02*
X57220000Y-122600000D01*
X64800000Y-117556506D02*
X64800000Y-122600000D01*
X62791708Y-115548214D02*
X64800000Y-117556506D01*
X62791708Y-115009399D02*
X62791708Y-115548214D01*
X60180601Y-112398292D02*
X62791708Y-115009399D01*
X60180601Y-110309399D02*
X60180601Y-112398292D01*
X94900000Y-125100000D02*
X95500000Y-125700000D01*
X94900000Y-105002868D02*
X94900000Y-125100000D01*
X94900000Y-98005758D02*
X94900000Y-105002868D01*
X95305758Y-97600000D02*
X94900000Y-98005758D01*
X89700000Y-125700000D02*
X95500000Y-125700000D01*
X88000000Y-124000000D02*
X89700000Y-125700000D01*
X78000000Y-124000000D02*
X75000000Y-127000000D01*
X78180943Y-123819057D02*
X78180943Y-120637404D01*
X78000000Y-124000000D02*
X78180943Y-123819057D01*
X99000000Y-125700000D02*
X100000000Y-124700000D01*
X95500000Y-125700000D02*
X99000000Y-125700000D01*
X101000000Y-125700000D02*
X100000000Y-124700000D01*
X104500000Y-125700000D02*
X101000000Y-125700000D01*
X74917500Y-126917500D02*
X75000000Y-127000000D01*
X71662500Y-126917500D02*
X74917500Y-126917500D01*
X69117500Y-126917500D02*
X64800000Y-122600000D01*
X71662500Y-126917500D02*
X69117500Y-126917500D01*
X88000000Y-124000000D02*
X78520000Y-124000000D01*
X78520000Y-124000000D02*
X78000000Y-124000000D01*
X55100000Y-61380000D02*
X55100000Y-63920000D01*
X55100000Y-66170673D02*
X53407733Y-67862940D01*
X55100000Y-63920000D02*
X55100000Y-66170673D01*
X53407733Y-72992267D02*
X53300000Y-73100000D01*
X53407733Y-67862940D02*
X53407733Y-72992267D01*
X55100000Y-61380000D02*
X60300000Y-61380000D01*
X60300000Y-61380000D02*
X60300000Y-63920000D01*
X61300000Y-64920000D02*
X61300000Y-67862500D01*
X60300000Y-63920000D02*
X61300000Y-64920000D01*
X61300000Y-67862500D02*
X61300000Y-73100000D01*
X64825001Y-62054999D02*
X65500000Y-61380000D01*
X60974999Y-62054999D02*
X64825001Y-62054999D01*
X60300000Y-61380000D02*
X60974999Y-62054999D01*
X65500000Y-61380000D02*
X65500000Y-63920000D01*
X63589001Y-75389001D02*
X61300000Y-73100000D01*
X63589001Y-81410999D02*
X63589001Y-75389001D01*
X62900000Y-82100000D02*
X63589001Y-81410999D01*
X65500000Y-61380000D02*
X70600000Y-61380000D01*
X70600000Y-61380000D02*
X70600000Y-63920000D01*
X71482500Y-63920000D02*
X73900000Y-66337500D01*
X70600000Y-63920000D02*
X71482500Y-63920000D01*
X79100000Y-71537500D02*
X79300000Y-71537500D01*
X73900000Y-66337500D02*
X79100000Y-71537500D01*
X79662500Y-71537500D02*
X79300000Y-71537500D01*
X84300000Y-66900000D02*
X79662500Y-71537500D01*
X84762500Y-66900000D02*
X87562500Y-69700000D01*
X84300000Y-66900000D02*
X84762500Y-66900000D01*
X90921778Y-66900000D02*
X92800000Y-66900000D01*
X88121778Y-69700000D02*
X90921778Y-66900000D01*
X87562500Y-69700000D02*
X88121778Y-69700000D01*
X93162500Y-66900000D02*
X95962500Y-69700000D01*
X92800000Y-66900000D02*
X93162500Y-66900000D01*
X91000000Y-73137500D02*
X91000000Y-73500000D01*
X87562500Y-69700000D02*
X91000000Y-73137500D01*
X91000000Y-74000000D02*
X91000000Y-73500000D01*
X95000000Y-78000000D02*
X91000000Y-74000000D01*
X94800000Y-69700000D02*
X91000000Y-73500000D01*
X95962500Y-69700000D02*
X94800000Y-69700000D01*
X95320000Y-57200000D02*
X104000000Y-57200000D01*
X91620000Y-53500000D02*
X95320000Y-57200000D01*
X104000000Y-61662500D02*
X95962500Y-69700000D01*
X104000000Y-57200000D02*
X104000000Y-61662500D01*
X92800000Y-63384278D02*
X92800000Y-66900000D01*
X91620000Y-62204278D02*
X92800000Y-63384278D01*
X91620000Y-53500000D02*
X91620000Y-62204278D01*
X101300000Y-75037500D02*
X101300000Y-75100000D01*
X95962500Y-69700000D02*
X101300000Y-75037500D01*
X97900000Y-75100000D02*
X95000000Y-78000000D01*
X101300000Y-75100000D02*
X97900000Y-75100000D01*
X101000000Y-84000000D02*
X101300000Y-84000000D01*
X95000000Y-78000000D02*
X101000000Y-84000000D01*
X95000000Y-79237500D02*
X90337500Y-83900000D01*
X95000000Y-78000000D02*
X95000000Y-79237500D01*
X78180943Y-111687404D02*
X78180943Y-112987404D01*
X79430943Y-112987404D02*
X79480943Y-112937404D01*
X78180943Y-112987404D02*
X79430943Y-112987404D01*
X78180943Y-112987404D02*
X78180943Y-114237404D01*
X78180943Y-114237404D02*
X79430943Y-114237404D01*
X79480943Y-114187404D02*
X79430943Y-114237404D01*
X79480943Y-112937404D02*
X79480943Y-114187404D01*
X79430943Y-114237404D02*
X80730943Y-114237404D01*
X81930943Y-114237404D02*
X81980943Y-114187404D01*
X80730943Y-114237404D02*
X81930943Y-114237404D01*
X81980943Y-114187404D02*
X81980943Y-115487404D01*
X81980943Y-115487404D02*
X80730943Y-115487404D01*
X80730943Y-115487404D02*
X80730943Y-114237404D01*
X79430943Y-114237404D02*
X79430943Y-115487404D01*
X79430943Y-115487404D02*
X79430943Y-116737404D01*
X80680943Y-116737404D02*
X80730943Y-116787404D01*
X79430943Y-116737404D02*
X80680943Y-116737404D01*
X80730943Y-116787404D02*
X80730943Y-115487404D01*
X80730943Y-115487404D02*
X79430943Y-115487404D01*
X81980943Y-115487404D02*
X81980943Y-116737404D01*
X80780943Y-116737404D02*
X80730943Y-116787404D01*
X81980943Y-116737404D02*
X80780943Y-116737404D01*
X79430943Y-116737404D02*
X79430943Y-120637404D01*
X79430943Y-120637404D02*
X78180943Y-120637404D01*
X77680000Y-89180000D02*
X77550000Y-89310000D01*
X77680000Y-84750000D02*
X77680000Y-89180000D01*
X65550000Y-84750000D02*
X77680000Y-84750000D01*
X62900000Y-82100000D02*
X65550000Y-84750000D01*
X103026497Y-85726497D02*
X101300000Y-84000000D01*
X103026497Y-102616761D02*
X103026497Y-85726497D01*
X95305758Y-88868258D02*
X90337500Y-83900000D01*
X95305758Y-97600000D02*
X95305758Y-88868258D01*
X62900000Y-82100000D02*
X63889001Y-83089001D01*
X80710000Y-89310000D02*
X77550000Y-89310000D01*
X86000000Y-94600000D02*
X80710000Y-89310000D01*
X78180943Y-108055943D02*
X78180943Y-111687404D01*
X75062500Y-104937500D02*
X78180943Y-108055943D01*
X62900000Y-89804800D02*
X54965600Y-97739200D01*
X62900000Y-82100000D02*
X62900000Y-89804800D01*
X86800000Y-94600000D02*
X91500000Y-99300000D01*
X86000000Y-94600000D02*
X86800000Y-94600000D01*
X74719001Y-93980999D02*
X75100000Y-93600000D01*
X74719001Y-96934723D02*
X74719001Y-93980999D01*
X74900000Y-97800000D02*
X74900000Y-97115722D01*
X74900000Y-97115722D02*
X74719001Y-96934723D01*
X74900000Y-104775000D02*
X75062500Y-104937500D01*
X74900000Y-97800000D02*
X74900000Y-104775000D01*
X104959632Y-108340368D02*
X102959632Y-110340368D01*
X106047593Y-108340368D02*
X104959632Y-108340368D01*
X104500000Y-111880736D02*
X102959632Y-110340368D01*
X104500000Y-125700000D02*
X104500000Y-111880736D01*
X53300000Y-79700000D02*
X55200000Y-81600000D01*
X53300000Y-73100000D02*
X53300000Y-79700000D01*
X64800000Y-91200000D02*
X71600000Y-91200000D01*
X55200000Y-81600000D02*
X64800000Y-91200000D01*
X72700000Y-91200000D02*
X75100000Y-93600000D01*
X71600000Y-91200000D02*
X72700000Y-91200000D01*
X77550000Y-91150000D02*
X75100000Y-93600000D01*
X77550000Y-89310000D02*
X77550000Y-91150000D01*
X54965600Y-104555583D02*
X54965600Y-97739200D01*
X60180601Y-109770584D02*
X54965600Y-104555583D01*
X60180601Y-110309399D02*
X60180601Y-109770584D01*
D21*
G36*
X109569001Y-130569000D02*
G01*
X50431000Y-130569000D01*
X50431000Y-127700000D01*
X53463044Y-127700000D01*
X53486812Y-127941318D01*
X53557202Y-128173363D01*
X53671509Y-128387216D01*
X53825340Y-128574660D01*
X54012784Y-128728491D01*
X54226637Y-128842798D01*
X54458682Y-128913188D01*
X54639528Y-128931000D01*
X54760472Y-128931000D01*
X54941318Y-128913188D01*
X55173363Y-128842798D01*
X55387216Y-128728491D01*
X55574660Y-128574660D01*
X55728491Y-128387216D01*
X55842798Y-128173363D01*
X55913188Y-127941318D01*
X55936956Y-127700000D01*
X56003044Y-127700000D01*
X56026812Y-127941318D01*
X56097202Y-128173363D01*
X56211509Y-128387216D01*
X56365340Y-128574660D01*
X56552784Y-128728491D01*
X56766637Y-128842798D01*
X56998682Y-128913188D01*
X57179528Y-128931000D01*
X57300472Y-128931000D01*
X57481318Y-128913188D01*
X57713363Y-128842798D01*
X57927216Y-128728491D01*
X58114660Y-128574660D01*
X58268491Y-128387216D01*
X58382798Y-128173363D01*
X58453188Y-127941318D01*
X58476956Y-127700000D01*
X58543044Y-127700000D01*
X58566812Y-127941318D01*
X58637202Y-128173363D01*
X58751509Y-128387216D01*
X58905340Y-128574660D01*
X59092784Y-128728491D01*
X59306637Y-128842798D01*
X59538682Y-128913188D01*
X59719528Y-128931000D01*
X59840472Y-128931000D01*
X60021318Y-128913188D01*
X60253363Y-128842798D01*
X60467216Y-128728491D01*
X60654660Y-128574660D01*
X60808491Y-128387216D01*
X60922798Y-128173363D01*
X60970235Y-128016981D01*
X61130505Y-128016981D01*
X61215201Y-128242949D01*
X61342353Y-128448052D01*
X61507076Y-128624408D01*
X61703039Y-128765239D01*
X61922712Y-128865134D01*
X62003020Y-128889489D01*
X62193000Y-128828627D01*
X62193000Y-127827000D01*
X62447000Y-127827000D01*
X62447000Y-128828627D01*
X62636980Y-128889489D01*
X62717288Y-128865134D01*
X62936961Y-128765239D01*
X63132924Y-128624408D01*
X63297647Y-128448052D01*
X63424799Y-128242949D01*
X63509495Y-128016981D01*
X63449187Y-127827000D01*
X62447000Y-127827000D01*
X62193000Y-127827000D01*
X61190813Y-127827000D01*
X61130505Y-128016981D01*
X60970235Y-128016981D01*
X60993188Y-127941318D01*
X61016956Y-127700000D01*
X63623044Y-127700000D01*
X63646812Y-127941318D01*
X63717202Y-128173363D01*
X63831509Y-128387216D01*
X63985340Y-128574660D01*
X64172784Y-128728491D01*
X64386637Y-128842798D01*
X64618682Y-128913188D01*
X64799528Y-128931000D01*
X64920472Y-128931000D01*
X65101318Y-128913188D01*
X65333363Y-128842798D01*
X65547216Y-128728491D01*
X65734660Y-128574660D01*
X65888491Y-128387216D01*
X66002798Y-128173363D01*
X66073188Y-127941318D01*
X66096956Y-127700000D01*
X66073188Y-127458682D01*
X66002798Y-127226637D01*
X65888491Y-127012784D01*
X65754898Y-126850000D01*
X66167157Y-126850000D01*
X66167157Y-128550000D01*
X66174513Y-128624689D01*
X66196299Y-128696508D01*
X66231678Y-128762696D01*
X66279289Y-128820711D01*
X66337304Y-128868322D01*
X66403492Y-128903701D01*
X66475311Y-128925487D01*
X66550000Y-128932843D01*
X68250000Y-128932843D01*
X68324689Y-128925487D01*
X68396508Y-128903701D01*
X68462696Y-128868322D01*
X68520711Y-128820711D01*
X68568322Y-128762696D01*
X68603701Y-128696508D01*
X68625487Y-128624689D01*
X68632843Y-128550000D01*
X68632843Y-126850000D01*
X68625487Y-126775311D01*
X68603701Y-126703492D01*
X68568322Y-126637304D01*
X68520711Y-126579289D01*
X68462696Y-126531678D01*
X68396508Y-126496299D01*
X68324689Y-126474513D01*
X68250000Y-126467157D01*
X66550000Y-126467157D01*
X66475311Y-126474513D01*
X66403492Y-126496299D01*
X66337304Y-126531678D01*
X66279289Y-126579289D01*
X66231678Y-126637304D01*
X66196299Y-126703492D01*
X66174513Y-126775311D01*
X66167157Y-126850000D01*
X65754898Y-126850000D01*
X65734660Y-126825340D01*
X65547216Y-126671509D01*
X65333363Y-126557202D01*
X65101318Y-126486812D01*
X64920472Y-126469000D01*
X64799528Y-126469000D01*
X64618682Y-126486812D01*
X64386637Y-126557202D01*
X64172784Y-126671509D01*
X63985340Y-126825340D01*
X63831509Y-127012784D01*
X63717202Y-127226637D01*
X63646812Y-127458682D01*
X63623044Y-127700000D01*
X61016956Y-127700000D01*
X60993188Y-127458682D01*
X60970236Y-127383019D01*
X61130505Y-127383019D01*
X61190813Y-127573000D01*
X62193000Y-127573000D01*
X62193000Y-126571373D01*
X62447000Y-126571373D01*
X62447000Y-127573000D01*
X63449187Y-127573000D01*
X63509495Y-127383019D01*
X63424799Y-127157051D01*
X63297647Y-126951948D01*
X63132924Y-126775592D01*
X62936961Y-126634761D01*
X62717288Y-126534866D01*
X62636980Y-126510511D01*
X62447000Y-126571373D01*
X62193000Y-126571373D01*
X62003020Y-126510511D01*
X61922712Y-126534866D01*
X61703039Y-126634761D01*
X61507076Y-126775592D01*
X61342353Y-126951948D01*
X61215201Y-127157051D01*
X61130505Y-127383019D01*
X60970236Y-127383019D01*
X60922798Y-127226637D01*
X60808491Y-127012784D01*
X60654660Y-126825340D01*
X60467216Y-126671509D01*
X60253363Y-126557202D01*
X60021318Y-126486812D01*
X59840472Y-126469000D01*
X59719528Y-126469000D01*
X59538682Y-126486812D01*
X59306637Y-126557202D01*
X59092784Y-126671509D01*
X58905340Y-126825340D01*
X58751509Y-127012784D01*
X58637202Y-127226637D01*
X58566812Y-127458682D01*
X58543044Y-127700000D01*
X58476956Y-127700000D01*
X58453188Y-127458682D01*
X58382798Y-127226637D01*
X58268491Y-127012784D01*
X58114660Y-126825340D01*
X57927216Y-126671509D01*
X57713363Y-126557202D01*
X57481318Y-126486812D01*
X57300472Y-126469000D01*
X57179528Y-126469000D01*
X56998682Y-126486812D01*
X56766637Y-126557202D01*
X56552784Y-126671509D01*
X56365340Y-126825340D01*
X56211509Y-127012784D01*
X56097202Y-127226637D01*
X56026812Y-127458682D01*
X56003044Y-127700000D01*
X55936956Y-127700000D01*
X55913188Y-127458682D01*
X55842798Y-127226637D01*
X55728491Y-127012784D01*
X55574660Y-126825340D01*
X55387216Y-126671509D01*
X55173363Y-126557202D01*
X54941318Y-126486812D01*
X54760472Y-126469000D01*
X54639528Y-126469000D01*
X54458682Y-126486812D01*
X54226637Y-126557202D01*
X54012784Y-126671509D01*
X53825340Y-126825340D01*
X53671509Y-127012784D01*
X53557202Y-127226637D01*
X53486812Y-127458682D01*
X53463044Y-127700000D01*
X50431000Y-127700000D01*
X50431000Y-125827000D01*
X94119000Y-125827000D01*
X94119000Y-126577000D01*
X94170312Y-126843979D01*
X94272723Y-127095818D01*
X94422298Y-127322839D01*
X94613288Y-127516317D01*
X94838354Y-127668817D01*
X95088847Y-127774479D01*
X95159443Y-127788350D01*
X95373000Y-127729462D01*
X95373000Y-125827000D01*
X95627000Y-125827000D01*
X95627000Y-127729462D01*
X95840557Y-127788350D01*
X95911153Y-127774479D01*
X96161646Y-127668817D01*
X96287291Y-127583682D01*
X98819000Y-127583682D01*
X98819000Y-127816318D01*
X98864386Y-128044485D01*
X98953412Y-128259413D01*
X99082658Y-128452843D01*
X99247157Y-128617342D01*
X99440587Y-128746588D01*
X99655515Y-128835614D01*
X99883682Y-128881000D01*
X100116318Y-128881000D01*
X100344485Y-128835614D01*
X100559413Y-128746588D01*
X100752843Y-128617342D01*
X100917342Y-128452843D01*
X101046588Y-128259413D01*
X101135614Y-128044485D01*
X101181000Y-127816318D01*
X101181000Y-127583682D01*
X101135614Y-127355515D01*
X101046588Y-127140587D01*
X100917342Y-126947157D01*
X100752843Y-126782658D01*
X100559413Y-126653412D01*
X100344485Y-126564386D01*
X100116318Y-126519000D01*
X99883682Y-126519000D01*
X99655515Y-126564386D01*
X99440587Y-126653412D01*
X99247157Y-126782658D01*
X99082658Y-126947157D01*
X98953412Y-127140587D01*
X98864386Y-127355515D01*
X98819000Y-127583682D01*
X96287291Y-127583682D01*
X96386712Y-127516317D01*
X96577702Y-127322839D01*
X96727277Y-127095818D01*
X96829688Y-126843979D01*
X96881000Y-126577000D01*
X96881000Y-125827000D01*
X95627000Y-125827000D01*
X95373000Y-125827000D01*
X94119000Y-125827000D01*
X50431000Y-125827000D01*
X50431000Y-124054950D01*
X67668000Y-124054950D01*
X67668000Y-124205050D01*
X67697283Y-124352267D01*
X67754724Y-124490942D01*
X67838116Y-124615747D01*
X67944253Y-124721884D01*
X68069058Y-124805276D01*
X68207733Y-124862717D01*
X68354950Y-124892000D01*
X68505050Y-124892000D01*
X68652267Y-124862717D01*
X68748152Y-124823000D01*
X94119000Y-124823000D01*
X94119000Y-125573000D01*
X95373000Y-125573000D01*
X95373000Y-123670538D01*
X95627000Y-123670538D01*
X95627000Y-125573000D01*
X96881000Y-125573000D01*
X96881000Y-125040557D01*
X98011650Y-125040557D01*
X98025521Y-125111153D01*
X98131183Y-125361646D01*
X98283683Y-125586712D01*
X98477161Y-125777702D01*
X98704182Y-125927277D01*
X98956021Y-126029688D01*
X99223000Y-126081000D01*
X99873000Y-126081000D01*
X99873000Y-124827000D01*
X100127000Y-124827000D01*
X100127000Y-126081000D01*
X100777000Y-126081000D01*
X101043979Y-126029688D01*
X101295818Y-125927277D01*
X101448015Y-125827000D01*
X103119000Y-125827000D01*
X103119000Y-126577000D01*
X103170312Y-126843979D01*
X103272723Y-127095818D01*
X103422298Y-127322839D01*
X103613288Y-127516317D01*
X103838354Y-127668817D01*
X104088847Y-127774479D01*
X104159443Y-127788350D01*
X104373000Y-127729462D01*
X104373000Y-125827000D01*
X104627000Y-125827000D01*
X104627000Y-127729462D01*
X104840557Y-127788350D01*
X104911153Y-127774479D01*
X105161646Y-127668817D01*
X105386712Y-127516317D01*
X105577702Y-127322839D01*
X105727277Y-127095818D01*
X105829688Y-126843979D01*
X105881000Y-126577000D01*
X105881000Y-125827000D01*
X104627000Y-125827000D01*
X104373000Y-125827000D01*
X103119000Y-125827000D01*
X101448015Y-125827000D01*
X101522839Y-125777702D01*
X101716317Y-125586712D01*
X101868817Y-125361646D01*
X101974479Y-125111153D01*
X101988350Y-125040557D01*
X101929462Y-124827000D01*
X100127000Y-124827000D01*
X99873000Y-124827000D01*
X98070538Y-124827000D01*
X98011650Y-125040557D01*
X96881000Y-125040557D01*
X96881000Y-124823000D01*
X103119000Y-124823000D01*
X103119000Y-125573000D01*
X104373000Y-125573000D01*
X104373000Y-123670538D01*
X104627000Y-123670538D01*
X104627000Y-125573000D01*
X105881000Y-125573000D01*
X105881000Y-124823000D01*
X105829688Y-124556021D01*
X105727277Y-124304182D01*
X105577702Y-124077161D01*
X105386712Y-123883683D01*
X105161646Y-123731183D01*
X104911153Y-123625521D01*
X104840557Y-123611650D01*
X104627000Y-123670538D01*
X104373000Y-123670538D01*
X104159443Y-123611650D01*
X104088847Y-123625521D01*
X103838354Y-123731183D01*
X103613288Y-123883683D01*
X103422298Y-124077161D01*
X103272723Y-124304182D01*
X103170312Y-124556021D01*
X103119000Y-124823000D01*
X96881000Y-124823000D01*
X96829688Y-124556021D01*
X96749750Y-124359443D01*
X98011650Y-124359443D01*
X98070538Y-124573000D01*
X99873000Y-124573000D01*
X99873000Y-123319000D01*
X100127000Y-123319000D01*
X100127000Y-124573000D01*
X101929462Y-124573000D01*
X101988350Y-124359443D01*
X101974479Y-124288847D01*
X101868817Y-124038354D01*
X101716317Y-123813288D01*
X101522839Y-123622298D01*
X101295818Y-123472723D01*
X101043979Y-123370312D01*
X100777000Y-123319000D01*
X100127000Y-123319000D01*
X99873000Y-123319000D01*
X99223000Y-123319000D01*
X98956021Y-123370312D01*
X98704182Y-123472723D01*
X98477161Y-123622298D01*
X98283683Y-123813288D01*
X98131183Y-124038354D01*
X98025521Y-124288847D01*
X98011650Y-124359443D01*
X96749750Y-124359443D01*
X96727277Y-124304182D01*
X96577702Y-124077161D01*
X96386712Y-123883683D01*
X96161646Y-123731183D01*
X95911153Y-123625521D01*
X95840557Y-123611650D01*
X95627000Y-123670538D01*
X95373000Y-123670538D01*
X95159443Y-123611650D01*
X95088847Y-123625521D01*
X94838354Y-123731183D01*
X94613288Y-123883683D01*
X94422298Y-124077161D01*
X94272723Y-124304182D01*
X94170312Y-124556021D01*
X94119000Y-124823000D01*
X68748152Y-124823000D01*
X68790942Y-124805276D01*
X68915747Y-124721884D01*
X69021884Y-124615747D01*
X69105276Y-124490942D01*
X69162717Y-124352267D01*
X69192000Y-124205050D01*
X69192000Y-124054950D01*
X69162717Y-123907733D01*
X69105276Y-123769058D01*
X69021884Y-123644253D01*
X68915747Y-123538116D01*
X68790942Y-123454724D01*
X68652267Y-123397283D01*
X68505050Y-123368000D01*
X68354950Y-123368000D01*
X68207733Y-123397283D01*
X68069058Y-123454724D01*
X67944253Y-123538116D01*
X67838116Y-123644253D01*
X67754724Y-123769058D01*
X67697283Y-123907733D01*
X67668000Y-124054950D01*
X50431000Y-124054950D01*
X50431000Y-118078606D01*
X56339000Y-118078606D01*
X56339000Y-118301394D01*
X56382464Y-118519900D01*
X56467721Y-118725729D01*
X56591495Y-118910970D01*
X56749030Y-119068505D01*
X56934271Y-119192279D01*
X57140100Y-119277536D01*
X57358606Y-119321000D01*
X57581394Y-119321000D01*
X57799900Y-119277536D01*
X58005729Y-119192279D01*
X58190970Y-119068505D01*
X58348505Y-118910970D01*
X58472279Y-118725729D01*
X58557536Y-118519900D01*
X58601000Y-118301394D01*
X58601000Y-118078606D01*
X61219000Y-118078606D01*
X61219000Y-118301394D01*
X61262464Y-118519900D01*
X61347721Y-118725729D01*
X61471495Y-118910970D01*
X61629030Y-119068505D01*
X61814271Y-119192279D01*
X62020100Y-119277536D01*
X62238606Y-119321000D01*
X62461394Y-119321000D01*
X62679900Y-119277536D01*
X62885729Y-119192279D01*
X63070970Y-119068505D01*
X63228505Y-118910970D01*
X63352279Y-118725729D01*
X63437536Y-118519900D01*
X63481000Y-118301394D01*
X63481000Y-118078606D01*
X63470328Y-118024950D01*
X68938000Y-118024950D01*
X68938000Y-118175050D01*
X68967283Y-118322267D01*
X69024724Y-118460942D01*
X69108116Y-118585747D01*
X69214253Y-118691884D01*
X69339058Y-118775276D01*
X69477733Y-118832717D01*
X69624950Y-118862000D01*
X69775050Y-118862000D01*
X69922267Y-118832717D01*
X70060942Y-118775276D01*
X70173600Y-118700000D01*
X97612318Y-118700000D01*
X97638982Y-118970723D01*
X97717949Y-119231043D01*
X97846185Y-119470955D01*
X98018761Y-119681239D01*
X98229045Y-119853815D01*
X98468957Y-119982051D01*
X98729277Y-120061018D01*
X98932157Y-120081000D01*
X101067843Y-120081000D01*
X101270723Y-120061018D01*
X101531043Y-119982051D01*
X101770955Y-119853815D01*
X101981239Y-119681239D01*
X102153815Y-119470955D01*
X102282051Y-119231043D01*
X102361018Y-118970723D01*
X102387682Y-118700000D01*
X102361018Y-118429277D01*
X102282051Y-118168957D01*
X102153815Y-117929045D01*
X101981239Y-117718761D01*
X101770955Y-117546185D01*
X101531043Y-117417949D01*
X101270723Y-117338982D01*
X101067843Y-117319000D01*
X98932157Y-117319000D01*
X98729277Y-117338982D01*
X98468957Y-117417949D01*
X98229045Y-117546185D01*
X98018761Y-117718761D01*
X97846185Y-117929045D01*
X97717949Y-118168957D01*
X97638982Y-118429277D01*
X97612318Y-118700000D01*
X70173600Y-118700000D01*
X70185747Y-118691884D01*
X70291884Y-118585747D01*
X70375276Y-118460942D01*
X70432717Y-118322267D01*
X70462000Y-118175050D01*
X70462000Y-118024950D01*
X70432717Y-117877733D01*
X70375276Y-117739058D01*
X70291884Y-117614253D01*
X70185747Y-117508116D01*
X70060942Y-117424724D01*
X69922267Y-117367283D01*
X69775050Y-117338000D01*
X69624950Y-117338000D01*
X69477733Y-117367283D01*
X69339058Y-117424724D01*
X69214253Y-117508116D01*
X69108116Y-117614253D01*
X69024724Y-117739058D01*
X68967283Y-117877733D01*
X68938000Y-118024950D01*
X63470328Y-118024950D01*
X63437536Y-117860100D01*
X63352279Y-117654271D01*
X63228505Y-117469030D01*
X63070970Y-117311495D01*
X62885729Y-117187721D01*
X62679900Y-117102464D01*
X62461394Y-117059000D01*
X62238606Y-117059000D01*
X62020100Y-117102464D01*
X61814271Y-117187721D01*
X61629030Y-117311495D01*
X61471495Y-117469030D01*
X61347721Y-117654271D01*
X61262464Y-117860100D01*
X61219000Y-118078606D01*
X58601000Y-118078606D01*
X58557536Y-117860100D01*
X58472279Y-117654271D01*
X58348505Y-117469030D01*
X58190970Y-117311495D01*
X58005729Y-117187721D01*
X57799900Y-117102464D01*
X57581394Y-117059000D01*
X57358606Y-117059000D01*
X57140100Y-117102464D01*
X56934271Y-117187721D01*
X56749030Y-117311495D01*
X56591495Y-117469030D01*
X56467721Y-117654271D01*
X56382464Y-117860100D01*
X56339000Y-118078606D01*
X50431000Y-118078606D01*
X50431000Y-115023950D01*
X69437000Y-115023950D01*
X69437000Y-115174050D01*
X69466283Y-115321267D01*
X69523724Y-115459942D01*
X69607116Y-115584747D01*
X69713253Y-115690884D01*
X69838058Y-115774276D01*
X69976733Y-115831717D01*
X70123950Y-115861000D01*
X70274050Y-115861000D01*
X70421267Y-115831717D01*
X70559942Y-115774276D01*
X70684747Y-115690884D01*
X70790884Y-115584747D01*
X70874276Y-115459942D01*
X70931717Y-115321267D01*
X70961000Y-115174050D01*
X70961000Y-115023950D01*
X70931717Y-114876733D01*
X70874276Y-114738058D01*
X70790884Y-114613253D01*
X70684747Y-114507116D01*
X70559942Y-114423724D01*
X70421267Y-114366283D01*
X70274050Y-114337000D01*
X70123950Y-114337000D01*
X69976733Y-114366283D01*
X69838058Y-114423724D01*
X69713253Y-114507116D01*
X69607116Y-114613253D01*
X69523724Y-114738058D01*
X69466283Y-114876733D01*
X69437000Y-115023950D01*
X50431000Y-115023950D01*
X50431000Y-106424950D01*
X87738000Y-106424950D01*
X87738000Y-106575050D01*
X87767283Y-106722267D01*
X87824724Y-106860942D01*
X87908116Y-106985747D01*
X88014253Y-107091884D01*
X88139058Y-107175276D01*
X88277733Y-107232717D01*
X88424950Y-107262000D01*
X88575050Y-107262000D01*
X88722267Y-107232717D01*
X88860942Y-107175276D01*
X88985747Y-107091884D01*
X89091884Y-106985747D01*
X89175276Y-106860942D01*
X89232717Y-106722267D01*
X89262000Y-106575050D01*
X89262000Y-106424950D01*
X89232717Y-106277733D01*
X89175276Y-106139058D01*
X89091884Y-106014253D01*
X88985747Y-105908116D01*
X88860942Y-105824724D01*
X88722267Y-105767283D01*
X88575050Y-105738000D01*
X88424950Y-105738000D01*
X88277733Y-105767283D01*
X88139058Y-105824724D01*
X88014253Y-105908116D01*
X87908116Y-106014253D01*
X87824724Y-106139058D01*
X87767283Y-106277733D01*
X87738000Y-106424950D01*
X50431000Y-106424950D01*
X50431000Y-101256978D01*
X72605972Y-101256978D01*
X72605972Y-101407078D01*
X72635255Y-101554295D01*
X72692696Y-101692970D01*
X72776088Y-101817775D01*
X72882225Y-101923912D01*
X73007030Y-102007304D01*
X73145705Y-102064745D01*
X73292922Y-102094028D01*
X73443022Y-102094028D01*
X73590239Y-102064745D01*
X73728914Y-102007304D01*
X73853719Y-101923912D01*
X73959856Y-101817775D01*
X74043248Y-101692970D01*
X74100689Y-101554295D01*
X74129972Y-101407078D01*
X74129972Y-101256978D01*
X74100689Y-101109761D01*
X74043248Y-100971086D01*
X73959856Y-100846281D01*
X73853719Y-100740144D01*
X73728914Y-100656752D01*
X73590239Y-100599311D01*
X73443022Y-100570028D01*
X73292922Y-100570028D01*
X73145705Y-100599311D01*
X73007030Y-100656752D01*
X72882225Y-100740144D01*
X72776088Y-100846281D01*
X72692696Y-100971086D01*
X72635255Y-101109761D01*
X72605972Y-101256978D01*
X50431000Y-101256978D01*
X50431000Y-99762450D01*
X69600500Y-99762450D01*
X69600500Y-99912550D01*
X69629783Y-100059767D01*
X69687224Y-100198442D01*
X69770616Y-100323247D01*
X69876753Y-100429384D01*
X70001558Y-100512776D01*
X70140233Y-100570217D01*
X70287450Y-100599500D01*
X70437550Y-100599500D01*
X70584767Y-100570217D01*
X70723442Y-100512776D01*
X70848247Y-100429384D01*
X70954384Y-100323247D01*
X71037776Y-100198442D01*
X71095217Y-100059767D01*
X71124500Y-99912550D01*
X71124500Y-99762450D01*
X71095217Y-99615233D01*
X71037776Y-99476558D01*
X70954384Y-99351753D01*
X70848247Y-99245616D01*
X70723442Y-99162224D01*
X70584767Y-99104783D01*
X70437550Y-99075500D01*
X70287450Y-99075500D01*
X70140233Y-99104783D01*
X70001558Y-99162224D01*
X69876753Y-99245616D01*
X69770616Y-99351753D01*
X69687224Y-99476558D01*
X69629783Y-99615233D01*
X69600500Y-99762450D01*
X50431000Y-99762450D01*
X50431000Y-96469950D01*
X61603000Y-96469950D01*
X61603000Y-96620050D01*
X61632283Y-96767267D01*
X61689724Y-96905942D01*
X61773116Y-97030747D01*
X61879253Y-97136884D01*
X62004058Y-97220276D01*
X62142733Y-97277717D01*
X62289950Y-97307000D01*
X62440050Y-97307000D01*
X62587267Y-97277717D01*
X62725942Y-97220276D01*
X62850747Y-97136884D01*
X62956884Y-97030747D01*
X63040276Y-96905942D01*
X63097717Y-96767267D01*
X63127000Y-96620050D01*
X63127000Y-96524950D01*
X74938000Y-96524950D01*
X74938000Y-96675050D01*
X74967283Y-96822267D01*
X75024724Y-96960942D01*
X75108116Y-97085747D01*
X75214253Y-97191884D01*
X75339058Y-97275276D01*
X75477733Y-97332717D01*
X75624950Y-97362000D01*
X75775050Y-97362000D01*
X75922267Y-97332717D01*
X76060942Y-97275276D01*
X76185747Y-97191884D01*
X76291884Y-97085747D01*
X76375276Y-96960942D01*
X76432717Y-96822267D01*
X76462000Y-96675050D01*
X76462000Y-96524950D01*
X76432717Y-96377733D01*
X76375276Y-96239058D01*
X76291884Y-96114253D01*
X76185747Y-96008116D01*
X76060942Y-95924724D01*
X75922267Y-95867283D01*
X75775050Y-95838000D01*
X75624950Y-95838000D01*
X75477733Y-95867283D01*
X75339058Y-95924724D01*
X75214253Y-96008116D01*
X75108116Y-96114253D01*
X75024724Y-96239058D01*
X74967283Y-96377733D01*
X74938000Y-96524950D01*
X63127000Y-96524950D01*
X63127000Y-96469950D01*
X63097717Y-96322733D01*
X63040276Y-96184058D01*
X62956884Y-96059253D01*
X62850747Y-95953116D01*
X62725942Y-95869724D01*
X62587267Y-95812283D01*
X62440050Y-95783000D01*
X62289950Y-95783000D01*
X62142733Y-95812283D01*
X62004058Y-95869724D01*
X61879253Y-95953116D01*
X61773116Y-96059253D01*
X61689724Y-96184058D01*
X61632283Y-96322733D01*
X61603000Y-96469950D01*
X50431000Y-96469950D01*
X50431000Y-95184950D01*
X60078000Y-95184950D01*
X60078000Y-95335050D01*
X60107283Y-95482267D01*
X60164724Y-95620942D01*
X60248116Y-95745747D01*
X60354253Y-95851884D01*
X60479058Y-95935276D01*
X60617733Y-95992717D01*
X60764950Y-96022000D01*
X60915050Y-96022000D01*
X61062267Y-95992717D01*
X61200942Y-95935276D01*
X61325747Y-95851884D01*
X61431884Y-95745747D01*
X61434580Y-95741711D01*
X104054761Y-95741711D01*
X104054761Y-95891811D01*
X104084044Y-96039028D01*
X104141485Y-96177703D01*
X104224877Y-96302508D01*
X104331014Y-96408645D01*
X104455819Y-96492037D01*
X104594494Y-96549478D01*
X104741711Y-96578761D01*
X104891811Y-96578761D01*
X105039028Y-96549478D01*
X105177703Y-96492037D01*
X105302508Y-96408645D01*
X105408645Y-96302508D01*
X105492037Y-96177703D01*
X105549478Y-96039028D01*
X105578761Y-95891811D01*
X105578761Y-95741711D01*
X105549478Y-95594494D01*
X105492037Y-95455819D01*
X105408645Y-95331014D01*
X105302508Y-95224877D01*
X105177703Y-95141485D01*
X105039028Y-95084044D01*
X104891811Y-95054761D01*
X104741711Y-95054761D01*
X104594494Y-95084044D01*
X104455819Y-95141485D01*
X104331014Y-95224877D01*
X104224877Y-95331014D01*
X104141485Y-95455819D01*
X104084044Y-95594494D01*
X104054761Y-95741711D01*
X61434580Y-95741711D01*
X61515276Y-95620942D01*
X61572717Y-95482267D01*
X61602000Y-95335050D01*
X61602000Y-95184950D01*
X61572717Y-95037733D01*
X61515276Y-94899058D01*
X61431884Y-94774253D01*
X61325747Y-94668116D01*
X61200942Y-94584724D01*
X61062267Y-94527283D01*
X60915050Y-94498000D01*
X60764950Y-94498000D01*
X60617733Y-94527283D01*
X60479058Y-94584724D01*
X60354253Y-94668116D01*
X60248116Y-94774253D01*
X60164724Y-94899058D01*
X60107283Y-95037733D01*
X60078000Y-95184950D01*
X50431000Y-95184950D01*
X50431000Y-93904950D01*
X63648000Y-93904950D01*
X63648000Y-94055050D01*
X63677283Y-94202267D01*
X63734724Y-94340942D01*
X63818116Y-94465747D01*
X63924253Y-94571884D01*
X64049058Y-94655276D01*
X64187733Y-94712717D01*
X64334950Y-94742000D01*
X64485050Y-94742000D01*
X64632267Y-94712717D01*
X64770942Y-94655276D01*
X64895747Y-94571884D01*
X65001884Y-94465747D01*
X65029143Y-94424950D01*
X83438000Y-94424950D01*
X83438000Y-94575050D01*
X83467283Y-94722267D01*
X83524724Y-94860942D01*
X83608116Y-94985747D01*
X83714253Y-95091884D01*
X83839058Y-95175276D01*
X83977733Y-95232717D01*
X84124950Y-95262000D01*
X84275050Y-95262000D01*
X84422267Y-95232717D01*
X84560942Y-95175276D01*
X84685747Y-95091884D01*
X84791884Y-94985747D01*
X84875276Y-94860942D01*
X84932717Y-94722267D01*
X84962000Y-94575050D01*
X84962000Y-94424950D01*
X84932717Y-94277733D01*
X84875276Y-94139058D01*
X84791884Y-94014253D01*
X84685747Y-93908116D01*
X84560942Y-93824724D01*
X84422267Y-93767283D01*
X84275050Y-93738000D01*
X84124950Y-93738000D01*
X83977733Y-93767283D01*
X83839058Y-93824724D01*
X83714253Y-93908116D01*
X83608116Y-94014253D01*
X83524724Y-94139058D01*
X83467283Y-94277733D01*
X83438000Y-94424950D01*
X65029143Y-94424950D01*
X65085276Y-94340942D01*
X65142717Y-94202267D01*
X65172000Y-94055050D01*
X65172000Y-93904950D01*
X65142717Y-93757733D01*
X65085276Y-93619058D01*
X65001884Y-93494253D01*
X64895747Y-93388116D01*
X64770942Y-93304724D01*
X64632267Y-93247283D01*
X64485050Y-93218000D01*
X64334950Y-93218000D01*
X64187733Y-93247283D01*
X64049058Y-93304724D01*
X63924253Y-93388116D01*
X63818116Y-93494253D01*
X63734724Y-93619058D01*
X63677283Y-93757733D01*
X63648000Y-93904950D01*
X50431000Y-93904950D01*
X50431000Y-92724950D01*
X62238000Y-92724950D01*
X62238000Y-92875050D01*
X62267283Y-93022267D01*
X62324724Y-93160942D01*
X62408116Y-93285747D01*
X62514253Y-93391884D01*
X62639058Y-93475276D01*
X62777733Y-93532717D01*
X62924950Y-93562000D01*
X63075050Y-93562000D01*
X63222267Y-93532717D01*
X63360942Y-93475276D01*
X63485747Y-93391884D01*
X63591884Y-93285747D01*
X63675276Y-93160942D01*
X63732717Y-93022267D01*
X63752074Y-92924950D01*
X104988000Y-92924950D01*
X104988000Y-93075050D01*
X105017283Y-93222267D01*
X105074724Y-93360942D01*
X105158116Y-93485747D01*
X105264253Y-93591884D01*
X105389058Y-93675276D01*
X105527733Y-93732717D01*
X105674950Y-93762000D01*
X105825050Y-93762000D01*
X105972267Y-93732717D01*
X106110942Y-93675276D01*
X106235747Y-93591884D01*
X106341884Y-93485747D01*
X106425276Y-93360942D01*
X106482717Y-93222267D01*
X106512000Y-93075050D01*
X106512000Y-92924950D01*
X106482717Y-92777733D01*
X106425276Y-92639058D01*
X106341884Y-92514253D01*
X106235747Y-92408116D01*
X106110942Y-92324724D01*
X105972267Y-92267283D01*
X105825050Y-92238000D01*
X105674950Y-92238000D01*
X105527733Y-92267283D01*
X105389058Y-92324724D01*
X105264253Y-92408116D01*
X105158116Y-92514253D01*
X105074724Y-92639058D01*
X105017283Y-92777733D01*
X104988000Y-92924950D01*
X63752074Y-92924950D01*
X63762000Y-92875050D01*
X63762000Y-92724950D01*
X63732717Y-92577733D01*
X63675276Y-92439058D01*
X63591884Y-92314253D01*
X63485747Y-92208116D01*
X63360942Y-92124724D01*
X63222267Y-92067283D01*
X63075050Y-92038000D01*
X62924950Y-92038000D01*
X62777733Y-92067283D01*
X62639058Y-92124724D01*
X62514253Y-92208116D01*
X62408116Y-92314253D01*
X62324724Y-92439058D01*
X62267283Y-92577733D01*
X62238000Y-92724950D01*
X50431000Y-92724950D01*
X50431000Y-90129950D01*
X59683000Y-90129950D01*
X59683000Y-90280050D01*
X59712283Y-90427267D01*
X59769724Y-90565942D01*
X59853116Y-90690747D01*
X59959253Y-90796884D01*
X60084058Y-90880276D01*
X60222733Y-90937717D01*
X60369950Y-90967000D01*
X60520050Y-90967000D01*
X60667267Y-90937717D01*
X60805942Y-90880276D01*
X60930747Y-90796884D01*
X61036884Y-90690747D01*
X61120276Y-90565942D01*
X61177717Y-90427267D01*
X61178177Y-90424950D01*
X83438000Y-90424950D01*
X83438000Y-90575050D01*
X83467283Y-90722267D01*
X83524724Y-90860942D01*
X83608116Y-90985747D01*
X83714253Y-91091884D01*
X83839058Y-91175276D01*
X83977733Y-91232717D01*
X84124950Y-91262000D01*
X84275050Y-91262000D01*
X84422267Y-91232717D01*
X84560942Y-91175276D01*
X84685747Y-91091884D01*
X84791884Y-90985747D01*
X84875276Y-90860942D01*
X84932717Y-90722267D01*
X84962000Y-90575050D01*
X84962000Y-90424950D01*
X84932717Y-90277733D01*
X84875276Y-90139058D01*
X84791884Y-90014253D01*
X84685747Y-89908116D01*
X84560942Y-89824724D01*
X84422267Y-89767283D01*
X84275050Y-89738000D01*
X84124950Y-89738000D01*
X83977733Y-89767283D01*
X83839058Y-89824724D01*
X83714253Y-89908116D01*
X83608116Y-90014253D01*
X83524724Y-90139058D01*
X83467283Y-90277733D01*
X83438000Y-90424950D01*
X61178177Y-90424950D01*
X61207000Y-90280050D01*
X61207000Y-90129950D01*
X61177717Y-89982733D01*
X61120276Y-89844058D01*
X61036884Y-89719253D01*
X60930747Y-89613116D01*
X60805942Y-89529724D01*
X60667267Y-89472283D01*
X60520050Y-89443000D01*
X60369950Y-89443000D01*
X60222733Y-89472283D01*
X60084058Y-89529724D01*
X59959253Y-89613116D01*
X59853116Y-89719253D01*
X59769724Y-89844058D01*
X59712283Y-89982733D01*
X59683000Y-90129950D01*
X50431000Y-90129950D01*
X50431000Y-87224950D01*
X53138000Y-87224950D01*
X53138000Y-87375050D01*
X53167283Y-87522267D01*
X53224724Y-87660942D01*
X53308116Y-87785747D01*
X53414253Y-87891884D01*
X53539058Y-87975276D01*
X53677733Y-88032717D01*
X53824950Y-88062000D01*
X53975050Y-88062000D01*
X54122267Y-88032717D01*
X54260942Y-87975276D01*
X54385747Y-87891884D01*
X54491884Y-87785747D01*
X54575276Y-87660942D01*
X54631605Y-87524950D01*
X81738000Y-87524950D01*
X81738000Y-87675050D01*
X81767283Y-87822267D01*
X81824724Y-87960942D01*
X81908116Y-88085747D01*
X82014253Y-88191884D01*
X82139058Y-88275276D01*
X82277733Y-88332717D01*
X82424950Y-88362000D01*
X82575050Y-88362000D01*
X82722267Y-88332717D01*
X82860942Y-88275276D01*
X82985747Y-88191884D01*
X83091884Y-88085747D01*
X83175276Y-87960942D01*
X83232717Y-87822267D01*
X83262000Y-87675050D01*
X83262000Y-87524950D01*
X83232717Y-87377733D01*
X83175276Y-87239058D01*
X83091884Y-87114253D01*
X82985747Y-87008116D01*
X82860942Y-86924724D01*
X82722267Y-86867283D01*
X82575050Y-86838000D01*
X82424950Y-86838000D01*
X82277733Y-86867283D01*
X82139058Y-86924724D01*
X82014253Y-87008116D01*
X81908116Y-87114253D01*
X81824724Y-87239058D01*
X81767283Y-87377733D01*
X81738000Y-87524950D01*
X54631605Y-87524950D01*
X54632717Y-87522267D01*
X54662000Y-87375050D01*
X54662000Y-87224950D01*
X54632717Y-87077733D01*
X54575276Y-86939058D01*
X54491884Y-86814253D01*
X54385747Y-86708116D01*
X54260942Y-86624724D01*
X54122267Y-86567283D01*
X53975050Y-86538000D01*
X53824950Y-86538000D01*
X53677733Y-86567283D01*
X53539058Y-86624724D01*
X53414253Y-86708116D01*
X53308116Y-86814253D01*
X53224724Y-86939058D01*
X53167283Y-87077733D01*
X53138000Y-87224950D01*
X50431000Y-87224950D01*
X50431000Y-86024950D01*
X99300500Y-86024950D01*
X99300500Y-86175050D01*
X99329783Y-86322267D01*
X99387224Y-86460942D01*
X99470616Y-86585747D01*
X99576753Y-86691884D01*
X99701558Y-86775276D01*
X99840233Y-86832717D01*
X99987450Y-86862000D01*
X100137550Y-86862000D01*
X100284767Y-86832717D01*
X100423442Y-86775276D01*
X100548247Y-86691884D01*
X100654384Y-86585747D01*
X100737776Y-86460942D01*
X100795217Y-86322267D01*
X100824500Y-86175050D01*
X100824500Y-86024950D01*
X100795217Y-85877733D01*
X100737776Y-85739058D01*
X100654384Y-85614253D01*
X100548247Y-85508116D01*
X100423442Y-85424724D01*
X100284767Y-85367283D01*
X100137550Y-85338000D01*
X99987450Y-85338000D01*
X99840233Y-85367283D01*
X99701558Y-85424724D01*
X99576753Y-85508116D01*
X99470616Y-85614253D01*
X99387224Y-85739058D01*
X99329783Y-85877733D01*
X99300500Y-86024950D01*
X50431000Y-86024950D01*
X50431000Y-84999950D01*
X55363000Y-84999950D01*
X55363000Y-85150050D01*
X55392283Y-85297267D01*
X55449724Y-85435942D01*
X55533116Y-85560747D01*
X55639253Y-85666884D01*
X55764058Y-85750276D01*
X55902733Y-85807717D01*
X56049950Y-85837000D01*
X56200050Y-85837000D01*
X56347267Y-85807717D01*
X56485942Y-85750276D01*
X56610747Y-85666884D01*
X56716884Y-85560747D01*
X56800276Y-85435942D01*
X56857717Y-85297267D01*
X56887000Y-85150050D01*
X56887000Y-84999950D01*
X56857717Y-84852733D01*
X56800276Y-84714058D01*
X56716884Y-84589253D01*
X56610747Y-84483116D01*
X56485942Y-84399724D01*
X56347267Y-84342283D01*
X56260128Y-84324950D01*
X59338000Y-84324950D01*
X59338000Y-84475050D01*
X59367283Y-84622267D01*
X59424724Y-84760942D01*
X59508116Y-84885747D01*
X59614253Y-84991884D01*
X59739058Y-85075276D01*
X59877733Y-85132717D01*
X60024950Y-85162000D01*
X60175050Y-85162000D01*
X60322267Y-85132717D01*
X60460942Y-85075276D01*
X60585747Y-84991884D01*
X60691884Y-84885747D01*
X60775276Y-84760942D01*
X60832717Y-84622267D01*
X60862000Y-84475050D01*
X60862000Y-84324950D01*
X60832717Y-84177733D01*
X60775276Y-84039058D01*
X60691884Y-83914253D01*
X60602581Y-83824950D01*
X87700500Y-83824950D01*
X87700500Y-83975050D01*
X87729783Y-84122267D01*
X87787224Y-84260942D01*
X87870616Y-84385747D01*
X87976753Y-84491884D01*
X88101558Y-84575276D01*
X88240233Y-84632717D01*
X88387450Y-84662000D01*
X88537550Y-84662000D01*
X88684767Y-84632717D01*
X88823442Y-84575276D01*
X88948247Y-84491884D01*
X89054384Y-84385747D01*
X89137776Y-84260942D01*
X89195217Y-84122267D01*
X89224500Y-83975050D01*
X89224500Y-83824950D01*
X89195217Y-83677733D01*
X89137776Y-83539058D01*
X89054384Y-83414253D01*
X88948247Y-83308116D01*
X88823442Y-83224724D01*
X88684767Y-83167283D01*
X88537550Y-83138000D01*
X88387450Y-83138000D01*
X88240233Y-83167283D01*
X88101558Y-83224724D01*
X87976753Y-83308116D01*
X87870616Y-83414253D01*
X87787224Y-83539058D01*
X87729783Y-83677733D01*
X87700500Y-83824950D01*
X60602581Y-83824950D01*
X60585747Y-83808116D01*
X60460942Y-83724724D01*
X60322267Y-83667283D01*
X60175050Y-83638000D01*
X60024950Y-83638000D01*
X59877733Y-83667283D01*
X59739058Y-83724724D01*
X59614253Y-83808116D01*
X59508116Y-83914253D01*
X59424724Y-84039058D01*
X59367283Y-84177733D01*
X59338000Y-84324950D01*
X56260128Y-84324950D01*
X56200050Y-84313000D01*
X56049950Y-84313000D01*
X55902733Y-84342283D01*
X55764058Y-84399724D01*
X55639253Y-84483116D01*
X55533116Y-84589253D01*
X55449724Y-84714058D01*
X55392283Y-84852733D01*
X55363000Y-84999950D01*
X50431000Y-84999950D01*
X50431000Y-82024950D01*
X67538000Y-82024950D01*
X67538000Y-82175050D01*
X67567283Y-82322267D01*
X67624724Y-82460942D01*
X67708116Y-82585747D01*
X67814253Y-82691884D01*
X67939058Y-82775276D01*
X68077733Y-82832717D01*
X68224950Y-82862000D01*
X68375050Y-82862000D01*
X68522267Y-82832717D01*
X68660942Y-82775276D01*
X68785747Y-82691884D01*
X68891884Y-82585747D01*
X68975276Y-82460942D01*
X69032717Y-82322267D01*
X69062000Y-82175050D01*
X69062000Y-82024950D01*
X69032717Y-81877733D01*
X69010854Y-81824950D01*
X81738000Y-81824950D01*
X81738000Y-81975050D01*
X81767283Y-82122267D01*
X81824724Y-82260942D01*
X81908116Y-82385747D01*
X82014253Y-82491884D01*
X82139058Y-82575276D01*
X82277733Y-82632717D01*
X82424950Y-82662000D01*
X82575050Y-82662000D01*
X82722267Y-82632717D01*
X82860942Y-82575276D01*
X82985747Y-82491884D01*
X83091884Y-82385747D01*
X83175276Y-82260942D01*
X83232717Y-82122267D01*
X83252074Y-82024950D01*
X100538000Y-82024950D01*
X100538000Y-82175050D01*
X100567283Y-82322267D01*
X100624724Y-82460942D01*
X100708116Y-82585747D01*
X100814253Y-82691884D01*
X100939058Y-82775276D01*
X101077733Y-82832717D01*
X101224950Y-82862000D01*
X101375050Y-82862000D01*
X101522267Y-82832717D01*
X101660942Y-82775276D01*
X101785747Y-82691884D01*
X101891884Y-82585747D01*
X101975276Y-82460942D01*
X102032717Y-82322267D01*
X102062000Y-82175050D01*
X102062000Y-82024950D01*
X102032717Y-81877733D01*
X101975276Y-81739058D01*
X101891884Y-81614253D01*
X101785747Y-81508116D01*
X101660942Y-81424724D01*
X101522267Y-81367283D01*
X101375050Y-81338000D01*
X101224950Y-81338000D01*
X101077733Y-81367283D01*
X100939058Y-81424724D01*
X100814253Y-81508116D01*
X100708116Y-81614253D01*
X100624724Y-81739058D01*
X100567283Y-81877733D01*
X100538000Y-82024950D01*
X83252074Y-82024950D01*
X83262000Y-81975050D01*
X83262000Y-81824950D01*
X83232717Y-81677733D01*
X83175276Y-81539058D01*
X83091884Y-81414253D01*
X82985747Y-81308116D01*
X82860942Y-81224724D01*
X82722267Y-81167283D01*
X82575050Y-81138000D01*
X82424950Y-81138000D01*
X82277733Y-81167283D01*
X82139058Y-81224724D01*
X82014253Y-81308116D01*
X81908116Y-81414253D01*
X81824724Y-81539058D01*
X81767283Y-81677733D01*
X81738000Y-81824950D01*
X69010854Y-81824950D01*
X68975276Y-81739058D01*
X68891884Y-81614253D01*
X68785747Y-81508116D01*
X68660942Y-81424724D01*
X68522267Y-81367283D01*
X68375050Y-81338000D01*
X68224950Y-81338000D01*
X68077733Y-81367283D01*
X67939058Y-81424724D01*
X67814253Y-81508116D01*
X67708116Y-81614253D01*
X67624724Y-81739058D01*
X67567283Y-81877733D01*
X67538000Y-82024950D01*
X50431000Y-82024950D01*
X50431000Y-80224950D01*
X76738000Y-80224950D01*
X76738000Y-80375050D01*
X76767283Y-80522267D01*
X76824724Y-80660942D01*
X76908116Y-80785747D01*
X77014253Y-80891884D01*
X77139058Y-80975276D01*
X77277733Y-81032717D01*
X77424950Y-81062000D01*
X77575050Y-81062000D01*
X77722267Y-81032717D01*
X77860942Y-80975276D01*
X77985747Y-80891884D01*
X78091884Y-80785747D01*
X78175276Y-80660942D01*
X78232717Y-80522267D01*
X78262000Y-80375050D01*
X78262000Y-80224950D01*
X78232717Y-80077733D01*
X78188077Y-79969961D01*
X103083011Y-79969961D01*
X103083011Y-80120061D01*
X103112294Y-80267278D01*
X103169735Y-80405953D01*
X103253127Y-80530758D01*
X103359264Y-80636895D01*
X103484069Y-80720287D01*
X103622744Y-80777728D01*
X103769961Y-80807011D01*
X103920061Y-80807011D01*
X104067278Y-80777728D01*
X104205953Y-80720287D01*
X104330758Y-80636895D01*
X104436895Y-80530758D01*
X104520287Y-80405953D01*
X104577728Y-80267278D01*
X104607011Y-80120061D01*
X104607011Y-79969961D01*
X104577728Y-79822744D01*
X104520287Y-79684069D01*
X104436895Y-79559264D01*
X104330758Y-79453127D01*
X104205953Y-79369735D01*
X104067278Y-79312294D01*
X103920061Y-79283011D01*
X103769961Y-79283011D01*
X103622744Y-79312294D01*
X103484069Y-79369735D01*
X103359264Y-79453127D01*
X103253127Y-79559264D01*
X103169735Y-79684069D01*
X103112294Y-79822744D01*
X103083011Y-79969961D01*
X78188077Y-79969961D01*
X78175276Y-79939058D01*
X78091884Y-79814253D01*
X77985747Y-79708116D01*
X77860942Y-79624724D01*
X77722267Y-79567283D01*
X77575050Y-79538000D01*
X77424950Y-79538000D01*
X77277733Y-79567283D01*
X77139058Y-79624724D01*
X77014253Y-79708116D01*
X76908116Y-79814253D01*
X76824724Y-79939058D01*
X76767283Y-80077733D01*
X76738000Y-80224950D01*
X50431000Y-80224950D01*
X50431000Y-78674950D01*
X85088000Y-78674950D01*
X85088000Y-78825050D01*
X85117283Y-78972267D01*
X85174724Y-79110942D01*
X85258116Y-79235747D01*
X85364253Y-79341884D01*
X85489058Y-79425276D01*
X85627733Y-79482717D01*
X85774950Y-79512000D01*
X85925050Y-79512000D01*
X86072267Y-79482717D01*
X86210942Y-79425276D01*
X86335747Y-79341884D01*
X86441884Y-79235747D01*
X86525276Y-79110942D01*
X86582717Y-78972267D01*
X86612000Y-78825050D01*
X86612000Y-78674950D01*
X86582717Y-78527733D01*
X86525276Y-78389058D01*
X86441884Y-78264253D01*
X86335747Y-78158116D01*
X86210942Y-78074724D01*
X86072267Y-78017283D01*
X85925050Y-77988000D01*
X85774950Y-77988000D01*
X85627733Y-78017283D01*
X85489058Y-78074724D01*
X85364253Y-78158116D01*
X85258116Y-78264253D01*
X85174724Y-78389058D01*
X85117283Y-78527733D01*
X85088000Y-78674950D01*
X50431000Y-78674950D01*
X50431000Y-76887450D01*
X76900500Y-76887450D01*
X76900500Y-77037550D01*
X76929783Y-77184767D01*
X76987224Y-77323442D01*
X77070616Y-77448247D01*
X77176753Y-77554384D01*
X77301558Y-77637776D01*
X77440233Y-77695217D01*
X77587450Y-77724500D01*
X77737550Y-77724500D01*
X77884767Y-77695217D01*
X78023442Y-77637776D01*
X78148247Y-77554384D01*
X78254384Y-77448247D01*
X78337776Y-77323442D01*
X78363039Y-77262450D01*
X81800500Y-77262450D01*
X81800500Y-77412550D01*
X81829783Y-77559767D01*
X81887224Y-77698442D01*
X81970616Y-77823247D01*
X82076753Y-77929384D01*
X82201558Y-78012776D01*
X82340233Y-78070217D01*
X82487450Y-78099500D01*
X82637550Y-78099500D01*
X82784767Y-78070217D01*
X82923442Y-78012776D01*
X83048247Y-77929384D01*
X83154384Y-77823247D01*
X83237776Y-77698442D01*
X83295217Y-77559767D01*
X83324500Y-77412550D01*
X83324500Y-77262450D01*
X83295217Y-77115233D01*
X83237776Y-76976558D01*
X83154384Y-76851753D01*
X83048247Y-76745616D01*
X82923442Y-76662224D01*
X82784767Y-76604783D01*
X82637550Y-76575500D01*
X82487450Y-76575500D01*
X82340233Y-76604783D01*
X82201558Y-76662224D01*
X82076753Y-76745616D01*
X81970616Y-76851753D01*
X81887224Y-76976558D01*
X81829783Y-77115233D01*
X81800500Y-77262450D01*
X78363039Y-77262450D01*
X78395217Y-77184767D01*
X78424500Y-77037550D01*
X78424500Y-76887450D01*
X78395217Y-76740233D01*
X78337776Y-76601558D01*
X78254384Y-76476753D01*
X78148247Y-76370616D01*
X78023442Y-76287224D01*
X77884767Y-76229783D01*
X77737550Y-76200500D01*
X77587450Y-76200500D01*
X77440233Y-76229783D01*
X77301558Y-76287224D01*
X77176753Y-76370616D01*
X77070616Y-76476753D01*
X76987224Y-76601558D01*
X76929783Y-76740233D01*
X76900500Y-76887450D01*
X50431000Y-76887450D01*
X50431000Y-74308390D01*
X59524560Y-74308390D01*
X59524560Y-74458490D01*
X59553843Y-74605707D01*
X59611284Y-74744382D01*
X59694676Y-74869187D01*
X59800813Y-74975324D01*
X59925618Y-75058716D01*
X60064293Y-75116157D01*
X60211510Y-75145440D01*
X60361610Y-75145440D01*
X60508827Y-75116157D01*
X60647502Y-75058716D01*
X60698036Y-75024950D01*
X95638000Y-75024950D01*
X95638000Y-75175050D01*
X95667283Y-75322267D01*
X95724724Y-75460942D01*
X95808116Y-75585747D01*
X95914253Y-75691884D01*
X96039058Y-75775276D01*
X96177733Y-75832717D01*
X96324950Y-75862000D01*
X96475050Y-75862000D01*
X96622267Y-75832717D01*
X96760942Y-75775276D01*
X96885747Y-75691884D01*
X96991884Y-75585747D01*
X97075276Y-75460942D01*
X97132717Y-75322267D01*
X97162000Y-75175050D01*
X97162000Y-75024950D01*
X97132717Y-74877733D01*
X97075276Y-74739058D01*
X96991884Y-74614253D01*
X96885747Y-74508116D01*
X96760942Y-74424724D01*
X96622267Y-74367283D01*
X96475050Y-74338000D01*
X96324950Y-74338000D01*
X96177733Y-74367283D01*
X96039058Y-74424724D01*
X95914253Y-74508116D01*
X95808116Y-74614253D01*
X95724724Y-74739058D01*
X95667283Y-74877733D01*
X95638000Y-75024950D01*
X60698036Y-75024950D01*
X60772307Y-74975324D01*
X60878444Y-74869187D01*
X60961836Y-74744382D01*
X61019277Y-74605707D01*
X61048560Y-74458490D01*
X61048560Y-74308390D01*
X61019277Y-74161173D01*
X60961836Y-74022498D01*
X60896657Y-73924950D01*
X74538000Y-73924950D01*
X74538000Y-74075050D01*
X74567283Y-74222267D01*
X74624724Y-74360942D01*
X74708116Y-74485747D01*
X74814253Y-74591884D01*
X74939058Y-74675276D01*
X75077733Y-74732717D01*
X75224950Y-74762000D01*
X75375050Y-74762000D01*
X75522267Y-74732717D01*
X75660942Y-74675276D01*
X75785747Y-74591884D01*
X75891884Y-74485747D01*
X75975276Y-74360942D01*
X76032717Y-74222267D01*
X76062000Y-74075050D01*
X76062000Y-73924950D01*
X76032717Y-73777733D01*
X75975276Y-73639058D01*
X75891884Y-73514253D01*
X75785747Y-73408116D01*
X75660942Y-73324724D01*
X75522267Y-73267283D01*
X75375050Y-73238000D01*
X75224950Y-73238000D01*
X75077733Y-73267283D01*
X74939058Y-73324724D01*
X74814253Y-73408116D01*
X74708116Y-73514253D01*
X74624724Y-73639058D01*
X74567283Y-73777733D01*
X74538000Y-73924950D01*
X60896657Y-73924950D01*
X60878444Y-73897693D01*
X60772307Y-73791556D01*
X60647502Y-73708164D01*
X60508827Y-73650723D01*
X60361610Y-73621440D01*
X60211510Y-73621440D01*
X60064293Y-73650723D01*
X59925618Y-73708164D01*
X59800813Y-73791556D01*
X59694676Y-73897693D01*
X59611284Y-74022498D01*
X59553843Y-74161173D01*
X59524560Y-74308390D01*
X50431000Y-74308390D01*
X50431000Y-71024950D01*
X59038000Y-71024950D01*
X59038000Y-71175050D01*
X59067283Y-71322267D01*
X59124724Y-71460942D01*
X59208116Y-71585747D01*
X59314253Y-71691884D01*
X59439058Y-71775276D01*
X59577733Y-71832717D01*
X59724950Y-71862000D01*
X59875050Y-71862000D01*
X60022267Y-71832717D01*
X60041018Y-71824950D01*
X85438000Y-71824950D01*
X85438000Y-71975050D01*
X85467283Y-72122267D01*
X85524724Y-72260942D01*
X85608116Y-72385747D01*
X85714253Y-72491884D01*
X85839058Y-72575276D01*
X85977733Y-72632717D01*
X86124950Y-72662000D01*
X86275050Y-72662000D01*
X86422267Y-72632717D01*
X86560942Y-72575276D01*
X86685747Y-72491884D01*
X86791884Y-72385747D01*
X86875276Y-72260942D01*
X86932717Y-72122267D01*
X86962000Y-71975050D01*
X86962000Y-71824950D01*
X86932717Y-71677733D01*
X86875276Y-71539058D01*
X86791884Y-71414253D01*
X86685747Y-71308116D01*
X86560942Y-71224724D01*
X86422267Y-71167283D01*
X86275050Y-71138000D01*
X86124950Y-71138000D01*
X85977733Y-71167283D01*
X85839058Y-71224724D01*
X85714253Y-71308116D01*
X85608116Y-71414253D01*
X85524724Y-71539058D01*
X85467283Y-71677733D01*
X85438000Y-71824950D01*
X60041018Y-71824950D01*
X60160942Y-71775276D01*
X60285747Y-71691884D01*
X60391884Y-71585747D01*
X60475276Y-71460942D01*
X60532717Y-71322267D01*
X60562000Y-71175050D01*
X60562000Y-71024950D01*
X60532717Y-70877733D01*
X60475276Y-70739058D01*
X60391884Y-70614253D01*
X60285747Y-70508116D01*
X60160942Y-70424724D01*
X60022267Y-70367283D01*
X59875050Y-70338000D01*
X59724950Y-70338000D01*
X59577733Y-70367283D01*
X59439058Y-70424724D01*
X59314253Y-70508116D01*
X59208116Y-70614253D01*
X59124724Y-70739058D01*
X59067283Y-70877733D01*
X59038000Y-71024950D01*
X50431000Y-71024950D01*
X50431000Y-69587450D01*
X78538000Y-69587450D01*
X78538000Y-69737550D01*
X78567283Y-69884767D01*
X78624724Y-70023442D01*
X78708116Y-70148247D01*
X78814253Y-70254384D01*
X78939058Y-70337776D01*
X79077733Y-70395217D01*
X79224950Y-70424500D01*
X79375050Y-70424500D01*
X79522267Y-70395217D01*
X79660942Y-70337776D01*
X79785747Y-70254384D01*
X79891884Y-70148247D01*
X79975276Y-70023442D01*
X80032717Y-69884767D01*
X80062000Y-69737550D01*
X80062000Y-69624950D01*
X88675500Y-69624950D01*
X88675500Y-69775050D01*
X88704783Y-69922267D01*
X88762224Y-70060942D01*
X88845616Y-70185747D01*
X88951753Y-70291884D01*
X89076558Y-70375276D01*
X89215233Y-70432717D01*
X89362450Y-70462000D01*
X89512550Y-70462000D01*
X89659767Y-70432717D01*
X89798442Y-70375276D01*
X89923247Y-70291884D01*
X90029384Y-70185747D01*
X90112776Y-70060942D01*
X90170217Y-69922267D01*
X90199500Y-69775050D01*
X90199500Y-69624950D01*
X97075500Y-69624950D01*
X97075500Y-69775050D01*
X97104783Y-69922267D01*
X97162224Y-70060942D01*
X97245616Y-70185747D01*
X97351753Y-70291884D01*
X97476558Y-70375276D01*
X97615233Y-70432717D01*
X97762450Y-70462000D01*
X97912550Y-70462000D01*
X98059767Y-70432717D01*
X98198442Y-70375276D01*
X98323247Y-70291884D01*
X98429384Y-70185747D01*
X98512776Y-70060942D01*
X98570217Y-69922267D01*
X98599500Y-69775050D01*
X98599500Y-69624950D01*
X98570217Y-69477733D01*
X98512776Y-69339058D01*
X98429384Y-69214253D01*
X98323247Y-69108116D01*
X98198442Y-69024724D01*
X98059767Y-68967283D01*
X97912550Y-68938000D01*
X97762450Y-68938000D01*
X97615233Y-68967283D01*
X97476558Y-69024724D01*
X97351753Y-69108116D01*
X97245616Y-69214253D01*
X97162224Y-69339058D01*
X97104783Y-69477733D01*
X97075500Y-69624950D01*
X90199500Y-69624950D01*
X90170217Y-69477733D01*
X90112776Y-69339058D01*
X90029384Y-69214253D01*
X89923247Y-69108116D01*
X89798442Y-69024724D01*
X89659767Y-68967283D01*
X89512550Y-68938000D01*
X89362450Y-68938000D01*
X89215233Y-68967283D01*
X89076558Y-69024724D01*
X88951753Y-69108116D01*
X88845616Y-69214253D01*
X88762224Y-69339058D01*
X88704783Y-69477733D01*
X88675500Y-69624950D01*
X80062000Y-69624950D01*
X80062000Y-69587450D01*
X80032717Y-69440233D01*
X79975276Y-69301558D01*
X79891884Y-69176753D01*
X79785747Y-69070616D01*
X79660942Y-68987224D01*
X79522267Y-68929783D01*
X79375050Y-68900500D01*
X79224950Y-68900500D01*
X79077733Y-68929783D01*
X78939058Y-68987224D01*
X78814253Y-69070616D01*
X78708116Y-69176753D01*
X78624724Y-69301558D01*
X78567283Y-69440233D01*
X78538000Y-69587450D01*
X50431000Y-69587450D01*
X50431000Y-67787450D01*
X67400500Y-67787450D01*
X67400500Y-67937550D01*
X67429783Y-68084767D01*
X67487224Y-68223442D01*
X67570616Y-68348247D01*
X67676753Y-68454384D01*
X67801558Y-68537776D01*
X67940233Y-68595217D01*
X68087450Y-68624500D01*
X68237550Y-68624500D01*
X68384767Y-68595217D01*
X68523442Y-68537776D01*
X68648247Y-68454384D01*
X68754384Y-68348247D01*
X68837776Y-68223442D01*
X68895217Y-68084767D01*
X68924500Y-67937550D01*
X68924500Y-67787450D01*
X68895217Y-67640233D01*
X68837776Y-67501558D01*
X68754384Y-67376753D01*
X68648247Y-67270616D01*
X68523442Y-67187224D01*
X68384767Y-67129783D01*
X68237550Y-67100500D01*
X68087450Y-67100500D01*
X67940233Y-67129783D01*
X67801558Y-67187224D01*
X67676753Y-67270616D01*
X67570616Y-67376753D01*
X67487224Y-67501558D01*
X67429783Y-67640233D01*
X67400500Y-67787450D01*
X50431000Y-67787450D01*
X50431000Y-64209432D01*
X54084439Y-64209432D01*
X54094786Y-64243565D01*
X54177225Y-64433455D01*
X54295126Y-64603614D01*
X54443958Y-64747502D01*
X54618001Y-64859589D01*
X54810567Y-64935568D01*
X54973000Y-64873092D01*
X54973000Y-64047000D01*
X55227000Y-64047000D01*
X55227000Y-64873092D01*
X55389433Y-64935568D01*
X55581999Y-64859589D01*
X55756042Y-64747502D01*
X55904874Y-64603614D01*
X56022775Y-64433455D01*
X56105214Y-64243565D01*
X56115561Y-64209432D01*
X59284439Y-64209432D01*
X59294786Y-64243565D01*
X59377225Y-64433455D01*
X59495126Y-64603614D01*
X59643958Y-64747502D01*
X59818001Y-64859589D01*
X60010567Y-64935568D01*
X60173000Y-64873092D01*
X60173000Y-64047000D01*
X60427000Y-64047000D01*
X60427000Y-64873092D01*
X60589433Y-64935568D01*
X60781999Y-64859589D01*
X60956042Y-64747502D01*
X61104874Y-64603614D01*
X61222775Y-64433455D01*
X61305214Y-64243565D01*
X61315561Y-64209432D01*
X64484439Y-64209432D01*
X64494786Y-64243565D01*
X64577225Y-64433455D01*
X64695126Y-64603614D01*
X64843958Y-64747502D01*
X65018001Y-64859589D01*
X65210567Y-64935568D01*
X65373000Y-64873092D01*
X65373000Y-64047000D01*
X65627000Y-64047000D01*
X65627000Y-64873092D01*
X65789433Y-64935568D01*
X65981999Y-64859589D01*
X66156042Y-64747502D01*
X66304874Y-64603614D01*
X66422775Y-64433455D01*
X66505214Y-64243565D01*
X66515561Y-64209432D01*
X69584439Y-64209432D01*
X69594786Y-64243565D01*
X69677225Y-64433455D01*
X69795126Y-64603614D01*
X69943958Y-64747502D01*
X70118001Y-64859589D01*
X70310567Y-64935568D01*
X70473000Y-64873092D01*
X70473000Y-64047000D01*
X70727000Y-64047000D01*
X70727000Y-64873092D01*
X70889433Y-64935568D01*
X71081999Y-64859589D01*
X71256042Y-64747502D01*
X71404874Y-64603614D01*
X71522775Y-64433455D01*
X71542747Y-64387450D01*
X73138000Y-64387450D01*
X73138000Y-64537550D01*
X73167283Y-64684767D01*
X73224724Y-64823442D01*
X73308116Y-64948247D01*
X73414253Y-65054384D01*
X73539058Y-65137776D01*
X73677733Y-65195217D01*
X73824950Y-65224500D01*
X73975050Y-65224500D01*
X74122267Y-65195217D01*
X74260942Y-65137776D01*
X74385747Y-65054384D01*
X74491884Y-64948247D01*
X74575276Y-64823442D01*
X74632717Y-64684767D01*
X74662000Y-64537550D01*
X74662000Y-64387450D01*
X74632717Y-64240233D01*
X74575276Y-64101558D01*
X74491884Y-63976753D01*
X74385747Y-63870616D01*
X74260942Y-63787224D01*
X74122267Y-63729783D01*
X73975050Y-63700500D01*
X73824950Y-63700500D01*
X73677733Y-63729783D01*
X73539058Y-63787224D01*
X73414253Y-63870616D01*
X73308116Y-63976753D01*
X73224724Y-64101558D01*
X73167283Y-64240233D01*
X73138000Y-64387450D01*
X71542747Y-64387450D01*
X71605214Y-64243565D01*
X71615561Y-64209432D01*
X71552319Y-64047000D01*
X70727000Y-64047000D01*
X70473000Y-64047000D01*
X69647681Y-64047000D01*
X69584439Y-64209432D01*
X66515561Y-64209432D01*
X66452319Y-64047000D01*
X65627000Y-64047000D01*
X65373000Y-64047000D01*
X64547681Y-64047000D01*
X64484439Y-64209432D01*
X61315561Y-64209432D01*
X61252319Y-64047000D01*
X60427000Y-64047000D01*
X60173000Y-64047000D01*
X59347681Y-64047000D01*
X59284439Y-64209432D01*
X56115561Y-64209432D01*
X56052319Y-64047000D01*
X55227000Y-64047000D01*
X54973000Y-64047000D01*
X54147681Y-64047000D01*
X54084439Y-64209432D01*
X50431000Y-64209432D01*
X50431000Y-63630568D01*
X54084439Y-63630568D01*
X54147681Y-63793000D01*
X54973000Y-63793000D01*
X54973000Y-62966908D01*
X55227000Y-62966908D01*
X55227000Y-63793000D01*
X56052319Y-63793000D01*
X56115561Y-63630568D01*
X59284439Y-63630568D01*
X59347681Y-63793000D01*
X60173000Y-63793000D01*
X60173000Y-62966908D01*
X60427000Y-62966908D01*
X60427000Y-63793000D01*
X61252319Y-63793000D01*
X61315561Y-63630568D01*
X64484439Y-63630568D01*
X64547681Y-63793000D01*
X65373000Y-63793000D01*
X65373000Y-62966908D01*
X65627000Y-62966908D01*
X65627000Y-63793000D01*
X66452319Y-63793000D01*
X66515561Y-63630568D01*
X69584439Y-63630568D01*
X69647681Y-63793000D01*
X70473000Y-63793000D01*
X70473000Y-62966908D01*
X70727000Y-62966908D01*
X70727000Y-63793000D01*
X71552319Y-63793000D01*
X71615561Y-63630568D01*
X71605214Y-63596435D01*
X71522775Y-63406545D01*
X71404874Y-63236386D01*
X71296088Y-63131213D01*
X81938000Y-63131213D01*
X81938000Y-63281313D01*
X81967283Y-63428530D01*
X82024724Y-63567205D01*
X82108116Y-63692010D01*
X82214253Y-63798147D01*
X82339058Y-63881539D01*
X82477733Y-63938980D01*
X82624950Y-63968263D01*
X82775050Y-63968263D01*
X82922267Y-63938980D01*
X83060942Y-63881539D01*
X83185747Y-63798147D01*
X83291884Y-63692010D01*
X83375276Y-63567205D01*
X83432717Y-63428530D01*
X83462000Y-63281313D01*
X83462000Y-63131213D01*
X90544263Y-63131213D01*
X90544263Y-63281313D01*
X90573546Y-63428530D01*
X90630987Y-63567205D01*
X90714379Y-63692010D01*
X90820516Y-63798147D01*
X90945321Y-63881539D01*
X91083996Y-63938980D01*
X91231213Y-63968263D01*
X91381313Y-63968263D01*
X91528530Y-63938980D01*
X91667205Y-63881539D01*
X91792010Y-63798147D01*
X91898147Y-63692010D01*
X91981539Y-63567205D01*
X92038980Y-63428530D01*
X92068263Y-63281313D01*
X92068263Y-63131213D01*
X92038980Y-62983996D01*
X91981539Y-62845321D01*
X91898147Y-62720516D01*
X91792010Y-62614379D01*
X91667205Y-62530987D01*
X91528530Y-62473546D01*
X91381313Y-62444263D01*
X91231213Y-62444263D01*
X91083996Y-62473546D01*
X90945321Y-62530987D01*
X90820516Y-62614379D01*
X90714379Y-62720516D01*
X90630987Y-62845321D01*
X90573546Y-62983996D01*
X90544263Y-63131213D01*
X83462000Y-63131213D01*
X83432717Y-62983996D01*
X83375276Y-62845321D01*
X83291884Y-62720516D01*
X83185747Y-62614379D01*
X83060942Y-62530987D01*
X82922267Y-62473546D01*
X82775050Y-62444263D01*
X82624950Y-62444263D01*
X82477733Y-62473546D01*
X82339058Y-62530987D01*
X82214253Y-62614379D01*
X82108116Y-62720516D01*
X82024724Y-62845321D01*
X81967283Y-62983996D01*
X81938000Y-63131213D01*
X71296088Y-63131213D01*
X71256042Y-63092498D01*
X71081999Y-62980411D01*
X70889433Y-62904432D01*
X70727000Y-62966908D01*
X70473000Y-62966908D01*
X70310567Y-62904432D01*
X70118001Y-62980411D01*
X69943958Y-63092498D01*
X69795126Y-63236386D01*
X69677225Y-63406545D01*
X69594786Y-63596435D01*
X69584439Y-63630568D01*
X66515561Y-63630568D01*
X66505214Y-63596435D01*
X66422775Y-63406545D01*
X66304874Y-63236386D01*
X66156042Y-63092498D01*
X65981999Y-62980411D01*
X65789433Y-62904432D01*
X65627000Y-62966908D01*
X65373000Y-62966908D01*
X65210567Y-62904432D01*
X65018001Y-62980411D01*
X64843958Y-63092498D01*
X64695126Y-63236386D01*
X64577225Y-63406545D01*
X64494786Y-63596435D01*
X64484439Y-63630568D01*
X61315561Y-63630568D01*
X61305214Y-63596435D01*
X61222775Y-63406545D01*
X61104874Y-63236386D01*
X60956042Y-63092498D01*
X60781999Y-62980411D01*
X60589433Y-62904432D01*
X60427000Y-62966908D01*
X60173000Y-62966908D01*
X60010567Y-62904432D01*
X59818001Y-62980411D01*
X59643958Y-63092498D01*
X59495126Y-63236386D01*
X59377225Y-63406545D01*
X59294786Y-63596435D01*
X59284439Y-63630568D01*
X56115561Y-63630568D01*
X56105214Y-63596435D01*
X56022775Y-63406545D01*
X55904874Y-63236386D01*
X55756042Y-63092498D01*
X55581999Y-62980411D01*
X55389433Y-62904432D01*
X55227000Y-62966908D01*
X54973000Y-62966908D01*
X54810567Y-62904432D01*
X54618001Y-62980411D01*
X54443958Y-63092498D01*
X54295126Y-63236386D01*
X54177225Y-63406545D01*
X54094786Y-63596435D01*
X54084439Y-63630568D01*
X50431000Y-63630568D01*
X50431000Y-61669432D01*
X54084439Y-61669432D01*
X54094786Y-61703565D01*
X54177225Y-61893455D01*
X54295126Y-62063614D01*
X54443958Y-62207502D01*
X54618001Y-62319589D01*
X54810567Y-62395568D01*
X54973000Y-62333092D01*
X54973000Y-61507000D01*
X55227000Y-61507000D01*
X55227000Y-62333092D01*
X55389433Y-62395568D01*
X55581999Y-62319589D01*
X55756042Y-62207502D01*
X55904874Y-62063614D01*
X56022775Y-61893455D01*
X56105214Y-61703565D01*
X56115561Y-61669432D01*
X59284439Y-61669432D01*
X59294786Y-61703565D01*
X59377225Y-61893455D01*
X59495126Y-62063614D01*
X59643958Y-62207502D01*
X59818001Y-62319589D01*
X60010567Y-62395568D01*
X60173000Y-62333092D01*
X60173000Y-61507000D01*
X60427000Y-61507000D01*
X60427000Y-62333092D01*
X60589433Y-62395568D01*
X60781999Y-62319589D01*
X60956042Y-62207502D01*
X61104874Y-62063614D01*
X61222775Y-61893455D01*
X61305214Y-61703565D01*
X61315561Y-61669432D01*
X64484439Y-61669432D01*
X64494786Y-61703565D01*
X64577225Y-61893455D01*
X64695126Y-62063614D01*
X64843958Y-62207502D01*
X65018001Y-62319589D01*
X65210567Y-62395568D01*
X65373000Y-62333092D01*
X65373000Y-61507000D01*
X65627000Y-61507000D01*
X65627000Y-62333092D01*
X65789433Y-62395568D01*
X65981999Y-62319589D01*
X66156042Y-62207502D01*
X66304874Y-62063614D01*
X66422775Y-61893455D01*
X66505214Y-61703565D01*
X66515561Y-61669432D01*
X69584439Y-61669432D01*
X69594786Y-61703565D01*
X69677225Y-61893455D01*
X69795126Y-62063614D01*
X69943958Y-62207502D01*
X70118001Y-62319589D01*
X70310567Y-62395568D01*
X70473000Y-62333092D01*
X70473000Y-61507000D01*
X70727000Y-61507000D01*
X70727000Y-62333092D01*
X70889433Y-62395568D01*
X71081999Y-62319589D01*
X71256042Y-62207502D01*
X71404874Y-62063614D01*
X71522775Y-61893455D01*
X71605214Y-61703565D01*
X71615561Y-61669432D01*
X71552319Y-61507000D01*
X70727000Y-61507000D01*
X70473000Y-61507000D01*
X69647681Y-61507000D01*
X69584439Y-61669432D01*
X66515561Y-61669432D01*
X66452319Y-61507000D01*
X65627000Y-61507000D01*
X65373000Y-61507000D01*
X64547681Y-61507000D01*
X64484439Y-61669432D01*
X61315561Y-61669432D01*
X61252319Y-61507000D01*
X60427000Y-61507000D01*
X60173000Y-61507000D01*
X59347681Y-61507000D01*
X59284439Y-61669432D01*
X56115561Y-61669432D01*
X56052319Y-61507000D01*
X55227000Y-61507000D01*
X54973000Y-61507000D01*
X54147681Y-61507000D01*
X54084439Y-61669432D01*
X50431000Y-61669432D01*
X50431000Y-61090568D01*
X54084439Y-61090568D01*
X54147681Y-61253000D01*
X54973000Y-61253000D01*
X54973000Y-60426908D01*
X55227000Y-60426908D01*
X55227000Y-61253000D01*
X56052319Y-61253000D01*
X56115561Y-61090568D01*
X59284439Y-61090568D01*
X59347681Y-61253000D01*
X60173000Y-61253000D01*
X60173000Y-60426908D01*
X60427000Y-60426908D01*
X60427000Y-61253000D01*
X61252319Y-61253000D01*
X61315561Y-61090568D01*
X64484439Y-61090568D01*
X64547681Y-61253000D01*
X65373000Y-61253000D01*
X65373000Y-60426908D01*
X65627000Y-60426908D01*
X65627000Y-61253000D01*
X66452319Y-61253000D01*
X66515561Y-61090568D01*
X69584439Y-61090568D01*
X69647681Y-61253000D01*
X70473000Y-61253000D01*
X70473000Y-60426908D01*
X70727000Y-60426908D01*
X70727000Y-61253000D01*
X71552319Y-61253000D01*
X71615561Y-61090568D01*
X71605214Y-61056435D01*
X71522775Y-60866545D01*
X71404874Y-60696386D01*
X71256042Y-60552498D01*
X71081999Y-60440411D01*
X70889433Y-60364432D01*
X70727000Y-60426908D01*
X70473000Y-60426908D01*
X70310567Y-60364432D01*
X70118001Y-60440411D01*
X69943958Y-60552498D01*
X69795126Y-60696386D01*
X69677225Y-60866545D01*
X69594786Y-61056435D01*
X69584439Y-61090568D01*
X66515561Y-61090568D01*
X66505214Y-61056435D01*
X66422775Y-60866545D01*
X66304874Y-60696386D01*
X66156042Y-60552498D01*
X65981999Y-60440411D01*
X65789433Y-60364432D01*
X65627000Y-60426908D01*
X65373000Y-60426908D01*
X65210567Y-60364432D01*
X65018001Y-60440411D01*
X64843958Y-60552498D01*
X64695126Y-60696386D01*
X64577225Y-60866545D01*
X64494786Y-61056435D01*
X64484439Y-61090568D01*
X61315561Y-61090568D01*
X61305214Y-61056435D01*
X61222775Y-60866545D01*
X61104874Y-60696386D01*
X60956042Y-60552498D01*
X60781999Y-60440411D01*
X60589433Y-60364432D01*
X60427000Y-60426908D01*
X60173000Y-60426908D01*
X60010567Y-60364432D01*
X59818001Y-60440411D01*
X59643958Y-60552498D01*
X59495126Y-60696386D01*
X59377225Y-60866545D01*
X59294786Y-61056435D01*
X59284439Y-61090568D01*
X56115561Y-61090568D01*
X56105214Y-61056435D01*
X56022775Y-60866545D01*
X55904874Y-60696386D01*
X55756042Y-60552498D01*
X55581999Y-60440411D01*
X55389433Y-60364432D01*
X55227000Y-60426908D01*
X54973000Y-60426908D01*
X54810567Y-60364432D01*
X54618001Y-60440411D01*
X54443958Y-60552498D01*
X54295126Y-60696386D01*
X54177225Y-60866545D01*
X54094786Y-61056435D01*
X54084439Y-61090568D01*
X50431000Y-61090568D01*
X50431000Y-58840000D01*
X54038891Y-58840000D01*
X54059280Y-59047012D01*
X54119663Y-59246069D01*
X54217720Y-59429521D01*
X54349683Y-59590317D01*
X54510479Y-59722280D01*
X54693931Y-59820337D01*
X54892988Y-59880720D01*
X55048128Y-59896000D01*
X55151872Y-59896000D01*
X55307012Y-59880720D01*
X55506069Y-59820337D01*
X55689521Y-59722280D01*
X55850317Y-59590317D01*
X55982280Y-59429521D01*
X56080337Y-59246069D01*
X56140720Y-59047012D01*
X56161109Y-58840000D01*
X59238891Y-58840000D01*
X59259280Y-59047012D01*
X59319663Y-59246069D01*
X59417720Y-59429521D01*
X59549683Y-59590317D01*
X59710479Y-59722280D01*
X59893931Y-59820337D01*
X60092988Y-59880720D01*
X60248128Y-59896000D01*
X60351872Y-59896000D01*
X60507012Y-59880720D01*
X60706069Y-59820337D01*
X60889521Y-59722280D01*
X61050317Y-59590317D01*
X61182280Y-59429521D01*
X61280337Y-59246069D01*
X61340720Y-59047012D01*
X61361109Y-58840000D01*
X64438891Y-58840000D01*
X64459280Y-59047012D01*
X64519663Y-59246069D01*
X64617720Y-59429521D01*
X64749683Y-59590317D01*
X64910479Y-59722280D01*
X65093931Y-59820337D01*
X65292988Y-59880720D01*
X65448128Y-59896000D01*
X65551872Y-59896000D01*
X65707012Y-59880720D01*
X65906069Y-59820337D01*
X66089521Y-59722280D01*
X66250317Y-59590317D01*
X66382280Y-59429521D01*
X66480337Y-59246069D01*
X66540720Y-59047012D01*
X66561109Y-58840000D01*
X69538891Y-58840000D01*
X69559280Y-59047012D01*
X69619663Y-59246069D01*
X69717720Y-59429521D01*
X69849683Y-59590317D01*
X70010479Y-59722280D01*
X70193931Y-59820337D01*
X70392988Y-59880720D01*
X70548128Y-59896000D01*
X70651872Y-59896000D01*
X70807012Y-59880720D01*
X71006069Y-59820337D01*
X71189521Y-59722280D01*
X71350317Y-59590317D01*
X71482280Y-59429521D01*
X71580337Y-59246069D01*
X71586743Y-59224950D01*
X73338000Y-59224950D01*
X73338000Y-59375050D01*
X73367283Y-59522267D01*
X73424724Y-59660942D01*
X73508116Y-59785747D01*
X73614253Y-59891884D01*
X73739058Y-59975276D01*
X73877733Y-60032717D01*
X74024950Y-60062000D01*
X74175050Y-60062000D01*
X74322267Y-60032717D01*
X74460942Y-59975276D01*
X74585747Y-59891884D01*
X74691884Y-59785747D01*
X74775276Y-59660942D01*
X74832717Y-59522267D01*
X74862000Y-59375050D01*
X74862000Y-59224950D01*
X74832717Y-59077733D01*
X74775276Y-58939058D01*
X74691884Y-58814253D01*
X74585747Y-58708116D01*
X74460942Y-58624724D01*
X74322267Y-58567283D01*
X74175050Y-58538000D01*
X74024950Y-58538000D01*
X73877733Y-58567283D01*
X73739058Y-58624724D01*
X73614253Y-58708116D01*
X73508116Y-58814253D01*
X73424724Y-58939058D01*
X73367283Y-59077733D01*
X73338000Y-59224950D01*
X71586743Y-59224950D01*
X71640720Y-59047012D01*
X71661109Y-58840000D01*
X71640720Y-58632988D01*
X71580337Y-58433931D01*
X71482280Y-58250479D01*
X71350317Y-58089683D01*
X71189521Y-57957720D01*
X71006069Y-57859663D01*
X70807012Y-57799280D01*
X70651872Y-57784000D01*
X70548128Y-57784000D01*
X70392988Y-57799280D01*
X70193931Y-57859663D01*
X70010479Y-57957720D01*
X69849683Y-58089683D01*
X69717720Y-58250479D01*
X69619663Y-58433931D01*
X69559280Y-58632988D01*
X69538891Y-58840000D01*
X66561109Y-58840000D01*
X66540720Y-58632988D01*
X66480337Y-58433931D01*
X66382280Y-58250479D01*
X66250317Y-58089683D01*
X66089521Y-57957720D01*
X65906069Y-57859663D01*
X65707012Y-57799280D01*
X65551872Y-57784000D01*
X65448128Y-57784000D01*
X65292988Y-57799280D01*
X65093931Y-57859663D01*
X64910479Y-57957720D01*
X64749683Y-58089683D01*
X64617720Y-58250479D01*
X64519663Y-58433931D01*
X64459280Y-58632988D01*
X64438891Y-58840000D01*
X61361109Y-58840000D01*
X61340720Y-58632988D01*
X61280337Y-58433931D01*
X61182280Y-58250479D01*
X61050317Y-58089683D01*
X60889521Y-57957720D01*
X60706069Y-57859663D01*
X60507012Y-57799280D01*
X60351872Y-57784000D01*
X60248128Y-57784000D01*
X60092988Y-57799280D01*
X59893931Y-57859663D01*
X59710479Y-57957720D01*
X59549683Y-58089683D01*
X59417720Y-58250479D01*
X59319663Y-58433931D01*
X59259280Y-58632988D01*
X59238891Y-58840000D01*
X56161109Y-58840000D01*
X56140720Y-58632988D01*
X56080337Y-58433931D01*
X55982280Y-58250479D01*
X55850317Y-58089683D01*
X55689521Y-57957720D01*
X55506069Y-57859663D01*
X55307012Y-57799280D01*
X55151872Y-57784000D01*
X55048128Y-57784000D01*
X54892988Y-57799280D01*
X54693931Y-57859663D01*
X54510479Y-57957720D01*
X54349683Y-58089683D01*
X54217720Y-58250479D01*
X54119663Y-58433931D01*
X54059280Y-58632988D01*
X54038891Y-58840000D01*
X50431000Y-58840000D01*
X50431000Y-55625000D01*
X54042157Y-55625000D01*
X54042157Y-56975000D01*
X54049513Y-57049689D01*
X54071299Y-57121508D01*
X54106678Y-57187696D01*
X54154289Y-57245711D01*
X54212304Y-57293322D01*
X54278492Y-57328701D01*
X54350311Y-57350487D01*
X54425000Y-57357843D01*
X55775000Y-57357843D01*
X55849689Y-57350487D01*
X55921508Y-57328701D01*
X55987696Y-57293322D01*
X56045711Y-57245711D01*
X56093322Y-57187696D01*
X56128701Y-57121508D01*
X56150487Y-57049689D01*
X56157843Y-56975000D01*
X56157843Y-55625000D01*
X59242157Y-55625000D01*
X59242157Y-56975000D01*
X59249513Y-57049689D01*
X59271299Y-57121508D01*
X59306678Y-57187696D01*
X59354289Y-57245711D01*
X59412304Y-57293322D01*
X59478492Y-57328701D01*
X59550311Y-57350487D01*
X59625000Y-57357843D01*
X60975000Y-57357843D01*
X61049689Y-57350487D01*
X61121508Y-57328701D01*
X61187696Y-57293322D01*
X61245711Y-57245711D01*
X61293322Y-57187696D01*
X61328701Y-57121508D01*
X61350487Y-57049689D01*
X61357843Y-56975000D01*
X61357843Y-55625000D01*
X64442157Y-55625000D01*
X64442157Y-56975000D01*
X64449513Y-57049689D01*
X64471299Y-57121508D01*
X64506678Y-57187696D01*
X64554289Y-57245711D01*
X64612304Y-57293322D01*
X64678492Y-57328701D01*
X64750311Y-57350487D01*
X64825000Y-57357843D01*
X66175000Y-57357843D01*
X66249689Y-57350487D01*
X66321508Y-57328701D01*
X66387696Y-57293322D01*
X66445711Y-57245711D01*
X66493322Y-57187696D01*
X66528701Y-57121508D01*
X66550487Y-57049689D01*
X66557843Y-56975000D01*
X66557843Y-55625000D01*
X69542157Y-55625000D01*
X69542157Y-56975000D01*
X69549513Y-57049689D01*
X69571299Y-57121508D01*
X69606678Y-57187696D01*
X69654289Y-57245711D01*
X69712304Y-57293322D01*
X69778492Y-57328701D01*
X69850311Y-57350487D01*
X69925000Y-57357843D01*
X71275000Y-57357843D01*
X71349689Y-57350487D01*
X71421508Y-57328701D01*
X71487696Y-57293322D01*
X71545711Y-57245711D01*
X71593322Y-57187696D01*
X71628701Y-57121508D01*
X71650487Y-57049689D01*
X71657843Y-56975000D01*
X71657843Y-56643531D01*
X78919000Y-56643531D01*
X78919000Y-56856469D01*
X78960543Y-57065316D01*
X79042031Y-57262045D01*
X79160333Y-57439097D01*
X79310903Y-57589667D01*
X79487955Y-57707969D01*
X79684684Y-57789457D01*
X79893531Y-57831000D01*
X80106469Y-57831000D01*
X80315316Y-57789457D01*
X80512045Y-57707969D01*
X80689097Y-57589667D01*
X80839667Y-57439097D01*
X80957969Y-57262045D01*
X81039457Y-57065316D01*
X81081000Y-56856469D01*
X81081000Y-56643531D01*
X81039457Y-56434684D01*
X80957969Y-56237955D01*
X80839667Y-56060903D01*
X80689097Y-55910333D01*
X80512045Y-55792031D01*
X80315316Y-55710543D01*
X80106469Y-55669000D01*
X79893531Y-55669000D01*
X79684684Y-55710543D01*
X79487955Y-55792031D01*
X79310903Y-55910333D01*
X79160333Y-56060903D01*
X79042031Y-56237955D01*
X78960543Y-56434684D01*
X78919000Y-56643531D01*
X71657843Y-56643531D01*
X71657843Y-55625000D01*
X71650487Y-55550311D01*
X71628701Y-55478492D01*
X71593322Y-55412304D01*
X71545711Y-55354289D01*
X71487696Y-55306678D01*
X71421508Y-55271299D01*
X71349689Y-55249513D01*
X71275000Y-55242157D01*
X69925000Y-55242157D01*
X69850311Y-55249513D01*
X69778492Y-55271299D01*
X69712304Y-55306678D01*
X69654289Y-55354289D01*
X69606678Y-55412304D01*
X69571299Y-55478492D01*
X69549513Y-55550311D01*
X69542157Y-55625000D01*
X66557843Y-55625000D01*
X66550487Y-55550311D01*
X66528701Y-55478492D01*
X66493322Y-55412304D01*
X66445711Y-55354289D01*
X66387696Y-55306678D01*
X66321508Y-55271299D01*
X66249689Y-55249513D01*
X66175000Y-55242157D01*
X64825000Y-55242157D01*
X64750311Y-55249513D01*
X64678492Y-55271299D01*
X64612304Y-55306678D01*
X64554289Y-55354289D01*
X64506678Y-55412304D01*
X64471299Y-55478492D01*
X64449513Y-55550311D01*
X64442157Y-55625000D01*
X61357843Y-55625000D01*
X61350487Y-55550311D01*
X61328701Y-55478492D01*
X61293322Y-55412304D01*
X61245711Y-55354289D01*
X61187696Y-55306678D01*
X61121508Y-55271299D01*
X61049689Y-55249513D01*
X60975000Y-55242157D01*
X59625000Y-55242157D01*
X59550311Y-55249513D01*
X59478492Y-55271299D01*
X59412304Y-55306678D01*
X59354289Y-55354289D01*
X59306678Y-55412304D01*
X59271299Y-55478492D01*
X59249513Y-55550311D01*
X59242157Y-55625000D01*
X56157843Y-55625000D01*
X56150487Y-55550311D01*
X56128701Y-55478492D01*
X56093322Y-55412304D01*
X56045711Y-55354289D01*
X55987696Y-55306678D01*
X55921508Y-55271299D01*
X55849689Y-55249513D01*
X55775000Y-55242157D01*
X54425000Y-55242157D01*
X54350311Y-55249513D01*
X54278492Y-55271299D01*
X54212304Y-55306678D01*
X54154289Y-55354289D01*
X54106678Y-55412304D01*
X54071299Y-55478492D01*
X54049513Y-55550311D01*
X54042157Y-55625000D01*
X50431000Y-55625000D01*
X50431000Y-53500000D01*
X88018891Y-53500000D01*
X88039280Y-53707012D01*
X88099663Y-53906069D01*
X88197720Y-54089521D01*
X88329683Y-54250317D01*
X88490479Y-54382280D01*
X88673931Y-54480337D01*
X88872988Y-54540720D01*
X89028128Y-54556000D01*
X89131872Y-54556000D01*
X89287012Y-54540720D01*
X89486069Y-54480337D01*
X89669521Y-54382280D01*
X89830317Y-54250317D01*
X89962280Y-54089521D01*
X90060337Y-53906069D01*
X90095717Y-53789433D01*
X90604432Y-53789433D01*
X90680411Y-53981999D01*
X90792498Y-54156042D01*
X90936386Y-54304874D01*
X91106545Y-54422775D01*
X91296435Y-54505214D01*
X91330568Y-54515561D01*
X91493000Y-54452319D01*
X91493000Y-53627000D01*
X91747000Y-53627000D01*
X91747000Y-54452319D01*
X91909432Y-54515561D01*
X91943565Y-54505214D01*
X92133455Y-54422775D01*
X92303614Y-54304874D01*
X92447502Y-54156042D01*
X92559589Y-53981999D01*
X92635568Y-53789433D01*
X92573092Y-53627000D01*
X91747000Y-53627000D01*
X91493000Y-53627000D01*
X90666908Y-53627000D01*
X90604432Y-53789433D01*
X90095717Y-53789433D01*
X90120720Y-53707012D01*
X90141109Y-53500000D01*
X93098891Y-53500000D01*
X93119280Y-53707012D01*
X93179663Y-53906069D01*
X93277720Y-54089521D01*
X93409683Y-54250317D01*
X93570479Y-54382280D01*
X93753931Y-54480337D01*
X93952988Y-54540720D01*
X94108128Y-54556000D01*
X94211872Y-54556000D01*
X94367012Y-54540720D01*
X94566069Y-54480337D01*
X94749521Y-54382280D01*
X94910317Y-54250317D01*
X95042280Y-54089521D01*
X95140337Y-53906069D01*
X95200720Y-53707012D01*
X95221109Y-53500000D01*
X95200720Y-53292988D01*
X95140337Y-53093931D01*
X95042280Y-52910479D01*
X94972129Y-52825000D01*
X95642157Y-52825000D01*
X95642157Y-54175000D01*
X95649513Y-54249689D01*
X95671299Y-54321508D01*
X95706678Y-54387696D01*
X95754289Y-54445711D01*
X95812304Y-54493322D01*
X95878492Y-54528701D01*
X95950311Y-54550487D01*
X96025000Y-54557843D01*
X97375000Y-54557843D01*
X97449689Y-54550487D01*
X97521508Y-54528701D01*
X97587696Y-54493322D01*
X97645711Y-54445711D01*
X97693322Y-54387696D01*
X97728701Y-54321508D01*
X97750487Y-54249689D01*
X97757843Y-54175000D01*
X97757843Y-52825000D01*
X97750487Y-52750311D01*
X97728701Y-52678492D01*
X97693322Y-52612304D01*
X97645711Y-52554289D01*
X97587696Y-52506678D01*
X97521508Y-52471299D01*
X97449689Y-52449513D01*
X97375000Y-52442157D01*
X96025000Y-52442157D01*
X95950311Y-52449513D01*
X95878492Y-52471299D01*
X95812304Y-52506678D01*
X95754289Y-52554289D01*
X95706678Y-52612304D01*
X95671299Y-52678492D01*
X95649513Y-52750311D01*
X95642157Y-52825000D01*
X94972129Y-52825000D01*
X94910317Y-52749683D01*
X94749521Y-52617720D01*
X94566069Y-52519663D01*
X94367012Y-52459280D01*
X94211872Y-52444000D01*
X94108128Y-52444000D01*
X93952988Y-52459280D01*
X93753931Y-52519663D01*
X93570479Y-52617720D01*
X93409683Y-52749683D01*
X93277720Y-52910479D01*
X93179663Y-53093931D01*
X93119280Y-53292988D01*
X93098891Y-53500000D01*
X90141109Y-53500000D01*
X90120720Y-53292988D01*
X90095718Y-53210567D01*
X90604432Y-53210567D01*
X90666908Y-53373000D01*
X91493000Y-53373000D01*
X91493000Y-52547681D01*
X91747000Y-52547681D01*
X91747000Y-53373000D01*
X92573092Y-53373000D01*
X92635568Y-53210567D01*
X92559589Y-53018001D01*
X92447502Y-52843958D01*
X92303614Y-52695126D01*
X92133455Y-52577225D01*
X91943565Y-52494786D01*
X91909432Y-52484439D01*
X91747000Y-52547681D01*
X91493000Y-52547681D01*
X91330568Y-52484439D01*
X91296435Y-52494786D01*
X91106545Y-52577225D01*
X90936386Y-52695126D01*
X90792498Y-52843958D01*
X90680411Y-53018001D01*
X90604432Y-53210567D01*
X90095718Y-53210567D01*
X90060337Y-53093931D01*
X89962280Y-52910479D01*
X89830317Y-52749683D01*
X89669521Y-52617720D01*
X89486069Y-52519663D01*
X89287012Y-52459280D01*
X89131872Y-52444000D01*
X89028128Y-52444000D01*
X88872988Y-52459280D01*
X88673931Y-52519663D01*
X88490479Y-52617720D01*
X88329683Y-52749683D01*
X88197720Y-52910479D01*
X88099663Y-53093931D01*
X88039280Y-53292988D01*
X88018891Y-53500000D01*
X50431000Y-53500000D01*
X50431000Y-52143531D01*
X78919000Y-52143531D01*
X78919000Y-52356469D01*
X78960543Y-52565316D01*
X79042031Y-52762045D01*
X79160333Y-52939097D01*
X79310903Y-53089667D01*
X79487955Y-53207969D01*
X79684684Y-53289457D01*
X79893531Y-53331000D01*
X80106469Y-53331000D01*
X80315316Y-53289457D01*
X80512045Y-53207969D01*
X80689097Y-53089667D01*
X80839667Y-52939097D01*
X80957969Y-52762045D01*
X81039457Y-52565316D01*
X81081000Y-52356469D01*
X81081000Y-52143531D01*
X81039457Y-51934684D01*
X80957969Y-51737955D01*
X80839667Y-51560903D01*
X80689097Y-51410333D01*
X80512045Y-51292031D01*
X80315316Y-51210543D01*
X80106469Y-51169000D01*
X79893531Y-51169000D01*
X79684684Y-51210543D01*
X79487955Y-51292031D01*
X79310903Y-51410333D01*
X79160333Y-51560903D01*
X79042031Y-51737955D01*
X78960543Y-51934684D01*
X78919000Y-52143531D01*
X50431000Y-52143531D01*
X50431000Y-50431000D01*
X109569000Y-50431000D01*
X109569001Y-130569000D01*
X109569001Y-130569000D01*
G37*
X109569001Y-130569000D02*
X50431000Y-130569000D01*
X50431000Y-127700000D01*
X53463044Y-127700000D01*
X53486812Y-127941318D01*
X53557202Y-128173363D01*
X53671509Y-128387216D01*
X53825340Y-128574660D01*
X54012784Y-128728491D01*
X54226637Y-128842798D01*
X54458682Y-128913188D01*
X54639528Y-128931000D01*
X54760472Y-128931000D01*
X54941318Y-128913188D01*
X55173363Y-128842798D01*
X55387216Y-128728491D01*
X55574660Y-128574660D01*
X55728491Y-128387216D01*
X55842798Y-128173363D01*
X55913188Y-127941318D01*
X55936956Y-127700000D01*
X56003044Y-127700000D01*
X56026812Y-127941318D01*
X56097202Y-128173363D01*
X56211509Y-128387216D01*
X56365340Y-128574660D01*
X56552784Y-128728491D01*
X56766637Y-128842798D01*
X56998682Y-128913188D01*
X57179528Y-128931000D01*
X57300472Y-128931000D01*
X57481318Y-128913188D01*
X57713363Y-128842798D01*
X57927216Y-128728491D01*
X58114660Y-128574660D01*
X58268491Y-128387216D01*
X58382798Y-128173363D01*
X58453188Y-127941318D01*
X58476956Y-127700000D01*
X58543044Y-127700000D01*
X58566812Y-127941318D01*
X58637202Y-128173363D01*
X58751509Y-128387216D01*
X58905340Y-128574660D01*
X59092784Y-128728491D01*
X59306637Y-128842798D01*
X59538682Y-128913188D01*
X59719528Y-128931000D01*
X59840472Y-128931000D01*
X60021318Y-128913188D01*
X60253363Y-128842798D01*
X60467216Y-128728491D01*
X60654660Y-128574660D01*
X60808491Y-128387216D01*
X60922798Y-128173363D01*
X60970235Y-128016981D01*
X61130505Y-128016981D01*
X61215201Y-128242949D01*
X61342353Y-128448052D01*
X61507076Y-128624408D01*
X61703039Y-128765239D01*
X61922712Y-128865134D01*
X62003020Y-128889489D01*
X62193000Y-128828627D01*
X62193000Y-127827000D01*
X62447000Y-127827000D01*
X62447000Y-128828627D01*
X62636980Y-128889489D01*
X62717288Y-128865134D01*
X62936961Y-128765239D01*
X63132924Y-128624408D01*
X63297647Y-128448052D01*
X63424799Y-128242949D01*
X63509495Y-128016981D01*
X63449187Y-127827000D01*
X62447000Y-127827000D01*
X62193000Y-127827000D01*
X61190813Y-127827000D01*
X61130505Y-128016981D01*
X60970235Y-128016981D01*
X60993188Y-127941318D01*
X61016956Y-127700000D01*
X63623044Y-127700000D01*
X63646812Y-127941318D01*
X63717202Y-128173363D01*
X63831509Y-128387216D01*
X63985340Y-128574660D01*
X64172784Y-128728491D01*
X64386637Y-128842798D01*
X64618682Y-128913188D01*
X64799528Y-128931000D01*
X64920472Y-128931000D01*
X65101318Y-128913188D01*
X65333363Y-128842798D01*
X65547216Y-128728491D01*
X65734660Y-128574660D01*
X65888491Y-128387216D01*
X66002798Y-128173363D01*
X66073188Y-127941318D01*
X66096956Y-127700000D01*
X66073188Y-127458682D01*
X66002798Y-127226637D01*
X65888491Y-127012784D01*
X65754898Y-126850000D01*
X66167157Y-126850000D01*
X66167157Y-128550000D01*
X66174513Y-128624689D01*
X66196299Y-128696508D01*
X66231678Y-128762696D01*
X66279289Y-128820711D01*
X66337304Y-128868322D01*
X66403492Y-128903701D01*
X66475311Y-128925487D01*
X66550000Y-128932843D01*
X68250000Y-128932843D01*
X68324689Y-128925487D01*
X68396508Y-128903701D01*
X68462696Y-128868322D01*
X68520711Y-128820711D01*
X68568322Y-128762696D01*
X68603701Y-128696508D01*
X68625487Y-128624689D01*
X68632843Y-128550000D01*
X68632843Y-126850000D01*
X68625487Y-126775311D01*
X68603701Y-126703492D01*
X68568322Y-126637304D01*
X68520711Y-126579289D01*
X68462696Y-126531678D01*
X68396508Y-126496299D01*
X68324689Y-126474513D01*
X68250000Y-126467157D01*
X66550000Y-126467157D01*
X66475311Y-126474513D01*
X66403492Y-126496299D01*
X66337304Y-126531678D01*
X66279289Y-126579289D01*
X66231678Y-126637304D01*
X66196299Y-126703492D01*
X66174513Y-126775311D01*
X66167157Y-126850000D01*
X65754898Y-126850000D01*
X65734660Y-126825340D01*
X65547216Y-126671509D01*
X65333363Y-126557202D01*
X65101318Y-126486812D01*
X64920472Y-126469000D01*
X64799528Y-126469000D01*
X64618682Y-126486812D01*
X64386637Y-126557202D01*
X64172784Y-126671509D01*
X63985340Y-126825340D01*
X63831509Y-127012784D01*
X63717202Y-127226637D01*
X63646812Y-127458682D01*
X63623044Y-127700000D01*
X61016956Y-127700000D01*
X60993188Y-127458682D01*
X60970236Y-127383019D01*
X61130505Y-127383019D01*
X61190813Y-127573000D01*
X62193000Y-127573000D01*
X62193000Y-126571373D01*
X62447000Y-126571373D01*
X62447000Y-127573000D01*
X63449187Y-127573000D01*
X63509495Y-127383019D01*
X63424799Y-127157051D01*
X63297647Y-126951948D01*
X63132924Y-126775592D01*
X62936961Y-126634761D01*
X62717288Y-126534866D01*
X62636980Y-126510511D01*
X62447000Y-126571373D01*
X62193000Y-126571373D01*
X62003020Y-126510511D01*
X61922712Y-126534866D01*
X61703039Y-126634761D01*
X61507076Y-126775592D01*
X61342353Y-126951948D01*
X61215201Y-127157051D01*
X61130505Y-127383019D01*
X60970236Y-127383019D01*
X60922798Y-127226637D01*
X60808491Y-127012784D01*
X60654660Y-126825340D01*
X60467216Y-126671509D01*
X60253363Y-126557202D01*
X60021318Y-126486812D01*
X59840472Y-126469000D01*
X59719528Y-126469000D01*
X59538682Y-126486812D01*
X59306637Y-126557202D01*
X59092784Y-126671509D01*
X58905340Y-126825340D01*
X58751509Y-127012784D01*
X58637202Y-127226637D01*
X58566812Y-127458682D01*
X58543044Y-127700000D01*
X58476956Y-127700000D01*
X58453188Y-127458682D01*
X58382798Y-127226637D01*
X58268491Y-127012784D01*
X58114660Y-126825340D01*
X57927216Y-126671509D01*
X57713363Y-126557202D01*
X57481318Y-126486812D01*
X57300472Y-126469000D01*
X57179528Y-126469000D01*
X56998682Y-126486812D01*
X56766637Y-126557202D01*
X56552784Y-126671509D01*
X56365340Y-126825340D01*
X56211509Y-127012784D01*
X56097202Y-127226637D01*
X56026812Y-127458682D01*
X56003044Y-127700000D01*
X55936956Y-127700000D01*
X55913188Y-127458682D01*
X55842798Y-127226637D01*
X55728491Y-127012784D01*
X55574660Y-126825340D01*
X55387216Y-126671509D01*
X55173363Y-126557202D01*
X54941318Y-126486812D01*
X54760472Y-126469000D01*
X54639528Y-126469000D01*
X54458682Y-126486812D01*
X54226637Y-126557202D01*
X54012784Y-126671509D01*
X53825340Y-126825340D01*
X53671509Y-127012784D01*
X53557202Y-127226637D01*
X53486812Y-127458682D01*
X53463044Y-127700000D01*
X50431000Y-127700000D01*
X50431000Y-125827000D01*
X94119000Y-125827000D01*
X94119000Y-126577000D01*
X94170312Y-126843979D01*
X94272723Y-127095818D01*
X94422298Y-127322839D01*
X94613288Y-127516317D01*
X94838354Y-127668817D01*
X95088847Y-127774479D01*
X95159443Y-127788350D01*
X95373000Y-127729462D01*
X95373000Y-125827000D01*
X95627000Y-125827000D01*
X95627000Y-127729462D01*
X95840557Y-127788350D01*
X95911153Y-127774479D01*
X96161646Y-127668817D01*
X96287291Y-127583682D01*
X98819000Y-127583682D01*
X98819000Y-127816318D01*
X98864386Y-128044485D01*
X98953412Y-128259413D01*
X99082658Y-128452843D01*
X99247157Y-128617342D01*
X99440587Y-128746588D01*
X99655515Y-128835614D01*
X99883682Y-128881000D01*
X100116318Y-128881000D01*
X100344485Y-128835614D01*
X100559413Y-128746588D01*
X100752843Y-128617342D01*
X100917342Y-128452843D01*
X101046588Y-128259413D01*
X101135614Y-128044485D01*
X101181000Y-127816318D01*
X101181000Y-127583682D01*
X101135614Y-127355515D01*
X101046588Y-127140587D01*
X100917342Y-126947157D01*
X100752843Y-126782658D01*
X100559413Y-126653412D01*
X100344485Y-126564386D01*
X100116318Y-126519000D01*
X99883682Y-126519000D01*
X99655515Y-126564386D01*
X99440587Y-126653412D01*
X99247157Y-126782658D01*
X99082658Y-126947157D01*
X98953412Y-127140587D01*
X98864386Y-127355515D01*
X98819000Y-127583682D01*
X96287291Y-127583682D01*
X96386712Y-127516317D01*
X96577702Y-127322839D01*
X96727277Y-127095818D01*
X96829688Y-126843979D01*
X96881000Y-126577000D01*
X96881000Y-125827000D01*
X95627000Y-125827000D01*
X95373000Y-125827000D01*
X94119000Y-125827000D01*
X50431000Y-125827000D01*
X50431000Y-124054950D01*
X67668000Y-124054950D01*
X67668000Y-124205050D01*
X67697283Y-124352267D01*
X67754724Y-124490942D01*
X67838116Y-124615747D01*
X67944253Y-124721884D01*
X68069058Y-124805276D01*
X68207733Y-124862717D01*
X68354950Y-124892000D01*
X68505050Y-124892000D01*
X68652267Y-124862717D01*
X68748152Y-124823000D01*
X94119000Y-124823000D01*
X94119000Y-125573000D01*
X95373000Y-125573000D01*
X95373000Y-123670538D01*
X95627000Y-123670538D01*
X95627000Y-125573000D01*
X96881000Y-125573000D01*
X96881000Y-125040557D01*
X98011650Y-125040557D01*
X98025521Y-125111153D01*
X98131183Y-125361646D01*
X98283683Y-125586712D01*
X98477161Y-125777702D01*
X98704182Y-125927277D01*
X98956021Y-126029688D01*
X99223000Y-126081000D01*
X99873000Y-126081000D01*
X99873000Y-124827000D01*
X100127000Y-124827000D01*
X100127000Y-126081000D01*
X100777000Y-126081000D01*
X101043979Y-126029688D01*
X101295818Y-125927277D01*
X101448015Y-125827000D01*
X103119000Y-125827000D01*
X103119000Y-126577000D01*
X103170312Y-126843979D01*
X103272723Y-127095818D01*
X103422298Y-127322839D01*
X103613288Y-127516317D01*
X103838354Y-127668817D01*
X104088847Y-127774479D01*
X104159443Y-127788350D01*
X104373000Y-127729462D01*
X104373000Y-125827000D01*
X104627000Y-125827000D01*
X104627000Y-127729462D01*
X104840557Y-127788350D01*
X104911153Y-127774479D01*
X105161646Y-127668817D01*
X105386712Y-127516317D01*
X105577702Y-127322839D01*
X105727277Y-127095818D01*
X105829688Y-126843979D01*
X105881000Y-126577000D01*
X105881000Y-125827000D01*
X104627000Y-125827000D01*
X104373000Y-125827000D01*
X103119000Y-125827000D01*
X101448015Y-125827000D01*
X101522839Y-125777702D01*
X101716317Y-125586712D01*
X101868817Y-125361646D01*
X101974479Y-125111153D01*
X101988350Y-125040557D01*
X101929462Y-124827000D01*
X100127000Y-124827000D01*
X99873000Y-124827000D01*
X98070538Y-124827000D01*
X98011650Y-125040557D01*
X96881000Y-125040557D01*
X96881000Y-124823000D01*
X103119000Y-124823000D01*
X103119000Y-125573000D01*
X104373000Y-125573000D01*
X104373000Y-123670538D01*
X104627000Y-123670538D01*
X104627000Y-125573000D01*
X105881000Y-125573000D01*
X105881000Y-124823000D01*
X105829688Y-124556021D01*
X105727277Y-124304182D01*
X105577702Y-124077161D01*
X105386712Y-123883683D01*
X105161646Y-123731183D01*
X104911153Y-123625521D01*
X104840557Y-123611650D01*
X104627000Y-123670538D01*
X104373000Y-123670538D01*
X104159443Y-123611650D01*
X104088847Y-123625521D01*
X103838354Y-123731183D01*
X103613288Y-123883683D01*
X103422298Y-124077161D01*
X103272723Y-124304182D01*
X103170312Y-124556021D01*
X103119000Y-124823000D01*
X96881000Y-124823000D01*
X96829688Y-124556021D01*
X96749750Y-124359443D01*
X98011650Y-124359443D01*
X98070538Y-124573000D01*
X99873000Y-124573000D01*
X99873000Y-123319000D01*
X100127000Y-123319000D01*
X100127000Y-124573000D01*
X101929462Y-124573000D01*
X101988350Y-124359443D01*
X101974479Y-124288847D01*
X101868817Y-124038354D01*
X101716317Y-123813288D01*
X101522839Y-123622298D01*
X101295818Y-123472723D01*
X101043979Y-123370312D01*
X100777000Y-123319000D01*
X100127000Y-123319000D01*
X99873000Y-123319000D01*
X99223000Y-123319000D01*
X98956021Y-123370312D01*
X98704182Y-123472723D01*
X98477161Y-123622298D01*
X98283683Y-123813288D01*
X98131183Y-124038354D01*
X98025521Y-124288847D01*
X98011650Y-124359443D01*
X96749750Y-124359443D01*
X96727277Y-124304182D01*
X96577702Y-124077161D01*
X96386712Y-123883683D01*
X96161646Y-123731183D01*
X95911153Y-123625521D01*
X95840557Y-123611650D01*
X95627000Y-123670538D01*
X95373000Y-123670538D01*
X95159443Y-123611650D01*
X95088847Y-123625521D01*
X94838354Y-123731183D01*
X94613288Y-123883683D01*
X94422298Y-124077161D01*
X94272723Y-124304182D01*
X94170312Y-124556021D01*
X94119000Y-124823000D01*
X68748152Y-124823000D01*
X68790942Y-124805276D01*
X68915747Y-124721884D01*
X69021884Y-124615747D01*
X69105276Y-124490942D01*
X69162717Y-124352267D01*
X69192000Y-124205050D01*
X69192000Y-124054950D01*
X69162717Y-123907733D01*
X69105276Y-123769058D01*
X69021884Y-123644253D01*
X68915747Y-123538116D01*
X68790942Y-123454724D01*
X68652267Y-123397283D01*
X68505050Y-123368000D01*
X68354950Y-123368000D01*
X68207733Y-123397283D01*
X68069058Y-123454724D01*
X67944253Y-123538116D01*
X67838116Y-123644253D01*
X67754724Y-123769058D01*
X67697283Y-123907733D01*
X67668000Y-124054950D01*
X50431000Y-124054950D01*
X50431000Y-118078606D01*
X56339000Y-118078606D01*
X56339000Y-118301394D01*
X56382464Y-118519900D01*
X56467721Y-118725729D01*
X56591495Y-118910970D01*
X56749030Y-119068505D01*
X56934271Y-119192279D01*
X57140100Y-119277536D01*
X57358606Y-119321000D01*
X57581394Y-119321000D01*
X57799900Y-119277536D01*
X58005729Y-119192279D01*
X58190970Y-119068505D01*
X58348505Y-118910970D01*
X58472279Y-118725729D01*
X58557536Y-118519900D01*
X58601000Y-118301394D01*
X58601000Y-118078606D01*
X61219000Y-118078606D01*
X61219000Y-118301394D01*
X61262464Y-118519900D01*
X61347721Y-118725729D01*
X61471495Y-118910970D01*
X61629030Y-119068505D01*
X61814271Y-119192279D01*
X62020100Y-119277536D01*
X62238606Y-119321000D01*
X62461394Y-119321000D01*
X62679900Y-119277536D01*
X62885729Y-119192279D01*
X63070970Y-119068505D01*
X63228505Y-118910970D01*
X63352279Y-118725729D01*
X63437536Y-118519900D01*
X63481000Y-118301394D01*
X63481000Y-118078606D01*
X63470328Y-118024950D01*
X68938000Y-118024950D01*
X68938000Y-118175050D01*
X68967283Y-118322267D01*
X69024724Y-118460942D01*
X69108116Y-118585747D01*
X69214253Y-118691884D01*
X69339058Y-118775276D01*
X69477733Y-118832717D01*
X69624950Y-118862000D01*
X69775050Y-118862000D01*
X69922267Y-118832717D01*
X70060942Y-118775276D01*
X70173600Y-118700000D01*
X97612318Y-118700000D01*
X97638982Y-118970723D01*
X97717949Y-119231043D01*
X97846185Y-119470955D01*
X98018761Y-119681239D01*
X98229045Y-119853815D01*
X98468957Y-119982051D01*
X98729277Y-120061018D01*
X98932157Y-120081000D01*
X101067843Y-120081000D01*
X101270723Y-120061018D01*
X101531043Y-119982051D01*
X101770955Y-119853815D01*
X101981239Y-119681239D01*
X102153815Y-119470955D01*
X102282051Y-119231043D01*
X102361018Y-118970723D01*
X102387682Y-118700000D01*
X102361018Y-118429277D01*
X102282051Y-118168957D01*
X102153815Y-117929045D01*
X101981239Y-117718761D01*
X101770955Y-117546185D01*
X101531043Y-117417949D01*
X101270723Y-117338982D01*
X101067843Y-117319000D01*
X98932157Y-117319000D01*
X98729277Y-117338982D01*
X98468957Y-117417949D01*
X98229045Y-117546185D01*
X98018761Y-117718761D01*
X97846185Y-117929045D01*
X97717949Y-118168957D01*
X97638982Y-118429277D01*
X97612318Y-118700000D01*
X70173600Y-118700000D01*
X70185747Y-118691884D01*
X70291884Y-118585747D01*
X70375276Y-118460942D01*
X70432717Y-118322267D01*
X70462000Y-118175050D01*
X70462000Y-118024950D01*
X70432717Y-117877733D01*
X70375276Y-117739058D01*
X70291884Y-117614253D01*
X70185747Y-117508116D01*
X70060942Y-117424724D01*
X69922267Y-117367283D01*
X69775050Y-117338000D01*
X69624950Y-117338000D01*
X69477733Y-117367283D01*
X69339058Y-117424724D01*
X69214253Y-117508116D01*
X69108116Y-117614253D01*
X69024724Y-117739058D01*
X68967283Y-117877733D01*
X68938000Y-118024950D01*
X63470328Y-118024950D01*
X63437536Y-117860100D01*
X63352279Y-117654271D01*
X63228505Y-117469030D01*
X63070970Y-117311495D01*
X62885729Y-117187721D01*
X62679900Y-117102464D01*
X62461394Y-117059000D01*
X62238606Y-117059000D01*
X62020100Y-117102464D01*
X61814271Y-117187721D01*
X61629030Y-117311495D01*
X61471495Y-117469030D01*
X61347721Y-117654271D01*
X61262464Y-117860100D01*
X61219000Y-118078606D01*
X58601000Y-118078606D01*
X58557536Y-117860100D01*
X58472279Y-117654271D01*
X58348505Y-117469030D01*
X58190970Y-117311495D01*
X58005729Y-117187721D01*
X57799900Y-117102464D01*
X57581394Y-117059000D01*
X57358606Y-117059000D01*
X57140100Y-117102464D01*
X56934271Y-117187721D01*
X56749030Y-117311495D01*
X56591495Y-117469030D01*
X56467721Y-117654271D01*
X56382464Y-117860100D01*
X56339000Y-118078606D01*
X50431000Y-118078606D01*
X50431000Y-115023950D01*
X69437000Y-115023950D01*
X69437000Y-115174050D01*
X69466283Y-115321267D01*
X69523724Y-115459942D01*
X69607116Y-115584747D01*
X69713253Y-115690884D01*
X69838058Y-115774276D01*
X69976733Y-115831717D01*
X70123950Y-115861000D01*
X70274050Y-115861000D01*
X70421267Y-115831717D01*
X70559942Y-115774276D01*
X70684747Y-115690884D01*
X70790884Y-115584747D01*
X70874276Y-115459942D01*
X70931717Y-115321267D01*
X70961000Y-115174050D01*
X70961000Y-115023950D01*
X70931717Y-114876733D01*
X70874276Y-114738058D01*
X70790884Y-114613253D01*
X70684747Y-114507116D01*
X70559942Y-114423724D01*
X70421267Y-114366283D01*
X70274050Y-114337000D01*
X70123950Y-114337000D01*
X69976733Y-114366283D01*
X69838058Y-114423724D01*
X69713253Y-114507116D01*
X69607116Y-114613253D01*
X69523724Y-114738058D01*
X69466283Y-114876733D01*
X69437000Y-115023950D01*
X50431000Y-115023950D01*
X50431000Y-106424950D01*
X87738000Y-106424950D01*
X87738000Y-106575050D01*
X87767283Y-106722267D01*
X87824724Y-106860942D01*
X87908116Y-106985747D01*
X88014253Y-107091884D01*
X88139058Y-107175276D01*
X88277733Y-107232717D01*
X88424950Y-107262000D01*
X88575050Y-107262000D01*
X88722267Y-107232717D01*
X88860942Y-107175276D01*
X88985747Y-107091884D01*
X89091884Y-106985747D01*
X89175276Y-106860942D01*
X89232717Y-106722267D01*
X89262000Y-106575050D01*
X89262000Y-106424950D01*
X89232717Y-106277733D01*
X89175276Y-106139058D01*
X89091884Y-106014253D01*
X88985747Y-105908116D01*
X88860942Y-105824724D01*
X88722267Y-105767283D01*
X88575050Y-105738000D01*
X88424950Y-105738000D01*
X88277733Y-105767283D01*
X88139058Y-105824724D01*
X88014253Y-105908116D01*
X87908116Y-106014253D01*
X87824724Y-106139058D01*
X87767283Y-106277733D01*
X87738000Y-106424950D01*
X50431000Y-106424950D01*
X50431000Y-101256978D01*
X72605972Y-101256978D01*
X72605972Y-101407078D01*
X72635255Y-101554295D01*
X72692696Y-101692970D01*
X72776088Y-101817775D01*
X72882225Y-101923912D01*
X73007030Y-102007304D01*
X73145705Y-102064745D01*
X73292922Y-102094028D01*
X73443022Y-102094028D01*
X73590239Y-102064745D01*
X73728914Y-102007304D01*
X73853719Y-101923912D01*
X73959856Y-101817775D01*
X74043248Y-101692970D01*
X74100689Y-101554295D01*
X74129972Y-101407078D01*
X74129972Y-101256978D01*
X74100689Y-101109761D01*
X74043248Y-100971086D01*
X73959856Y-100846281D01*
X73853719Y-100740144D01*
X73728914Y-100656752D01*
X73590239Y-100599311D01*
X73443022Y-100570028D01*
X73292922Y-100570028D01*
X73145705Y-100599311D01*
X73007030Y-100656752D01*
X72882225Y-100740144D01*
X72776088Y-100846281D01*
X72692696Y-100971086D01*
X72635255Y-101109761D01*
X72605972Y-101256978D01*
X50431000Y-101256978D01*
X50431000Y-99762450D01*
X69600500Y-99762450D01*
X69600500Y-99912550D01*
X69629783Y-100059767D01*
X69687224Y-100198442D01*
X69770616Y-100323247D01*
X69876753Y-100429384D01*
X70001558Y-100512776D01*
X70140233Y-100570217D01*
X70287450Y-100599500D01*
X70437550Y-100599500D01*
X70584767Y-100570217D01*
X70723442Y-100512776D01*
X70848247Y-100429384D01*
X70954384Y-100323247D01*
X71037776Y-100198442D01*
X71095217Y-100059767D01*
X71124500Y-99912550D01*
X71124500Y-99762450D01*
X71095217Y-99615233D01*
X71037776Y-99476558D01*
X70954384Y-99351753D01*
X70848247Y-99245616D01*
X70723442Y-99162224D01*
X70584767Y-99104783D01*
X70437550Y-99075500D01*
X70287450Y-99075500D01*
X70140233Y-99104783D01*
X70001558Y-99162224D01*
X69876753Y-99245616D01*
X69770616Y-99351753D01*
X69687224Y-99476558D01*
X69629783Y-99615233D01*
X69600500Y-99762450D01*
X50431000Y-99762450D01*
X50431000Y-96469950D01*
X61603000Y-96469950D01*
X61603000Y-96620050D01*
X61632283Y-96767267D01*
X61689724Y-96905942D01*
X61773116Y-97030747D01*
X61879253Y-97136884D01*
X62004058Y-97220276D01*
X62142733Y-97277717D01*
X62289950Y-97307000D01*
X62440050Y-97307000D01*
X62587267Y-97277717D01*
X62725942Y-97220276D01*
X62850747Y-97136884D01*
X62956884Y-97030747D01*
X63040276Y-96905942D01*
X63097717Y-96767267D01*
X63127000Y-96620050D01*
X63127000Y-96524950D01*
X74938000Y-96524950D01*
X74938000Y-96675050D01*
X74967283Y-96822267D01*
X75024724Y-96960942D01*
X75108116Y-97085747D01*
X75214253Y-97191884D01*
X75339058Y-97275276D01*
X75477733Y-97332717D01*
X75624950Y-97362000D01*
X75775050Y-97362000D01*
X75922267Y-97332717D01*
X76060942Y-97275276D01*
X76185747Y-97191884D01*
X76291884Y-97085747D01*
X76375276Y-96960942D01*
X76432717Y-96822267D01*
X76462000Y-96675050D01*
X76462000Y-96524950D01*
X76432717Y-96377733D01*
X76375276Y-96239058D01*
X76291884Y-96114253D01*
X76185747Y-96008116D01*
X76060942Y-95924724D01*
X75922267Y-95867283D01*
X75775050Y-95838000D01*
X75624950Y-95838000D01*
X75477733Y-95867283D01*
X75339058Y-95924724D01*
X75214253Y-96008116D01*
X75108116Y-96114253D01*
X75024724Y-96239058D01*
X74967283Y-96377733D01*
X74938000Y-96524950D01*
X63127000Y-96524950D01*
X63127000Y-96469950D01*
X63097717Y-96322733D01*
X63040276Y-96184058D01*
X62956884Y-96059253D01*
X62850747Y-95953116D01*
X62725942Y-95869724D01*
X62587267Y-95812283D01*
X62440050Y-95783000D01*
X62289950Y-95783000D01*
X62142733Y-95812283D01*
X62004058Y-95869724D01*
X61879253Y-95953116D01*
X61773116Y-96059253D01*
X61689724Y-96184058D01*
X61632283Y-96322733D01*
X61603000Y-96469950D01*
X50431000Y-96469950D01*
X50431000Y-95184950D01*
X60078000Y-95184950D01*
X60078000Y-95335050D01*
X60107283Y-95482267D01*
X60164724Y-95620942D01*
X60248116Y-95745747D01*
X60354253Y-95851884D01*
X60479058Y-95935276D01*
X60617733Y-95992717D01*
X60764950Y-96022000D01*
X60915050Y-96022000D01*
X61062267Y-95992717D01*
X61200942Y-95935276D01*
X61325747Y-95851884D01*
X61431884Y-95745747D01*
X61434580Y-95741711D01*
X104054761Y-95741711D01*
X104054761Y-95891811D01*
X104084044Y-96039028D01*
X104141485Y-96177703D01*
X104224877Y-96302508D01*
X104331014Y-96408645D01*
X104455819Y-96492037D01*
X104594494Y-96549478D01*
X104741711Y-96578761D01*
X104891811Y-96578761D01*
X105039028Y-96549478D01*
X105177703Y-96492037D01*
X105302508Y-96408645D01*
X105408645Y-96302508D01*
X105492037Y-96177703D01*
X105549478Y-96039028D01*
X105578761Y-95891811D01*
X105578761Y-95741711D01*
X105549478Y-95594494D01*
X105492037Y-95455819D01*
X105408645Y-95331014D01*
X105302508Y-95224877D01*
X105177703Y-95141485D01*
X105039028Y-95084044D01*
X104891811Y-95054761D01*
X104741711Y-95054761D01*
X104594494Y-95084044D01*
X104455819Y-95141485D01*
X104331014Y-95224877D01*
X104224877Y-95331014D01*
X104141485Y-95455819D01*
X104084044Y-95594494D01*
X104054761Y-95741711D01*
X61434580Y-95741711D01*
X61515276Y-95620942D01*
X61572717Y-95482267D01*
X61602000Y-95335050D01*
X61602000Y-95184950D01*
X61572717Y-95037733D01*
X61515276Y-94899058D01*
X61431884Y-94774253D01*
X61325747Y-94668116D01*
X61200942Y-94584724D01*
X61062267Y-94527283D01*
X60915050Y-94498000D01*
X60764950Y-94498000D01*
X60617733Y-94527283D01*
X60479058Y-94584724D01*
X60354253Y-94668116D01*
X60248116Y-94774253D01*
X60164724Y-94899058D01*
X60107283Y-95037733D01*
X60078000Y-95184950D01*
X50431000Y-95184950D01*
X50431000Y-93904950D01*
X63648000Y-93904950D01*
X63648000Y-94055050D01*
X63677283Y-94202267D01*
X63734724Y-94340942D01*
X63818116Y-94465747D01*
X63924253Y-94571884D01*
X64049058Y-94655276D01*
X64187733Y-94712717D01*
X64334950Y-94742000D01*
X64485050Y-94742000D01*
X64632267Y-94712717D01*
X64770942Y-94655276D01*
X64895747Y-94571884D01*
X65001884Y-94465747D01*
X65029143Y-94424950D01*
X83438000Y-94424950D01*
X83438000Y-94575050D01*
X83467283Y-94722267D01*
X83524724Y-94860942D01*
X83608116Y-94985747D01*
X83714253Y-95091884D01*
X83839058Y-95175276D01*
X83977733Y-95232717D01*
X84124950Y-95262000D01*
X84275050Y-95262000D01*
X84422267Y-95232717D01*
X84560942Y-95175276D01*
X84685747Y-95091884D01*
X84791884Y-94985747D01*
X84875276Y-94860942D01*
X84932717Y-94722267D01*
X84962000Y-94575050D01*
X84962000Y-94424950D01*
X84932717Y-94277733D01*
X84875276Y-94139058D01*
X84791884Y-94014253D01*
X84685747Y-93908116D01*
X84560942Y-93824724D01*
X84422267Y-93767283D01*
X84275050Y-93738000D01*
X84124950Y-93738000D01*
X83977733Y-93767283D01*
X83839058Y-93824724D01*
X83714253Y-93908116D01*
X83608116Y-94014253D01*
X83524724Y-94139058D01*
X83467283Y-94277733D01*
X83438000Y-94424950D01*
X65029143Y-94424950D01*
X65085276Y-94340942D01*
X65142717Y-94202267D01*
X65172000Y-94055050D01*
X65172000Y-93904950D01*
X65142717Y-93757733D01*
X65085276Y-93619058D01*
X65001884Y-93494253D01*
X64895747Y-93388116D01*
X64770942Y-93304724D01*
X64632267Y-93247283D01*
X64485050Y-93218000D01*
X64334950Y-93218000D01*
X64187733Y-93247283D01*
X64049058Y-93304724D01*
X63924253Y-93388116D01*
X63818116Y-93494253D01*
X63734724Y-93619058D01*
X63677283Y-93757733D01*
X63648000Y-93904950D01*
X50431000Y-93904950D01*
X50431000Y-92724950D01*
X62238000Y-92724950D01*
X62238000Y-92875050D01*
X62267283Y-93022267D01*
X62324724Y-93160942D01*
X62408116Y-93285747D01*
X62514253Y-93391884D01*
X62639058Y-93475276D01*
X62777733Y-93532717D01*
X62924950Y-93562000D01*
X63075050Y-93562000D01*
X63222267Y-93532717D01*
X63360942Y-93475276D01*
X63485747Y-93391884D01*
X63591884Y-93285747D01*
X63675276Y-93160942D01*
X63732717Y-93022267D01*
X63752074Y-92924950D01*
X104988000Y-92924950D01*
X104988000Y-93075050D01*
X105017283Y-93222267D01*
X105074724Y-93360942D01*
X105158116Y-93485747D01*
X105264253Y-93591884D01*
X105389058Y-93675276D01*
X105527733Y-93732717D01*
X105674950Y-93762000D01*
X105825050Y-93762000D01*
X105972267Y-93732717D01*
X106110942Y-93675276D01*
X106235747Y-93591884D01*
X106341884Y-93485747D01*
X106425276Y-93360942D01*
X106482717Y-93222267D01*
X106512000Y-93075050D01*
X106512000Y-92924950D01*
X106482717Y-92777733D01*
X106425276Y-92639058D01*
X106341884Y-92514253D01*
X106235747Y-92408116D01*
X106110942Y-92324724D01*
X105972267Y-92267283D01*
X105825050Y-92238000D01*
X105674950Y-92238000D01*
X105527733Y-92267283D01*
X105389058Y-92324724D01*
X105264253Y-92408116D01*
X105158116Y-92514253D01*
X105074724Y-92639058D01*
X105017283Y-92777733D01*
X104988000Y-92924950D01*
X63752074Y-92924950D01*
X63762000Y-92875050D01*
X63762000Y-92724950D01*
X63732717Y-92577733D01*
X63675276Y-92439058D01*
X63591884Y-92314253D01*
X63485747Y-92208116D01*
X63360942Y-92124724D01*
X63222267Y-92067283D01*
X63075050Y-92038000D01*
X62924950Y-92038000D01*
X62777733Y-92067283D01*
X62639058Y-92124724D01*
X62514253Y-92208116D01*
X62408116Y-92314253D01*
X62324724Y-92439058D01*
X62267283Y-92577733D01*
X62238000Y-92724950D01*
X50431000Y-92724950D01*
X50431000Y-90129950D01*
X59683000Y-90129950D01*
X59683000Y-90280050D01*
X59712283Y-90427267D01*
X59769724Y-90565942D01*
X59853116Y-90690747D01*
X59959253Y-90796884D01*
X60084058Y-90880276D01*
X60222733Y-90937717D01*
X60369950Y-90967000D01*
X60520050Y-90967000D01*
X60667267Y-90937717D01*
X60805942Y-90880276D01*
X60930747Y-90796884D01*
X61036884Y-90690747D01*
X61120276Y-90565942D01*
X61177717Y-90427267D01*
X61178177Y-90424950D01*
X83438000Y-90424950D01*
X83438000Y-90575050D01*
X83467283Y-90722267D01*
X83524724Y-90860942D01*
X83608116Y-90985747D01*
X83714253Y-91091884D01*
X83839058Y-91175276D01*
X83977733Y-91232717D01*
X84124950Y-91262000D01*
X84275050Y-91262000D01*
X84422267Y-91232717D01*
X84560942Y-91175276D01*
X84685747Y-91091884D01*
X84791884Y-90985747D01*
X84875276Y-90860942D01*
X84932717Y-90722267D01*
X84962000Y-90575050D01*
X84962000Y-90424950D01*
X84932717Y-90277733D01*
X84875276Y-90139058D01*
X84791884Y-90014253D01*
X84685747Y-89908116D01*
X84560942Y-89824724D01*
X84422267Y-89767283D01*
X84275050Y-89738000D01*
X84124950Y-89738000D01*
X83977733Y-89767283D01*
X83839058Y-89824724D01*
X83714253Y-89908116D01*
X83608116Y-90014253D01*
X83524724Y-90139058D01*
X83467283Y-90277733D01*
X83438000Y-90424950D01*
X61178177Y-90424950D01*
X61207000Y-90280050D01*
X61207000Y-90129950D01*
X61177717Y-89982733D01*
X61120276Y-89844058D01*
X61036884Y-89719253D01*
X60930747Y-89613116D01*
X60805942Y-89529724D01*
X60667267Y-89472283D01*
X60520050Y-89443000D01*
X60369950Y-89443000D01*
X60222733Y-89472283D01*
X60084058Y-89529724D01*
X59959253Y-89613116D01*
X59853116Y-89719253D01*
X59769724Y-89844058D01*
X59712283Y-89982733D01*
X59683000Y-90129950D01*
X50431000Y-90129950D01*
X50431000Y-87224950D01*
X53138000Y-87224950D01*
X53138000Y-87375050D01*
X53167283Y-87522267D01*
X53224724Y-87660942D01*
X53308116Y-87785747D01*
X53414253Y-87891884D01*
X53539058Y-87975276D01*
X53677733Y-88032717D01*
X53824950Y-88062000D01*
X53975050Y-88062000D01*
X54122267Y-88032717D01*
X54260942Y-87975276D01*
X54385747Y-87891884D01*
X54491884Y-87785747D01*
X54575276Y-87660942D01*
X54631605Y-87524950D01*
X81738000Y-87524950D01*
X81738000Y-87675050D01*
X81767283Y-87822267D01*
X81824724Y-87960942D01*
X81908116Y-88085747D01*
X82014253Y-88191884D01*
X82139058Y-88275276D01*
X82277733Y-88332717D01*
X82424950Y-88362000D01*
X82575050Y-88362000D01*
X82722267Y-88332717D01*
X82860942Y-88275276D01*
X82985747Y-88191884D01*
X83091884Y-88085747D01*
X83175276Y-87960942D01*
X83232717Y-87822267D01*
X83262000Y-87675050D01*
X83262000Y-87524950D01*
X83232717Y-87377733D01*
X83175276Y-87239058D01*
X83091884Y-87114253D01*
X82985747Y-87008116D01*
X82860942Y-86924724D01*
X82722267Y-86867283D01*
X82575050Y-86838000D01*
X82424950Y-86838000D01*
X82277733Y-86867283D01*
X82139058Y-86924724D01*
X82014253Y-87008116D01*
X81908116Y-87114253D01*
X81824724Y-87239058D01*
X81767283Y-87377733D01*
X81738000Y-87524950D01*
X54631605Y-87524950D01*
X54632717Y-87522267D01*
X54662000Y-87375050D01*
X54662000Y-87224950D01*
X54632717Y-87077733D01*
X54575276Y-86939058D01*
X54491884Y-86814253D01*
X54385747Y-86708116D01*
X54260942Y-86624724D01*
X54122267Y-86567283D01*
X53975050Y-86538000D01*
X53824950Y-86538000D01*
X53677733Y-86567283D01*
X53539058Y-86624724D01*
X53414253Y-86708116D01*
X53308116Y-86814253D01*
X53224724Y-86939058D01*
X53167283Y-87077733D01*
X53138000Y-87224950D01*
X50431000Y-87224950D01*
X50431000Y-86024950D01*
X99300500Y-86024950D01*
X99300500Y-86175050D01*
X99329783Y-86322267D01*
X99387224Y-86460942D01*
X99470616Y-86585747D01*
X99576753Y-86691884D01*
X99701558Y-86775276D01*
X99840233Y-86832717D01*
X99987450Y-86862000D01*
X100137550Y-86862000D01*
X100284767Y-86832717D01*
X100423442Y-86775276D01*
X100548247Y-86691884D01*
X100654384Y-86585747D01*
X100737776Y-86460942D01*
X100795217Y-86322267D01*
X100824500Y-86175050D01*
X100824500Y-86024950D01*
X100795217Y-85877733D01*
X100737776Y-85739058D01*
X100654384Y-85614253D01*
X100548247Y-85508116D01*
X100423442Y-85424724D01*
X100284767Y-85367283D01*
X100137550Y-85338000D01*
X99987450Y-85338000D01*
X99840233Y-85367283D01*
X99701558Y-85424724D01*
X99576753Y-85508116D01*
X99470616Y-85614253D01*
X99387224Y-85739058D01*
X99329783Y-85877733D01*
X99300500Y-86024950D01*
X50431000Y-86024950D01*
X50431000Y-84999950D01*
X55363000Y-84999950D01*
X55363000Y-85150050D01*
X55392283Y-85297267D01*
X55449724Y-85435942D01*
X55533116Y-85560747D01*
X55639253Y-85666884D01*
X55764058Y-85750276D01*
X55902733Y-85807717D01*
X56049950Y-85837000D01*
X56200050Y-85837000D01*
X56347267Y-85807717D01*
X56485942Y-85750276D01*
X56610747Y-85666884D01*
X56716884Y-85560747D01*
X56800276Y-85435942D01*
X56857717Y-85297267D01*
X56887000Y-85150050D01*
X56887000Y-84999950D01*
X56857717Y-84852733D01*
X56800276Y-84714058D01*
X56716884Y-84589253D01*
X56610747Y-84483116D01*
X56485942Y-84399724D01*
X56347267Y-84342283D01*
X56260128Y-84324950D01*
X59338000Y-84324950D01*
X59338000Y-84475050D01*
X59367283Y-84622267D01*
X59424724Y-84760942D01*
X59508116Y-84885747D01*
X59614253Y-84991884D01*
X59739058Y-85075276D01*
X59877733Y-85132717D01*
X60024950Y-85162000D01*
X60175050Y-85162000D01*
X60322267Y-85132717D01*
X60460942Y-85075276D01*
X60585747Y-84991884D01*
X60691884Y-84885747D01*
X60775276Y-84760942D01*
X60832717Y-84622267D01*
X60862000Y-84475050D01*
X60862000Y-84324950D01*
X60832717Y-84177733D01*
X60775276Y-84039058D01*
X60691884Y-83914253D01*
X60602581Y-83824950D01*
X87700500Y-83824950D01*
X87700500Y-83975050D01*
X87729783Y-84122267D01*
X87787224Y-84260942D01*
X87870616Y-84385747D01*
X87976753Y-84491884D01*
X88101558Y-84575276D01*
X88240233Y-84632717D01*
X88387450Y-84662000D01*
X88537550Y-84662000D01*
X88684767Y-84632717D01*
X88823442Y-84575276D01*
X88948247Y-84491884D01*
X89054384Y-84385747D01*
X89137776Y-84260942D01*
X89195217Y-84122267D01*
X89224500Y-83975050D01*
X89224500Y-83824950D01*
X89195217Y-83677733D01*
X89137776Y-83539058D01*
X89054384Y-83414253D01*
X88948247Y-83308116D01*
X88823442Y-83224724D01*
X88684767Y-83167283D01*
X88537550Y-83138000D01*
X88387450Y-83138000D01*
X88240233Y-83167283D01*
X88101558Y-83224724D01*
X87976753Y-83308116D01*
X87870616Y-83414253D01*
X87787224Y-83539058D01*
X87729783Y-83677733D01*
X87700500Y-83824950D01*
X60602581Y-83824950D01*
X60585747Y-83808116D01*
X60460942Y-83724724D01*
X60322267Y-83667283D01*
X60175050Y-83638000D01*
X60024950Y-83638000D01*
X59877733Y-83667283D01*
X59739058Y-83724724D01*
X59614253Y-83808116D01*
X59508116Y-83914253D01*
X59424724Y-84039058D01*
X59367283Y-84177733D01*
X59338000Y-84324950D01*
X56260128Y-84324950D01*
X56200050Y-84313000D01*
X56049950Y-84313000D01*
X55902733Y-84342283D01*
X55764058Y-84399724D01*
X55639253Y-84483116D01*
X55533116Y-84589253D01*
X55449724Y-84714058D01*
X55392283Y-84852733D01*
X55363000Y-84999950D01*
X50431000Y-84999950D01*
X50431000Y-82024950D01*
X67538000Y-82024950D01*
X67538000Y-82175050D01*
X67567283Y-82322267D01*
X67624724Y-82460942D01*
X67708116Y-82585747D01*
X67814253Y-82691884D01*
X67939058Y-82775276D01*
X68077733Y-82832717D01*
X68224950Y-82862000D01*
X68375050Y-82862000D01*
X68522267Y-82832717D01*
X68660942Y-82775276D01*
X68785747Y-82691884D01*
X68891884Y-82585747D01*
X68975276Y-82460942D01*
X69032717Y-82322267D01*
X69062000Y-82175050D01*
X69062000Y-82024950D01*
X69032717Y-81877733D01*
X69010854Y-81824950D01*
X81738000Y-81824950D01*
X81738000Y-81975050D01*
X81767283Y-82122267D01*
X81824724Y-82260942D01*
X81908116Y-82385747D01*
X82014253Y-82491884D01*
X82139058Y-82575276D01*
X82277733Y-82632717D01*
X82424950Y-82662000D01*
X82575050Y-82662000D01*
X82722267Y-82632717D01*
X82860942Y-82575276D01*
X82985747Y-82491884D01*
X83091884Y-82385747D01*
X83175276Y-82260942D01*
X83232717Y-82122267D01*
X83252074Y-82024950D01*
X100538000Y-82024950D01*
X100538000Y-82175050D01*
X100567283Y-82322267D01*
X100624724Y-82460942D01*
X100708116Y-82585747D01*
X100814253Y-82691884D01*
X100939058Y-82775276D01*
X101077733Y-82832717D01*
X101224950Y-82862000D01*
X101375050Y-82862000D01*
X101522267Y-82832717D01*
X101660942Y-82775276D01*
X101785747Y-82691884D01*
X101891884Y-82585747D01*
X101975276Y-82460942D01*
X102032717Y-82322267D01*
X102062000Y-82175050D01*
X102062000Y-82024950D01*
X102032717Y-81877733D01*
X101975276Y-81739058D01*
X101891884Y-81614253D01*
X101785747Y-81508116D01*
X101660942Y-81424724D01*
X101522267Y-81367283D01*
X101375050Y-81338000D01*
X101224950Y-81338000D01*
X101077733Y-81367283D01*
X100939058Y-81424724D01*
X100814253Y-81508116D01*
X100708116Y-81614253D01*
X100624724Y-81739058D01*
X100567283Y-81877733D01*
X100538000Y-82024950D01*
X83252074Y-82024950D01*
X83262000Y-81975050D01*
X83262000Y-81824950D01*
X83232717Y-81677733D01*
X83175276Y-81539058D01*
X83091884Y-81414253D01*
X82985747Y-81308116D01*
X82860942Y-81224724D01*
X82722267Y-81167283D01*
X82575050Y-81138000D01*
X82424950Y-81138000D01*
X82277733Y-81167283D01*
X82139058Y-81224724D01*
X82014253Y-81308116D01*
X81908116Y-81414253D01*
X81824724Y-81539058D01*
X81767283Y-81677733D01*
X81738000Y-81824950D01*
X69010854Y-81824950D01*
X68975276Y-81739058D01*
X68891884Y-81614253D01*
X68785747Y-81508116D01*
X68660942Y-81424724D01*
X68522267Y-81367283D01*
X68375050Y-81338000D01*
X68224950Y-81338000D01*
X68077733Y-81367283D01*
X67939058Y-81424724D01*
X67814253Y-81508116D01*
X67708116Y-81614253D01*
X67624724Y-81739058D01*
X67567283Y-81877733D01*
X67538000Y-82024950D01*
X50431000Y-82024950D01*
X50431000Y-80224950D01*
X76738000Y-80224950D01*
X76738000Y-80375050D01*
X76767283Y-80522267D01*
X76824724Y-80660942D01*
X76908116Y-80785747D01*
X77014253Y-80891884D01*
X77139058Y-80975276D01*
X77277733Y-81032717D01*
X77424950Y-81062000D01*
X77575050Y-81062000D01*
X77722267Y-81032717D01*
X77860942Y-80975276D01*
X77985747Y-80891884D01*
X78091884Y-80785747D01*
X78175276Y-80660942D01*
X78232717Y-80522267D01*
X78262000Y-80375050D01*
X78262000Y-80224950D01*
X78232717Y-80077733D01*
X78188077Y-79969961D01*
X103083011Y-79969961D01*
X103083011Y-80120061D01*
X103112294Y-80267278D01*
X103169735Y-80405953D01*
X103253127Y-80530758D01*
X103359264Y-80636895D01*
X103484069Y-80720287D01*
X103622744Y-80777728D01*
X103769961Y-80807011D01*
X103920061Y-80807011D01*
X104067278Y-80777728D01*
X104205953Y-80720287D01*
X104330758Y-80636895D01*
X104436895Y-80530758D01*
X104520287Y-80405953D01*
X104577728Y-80267278D01*
X104607011Y-80120061D01*
X104607011Y-79969961D01*
X104577728Y-79822744D01*
X104520287Y-79684069D01*
X104436895Y-79559264D01*
X104330758Y-79453127D01*
X104205953Y-79369735D01*
X104067278Y-79312294D01*
X103920061Y-79283011D01*
X103769961Y-79283011D01*
X103622744Y-79312294D01*
X103484069Y-79369735D01*
X103359264Y-79453127D01*
X103253127Y-79559264D01*
X103169735Y-79684069D01*
X103112294Y-79822744D01*
X103083011Y-79969961D01*
X78188077Y-79969961D01*
X78175276Y-79939058D01*
X78091884Y-79814253D01*
X77985747Y-79708116D01*
X77860942Y-79624724D01*
X77722267Y-79567283D01*
X77575050Y-79538000D01*
X77424950Y-79538000D01*
X77277733Y-79567283D01*
X77139058Y-79624724D01*
X77014253Y-79708116D01*
X76908116Y-79814253D01*
X76824724Y-79939058D01*
X76767283Y-80077733D01*
X76738000Y-80224950D01*
X50431000Y-80224950D01*
X50431000Y-78674950D01*
X85088000Y-78674950D01*
X85088000Y-78825050D01*
X85117283Y-78972267D01*
X85174724Y-79110942D01*
X85258116Y-79235747D01*
X85364253Y-79341884D01*
X85489058Y-79425276D01*
X85627733Y-79482717D01*
X85774950Y-79512000D01*
X85925050Y-79512000D01*
X86072267Y-79482717D01*
X86210942Y-79425276D01*
X86335747Y-79341884D01*
X86441884Y-79235747D01*
X86525276Y-79110942D01*
X86582717Y-78972267D01*
X86612000Y-78825050D01*
X86612000Y-78674950D01*
X86582717Y-78527733D01*
X86525276Y-78389058D01*
X86441884Y-78264253D01*
X86335747Y-78158116D01*
X86210942Y-78074724D01*
X86072267Y-78017283D01*
X85925050Y-77988000D01*
X85774950Y-77988000D01*
X85627733Y-78017283D01*
X85489058Y-78074724D01*
X85364253Y-78158116D01*
X85258116Y-78264253D01*
X85174724Y-78389058D01*
X85117283Y-78527733D01*
X85088000Y-78674950D01*
X50431000Y-78674950D01*
X50431000Y-76887450D01*
X76900500Y-76887450D01*
X76900500Y-77037550D01*
X76929783Y-77184767D01*
X76987224Y-77323442D01*
X77070616Y-77448247D01*
X77176753Y-77554384D01*
X77301558Y-77637776D01*
X77440233Y-77695217D01*
X77587450Y-77724500D01*
X77737550Y-77724500D01*
X77884767Y-77695217D01*
X78023442Y-77637776D01*
X78148247Y-77554384D01*
X78254384Y-77448247D01*
X78337776Y-77323442D01*
X78363039Y-77262450D01*
X81800500Y-77262450D01*
X81800500Y-77412550D01*
X81829783Y-77559767D01*
X81887224Y-77698442D01*
X81970616Y-77823247D01*
X82076753Y-77929384D01*
X82201558Y-78012776D01*
X82340233Y-78070217D01*
X82487450Y-78099500D01*
X82637550Y-78099500D01*
X82784767Y-78070217D01*
X82923442Y-78012776D01*
X83048247Y-77929384D01*
X83154384Y-77823247D01*
X83237776Y-77698442D01*
X83295217Y-77559767D01*
X83324500Y-77412550D01*
X83324500Y-77262450D01*
X83295217Y-77115233D01*
X83237776Y-76976558D01*
X83154384Y-76851753D01*
X83048247Y-76745616D01*
X82923442Y-76662224D01*
X82784767Y-76604783D01*
X82637550Y-76575500D01*
X82487450Y-76575500D01*
X82340233Y-76604783D01*
X82201558Y-76662224D01*
X82076753Y-76745616D01*
X81970616Y-76851753D01*
X81887224Y-76976558D01*
X81829783Y-77115233D01*
X81800500Y-77262450D01*
X78363039Y-77262450D01*
X78395217Y-77184767D01*
X78424500Y-77037550D01*
X78424500Y-76887450D01*
X78395217Y-76740233D01*
X78337776Y-76601558D01*
X78254384Y-76476753D01*
X78148247Y-76370616D01*
X78023442Y-76287224D01*
X77884767Y-76229783D01*
X77737550Y-76200500D01*
X77587450Y-76200500D01*
X77440233Y-76229783D01*
X77301558Y-76287224D01*
X77176753Y-76370616D01*
X77070616Y-76476753D01*
X76987224Y-76601558D01*
X76929783Y-76740233D01*
X76900500Y-76887450D01*
X50431000Y-76887450D01*
X50431000Y-74308390D01*
X59524560Y-74308390D01*
X59524560Y-74458490D01*
X59553843Y-74605707D01*
X59611284Y-74744382D01*
X59694676Y-74869187D01*
X59800813Y-74975324D01*
X59925618Y-75058716D01*
X60064293Y-75116157D01*
X60211510Y-75145440D01*
X60361610Y-75145440D01*
X60508827Y-75116157D01*
X60647502Y-75058716D01*
X60698036Y-75024950D01*
X95638000Y-75024950D01*
X95638000Y-75175050D01*
X95667283Y-75322267D01*
X95724724Y-75460942D01*
X95808116Y-75585747D01*
X95914253Y-75691884D01*
X96039058Y-75775276D01*
X96177733Y-75832717D01*
X96324950Y-75862000D01*
X96475050Y-75862000D01*
X96622267Y-75832717D01*
X96760942Y-75775276D01*
X96885747Y-75691884D01*
X96991884Y-75585747D01*
X97075276Y-75460942D01*
X97132717Y-75322267D01*
X97162000Y-75175050D01*
X97162000Y-75024950D01*
X97132717Y-74877733D01*
X97075276Y-74739058D01*
X96991884Y-74614253D01*
X96885747Y-74508116D01*
X96760942Y-74424724D01*
X96622267Y-74367283D01*
X96475050Y-74338000D01*
X96324950Y-74338000D01*
X96177733Y-74367283D01*
X96039058Y-74424724D01*
X95914253Y-74508116D01*
X95808116Y-74614253D01*
X95724724Y-74739058D01*
X95667283Y-74877733D01*
X95638000Y-75024950D01*
X60698036Y-75024950D01*
X60772307Y-74975324D01*
X60878444Y-74869187D01*
X60961836Y-74744382D01*
X61019277Y-74605707D01*
X61048560Y-74458490D01*
X61048560Y-74308390D01*
X61019277Y-74161173D01*
X60961836Y-74022498D01*
X60896657Y-73924950D01*
X74538000Y-73924950D01*
X74538000Y-74075050D01*
X74567283Y-74222267D01*
X74624724Y-74360942D01*
X74708116Y-74485747D01*
X74814253Y-74591884D01*
X74939058Y-74675276D01*
X75077733Y-74732717D01*
X75224950Y-74762000D01*
X75375050Y-74762000D01*
X75522267Y-74732717D01*
X75660942Y-74675276D01*
X75785747Y-74591884D01*
X75891884Y-74485747D01*
X75975276Y-74360942D01*
X76032717Y-74222267D01*
X76062000Y-74075050D01*
X76062000Y-73924950D01*
X76032717Y-73777733D01*
X75975276Y-73639058D01*
X75891884Y-73514253D01*
X75785747Y-73408116D01*
X75660942Y-73324724D01*
X75522267Y-73267283D01*
X75375050Y-73238000D01*
X75224950Y-73238000D01*
X75077733Y-73267283D01*
X74939058Y-73324724D01*
X74814253Y-73408116D01*
X74708116Y-73514253D01*
X74624724Y-73639058D01*
X74567283Y-73777733D01*
X74538000Y-73924950D01*
X60896657Y-73924950D01*
X60878444Y-73897693D01*
X60772307Y-73791556D01*
X60647502Y-73708164D01*
X60508827Y-73650723D01*
X60361610Y-73621440D01*
X60211510Y-73621440D01*
X60064293Y-73650723D01*
X59925618Y-73708164D01*
X59800813Y-73791556D01*
X59694676Y-73897693D01*
X59611284Y-74022498D01*
X59553843Y-74161173D01*
X59524560Y-74308390D01*
X50431000Y-74308390D01*
X50431000Y-71024950D01*
X59038000Y-71024950D01*
X59038000Y-71175050D01*
X59067283Y-71322267D01*
X59124724Y-71460942D01*
X59208116Y-71585747D01*
X59314253Y-71691884D01*
X59439058Y-71775276D01*
X59577733Y-71832717D01*
X59724950Y-71862000D01*
X59875050Y-71862000D01*
X60022267Y-71832717D01*
X60041018Y-71824950D01*
X85438000Y-71824950D01*
X85438000Y-71975050D01*
X85467283Y-72122267D01*
X85524724Y-72260942D01*
X85608116Y-72385747D01*
X85714253Y-72491884D01*
X85839058Y-72575276D01*
X85977733Y-72632717D01*
X86124950Y-72662000D01*
X86275050Y-72662000D01*
X86422267Y-72632717D01*
X86560942Y-72575276D01*
X86685747Y-72491884D01*
X86791884Y-72385747D01*
X86875276Y-72260942D01*
X86932717Y-72122267D01*
X86962000Y-71975050D01*
X86962000Y-71824950D01*
X86932717Y-71677733D01*
X86875276Y-71539058D01*
X86791884Y-71414253D01*
X86685747Y-71308116D01*
X86560942Y-71224724D01*
X86422267Y-71167283D01*
X86275050Y-71138000D01*
X86124950Y-71138000D01*
X85977733Y-71167283D01*
X85839058Y-71224724D01*
X85714253Y-71308116D01*
X85608116Y-71414253D01*
X85524724Y-71539058D01*
X85467283Y-71677733D01*
X85438000Y-71824950D01*
X60041018Y-71824950D01*
X60160942Y-71775276D01*
X60285747Y-71691884D01*
X60391884Y-71585747D01*
X60475276Y-71460942D01*
X60532717Y-71322267D01*
X60562000Y-71175050D01*
X60562000Y-71024950D01*
X60532717Y-70877733D01*
X60475276Y-70739058D01*
X60391884Y-70614253D01*
X60285747Y-70508116D01*
X60160942Y-70424724D01*
X60022267Y-70367283D01*
X59875050Y-70338000D01*
X59724950Y-70338000D01*
X59577733Y-70367283D01*
X59439058Y-70424724D01*
X59314253Y-70508116D01*
X59208116Y-70614253D01*
X59124724Y-70739058D01*
X59067283Y-70877733D01*
X59038000Y-71024950D01*
X50431000Y-71024950D01*
X50431000Y-69587450D01*
X78538000Y-69587450D01*
X78538000Y-69737550D01*
X78567283Y-69884767D01*
X78624724Y-70023442D01*
X78708116Y-70148247D01*
X78814253Y-70254384D01*
X78939058Y-70337776D01*
X79077733Y-70395217D01*
X79224950Y-70424500D01*
X79375050Y-70424500D01*
X79522267Y-70395217D01*
X79660942Y-70337776D01*
X79785747Y-70254384D01*
X79891884Y-70148247D01*
X79975276Y-70023442D01*
X80032717Y-69884767D01*
X80062000Y-69737550D01*
X80062000Y-69624950D01*
X88675500Y-69624950D01*
X88675500Y-69775050D01*
X88704783Y-69922267D01*
X88762224Y-70060942D01*
X88845616Y-70185747D01*
X88951753Y-70291884D01*
X89076558Y-70375276D01*
X89215233Y-70432717D01*
X89362450Y-70462000D01*
X89512550Y-70462000D01*
X89659767Y-70432717D01*
X89798442Y-70375276D01*
X89923247Y-70291884D01*
X90029384Y-70185747D01*
X90112776Y-70060942D01*
X90170217Y-69922267D01*
X90199500Y-69775050D01*
X90199500Y-69624950D01*
X97075500Y-69624950D01*
X97075500Y-69775050D01*
X97104783Y-69922267D01*
X97162224Y-70060942D01*
X97245616Y-70185747D01*
X97351753Y-70291884D01*
X97476558Y-70375276D01*
X97615233Y-70432717D01*
X97762450Y-70462000D01*
X97912550Y-70462000D01*
X98059767Y-70432717D01*
X98198442Y-70375276D01*
X98323247Y-70291884D01*
X98429384Y-70185747D01*
X98512776Y-70060942D01*
X98570217Y-69922267D01*
X98599500Y-69775050D01*
X98599500Y-69624950D01*
X98570217Y-69477733D01*
X98512776Y-69339058D01*
X98429384Y-69214253D01*
X98323247Y-69108116D01*
X98198442Y-69024724D01*
X98059767Y-68967283D01*
X97912550Y-68938000D01*
X97762450Y-68938000D01*
X97615233Y-68967283D01*
X97476558Y-69024724D01*
X97351753Y-69108116D01*
X97245616Y-69214253D01*
X97162224Y-69339058D01*
X97104783Y-69477733D01*
X97075500Y-69624950D01*
X90199500Y-69624950D01*
X90170217Y-69477733D01*
X90112776Y-69339058D01*
X90029384Y-69214253D01*
X89923247Y-69108116D01*
X89798442Y-69024724D01*
X89659767Y-68967283D01*
X89512550Y-68938000D01*
X89362450Y-68938000D01*
X89215233Y-68967283D01*
X89076558Y-69024724D01*
X88951753Y-69108116D01*
X88845616Y-69214253D01*
X88762224Y-69339058D01*
X88704783Y-69477733D01*
X88675500Y-69624950D01*
X80062000Y-69624950D01*
X80062000Y-69587450D01*
X80032717Y-69440233D01*
X79975276Y-69301558D01*
X79891884Y-69176753D01*
X79785747Y-69070616D01*
X79660942Y-68987224D01*
X79522267Y-68929783D01*
X79375050Y-68900500D01*
X79224950Y-68900500D01*
X79077733Y-68929783D01*
X78939058Y-68987224D01*
X78814253Y-69070616D01*
X78708116Y-69176753D01*
X78624724Y-69301558D01*
X78567283Y-69440233D01*
X78538000Y-69587450D01*
X50431000Y-69587450D01*
X50431000Y-67787450D01*
X67400500Y-67787450D01*
X67400500Y-67937550D01*
X67429783Y-68084767D01*
X67487224Y-68223442D01*
X67570616Y-68348247D01*
X67676753Y-68454384D01*
X67801558Y-68537776D01*
X67940233Y-68595217D01*
X68087450Y-68624500D01*
X68237550Y-68624500D01*
X68384767Y-68595217D01*
X68523442Y-68537776D01*
X68648247Y-68454384D01*
X68754384Y-68348247D01*
X68837776Y-68223442D01*
X68895217Y-68084767D01*
X68924500Y-67937550D01*
X68924500Y-67787450D01*
X68895217Y-67640233D01*
X68837776Y-67501558D01*
X68754384Y-67376753D01*
X68648247Y-67270616D01*
X68523442Y-67187224D01*
X68384767Y-67129783D01*
X68237550Y-67100500D01*
X68087450Y-67100500D01*
X67940233Y-67129783D01*
X67801558Y-67187224D01*
X67676753Y-67270616D01*
X67570616Y-67376753D01*
X67487224Y-67501558D01*
X67429783Y-67640233D01*
X67400500Y-67787450D01*
X50431000Y-67787450D01*
X50431000Y-64209432D01*
X54084439Y-64209432D01*
X54094786Y-64243565D01*
X54177225Y-64433455D01*
X54295126Y-64603614D01*
X54443958Y-64747502D01*
X54618001Y-64859589D01*
X54810567Y-64935568D01*
X54973000Y-64873092D01*
X54973000Y-64047000D01*
X55227000Y-64047000D01*
X55227000Y-64873092D01*
X55389433Y-64935568D01*
X55581999Y-64859589D01*
X55756042Y-64747502D01*
X55904874Y-64603614D01*
X56022775Y-64433455D01*
X56105214Y-64243565D01*
X56115561Y-64209432D01*
X59284439Y-64209432D01*
X59294786Y-64243565D01*
X59377225Y-64433455D01*
X59495126Y-64603614D01*
X59643958Y-64747502D01*
X59818001Y-64859589D01*
X60010567Y-64935568D01*
X60173000Y-64873092D01*
X60173000Y-64047000D01*
X60427000Y-64047000D01*
X60427000Y-64873092D01*
X60589433Y-64935568D01*
X60781999Y-64859589D01*
X60956042Y-64747502D01*
X61104874Y-64603614D01*
X61222775Y-64433455D01*
X61305214Y-64243565D01*
X61315561Y-64209432D01*
X64484439Y-64209432D01*
X64494786Y-64243565D01*
X64577225Y-64433455D01*
X64695126Y-64603614D01*
X64843958Y-64747502D01*
X65018001Y-64859589D01*
X65210567Y-64935568D01*
X65373000Y-64873092D01*
X65373000Y-64047000D01*
X65627000Y-64047000D01*
X65627000Y-64873092D01*
X65789433Y-64935568D01*
X65981999Y-64859589D01*
X66156042Y-64747502D01*
X66304874Y-64603614D01*
X66422775Y-64433455D01*
X66505214Y-64243565D01*
X66515561Y-64209432D01*
X69584439Y-64209432D01*
X69594786Y-64243565D01*
X69677225Y-64433455D01*
X69795126Y-64603614D01*
X69943958Y-64747502D01*
X70118001Y-64859589D01*
X70310567Y-64935568D01*
X70473000Y-64873092D01*
X70473000Y-64047000D01*
X70727000Y-64047000D01*
X70727000Y-64873092D01*
X70889433Y-64935568D01*
X71081999Y-64859589D01*
X71256042Y-64747502D01*
X71404874Y-64603614D01*
X71522775Y-64433455D01*
X71542747Y-64387450D01*
X73138000Y-64387450D01*
X73138000Y-64537550D01*
X73167283Y-64684767D01*
X73224724Y-64823442D01*
X73308116Y-64948247D01*
X73414253Y-65054384D01*
X73539058Y-65137776D01*
X73677733Y-65195217D01*
X73824950Y-65224500D01*
X73975050Y-65224500D01*
X74122267Y-65195217D01*
X74260942Y-65137776D01*
X74385747Y-65054384D01*
X74491884Y-64948247D01*
X74575276Y-64823442D01*
X74632717Y-64684767D01*
X74662000Y-64537550D01*
X74662000Y-64387450D01*
X74632717Y-64240233D01*
X74575276Y-64101558D01*
X74491884Y-63976753D01*
X74385747Y-63870616D01*
X74260942Y-63787224D01*
X74122267Y-63729783D01*
X73975050Y-63700500D01*
X73824950Y-63700500D01*
X73677733Y-63729783D01*
X73539058Y-63787224D01*
X73414253Y-63870616D01*
X73308116Y-63976753D01*
X73224724Y-64101558D01*
X73167283Y-64240233D01*
X73138000Y-64387450D01*
X71542747Y-64387450D01*
X71605214Y-64243565D01*
X71615561Y-64209432D01*
X71552319Y-64047000D01*
X70727000Y-64047000D01*
X70473000Y-64047000D01*
X69647681Y-64047000D01*
X69584439Y-64209432D01*
X66515561Y-64209432D01*
X66452319Y-64047000D01*
X65627000Y-64047000D01*
X65373000Y-64047000D01*
X64547681Y-64047000D01*
X64484439Y-64209432D01*
X61315561Y-64209432D01*
X61252319Y-64047000D01*
X60427000Y-64047000D01*
X60173000Y-64047000D01*
X59347681Y-64047000D01*
X59284439Y-64209432D01*
X56115561Y-64209432D01*
X56052319Y-64047000D01*
X55227000Y-64047000D01*
X54973000Y-64047000D01*
X54147681Y-64047000D01*
X54084439Y-64209432D01*
X50431000Y-64209432D01*
X50431000Y-63630568D01*
X54084439Y-63630568D01*
X54147681Y-63793000D01*
X54973000Y-63793000D01*
X54973000Y-62966908D01*
X55227000Y-62966908D01*
X55227000Y-63793000D01*
X56052319Y-63793000D01*
X56115561Y-63630568D01*
X59284439Y-63630568D01*
X59347681Y-63793000D01*
X60173000Y-63793000D01*
X60173000Y-62966908D01*
X60427000Y-62966908D01*
X60427000Y-63793000D01*
X61252319Y-63793000D01*
X61315561Y-63630568D01*
X64484439Y-63630568D01*
X64547681Y-63793000D01*
X65373000Y-63793000D01*
X65373000Y-62966908D01*
X65627000Y-62966908D01*
X65627000Y-63793000D01*
X66452319Y-63793000D01*
X66515561Y-63630568D01*
X69584439Y-63630568D01*
X69647681Y-63793000D01*
X70473000Y-63793000D01*
X70473000Y-62966908D01*
X70727000Y-62966908D01*
X70727000Y-63793000D01*
X71552319Y-63793000D01*
X71615561Y-63630568D01*
X71605214Y-63596435D01*
X71522775Y-63406545D01*
X71404874Y-63236386D01*
X71296088Y-63131213D01*
X81938000Y-63131213D01*
X81938000Y-63281313D01*
X81967283Y-63428530D01*
X82024724Y-63567205D01*
X82108116Y-63692010D01*
X82214253Y-63798147D01*
X82339058Y-63881539D01*
X82477733Y-63938980D01*
X82624950Y-63968263D01*
X82775050Y-63968263D01*
X82922267Y-63938980D01*
X83060942Y-63881539D01*
X83185747Y-63798147D01*
X83291884Y-63692010D01*
X83375276Y-63567205D01*
X83432717Y-63428530D01*
X83462000Y-63281313D01*
X83462000Y-63131213D01*
X90544263Y-63131213D01*
X90544263Y-63281313D01*
X90573546Y-63428530D01*
X90630987Y-63567205D01*
X90714379Y-63692010D01*
X90820516Y-63798147D01*
X90945321Y-63881539D01*
X91083996Y-63938980D01*
X91231213Y-63968263D01*
X91381313Y-63968263D01*
X91528530Y-63938980D01*
X91667205Y-63881539D01*
X91792010Y-63798147D01*
X91898147Y-63692010D01*
X91981539Y-63567205D01*
X92038980Y-63428530D01*
X92068263Y-63281313D01*
X92068263Y-63131213D01*
X92038980Y-62983996D01*
X91981539Y-62845321D01*
X91898147Y-62720516D01*
X91792010Y-62614379D01*
X91667205Y-62530987D01*
X91528530Y-62473546D01*
X91381313Y-62444263D01*
X91231213Y-62444263D01*
X91083996Y-62473546D01*
X90945321Y-62530987D01*
X90820516Y-62614379D01*
X90714379Y-62720516D01*
X90630987Y-62845321D01*
X90573546Y-62983996D01*
X90544263Y-63131213D01*
X83462000Y-63131213D01*
X83432717Y-62983996D01*
X83375276Y-62845321D01*
X83291884Y-62720516D01*
X83185747Y-62614379D01*
X83060942Y-62530987D01*
X82922267Y-62473546D01*
X82775050Y-62444263D01*
X82624950Y-62444263D01*
X82477733Y-62473546D01*
X82339058Y-62530987D01*
X82214253Y-62614379D01*
X82108116Y-62720516D01*
X82024724Y-62845321D01*
X81967283Y-62983996D01*
X81938000Y-63131213D01*
X71296088Y-63131213D01*
X71256042Y-63092498D01*
X71081999Y-62980411D01*
X70889433Y-62904432D01*
X70727000Y-62966908D01*
X70473000Y-62966908D01*
X70310567Y-62904432D01*
X70118001Y-62980411D01*
X69943958Y-63092498D01*
X69795126Y-63236386D01*
X69677225Y-63406545D01*
X69594786Y-63596435D01*
X69584439Y-63630568D01*
X66515561Y-63630568D01*
X66505214Y-63596435D01*
X66422775Y-63406545D01*
X66304874Y-63236386D01*
X66156042Y-63092498D01*
X65981999Y-62980411D01*
X65789433Y-62904432D01*
X65627000Y-62966908D01*
X65373000Y-62966908D01*
X65210567Y-62904432D01*
X65018001Y-62980411D01*
X64843958Y-63092498D01*
X64695126Y-63236386D01*
X64577225Y-63406545D01*
X64494786Y-63596435D01*
X64484439Y-63630568D01*
X61315561Y-63630568D01*
X61305214Y-63596435D01*
X61222775Y-63406545D01*
X61104874Y-63236386D01*
X60956042Y-63092498D01*
X60781999Y-62980411D01*
X60589433Y-62904432D01*
X60427000Y-62966908D01*
X60173000Y-62966908D01*
X60010567Y-62904432D01*
X59818001Y-62980411D01*
X59643958Y-63092498D01*
X59495126Y-63236386D01*
X59377225Y-63406545D01*
X59294786Y-63596435D01*
X59284439Y-63630568D01*
X56115561Y-63630568D01*
X56105214Y-63596435D01*
X56022775Y-63406545D01*
X55904874Y-63236386D01*
X55756042Y-63092498D01*
X55581999Y-62980411D01*
X55389433Y-62904432D01*
X55227000Y-62966908D01*
X54973000Y-62966908D01*
X54810567Y-62904432D01*
X54618001Y-62980411D01*
X54443958Y-63092498D01*
X54295126Y-63236386D01*
X54177225Y-63406545D01*
X54094786Y-63596435D01*
X54084439Y-63630568D01*
X50431000Y-63630568D01*
X50431000Y-61669432D01*
X54084439Y-61669432D01*
X54094786Y-61703565D01*
X54177225Y-61893455D01*
X54295126Y-62063614D01*
X54443958Y-62207502D01*
X54618001Y-62319589D01*
X54810567Y-62395568D01*
X54973000Y-62333092D01*
X54973000Y-61507000D01*
X55227000Y-61507000D01*
X55227000Y-62333092D01*
X55389433Y-62395568D01*
X55581999Y-62319589D01*
X55756042Y-62207502D01*
X55904874Y-62063614D01*
X56022775Y-61893455D01*
X56105214Y-61703565D01*
X56115561Y-61669432D01*
X59284439Y-61669432D01*
X59294786Y-61703565D01*
X59377225Y-61893455D01*
X59495126Y-62063614D01*
X59643958Y-62207502D01*
X59818001Y-62319589D01*
X60010567Y-62395568D01*
X60173000Y-62333092D01*
X60173000Y-61507000D01*
X60427000Y-61507000D01*
X60427000Y-62333092D01*
X60589433Y-62395568D01*
X60781999Y-62319589D01*
X60956042Y-62207502D01*
X61104874Y-62063614D01*
X61222775Y-61893455D01*
X61305214Y-61703565D01*
X61315561Y-61669432D01*
X64484439Y-61669432D01*
X64494786Y-61703565D01*
X64577225Y-61893455D01*
X64695126Y-62063614D01*
X64843958Y-62207502D01*
X65018001Y-62319589D01*
X65210567Y-62395568D01*
X65373000Y-62333092D01*
X65373000Y-61507000D01*
X65627000Y-61507000D01*
X65627000Y-62333092D01*
X65789433Y-62395568D01*
X65981999Y-62319589D01*
X66156042Y-62207502D01*
X66304874Y-62063614D01*
X66422775Y-61893455D01*
X66505214Y-61703565D01*
X66515561Y-61669432D01*
X69584439Y-61669432D01*
X69594786Y-61703565D01*
X69677225Y-61893455D01*
X69795126Y-62063614D01*
X69943958Y-62207502D01*
X70118001Y-62319589D01*
X70310567Y-62395568D01*
X70473000Y-62333092D01*
X70473000Y-61507000D01*
X70727000Y-61507000D01*
X70727000Y-62333092D01*
X70889433Y-62395568D01*
X71081999Y-62319589D01*
X71256042Y-62207502D01*
X71404874Y-62063614D01*
X71522775Y-61893455D01*
X71605214Y-61703565D01*
X71615561Y-61669432D01*
X71552319Y-61507000D01*
X70727000Y-61507000D01*
X70473000Y-61507000D01*
X69647681Y-61507000D01*
X69584439Y-61669432D01*
X66515561Y-61669432D01*
X66452319Y-61507000D01*
X65627000Y-61507000D01*
X65373000Y-61507000D01*
X64547681Y-61507000D01*
X64484439Y-61669432D01*
X61315561Y-61669432D01*
X61252319Y-61507000D01*
X60427000Y-61507000D01*
X60173000Y-61507000D01*
X59347681Y-61507000D01*
X59284439Y-61669432D01*
X56115561Y-61669432D01*
X56052319Y-61507000D01*
X55227000Y-61507000D01*
X54973000Y-61507000D01*
X54147681Y-61507000D01*
X54084439Y-61669432D01*
X50431000Y-61669432D01*
X50431000Y-61090568D01*
X54084439Y-61090568D01*
X54147681Y-61253000D01*
X54973000Y-61253000D01*
X54973000Y-60426908D01*
X55227000Y-60426908D01*
X55227000Y-61253000D01*
X56052319Y-61253000D01*
X56115561Y-61090568D01*
X59284439Y-61090568D01*
X59347681Y-61253000D01*
X60173000Y-61253000D01*
X60173000Y-60426908D01*
X60427000Y-60426908D01*
X60427000Y-61253000D01*
X61252319Y-61253000D01*
X61315561Y-61090568D01*
X64484439Y-61090568D01*
X64547681Y-61253000D01*
X65373000Y-61253000D01*
X65373000Y-60426908D01*
X65627000Y-60426908D01*
X65627000Y-61253000D01*
X66452319Y-61253000D01*
X66515561Y-61090568D01*
X69584439Y-61090568D01*
X69647681Y-61253000D01*
X70473000Y-61253000D01*
X70473000Y-60426908D01*
X70727000Y-60426908D01*
X70727000Y-61253000D01*
X71552319Y-61253000D01*
X71615561Y-61090568D01*
X71605214Y-61056435D01*
X71522775Y-60866545D01*
X71404874Y-60696386D01*
X71256042Y-60552498D01*
X71081999Y-60440411D01*
X70889433Y-60364432D01*
X70727000Y-60426908D01*
X70473000Y-60426908D01*
X70310567Y-60364432D01*
X70118001Y-60440411D01*
X69943958Y-60552498D01*
X69795126Y-60696386D01*
X69677225Y-60866545D01*
X69594786Y-61056435D01*
X69584439Y-61090568D01*
X66515561Y-61090568D01*
X66505214Y-61056435D01*
X66422775Y-60866545D01*
X66304874Y-60696386D01*
X66156042Y-60552498D01*
X65981999Y-60440411D01*
X65789433Y-60364432D01*
X65627000Y-60426908D01*
X65373000Y-60426908D01*
X65210567Y-60364432D01*
X65018001Y-60440411D01*
X64843958Y-60552498D01*
X64695126Y-60696386D01*
X64577225Y-60866545D01*
X64494786Y-61056435D01*
X64484439Y-61090568D01*
X61315561Y-61090568D01*
X61305214Y-61056435D01*
X61222775Y-60866545D01*
X61104874Y-60696386D01*
X60956042Y-60552498D01*
X60781999Y-60440411D01*
X60589433Y-60364432D01*
X60427000Y-60426908D01*
X60173000Y-60426908D01*
X60010567Y-60364432D01*
X59818001Y-60440411D01*
X59643958Y-60552498D01*
X59495126Y-60696386D01*
X59377225Y-60866545D01*
X59294786Y-61056435D01*
X59284439Y-61090568D01*
X56115561Y-61090568D01*
X56105214Y-61056435D01*
X56022775Y-60866545D01*
X55904874Y-60696386D01*
X55756042Y-60552498D01*
X55581999Y-60440411D01*
X55389433Y-60364432D01*
X55227000Y-60426908D01*
X54973000Y-60426908D01*
X54810567Y-60364432D01*
X54618001Y-60440411D01*
X54443958Y-60552498D01*
X54295126Y-60696386D01*
X54177225Y-60866545D01*
X54094786Y-61056435D01*
X54084439Y-61090568D01*
X50431000Y-61090568D01*
X50431000Y-58840000D01*
X54038891Y-58840000D01*
X54059280Y-59047012D01*
X54119663Y-59246069D01*
X54217720Y-59429521D01*
X54349683Y-59590317D01*
X54510479Y-59722280D01*
X54693931Y-59820337D01*
X54892988Y-59880720D01*
X55048128Y-59896000D01*
X55151872Y-59896000D01*
X55307012Y-59880720D01*
X55506069Y-59820337D01*
X55689521Y-59722280D01*
X55850317Y-59590317D01*
X55982280Y-59429521D01*
X56080337Y-59246069D01*
X56140720Y-59047012D01*
X56161109Y-58840000D01*
X59238891Y-58840000D01*
X59259280Y-59047012D01*
X59319663Y-59246069D01*
X59417720Y-59429521D01*
X59549683Y-59590317D01*
X59710479Y-59722280D01*
X59893931Y-59820337D01*
X60092988Y-59880720D01*
X60248128Y-59896000D01*
X60351872Y-59896000D01*
X60507012Y-59880720D01*
X60706069Y-59820337D01*
X60889521Y-59722280D01*
X61050317Y-59590317D01*
X61182280Y-59429521D01*
X61280337Y-59246069D01*
X61340720Y-59047012D01*
X61361109Y-58840000D01*
X64438891Y-58840000D01*
X64459280Y-59047012D01*
X64519663Y-59246069D01*
X64617720Y-59429521D01*
X64749683Y-59590317D01*
X64910479Y-59722280D01*
X65093931Y-59820337D01*
X65292988Y-59880720D01*
X65448128Y-59896000D01*
X65551872Y-59896000D01*
X65707012Y-59880720D01*
X65906069Y-59820337D01*
X66089521Y-59722280D01*
X66250317Y-59590317D01*
X66382280Y-59429521D01*
X66480337Y-59246069D01*
X66540720Y-59047012D01*
X66561109Y-58840000D01*
X69538891Y-58840000D01*
X69559280Y-59047012D01*
X69619663Y-59246069D01*
X69717720Y-59429521D01*
X69849683Y-59590317D01*
X70010479Y-59722280D01*
X70193931Y-59820337D01*
X70392988Y-59880720D01*
X70548128Y-59896000D01*
X70651872Y-59896000D01*
X70807012Y-59880720D01*
X71006069Y-59820337D01*
X71189521Y-59722280D01*
X71350317Y-59590317D01*
X71482280Y-59429521D01*
X71580337Y-59246069D01*
X71586743Y-59224950D01*
X73338000Y-59224950D01*
X73338000Y-59375050D01*
X73367283Y-59522267D01*
X73424724Y-59660942D01*
X73508116Y-59785747D01*
X73614253Y-59891884D01*
X73739058Y-59975276D01*
X73877733Y-60032717D01*
X74024950Y-60062000D01*
X74175050Y-60062000D01*
X74322267Y-60032717D01*
X74460942Y-59975276D01*
X74585747Y-59891884D01*
X74691884Y-59785747D01*
X74775276Y-59660942D01*
X74832717Y-59522267D01*
X74862000Y-59375050D01*
X74862000Y-59224950D01*
X74832717Y-59077733D01*
X74775276Y-58939058D01*
X74691884Y-58814253D01*
X74585747Y-58708116D01*
X74460942Y-58624724D01*
X74322267Y-58567283D01*
X74175050Y-58538000D01*
X74024950Y-58538000D01*
X73877733Y-58567283D01*
X73739058Y-58624724D01*
X73614253Y-58708116D01*
X73508116Y-58814253D01*
X73424724Y-58939058D01*
X73367283Y-59077733D01*
X73338000Y-59224950D01*
X71586743Y-59224950D01*
X71640720Y-59047012D01*
X71661109Y-58840000D01*
X71640720Y-58632988D01*
X71580337Y-58433931D01*
X71482280Y-58250479D01*
X71350317Y-58089683D01*
X71189521Y-57957720D01*
X71006069Y-57859663D01*
X70807012Y-57799280D01*
X70651872Y-57784000D01*
X70548128Y-57784000D01*
X70392988Y-57799280D01*
X70193931Y-57859663D01*
X70010479Y-57957720D01*
X69849683Y-58089683D01*
X69717720Y-58250479D01*
X69619663Y-58433931D01*
X69559280Y-58632988D01*
X69538891Y-58840000D01*
X66561109Y-58840000D01*
X66540720Y-58632988D01*
X66480337Y-58433931D01*
X66382280Y-58250479D01*
X66250317Y-58089683D01*
X66089521Y-57957720D01*
X65906069Y-57859663D01*
X65707012Y-57799280D01*
X65551872Y-57784000D01*
X65448128Y-57784000D01*
X65292988Y-57799280D01*
X65093931Y-57859663D01*
X64910479Y-57957720D01*
X64749683Y-58089683D01*
X64617720Y-58250479D01*
X64519663Y-58433931D01*
X64459280Y-58632988D01*
X64438891Y-58840000D01*
X61361109Y-58840000D01*
X61340720Y-58632988D01*
X61280337Y-58433931D01*
X61182280Y-58250479D01*
X61050317Y-58089683D01*
X60889521Y-57957720D01*
X60706069Y-57859663D01*
X60507012Y-57799280D01*
X60351872Y-57784000D01*
X60248128Y-57784000D01*
X60092988Y-57799280D01*
X59893931Y-57859663D01*
X59710479Y-57957720D01*
X59549683Y-58089683D01*
X59417720Y-58250479D01*
X59319663Y-58433931D01*
X59259280Y-58632988D01*
X59238891Y-58840000D01*
X56161109Y-58840000D01*
X56140720Y-58632988D01*
X56080337Y-58433931D01*
X55982280Y-58250479D01*
X55850317Y-58089683D01*
X55689521Y-57957720D01*
X55506069Y-57859663D01*
X55307012Y-57799280D01*
X55151872Y-57784000D01*
X55048128Y-57784000D01*
X54892988Y-57799280D01*
X54693931Y-57859663D01*
X54510479Y-57957720D01*
X54349683Y-58089683D01*
X54217720Y-58250479D01*
X54119663Y-58433931D01*
X54059280Y-58632988D01*
X54038891Y-58840000D01*
X50431000Y-58840000D01*
X50431000Y-55625000D01*
X54042157Y-55625000D01*
X54042157Y-56975000D01*
X54049513Y-57049689D01*
X54071299Y-57121508D01*
X54106678Y-57187696D01*
X54154289Y-57245711D01*
X54212304Y-57293322D01*
X54278492Y-57328701D01*
X54350311Y-57350487D01*
X54425000Y-57357843D01*
X55775000Y-57357843D01*
X55849689Y-57350487D01*
X55921508Y-57328701D01*
X55987696Y-57293322D01*
X56045711Y-57245711D01*
X56093322Y-57187696D01*
X56128701Y-57121508D01*
X56150487Y-57049689D01*
X56157843Y-56975000D01*
X56157843Y-55625000D01*
X59242157Y-55625000D01*
X59242157Y-56975000D01*
X59249513Y-57049689D01*
X59271299Y-57121508D01*
X59306678Y-57187696D01*
X59354289Y-57245711D01*
X59412304Y-57293322D01*
X59478492Y-57328701D01*
X59550311Y-57350487D01*
X59625000Y-57357843D01*
X60975000Y-57357843D01*
X61049689Y-57350487D01*
X61121508Y-57328701D01*
X61187696Y-57293322D01*
X61245711Y-57245711D01*
X61293322Y-57187696D01*
X61328701Y-57121508D01*
X61350487Y-57049689D01*
X61357843Y-56975000D01*
X61357843Y-55625000D01*
X64442157Y-55625000D01*
X64442157Y-56975000D01*
X64449513Y-57049689D01*
X64471299Y-57121508D01*
X64506678Y-57187696D01*
X64554289Y-57245711D01*
X64612304Y-57293322D01*
X64678492Y-57328701D01*
X64750311Y-57350487D01*
X64825000Y-57357843D01*
X66175000Y-57357843D01*
X66249689Y-57350487D01*
X66321508Y-57328701D01*
X66387696Y-57293322D01*
X66445711Y-57245711D01*
X66493322Y-57187696D01*
X66528701Y-57121508D01*
X66550487Y-57049689D01*
X66557843Y-56975000D01*
X66557843Y-55625000D01*
X69542157Y-55625000D01*
X69542157Y-56975000D01*
X69549513Y-57049689D01*
X69571299Y-57121508D01*
X69606678Y-57187696D01*
X69654289Y-57245711D01*
X69712304Y-57293322D01*
X69778492Y-57328701D01*
X69850311Y-57350487D01*
X69925000Y-57357843D01*
X71275000Y-57357843D01*
X71349689Y-57350487D01*
X71421508Y-57328701D01*
X71487696Y-57293322D01*
X71545711Y-57245711D01*
X71593322Y-57187696D01*
X71628701Y-57121508D01*
X71650487Y-57049689D01*
X71657843Y-56975000D01*
X71657843Y-56643531D01*
X78919000Y-56643531D01*
X78919000Y-56856469D01*
X78960543Y-57065316D01*
X79042031Y-57262045D01*
X79160333Y-57439097D01*
X79310903Y-57589667D01*
X79487955Y-57707969D01*
X79684684Y-57789457D01*
X79893531Y-57831000D01*
X80106469Y-57831000D01*
X80315316Y-57789457D01*
X80512045Y-57707969D01*
X80689097Y-57589667D01*
X80839667Y-57439097D01*
X80957969Y-57262045D01*
X81039457Y-57065316D01*
X81081000Y-56856469D01*
X81081000Y-56643531D01*
X81039457Y-56434684D01*
X80957969Y-56237955D01*
X80839667Y-56060903D01*
X80689097Y-55910333D01*
X80512045Y-55792031D01*
X80315316Y-55710543D01*
X80106469Y-55669000D01*
X79893531Y-55669000D01*
X79684684Y-55710543D01*
X79487955Y-55792031D01*
X79310903Y-55910333D01*
X79160333Y-56060903D01*
X79042031Y-56237955D01*
X78960543Y-56434684D01*
X78919000Y-56643531D01*
X71657843Y-56643531D01*
X71657843Y-55625000D01*
X71650487Y-55550311D01*
X71628701Y-55478492D01*
X71593322Y-55412304D01*
X71545711Y-55354289D01*
X71487696Y-55306678D01*
X71421508Y-55271299D01*
X71349689Y-55249513D01*
X71275000Y-55242157D01*
X69925000Y-55242157D01*
X69850311Y-55249513D01*
X69778492Y-55271299D01*
X69712304Y-55306678D01*
X69654289Y-55354289D01*
X69606678Y-55412304D01*
X69571299Y-55478492D01*
X69549513Y-55550311D01*
X69542157Y-55625000D01*
X66557843Y-55625000D01*
X66550487Y-55550311D01*
X66528701Y-55478492D01*
X66493322Y-55412304D01*
X66445711Y-55354289D01*
X66387696Y-55306678D01*
X66321508Y-55271299D01*
X66249689Y-55249513D01*
X66175000Y-55242157D01*
X64825000Y-55242157D01*
X64750311Y-55249513D01*
X64678492Y-55271299D01*
X64612304Y-55306678D01*
X64554289Y-55354289D01*
X64506678Y-55412304D01*
X64471299Y-55478492D01*
X64449513Y-55550311D01*
X64442157Y-55625000D01*
X61357843Y-55625000D01*
X61350487Y-55550311D01*
X61328701Y-55478492D01*
X61293322Y-55412304D01*
X61245711Y-55354289D01*
X61187696Y-55306678D01*
X61121508Y-55271299D01*
X61049689Y-55249513D01*
X60975000Y-55242157D01*
X59625000Y-55242157D01*
X59550311Y-55249513D01*
X59478492Y-55271299D01*
X59412304Y-55306678D01*
X59354289Y-55354289D01*
X59306678Y-55412304D01*
X59271299Y-55478492D01*
X59249513Y-55550311D01*
X59242157Y-55625000D01*
X56157843Y-55625000D01*
X56150487Y-55550311D01*
X56128701Y-55478492D01*
X56093322Y-55412304D01*
X56045711Y-55354289D01*
X55987696Y-55306678D01*
X55921508Y-55271299D01*
X55849689Y-55249513D01*
X55775000Y-55242157D01*
X54425000Y-55242157D01*
X54350311Y-55249513D01*
X54278492Y-55271299D01*
X54212304Y-55306678D01*
X54154289Y-55354289D01*
X54106678Y-55412304D01*
X54071299Y-55478492D01*
X54049513Y-55550311D01*
X54042157Y-55625000D01*
X50431000Y-55625000D01*
X50431000Y-53500000D01*
X88018891Y-53500000D01*
X88039280Y-53707012D01*
X88099663Y-53906069D01*
X88197720Y-54089521D01*
X88329683Y-54250317D01*
X88490479Y-54382280D01*
X88673931Y-54480337D01*
X88872988Y-54540720D01*
X89028128Y-54556000D01*
X89131872Y-54556000D01*
X89287012Y-54540720D01*
X89486069Y-54480337D01*
X89669521Y-54382280D01*
X89830317Y-54250317D01*
X89962280Y-54089521D01*
X90060337Y-53906069D01*
X90095717Y-53789433D01*
X90604432Y-53789433D01*
X90680411Y-53981999D01*
X90792498Y-54156042D01*
X90936386Y-54304874D01*
X91106545Y-54422775D01*
X91296435Y-54505214D01*
X91330568Y-54515561D01*
X91493000Y-54452319D01*
X91493000Y-53627000D01*
X91747000Y-53627000D01*
X91747000Y-54452319D01*
X91909432Y-54515561D01*
X91943565Y-54505214D01*
X92133455Y-54422775D01*
X92303614Y-54304874D01*
X92447502Y-54156042D01*
X92559589Y-53981999D01*
X92635568Y-53789433D01*
X92573092Y-53627000D01*
X91747000Y-53627000D01*
X91493000Y-53627000D01*
X90666908Y-53627000D01*
X90604432Y-53789433D01*
X90095717Y-53789433D01*
X90120720Y-53707012D01*
X90141109Y-53500000D01*
X93098891Y-53500000D01*
X93119280Y-53707012D01*
X93179663Y-53906069D01*
X93277720Y-54089521D01*
X93409683Y-54250317D01*
X93570479Y-54382280D01*
X93753931Y-54480337D01*
X93952988Y-54540720D01*
X94108128Y-54556000D01*
X94211872Y-54556000D01*
X94367012Y-54540720D01*
X94566069Y-54480337D01*
X94749521Y-54382280D01*
X94910317Y-54250317D01*
X95042280Y-54089521D01*
X95140337Y-53906069D01*
X95200720Y-53707012D01*
X95221109Y-53500000D01*
X95200720Y-53292988D01*
X95140337Y-53093931D01*
X95042280Y-52910479D01*
X94972129Y-52825000D01*
X95642157Y-52825000D01*
X95642157Y-54175000D01*
X95649513Y-54249689D01*
X95671299Y-54321508D01*
X95706678Y-54387696D01*
X95754289Y-54445711D01*
X95812304Y-54493322D01*
X95878492Y-54528701D01*
X95950311Y-54550487D01*
X96025000Y-54557843D01*
X97375000Y-54557843D01*
X97449689Y-54550487D01*
X97521508Y-54528701D01*
X97587696Y-54493322D01*
X97645711Y-54445711D01*
X97693322Y-54387696D01*
X97728701Y-54321508D01*
X97750487Y-54249689D01*
X97757843Y-54175000D01*
X97757843Y-52825000D01*
X97750487Y-52750311D01*
X97728701Y-52678492D01*
X97693322Y-52612304D01*
X97645711Y-52554289D01*
X97587696Y-52506678D01*
X97521508Y-52471299D01*
X97449689Y-52449513D01*
X97375000Y-52442157D01*
X96025000Y-52442157D01*
X95950311Y-52449513D01*
X95878492Y-52471299D01*
X95812304Y-52506678D01*
X95754289Y-52554289D01*
X95706678Y-52612304D01*
X95671299Y-52678492D01*
X95649513Y-52750311D01*
X95642157Y-52825000D01*
X94972129Y-52825000D01*
X94910317Y-52749683D01*
X94749521Y-52617720D01*
X94566069Y-52519663D01*
X94367012Y-52459280D01*
X94211872Y-52444000D01*
X94108128Y-52444000D01*
X93952988Y-52459280D01*
X93753931Y-52519663D01*
X93570479Y-52617720D01*
X93409683Y-52749683D01*
X93277720Y-52910479D01*
X93179663Y-53093931D01*
X93119280Y-53292988D01*
X93098891Y-53500000D01*
X90141109Y-53500000D01*
X90120720Y-53292988D01*
X90095718Y-53210567D01*
X90604432Y-53210567D01*
X90666908Y-53373000D01*
X91493000Y-53373000D01*
X91493000Y-52547681D01*
X91747000Y-52547681D01*
X91747000Y-53373000D01*
X92573092Y-53373000D01*
X92635568Y-53210567D01*
X92559589Y-53018001D01*
X92447502Y-52843958D01*
X92303614Y-52695126D01*
X92133455Y-52577225D01*
X91943565Y-52494786D01*
X91909432Y-52484439D01*
X91747000Y-52547681D01*
X91493000Y-52547681D01*
X91330568Y-52484439D01*
X91296435Y-52494786D01*
X91106545Y-52577225D01*
X90936386Y-52695126D01*
X90792498Y-52843958D01*
X90680411Y-53018001D01*
X90604432Y-53210567D01*
X90095718Y-53210567D01*
X90060337Y-53093931D01*
X89962280Y-52910479D01*
X89830317Y-52749683D01*
X89669521Y-52617720D01*
X89486069Y-52519663D01*
X89287012Y-52459280D01*
X89131872Y-52444000D01*
X89028128Y-52444000D01*
X88872988Y-52459280D01*
X88673931Y-52519663D01*
X88490479Y-52617720D01*
X88329683Y-52749683D01*
X88197720Y-52910479D01*
X88099663Y-53093931D01*
X88039280Y-53292988D01*
X88018891Y-53500000D01*
X50431000Y-53500000D01*
X50431000Y-52143531D01*
X78919000Y-52143531D01*
X78919000Y-52356469D01*
X78960543Y-52565316D01*
X79042031Y-52762045D01*
X79160333Y-52939097D01*
X79310903Y-53089667D01*
X79487955Y-53207969D01*
X79684684Y-53289457D01*
X79893531Y-53331000D01*
X80106469Y-53331000D01*
X80315316Y-53289457D01*
X80512045Y-53207969D01*
X80689097Y-53089667D01*
X80839667Y-52939097D01*
X80957969Y-52762045D01*
X81039457Y-52565316D01*
X81081000Y-52356469D01*
X81081000Y-52143531D01*
X81039457Y-51934684D01*
X80957969Y-51737955D01*
X80839667Y-51560903D01*
X80689097Y-51410333D01*
X80512045Y-51292031D01*
X80315316Y-51210543D01*
X80106469Y-51169000D01*
X79893531Y-51169000D01*
X79684684Y-51210543D01*
X79487955Y-51292031D01*
X79310903Y-51410333D01*
X79160333Y-51560903D01*
X79042031Y-51737955D01*
X78960543Y-51934684D01*
X78919000Y-52143531D01*
X50431000Y-52143531D01*
X50431000Y-50431000D01*
X109569000Y-50431000D01*
X109569001Y-130569000D01*
M02*
